<svg width="293" height="219" viewBox="0 0 293 219" fill="none" xmlns="http://www.w3.org/2000/svg">
<path d="M72.3182 22.8534C126.691 4.40007 156.028 2.0934 163.9 3.24673C226.567 0.478789 262.97 25.5445 273.338 38.4233C301.446 73.4847 287.737 110.699 277.369 124.923C270.918 140.147 220.539 155.102 196.155 160.677L219.195 212L157.564 170.48L80.958 179.707C22.4378 179.245 4.7358 130.306 3.19984 105.893C-0.486478 64.3733 47.7428 33.2334 72.3182 22.8534Z" fill="white" stroke="black" stroke-width="5"/>
<path d="M81.7654 81.7084C81.5365 81.6113 81.3855 81.3705 81.3125 80.9861C81.2738 80.7826 81.2711 80.5839 81.3044 80.3902C81.3377 80.1964 81.4022 80.0435 81.4979 79.9316C81.3324 79.7991 81.2174 79.5632 81.1529 79.224C81.0927 78.9074 81.0981 78.5667 81.169 78.2017C81.24 77.8368 81.3211 77.5871 81.4125 77.4525C81.3179 77.4471 81.226 77.3943 81.1368 77.2941C81.0476 77.1939 80.9858 77.0533 80.9515 76.8724C80.9257 76.7367 80.9321 76.5246 80.9708 76.2361C80.671 76.0119 80.4695 75.6285 80.3663 75.0858C80.2632 74.543 80.2858 74.0467 80.4341 73.5968C80.1536 73.2283 79.979 72.8632 79.9102 72.5014C79.8414 72.1396 79.8962 71.8128 80.0746 71.5212C79.9758 71.4931 79.8731 71.3838 79.7667 71.1931C79.6561 70.9799 79.5792 70.7602 79.5362 70.534C79.4417 70.0365 79.5373 69.6786 79.8232 69.4603C79.8694 68.8423 80.2084 68.4733 80.8403 68.3531C81.1111 68.3017 81.4287 68.3116 81.793 68.3829C81.98 68.1365 82.2003 67.9424 82.4539 67.8004C82.7258 67.6316 82.9901 67.5462 83.2469 67.5443C83.4479 67.2483 83.7853 67.0553 84.2592 66.9652C84.5752 66.9052 84.8632 66.9442 85.1232 67.0822C85.2952 67.0026 85.5278 66.935 85.8212 66.8792C86.092 66.8278 86.3397 66.8393 86.5643 66.9137C86.7889 66.9882 87.0758 67.1445 87.4251 67.3827C87.4885 67.3472 87.5766 67.3188 87.6894 67.2973C88.1182 67.2158 88.4889 67.3211 88.8017 67.6131C88.9102 67.569 89.0434 67.532 89.2014 67.502C89.6076 67.4248 89.9784 67.53 90.3136 67.8178C90.6016 67.8567 90.837 67.9877 91.0197 68.2107C91.2206 68.4069 91.3286 68.6675 91.3436 68.9927C91.7112 69.204 91.9336 69.5131 92.011 69.9202C92.0411 70.0785 92.0395 70.2545 92.0061 70.4483C92.292 70.722 92.4757 71.0737 92.5574 71.5033C92.6348 71.9104 92.5708 72.2505 92.3656 72.5238C92.4419 73.0482 92.1764 73.497 91.5693 73.8702C92.0464 73.92 92.4725 74.1319 92.8475 74.5058C93.2226 74.8797 93.4305 75.2971 93.4713 75.7579C93.711 76.1576 93.8716 76.5722 93.9533 77.0019C94.065 77.5898 94.022 78.1017 93.8243 78.5376C93.9285 78.963 93.8796 79.3823 93.6776 79.7956C93.4981 80.2046 93.1929 80.5672 92.762 80.8834C92.719 81.1493 92.5885 81.385 92.3703 81.5905C92.1704 81.7691 91.9442 81.8707 91.6917 81.8952C91.3328 82.2212 90.9276 82.4271 90.4763 82.5128C90.3409 82.5386 90.2372 82.5466 90.1652 82.5368C89.9771 82.9006 89.6687 83.1232 89.2399 83.2047C89.0819 83.2348 88.9288 83.2287 88.7805 83.1866C88.4076 83.5621 88.0068 83.7906 87.578 83.8721C87.2169 83.9407 86.8999 83.8721 86.627 83.6662C86.5453 83.7286 86.4255 83.7748 86.2675 83.8049C86.2202 84.0481 86.0966 84.2591 85.8968 84.4377C85.7195 84.6119 85.5067 84.7227 85.2584 84.7699C85.0102 84.817 84.7716 84.7921 84.5427 84.695C84.2042 84.7594 83.9007 84.6999 83.632 84.5167C83.3633 84.3334 83.1742 84.0765 83.0646 83.7459C82.7863 83.6348 82.5133 83.4289 82.2458 83.1283C81.9965 82.8008 81.8396 82.4675 81.7751 82.1283C81.7579 82.0378 81.7547 81.8978 81.7654 81.7084ZM83.6966 70.0947C83.6418 70.1754 83.4694 70.3136 83.1792 70.5094C82.8891 70.7051 82.7236 70.8186 82.6827 70.8497C82.7623 71.0221 82.8106 71.1535 82.8278 71.2439C82.8966 71.6057 82.8305 71.9346 82.6295 72.2305C82.8219 72.3814 82.9524 72.6378 83.0212 72.9996C83.0857 73.3388 83.0733 73.7043 82.9841 74.0961C83.1002 74.2147 83.1953 74.4075 83.2694 74.6745C83.3618 74.9147 83.4414 75.087 83.508 75.1915C83.6402 75.0258 83.8981 74.9065 84.2817 74.8336C84.53 74.7864 84.7755 74.7866 85.0184 74.8341C85.3988 74.6213 85.7583 74.4826 86.0968 74.4183L86.5094 74.375C86.9683 73.9598 87.5024 73.6942 88.1117 73.5784L88.4566 73.548C88.6189 73.0485 89.0901 72.5138 89.8703 71.9438C89.6017 71.7605 89.4372 71.5106 89.3771 71.194C89.347 71.0357 89.3507 70.871 89.3884 70.6998C89.196 70.549 89.0714 70.3852 89.0144 70.2086C88.7973 70.2967 88.5674 70.317 88.3245 70.2694C88.0999 70.195 87.9253 70.0759 87.8006 69.9121C87.7146 69.9519 87.5927 69.9868 87.4347 70.0168C87.1413 70.0726 86.8576 70.0562 86.5836 69.9677C86.3096 69.8792 86.1059 69.7305 85.9727 69.5215C85.9093 69.557 85.8099 69.5876 85.6745 69.6133C85.494 69.6476 85.3183 69.6459 85.1474 69.6081C84.8024 69.8845 84.3188 70.0467 83.6966 70.0947ZM89.2416 80.0765C89.4447 80.0379 89.5709 80.0256 89.6204 80.0396C89.8847 79.7082 90.2039 79.5421 90.5779 79.5413C90.7992 78.9838 91.0023 78.6991 91.1872 78.6874C91.0152 78.2749 91.0668 77.8082 91.3419 77.2873C91.185 77.2 91.0556 77.0723 90.9535 76.9043C90.8514 76.7362 90.8057 76.5575 90.8165 76.368L90.6811 76.3937C90.4328 76.4409 90.1249 76.3589 89.7574 76.1475C89.6715 76.1873 89.5156 76.2286 89.29 76.2715C88.9966 76.3273 88.7645 76.3363 88.5936 76.2985C88.4571 76.4416 88.2599 76.5728 88.002 76.6921C87.7667 76.8071 87.6173 76.8824 87.5539 76.9178C87.2186 77.1221 86.8592 77.2608 86.4755 77.3337C86.3401 77.3594 86.1327 77.3754 85.8533 77.3817C85.4718 77.7119 85.0441 77.9221 84.5702 78.0121C84.322 78.0593 84.1237 78.0619 83.9754 78.0198C83.8937 78.0821 83.8502 78.1607 83.8448 78.2554C83.8395 78.3502 83.8298 78.4223 83.8158 78.4718C84.1156 78.696 84.2999 78.989 84.3687 79.3508C84.4418 79.7353 84.344 80.0819 84.0753 80.3907C84.2677 80.5415 84.3939 80.7753 84.4541 81.0919C84.4842 81.2502 84.4826 81.4262 84.4493 81.62L84.5895 81.8042C84.7711 81.6525 85.0113 81.5014 85.3101 81.3509C85.6088 81.2004 85.9049 81.0973 86.1982 81.0415C86.5593 80.9729 86.8677 80.9963 87.1235 81.1117C87.3029 80.7027 87.6071 80.4574 88.0358 80.3759C88.2389 80.3373 88.4281 80.3482 88.6032 80.4087C88.7214 80.2925 88.8552 80.1968 89.0046 80.1215L89.2416 80.0765Z" fill="black"/>
<path d="M115.816 75.6298C116.324 76.2361 116.627 76.7971 116.725 77.3127C116.839 77.9097 116.685 78.4309 116.265 78.8763C116.025 79.0906 115.756 79.2261 115.458 79.2827C115.052 79.3599 114.647 79.2963 114.244 79.0918C113.867 78.8822 113.611 78.5655 113.474 78.1416C112.964 77.6761 112.64 77.077 112.501 76.3443C112.439 76.0187 112.418 75.6853 112.437 75.3443C112.122 74.8699 111.914 74.3613 111.81 73.8186C111.697 73.2216 111.715 72.7261 111.865 72.3322C111.667 72.0323 111.54 71.7331 111.484 71.4346C111.427 71.1361 111.416 70.857 111.451 70.5973C111.513 70.3325 111.614 70.1304 111.756 69.991C111.473 69.6794 111.3 69.3608 111.238 69.0351C111.197 68.818 111.212 68.6042 111.284 68.3937C111.059 68.2398 110.85 68.0264 110.658 67.7537C110.487 67.4486 110.374 67.1468 110.317 66.8483C110.245 66.4684 110.297 66.1494 110.472 65.8911C110.419 65.7606 110.369 65.5732 110.323 65.3289C110.277 65.0847 110.257 64.9058 110.263 64.7921C110 64.589 109.83 64.284 109.752 63.8769C109.66 63.3885 109.734 62.9667 109.975 62.6116C109.754 62.4848 109.562 62.2825 109.396 62.0046C109.226 61.6995 109.108 61.3706 109.041 61.0178C108.917 60.3666 108.967 59.8931 109.191 59.5974C108.99 59.1295 108.874 58.8142 108.843 58.6514C108.802 58.4343 108.799 58.1255 108.836 57.725C108.465 57.4017 108.242 57.0365 108.164 56.6295C108.123 56.4124 108.144 56.1553 108.228 55.8582C108.052 55.6669 107.932 55.4084 107.87 55.0827C107.369 55.5436 106.793 55.8358 106.143 55.9593C105.845 56.016 105.553 56.0293 105.267 55.9994C105.03 56.5225 104.599 56.8432 103.977 56.9616C103.733 57.0079 103.538 57.0168 103.392 56.9883C103.136 57.262 102.845 57.4297 102.52 57.4915C102.087 57.5738 101.663 57.4857 101.249 57.2269C100.835 56.9682 100.582 56.5946 100.489 56.1062C100.386 55.5635 100.593 55.032 101.112 54.5117C101.63 53.9914 102.179 53.7043 102.758 53.6505C102.879 53.4025 103.092 53.1934 103.396 53.0231C103.728 52.8476 104.097 52.7213 104.503 52.6441C104.828 52.5823 105.093 52.5741 105.298 52.6195C105.554 52.3458 105.94 52.16 106.455 52.0622C106.424 51.8994 106.479 51.7483 106.621 51.6089C106.785 51.4372 106.964 51.3469 107.159 51.338C107.594 50.974 108.043 50.7482 108.503 50.6607C108.963 50.5732 109.409 50.6291 109.84 50.8284C110.217 50.8972 110.553 51.1145 110.847 51.4803C111.136 51.8191 111.322 52.2055 111.404 52.6397C111.502 53.1553 111.444 53.588 111.23 53.938C111.666 54.1645 111.938 54.5626 112.047 55.1325C112.129 55.5666 112.085 55.9264 111.915 56.2118C112.155 56.588 112.334 57.0881 112.453 57.7123C112.644 58.7163 112.631 59.5341 112.414 60.1658C112.963 60.3987 113.303 60.8544 113.431 61.5328C113.529 62.0484 113.489 62.5762 113.312 63.1161C113.509 63.416 113.631 63.688 113.677 63.9323C113.729 64.2036 113.718 64.4446 113.646 64.6551C113.855 64.8685 113.988 65.1244 114.045 65.4229C114.096 65.6942 114.069 65.9946 113.963 66.324C114.45 66.9626 114.796 67.8247 115.002 68.9101C115.157 69.7242 115.164 70.4257 115.023 71.0148C115.232 71.2281 115.368 71.4976 115.43 71.8233C115.491 72.1489 115.453 72.4654 115.315 72.7728C115.502 73.0184 115.645 73.399 115.743 73.9146C115.841 74.4302 115.865 75.0019 115.816 75.6298Z" fill="black"/>
<path d="M139.582 63.9007C139.753 64.065 139.88 64.3642 139.963 64.7983C140.045 65.2325 140.065 65.7067 140.023 66.2209C140.002 66.7028 139.925 67.111 139.793 67.4455C139.898 67.7066 139.972 67.9457 140.013 68.1628C140.137 68.814 140.123 69.4775 139.97 70.1531C139.845 70.8235 139.557 71.3001 139.106 71.5827C139.114 71.9186 138.943 72.2744 138.593 72.6501C138.271 73.0207 137.904 73.231 137.493 73.2811C137.353 73.7293 136.987 74.1644 136.394 74.5864C135.828 75.0033 135.269 75.2361 134.717 75.2848C134.596 75.5327 134.369 75.7445 134.038 75.9199C133.706 76.0954 133.324 76.2243 132.891 76.3066C132.105 76.4559 131.533 76.396 131.173 76.127C130.967 76.2225 130.809 76.2805 130.701 76.3011C130.241 76.3886 129.801 76.2894 129.382 76.0036C129.306 76.0461 129.187 76.0829 129.024 76.1138C128.753 76.1652 128.497 76.1437 128.254 76.0492C128.007 75.9276 127.735 75.7542 127.44 75.5292C126.71 75.5273 125.987 75.1166 125.27 74.2969C124.607 74.0574 124.095 73.8031 123.736 73.5341C123.371 73.2379 123.18 72.8244 123.163 72.2933C122.539 71.9621 121.984 71.4772 121.498 70.8385C121.012 70.1999 120.704 69.5414 120.575 68.863C120.498 68.456 120.502 68.0335 120.587 67.5956C120.2 67.3317 120.003 66.9614 119.997 66.4846C119.643 66.1019 119.41 65.6121 119.297 65.0151C119.204 64.5266 119.24 64.1261 119.405 63.8136C119.282 63.6119 119.203 63.4161 119.167 63.2262C119.095 62.8463 119.126 62.4187 119.26 61.9433C119.202 61.7856 119.147 61.5711 119.095 61.2998C119.018 60.8927 119.086 60.5142 119.3 60.1642C119.268 60.1423 119.247 60.1041 119.237 60.0498C119.248 59.9633 119.251 59.9064 119.246 59.8793C119.071 59.5471 118.947 59.1911 118.875 58.8112C118.777 58.2956 118.835 57.8628 119.049 57.5129C118.892 56.9804 118.864 56.4655 118.966 55.9682C119.068 55.4708 119.295 55.1183 119.649 54.9106C119.685 54.5101 119.809 54.2053 120.022 53.9961C119.927 53.7893 119.869 53.6316 119.848 53.5231C119.76 53.0618 119.843 52.6103 120.096 52.1686C120.375 51.7218 120.713 51.4326 121.109 51.3012C121.232 50.9124 121.511 50.536 121.947 50.1719C122.377 49.7808 122.817 49.5848 123.266 49.5838C123.661 49.0027 124.163 48.6962 124.775 48.6644C125.033 48.2499 125.43 47.9071 125.968 47.6362C126.528 47.333 127.07 47.1597 127.595 47.1162C127.698 47.0684 127.858 47.024 128.075 46.9828C128.67 46.8696 129.13 46.9229 129.452 47.1428C129.857 47.2064 130.164 47.2745 130.375 47.347C130.612 47.4143 130.832 47.5411 131.036 47.7273C131.139 47.6796 131.313 47.6326 131.556 47.5863C132.288 47.4473 132.883 47.6293 133.344 48.1322C134.034 48.3666 134.43 48.7551 134.533 49.2979C134.616 49.732 134.515 50.159 134.23 50.5786C133.945 50.9983 133.585 51.2494 133.152 51.3317C132.665 51.4244 132.185 51.2625 131.713 50.8461C131.317 50.9776 130.96 51.0174 130.641 50.9654C130.345 50.8812 130.057 50.6969 129.779 50.4124C129.02 50.5566 128.474 50.562 128.14 50.4286C127.85 50.8212 127.542 51.1188 127.216 51.3213C126.917 51.5188 126.537 51.6613 126.076 51.7488C125.917 52.0884 125.652 52.3919 125.281 52.659C124.933 52.8939 124.556 53.05 124.15 53.1272C124.143 53.2409 124.083 53.3648 123.968 53.4991C123.848 53.6063 123.72 53.6727 123.585 53.6984C123.679 54.0461 123.687 54.382 123.608 54.7062C123.53 55.0305 123.359 55.3159 123.098 55.5624C123.159 55.8881 123.147 56.1155 123.059 56.2446C122.998 56.3686 122.802 56.5183 122.471 56.6938C122.508 56.7429 122.54 56.8353 122.566 56.971C122.643 57.378 122.515 57.7397 122.183 58.056C122.39 58.4101 122.495 58.7416 122.498 59.0504L122.624 59.4904C122.686 59.8161 122.696 60.0951 122.656 60.3277C123.087 59.9365 123.451 59.783 123.747 59.8673C123.82 59.6567 124.005 59.4527 124.305 59.2553C124.599 59.0307 124.846 58.9275 125.045 58.9458C125.063 58.7455 125.301 58.5176 125.757 58.2622C126.236 57.9744 126.678 57.792 127.084 57.7147C127.247 57.6839 127.358 57.6768 127.417 57.6937C127.461 57.6291 127.586 57.5491 127.792 57.4537C128.02 57.3259 128.243 57.2415 128.459 57.2003C128.703 57.154 128.873 57.1638 128.97 57.2297C129.171 57.1072 129.475 57.0073 129.881 56.9301C130.775 56.7602 131.447 56.8292 131.899 57.137C132.614 56.9166 133.288 56.9152 133.918 57.1328C134.571 57.318 135.01 57.7828 135.235 58.5272C135.651 58.6451 136.014 58.8573 136.324 59.1637C136.657 59.4379 136.852 59.7242 136.909 60.0227C137.368 60.076 137.803 60.3024 138.216 60.702C138.656 61.0964 138.885 61.4887 138.903 61.8789C139.317 62.1376 139.57 62.5112 139.663 62.9996C139.725 63.3253 139.698 63.6256 139.582 63.9007ZM136.58 67.5923C136.527 67.4618 136.475 67.2608 136.423 66.9895C136.315 66.4196 136.37 65.9733 136.589 65.6504C136.521 65.4385 136.423 65.2181 136.295 64.9893C136.162 64.7334 136.081 64.524 136.05 64.3612C135.998 64.0899 136.022 63.8463 136.121 63.6307C135.96 63.5207 135.864 63.3843 135.833 63.2215C135.498 63.229 135.121 63.0898 134.701 62.804C134.277 62.491 133.977 62.1684 133.802 61.8362C133.407 61.8269 133.062 61.7097 132.767 61.4846C132.472 61.2596 132.275 60.9597 132.175 60.585C131.877 60.6416 131.504 60.6704 131.055 60.6713C130.634 60.6671 130.302 60.6178 130.059 60.5233C129.926 60.8578 129.576 61.0791 129.007 61.1872C128.682 61.249 128.303 61.2506 127.871 61.1921C127.788 61.4892 127.626 61.7449 127.386 61.9592C127.146 62.1735 126.864 62.3115 126.539 62.3733C126.268 62.4248 126.06 62.4362 125.914 62.4077C125.717 62.6983 125.442 62.877 125.09 62.9439C125 63.3547 124.818 63.6562 124.546 63.8485C124.301 64.0357 123.927 64.2053 123.422 64.3574C123.662 64.7335 123.844 65.2472 123.968 65.8985C124.123 66.7126 124.082 67.3108 123.846 67.693C124.1 67.701 124.426 68.0888 124.825 68.8566C125.245 69.592 125.47 70.182 125.498 70.6265C125.698 70.6447 125.937 70.7961 126.215 71.0805C126.521 71.3598 126.69 71.5105 126.722 71.5325C127.657 71.5797 128.412 71.8581 128.985 72.3676C129.062 72.325 129.181 72.2882 129.343 72.2574C129.858 72.1596 130.316 72.2833 130.719 72.6286C131.277 72.4662 131.739 72.5331 132.104 72.8292C132.394 72.4367 132.864 72.1787 133.514 72.0551C133.73 72.0139 133.868 72.0018 133.928 72.0186C134.017 71.7487 134.251 71.5776 134.63 71.5056C134.697 71.2679 134.872 71.0096 135.156 70.7308C135.462 70.4196 135.723 70.2435 135.939 70.2023C135.996 69.9104 136.169 69.6385 136.458 69.3868C136.41 68.693 136.451 68.0948 136.58 67.5923Z" fill="black"/>
<path d="M144.307 57.3091C144.487 57.6684 144.747 57.9283 145.086 58.0888C145.42 58.2221 145.79 58.2501 146.196 58.1729C146.684 58.0803 147.089 57.8487 147.411 57.4781C147.761 57.1024 147.886 56.6568 147.788 56.1412C147.685 55.5985 147.317 55.0639 146.684 54.5376C146.051 54.0113 145.45 53.8022 144.881 53.9102C144.394 54.0029 144.013 54.2862 143.738 54.7602C143.463 55.2341 143.372 55.7153 143.465 56.2038C143.558 56.6922 143.839 57.0607 144.307 57.3091ZM147.533 72.5114C147.042 72.436 146.648 72.2859 146.353 72.0608C146.08 71.8035 145.909 71.4985 145.842 71.1457C145.76 70.7115 145.847 70.2872 146.105 69.8726C146.385 69.4258 146.769 69.1561 147.256 69.0634C147.744 68.9708 148.318 69.1146 148.98 69.495C149.412 69.5535 149.796 69.8038 150.133 70.2459C150.491 70.6557 150.719 71.1184 150.817 71.634C150.89 72.0139 150.879 72.3253 150.784 72.5681C150.552 73.1183 150.125 73.4526 149.502 73.571C149.096 73.6482 148.707 73.5956 148.336 73.4131C147.964 73.2307 147.697 72.9301 147.533 72.5114Z" fill="black"/>
<path d="M177.292 54.4556C177.463 54.6198 177.575 54.8376 177.626 55.109C177.678 55.3803 177.638 55.6129 177.507 55.8066C177.967 56.3095 178.259 56.8866 178.383 57.5379C178.558 58.4605 178.341 59.1625 177.731 59.644C177.837 59.9051 177.902 60.1034 177.928 60.2391C178.042 60.8361 177.934 61.3767 177.605 61.861C177.699 62.2086 177.666 62.6227 177.505 63.1032C177.365 63.5514 177.145 63.9446 176.845 64.2829C176.414 65.2645 175.857 65.8765 175.174 66.1189C175.063 66.4211 174.841 66.7304 174.508 67.0467C174.17 67.3358 173.798 67.519 173.392 67.5962C173.203 67.6322 173.065 67.6444 172.978 67.6327C172.852 67.8535 172.531 68.0833 172.015 68.3219C171.499 68.5605 170.97 68.7313 170.429 68.8343C169.968 68.9218 169.549 68.9311 169.171 68.8624C168.509 69.2133 167.866 69.4479 167.243 69.5663C166.566 69.695 165.882 69.7126 165.191 69.619C164.526 69.5203 163.942 69.3222 163.436 69.0246C162.933 69.0359 162.282 68.7098 161.483 68.0464C160.729 68.2176 159.942 67.6925 159.121 66.4709C158.573 66.0971 158.141 65.7434 157.825 65.4098C157.504 65.0491 157.302 64.6517 157.219 64.2175C157.178 64.0004 157.175 63.762 157.21 63.5024C156.901 63.5047 156.606 63.3501 156.322 63.0385C156.038 62.7269 155.863 62.3947 155.796 62.042C155.76 61.852 155.747 61.7137 155.759 61.6272C155.221 61.3077 154.909 60.9172 154.821 60.4559C154.769 60.1846 154.816 59.8383 154.96 59.4172C154.795 59.1393 154.682 58.8376 154.62 58.5119C154.532 58.0506 154.579 57.3388 154.761 56.3764C154.391 56.0531 154.146 55.5794 154.028 54.9552C153.93 54.4396 153.929 53.9196 154.026 53.3951C154.117 52.8435 154.292 52.4309 154.548 52.1571C154.41 51.8741 154.31 51.5697 154.248 51.2441C154.13 50.62 154.138 49.9998 154.274 49.3836C154.404 48.7403 154.684 48.2231 155.115 47.8319C155.063 47.5606 155.082 47.2899 155.171 47.02C155.282 46.7177 155.433 46.4782 155.624 46.3013C155.577 46.0571 155.624 45.7109 155.763 45.2626C155.902 44.8144 156.106 44.4102 156.374 44.0499C156.643 43.6896 156.944 43.5058 157.28 43.4983C157.348 43.1198 157.537 42.7885 157.848 42.5045C158.186 42.2154 158.563 42.0593 158.98 42.0364C159.15 41.751 159.447 41.4695 159.872 41.1921C160.318 40.8823 160.706 40.7102 161.036 40.6755C161.157 40.4276 161.397 40.2133 161.756 40.0327C162.114 39.8521 162.51 39.7206 162.943 39.6382C163.539 39.525 164.028 39.5163 164.411 39.6122L164.688 39.5175C165.067 39.4454 165.396 39.5516 165.675 39.836C165.972 39.7794 166.208 39.7628 166.381 39.7862C166.575 39.7773 166.729 39.8465 166.841 39.9939L167.118 39.8992C167.47 39.8323 167.839 39.9307 168.226 40.1946C168.633 39.9766 169.143 40.0764 169.756 40.4942C170.396 40.9069 170.789 41.3523 170.936 41.8304C171.119 41.9081 171.269 42.0342 171.387 42.2087C171.499 42.356 171.629 42.5984 171.777 42.9357C172.155 43.0045 172.494 43.165 172.795 43.4171C173.122 43.6642 173.309 43.9802 173.354 44.3652C173.655 44.4766 173.953 44.7856 174.245 45.2923C174.533 45.7718 174.683 46.1932 174.696 46.5562C175.551 47.0685 176.079 47.8538 176.28 48.9121C176.363 49.3463 176.41 49.8153 176.421 50.3192C176.624 50.6463 176.756 50.9726 176.818 51.2982C176.88 51.6239 176.866 51.9216 176.777 52.1916C176.954 52.383 177.117 52.5769 177.267 52.7734C177.416 52.9699 177.509 53.1631 177.545 53.3531C177.602 53.6516 177.518 54.0191 177.292 54.4556ZM166.843 66.3528C167.384 66.2498 167.786 66.2999 168.05 66.5029C168.068 66.3027 168.242 66.1148 168.574 65.9394C168.905 65.7639 169.26 65.6402 169.64 65.5681C169.965 65.5063 170.216 65.5007 170.394 65.5512C170.51 65.2761 170.702 65.0289 170.968 64.8094C171.257 64.5577 171.591 64.3958 171.97 64.3237C172.133 64.2929 172.257 64.2833 172.344 64.295C172.455 63.9927 172.676 63.6835 173.009 63.3672C173.369 63.0457 173.695 62.8431 173.988 62.7594C173.867 62.4169 173.871 61.9944 174 61.4919C174.15 60.9572 174.357 60.4961 174.62 60.1087C174.431 59.5543 174.331 59.2499 174.321 59.1956C174.187 58.4901 174.27 57.9682 174.57 57.6299C174.205 57.3338 173.984 56.9822 173.907 56.5751C173.85 56.2766 173.877 55.9763 173.988 55.674C173.838 55.4775 173.738 55.2436 173.686 54.9722C173.614 54.5923 173.658 54.2325 173.818 53.8929C173.551 53.5218 173.374 53.1057 173.286 52.6444C173.219 52.2916 173.211 51.9557 173.263 51.6366C173.21 51.5061 173.158 51.3051 173.106 51.0337C173.013 50.5453 172.983 50.0168 173.015 49.4484C172.493 49.2103 172.112 48.9031 171.872 48.527C171.627 48.1237 171.415 47.6015 171.238 46.9606C170.666 46.7599 170.316 46.3907 170.185 45.8531C169.807 45.7844 169.479 45.6078 169.201 45.3233C168.944 45.0066 168.796 44.6692 168.756 44.3113C168.632 44.2505 168.468 44.127 168.265 43.9408C167.669 44.054 167.162 43.8973 166.744 43.4706C166.392 43.5375 165.987 43.5443 165.527 43.491C165.095 43.4326 164.751 43.3154 164.493 43.1394C164.389 43.1872 164.246 43.2426 164.061 43.3058C163.877 43.369 163.649 43.4263 163.378 43.4777C163.162 43.5189 163.01 43.5337 162.924 43.522C162.852 43.7325 162.69 43.9178 162.44 44.0778C162.19 44.2378 161.916 44.3461 161.618 44.4028C161.364 44.9853 160.926 45.3357 160.303 45.4541C160.093 45.972 159.722 46.3096 159.191 46.4668C159.28 46.7873 159.271 47.1122 159.165 47.4416C159.082 47.7387 158.906 47.997 158.639 48.2164C158.701 48.5421 158.663 48.8586 158.525 49.166C158.382 49.4462 158.174 49.6825 157.902 49.8748C158.008 50.1359 158.089 50.4156 158.146 50.7141C158.265 51.3383 158.296 52.0211 158.241 52.7627C158.207 53.472 158.047 54.1069 157.761 54.6674C157.943 54.8859 158.065 55.1579 158.127 55.4836C158.178 55.7549 158.181 56.0637 158.134 56.4099C158.11 56.7239 158.097 56.9513 158.096 57.0921C158.228 57.348 158.323 57.6252 158.38 57.9237C158.468 58.385 158.466 58.8915 158.374 59.4431C158.717 59.7716 158.916 60.1554 158.972 60.5948C159.301 60.7009 159.628 61.0184 159.953 61.5471C160.299 62.0435 160.519 62.5359 160.612 63.0243L160.633 63.3577C160.898 63.4199 161.151 63.5687 161.392 63.804C161.633 64.0393 161.773 64.336 161.813 64.6939C162.116 64.6644 162.502 64.7739 162.97 65.0223C163.438 65.2707 163.839 65.532 164.171 65.8062C164.669 65.7678 165.107 65.783 165.485 65.8517C165.857 65.8934 166.229 66.0758 166.599 66.3991L166.843 66.3528Z" fill="black"/>
<path d="M205.02 49.1852C205.192 49.3494 205.303 49.5672 205.355 49.8385C205.406 50.1099 205.366 50.3424 205.235 50.5361C205.695 51.0391 205.987 51.6162 206.111 52.2674C206.287 53.1901 206.069 53.8921 205.459 54.3735C205.565 54.6346 205.631 54.833 205.657 54.9687C205.77 55.5657 205.662 56.1063 205.334 56.5905C205.428 56.9382 205.394 57.3522 205.233 57.8327C205.094 58.2809 204.874 58.6742 204.573 59.0125C204.143 59.9941 203.585 60.606 202.902 60.8484C202.791 61.1507 202.569 61.4599 202.237 61.7762C201.899 62.0654 201.527 62.2485 201.121 62.3258C200.931 62.3618 200.793 62.374 200.707 62.3623C200.58 62.5831 200.259 62.8128 199.743 63.0515C199.227 63.2901 198.699 63.4609 198.157 63.5638C197.697 63.6513 197.278 63.6607 196.9 63.5919C196.237 63.9428 195.594 64.1775 194.971 64.2959C194.294 64.4246 193.61 64.4421 192.919 64.3486C192.255 64.2499 191.67 64.0517 191.165 63.7542C190.662 63.7654 190.01 63.4394 189.211 62.7759C188.458 62.9472 187.671 62.422 186.849 61.2005C186.301 60.8267 185.869 60.473 185.553 60.1394C185.232 59.7787 185.03 59.3812 184.948 58.947C184.906 58.73 184.903 58.4916 184.938 58.2319C184.63 58.2343 184.334 58.0796 184.05 57.768C183.767 57.4565 183.591 57.1243 183.524 56.7715C183.488 56.5816 183.476 56.4433 183.487 56.3567C182.95 56.0372 182.637 55.6468 182.549 55.1855C182.498 54.9141 182.544 54.5679 182.689 54.1468C182.523 53.8689 182.41 53.5671 182.348 53.2415C182.26 52.7802 182.307 52.0683 182.489 51.1059C182.119 50.7826 181.875 50.3089 181.756 49.6848C181.658 49.1692 181.658 48.6492 181.754 48.1247C181.846 47.5731 182.02 47.1604 182.277 46.8867C182.139 46.6036 182.039 46.2993 181.977 45.9737C181.858 45.3495 181.867 44.7294 182.002 44.1132C182.132 43.4699 182.413 42.9526 182.843 42.5615C182.792 42.2901 182.811 42.0195 182.899 41.7495C183.01 41.4473 183.161 41.2077 183.352 41.0309C183.306 40.7866 183.352 40.4404 183.491 39.9922C183.631 39.544 183.834 39.1397 184.103 38.7795C184.371 38.4192 184.673 38.2353 185.008 38.2278C185.076 37.8493 185.266 37.5181 185.577 37.2341C185.915 36.9449 186.292 36.7889 186.708 36.7659C186.878 36.4805 187.176 36.1991 187.6 35.9216C188.046 35.6119 188.434 35.4397 188.764 35.4051C188.886 35.1571 189.125 34.9428 189.484 34.7622C189.842 34.5816 190.238 34.4501 190.672 34.3678C191.267 34.2545 191.757 34.2459 192.14 34.3418L192.416 34.247C192.796 34.175 193.124 34.2811 193.403 34.5656C193.701 34.509 193.936 34.4924 194.109 34.5158C194.304 34.5069 194.457 34.5761 194.569 34.7235L194.846 34.6287C195.198 34.5618 195.567 34.6603 195.954 34.9241C196.362 34.7061 196.872 34.806 197.484 35.2238C198.124 35.6364 198.517 36.0818 198.664 36.56C198.847 36.6376 198.998 36.7637 199.115 36.9382C199.227 37.0856 199.357 37.3279 199.506 37.6653C199.883 37.734 200.223 37.8945 200.523 38.1467C200.851 38.3937 201.037 38.7097 201.082 39.0948C201.384 39.2061 201.681 39.5152 201.974 40.0218C202.261 40.5014 202.412 40.9227 202.424 41.2858C203.279 41.7981 203.808 42.5834 204.009 43.6417C204.091 44.0758 204.138 44.5449 204.15 45.0488C204.352 45.3758 204.484 45.7021 204.546 46.0278C204.608 46.3534 204.595 46.6512 204.506 46.9212C204.682 47.1125 204.846 47.3064 204.995 47.5029C205.145 47.6994 205.238 47.8927 205.274 48.0826C205.33 48.3811 205.246 48.7486 205.02 49.1852ZM194.571 61.0823C195.113 60.9794 195.515 61.0295 195.778 61.2325C195.796 61.0323 195.971 60.8444 196.302 60.6689C196.634 60.4935 196.989 60.3697 197.368 60.2977C197.693 60.2359 197.944 60.2303 198.122 60.2808C198.238 60.0057 198.43 59.7584 198.697 59.539C198.986 59.2873 199.32 59.1254 199.699 59.0533C199.861 59.0224 199.986 59.0128 200.072 59.0245C200.183 58.7223 200.405 58.413 200.738 58.0967C201.097 57.7753 201.424 57.5727 201.716 57.4889C201.595 57.1465 201.599 56.724 201.728 56.2215C201.879 55.6867 202.086 55.2256 202.349 54.8382C202.159 54.2838 202.059 53.9795 202.049 53.9252C201.915 53.2197 201.998 52.6977 202.299 52.3595C201.934 52.0633 201.713 51.7117 201.635 51.3047C201.578 51.0062 201.606 50.7058 201.716 50.4036C201.567 50.2071 201.466 49.9731 201.415 49.7018C201.342 49.3219 201.386 48.9621 201.546 48.6224C201.279 48.2514 201.102 47.8352 201.014 47.3739C200.947 47.0212 200.94 46.6852 200.991 46.3661C200.938 46.2356 200.886 46.0347 200.834 45.7633C200.742 45.2748 200.711 44.7464 200.744 44.1779C200.221 43.9398 199.84 43.6327 199.6 43.2565C199.355 42.8532 199.144 42.3311 198.966 41.6901C198.395 41.4894 198.044 41.1203 197.914 40.5827C197.536 40.5139 197.208 40.3373 196.929 40.0529C196.672 39.7361 196.524 39.3988 196.484 39.0409C196.36 38.9801 196.197 38.8566 195.993 38.6704C195.397 38.7836 194.89 38.6269 194.473 38.2002C194.121 38.2671 193.715 38.2739 193.256 38.2206C192.824 38.1621 192.479 38.0449 192.221 37.869C192.118 37.9167 191.974 37.9722 191.79 38.0353C191.605 38.0985 191.378 38.1558 191.107 38.2073C190.89 38.2485 190.739 38.2632 190.652 38.2515C190.58 38.4621 190.419 38.6473 190.169 38.8074C189.919 38.9674 189.644 39.0757 189.347 39.1323C189.093 39.7148 188.654 40.0653 188.031 40.1837C187.821 40.7016 187.45 41.0392 186.919 41.1964C187.008 41.5169 187 41.8418 186.894 42.1712C186.81 42.4683 186.635 42.7265 186.368 42.946C186.43 43.2716 186.392 43.5881 186.254 43.8955C186.11 44.1758 185.903 44.4121 185.631 44.6044C185.736 44.8654 185.818 45.1452 185.874 45.4437C185.993 46.0678 186.025 46.7507 185.969 47.4922C185.936 48.2015 185.776 48.8364 185.489 49.3969C185.671 49.6154 185.793 49.8875 185.855 50.2131C185.907 50.4845 185.909 50.7933 185.863 51.1395C185.838 51.4534 185.825 51.6808 185.824 51.8217C185.957 52.0776 186.052 52.3548 186.108 52.6533C186.196 53.1146 186.194 53.6211 186.103 54.1727C186.446 54.5011 186.645 54.885 186.7 55.3243C187.029 55.4305 187.356 55.7479 187.681 56.2766C188.028 56.773 188.248 57.2654 188.341 57.7539L188.362 58.0872C188.626 58.1495 188.879 58.2982 189.12 58.5336C189.361 58.7689 189.502 59.0655 189.542 59.4234C189.845 59.394 190.23 59.5034 190.698 59.7518C191.167 60.0003 191.567 60.2616 191.9 60.5357C192.397 60.4973 192.835 60.5125 193.213 60.5813C193.586 60.6229 193.957 60.8054 194.327 61.1287L194.571 61.0823Z" fill="black"/>
<path d="M47.3163 134.192C47.2433 133.807 47.3206 133.476 47.5485 133.198C47.4206 132.895 47.3287 132.596 47.2728 132.302C47.2299 132.076 47.2089 131.904 47.21 131.787C46.9865 131.595 46.8446 131.341 46.7844 131.024C46.7157 130.662 46.7973 130.354 47.0295 130.099C46.7565 129.893 46.562 129.485 46.446 128.874C46.3772 128.512 46.3734 128.185 46.4347 127.892C46.2789 127.688 46.1709 127.427 46.1107 127.11C46.0591 126.839 46.0548 126.57 46.0978 126.304C46.1365 126.016 46.2107 125.791 46.3203 125.63C46.2719 125.498 46.2058 125.335 46.122 125.14C46.0339 124.923 45.9748 124.735 45.9447 124.576C45.8759 124.214 45.9178 123.82 46.0704 123.393C45.9146 123.188 45.8174 122.984 45.7787 122.78C45.7529 122.645 45.7593 122.433 45.798 122.144C45.5573 121.862 45.3811 121.427 45.2693 120.839C45.1447 120.183 45.1716 119.709 45.35 119.418C45.336 118.975 45.5445 118.596 45.9754 118.279C46.4063 117.963 46.9152 117.749 47.5019 117.638C48.0886 117.526 48.5572 117.531 48.9075 117.652C49.3159 117.34 49.7231 117.145 50.1294 117.068C50.3776 117.021 50.6006 117.025 50.7983 117.082C50.9982 116.903 51.2222 116.79 51.4705 116.743C51.7413 116.691 51.9911 116.714 52.22 116.811C52.392 116.732 52.5344 116.681 52.6472 116.66C52.7149 116.647 52.8659 116.642 53.1001 116.644C53.3054 116.371 53.5886 116.2 53.9496 116.131C54.3107 116.062 54.6256 116.12 54.8942 116.303C54.9275 116.109 55.0146 115.952 55.1554 115.832C55.3144 115.684 55.5068 115.589 55.7324 115.546C56.0484 115.486 56.3724 115.53 56.7044 115.678C57.0376 115.708 57.318 115.831 57.5459 116.045C57.7962 116.255 57.9494 116.507 58.0052 116.801C58.0439 117.005 58.0101 117.257 57.9037 117.559C57.9918 117.776 58.0488 117.953 58.0745 118.088C58.1605 118.541 58.0557 118.912 57.7602 119.203C58.0289 119.386 58.204 119.692 58.2857 120.122C58.3416 120.416 58.3319 120.734 58.2567 121.076C58.4307 121.254 58.5414 121.467 58.5887 121.716C58.6317 121.942 58.6231 122.143 58.5629 122.319C58.7413 122.519 58.8541 122.743 58.9014 122.992C58.953 123.264 58.9121 123.541 58.7789 123.824C58.867 124.041 58.9197 124.195 58.9369 124.286C58.9712 124.467 58.9675 124.632 58.9256 124.78C59.1265 124.976 59.2528 125.21 59.3044 125.481C59.3688 125.82 59.321 126.122 59.1609 126.387C59.2232 126.469 59.2737 126.612 59.3124 126.815C59.3382 126.951 59.3484 127.066 59.343 127.161C59.6654 127.381 59.8567 127.649 59.9169 127.966C59.9684 128.237 59.9367 128.501 59.8218 128.757C60.0442 129.066 60.1296 129.331 60.078 129.552C60.2553 129.869 60.3719 130.175 60.4278 130.469C60.5482 131.102 60.4778 131.655 60.2166 132.126C60.2091 132.456 60.1006 132.746 59.891 132.996C59.6815 133.247 59.4187 133.402 59.1028 133.462C58.8771 133.505 58.6498 133.478 58.4209 133.381C57.976 133.255 57.7192 133.011 57.6504 132.649C57.6203 132.491 57.6155 132.281 57.6359 132.019C57.6746 131.731 57.7036 131.514 57.723 131.37C57.6209 131.202 57.5484 131.005 57.5054 130.779C57.4624 130.553 57.4662 130.388 57.5167 130.285C57.3609 130.08 57.255 129.831 57.1991 129.537C57.1819 129.446 57.1658 129.238 57.1508 128.913C56.7876 128.724 56.5673 128.427 56.4899 128.02C56.4297 127.703 56.4797 127.412 56.6398 127.148C56.5603 126.975 56.5119 126.844 56.4948 126.753C56.4389 126.459 56.4593 126.198 56.556 125.968C56.4314 125.805 56.3475 125.61 56.3046 125.384C56.2702 125.203 56.267 125.063 56.2949 124.964C56.0671 124.749 55.9231 124.484 55.8629 124.167C55.8113 123.896 55.8339 123.646 55.9306 123.416C55.8285 123.248 55.7603 123.074 55.7259 122.893C55.6786 122.644 55.6851 122.432 55.7453 122.257C55.6206 122.093 55.5346 121.887 55.4874 121.638C55.4315 121.344 55.4519 121.082 55.5486 120.853C55.4111 120.621 55.3144 120.359 55.2585 120.065C55.2155 119.839 55.1736 119.495 55.1328 119.034C55.0199 119.056 54.8464 119.065 54.6121 119.063C54.4208 119.287 54.1898 119.424 53.919 119.476C53.7384 119.51 53.5246 119.492 53.2774 119.422C53.1001 119.596 52.8986 119.705 52.6729 119.748C52.4247 119.795 52.1861 119.77 51.9573 119.673C51.7531 119.829 51.5607 119.924 51.3802 119.958C51.1319 120.005 50.8418 119.955 50.5097 119.807C50.2056 120.053 49.794 120.225 49.275 120.323C48.7785 120.418 48.3347 120.42 47.9435 120.33C48.3197 120.587 48.5528 120.953 48.6431 121.427C48.7076 121.767 48.6683 122.114 48.5254 122.469C48.6049 122.641 48.6554 122.784 48.6769 122.897C48.7414 123.236 48.7215 123.685 48.6173 124.244C48.8892 124.567 49.0638 124.932 49.1411 125.339C49.2228 125.769 49.1449 126.159 48.9074 126.509C49.2029 126.71 49.3829 126.98 49.4474 127.32C49.5162 127.681 49.4501 128.01 49.2491 128.306C49.4501 128.502 49.5914 128.815 49.673 129.245C49.7805 129.81 49.7536 130.284 49.5924 130.666C49.8235 131.02 49.9583 131.299 49.997 131.503C50.0271 131.661 50.0276 131.849 49.9986 132.065C50.1233 132.229 50.2178 132.48 50.2823 132.819C50.407 133.475 50.2898 133.966 49.9309 134.292C49.8041 134.855 49.4699 135.188 48.9283 135.291C48.5446 135.364 48.1938 135.302 47.8757 135.104C47.5576 134.907 47.3711 134.603 47.3163 134.192Z" fill="black"/>
<path d="M73.7868 130.671C73.5676 130.994 73.1759 131.209 72.6117 131.317C72.1829 131.398 71.8202 131.397 71.5236 131.312C71.1346 131.48 70.7821 131.594 70.4662 131.654C69.5861 131.821 68.9112 131.715 68.4416 131.336C68.3557 131.376 68.2337 131.411 68.0757 131.441C67.5567 131.539 67.1166 131.377 66.7556 130.954C66.5342 131.019 66.2193 130.962 65.811 130.782C65.4209 130.575 65.2248 130.342 65.2226 130.085C64.8444 130.063 64.4989 129.906 64.1862 129.614C63.8917 129.295 63.7128 128.908 63.6494 128.451C63.384 128.408 63.1578 128.263 62.9708 128.018C62.7838 127.772 62.6581 127.48 62.5936 127.141C62.5248 126.779 62.5318 126.508 62.6146 126.328C62.2933 125.991 62.0853 125.574 61.9908 125.076C61.8919 124.556 61.9703 124.108 62.2261 123.731C61.9435 123.597 61.7678 123.349 61.699 122.988C61.656 122.762 61.6695 122.525 61.7393 122.277C61.8092 122.029 61.9258 121.843 62.0891 121.719C61.9838 121.411 61.9618 121.11 62.023 120.817C62.1026 120.498 62.2423 120.248 62.4422 120.07C62.3841 120.011 62.3422 119.913 62.3164 119.777C62.2777 119.574 62.3068 119.358 62.4035 119.128C62.5228 118.895 62.6684 118.738 62.8403 118.659C62.8049 118.595 62.7764 118.507 62.7549 118.394C62.6646 117.919 62.7678 117.478 63.0644 117.07C63.3567 116.639 63.6764 116.414 64.0235 116.395C63.9633 116.079 64.0493 115.793 64.2814 115.538C64.5318 115.256 64.8827 115.072 65.334 114.986C65.5371 114.948 65.6972 114.929 65.8144 114.93C65.9079 114.561 66.1271 114.238 66.472 113.962C66.8127 113.663 67.1861 113.475 67.5923 113.397C67.8631 113.346 68.0996 113.36 68.3016 113.438C68.566 113.107 68.9351 112.896 69.409 112.806C69.7926 112.733 70.1483 112.759 70.4761 112.884C70.8264 113.005 71.0655 113.218 71.1934 113.521C71.5545 113.453 71.9639 113.515 72.4217 113.71C72.8752 113.881 73.1616 114.096 73.2808 114.355C73.8525 114.41 74.4382 114.662 75.0378 115.11C75.6557 115.532 76.0163 116.014 76.1194 116.556C76.1366 116.647 76.1398 116.787 76.1291 116.976C77.1381 116.995 77.7652 117.895 78.0102 119.676C78.2778 119.977 78.4481 120.32 78.5211 120.704C78.6071 121.156 78.5464 121.636 78.339 122.144C78.4454 122.335 78.5157 122.521 78.5501 122.702C78.6017 122.973 78.5947 123.244 78.5292 123.514C78.4636 123.784 78.3535 124.004 78.1987 124.174C78.2901 124.532 78.2782 124.839 78.1632 125.095C78.0708 125.347 77.8693 125.701 77.5588 126.159C77.5985 126.245 77.6356 126.378 77.67 126.559C77.7989 127.238 77.4991 127.752 76.7705 128.101C76.7716 128.476 76.6356 128.806 76.3627 129.092C76.1123 129.374 75.7727 129.556 75.3439 129.637C75.0774 130.204 74.6846 130.536 74.1656 130.635C74.0076 130.665 73.8814 130.677 73.7868 130.671ZM70.1535 128.902C70.304 128.709 70.5936 128.572 71.0224 128.491C71.3383 128.431 71.5161 128.444 71.5559 128.53C71.6978 128.292 71.8933 128.091 72.1427 127.926C72.392 127.762 72.6316 127.669 72.8616 127.649C73.1721 127.192 73.5531 126.92 74.0044 126.834C74.1624 126.804 74.2774 126.794 74.3494 126.804C74.2881 126.605 74.308 126.402 74.409 126.195C74.5058 125.966 74.6379 125.8 74.8056 125.698C74.7497 125.404 74.7701 125.142 74.8668 124.913C74.9818 124.657 75.1414 124.451 75.3456 124.295C75.2596 123.843 75.2811 123.464 75.4101 123.158C75.308 122.99 75.2398 122.816 75.2054 122.635C75.1581 122.386 75.1694 122.138 75.2392 121.89C75.3048 121.62 75.4241 121.386 75.5971 121.189C75.3327 121.029 75.1726 120.802 75.1168 120.508C75.0652 120.236 75.0926 119.95 75.199 119.648C74.696 119.463 74.342 119.261 74.1367 119.042C73.9497 118.796 73.7896 118.323 73.6564 117.622C73.4576 117.683 73.2217 117.611 72.9487 117.405C72.6984 117.195 72.5205 116.936 72.4152 116.628C72.1799 116.743 71.8623 116.733 71.4626 116.598C71.0811 116.436 70.8581 116.186 70.7936 115.847C70.6303 115.971 70.4245 116.057 70.1762 116.105C69.7023 116.195 69.2865 116.098 68.9286 115.814C68.7276 116.11 68.4391 116.376 68.063 116.612C67.7051 116.82 67.3752 116.93 67.0733 116.94C67.0937 117.171 66.9422 117.481 66.6187 117.87C66.3135 118.233 66.0228 118.487 65.7466 118.633C65.8401 118.756 65.9041 118.908 65.9384 119.089C65.9814 119.315 65.968 119.552 65.8981 119.8C65.8283 120.047 65.7068 120.269 65.5338 120.466C65.6166 120.779 65.5956 121.099 65.471 121.427C65.3689 121.751 65.1819 121.998 64.91 122.166C64.9895 122.339 65.04 122.481 65.0615 122.595C65.1217 122.911 65.09 123.175 64.9664 123.386C65.0642 123.531 65.1281 123.683 65.1582 123.841C65.2055 124.09 65.133 124.385 64.9406 124.726C65.5778 125.003 65.9652 125.504 66.1028 126.227C66.1758 126.612 66.1705 126.953 66.0866 127.25C66.3166 127.23 66.4875 127.267 66.5992 127.363C66.711 127.459 66.8244 127.625 66.9393 127.861C67.5164 127.822 67.9855 128.014 68.3466 128.437C68.5948 128.39 68.9145 128.411 69.3057 128.501C69.7194 128.586 70.002 128.72 70.1535 128.902Z" fill="black"/>
<path d="M94.0946 113.491C94.3643 113.557 94.6415 113.786 94.9263 114.177C95.2336 114.563 95.4303 114.983 95.5163 115.435C95.6624 116.204 95.4227 116.789 94.7973 117.189C94.677 117.539 94.476 117.835 94.1944 118.076C93.9355 118.313 93.6254 118.466 93.2644 118.534C92.971 118.59 92.6534 118.58 92.3117 118.505C92.1527 118.652 91.9238 118.801 91.625 118.951C91.3263 119.102 91.0189 119.207 90.703 119.267C90.1614 119.37 89.7675 119.328 89.5214 119.14C89.3302 119.364 88.9863 119.523 88.4898 119.618C88.1287 119.686 87.7886 119.681 87.4695 119.601C87.1836 119.819 86.8376 119.967 86.4314 120.044C86.0477 120.117 85.721 120.12 85.4513 120.055C85.2643 120.301 84.821 120.491 84.1215 120.624C83.7378 120.697 83.4719 120.712 83.3236 120.67C83.5159 121.313 83.5181 121.816 83.33 122.18C83.8404 122.528 84.0978 122.959 84.1021 123.474C84.129 123.492 84.2703 123.559 84.526 123.675C84.7818 123.79 84.9892 124.02 85.1482 124.365C85.3965 124.318 85.6415 124.376 85.8833 124.541C86.1476 124.702 86.3217 124.88 86.4055 125.075C86.4786 124.967 86.6505 124.888 86.9213 124.836C87.1244 124.797 87.3114 124.797 87.4823 124.835C87.6532 124.873 87.7585 124.935 87.7982 125.021C87.939 124.9 88.1109 124.821 88.314 124.782C88.6074 124.726 88.8976 124.777 89.1845 124.933C89.4016 124.845 89.5665 124.79 89.6794 124.769C89.905 124.726 90.1033 124.723 90.2742 124.761C90.3075 124.567 90.4558 124.363 90.7191 124.149C90.978 123.913 91.2676 123.776 91.5879 123.738C91.7254 123.478 91.9393 123.25 92.2294 123.054C92.5196 122.858 92.8226 122.73 93.1386 122.67C93.7479 122.554 94.2352 122.72 94.6006 123.166C94.7252 123.329 94.8112 123.536 94.8585 123.784C94.9616 124.327 94.7951 124.804 94.3588 125.215C94.2588 125.304 94.0907 125.465 93.8542 125.697C93.6135 125.907 93.3889 126.079 93.1804 126.212C92.972 126.345 92.7775 126.429 92.5969 126.463C92.3358 126.935 91.9118 127.226 91.3251 127.338C91.0543 127.389 90.8469 127.405 90.7029 127.386C90.4751 127.663 90.1016 127.852 89.5826 127.95C89.1087 128.04 88.7643 128.012 88.5494 127.865C88.4043 127.963 88.2528 128.027 88.0948 128.057C87.7788 128.117 87.464 128.06 87.1502 127.885C86.0122 128.172 85.1648 127.958 84.6082 127.244C84.2923 127.304 83.8946 127.18 83.4154 126.873C82.9544 126.539 82.6734 126.229 82.5723 125.944C82.0146 125.839 81.6165 125.528 81.3779 125.011C81.321 124.834 81.2887 124.665 81.2812 124.502C81.1866 124.497 81.0905 124.421 80.9927 124.276C80.9131 124.104 80.8562 123.927 80.8218 123.746C80.796 123.61 80.7901 123.518 80.8041 123.468C80.5204 122.96 80.3356 122.48 80.2496 122.027C80.1636 121.575 80.1765 121.151 80.2883 120.755C80.1056 120.532 79.9863 120.273 79.9305 119.979C79.8617 119.617 79.8719 119.241 79.9611 118.849C80.0503 118.457 80.1518 118.192 80.2658 118.053C80.1991 117.948 80.1964 117.75 80.2577 117.457C80.3147 117.141 80.4119 116.853 80.5495 116.593C80.7053 116.306 80.8805 116.12 81.075 116.036L80.9702 115.67C80.8026 114.788 81.1712 114.144 82.076 113.737C82.0029 113.353 82.1577 112.937 82.5403 112.489C82.9228 112.042 83.2877 111.808 83.6348 111.789C83.6326 111.532 83.8105 111.299 84.1683 111.09C84.5444 110.855 84.8405 110.752 85.0565 110.781C85.1812 110.453 85.5035 110.18 86.0237 109.964C86.1838 109.7 86.4557 109.531 86.8393 109.458C86.9521 109.436 87.1031 109.431 87.2923 109.442L87.5905 109.35C87.8613 109.299 88.0977 109.312 88.2997 109.391C88.52 109.443 88.6318 109.539 88.635 109.679C89.1401 109.63 89.579 109.663 89.9519 109.78C90.3248 109.897 90.5903 110.186 90.7482 110.648C91.0287 110.524 91.4161 110.533 91.9104 110.673C92.4004 110.791 92.8464 111.046 93.2483 111.438C93.6685 111.803 93.9344 112.28 94.0462 112.868C94.072 113.004 94.0881 113.211 94.0946 113.491ZM89.5376 116.642C89.7031 116.282 90.2259 116.019 91.106 115.852C91.6025 115.757 91.9947 115.73 92.2827 115.769C92.085 115.713 91.8792 115.552 91.6654 115.289C91.4698 114.998 91.3462 114.717 91.2946 114.445C91.2602 114.264 91.2683 114.122 91.3188 114.019C91.0072 114.102 90.7213 114.074 90.4613 113.936C90.2195 113.771 89.9847 113.581 89.7569 113.367C89.5516 113.148 89.3931 112.991 89.2813 112.895C89.1814 112.984 88.9337 112.973 88.5382 112.86C88.1611 112.721 87.9418 112.552 87.8806 112.353C87.8118 112.483 87.6393 112.621 87.3631 112.767C87.0827 112.891 86.8613 112.957 86.699 112.964C86.6528 113.09 86.5163 113.233 86.2896 113.393C86.0628 113.553 85.8098 113.637 85.5304 113.643C85.3864 114.116 85.216 114.511 85.0194 114.83C84.8227 115.148 84.5455 115.412 84.1876 115.62C84.2027 115.946 84.1226 116.324 83.9474 116.756C83.7948 117.183 83.6137 117.522 83.4042 117.773L83.546 117.781C83.819 117.495 84.2263 117.3 84.7679 117.197C85.0838 117.137 85.3836 117.115 85.6673 117.132C85.9736 117.144 86.1918 117.184 86.3218 117.253C86.7989 116.811 87.3647 116.528 88.0192 116.403C88.5608 116.3 89.0669 116.38 89.5376 116.642Z" fill="black"/>
<path d="M98.6778 126.503C98.1814 126.105 97.8816 125.635 97.7784 125.092C97.6709 124.527 97.7838 124.013 98.1169 123.552C98.4458 123.067 98.8584 122.778 99.3549 122.684C99.4903 122.658 99.594 122.65 99.666 122.66C99.7391 122.552 99.7966 122.424 99.8385 122.275C99.8987 122.1 99.9518 121.949 99.9981 121.823C100.067 121.693 100.176 121.59 100.325 121.515C100.311 121.565 100.416 121.252 100.638 120.577C100.574 120.238 100.69 119.864 100.986 119.456C100.946 119.37 100.912 119.248 100.881 119.09C100.804 118.683 100.844 118.277 101.001 117.872C101.176 117.441 101.406 117.116 101.692 116.897C101.586 116.707 101.494 116.408 101.417 116.001C101.296 115.368 101.306 114.991 101.447 114.87C101.098 114.632 100.88 114.287 100.794 113.834C100.751 113.608 100.747 113.398 100.78 113.205C100.832 112.984 100.916 112.816 101.035 112.699C100.722 112.407 100.488 111.854 100.333 111.04C100.213 110.407 100.21 109.962 100.325 109.706C100.246 109.534 100.2 109.414 100.187 109.346C100.109 108.939 100.189 108.56 100.427 108.211C100.683 107.834 101.014 107.607 101.42 107.53C101.646 107.487 101.884 107.512 102.136 107.605C102.437 107.22 102.801 106.986 103.23 106.905C103.501 106.853 103.749 106.865 103.973 106.939C104.187 106.711 104.587 106.541 105.174 106.43C105.558 106.357 105.858 106.335 106.074 106.364C106.287 106.136 106.609 105.981 107.038 105.9C107.444 105.823 107.743 105.86 107.935 106.01C108.19 105.751 108.487 105.589 108.825 105.525C109.119 105.469 109.364 105.469 109.562 105.526C109.852 105.33 110.448 105.146 111.351 104.975C111.757 104.897 112.151 104.998 112.531 105.277C112.907 105.534 113.132 105.854 113.205 106.239C113.304 106.759 113.081 107.188 112.537 107.526C112.645 107.599 112.709 107.692 112.731 107.805C112.748 107.896 112.727 108.029 112.666 108.204C112.737 108.331 112.839 108.499 112.973 108.708C113.128 108.913 113.221 109.094 113.251 109.253C113.294 109.479 113.263 109.684 113.158 109.868C113.238 110.04 113.286 110.172 113.303 110.262C113.368 110.601 113.304 110.941 113.111 111.283C113.199 111.5 113.252 111.654 113.269 111.745C113.316 111.993 113.28 112.293 113.16 112.644C113.455 112.846 113.642 113.15 113.719 113.557C113.818 114.077 113.715 114.518 113.409 114.881C113.709 115.105 113.924 115.556 114.053 116.235C114.173 116.868 114.148 117.412 113.977 117.866C114.056 118.038 114.105 118.17 114.122 118.26C114.191 118.622 114.137 119.019 113.962 119.45C114.03 119.437 114.122 119.49 114.238 119.609C114.35 119.705 114.446 119.78 114.526 119.835C114.784 119.716 115.026 119.635 115.252 119.592C115.839 119.48 116.342 119.607 116.762 119.972C117.201 120.311 117.495 120.876 117.645 121.667C117.749 122.21 117.789 122.73 117.766 123.226C117.959 123.377 118.091 123.644 118.164 124.029C118.255 124.504 118.147 124.922 117.842 125.285C117.982 125.774 117.939 126.286 117.713 126.821C117.51 127.351 117.171 127.662 116.698 127.752C116.427 127.803 116.137 127.753 115.827 127.601C115.437 127.394 115.203 127.087 115.126 126.68L115.031 125.995C114.933 125.85 114.858 125.641 114.807 125.37C114.708 124.85 114.825 124.418 115.157 124.073C114.991 123.941 114.871 123.8 114.796 123.65C114.743 123.496 114.689 123.272 114.633 122.978C114.369 123.192 113.978 123.348 113.459 123.447C113.121 123.511 112.787 123.54 112.458 123.532C112.326 123.698 112.113 123.808 111.82 123.864C111.391 123.946 110.93 123.916 110.435 123.776C110.195 123.986 109.961 124.112 109.736 124.155C109.533 124.193 109.258 124.164 108.912 124.065C108.785 124.136 108.688 124.178 108.62 124.191C108.327 124.247 108.028 124.21 107.722 124.081C107.582 124.201 107.421 124.278 107.24 124.313C107.06 124.347 106.882 124.334 106.707 124.274C106.537 124.61 106.159 124.835 105.572 124.946C105.279 125.002 104.99 125.022 104.706 125.005C104.418 124.966 104.194 124.892 104.033 124.782C103.813 125.105 103.523 125.3 103.162 125.369C102.937 125.412 102.687 125.389 102.413 125.301C102.3 125.322 102.148 125.386 101.958 125.493C101.786 125.572 101.619 125.674 101.455 125.799C101.52 126.138 101.528 126.429 101.481 126.673C101.889 126.853 102.143 127.203 102.242 127.723C102.263 127.836 102.273 128.01 102.271 128.245C102.377 128.435 102.445 128.61 102.476 128.768C102.57 129.266 102.467 129.707 102.166 130.092C101.892 130.496 101.5 130.711 100.991 130.737C100.562 130.819 100.164 130.754 99.7965 130.543C99.4333 130.354 99.2108 130.045 99.1291 129.615C99.0561 129.231 99.0889 128.85 99.2275 128.472C99.0126 128.325 98.8492 127.958 98.7375 127.37C98.6687 127.008 98.6488 126.719 98.6778 126.503ZM107.598 108.851C107.465 109.134 107.195 109.314 106.789 109.391C106.541 109.439 106.298 109.45 106.059 109.425C105.816 109.377 105.664 109.312 105.601 109.231C105.563 109.519 105.34 109.702 104.934 109.779C104.731 109.818 104.521 109.822 104.305 109.793C104.024 110.034 103.804 110.17 103.646 110.2C103.556 110.217 103.448 110.202 103.322 110.156L103.225 110.385C103.456 110.739 103.621 111.177 103.72 111.697C103.819 112.217 103.835 112.729 103.767 113.234C104.129 113.54 104.362 113.965 104.465 114.508C104.581 115.118 104.537 115.689 104.334 116.219C104.433 116.739 104.406 117.272 104.252 117.817C104.121 118.357 103.912 118.736 103.627 118.955C103.774 119.114 103.869 119.307 103.912 119.533C103.951 119.737 103.922 119.953 103.825 120.182C103.751 120.407 103.623 120.595 103.441 120.747C103.484 120.973 103.459 121.212 103.367 121.464C103.275 121.716 103.147 121.904 102.983 122.029C103.2 121.941 103.388 121.882 103.546 121.852C103.839 121.796 104.13 121.788 104.418 121.827C104.724 121.839 104.947 121.902 105.085 122.016C105.233 121.684 105.498 121.481 105.882 121.408C106.152 121.356 106.438 121.384 106.739 121.491C106.88 121.37 107.029 121.295 107.187 121.265C107.368 121.231 107.546 121.244 107.721 121.304C107.935 121.076 108.188 120.934 108.482 120.879C108.775 120.823 109.086 120.858 109.413 120.983C109.581 120.88 109.766 120.81 109.969 120.772C110.376 120.694 110.697 120.786 110.933 121.045C111.029 120.933 111.201 120.854 111.449 120.807C111.221 120.592 111.067 120.27 110.985 119.84C110.886 119.32 110.946 118.899 111.166 118.576C111.043 118.178 110.965 117.888 110.93 117.707C110.818 117.119 110.872 116.664 111.091 116.341C110.748 116.008 110.533 115.615 110.447 115.163C110.361 114.711 110.427 114.323 110.647 114C110.527 113.742 110.446 113.499 110.403 113.273C110.334 112.912 110.376 112.576 110.527 112.266C110.407 112.125 110.321 111.918 110.269 111.647C110.214 111.353 110.216 111.118 110.276 110.943C110.147 110.756 110.057 110.528 110.005 110.256C109.936 109.894 109.975 109.606 110.121 109.391C110.05 109.264 110.006 109.155 109.989 109.064C109.967 108.951 109.959 108.847 109.965 108.753C109.966 108.635 109.956 108.52 109.934 108.407L109.596 108.471C109.375 108.912 109.062 109.17 108.656 109.247C108.453 109.286 108.252 109.277 108.055 109.221C107.875 109.138 107.723 109.015 107.598 108.851Z" fill="black"/>
<path d="M131.086 106.46C131.355 106.526 131.633 106.755 131.917 107.146C132.225 107.532 132.421 107.952 132.507 108.404C132.653 109.173 132.414 109.757 131.788 110.158C131.668 110.508 131.467 110.804 131.185 111.045C130.926 111.282 130.616 111.435 130.255 111.503C129.962 111.559 129.644 111.549 129.303 111.473C129.144 111.621 128.915 111.77 128.616 111.92C128.317 112.071 128.01 112.176 127.694 112.236C127.152 112.339 126.759 112.297 126.512 112.109C126.321 112.333 125.977 112.492 125.481 112.587C125.12 112.655 124.78 112.65 124.46 112.57C124.175 112.788 123.829 112.936 123.422 113.013C123.039 113.086 122.712 113.089 122.442 113.023C122.255 113.27 121.812 113.46 121.112 113.593C120.729 113.665 120.463 113.681 120.315 113.639C120.507 114.282 120.509 114.785 120.321 115.149C120.831 115.497 121.089 115.928 121.093 116.443C121.12 116.461 121.261 116.528 121.517 116.644C121.773 116.759 121.98 116.989 122.139 117.334C122.387 117.287 122.633 117.345 122.874 117.51C123.139 117.671 123.313 117.849 123.397 118.044C123.47 117.936 123.642 117.857 123.912 117.805C124.115 117.766 124.302 117.766 124.473 117.804C124.644 117.842 124.749 117.904 124.789 117.99C124.93 117.869 125.102 117.79 125.305 117.751C125.598 117.695 125.889 117.746 126.176 117.902C126.393 117.814 126.558 117.759 126.67 117.738C126.896 117.695 127.094 117.692 127.265 117.73C127.298 117.536 127.447 117.332 127.71 117.118C127.969 116.882 128.259 116.745 128.579 116.707C128.716 116.447 128.93 116.219 129.22 116.023C129.511 115.827 129.814 115.699 130.13 115.639C130.739 115.523 131.226 115.689 131.592 116.135C131.716 116.298 131.802 116.505 131.85 116.753C131.953 117.296 131.786 117.773 131.35 118.184C131.25 118.273 131.082 118.434 130.845 118.666C130.605 118.876 130.38 119.048 130.171 119.181C129.963 119.314 129.768 119.398 129.588 119.432C129.327 119.904 128.903 120.195 128.316 120.307C128.045 120.358 127.838 120.374 127.694 120.355C127.466 120.632 127.093 120.821 126.574 120.919C126.1 121.009 125.755 120.981 125.54 120.834C125.395 120.932 125.244 120.996 125.086 121.026C124.77 121.086 124.455 121.029 124.141 120.854C123.003 121.141 122.156 120.927 121.599 120.213C121.283 120.273 120.886 120.149 120.406 119.842C119.945 119.508 119.664 119.198 119.563 118.913C119.006 118.808 118.607 118.497 118.369 117.98C118.312 117.803 118.28 117.634 118.272 117.471C118.178 117.466 118.081 117.39 117.984 117.245C117.904 117.073 117.847 116.896 117.813 116.715C117.787 116.579 117.781 116.487 117.795 116.437C117.511 115.929 117.327 115.449 117.241 114.996C117.155 114.544 117.168 114.12 117.279 113.724C117.097 113.501 116.977 113.242 116.921 112.948C116.853 112.586 116.863 112.21 116.952 111.818C117.041 111.426 117.143 111.161 117.257 111.022C117.19 110.917 117.187 110.719 117.249 110.426C117.306 110.11 117.403 109.822 117.541 109.562C117.696 109.275 117.871 109.089 118.066 109.005L117.961 108.639C117.794 107.757 118.162 107.112 119.067 106.706C118.994 106.322 119.149 105.906 119.531 105.458C119.914 105.011 120.279 104.777 120.626 104.758C120.624 104.501 120.801 104.268 121.159 104.059C121.535 103.824 121.832 103.721 122.048 103.75C122.172 103.422 122.495 103.149 123.015 102.933C123.175 102.669 123.447 102.5 123.83 102.427C123.943 102.405 124.094 102.4 124.283 102.411L124.581 102.319C124.852 102.268 125.089 102.281 125.291 102.36C125.511 102.412 125.623 102.508 125.626 102.648C126.131 102.599 126.57 102.632 126.943 102.749C127.316 102.866 127.581 103.155 127.739 103.617C128.02 103.493 128.407 103.502 128.901 103.642C129.391 103.76 129.837 104.015 130.239 104.407C130.66 104.772 130.925 105.249 131.037 105.837C131.063 105.972 131.079 106.18 131.086 106.46ZM126.529 109.611C126.694 109.251 127.217 108.988 128.097 108.821C128.594 108.726 128.986 108.699 129.274 108.738C129.076 108.681 128.87 108.521 128.656 108.257C128.461 107.967 128.337 107.686 128.286 107.414C128.251 107.233 128.259 107.091 128.31 106.988C127.998 107.071 127.712 107.043 127.452 106.905C127.21 106.74 126.976 106.55 126.748 106.336C126.543 106.117 126.384 105.96 126.272 105.864C126.172 105.953 125.925 105.942 125.529 105.829C125.152 105.69 124.933 105.521 124.872 105.322C124.803 105.452 124.63 105.59 124.354 105.736C124.074 105.86 123.852 105.926 123.69 105.933C123.644 106.059 123.507 106.202 123.281 106.362C123.054 106.522 122.801 106.606 122.521 106.612C122.377 107.085 122.207 107.48 122.01 107.799C121.814 108.117 121.536 108.381 121.179 108.589C121.194 108.914 121.114 109.293 120.938 109.724C120.786 110.152 120.605 110.491 120.395 110.742L120.537 110.75C120.81 110.464 121.217 110.269 121.759 110.166C122.075 110.106 122.375 110.084 122.658 110.1C122.965 110.113 123.183 110.153 123.313 110.222C123.79 109.78 124.356 109.497 125.01 109.372C125.552 109.269 126.058 109.349 126.529 109.611Z" fill="black"/>
<path d="M152.72 103.262C152.948 103.476 153.09 103.731 153.146 104.024C153.197 104.296 153.17 104.582 153.063 104.884C153.126 104.965 153.18 105.131 153.228 105.38C153.284 105.674 153.314 106.019 153.32 106.416C153.321 106.791 153.293 107.078 153.237 107.276C153.474 107.535 153.618 107.801 153.669 108.072C153.725 108.366 153.705 108.628 153.608 108.857C153.764 109.062 153.857 109.243 153.887 109.401C153.921 109.582 153.922 109.77 153.889 109.963C154.09 110.16 154.22 110.416 154.28 110.732C154.353 111.117 154.292 111.468 154.095 111.787C154.157 111.869 154.203 111.989 154.234 112.147C154.264 112.305 154.265 112.434 154.237 112.533C154.541 112.78 154.723 113.062 154.783 113.378C154.856 113.763 154.774 114.13 154.537 114.479C154.515 114.858 154.397 115.162 154.184 115.39C153.988 115.591 153.732 115.722 153.416 115.782C153.033 115.855 152.673 115.806 152.336 115.636C152.018 115.439 151.823 115.148 151.75 114.763C151.715 114.582 151.717 114.406 151.754 114.235C151.481 114.029 151.311 113.745 151.242 113.384C151.186 113.09 151.215 112.815 151.33 112.558C151.228 112.39 151.16 112.216 151.126 112.035C151.083 111.809 151.082 111.622 151.124 111.473C150.923 111.277 150.795 111.032 150.739 110.738C150.7 110.534 150.711 110.286 150.773 109.993C150.648 109.83 150.562 109.623 150.515 109.375C150.455 109.058 150.5 108.745 150.652 108.435C150.523 108.248 150.428 107.997 150.368 107.68C150.295 107.296 150.287 106.946 150.344 106.631C150.274 106.878 150.16 107.076 150.001 107.223C150.118 107.716 150.059 108.208 149.825 108.697C149.613 109.183 149.331 109.541 148.977 109.772C148.924 110.11 148.861 110.392 148.787 110.617C148.735 110.838 148.616 111.071 148.429 111.317C148.501 111.819 148.476 112.363 148.353 112.949C148.226 113.512 147.97 114.006 147.583 114.431C147.675 114.671 147.656 115.002 147.526 115.425C147.419 115.844 147.245 116.158 147.004 116.368C146.948 116.566 146.784 116.75 146.512 116.918C146.259 117.06 145.963 117.164 145.624 117.228C145.083 117.331 144.572 117.287 144.091 117.098C143.633 116.903 143.344 116.548 143.222 116.033C142.98 115.985 142.773 115.884 142.603 115.728C142.456 115.569 142.361 115.376 142.318 115.15C142.288 114.992 142.294 114.838 142.336 114.69C142.062 114.601 141.818 114.425 141.604 114.161C141.386 113.875 141.247 113.573 141.187 113.256C141.161 113.121 141.158 112.981 141.177 112.836C140.999 112.636 140.892 112.445 140.858 112.265C140.53 112.139 140.277 111.977 140.099 111.776C139.92 111.576 139.834 111.37 139.841 111.157C139.356 110.945 139.073 110.624 138.991 110.194C138.961 110.036 138.961 109.849 138.99 109.632C138.789 109.436 138.581 109.206 138.367 108.942C138.154 108.678 138.016 108.447 137.955 108.247L137.987 108.417C138.039 108.688 138.027 108.995 137.951 109.338C138.129 109.655 138.239 109.927 138.282 110.153C138.325 110.379 138.338 110.635 138.322 110.919C138.478 111.124 138.584 111.373 138.64 111.667C138.747 112.232 138.671 112.692 138.411 113.046C138.568 113.133 138.717 113.304 138.859 113.558C138.996 113.79 139.093 114.053 139.149 114.347C139.179 114.505 139.193 114.701 139.191 114.936C139.338 115.096 139.435 115.3 139.483 115.548C139.556 115.933 139.489 116.32 139.283 116.711C139.381 116.856 139.445 117.008 139.475 117.167C139.525 117.555 139.43 117.913 139.188 118.24C138.964 118.541 138.672 118.725 138.311 118.794C137.95 118.862 137.624 118.807 137.332 118.628C137.122 118.504 136.934 118.317 136.77 118.067C136.628 117.813 136.527 117.528 136.467 117.211C136.377 116.736 136.421 116.353 136.599 116.061C136.416 115.838 136.291 115.546 136.222 115.184C136.132 114.709 136.139 114.38 136.244 114.196C135.94 113.949 135.737 113.554 135.633 113.012C135.578 112.718 135.589 112.469 135.667 112.267C135.525 112.013 135.442 111.818 135.416 111.682C135.377 111.479 135.393 111.253 135.463 111.006C135.257 110.787 135.107 110.429 135.013 109.931C134.871 109.185 134.901 108.605 135.103 108.192C134.974 108.006 134.888 107.799 134.845 107.573C134.789 107.279 134.814 107.04 134.919 106.856C134.799 106.715 134.722 106.554 134.687 106.373C134.649 106.17 134.655 105.957 134.707 105.737C134.412 105.418 134.201 104.919 134.072 104.241C133.913 103.404 133.997 102.802 134.325 102.435C134.434 101.782 134.805 101.395 135.437 101.275C135.866 101.194 136.275 101.256 136.665 101.463C136.997 101.611 137.275 101.84 137.497 102.149C137.719 102.458 137.867 102.805 137.94 103.189C138.47 103.393 138.899 103.745 139.228 104.245C139.557 104.745 139.782 105.311 139.902 105.944C140.127 106.019 140.305 106.16 140.439 106.369C140.59 106.552 140.69 106.767 140.737 107.016C140.771 107.197 140.784 107.323 140.774 107.395C141.096 107.615 141.349 107.837 141.532 108.06C141.71 108.26 141.823 108.485 141.87 108.733C141.887 108.824 141.89 108.964 141.88 109.153C142.126 109.341 142.279 109.593 142.339 109.909C142.689 110.03 143.031 110.352 143.364 110.874C143.693 111.374 143.887 111.841 143.946 112.275C144.126 112.358 144.305 112.5 144.483 112.7C144.68 112.874 144.822 113.069 144.91 113.287C144.916 112.7 145.034 112.033 145.266 111.286C145.521 110.535 145.798 110.025 146.098 109.757C146.152 109.302 146.25 108.897 146.393 108.541C146.559 108.182 146.817 107.817 147.167 107.445C147.127 107.359 147.092 107.237 147.062 107.079C146.985 106.672 147.065 106.293 147.302 105.943C147.21 105.703 147.185 105.45 147.228 105.184C147.294 104.914 147.424 104.678 147.62 104.477C147.447 103.69 147.673 103.155 148.297 102.873C148.166 102.429 148.287 101.961 148.661 101.468C148.626 101.404 148.597 101.316 148.576 101.203C148.507 100.841 148.56 100.503 148.734 100.189C148.93 99.8701 149.205 99.6539 149.557 99.5401C149.804 99.2356 150.073 99.0554 150.367 98.9997C150.818 98.9139 151.267 99.0628 151.714 99.4465C152.157 99.8075 152.426 100.237 152.52 100.734C152.598 101.141 152.515 101.508 152.274 101.835C152.322 101.967 152.401 102.139 152.512 102.352C152.618 102.543 152.687 102.718 152.717 102.876C152.73 102.944 152.731 103.072 152.72 103.262Z" fill="black"/>
<path d="M164.301 98.3193C164.138 98.4441 163.954 98.5257 163.751 98.5643C163.39 98.633 163.069 98.5417 162.787 98.2907C162.528 98.0353 162.362 97.7154 162.289 97.331C162.229 97.0144 162.268 96.7259 162.405 96.4654C162.543 96.205 162.79 96.0291 163.147 95.9379C163.416 95.6291 163.776 95.4318 164.227 95.346C164.701 95.2559 165.103 95.3434 165.434 95.6085C165.486 95.3879 165.614 95.1995 165.818 95.0436C166.022 94.8876 166.271 94.7818 166.564 94.726C166.812 94.6788 167.058 94.679 167.301 94.7266C167.544 94.7741 167.748 94.8642 167.913 94.9967C168.089 94.5651 168.436 94.3 168.955 94.2013C169.474 94.1027 169.907 94.2311 170.256 94.5867C170.541 94.3684 170.899 94.2184 171.327 94.1369C171.44 94.1155 171.591 94.1102 171.78 94.1211C172.031 93.8392 172.325 93.6661 172.664 93.6018C172.98 93.5417 173.333 93.5565 173.724 93.6462C174.02 93.3557 174.438 93.159 174.98 93.0561C175.228 93.0089 175.438 93.0042 175.609 93.042C175.804 92.8408 176.026 92.7166 176.274 92.6695C176.636 92.6008 176.97 92.7012 177.279 92.9706C177.605 93.2131 177.803 93.5153 177.872 93.8771C177.971 94.3972 177.793 94.8175 177.34 95.138C177.178 95.6375 176.837 95.9365 176.318 96.0352C176.002 96.0952 175.674 96.0288 175.333 95.8358C175.136 96.1543 174.858 96.3479 174.496 96.4165C174.203 96.4723 173.787 96.4343 173.247 96.3025C173.033 96.5306 172.791 96.6704 172.52 96.7219C172.34 96.7562 172.141 96.7587 171.925 96.7295C171.499 97.0683 171.08 97.265 170.67 97.3196C170.78 97.5329 170.877 97.8543 170.958 98.284C171.044 98.7363 171.061 99.0727 171.01 99.2934C171.269 99.5488 171.422 99.8008 171.469 100.05C171.508 100.253 171.483 100.492 171.395 100.767C171.489 100.889 171.555 101.053 171.593 101.256C171.632 101.46 171.623 101.66 171.568 101.858C171.719 102.041 171.883 102.349 172.059 102.784C172.235 103.219 172.362 103.64 172.44 104.047C172.526 104.5 172.534 104.85 172.464 105.097C172.584 105.238 172.666 105.422 172.709 105.648C172.769 105.965 172.721 106.267 172.565 106.554C172.834 106.737 173.003 107.01 173.071 107.372C173.136 107.711 173.113 108.02 173.002 108.299C173.122 108.44 173.206 108.635 173.254 108.883C173.322 109.245 173.312 109.622 173.223 110.014C173.428 110.233 173.554 110.466 173.602 110.715C173.67 111.077 173.571 111.412 173.302 111.721C173.056 112.026 172.752 112.212 172.391 112.281C172.098 112.337 171.834 112.305 171.601 112.185C171.364 112.043 171.168 111.81 171.013 111.488C170.691 111.268 170.491 110.955 170.413 110.548C170.349 110.209 170.399 109.859 170.565 109.5C170.409 109.295 170.314 109.102 170.28 108.922C170.232 108.673 170.26 108.386 170.362 108.062C170.187 108.002 170.035 107.879 169.906 107.692C169.799 107.502 169.725 107.293 169.682 107.067C169.6 106.637 169.666 106.25 169.881 105.904C169.736 105.51 169.655 105.268 169.638 105.177C169.591 104.929 169.602 104.681 169.672 104.433C169.525 104.274 169.425 104.058 169.374 103.787C169.331 103.561 169.321 103.387 169.345 103.265C169.085 103.127 168.916 102.855 168.839 102.447C168.787 102.176 168.816 101.96 168.926 101.798C168.792 101.589 168.715 101.428 168.693 101.315C168.663 101.157 168.679 100.931 168.74 100.639C168.442 100.297 168.228 99.7871 168.099 99.1087C167.983 98.4981 167.96 98.0104 168.031 97.6454C167.76 97.6969 167.495 97.6537 167.235 97.5156C167.028 97.9063 166.519 98.1789 165.707 98.3333C165.12 98.4448 164.651 98.4401 164.301 98.3193Z" fill="black"/>
<path d="M192.34 102.093C192.305 102.404 192.163 102.7 191.913 102.982C192.13 103.878 192 104.488 191.524 104.813C191.548 105.184 191.463 105.598 191.269 106.057C191.076 106.515 190.834 106.842 190.544 107.038C190.561 107.128 190.575 107.325 190.586 107.627C190.615 107.903 190.59 108.142 190.512 108.344C190.456 108.543 190.344 108.751 190.175 108.971C190.438 109.741 190.216 110.603 189.509 111.558C189.59 112.105 189.491 112.569 189.212 112.949C188.961 113.349 188.616 113.625 188.178 113.779C188.193 114.104 188.014 114.454 187.641 114.83C187.295 115.224 186.93 115.457 186.546 115.53C186.503 115.796 186.178 116.115 185.571 116.488C184.991 116.88 184.586 117.027 184.357 116.93C183.824 117.078 183.37 117.024 182.994 116.767C182.617 116.511 182.389 116.168 182.307 115.738C182.247 115.422 182.285 115.133 182.423 114.873C182.561 114.612 182.799 114.45 183.137 114.385C183.25 114.364 183.342 114.358 183.414 114.368C183.956 113.773 184.419 113.439 184.802 113.366C184.938 113.34 185.041 113.332 185.113 113.342C185.107 113.062 185.215 112.772 185.439 112.472C185.667 112.194 185.948 111.953 186.284 111.749C186.241 111.523 186.286 111.268 186.419 110.985C186.552 110.702 186.728 110.458 186.946 110.252C186.875 110.125 186.833 110.028 186.82 109.96C186.756 109.621 186.832 109.22 187.048 108.757C187.259 108.271 187.501 107.944 187.773 107.776C187.202 107.603 186.863 107.234 186.756 106.668C186.526 106.689 186.281 106.571 186.022 106.316C185.786 106.056 185.636 105.757 185.571 105.418C185.532 105.214 185.552 105.011 185.631 104.809C185.271 104.76 184.977 104.628 184.749 104.414C184.544 104.195 184.409 103.916 184.345 103.577C184.297 103.328 184.295 103.071 184.338 102.805C183.988 102.684 183.703 102.539 183.484 102.37C183.287 102.197 183.174 101.972 183.145 101.696C182.764 101.535 182.528 101.216 182.438 100.741C182.395 100.515 182.388 100.294 182.417 100.078C181.736 99.5742 181.33 98.972 181.196 98.271C181.158 98.0675 181.139 97.907 181.14 97.7897C180.794 97.6914 180.516 97.5216 180.307 97.2803C180.093 97.0164 179.952 96.7035 179.883 96.3417C179.818 96.0025 179.826 95.673 179.905 95.3533C179.241 95.0578 178.862 94.6613 178.767 94.1638C178.66 93.5985 178.822 93.099 179.254 92.6654C179.431 92.4911 179.644 92.3804 179.892 92.3332C180.231 92.2689 180.559 92.3354 180.877 92.5326C181.218 92.7256 181.49 92.9901 181.695 93.3262C181.932 93.4685 182.155 93.719 182.364 94.0777C182.572 94.4364 182.708 94.7854 182.773 95.1246C182.812 95.3281 182.826 95.4659 182.816 95.538C183.631 96.133 184.103 96.7696 184.232 97.4481C184.249 97.5385 184.256 97.7011 184.254 97.9358C184.578 98.0383 184.837 98.235 185.033 98.5259C185.224 98.7941 185.327 99.0908 185.342 99.416C185.602 99.554 185.803 99.7501 185.945 100.004C186.11 100.254 186.195 100.519 186.201 100.799C186.405 100.76 186.615 100.884 186.833 101.171C187.07 101.431 187.195 101.723 187.211 102.048C187.534 102.151 187.767 102.329 187.908 102.583C188.046 102.815 188.127 103.116 188.15 103.486C188.461 103.521 188.661 103.776 188.752 104.251C188.746 103.853 188.771 103.556 188.827 103.358C188.883 103.16 188.982 102.942 189.124 102.704C189.036 102.486 188.985 102.344 188.972 102.276C188.925 102.027 188.934 101.826 188.998 101.673C189.058 101.498 189.165 101.384 189.319 101.331C189.147 100.919 189.18 100.479 189.419 100.012C189.325 99.889 189.266 99.7597 189.24 99.6241C189.21 99.4658 189.245 99.2833 189.346 99.0767C189.466 98.8431 189.541 98.6881 189.574 98.6117C189.361 98.2304 189.229 97.9041 189.177 97.6327C189.134 97.4066 189.138 97.1832 189.19 96.9625C189.242 96.7418 189.341 96.4652 189.488 96.1326C189.301 95.887 189.156 95.4928 189.053 94.9501C188.915 94.2265 188.938 93.5428 189.119 92.8991C188.969 92.5997 188.876 92.3595 188.842 92.1786C188.79 91.9072 188.813 91.6569 188.91 91.4276C188.806 90.8849 188.894 90.4231 189.172 90.0422C189.451 89.6612 189.804 89.43 190.233 89.3485C190.594 89.2799 190.925 89.3577 191.224 89.5819C191.542 89.7791 191.735 90.1173 191.803 90.5965C192.021 90.8831 192.173 91.2525 192.259 91.7048C192.414 92.5188 192.358 93.2676 192.09 93.9511C192.236 94.2279 192.341 94.5359 192.406 94.8751C192.513 95.4405 192.413 96.0218 192.106 96.6191C192.163 96.7957 192.249 97.002 192.364 97.2379C192.479 97.4737 192.551 97.6708 192.582 97.8291C192.646 98.1683 192.589 98.4837 192.411 98.7754C192.584 99.0705 192.474 99.7827 192.08 100.912C192.222 101.166 192.308 101.372 192.338 101.531C192.372 101.711 192.373 101.899 192.34 102.093Z" fill="black"/>
<path d="M207.593 104.887C207.437 105.174 207.203 105.418 206.89 105.618C206.573 105.795 206.234 105.918 205.873 105.987C205.422 106.073 205.091 106.054 204.88 105.93C204.735 106.028 204.572 106.094 204.392 106.128C203.963 106.209 203.574 106.131 203.225 105.893C202.976 106.057 202.749 106.159 202.546 106.198C202.185 106.266 201.807 106.244 201.411 106.132C201.034 105.993 200.752 105.801 200.565 105.555C200.145 105.682 199.693 105.639 199.208 105.426C198.742 105.187 198.436 104.87 198.291 104.476C197.558 104.311 196.945 103.607 196.452 102.365C196.295 102.278 196.161 102.128 196.05 101.914C195.94 101.701 195.863 101.482 195.82 101.255C195.79 101.097 195.779 100.982 195.789 100.91C195.259 100.214 194.917 99.4588 194.762 98.6447C194.62 97.8985 194.662 97.2579 194.888 96.7229C194.8 96.5054 194.745 96.3401 194.724 96.227C194.651 95.8426 194.672 95.4636 194.788 95.0901C194.9 94.694 195.076 94.391 195.317 94.1813C195.25 94.0768 195.198 93.9228 195.159 93.7192C195.09 93.3574 195.141 93.0081 195.31 92.6712C195.499 92.3074 195.699 92.0702 195.912 91.9595C195.942 91.6257 196.1 91.291 196.387 90.9553C196.692 90.5927 197.039 90.3862 197.427 90.3359C197.749 89.5717 198.143 89.1807 198.607 89.1627C198.758 88.8527 198.993 88.6091 199.31 88.4316C199.649 88.25 199.968 88.1425 200.266 88.1094C200.461 87.9082 200.694 87.7819 200.965 87.7304C201.236 87.6789 201.52 87.6953 201.816 87.7795C201.971 87.6095 202.206 87.4945 202.522 87.4344C202.748 87.3915 202.969 87.3847 203.185 87.4139C203.401 87.4432 203.551 87.4966 203.636 87.5742C203.808 87.4946 204.008 87.5034 204.237 87.6005C204.462 87.6749 204.614 87.7983 204.694 87.9706C205.077 87.8977 205.428 87.9599 205.746 88.1572C206.082 88.3276 206.348 88.5582 206.544 88.849C206.758 89.113 206.869 89.3262 206.876 89.4888C207.294 89.5968 207.621 89.8393 207.856 90.2163C208.083 90.5481 208.222 90.8497 208.274 91.121C208.36 91.5733 208.257 91.956 207.966 92.2691C207.77 92.4703 207.548 92.5944 207.3 92.6416C206.894 92.7188 206.467 92.6243 206.019 92.358C205.593 92.0875 205.276 91.7141 205.069 91.2381C204.767 91.2486 204.466 91.2005 204.165 91.0937C203.86 90.9642 203.609 90.8128 203.412 90.6393C203.349 90.6748 203.182 90.7182 202.911 90.7697C202.662 90.8169 202.491 90.8378 202.397 90.8323C202.232 91.0744 202.026 91.2191 201.778 91.2663C201.529 91.3134 201.277 91.2793 201.022 91.1639C200.814 91.672 200.428 91.9796 199.864 92.0868C199.648 92.5496 199.449 92.9156 199.266 93.1846C199.079 93.431 198.79 93.5681 198.397 93.5957C198.433 93.6593 198.463 93.7589 198.489 93.8946C198.541 94.166 198.518 94.4163 198.421 94.6455C198.325 94.8748 198.203 95.097 198.057 95.3122C197.929 95.5006 197.829 95.6485 197.756 95.7561C197.933 96.0739 198.05 96.3798 198.105 96.6737C198.204 97.1938 198.165 97.8457 197.986 98.6294C198.129 98.7663 198.262 98.9752 198.386 99.2563C198.528 99.5105 198.624 99.7733 198.676 100.045C198.706 100.203 198.716 100.318 198.707 100.39C198.886 100.473 199.058 100.64 199.223 100.89C199.409 101.135 199.527 101.383 199.574 101.631C200.172 101.705 200.685 101.877 201.11 102.148C201.558 102.414 201.81 102.694 201.866 102.988C202.076 102.737 202.327 102.584 202.62 102.528C202.891 102.477 203.164 102.495 203.438 102.584C203.734 102.668 203.972 102.81 204.15 103.011C204.259 102.967 204.392 102.93 204.55 102.9C204.888 102.835 205.203 102.893 205.495 103.072C205.55 102.874 205.74 102.638 206.062 102.366C206.384 102.094 206.66 101.948 206.89 101.928C206.983 101.676 207.131 101.472 207.335 101.316C207.562 101.156 207.811 101.05 208.082 100.998C208.262 100.964 208.388 100.952 208.46 100.961C208.685 100.544 209.046 100.288 209.542 100.194C209.971 100.112 210.371 100.188 210.743 100.422C211.115 100.656 211.342 100.988 211.423 101.418C211.518 101.915 211.383 102.374 211.019 102.795C210.673 103.189 210.24 103.435 209.721 103.533C209.518 103.572 209.369 103.589 209.274 103.583C209.464 103.594 209.46 103.7 209.265 103.901C209.092 104.098 208.828 104.312 208.475 104.544C208.117 104.752 207.823 104.867 207.593 104.887Z" fill="black"/>
<path d="M216.765 102.616C216.851 103.069 216.792 103.431 216.586 103.705C216.399 103.951 216.125 104.109 215.764 104.177C215.493 104.229 215.221 104.21 214.947 104.122C214.673 104.033 214.494 103.892 214.41 103.697C214.081 103.689 213.792 103.58 213.541 103.37C213.291 103.16 213.136 102.896 213.076 102.58C213.041 102.399 213.059 102.184 213.129 101.937C212.853 101.591 212.676 101.215 212.598 100.808C212.543 100.514 212.536 100.234 212.579 99.9677C212.64 99.6749 212.737 99.4457 212.869 99.2799C212.602 98.9793 212.425 98.6029 212.339 98.1506C212.249 97.6758 212.271 97.2381 212.405 96.8377C212.285 96.6966 212.205 96.5242 212.166 96.3207C212.106 96.0041 212.156 95.7135 212.316 95.4487C212.148 95.1762 212.027 94.8477 211.954 94.4633C211.906 94.2145 211.902 94.0046 211.939 93.8334C211.765 93.6556 211.65 93.4198 211.594 93.1258C211.534 92.8092 211.537 92.4571 211.604 92.0696C211.354 91.8594 211.198 91.5961 211.138 91.2795C211.087 91.0081 211.127 90.7309 211.261 90.4478C211.167 90.325 211.105 90.1845 211.075 90.0262C211.024 89.7548 211.067 89.4889 211.204 89.2285C211.04 88.9786 210.925 88.684 210.861 88.3448C210.753 87.7795 210.783 87.2584 210.95 86.7815C211.112 86.2821 211.419 85.9895 211.87 85.9037C212.005 85.8779 212.181 85.8797 212.397 85.9089C213.049 86.0193 213.431 86.3684 213.543 86.9563C213.59 87.2051 213.588 87.4398 213.537 87.6605C213.787 87.8706 213.947 88.1566 214.015 88.5184C214.071 88.8124 214.048 89.1214 213.946 89.4454C214.12 89.6232 214.229 89.8251 214.272 90.0513C214.328 90.3452 214.289 90.6337 214.156 90.9168C214.306 91.2162 214.396 91.4451 214.426 91.6034C214.491 91.9426 214.434 92.1993 214.257 92.3736C214.539 92.6247 214.71 92.9085 214.77 93.2251C214.826 93.5191 214.776 93.8098 214.62 94.0971C214.789 94.3696 214.909 94.6981 214.983 95.0825C215.021 95.2861 215.024 95.4847 214.991 95.6785C215.133 95.8153 215.233 96.0307 215.289 96.3247C215.366 96.7318 215.304 97.0832 215.103 97.3792C215.275 97.7917 215.424 98.3258 215.548 98.9816C215.64 98.8471 215.717 98.7621 215.78 98.7266C215.82 98.3207 216.001 97.9817 216.324 97.7096C216.287 97.2713 216.428 96.9048 216.746 96.6101C216.66 96.1578 216.806 95.7552 217.183 95.4024C217.128 94.9911 217.201 94.6374 217.402 94.3415C217.621 94.0187 217.9 93.8251 218.239 93.7607C218.203 93.6972 218.173 93.5976 218.147 93.4619C218.087 93.1453 218.11 92.8363 218.216 92.5349C218.341 92.2066 218.537 91.9468 218.804 91.7553C218.794 91.4528 218.873 91.1917 219.041 90.9722C219.233 90.7484 219.459 90.5882 219.722 90.4915C219.594 90.1878 219.608 89.8335 219.765 89.4288C219.922 89.0241 220.132 88.7147 220.395 88.5007C220.319 87.9763 220.377 87.5435 220.57 87.2023C220.78 86.8343 221.118 86.5826 221.583 86.4473C221.481 86.2793 221.415 86.1161 221.385 85.9578C221.316 85.596 221.398 85.2876 221.63 85.0326C221.885 84.7733 222.204 84.6072 222.588 84.5343C222.971 84.4614 223.32 84.5122 223.634 84.6869C223.97 84.8573 224.188 85.1438 224.288 85.5466C224.409 85.6877 224.492 85.8827 224.54 86.1314C224.596 86.4254 224.562 86.6778 224.438 86.8888C224.536 87.0342 224.602 87.1974 224.636 87.3783C224.684 87.627 224.66 88.0534 224.564 88.6573C224.72 88.862 224.817 89.0661 224.856 89.2696C224.907 89.541 224.866 89.8182 224.733 90.1013C225.047 90.2759 225.249 90.6007 225.339 91.0756C225.391 91.3469 225.388 91.6403 225.331 91.9557C225.274 92.2712 225.163 92.5499 224.999 92.7921C225.179 92.8751 225.337 93.0324 225.475 93.264C225.63 93.4687 225.736 93.718 225.792 94.012C225.891 94.5321 225.81 94.9692 225.55 95.3232C225.586 95.3867 225.616 95.4864 225.642 95.622C225.689 95.8708 225.683 96.0829 225.623 96.2583C225.766 96.3952 225.88 96.6897 225.966 97.142C226.039 97.5264 226.05 97.829 225.998 98.0497C226.191 98.2006 226.317 98.4343 226.377 98.7509C226.455 99.1579 226.368 99.5024 226.118 99.7843C226.359 99.9492 226.58 100.188 226.78 100.502C226.998 100.788 227.137 101.09 227.198 101.407C227.223 101.542 227.213 101.732 227.165 101.975C227.118 102.218 226.995 102.429 226.795 102.608C226.595 102.786 226.371 102.899 226.122 102.946C225.784 103.011 225.496 102.972 225.258 102.83C224.944 102.772 224.681 102.623 224.472 102.382C224.281 102.113 224.18 101.828 224.169 101.525C223.976 101.375 223.809 101.172 223.668 100.918C223.521 100.641 223.423 100.367 223.371 100.095C223.302 99.7337 223.316 99.4381 223.413 99.2089C223.261 99.0268 223.164 98.8227 223.121 98.5966C223.07 98.3252 223.149 98.0055 223.36 97.6374C223.15 97.3961 223.011 97.0945 222.942 96.7327C222.878 96.3935 222.891 96.1567 222.982 96.0221C222.875 95.9489 222.802 95.8104 222.763 95.6069C222.707 95.3129 222.773 94.9841 222.962 94.6203C222.718 94.1981 222.557 93.7834 222.48 93.3764C222.376 92.8337 222.422 92.2744 222.617 91.6985L222.383 91.3915C222.008 92.0016 221.671 92.382 221.372 92.5325C221.342 92.8662 221.188 93.1649 220.911 93.4285C220.994 94.2328 220.717 94.9884 220.079 95.6953C220.158 95.985 220.133 96.2827 220.004 96.5883C219.87 96.8714 219.654 97.0882 219.356 97.2387C219.344 97.5455 219.208 97.8173 218.949 98.054C219.061 98.6419 218.888 99.0848 218.43 99.3827C218.436 99.78 218.363 100.075 218.213 100.268C218.062 100.46 217.824 100.623 217.499 100.755C217.508 101.175 217.458 101.524 217.347 101.803C217.259 102.077 217.065 102.348 216.765 102.616Z" fill="black"/>
<path d="M227.969 86.2176C227.806 86.3424 227.623 86.4241 227.42 86.4627C227.058 86.5313 226.737 86.4401 226.456 86.189C226.197 85.9336 226.031 85.6137 225.958 85.2293C225.897 84.9127 225.936 84.6242 226.074 84.3637C226.211 84.1033 226.458 83.9275 226.815 83.8362C227.084 83.5274 227.444 83.3301 227.895 83.2443C228.369 83.1542 228.771 83.2418 229.102 83.5069C229.154 83.2862 229.282 83.0979 229.486 82.9419C229.69 82.786 229.939 82.6801 230.232 82.6243C230.481 82.5772 230.726 82.5773 230.969 82.6249C231.212 82.6725 231.416 82.7625 231.582 82.8951C231.757 82.4635 232.104 82.1983 232.623 82.0997C233.142 82.001 233.576 82.1295 233.924 82.485C234.21 82.2667 234.567 82.1168 234.996 82.0353C235.108 82.0138 235.259 82.0086 235.449 82.0195C235.699 81.7376 235.993 81.5645 236.332 81.5001C236.648 81.4401 237.001 81.4549 237.393 81.5445C237.688 81.2541 238.107 81.0573 238.648 80.9544C238.897 80.9072 239.106 80.9025 239.277 80.9403C239.473 80.7392 239.694 80.615 239.943 80.5678C240.304 80.4992 240.639 80.5995 240.947 80.8689C241.274 81.1115 241.471 81.4136 241.54 81.7754C241.639 82.2955 241.462 82.7158 241.008 83.0363C240.846 83.5358 240.505 83.8348 239.986 83.9335C239.67 83.9936 239.342 83.9271 239.001 83.7341C238.805 84.0526 238.526 84.2462 238.165 84.3149C237.871 84.3706 237.455 84.3326 236.915 84.2009C236.702 84.4289 236.459 84.5687 236.188 84.6202C236.008 84.6545 235.81 84.6571 235.594 84.6278C235.167 84.9666 234.748 85.1634 234.338 85.218C234.449 85.4312 234.545 85.7527 234.626 86.1823C234.712 86.6346 234.73 86.9711 234.678 87.1918C234.937 87.4471 235.09 87.6992 235.137 87.9479C235.176 88.1514 235.151 88.3905 235.063 88.6649C235.157 88.7877 235.223 88.9509 235.262 89.1544C235.3 89.358 235.292 89.5587 235.236 89.7568C235.387 89.9389 235.551 90.2475 235.727 90.6826C235.904 91.1177 236.03 91.5388 236.108 91.9458C236.194 92.3981 236.202 92.748 236.132 92.9956C236.252 93.1367 236.334 93.3204 236.377 93.5465C236.437 93.8631 236.389 94.1651 236.233 94.4524C236.502 94.6356 236.671 94.9082 236.74 95.27C236.804 95.6092 236.781 95.9182 236.67 96.1969C236.791 96.3381 236.874 96.533 236.922 96.7818C236.991 97.1436 236.98 97.5204 236.891 97.9123C237.096 98.131 237.223 98.3647 237.27 98.6135C237.339 98.9753 237.239 99.3106 236.97 99.6194C236.724 99.9239 236.42 100.11 236.059 100.179C235.766 100.235 235.503 100.203 235.269 100.083C235.032 99.9409 234.836 99.7087 234.681 99.3867C234.359 99.1668 234.159 98.8533 234.082 98.4463C234.017 98.1071 234.068 97.7577 234.233 97.3983C234.077 97.1936 233.982 97.0008 233.948 96.8199C233.9 96.5711 233.928 96.2848 234.03 95.9608C233.855 95.9003 233.703 95.7769 233.574 95.5906C233.467 95.3999 233.393 95.1915 233.35 94.9654C233.268 94.5357 233.335 94.1482 233.55 93.8027C233.405 93.4086 233.323 93.1662 233.306 93.0758C233.259 92.827 233.27 92.5789 233.34 92.3313C233.193 92.1718 233.093 91.9564 233.042 91.6851C232.999 91.4589 232.989 91.285 233.013 91.1634C232.753 91.0254 232.584 90.7529 232.507 90.3458C232.455 90.0745 232.484 89.8581 232.594 89.6967C232.461 89.4877 232.383 89.3267 232.362 89.2136C232.332 89.0553 232.347 88.8297 232.408 88.5369C232.11 88.1954 231.896 87.6854 231.767 87.007C231.651 86.3965 231.628 85.9087 231.699 85.5438C231.428 85.5953 231.163 85.552 230.903 85.414C230.697 85.8046 230.187 86.0772 229.375 86.2316C228.788 86.3431 228.32 86.3385 227.969 86.2176Z" fill="black"/>
<path d="M244.475 83.0101C244.147 82.3929 243.949 81.9034 243.88 81.5416C243.777 80.9989 243.869 80.5596 244.155 80.2239C244.338 79.9549 244.599 79.7882 244.937 79.7239C245.186 79.6767 245.424 79.7016 245.653 79.7987C245.878 79.8732 246.068 80.0128 246.224 80.2174C246.348 80.3812 246.454 80.6892 246.54 81.1415C246.647 81.7068 246.693 82.1316 246.677 82.4158C247.106 82.709 247.394 83.24 247.541 84.0089C247.622 84.4385 247.621 84.8019 247.537 85.099C247.693 85.3037 247.799 85.4943 247.856 85.671C247.92 85.6355 248.008 85.607 248.121 85.5856C248.234 85.5641 248.385 85.5589 248.574 85.5698C248.761 85.3234 249.08 85.1573 249.531 85.0715C249.757 85.0286 250.059 85.018 250.437 85.0399C250.688 84.758 251.05 84.572 251.524 84.4819C252.155 84.3618 252.632 84.4704 252.953 84.8076C253.242 84.7292 253.522 84.723 253.792 84.7889C254.08 84.8279 254.311 84.9362 254.485 85.114C254.846 85.0454 255.167 85.1366 255.449 85.3877C255.748 85.6119 255.98 85.9076 256.143 86.2749C256.325 86.6152 256.417 86.9141 256.419 87.1714C256.697 87.2825 256.875 87.5416 256.953 87.9486C256.991 88.1522 257.008 88.3013 257.002 88.396C257.352 88.6342 257.559 88.9229 257.623 89.2621C257.683 89.5787 257.609 89.8624 257.399 90.1131C257.513 90.4663 257.519 90.8049 257.417 91.1289C257.315 91.4529 257.071 91.7101 256.686 91.9004C256.679 92.2298 256.55 92.5355 256.3 92.8174C256.354 93.2287 256.313 93.6233 256.174 94.0011C256.054 94.352 255.848 94.6253 255.558 94.821C255.352 95.2117 255.056 95.5609 254.67 95.8685C254.284 96.1761 253.856 96.3863 253.387 96.499C253.363 96.6206 253.27 96.7438 253.106 96.8686C252.961 96.9665 252.83 97.0148 252.713 97.0137C252.318 97.3934 251.951 97.6155 251.612 97.6798C251.251 97.7484 250.93 97.6572 250.648 97.4061C250.453 97.6073 250.219 97.7337 249.949 97.7851C249.565 97.8581 249.198 97.7754 248.849 97.5372C248.249 97.6982 247.749 97.594 247.352 97.2244C246.954 96.8547 246.695 96.3534 246.575 95.7202C246.454 95.087 246.485 94.5072 246.665 93.9809C246.357 93.7115 246.172 93.4185 246.112 93.1019C246.043 92.7401 246.125 92.4317 246.357 92.1767C246.008 91.9385 245.799 91.6385 245.73 91.2766C245.653 90.8696 245.751 90.523 246.024 90.2368C245.773 90.0267 245.618 89.7633 245.558 89.4467C245.493 89.1075 245.557 88.7673 245.75 88.4262C245.495 88.1934 245.314 87.7944 245.206 87.229C245.138 86.8672 245.145 86.5964 245.227 86.4167C245.12 86.3434 245.013 86.2114 244.907 86.0208C244.8 85.8301 244.728 85.633 244.689 85.4295C244.65 85.226 244.65 85.0387 244.687 84.8675C244.721 84.6737 244.792 84.5548 244.9 84.5107C244.788 84.4148 244.681 84.2829 244.579 84.1148C244.5 83.9425 244.445 83.7772 244.415 83.6189C244.363 83.3475 244.383 83.1446 244.475 83.0101ZM250.278 87.7061C250.099 87.9978 249.784 88.1865 249.333 88.2723C249.017 88.3323 248.711 88.3202 248.414 88.236C248.461 88.4848 248.435 88.7125 248.334 88.9191C248.489 89.1238 248.599 89.3957 248.664 89.7349C248.733 90.0968 248.736 90.4241 248.675 90.7169C248.849 90.8947 248.966 91.1418 249.027 91.4584C249.087 91.775 249.084 92.1271 249.017 92.5146C249.298 92.7657 249.482 93.1174 249.568 93.5697C249.663 94.0672 249.584 94.5155 249.333 94.9148C249.378 94.9062 249.427 94.9202 249.481 94.9569C249.644 94.8321 249.839 94.7483 250.065 94.7054C250.2 94.6797 250.374 94.6701 250.585 94.6767C250.797 94.6833 250.95 94.6894 251.045 94.6948C251.563 94.2215 252.21 93.9345 252.985 93.8339C252.955 93.6756 252.989 93.4818 253.085 93.2526C253.205 93.019 253.359 92.849 253.55 92.7426C253.552 92.5079 253.592 92.2894 253.671 92.087C253.749 91.8846 253.865 91.7571 254.019 91.7045C253.98 91.501 254.003 91.2507 254.086 90.9536C254.193 90.6522 254.332 90.4617 254.504 90.3822L254.465 90.1787C254.418 89.9299 254.422 89.7065 254.478 89.5084L254.393 89.2435C254.363 89.0852 254.369 88.9318 254.41 88.7833C253.865 88.3716 253.555 87.9735 253.482 87.5891C253.261 87.6546 253.008 87.6791 252.724 87.6628C252.441 87.6464 252.18 87.5671 251.943 87.4248C251.788 87.5948 251.598 87.7012 251.372 87.7441C251.214 87.7741 251.016 87.7767 250.777 87.7517C250.561 87.7225 250.395 87.7073 250.278 87.7061Z" fill="black"/>
</svg>
