<svg width="811" height="608" viewBox="0 0 811 608" fill="none" xmlns="http://www.w3.org/2000/svg">
<path d="M22 367C-44 222.2 103.833 107.333 186 67.9996C334 2.3996 467.333 1.33294 515.5 8.9996C646.7 29.3996 737.5 84.8329 766.5 110C829.3 171.6 803.333 289 782.5 340C768.5 386 619.667 433.5 547 451.5L613.5 593.5L440 480.5L234 505.5C124.8 514.3 47.1667 416.833 22 367Z" fill="white" stroke="black" stroke-width="10"/>
<path d="M219.529 215.736C218.381 216.119 217.424 216.31 216.659 216.31C215.894 216.255 215.046 215.9 214.117 215.244C213.024 214.151 212.641 213.057 212.969 211.964C213.352 210.816 214.336 209.695 215.921 208.602C217.014 207.946 217.807 207.618 218.299 207.618C218.846 207.563 219.638 207.755 220.677 208.192C222.536 209.34 223.356 210.625 223.137 212.046C222.918 213.413 221.716 214.643 219.529 215.736ZM235.785 215.736C234.637 216.119 233.68 216.31 232.915 216.31C232.15 216.255 231.302 215.9 230.373 215.244C229.28 214.151 228.897 213.057 229.225 211.964C229.608 210.816 230.592 209.695 232.177 208.602C233.27 207.946 234.063 207.618 234.555 207.618C235.102 207.563 235.894 207.755 236.933 208.192C238.792 209.34 239.612 210.625 239.393 212.046C239.174 213.413 237.972 214.643 235.785 215.736ZM252.041 215.736C250.893 216.119 249.936 216.31 249.171 216.31C248.406 216.255 247.558 215.9 246.629 215.244C245.536 214.151 245.153 213.057 245.481 211.964C245.864 210.816 246.848 209.695 248.433 208.602C249.526 207.946 250.319 207.618 250.811 207.618C251.358 207.563 252.15 207.755 253.189 208.192C255.048 209.34 255.868 210.625 255.649 212.046C255.43 213.413 254.228 214.643 252.041 215.736ZM267.067 219.508C265.645 219.508 264.689 219.153 264.197 218.442C263.705 217.677 263.24 216.802 262.803 215.818C262.803 214.889 262.939 213.877 263.213 212.784C263.541 211.636 263.951 210.433 264.443 209.176C264.935 207.864 265.427 206.579 265.919 205.322C266.137 203.955 266.52 202.643 267.067 201.386C267.613 200.129 268.051 198.899 268.379 197.696C268.707 196.603 269.007 195.564 269.281 194.58C269.609 193.541 269.937 192.557 270.265 191.628C270.265 190.863 270.401 190.207 270.675 189.66C271.003 189.059 271.413 188.594 271.905 188.266C272.397 187.938 272.943 187.774 273.545 187.774C274.146 187.993 274.583 188.102 274.857 188.102C275.185 188.102 275.458 188.047 275.677 187.938C275.95 187.774 276.524 187.692 277.399 187.692C278.273 187.692 279.203 187.692 280.187 187.692C281.171 187.692 281.909 187.665 282.401 187.61C283.33 187.555 284.15 187.637 284.861 187.856C285.571 188.075 286.282 188.184 286.993 188.184C288.141 188.621 289.234 189.141 290.273 189.742C291.366 190.289 292.213 190.999 292.815 191.874C293.471 192.749 293.744 193.869 293.635 195.236C293.471 196.001 293.361 196.903 293.307 197.942C293.307 198.981 293.006 199.965 292.405 200.894C292.35 201.277 292.077 202.097 291.585 203.354C291.093 204.557 290.573 205.814 290.027 207.126C289.535 208.438 289.234 209.477 289.125 210.242C289.015 210.625 288.906 211.035 288.797 211.472C288.687 211.909 288.578 212.347 288.469 212.784C288.305 213.604 288.113 214.397 287.895 215.162C287.676 215.873 287.321 216.501 286.829 217.048C286.063 217.813 285.161 218.141 284.123 218.032C283.084 217.868 282.209 217.403 281.499 216.638C280.788 215.873 280.487 214.943 280.597 213.85C280.597 213.358 280.651 212.62 280.761 211.636C280.87 210.652 280.979 209.723 281.089 208.848C281.198 208.301 281.335 207.864 281.499 207.536C281.717 207.153 281.854 206.853 281.909 206.634C282.51 205.213 283.057 203.655 283.549 201.96C284.095 200.265 284.533 198.68 284.861 197.204C285.189 195.673 285.38 194.471 285.435 193.596C284.669 193.596 283.767 193.651 282.729 193.76C281.745 193.815 280.815 193.869 279.941 193.924C279.121 193.979 278.519 194.006 278.137 194.006C277.809 194.006 277.617 194.033 277.563 194.088C277.508 194.088 277.453 194.225 277.399 194.498C277.071 195.865 276.606 197.395 276.005 199.09C275.458 200.73 275.048 202.179 274.775 203.436C274.72 203.873 274.501 204.557 274.119 205.486C273.736 206.361 273.326 207.345 272.889 208.438C272.451 209.477 272.069 210.488 271.741 211.472C271.413 212.401 271.221 213.139 271.167 213.686C270.839 214.069 270.62 214.561 270.511 215.162C270.456 215.763 270.401 216.337 270.347 216.884C270.183 217.868 269.773 218.524 269.117 218.852C268.515 219.125 267.832 219.344 267.067 219.508ZM299.269 235.17C298.504 235.389 297.711 235.197 296.891 234.596C296.126 233.995 295.524 233.175 295.087 232.136C294.704 231.097 294.704 230.031 295.087 228.938C295.196 228.61 295.36 228.063 295.579 227.298C295.798 226.587 295.934 225.959 295.989 225.412C296.044 225.029 296.208 224.373 296.481 223.444C296.754 222.569 297.055 221.695 297.383 220.82C297.766 219.945 298.066 219.317 298.285 218.934C298.613 218.387 298.832 217.759 298.941 217.048C299.105 216.337 299.187 215.791 299.187 215.408C299.296 215.025 299.433 214.588 299.597 214.096C299.816 213.604 300.034 213.221 300.253 212.948C300.362 212.511 300.526 212.046 300.745 211.554C300.964 211.007 301.21 210.543 301.483 210.16C301.592 209.777 301.674 209.313 301.729 208.766C301.838 208.219 302.002 207.919 302.221 207.864C302.276 207.645 302.303 207.427 302.303 207.208C302.358 206.989 302.467 206.689 302.631 206.306C302.74 205.705 302.986 204.83 303.369 203.682C303.752 202.534 304.216 201.277 304.763 199.91C305.364 198.325 305.774 196.958 305.993 195.81C306.212 194.607 305.911 193.842 305.091 193.514C304.654 193.295 304.38 192.803 304.271 192.038C304.162 191.218 304.216 190.398 304.435 189.578C304.654 188.758 304.982 188.266 305.419 188.102C305.911 187.883 306.512 187.747 307.223 187.692C307.934 187.637 308.562 187.637 309.109 187.692C309.71 187.692 309.984 187.747 309.929 187.856C309.929 188.129 310.066 188.293 310.339 188.348C310.448 188.184 310.667 188.43 310.995 189.086C311.378 189.687 311.733 190.371 312.061 191.136C312.389 191.901 312.553 192.421 312.553 192.694C312.444 192.913 312.389 193.049 312.389 193.104C312.389 193.104 312.498 193.104 312.717 193.104C312.717 193.104 313.018 192.967 313.619 192.694C314.22 192.366 314.849 192.011 315.505 191.628C316.216 191.191 316.68 190.863 316.899 190.644C316.899 190.644 317.036 190.589 317.309 190.48C317.637 190.316 317.91 190.125 318.129 189.906C319.222 189.469 320.398 189.387 321.655 189.66C322.967 189.933 324.006 190.425 324.771 191.136C325.864 192.503 326.684 194.197 327.231 196.22C327.832 198.243 327.75 200.211 326.985 202.124C326.876 202.397 326.63 202.862 326.247 203.518C325.919 204.119 325.591 204.693 325.263 205.24C324.935 205.732 324.771 205.978 324.771 205.978C323.514 207.946 322.12 209.586 320.589 210.898C319.113 212.21 317.5 213.358 315.751 214.342C315.204 214.725 314.439 215.08 313.455 215.408C312.526 215.736 311.651 215.982 310.831 216.146C310.066 216.31 309.601 216.337 309.437 216.228C308.836 215.791 308.289 214.861 307.797 213.44C307.524 214.151 307.25 214.861 306.977 215.572C306.758 216.228 306.622 216.665 306.567 216.884C306.512 217.267 306.458 217.595 306.403 217.868C306.348 218.087 306.212 218.278 305.993 218.442C305.993 218.442 305.966 218.551 305.911 218.77C305.856 218.989 305.665 219.317 305.337 219.754C304.79 221.339 304.353 222.569 304.025 223.444C303.697 224.373 303.424 225.111 303.205 225.658C303.041 226.259 302.877 226.888 302.713 227.544C302.604 229.02 302.248 230.578 301.647 232.218C301.1 233.858 300.308 234.842 299.269 235.17ZM311.487 208.52C311.706 208.411 312.088 208.219 312.635 207.946C313.236 207.673 313.892 207.345 314.603 206.962C315.314 206.525 315.97 206.115 316.571 205.732C317.227 205.295 317.692 204.912 317.965 204.584C318.402 204.092 318.648 203.709 318.703 203.436C318.758 203.108 318.894 202.589 319.113 201.878C319.277 201.441 319.468 200.949 319.687 200.402C319.906 199.855 320.097 199.336 320.261 198.844C320.48 198.407 320.562 197.969 320.507 197.532C320.507 197.04 320.343 196.63 320.015 196.302C319.796 196.247 319.277 196.329 318.457 196.548C317.692 196.767 316.79 197.204 315.751 197.86C314.767 198.516 313.783 199.473 312.799 200.73C311.651 202.206 310.886 203.545 310.503 204.748C310.12 205.896 310.038 206.825 310.257 207.536C310.476 208.192 310.886 208.52 311.487 208.52ZM352.233 219.836C351.686 219.289 351.249 218.551 350.921 217.622C350.593 216.638 350.265 215.517 349.937 214.26C349.827 213.823 349.773 213.331 349.773 212.784C349.827 212.237 349.827 211.8 349.773 211.472C349.609 211.855 349.335 212.347 348.953 212.948C348.625 213.549 348.297 213.987 347.969 214.26C347.75 214.479 347.258 214.916 346.493 215.572C345.727 216.173 344.962 216.665 344.197 217.048C342.393 218.196 340.78 218.743 339.359 218.688C337.992 218.579 336.789 217.868 335.751 216.556C334.876 215.845 334.165 214.943 333.619 213.85C333.072 212.757 332.963 211.445 333.291 209.914C333.4 208.001 333.673 206.142 334.111 204.338C334.548 202.479 335.45 200.019 336.817 196.958C337.965 194.717 338.839 192.967 339.441 191.71C340.042 190.453 340.425 189.715 340.589 189.496C341.409 189.223 342.42 189.25 343.623 189.578C344.825 189.851 345.481 190.371 345.591 191.136C345.919 191.683 345.919 192.721 345.591 194.252C345.263 195.728 344.607 197.423 343.623 199.336C342.857 201.195 342.119 202.999 341.409 204.748C340.753 206.497 340.343 207.973 340.179 209.176C340.069 210.379 340.397 211.117 341.163 211.39C341.655 211.663 342.365 211.636 343.295 211.308C344.279 210.98 345.427 209.996 346.739 208.356C348.051 206.716 349.445 204.119 350.921 200.566C351.358 199.473 351.686 198.516 351.905 197.696C352.123 196.821 352.26 195.865 352.315 194.826C352.205 194.17 352.369 193.487 352.807 192.776C353.299 192.065 353.873 191.519 354.529 191.136C354.747 190.863 355.048 190.617 355.431 190.398C355.813 190.125 356.059 190.125 356.169 190.398L357.481 190.316C357.699 190.261 357.945 190.48 358.219 190.972C358.492 191.464 358.765 191.819 359.039 192.038C359.64 192.53 359.913 193.596 359.859 195.236C359.804 196.876 359.148 199.172 357.891 202.124C356.852 204.365 356.141 206.06 355.759 207.208C355.431 208.356 355.239 209.477 355.185 210.57C355.185 211.554 355.267 212.401 355.431 213.112C355.595 213.768 356.087 214.451 356.907 215.162C357.508 215.545 357.836 216.201 357.891 217.13C358 218.005 358.027 218.77 357.973 219.426C357.863 219.918 357.426 220.246 356.661 220.41C355.95 220.629 355.157 220.683 354.283 220.574C353.463 220.465 352.779 220.219 352.233 219.836ZM370.774 217.704C370.118 217.868 369.435 217.977 368.724 218.032C368.068 218.032 367.412 217.923 366.756 217.704C365.827 217.321 365.198 216.857 364.87 216.31C364.542 215.763 364.378 215.135 364.378 214.424C364.378 213.385 364.542 212.319 364.87 211.226C365.253 210.133 365.39 209.067 365.28 208.028C365.444 207.645 365.69 206.935 366.018 205.896C366.401 204.857 366.784 203.737 367.166 202.534C367.604 201.277 367.959 200.101 368.232 199.008C368.56 197.915 368.724 197.095 368.724 196.548C368.724 195.783 368.615 195.209 368.396 194.826C368.232 194.389 368.178 193.951 368.232 193.514C368.287 193.077 368.642 192.503 369.298 191.792C369.572 191.519 370.009 191.054 370.61 190.398C371.212 189.742 371.649 189.359 371.922 189.25C372.36 189.141 372.77 189.086 373.152 189.086C373.59 189.086 374.027 189.168 374.464 189.332C374.41 189.332 374.382 189.332 374.382 189.332C374.382 189.277 374.355 189.25 374.3 189.25C375.23 188.758 376.487 188.348 378.072 188.02C379.712 187.692 381.352 187.555 382.992 187.61C384.687 187.61 386.081 187.938 387.174 188.594C387.94 189.031 388.514 189.66 388.896 190.48C389.279 191.3 389.306 192.339 388.978 193.596C388.65 193.815 388.322 194.061 387.994 194.334C387.666 194.553 387.338 194.799 387.01 195.072C386.573 194.853 386.136 194.771 385.698 194.826C385.316 194.826 384.878 194.826 384.386 194.826C383.621 194.771 382.801 194.717 381.926 194.662C381.106 194.607 380.286 194.635 379.466 194.744C378.646 194.853 377.881 195.154 377.17 195.646C376.952 196.411 376.678 197.286 376.35 198.27C376.022 199.199 375.722 200.129 375.448 201.058C375.175 201.987 374.929 202.78 374.71 203.436C374.492 204.092 374.355 204.502 374.3 204.666C373.644 206.251 373.016 208.274 372.414 210.734C371.813 213.194 371.266 215.517 370.774 217.704ZM386.739 220.984C386.028 220.765 385.372 220.328 384.771 219.672C384.224 219.016 383.787 218.551 383.459 218.278C383.404 218.114 383.322 217.95 383.213 217.786C383.158 217.622 383.103 217.458 383.049 217.294C383.049 216.747 383.103 216.365 383.213 216.146C383.377 215.927 383.732 215.545 384.279 214.998C384.661 214.397 385.044 214.069 385.427 214.014C385.809 213.959 386.165 213.987 386.493 214.096C387.586 213.276 388.625 212.511 389.609 211.8C390.647 211.035 391.467 210.215 392.069 209.34C392.834 208.192 393.572 207.017 394.283 205.814C395.048 204.611 395.786 203.409 396.497 202.206C396.77 201.714 397.071 201.14 397.399 200.484C397.727 199.828 398.055 199.172 398.383 198.516C398.711 197.805 398.984 197.204 399.203 196.712C398.656 196.603 398.273 196.493 398.055 196.384C397.836 196.22 397.563 196.029 397.235 195.81C397.071 195.209 396.852 194.553 396.579 193.842C396.36 193.131 396.223 192.585 396.169 192.202C396.169 190.835 396.825 189.988 398.137 189.66C399.777 189.277 401.198 189.031 402.401 188.922C403.603 188.813 404.779 188.621 405.927 188.348C407.02 188.075 408.168 187.993 409.371 188.102C410.573 188.157 411.694 188.403 412.733 188.84C413.279 189.059 413.771 189.359 414.209 189.742C414.646 190.125 415.056 190.644 415.439 191.3C416.04 192.175 416.395 193.131 416.505 194.17C416.669 195.209 416.723 196.138 416.669 196.958C416.669 197.723 416.696 198.215 416.751 198.434C416.587 199.035 416.341 199.965 416.013 201.222C415.685 202.479 415.302 203.819 414.865 205.24C414.482 206.661 414.099 207.946 413.717 209.094C413.389 210.187 413.17 210.925 413.061 211.308C412.842 212.183 412.541 213.085 412.159 214.014C411.831 214.889 411.612 215.736 411.503 216.556C411.284 217.704 410.819 218.497 410.109 218.934C409.398 219.317 408.769 219.645 408.223 219.918C407.621 220.137 407.075 220.082 406.583 219.754C406.091 219.426 405.626 219.071 405.189 218.688C404.806 217.649 404.587 216.884 404.533 216.392C404.533 215.845 404.697 215.107 405.025 214.178C405.189 213.741 405.489 212.757 405.927 211.226C406.364 209.695 406.856 207.973 407.403 206.06C407.949 204.147 408.469 202.397 408.961 200.812C409.453 199.172 409.781 198.024 409.945 197.368C410.054 196.821 410.136 196.357 410.191 195.974C410.245 195.537 410.245 195.127 410.191 194.744C409.808 194.635 409.261 194.58 408.551 194.58C407.84 194.58 407.184 194.635 406.583 194.744C406.473 194.799 406.337 194.826 406.173 194.826C406.063 194.826 405.954 194.853 405.845 194.908C405.626 195.892 405.353 196.876 405.025 197.86C404.697 198.789 404.287 199.801 403.795 200.894C403.357 201.933 402.811 203.108 402.155 204.42C401.553 205.732 400.815 207.208 399.941 208.848C399.394 209.941 398.847 210.925 398.301 211.8C397.754 212.675 397.18 213.495 396.579 214.26L395.595 215.572C395.267 215.9 394.911 216.255 394.529 216.638C394.146 217.021 393.791 217.376 393.463 217.704C393.135 217.977 392.861 218.223 392.643 218.442L390.101 220.41C389.609 220.793 389.089 220.984 388.543 220.984C387.996 220.984 387.395 220.984 386.739 220.984ZM428.301 218.852C427.864 218.961 427.29 219.016 426.579 219.016C425.868 218.961 425.24 218.879 424.693 218.77C424.201 218.606 423.955 218.442 423.955 218.278C423.955 218.005 423.818 217.868 423.545 217.868C423.545 217.868 423.244 217.649 422.643 217.212C422.042 216.72 421.495 216.365 421.003 216.146C420.511 215.381 420.183 214.506 420.019 213.522C419.91 212.483 420.238 210.679 421.003 208.11C421.058 206.361 421.55 204.529 422.479 202.616C423.408 200.648 424.584 198.735 426.005 196.876C427.426 195.017 428.902 193.377 430.433 191.956C431.964 190.48 433.33 189.387 434.533 188.676C435.298 187.911 436.31 187.501 437.567 187.446C438.879 187.391 440.027 187.637 441.011 188.184C441.558 188.457 442.159 189.004 442.815 189.824C443.471 190.644 444.1 191.519 444.701 192.448C445.302 193.323 445.767 194.115 446.095 194.826C446.259 195.427 446.396 195.974 446.505 196.466C446.669 196.903 446.778 197.45 446.833 198.106C446.888 198.762 446.833 199.746 446.669 201.058C446.396 202.042 446.15 203.053 445.931 204.092C445.767 205.076 445.685 206.087 445.685 207.126C445.576 208.165 445.685 208.903 446.013 209.34C446.396 209.777 446.942 209.805 447.653 209.422C448.309 209.094 448.992 209.067 449.703 209.34C450.414 209.559 450.906 209.996 451.179 210.652C451.507 211.253 451.425 212.046 450.933 213.03C450.605 213.741 450.086 214.424 449.375 215.08C448.664 215.736 447.872 216.283 446.997 216.72C446.122 217.103 445.275 217.294 444.455 217.294C443.854 217.294 443.252 217.075 442.651 216.638C442.05 216.146 441.503 215.49 441.011 214.67C440.519 213.85 440.109 212.948 439.781 211.964L439.289 210.078L436.337 212.784C435.626 213.549 434.916 214.26 434.205 214.916C433.549 215.517 433.139 215.955 432.975 216.228C432.702 216.72 432.155 217.157 431.335 217.54C430.57 217.923 429.558 218.36 428.301 218.852ZM430.515 210.98C431.444 210.433 432.237 209.777 432.893 209.012C433.604 208.247 434.287 207.399 434.943 206.47C435.599 205.486 436.31 204.447 437.075 203.354C438.004 202.097 438.66 201.085 439.043 200.32C439.48 199.555 439.808 198.735 440.027 197.86C439.808 197.259 439.508 196.63 439.125 195.974C438.742 195.263 438.36 194.881 437.977 194.826C437.212 194.826 436.282 195.291 435.189 196.22C434.15 197.149 433.002 198.489 431.745 200.238C431.526 200.511 431.253 200.949 430.925 201.55C430.597 202.151 430.269 202.725 429.941 203.272C429.668 203.764 429.476 204.092 429.367 204.256C429.203 204.475 428.957 204.994 428.629 205.814C428.356 206.579 428.11 207.372 427.891 208.192C427.672 208.957 427.563 209.504 427.563 209.832C427.563 210.16 427.59 210.515 427.645 210.898C427.754 211.281 428.028 211.527 428.465 211.636C428.902 211.745 429.586 211.527 430.515 210.98ZM464.662 219.344C463.46 219.344 462.558 219.289 461.956 219.18C461.41 219.071 461 218.907 460.726 218.688C460.453 218.469 460.098 218.169 459.66 217.786C459.442 217.349 459.059 216.802 458.512 216.146C457.966 215.435 457.583 214.971 457.364 214.752C457.146 213.932 457.064 212.811 457.118 211.39C457.228 209.969 457.474 208.438 457.856 206.798C458.239 205.158 458.704 203.682 459.25 202.37C459.469 201.933 459.66 201.495 459.824 201.058C459.988 200.621 460.07 200.402 460.07 200.402C460.07 200.129 460.398 199.473 461.054 198.434C461.765 197.395 462.53 196.302 463.35 195.154C464.225 194.006 464.936 193.186 465.482 192.694C465.865 192.257 466.439 191.792 467.204 191.3C468.024 190.808 468.735 190.453 469.336 190.234C469.938 190.015 470.758 189.742 471.796 189.414C472.835 189.031 473.764 188.84 474.584 188.84C475.35 188.84 476.17 189.004 477.044 189.332C477.919 189.66 478.657 190.234 479.258 191.054C480.242 192.038 480.871 193.213 481.144 194.58C481.418 195.947 481.445 197.122 481.226 198.106C480.953 199.199 480.406 200.101 479.586 200.812C478.766 201.468 477.892 201.823 476.962 201.878C476.033 201.878 475.213 201.495 474.502 200.73C474.284 200.293 474.174 199.937 474.174 199.664C474.174 199.336 474.284 198.871 474.502 198.27C474.721 197.505 474.83 196.821 474.83 196.22C474.83 195.619 474.584 195.318 474.092 195.318C473.382 195.318 472.808 195.537 472.37 195.974C471.933 196.357 471.277 197.013 470.402 197.942C470.02 198.379 469.528 199.008 468.926 199.828C468.325 200.648 467.724 201.55 467.122 202.534C466.576 203.463 466.084 204.42 465.646 205.404C465.045 207.208 464.662 208.383 464.498 208.93C464.389 209.422 464.334 209.668 464.334 209.668C464.334 209.887 464.307 210.105 464.252 210.324C464.198 210.488 464.17 210.679 464.17 210.898C464.17 211.554 464.553 212.073 465.318 212.456C465.92 212.839 466.412 213.03 466.794 213.03C467.232 212.975 468.052 212.675 469.254 212.128C470.129 211.691 470.949 211.117 471.714 210.406C472.534 209.695 473.382 209.067 474.256 208.52C474.858 208.137 475.322 207.809 475.65 207.536C476.033 207.263 476.224 207.235 476.224 207.454C476.224 207.673 476.306 207.782 476.47 207.782C476.634 207.782 476.826 207.673 477.044 207.454C477.372 207.017 477.782 206.853 478.274 206.962C478.766 207.017 479.204 207.153 479.586 207.372C480.024 207.591 480.242 207.782 480.242 207.946C480.133 208.438 480.242 208.848 480.57 209.176C480.57 209.395 480.488 209.695 480.324 210.078C480.215 210.406 480.051 210.679 479.832 210.898C479.559 211.281 479.149 211.827 478.602 212.538C478.11 213.249 477.646 213.877 477.208 214.424C476.771 214.971 476.552 215.244 476.552 215.244C476.334 215.189 476.115 215.244 475.896 215.408C475.732 215.572 475.541 215.763 475.322 215.982C474.885 216.365 474.475 216.665 474.092 216.884C473.71 217.048 473.409 217.13 473.19 217.13C472.808 217.349 472.507 217.485 472.288 217.54C472.124 217.595 472.042 217.731 472.042 217.95C471.496 218.497 470.512 218.879 469.09 219.098C467.669 219.262 466.193 219.344 464.662 219.344ZM509.497 221.394C508.513 221.503 507.638 221.285 506.873 220.738C506.108 220.191 505.506 219.59 505.069 218.934C504.522 218.059 504.112 217.048 503.839 215.9C503.566 214.697 503.429 213.577 503.429 212.538C503.429 212.483 503.402 212.429 503.347 212.374C503.347 212.319 503.347 212.292 503.347 212.292C503.347 212.237 503.32 212.237 503.265 212.292C502.609 213.003 501.652 213.877 500.395 214.916C499.192 215.9 497.908 216.775 496.541 217.54C495.229 218.251 494.054 218.579 493.015 218.524C492.359 218.469 491.703 218.169 491.047 217.622C490.446 217.021 489.899 216.337 489.407 215.572C488.915 214.807 488.587 214.123 488.423 213.522C488.204 212.647 488.259 211.226 488.587 209.258C488.915 207.235 489.407 204.994 490.063 202.534C490.774 200.019 491.594 197.614 492.523 195.318C493.452 192.967 494.409 191.054 495.393 189.578C496.432 188.047 497.416 187.282 498.345 187.282C499.165 187.282 499.876 187.719 500.477 188.594C501.078 189.414 501.516 190.152 501.789 190.808C502.117 191.628 502.281 192.202 502.281 192.53C502.281 192.803 501.98 193.268 501.379 193.924C500.832 194.471 500.258 195.373 499.657 196.63C499.056 197.833 498.454 199.199 497.853 200.73C497.252 202.206 496.705 203.6 496.213 204.912C495.776 206.224 495.42 207.263 495.147 208.028C495.038 208.629 494.928 209.094 494.819 209.422C494.71 209.75 494.628 210.133 494.573 210.57C494.682 210.57 494.792 210.57 494.901 210.57C495.065 210.515 495.202 210.461 495.311 210.406C496.35 210.023 497.416 209.258 498.509 208.11C499.657 206.962 500.778 205.595 501.871 204.01C502.964 202.37 504.003 200.703 504.987 199.008C506.026 197.259 507.01 195.646 507.939 194.17C508.868 192.639 509.688 191.409 510.399 190.48C511.164 189.496 511.793 189.004 512.285 189.004C512.832 188.949 513.488 189.086 514.253 189.414C515.018 189.687 515.647 190.097 516.139 190.644C516.686 191.136 516.904 191.71 516.795 192.366C516.576 193.623 516.002 195.236 515.073 197.204C514.144 199.117 513.187 201.222 512.203 203.518C511.274 205.814 510.59 208.192 510.153 210.652C509.934 211.909 510.016 213.03 510.399 214.014C510.782 214.943 511.356 215.873 512.121 216.802C512.996 217.841 513.05 218.852 512.285 219.836C511.574 220.765 510.645 221.285 509.497 221.394ZM524.633 217.294C523.594 216.857 522.747 216.201 522.091 215.326C521.489 214.397 521.189 213.276 521.189 211.964C521.189 211.417 521.298 210.488 521.517 209.176C521.735 207.864 522.036 206.388 522.419 204.748C522.801 203.108 523.184 201.577 523.567 200.156C524.113 199.172 524.469 198.188 524.633 197.204C524.851 196.22 524.961 195.619 524.961 195.4C525.07 194.744 525.261 193.869 525.535 192.776C525.808 191.683 526.081 190.699 526.355 189.824C526.683 188.895 526.901 188.375 527.011 188.266C527.284 187.993 527.749 187.829 528.405 187.774C529.061 187.719 529.717 187.801 530.373 188.02C531.029 188.184 531.466 188.539 531.685 189.086C532.286 189.742 532.614 190.726 532.669 192.038C532.778 193.35 532.532 194.881 531.931 196.63C531.439 197.723 530.947 199.008 530.455 200.484C529.963 201.96 529.525 203.327 529.143 204.584C528.815 205.787 528.623 206.607 528.569 207.044L525.617 206.962C526.546 206.087 527.421 205.185 528.241 204.256C529.061 203.272 529.662 202.507 530.045 201.96C530.974 200.703 531.767 199.664 532.423 198.844C533.133 197.969 534.035 196.931 535.129 195.728C536.222 194.471 537.397 193.596 538.655 193.104C539.912 192.557 540.841 192.284 541.443 192.284C542.645 192.503 543.711 193.131 544.641 194.17C545.625 195.154 546.226 196.63 546.445 198.598C546.445 199.363 546.363 200.265 546.199 201.304C546.089 202.343 546.035 202.862 546.035 202.862C546.035 202.862 546.472 202.315 547.347 201.222C548.276 200.129 549.506 198.899 551.037 197.532C552.075 196.767 553.087 196.329 554.071 196.22C555.055 196.056 555.929 196.384 556.695 197.204C558.116 197.969 559.155 199.309 559.811 201.222C560.467 203.135 560.685 205.295 560.467 207.7C560.303 209.121 560.303 210.269 560.467 211.144C560.685 211.964 560.904 212.702 561.123 213.358C561.833 214.342 561.943 215.217 561.451 215.982C560.959 216.693 560.521 217.048 560.139 217.048C559.592 217.048 558.772 216.939 557.679 216.72C556.585 216.501 555.574 216.119 554.645 215.572C553.77 215.025 553.333 214.287 553.333 213.358V208.274C553.333 207.071 553.278 206.197 553.169 205.65C553.114 205.049 552.977 204.666 552.759 204.502C552.157 204.174 551.419 204.42 550.545 205.24C549.67 206.06 548.713 207.235 547.675 208.766C546.691 210.242 545.625 211.909 544.477 213.768C543.438 215.463 542.591 216.501 541.935 216.884C541.279 217.212 540.65 217.185 540.049 216.802C538.846 216.419 538.081 215.9 537.753 215.244C537.479 214.533 537.452 213.741 537.671 212.866C537.944 211.937 538.272 210.734 538.655 209.258C539.092 207.782 539.502 206.361 539.885 204.994C540.267 203.573 540.513 202.534 540.623 201.878C540.404 201.441 540.021 201.304 539.475 201.468C538.983 201.577 538.463 201.823 537.917 202.206C537.261 202.643 536.55 203.108 535.785 203.6C535.074 204.092 534.227 205.131 533.243 206.716C532.587 207.755 531.849 208.903 531.029 210.16C530.209 211.363 529.443 212.456 528.733 213.44C528.077 214.424 527.53 215.107 527.093 215.49C526.71 216.474 526.355 217.103 526.027 217.376C525.699 217.595 525.234 217.567 524.633 217.294ZM568.945 213.358C568.891 212.319 569 211.062 569.273 209.586C569.601 208.055 570.039 206.579 570.585 205.158C571.132 203.682 571.679 202.479 572.225 201.55C572.28 200.621 572.499 199.883 572.881 199.336C573.319 198.735 573.619 198.243 573.783 197.86C573.947 197.313 574.303 196.521 574.849 195.482C575.396 194.443 575.997 193.405 576.653 192.366C577.309 191.273 577.883 190.48 578.375 189.988C578.813 188.621 579.277 187.637 579.769 187.036C580.261 186.435 580.863 186.025 581.573 185.806C581.901 185.861 582.339 185.943 582.885 186.052C583.487 186.161 584.061 186.544 584.607 187.2C584.771 187.419 585.099 187.747 585.591 188.184C586.083 188.567 586.439 189.223 586.657 190.152C586.657 191.136 586.411 191.929 585.919 192.53C585.482 193.077 585.127 193.569 584.853 194.006C584.471 194.498 584.115 194.963 583.787 195.4C583.514 195.783 583.241 196.165 582.967 196.548C582.694 196.931 582.366 197.368 581.983 197.86C582.093 197.915 582.147 197.942 582.147 197.942C582.202 197.942 582.257 197.942 582.311 197.942C583.022 197.887 583.842 198.024 584.771 198.352C585.701 198.68 586.575 199.09 587.395 199.582C588.215 200.019 588.817 200.429 589.199 200.812C589.582 201.195 589.992 201.605 590.429 202.042C590.867 202.425 591.277 202.889 591.659 203.436C592.097 203.928 592.425 204.557 592.643 205.322C592.807 205.541 593.026 205.978 593.299 206.634C593.573 207.29 593.682 207.973 593.627 208.684C593.627 208.848 593.6 209.012 593.545 209.176C593.545 209.34 593.518 209.504 593.463 209.668C593.245 211.035 592.616 212.292 591.577 213.44C590.539 214.533 589.473 215.435 588.379 216.146C586.302 217.349 584.307 218.223 582.393 218.77C580.48 219.317 578.184 219.563 575.505 219.508C575.287 219.508 575.095 219.508 574.931 219.508C574.767 219.508 574.603 219.481 574.439 219.426C573.619 219.317 572.854 219.016 572.143 218.524C571.487 218.032 570.777 217.294 570.011 216.31C569.355 215.381 569 214.397 568.945 213.358ZM576.571 211.964C577.501 211.855 578.211 211.745 578.703 211.636C579.25 211.527 579.933 211.363 580.753 211.144C581.355 210.816 581.983 210.515 582.639 210.242C583.295 209.914 583.951 209.531 584.607 209.094C585.318 208.602 585.919 207.973 586.411 207.208C586.63 206.771 586.794 206.361 586.903 205.978C587.013 205.541 586.876 205.213 586.493 204.994C585.947 204.557 585.427 204.256 584.935 204.092C584.498 203.873 583.979 203.764 583.377 203.764C583.213 203.819 583.022 203.819 582.803 203.764C582.639 203.655 582.475 203.573 582.311 203.518C581.546 203.299 580.917 203.272 580.425 203.436C579.988 203.6 579.551 203.737 579.113 203.846C579.168 204.065 579.141 204.256 579.031 204.42C578.977 204.584 578.84 204.83 578.621 205.158C578.621 205.267 578.485 205.459 578.211 205.732C578.047 206.005 577.883 206.415 577.719 206.962C577.61 207.454 577.473 207.973 577.309 208.52C577.2 209.067 577.063 209.586 576.899 210.078C576.845 210.297 576.763 210.57 576.653 210.898C576.544 211.171 576.517 211.527 576.571 211.964ZM594.009 227.052C593.408 227.052 592.888 226.915 592.451 226.642C592.068 226.369 591.768 226.041 591.549 225.658C591.549 225.275 591.658 224.947 591.877 224.674C592.096 224.401 592.396 224.073 592.779 223.69C593.38 223.143 593.954 222.46 594.501 221.64C595.048 220.875 595.54 220.082 595.977 219.262C596.469 218.442 596.852 217.786 597.125 217.294C597.344 216.693 597.562 215.982 597.781 215.162C598 214.342 598.218 213.44 598.437 212.456C598.437 212.019 598.437 211.636 598.437 211.308C598.492 210.925 598.628 210.625 598.847 210.406C599.284 210.023 599.804 209.695 600.405 209.422C601.061 209.094 601.69 209.203 602.291 209.75C602.947 210.242 603.439 211.527 603.767 213.604C603.986 214.807 603.986 215.9 603.767 216.884C603.548 217.868 603.084 219.071 602.373 220.492C602.264 220.875 601.854 221.503 601.143 222.378C600.487 223.253 599.804 224.045 599.093 224.756C598.437 225.521 598.027 225.904 597.863 225.904C597.644 225.904 597.453 225.959 597.289 226.068C597.125 226.232 596.906 226.423 596.633 226.642C596.414 226.861 596.086 226.97 595.649 226.97C595.212 227.025 594.665 227.052 594.009 227.052ZM68.7638 324.394C68.0531 324.449 67.0691 324.257 65.8118 323.82C64.6091 323.383 63.7618 322.918 63.2698 322.426C62.8871 321.879 62.5045 321.196 62.1218 320.376C61.7938 319.501 61.5205 318.681 61.3018 317.916C61.0831 317.096 61.0011 316.522 61.0558 316.194L62.0398 309.388C62.2038 308.787 62.3405 308.185 62.4498 307.584C62.6138 306.983 62.7778 306.409 62.9418 305.862C62.8871 305.753 62.9965 305.261 63.2698 304.386C63.5431 303.457 63.8438 302.445 64.1718 301.352C64.5545 300.204 64.9098 299.193 65.2378 298.318C65.5658 297.389 65.7298 296.897 65.7298 296.842C65.9485 295.913 66.2491 295.038 66.6318 294.218C67.0145 293.343 67.3698 292.523 67.6978 291.758C68.1351 290.555 68.5451 289.435 68.9278 288.396C69.3651 287.357 69.7478 286.455 70.0758 285.69C70.4038 284.925 70.6498 284.323 70.8138 283.886C71.0325 283.449 71.1418 283.257 71.1418 283.312L75.7338 272.816C75.2965 272.379 74.8591 271.859 74.4218 271.258C73.9845 270.657 73.7658 269.919 73.7658 269.044C73.7111 268.443 73.8478 267.951 74.1758 267.568C74.5585 267.185 74.9685 266.885 75.4058 266.666C76.1711 266.611 76.8818 266.557 77.5378 266.502C78.2485 266.447 79.0411 266.475 79.9158 266.584C80.2438 266.529 80.5718 266.502 80.8998 266.502C81.2825 266.502 81.6378 266.475 81.9658 266.42C82.2391 266.475 82.5398 266.529 82.8678 266.584C83.1958 266.584 83.6058 266.502 84.0978 266.338C84.6445 266.229 85.3551 266.147 86.2298 266.092C87.1591 266.037 88.0885 265.983 89.0178 265.928C89.9471 265.819 90.7671 265.764 91.4778 265.764C92.2431 265.709 92.7351 265.682 92.9538 265.682C93.6098 265.627 94.2658 265.573 94.9218 265.518C95.5778 265.463 96.2338 265.409 96.8898 265.354C97.6005 265.299 98.2838 265.245 98.9398 265.19C99.5958 265.135 100.252 265.081 100.908 265.026C102.602 264.643 103.723 264.807 104.27 265.518C104.871 266.174 105.336 266.775 105.664 267.322C105.773 267.595 105.964 268.033 106.238 268.634C106.566 269.181 106.73 269.727 106.73 270.274C106.784 270.766 106.402 271.094 105.582 271.258C105.472 271.641 105.09 271.941 104.434 272.16C103.832 272.324 103.094 272.242 102.22 271.914C102.11 271.859 101.345 271.887 99.9238 271.996C98.5571 272.051 96.8625 272.16 94.8398 272.324C92.8171 272.488 90.7945 272.679 88.7718 272.898C86.8038 273.062 85.1365 273.226 83.7698 273.39C83.6058 273.773 83.4145 274.155 83.1958 274.538C83.0318 274.921 82.8678 275.303 82.7038 275.686C82.3211 276.506 81.9385 277.326 81.5558 278.146C81.2278 278.911 80.8725 279.704 80.4898 280.524C80.1071 281.344 79.7245 282.164 79.3418 282.984C79.0138 283.749 78.6858 284.515 78.3578 285.28C78.1938 285.553 78.0298 285.854 77.8658 286.182C77.7018 286.51 77.5378 286.811 77.3738 287.084C77.8658 287.029 78.3305 286.975 78.7678 286.92C79.2598 286.865 79.7518 286.811 80.2438 286.756C81.0091 286.647 81.8838 286.701 82.8678 286.92C83.8518 287.084 84.8358 287.33 85.8198 287.658C86.8038 287.931 87.7058 288.259 88.5258 288.642C89.3458 288.97 89.9745 289.271 90.4118 289.544C91.6691 290.309 92.7898 291.129 93.7738 292.004C94.8125 292.824 95.6871 293.89 96.3978 295.202C96.8898 296.295 97.3545 297.498 97.7918 298.81C98.2291 300.067 98.3931 301.434 98.2838 302.91C98.2838 303.129 98.2018 303.703 98.0378 304.632C97.9285 305.507 97.7371 306.436 97.4638 307.42C97.2451 308.349 96.9718 309.087 96.6438 309.634C96.0971 310.618 95.4411 311.602 94.6758 312.586C93.9651 313.57 93.1998 314.527 92.3798 315.456C91.3958 316.659 90.2751 317.67 89.0178 318.49C87.7605 319.255 86.5305 319.911 85.3278 320.458C84.2345 321.005 83.3871 321.415 82.7858 321.688C82.1845 321.961 81.6378 322.18 81.1458 322.344C80.7085 322.453 80.0798 322.59 79.2598 322.754C78.9318 322.809 78.6038 322.891 78.2758 323C78.0025 323.055 77.7018 323.109 77.3738 323.164C77.0458 323.219 76.7178 323.301 76.3898 323.41C75.5151 323.902 74.6405 324.175 73.7658 324.23C72.8911 324.339 72.0711 324.394 71.3058 324.394C70.8685 324.394 70.4311 324.367 69.9938 324.312C69.6111 324.312 69.2011 324.339 68.7638 324.394ZM67.8618 317.424C68.7365 317.369 69.5838 317.369 70.4038 317.424C71.2238 317.424 72.0165 317.315 72.7818 317.096C75.5151 316.331 78.0025 315.538 80.2438 314.718C82.5398 313.898 84.5898 312.477 86.3938 310.454C87.7058 308.923 88.6898 307.529 89.3458 306.272C90.0018 305.015 90.4938 303.539 90.8218 301.844C90.9858 301.243 90.9858 300.614 90.8218 299.958C90.6578 299.302 90.4665 298.427 90.2478 297.334C89.9198 296.569 89.6191 296.077 89.3458 295.858C89.0725 295.585 88.7445 295.393 88.3618 295.284C87.9791 295.175 87.4871 294.956 86.8858 294.628C86.3391 294.191 85.5465 293.863 84.5078 293.644C83.4691 293.425 82.4851 293.261 81.5558 293.152C81.0638 293.043 80.5445 292.961 79.9978 292.906C79.5058 292.851 79.0138 292.797 78.5218 292.742C78.0298 292.633 77.5105 292.551 76.9638 292.496C76.4718 292.387 75.9798 292.305 75.4878 292.25C75.4331 292.469 75.1871 293.043 74.7498 293.972C74.3671 294.901 73.9298 295.967 73.4378 297.17C73.0005 298.318 72.6178 299.357 72.2898 300.286C71.7431 301.871 71.2238 303.484 70.7318 305.124C70.2398 306.709 69.8025 308.295 69.4198 309.88C69.2558 310.7 69.0645 311.602 68.8458 312.586C68.6818 313.515 68.4905 314.417 68.2718 315.292C68.1078 316.112 67.9711 316.823 67.8618 317.424ZM99.4581 325.706C98.4741 325.159 97.9274 324.558 97.8181 323.902C97.7634 323.246 98.1461 322.098 98.9661 320.458C99.7861 318.818 101.071 316.276 102.82 312.832C104.132 310.372 105.007 308.459 105.444 307.092C105.936 305.671 106.209 304.659 106.264 304.058C106.319 303.457 106.346 303.074 106.346 302.91C106.237 302.418 106.291 302.035 106.51 301.762C106.729 301.434 107.084 301.161 107.576 300.942C107.849 300.669 108.478 300.177 109.462 299.466C110.446 298.755 111.211 297.908 111.758 296.924C112.25 295.776 112.797 294.601 113.398 293.398C114.054 292.195 114.901 290.692 115.94 288.888C116.979 287.029 118.373 284.624 120.122 281.672C121.215 279.759 122.5 277.599 123.976 275.194C125.507 272.789 127.01 270.602 128.486 268.634C129.087 267.869 129.716 267.267 130.372 266.83C131.028 266.393 131.602 266.174 132.094 266.174C133.297 266.174 134.499 266.502 135.702 267.158C136.905 267.759 137.971 268.525 138.9 269.454C139.829 270.383 140.458 271.258 140.786 272.078C141.059 272.515 141.169 273.445 141.114 274.866C141.059 276.287 140.95 278.009 140.786 280.032C140.622 282.055 140.431 284.214 140.212 286.51C140.048 288.751 139.802 291.403 139.474 294.464C139.146 297.525 138.818 300.723 138.49 304.058C138.217 307.393 137.998 310.618 137.834 313.734C137.67 316.795 137.67 319.474 137.834 321.77C137.889 322.262 137.889 322.727 137.834 323.164C137.779 323.601 137.752 323.957 137.752 324.23C137.424 324.558 136.713 324.695 135.62 324.64C134.527 324.64 133.461 324.476 132.422 324.148C131.383 323.82 130.809 323.41 130.7 322.918C130.536 322.754 130.427 322.617 130.372 322.508C130.317 322.399 130.317 321.879 130.372 320.95C130.427 319.966 130.509 318.189 130.618 315.62L131.028 303.074L129.962 303.156C129.47 303.156 128.568 303.211 127.256 303.32C125.999 303.429 124.605 303.593 123.074 303.812C121.598 303.976 120.231 304.167 118.974 304.386C117.717 304.55 116.842 304.714 116.35 304.878C115.858 304.878 115.257 305.206 114.546 305.862C113.89 306.518 113.261 307.365 112.66 308.404C112.441 309.169 112.031 309.989 111.43 310.864C110.883 311.684 110.61 312.231 110.61 312.504C110.227 312.777 109.899 313.105 109.626 313.488C109.407 313.871 109.298 314.062 109.298 314.062C109.298 314.39 109.052 315.21 108.56 316.522C108.068 317.779 107.467 319.201 106.756 320.786C106.045 322.317 105.307 323.656 104.542 324.804L102.328 327.92L99.4581 325.706ZM119.056 297.498C119.056 297.498 119.357 297.443 119.958 297.334C120.559 297.225 121.27 297.115 122.09 297.006C122.965 296.842 123.73 296.76 124.386 296.76C125.643 296.432 126.682 296.186 127.502 296.022C128.377 295.858 129.087 295.776 129.634 295.776C130.181 295.721 130.618 295.776 130.946 295.94C131.165 296.213 131.356 296.377 131.52 296.432C131.739 296.487 131.848 296.514 131.848 296.514C131.903 296.405 132.012 295.831 132.176 294.792C132.34 293.753 132.531 292.469 132.75 290.938C132.969 289.407 133.187 287.822 133.406 286.182C133.625 284.487 133.816 282.929 133.98 281.508C134.144 280.032 134.253 278.884 134.308 278.064C134.363 277.025 134.335 276.096 134.226 275.276C134.117 274.401 134.062 273.964 134.062 273.964C133.734 273.964 133.105 274.565 132.176 275.768C131.301 276.916 130.263 278.474 129.06 280.442C127.912 282.355 126.764 284.433 125.616 286.674C125.069 287.713 124.55 288.533 124.058 289.134C123.621 289.735 123.265 290.036 122.992 290.036C122.883 290.145 122.582 290.583 122.09 291.348C121.653 292.059 121.161 292.879 120.614 293.808C120.122 294.683 119.685 295.503 119.302 296.268C118.974 296.979 118.892 297.389 119.056 297.498ZM183.241 271.996C183.842 271.996 184.553 272.433 185.373 273.308C186.248 274.128 186.794 275.03 187.013 276.014C187.013 276.451 186.876 276.971 186.603 277.572C186.33 278.173 185.674 278.775 184.635 279.376C183.268 280.469 182.12 281.426 181.191 282.246C180.262 283.066 179.305 283.995 178.321 285.034C177.392 286.018 176.162 287.385 174.631 289.134L170.777 292.66L171.269 293.972C171.488 294.355 171.816 295.065 172.253 296.104C172.69 297.088 173.018 297.799 173.237 298.236C173.784 299.439 174.221 300.368 174.549 301.024C174.932 301.625 175.287 302.309 175.615 303.074C175.943 303.839 176.38 305.069 176.927 306.764C177.528 308.185 178.02 309.388 178.403 310.372C178.786 311.301 178.977 311.875 178.977 312.094C178.977 312.094 179.25 312.805 179.797 314.226C180.344 315.593 180.918 317.096 181.519 318.736C182.503 320.977 183.022 322.754 183.077 324.066C183.132 325.433 182.886 326.471 182.339 327.182C181.847 327.947 181.164 328.576 180.289 329.068C179.906 329.068 179.606 329.068 179.387 329.068C179.168 329.068 179.059 329.068 179.059 329.068C179.223 328.904 179.114 328.658 178.731 328.33C178.403 328.057 178.02 327.811 177.583 327.592C177.2 327.373 176.927 327.346 176.763 327.51C176.544 327.51 176.408 327.401 176.353 327.182C176.298 326.963 176.162 326.608 175.943 326.116C176.162 325.897 176.189 325.597 176.025 325.214C175.916 324.831 175.752 324.421 175.533 323.984C175.533 323.492 175.369 322.945 175.041 322.344C174.768 321.688 174.522 321.169 174.303 320.786C174.303 320.349 174.221 319.939 174.057 319.556C173.948 319.173 173.893 318.982 173.893 318.982C173.893 318.709 173.811 318.353 173.647 317.916C173.483 317.479 173.292 317.069 173.073 316.686C172.854 316.249 172.663 315.757 172.499 315.21C172.335 314.609 172.253 314.308 172.253 314.308C172.034 313.816 171.761 313.215 171.433 312.504C171.16 311.739 170.586 310.235 169.711 307.994C169.492 307.393 169.219 306.764 168.891 306.108C168.563 305.452 168.399 305.124 168.399 305.124C168.18 304.687 167.907 304.195 167.579 303.648C167.306 303.047 167.169 302.555 167.169 302.172C167.169 301.953 167.142 301.707 167.087 301.434C167.087 301.106 166.978 300.942 166.759 300.942C166.759 300.942 166.677 300.805 166.513 300.532C166.349 300.204 166.158 299.931 165.939 299.712L165.529 298.072L164.873 299.63C164.49 299.849 164.244 300.259 164.135 300.86C164.08 301.407 163.834 301.899 163.397 302.336C161.702 304.851 160.199 307.01 158.887 308.814C157.575 310.618 156.7 311.629 156.263 311.848C156.482 311.848 156.509 312.012 156.345 312.34C156.181 312.668 155.88 313.051 155.443 313.488C155.224 313.761 154.924 314.226 154.541 314.882C154.213 315.483 153.94 316.003 153.721 316.44C153.502 317.041 153.284 317.752 153.065 318.572C152.846 319.392 152.19 320.567 151.097 322.098C150.714 323.082 150.031 323.765 149.047 324.148C148.063 324.531 147.352 324.722 146.915 324.722C146.368 324.558 145.876 324.011 145.439 323.082C145.056 322.153 144.81 321.141 144.701 320.048C144.592 318.9 144.674 317.971 144.947 317.26C145.166 316.877 145.576 316.167 146.177 315.128C146.833 314.089 147.516 312.969 148.227 311.766C148.992 310.509 149.676 309.415 150.277 308.486C150.933 307.502 151.37 306.901 151.589 306.682C151.589 306.682 151.753 306.436 152.081 305.944C152.464 305.452 152.874 305.015 153.311 304.632C154.022 303.648 154.541 302.91 154.869 302.418C155.197 301.926 155.498 301.434 155.771 300.942C156.044 300.45 156.454 299.739 157.001 298.81C157.438 298.373 157.93 297.826 158.477 297.17C159.024 296.459 159.488 295.913 159.871 295.53C160.308 294.929 160.746 294.601 161.183 294.546C161.62 294.491 161.948 294.163 162.167 293.562C162.386 293.289 162.577 293.015 162.741 292.742C162.905 292.469 162.987 292.031 162.987 291.43C162.987 291.266 162.796 290.719 162.413 289.79C162.03 288.806 161.511 287.631 160.855 286.264C160.254 284.897 159.625 283.503 158.969 282.082C158.313 280.661 157.684 279.376 157.083 278.228C156.482 277.08 156.017 276.287 155.689 275.85C155.088 274.757 154.76 273.554 154.705 272.242C154.705 270.93 155.361 270.055 156.673 269.618C157.11 269.454 157.712 269.454 158.477 269.618C159.242 269.782 159.953 270.028 160.609 270.356C161.32 270.684 161.757 271.094 161.921 271.586C162.14 271.586 162.44 271.941 162.823 272.652C163.26 273.363 163.67 274.21 164.053 275.194C164.217 275.631 164.463 276.287 164.791 277.162C165.119 277.982 165.474 278.884 165.857 279.868C166.294 280.797 166.65 281.617 166.923 282.328L168.481 286.264L170.777 282.902C171.597 281.973 172.444 281.043 173.319 280.114C174.248 279.13 174.904 278.501 175.287 278.228C175.724 277.955 176.107 277.681 176.435 277.408C176.763 277.08 176.927 276.916 176.927 276.916C176.927 276.697 177.173 276.342 177.665 275.85C178.212 275.303 178.84 274.729 179.551 274.128C180.316 273.527 181.027 273.035 181.683 272.652C182.394 272.215 182.913 271.996 183.241 271.996ZM224.854 331.118C224.143 330.845 223.405 330.134 222.64 328.986C221.875 327.838 221.355 326.881 221.082 326.116C221.191 325.788 221.41 324.886 221.738 323.41C222.066 321.989 222.476 320.267 222.968 318.244C223.46 316.221 224.007 314.171 224.608 312.094C225.209 309.962 225.783 308.076 226.33 306.436C226.494 305.671 226.603 305.097 226.658 304.714C226.767 304.277 226.795 303.976 226.74 303.812C226.74 303.593 226.631 303.429 226.412 303.32C226.084 303.101 225.291 302.855 224.034 302.582C222.777 302.309 221.328 302.035 219.688 301.762C218.048 301.489 216.463 301.243 214.932 301.024C213.456 300.751 212.335 300.559 211.57 300.45C210.914 300.505 210.203 300.423 209.438 300.204C208.673 299.985 207.935 299.903 207.224 299.958C206.349 299.958 205.803 299.931 205.584 299.876C205.365 299.821 205.174 299.657 205.01 299.384C204.955 299.056 204.901 298.919 204.846 298.974C204.791 298.974 204.6 299.521 204.272 300.614C203.944 301.707 203.343 303.703 202.468 306.6C201.539 309.443 200.855 311.739 200.418 313.488C200.035 315.237 199.762 316.659 199.598 317.752C199.434 318.845 199.27 319.802 199.106 320.622C198.723 321.879 198.313 323.219 197.876 324.64C197.439 326.116 197.001 327.346 196.564 328.33C196.181 329.369 195.826 329.915 195.498 329.97C195.389 330.189 194.951 330.189 194.186 329.97C193.421 329.806 192.792 329.615 192.3 329.396C191.48 328.795 190.988 328.002 190.824 327.018C190.66 326.089 190.769 324.695 191.152 322.836C191.535 320.923 192.109 318.299 192.874 314.964C193.311 312.777 193.721 310.727 194.104 308.814C194.541 306.901 194.951 305.78 195.334 305.452C195.607 304.523 195.963 303.129 196.4 301.27C196.892 299.357 197.493 297.607 198.204 296.022C198.641 294.382 199.297 292.387 200.172 290.036C201.101 287.685 202.085 285.28 203.124 282.82C204.163 280.305 205.147 277.982 206.076 275.85C207.005 273.718 207.743 272.023 208.29 270.766C208.727 270.383 208.973 269.837 209.028 269.126C209.137 268.415 209.219 267.869 209.274 267.486C209.711 266.666 210.449 265.901 211.488 265.19C212.527 264.425 213.237 264.069 213.62 264.124C214.331 264.233 215.041 264.643 215.752 265.354C216.463 266.065 217.009 266.83 217.392 267.65C217.829 268.47 217.911 269.153 217.638 269.7C217.255 270.083 216.763 270.985 216.162 272.406C215.615 273.827 214.795 275.905 213.702 278.638C213.429 279.185 212.964 279.895 212.308 280.77C211.707 281.645 211.269 282.465 210.996 283.23C210.613 283.831 210.367 284.433 210.258 285.034C210.203 285.635 210.039 286.073 209.766 286.346C209.602 286.729 209.356 287.248 209.028 287.904C208.7 288.56 208.399 289.243 208.126 289.954C207.853 290.61 207.607 291.211 207.388 291.758C207.224 292.305 207.169 292.633 207.224 292.742C207.333 292.851 207.853 292.988 208.782 293.152C209.711 293.316 210.75 293.48 211.898 293.644C213.101 293.753 214.112 293.863 214.932 293.972C215.205 293.917 215.861 293.972 216.9 294.136C217.993 294.245 219.223 294.382 220.59 294.546C221.957 294.71 223.214 294.874 224.362 295.038C226.002 295.585 227.341 295.94 228.38 296.104C229.473 296.268 230.047 296.241 230.102 296.022C230.102 296.022 230.211 295.721 230.43 295.12C230.703 294.519 231.086 293.644 231.578 292.496C231.797 291.676 232.043 290.528 232.316 289.052C232.644 287.521 233.081 285.909 233.628 284.214C234.284 283.066 234.858 281.809 235.35 280.442C235.842 279.021 236.225 277.654 236.498 276.342C236.826 274.975 237.072 273.855 237.236 272.98C237.619 271.34 238.22 270.028 239.04 269.044C239.915 268.06 240.489 267.349 240.762 266.912C240.762 266.912 240.926 266.994 241.254 267.158C241.637 267.267 242.019 267.377 242.402 267.486C243.386 267.65 244.151 268.115 244.698 268.88C245.245 269.591 245.463 270.766 245.354 272.406C245.299 274.046 244.753 276.315 243.714 279.212C243.495 279.923 243.085 280.961 242.484 282.328C241.937 283.64 241.418 284.979 240.926 286.346C240.434 287.658 240.106 288.642 239.942 289.298C239.505 290.665 239.122 291.949 238.794 293.152C238.466 294.355 237.837 295.995 236.908 298.072C236.853 298.236 236.963 298.482 237.236 298.81C237.564 299.083 238.001 299.439 238.548 299.876C239.313 300.313 239.641 300.887 239.532 301.598C239.423 302.254 239.067 302.828 238.466 303.32C237.865 303.812 237.209 304.058 236.498 304.058C235.787 304.003 235.268 304.14 234.94 304.468C234.667 304.796 234.448 305.589 234.284 306.846C233.683 308.213 232.999 309.989 232.234 312.176C231.523 314.363 230.84 316.631 230.184 318.982C229.528 321.278 228.981 323.355 228.544 325.214C228.161 327.127 227.97 328.439 227.97 329.15C227.587 330.298 227.15 330.954 226.658 331.118C226.221 331.282 225.619 331.282 224.854 331.118ZM256.774 325.542C256.064 325.378 255.353 325.214 254.642 325.05C253.932 324.941 253.248 324.722 252.592 324.394C251.062 323.629 250.132 322.481 249.804 320.95C249.476 319.419 250.078 318.107 251.608 317.014C252.483 316.905 253.166 316.932 253.658 317.096C254.15 317.26 254.779 317.479 255.544 317.752C256.146 317.971 256.692 318.08 257.184 318.08C257.731 318.025 258.278 318.08 258.824 318.244C259.972 318.08 261.093 317.615 262.186 316.85C263.334 316.085 264.264 315.265 264.974 314.39C265.248 314.062 265.576 313.679 265.958 313.242C266.341 312.75 266.751 312.231 267.188 311.684C268.227 310.372 269.348 308.951 270.55 307.42C271.753 305.835 272.846 304.359 273.83 302.992C274.869 301.571 275.58 300.532 275.962 299.876C277.056 297.963 278.094 295.995 279.078 293.972C280.062 291.895 281.019 289.845 281.948 287.822C282.878 285.745 283.78 283.695 284.654 281.672C285.529 279.649 286.404 277.709 287.278 275.85C287.825 274.757 288.235 273.609 288.508 272.406C288.836 271.203 289.274 270.028 289.82 268.88C290.312 268.607 290.914 268.333 291.624 268.06C292.335 267.787 292.964 267.787 293.51 268.06C294.932 268.716 295.943 269.782 296.544 271.258C296.927 272.242 296.982 273.226 296.708 274.21C296.326 275.741 295.861 277.053 295.314 278.146C294.822 279.239 294.358 280.141 293.92 280.852C293.046 282.711 292.144 284.569 291.214 286.428C290.285 288.232 289.356 290.063 288.426 291.922C287.88 293.125 287.251 294.382 286.54 295.694C285.884 296.951 285.283 298.209 284.736 299.466C284.08 300.997 283.096 302.746 281.784 304.714C280.472 306.627 279.324 308.295 278.34 309.716C278.122 310.099 277.876 310.454 277.602 310.782C277.384 311.055 277.138 311.383 276.864 311.766C275.826 313.297 274.623 314.773 273.256 316.194C271.944 317.561 270.55 318.845 269.074 320.048C268.637 320.376 268.2 320.704 267.762 321.032C267.325 321.36 266.888 321.688 266.45 322.016C266.068 322.399 265.685 322.754 265.302 323.082C264.92 323.465 264.428 323.656 263.826 323.656C263.498 323.929 262.87 324.203 261.94 324.476C261.011 324.749 260.027 324.968 258.988 325.132C258.004 325.296 257.266 325.433 256.774 325.542ZM266.696 314.472C266.368 314.089 265.958 313.379 265.466 312.34C264.974 311.247 264.482 310.099 263.99 308.896C263.772 308.295 263.553 307.721 263.334 307.174C263.116 306.573 262.924 306.026 262.76 305.534C262.596 305.042 262.46 304.605 262.35 304.222C262.241 303.839 262.186 303.539 262.186 303.32C262.132 302.883 262.05 302.418 261.94 301.926C261.886 301.434 261.804 300.969 261.694 300.532C261.366 299.275 260.956 298.017 260.464 296.76C259.972 295.503 259.535 294.245 259.152 292.988C258.934 292.059 258.66 290.911 258.332 289.544C258.059 288.177 257.786 286.729 257.512 285.198C257.239 283.667 257.02 282.219 256.856 280.852C256.692 279.431 256.638 278.283 256.692 277.408C256.802 276.151 256.72 275.003 256.446 273.964C256.228 272.925 256.064 271.832 255.954 270.684C255.9 269.536 256.118 268.197 256.61 266.666L260.382 266.256C260.984 266.639 261.558 267.076 262.104 267.568C262.651 268.06 263.225 268.47 263.826 268.798C263.826 269.399 263.826 270.001 263.826 270.602C263.881 271.203 263.936 271.805 263.99 272.406L264.072 278.146C264.346 278.255 264.51 278.556 264.564 279.048C264.619 279.54 264.619 279.923 264.564 280.196C264.51 280.524 264.537 281.235 264.646 282.328C264.81 283.367 265.002 284.515 265.22 285.772C265.439 286.975 265.658 288.095 265.876 289.134C266.15 290.118 266.368 290.747 266.532 291.02C266.642 291.731 266.86 292.66 267.188 293.808C267.571 294.901 268.008 296.104 268.5 297.416C268.992 298.673 269.484 299.958 269.976 301.27C270.523 302.582 271.042 303.812 271.534 304.96C272.026 306.053 272.409 306.955 272.682 307.666L266.696 314.472ZM304.691 327.346C303.707 327.401 302.887 326.936 302.231 325.952C301.575 324.968 301.275 324.148 301.329 323.492C301.384 322.617 301.63 321.36 302.067 319.72C302.505 318.08 302.997 316.413 303.543 314.718C304.09 313.023 304.582 311.684 305.019 310.7C305.238 309.825 305.429 309.06 305.593 308.404C305.812 307.693 305.949 307.229 306.003 307.01C306.167 306.791 306.413 306.217 306.741 305.288C307.124 304.359 307.425 303.457 307.643 302.582C307.753 302.145 307.971 301.325 308.299 300.122C308.682 298.865 309.119 297.416 309.611 295.776C310.158 294.136 310.677 292.523 311.169 290.938C311.716 289.353 312.181 287.959 312.563 286.756C312.946 285.553 313.192 284.761 313.301 284.378C313.739 283.722 314.067 283.093 314.285 282.492C314.504 281.891 314.641 281.481 314.695 281.262C315.023 281.043 315.215 280.77 315.269 280.442C315.324 280.059 315.351 279.759 315.351 279.54C315.351 279.267 315.433 279.048 315.597 278.884C315.816 278.72 315.925 278.529 315.925 278.31C316.144 278.146 316.281 278.119 316.335 278.228C316.39 278.337 316.554 278.255 316.827 277.982L317.237 275.194L324.535 275.112C324.426 275.768 324.262 276.588 324.043 277.572C323.825 278.501 323.305 279.759 322.485 281.344C322.212 282.437 321.884 283.421 321.501 284.296C321.173 285.171 321.037 285.745 321.091 286.018C320.982 286.127 320.736 286.674 320.353 287.658C320.025 288.642 319.615 289.845 319.123 291.266C318.686 292.687 318.221 294.109 317.729 295.53C317.292 296.951 316.882 298.209 316.499 299.302C316.171 300.341 315.953 300.997 315.843 301.27C315.406 302.145 314.914 303.429 314.367 305.124C313.821 306.819 313.001 309.115 311.907 312.012C311.47 312.887 310.923 314.199 310.267 315.948C309.666 317.697 309.174 319.283 308.791 320.704C308.19 322.836 307.643 324.367 307.151 325.296C306.714 326.225 306.304 326.772 305.921 326.936C305.539 327.155 305.129 327.291 304.691 327.346ZM305.429 279.13C303.188 279.349 301.657 279.075 300.837 278.31C300.072 277.545 299.799 276.725 300.017 275.85C300.181 275.194 300.564 274.647 301.165 274.21C301.821 273.718 302.997 273.308 304.691 272.98C305.293 272.871 306.058 272.734 306.987 272.57C307.971 272.406 308.901 272.242 309.775 272.078C311.579 271.859 313.055 271.668 314.203 271.504C315.406 271.34 316.636 271.203 317.893 271.094C319.151 270.985 320.736 270.875 322.649 270.766C324.235 270.657 325.574 270.575 326.667 270.52C327.815 270.411 328.389 270.356 328.389 270.356C328.553 270.356 329.127 270.411 330.111 270.52C331.095 270.629 332.161 270.766 333.309 270.93C334.457 271.094 335.305 271.285 335.851 271.504C337.109 271.777 338.12 272.269 338.885 272.98C339.651 273.691 340.143 274.511 340.361 275.44C340.525 276.096 340.525 276.615 340.361 276.998C340.197 277.326 339.897 277.599 339.459 277.818C338.202 278.201 337.163 278.529 336.343 278.802C335.578 279.021 334.813 278.993 334.047 278.72C333.774 278.447 333.446 278.201 333.063 277.982C332.735 277.763 332.134 277.599 331.259 277.49C330.439 277.326 329.127 277.189 327.323 277.08C325.793 277.244 324.453 277.326 323.305 277.326C322.157 277.326 321.583 277.463 321.583 277.736L316.745 277.982L312.727 278.392C312.181 278.447 311.415 278.529 310.431 278.638C309.447 278.693 308.491 278.775 307.561 278.884C306.632 278.939 305.921 279.021 305.429 279.13ZM344.954 329.314C343.587 329.369 342.248 329.287 340.936 329.068C339.624 328.849 338.449 328.467 337.41 327.92C337.191 327.811 336.754 327.483 336.098 326.936C335.442 326.444 334.813 325.897 334.212 325.296C333.665 324.749 333.337 324.367 333.228 324.148C332.955 323.492 332.955 322.289 333.228 320.54C333.556 318.791 334.021 316.768 334.622 314.472C335.278 312.176 335.961 309.853 336.672 307.502C337.437 305.151 338.121 303.019 338.722 301.106C339.378 299.193 339.815 297.744 340.034 296.76C340.307 296.487 340.608 295.94 340.936 295.12C341.319 294.3 341.701 293.343 342.084 292.25C342.521 291.102 342.959 289.872 343.396 288.56C343.888 287.248 344.353 285.936 344.79 284.624C345.337 283.039 345.856 281.59 346.348 280.278C346.84 278.911 347.277 277.873 347.66 277.162C348.589 275.413 349.409 273.636 350.12 271.832C350.885 270.028 351.678 268.251 352.498 266.502C352.99 265.463 353.755 264.862 354.794 264.698C355.887 264.534 356.953 264.671 357.992 265.108C359.031 265.491 359.741 266.119 360.124 266.994C360.507 267.759 360.589 268.607 360.37 269.536C360.206 270.411 359.933 271.203 359.55 271.914C358.129 274.593 356.735 277.271 355.368 279.95C354.001 282.629 352.853 285.417 351.924 288.314C352.197 288.533 352.498 288.697 352.826 288.806C353.209 288.915 353.564 289.025 353.892 289.134C356.789 290.282 359.304 291.977 361.436 294.218C363.568 296.405 365.071 298.865 365.946 301.598C366.821 304.386 366.93 307.092 366.274 309.716C365.673 312.34 364.579 314.8 362.994 317.096C361.409 319.337 359.523 321.36 357.336 323.164C355.149 325.023 352.935 326.581 350.694 327.838C349.929 328.275 349.054 328.603 348.07 328.822C347.086 329.095 346.047 329.259 344.954 329.314ZM347.086 320.54C348.179 319.993 349.245 319.31 350.284 318.49C351.377 317.67 352.389 316.768 353.318 315.784C354.302 314.8 355.177 313.789 355.942 312.75C356.707 311.821 357.309 310.891 357.746 309.962C358.238 309.033 358.539 308.213 358.648 307.502C358.757 307.065 358.785 306.655 358.73 306.272C358.73 305.835 358.785 305.425 358.894 305.042C358.675 304.331 358.566 303.593 358.566 302.828C358.566 302.063 358.402 301.379 358.074 300.778C357.855 300.341 357.445 299.849 356.844 299.302C356.297 298.755 355.641 298.236 354.876 297.744C354.22 297.252 353.537 296.815 352.826 296.432C352.17 296.049 351.514 295.721 350.858 295.448C350.257 295.12 349.71 294.929 349.218 294.874C348.343 297.225 347.332 299.985 346.184 303.156C345.091 306.327 344.134 309.443 343.314 312.504C342.931 313.816 342.603 315.101 342.33 316.358C342.111 317.615 341.92 318.818 341.756 319.966C341.701 320.185 341.647 320.403 341.592 320.622C341.592 320.841 341.592 321.059 341.592 321.278C342.357 321.551 343.205 321.633 344.134 321.524C345.063 321.36 346.047 321.032 347.086 320.54ZM406.557 328.658C404.206 328.549 402.238 328.221 400.653 327.674C399.068 327.127 397.264 326.171 395.241 324.804C395.022 324.421 394.749 323.793 394.421 322.918C394.093 321.989 393.765 321.005 393.437 319.966C393.109 318.927 392.836 318.025 392.617 317.26C392.453 316.44 392.398 315.948 392.453 315.784C392.672 315.511 392.781 315.183 392.781 314.8C392.781 314.363 392.754 314.035 392.699 313.816C392.48 312.996 392.644 311.547 393.191 309.47C393.738 307.393 394.585 304.796 395.733 301.68C396.936 298.564 398.357 295.12 399.997 291.348C401.036 289.107 402.43 286.674 404.179 284.05C405.928 281.426 407.814 278.911 409.837 276.506C411.914 274.046 413.937 271.941 415.905 270.192C417.873 268.388 419.54 267.185 420.907 266.584C421.836 266.201 422.684 266.01 423.449 266.01C424.214 265.955 425.007 265.983 425.827 266.092C427.303 266.311 428.697 266.83 430.009 267.65C431.321 268.415 432.414 269.481 433.289 270.848C434.218 272.269 434.82 273.855 435.093 275.604C435.366 277.353 435.448 279.048 435.339 280.688C435.23 282.328 435.011 283.695 434.683 284.788C434.355 285.663 434.027 286.319 433.699 286.756C433.371 287.139 432.879 287.385 432.223 287.494C432.004 287.549 431.376 287.439 430.337 287.166C429.353 286.838 428.56 286.51 427.959 286.182C427.303 285.745 426.866 285.307 426.647 284.87C426.483 284.378 426.401 284.132 426.401 284.132C426.401 284.132 426.428 283.804 426.483 283.148C426.592 282.437 426.756 281.754 426.975 281.098C427.74 278.583 428.014 276.779 427.795 275.686C427.576 274.593 426.838 273.827 425.581 273.39C424.378 273.335 422.902 274.073 421.153 275.604C419.404 277.135 417.682 278.884 415.987 280.852C413.527 283.859 411.422 286.811 409.673 289.708C407.924 292.605 406.366 295.749 404.999 299.138C403.796 302.637 402.84 305.589 402.129 307.994C401.473 310.345 401.036 312.231 400.817 313.652C400.926 314.363 400.981 314.964 400.981 315.456C401.036 315.893 400.954 316.112 400.735 316.112C400.844 316.768 401.063 317.533 401.391 318.408C401.719 319.283 402.402 320.103 403.441 320.868C403.66 321.087 403.988 321.278 404.425 321.442C404.862 321.551 405.354 321.579 405.901 321.524C406.776 321.469 407.678 321.333 408.607 321.114C409.591 320.895 410.466 320.649 411.231 320.376C412.051 320.048 412.625 319.747 412.953 319.474C412.953 319.474 413.199 319.447 413.691 319.392C414.183 319.283 414.784 319.064 415.495 318.736C415.987 318.463 416.616 318.162 417.381 317.834C418.146 317.506 418.994 317.151 419.923 316.768C421.563 316.003 422.93 315.62 424.023 315.62C425.171 315.62 426.1 315.729 426.811 315.948C426.811 315.948 426.729 316.331 426.565 317.096C426.456 317.861 426.292 318.545 426.073 319.146C425.8 319.529 425.444 319.993 425.007 320.54C424.624 321.032 424.105 321.524 423.449 322.016C422.793 322.508 421.973 322.973 420.989 323.41C420.716 323.465 420.278 323.629 419.677 323.902C419.076 324.23 418.42 324.613 417.709 325.05C416.178 325.979 414.511 326.772 412.707 327.428C410.958 328.084 408.908 328.494 406.557 328.658ZM448.011 325.132C447.027 324.968 445.797 324.558 444.321 323.902C442.845 323.246 441.478 322.508 440.221 321.688C439.018 320.813 438.253 320.021 437.925 319.31C437.05 317.889 436.421 316.276 436.039 314.472C435.711 312.668 435.957 310.591 436.777 308.24C436.995 307.311 437.159 306.545 437.269 305.944C437.378 305.288 437.433 304.714 437.433 304.222C437.433 304.222 437.487 304.14 437.597 303.976C437.761 303.757 437.843 303.648 437.843 303.648C438.007 303.429 438.143 303.265 438.253 303.156C438.362 302.992 438.471 302.828 438.581 302.664C438.745 302.445 438.909 302.227 439.073 302.008C439.237 301.735 439.319 301.598 439.319 301.598C439.647 301.215 439.838 300.833 439.893 300.45C439.947 300.067 439.947 299.685 439.893 299.302C439.893 299.138 439.893 298.974 439.893 298.81C439.947 298.646 440.002 298.482 440.057 298.318C440.275 297.99 440.439 297.744 440.549 297.58C440.713 297.416 440.877 297.252 441.041 297.088C441.259 296.924 441.423 296.787 441.533 296.678C441.697 296.569 441.779 296.514 441.779 296.514C441.943 296.623 442.052 296.623 442.107 296.514C442.216 296.405 442.38 296.159 442.599 295.776C442.763 295.503 442.981 295.038 443.255 294.382C443.583 293.671 443.938 292.851 444.321 291.922C444.703 290.938 445.059 289.954 445.387 288.97C447.409 285.307 449.487 282.219 451.619 279.704C453.805 277.135 455.828 275.112 457.687 273.636C459.6 272.105 461.076 271.039 462.115 270.438L462.607 270.11L463.591 269.7C463.864 269.591 464.301 269.536 464.903 269.536C465.559 269.481 466.16 269.427 466.707 269.372C467.472 269.372 468.292 269.509 469.167 269.782C470.096 270.001 470.916 270.247 471.627 270.52C472.337 270.739 472.72 270.93 472.775 271.094C472.775 271.313 472.857 271.449 473.021 271.504C473.185 271.559 473.267 271.586 473.267 271.586C473.595 271.531 474.114 271.914 474.825 272.734C475.535 273.554 476.273 274.538 477.039 275.686C477.859 276.779 478.46 277.818 478.843 278.802C479.444 279.677 479.717 281.016 479.663 282.82C479.608 284.569 479.526 286.264 479.417 287.904C479.307 288.724 479.116 289.763 478.843 291.02C478.624 292.223 478.378 293.398 478.105 294.546C477.831 295.639 477.585 296.459 477.367 297.006C477.312 297.17 477.093 297.717 476.711 298.646C476.383 299.521 476.027 300.423 475.645 301.352C475.317 302.281 475.098 302.883 474.989 303.156C474.387 304.632 473.704 306.19 472.939 307.83C472.173 309.415 471.353 310.919 470.479 312.34C469.604 313.761 468.757 314.937 467.937 315.866C467.117 316.741 466.324 317.205 465.559 317.26C465.559 317.26 465.504 317.287 465.395 317.342C465.34 317.397 465.313 317.533 465.313 317.752C465.313 317.861 464.903 318.299 464.083 319.064C463.263 319.775 462.333 320.54 461.295 321.36C460.311 322.125 459.573 322.699 459.081 323.082C457.933 323.465 456.648 323.847 455.227 324.23C453.805 324.667 452.439 324.968 451.127 325.132C449.815 325.351 448.776 325.351 448.011 325.132ZM448.913 317.834C450.99 317.889 452.685 317.834 453.997 317.67C455.363 317.506 456.593 317.096 457.687 316.44C458.835 315.729 460.092 314.609 461.459 313.078C461.732 312.531 462.115 311.875 462.607 311.11C463.153 310.345 463.427 309.962 463.427 309.962C463.536 309.634 463.727 309.306 464.001 308.978C464.001 308.978 464.11 308.814 464.329 308.486C464.547 308.158 464.766 307.885 464.985 307.666C465.313 307.229 465.586 306.983 465.805 306.928C466.078 306.873 466.215 306.846 466.215 306.846C466.269 306.409 466.406 305.862 466.625 305.206C466.843 304.55 467.062 303.976 467.281 303.484C467.554 302.937 467.745 302.609 467.855 302.5C468.073 302.336 468.374 301.68 468.757 300.532C469.139 299.329 469.522 298.045 469.905 296.678C470.287 295.257 470.479 294.109 470.479 293.234C470.752 292.961 470.943 292.742 471.053 292.578C471.217 292.359 471.299 292.25 471.299 292.25C471.408 292.141 471.517 292.004 471.627 291.84C471.736 291.621 471.763 291.239 471.709 290.692C471.709 289.544 471.763 288.806 471.873 288.478C471.982 288.15 472.037 287.986 472.037 287.986C472.255 287.877 472.392 287.795 472.447 287.74C472.501 287.631 472.474 287.549 472.365 287.494C471.982 287.221 471.955 286.92 472.283 286.592C472.447 286.428 472.447 286.018 472.283 285.362C472.173 284.706 471.982 283.941 471.709 283.066C471.435 282.191 471.135 281.371 470.807 280.606C470.533 279.841 470.315 279.267 470.151 278.884C469.659 278.283 469.167 277.873 468.675 277.654C468.183 277.381 467.39 277.353 466.297 277.572C465.531 277.135 464.356 277.408 462.771 278.392C461.185 279.321 459.627 280.77 458.097 282.738C457.878 283.449 457.632 284.023 457.359 284.46C457.085 284.843 456.839 285.116 456.621 285.28C456.511 285.499 456.32 285.745 456.047 286.018C455.828 286.237 455.555 286.455 455.227 286.674C454.844 287.111 454.489 287.576 454.161 288.068C453.833 288.56 453.559 288.97 453.341 289.298C452.794 290.118 452.165 291.239 451.455 292.66C450.744 294.081 450.033 295.639 449.323 297.334C448.612 299.029 447.929 300.723 447.273 302.418C446.617 304.113 446.043 305.671 445.551 307.092C445.113 308.459 444.785 309.525 444.567 310.29C444.184 311.821 444.047 312.941 444.157 313.652C444.321 314.363 444.731 315.183 445.387 316.112C445.879 316.659 446.48 317.069 447.191 317.342C447.901 317.615 448.475 317.779 448.913 317.834ZM548.275 326.936C548.056 327.155 547.537 327.209 546.717 327.1C545.897 327.045 545.241 326.663 544.749 325.952C544.366 325.187 544.147 324.312 544.093 323.328C544.038 322.344 544.038 320.977 544.093 319.228C544.421 317.315 544.967 314.8 545.733 311.684C546.498 308.568 547.345 305.097 548.275 301.27C549.259 297.389 550.243 293.425 551.227 289.38C551.719 287.467 552.101 285.854 552.375 284.542C552.703 283.23 552.921 282.246 553.031 281.59C553.195 280.879 553.277 280.524 553.277 280.524C553.222 280.633 553.14 280.743 553.031 280.852C552.976 280.961 552.921 281.071 552.867 281.18C552.812 281.289 552.757 281.399 552.703 281.508C552.703 281.508 552.593 281.699 552.375 282.082C552.211 282.465 551.828 283.121 551.227 284.05C550.789 284.706 550.379 285.471 549.997 286.346C549.614 287.221 548.958 288.369 548.029 289.79C547.154 291.43 546.17 293.316 545.077 295.448C543.983 297.58 543.054 299.275 542.289 300.532C541.906 301.133 541.551 301.653 541.223 302.09C540.949 302.527 540.758 302.883 540.649 303.156C540.43 303.757 540.075 304.495 539.583 305.37C539.091 306.245 538.517 307.092 537.861 307.912C537.533 308.404 537.095 308.978 536.549 309.634C536.057 310.29 535.619 310.891 535.237 311.438C534.854 311.93 534.663 312.176 534.663 312.176C534.553 312.504 534.198 313.023 533.597 313.734C532.995 314.445 532.257 315.237 531.383 316.112C530.563 316.932 529.715 317.697 528.841 318.408C526.927 319.939 525.342 320.895 524.085 321.278C522.882 321.661 521.488 321.196 519.903 319.884C519.192 319.009 518.618 318.135 518.181 317.26C517.743 316.331 517.525 315.073 517.525 313.488C517.525 311.903 517.798 309.689 518.345 306.846C518.727 305.042 519.137 303.129 519.575 301.106C520.067 299.083 520.559 297.143 521.051 295.284C521.543 293.371 521.98 291.731 522.363 290.364C522.8 288.943 523.101 287.959 523.265 287.412C523.429 286.045 523.456 285.335 523.347 285.28C523.237 285.171 522.964 285.471 522.527 286.182C522.144 286.783 521.433 288.041 520.395 289.954C519.356 291.867 518.181 294.109 516.869 296.678C515.611 299.247 514.381 301.817 513.179 304.386C510.937 308.541 509.051 312.012 507.521 314.8C505.99 317.588 504.733 319.829 503.749 321.524C502.765 323.164 501.999 324.394 501.453 325.214C500.961 326.089 500.578 326.69 500.305 327.018C500.086 327.401 499.922 327.647 499.813 327.756C498.993 327.701 498.282 327.319 497.681 326.608C497.079 325.897 496.587 325.05 496.205 324.066C496.095 323.519 496.013 322.945 495.959 322.344C495.904 321.743 495.959 321.087 496.123 320.376C496.341 319.611 496.669 318.791 497.107 317.916C497.817 316.495 498.501 315.292 499.157 314.308C499.813 313.324 500.223 312.723 500.387 312.504C500.66 312.121 500.879 311.711 501.043 311.274C501.207 310.837 501.316 310.427 501.371 310.044C501.644 309.716 502.054 309.033 502.601 307.994C503.202 306.955 503.803 305.835 504.405 304.632C504.842 303.921 505.443 302.937 506.209 301.68C506.974 300.368 507.794 298.974 508.669 297.498C509.543 295.967 510.309 294.573 510.965 293.316C513.37 288.997 515.283 285.553 516.705 282.984C518.126 280.36 519.137 278.693 519.739 277.982C520.121 277.709 520.449 277.189 520.723 276.424C521.051 275.604 521.324 275.003 521.543 274.62C522.308 273.089 523.073 271.832 523.839 270.848C524.659 269.809 525.369 269.29 525.971 269.29C526.408 269.29 526.955 269.454 527.611 269.782C528.321 270.11 529.005 270.575 529.661 271.176C530.262 271.887 530.809 272.843 531.301 274.046C531.847 275.194 531.957 276.725 531.629 278.638C531.574 279.513 531.437 280.579 531.219 281.836C531 283.039 530.781 284.241 530.563 285.444C530.344 286.647 530.125 287.658 529.907 288.478C529.469 290.938 528.977 293.289 528.431 295.53C527.939 297.717 527.474 299.739 527.037 301.598C526.599 303.457 526.244 305.097 525.971 306.518C525.697 307.885 525.506 309.005 525.397 309.88C525.342 310.755 525.451 311.329 525.725 311.602C525.889 311.657 526.107 311.602 526.381 311.438C526.709 311.219 526.955 311.001 527.119 310.782C527.447 310.345 527.747 309.907 528.021 309.47C528.294 309.033 528.649 308.486 529.087 307.83C529.961 306.627 530.863 305.315 531.793 303.894C532.777 302.418 533.925 300.614 535.237 298.482C536.603 296.295 538.216 293.617 540.075 290.446C541.933 287.221 544.202 283.23 546.881 278.474C548.138 276.561 549.341 274.647 550.489 272.734C551.637 270.821 552.675 269.345 553.605 268.306C554.425 267.431 555.436 267.131 556.639 267.404C557.896 267.677 559.044 268.361 560.083 269.454C561.121 270.547 561.695 271.887 561.805 273.472C561.859 274.237 561.695 275.604 561.313 277.572C560.985 279.485 560.52 281.645 559.919 284.05C559.317 286.455 558.634 288.806 557.869 291.102C557.705 292.031 557.431 293.261 557.049 294.792C556.666 296.323 556.256 297.881 555.819 299.466C555.381 301.051 554.971 302.473 554.589 303.73C554.206 305.589 553.878 307.065 553.605 308.158C553.386 309.251 553.277 310.509 553.277 311.93C552.785 312.805 552.457 314.062 552.293 315.702C552.129 317.342 552.047 319.037 552.047 320.786C551.828 322.918 551.363 324.421 550.653 325.296C549.997 326.171 549.559 326.581 549.341 326.526C548.903 326.362 548.548 326.499 548.275 326.936ZM567.177 330.544C567.177 330.544 566.822 330.462 566.111 330.298C565.455 330.189 564.908 330.161 564.471 330.216C563.596 330.052 562.722 329.587 561.847 328.822C560.972 328.111 560.617 327.319 560.781 326.444C561 326.225 561.136 325.761 561.191 325.05C561.3 324.339 561.355 323.765 561.355 323.328C561.519 322.891 561.628 322.563 561.683 322.344C561.738 322.125 561.874 321.579 562.093 320.704C562.202 319.775 562.421 318.49 562.749 316.85C563.132 315.155 563.542 313.351 563.979 311.438C564.416 309.47 564.854 307.611 565.291 305.862C565.783 304.058 566.193 302.555 566.521 301.352C566.904 300.149 567.177 299.466 567.341 299.302C567.341 299.302 567.341 299.22 567.341 299.056C567.341 298.837 567.314 298.619 567.259 298.4C567.259 298.4 567.286 298.154 567.341 297.662C567.45 297.115 567.696 296.487 568.079 295.776C568.298 295.175 568.462 294.519 568.571 293.808C568.735 293.097 568.817 292.633 568.817 292.414C569.036 292.141 569.309 291.485 569.637 290.446C570.02 289.353 570.402 288.259 570.785 287.166C571.058 286.291 571.359 285.362 571.687 284.378C572.07 283.394 572.398 282.547 572.671 281.836C572.999 281.071 573.163 280.688 573.163 280.688C573.163 280.469 573.163 280.36 573.163 280.36C573.163 280.305 573.163 280.278 573.163 280.278C573.327 280.059 573.792 278.939 574.557 276.916C575.377 274.893 576.47 272.269 577.837 269.044C578.056 268.607 578.302 268.115 578.575 267.568C578.903 267.021 579.067 266.639 579.067 266.42C579.34 265.983 579.832 265.764 580.543 265.764C581.254 265.764 581.992 265.928 582.757 266.256C583.522 266.529 584.042 266.967 584.315 267.568L586.201 268.88L583.413 274.866C582.648 276.397 581.992 277.818 581.445 279.13C580.898 280.387 580.625 281.125 580.625 281.344C580.625 281.344 580.516 281.672 580.297 282.328C580.078 282.984 579.805 283.831 579.477 284.87C579.204 285.854 578.93 286.838 578.657 287.822C578.11 289.571 577.591 291.02 577.099 292.168C576.662 293.316 576.443 293.999 576.443 294.218C576.443 294.109 577.017 294.027 578.165 293.972C579.313 293.863 580.734 293.781 582.429 293.726C584.178 293.617 585.955 293.535 587.759 293.48C589.618 293.371 591.258 293.261 592.679 293.152C594.155 293.043 595.166 292.933 595.713 292.824L599.895 292.25L601.863 284.952C602.246 283.367 602.738 281.481 603.339 279.294C603.995 277.107 604.569 275.221 605.061 273.636C605.826 271.067 606.701 269.208 607.685 268.06C608.669 266.857 609.489 266.256 610.145 266.256C611.074 266.256 611.812 266.639 612.359 267.404C612.906 268.169 613.288 268.771 613.507 269.208C614.218 269.755 614.546 270.411 614.491 271.176C614.491 271.941 614.081 272.98 613.261 274.292C612.496 275.768 611.84 277.381 611.293 279.13C610.801 280.879 610.336 282.301 609.899 283.394C609.954 284.05 609.899 284.597 609.735 285.034C609.571 285.417 609.38 285.745 609.161 286.018C609.052 286.127 608.833 286.537 608.505 287.248C608.232 287.959 607.958 288.669 607.685 289.38C607.466 290.091 607.357 290.528 607.357 290.692C607.412 291.075 607.357 291.567 607.193 292.168C607.029 292.715 606.838 293.097 606.619 293.316C606.564 293.644 606.373 294.491 606.045 295.858C605.717 297.17 605.307 298.728 604.815 300.532C604.378 302.281 603.913 304.003 603.421 305.698C602.984 307.393 602.546 308.787 602.109 309.88C602.164 310.263 602.054 310.755 601.781 311.356C601.508 311.903 601.398 312.395 601.453 312.832C601.234 313.488 600.961 314.335 600.633 315.374C600.36 316.358 600.25 316.987 600.305 317.26C600.086 318.517 599.786 319.911 599.403 321.442C599.02 322.973 598.692 324.312 598.419 325.46C598.146 326.608 598.009 327.264 598.009 327.428C597.845 327.647 597.353 327.674 596.533 327.51C595.768 327.401 595.084 327.237 594.483 327.018C593.444 326.417 592.652 325.569 592.105 324.476C591.613 323.437 591.64 322.289 592.187 321.032C592.46 320.595 592.761 319.501 593.089 317.752C593.472 316.003 593.854 314.281 594.237 312.586C594.51 311.766 594.784 310.7 595.057 309.388C595.33 308.076 595.576 306.764 595.795 305.452C596.068 304.14 596.287 303.019 596.451 302.09C596.67 301.161 596.834 300.641 596.943 300.532C596.943 300.313 596.943 300.122 596.943 299.958C596.943 299.794 596.943 299.712 596.943 299.712C596.834 299.603 596.232 299.548 595.139 299.548C594.046 299.493 592.679 299.493 591.039 299.548C589.399 299.603 587.65 299.712 585.791 299.876C583.987 300.04 582.292 300.259 580.707 300.532C580.106 300.587 579.313 300.614 578.329 300.614C577.345 300.614 576.634 300.641 576.197 300.696C575.596 300.696 575.076 300.723 574.639 300.778C574.256 300.778 574.065 300.778 574.065 300.778C574.01 300.942 573.846 301.489 573.573 302.418C573.3 303.347 572.999 304.468 572.671 305.78C572.343 307.037 572.015 308.349 571.687 309.716C571.359 311.083 571.058 312.34 570.785 313.488C570.566 314.581 570.43 315.401 570.375 315.948C570.211 316.932 569.965 318.189 569.637 319.72C569.309 321.196 568.954 322.699 568.571 324.23C568.243 325.761 567.942 327.1 567.669 328.248C567.45 329.451 567.286 330.216 567.177 330.544ZM619.808 325.87C617.785 324.394 616.172 323.027 614.97 321.77C613.822 320.458 613.193 319.201 613.084 317.998C612.974 317.014 612.974 315.675 613.084 313.98C613.248 312.285 613.439 310.618 613.658 308.978C613.876 307.338 614.068 306.108 614.232 305.288C614.505 305.015 614.614 304.659 614.56 304.222C614.56 303.73 614.56 303.484 614.56 303.484C614.505 303.211 614.696 302.5 615.134 301.352C615.571 300.149 615.981 298.619 616.364 296.76C617.457 293.48 618.496 290.747 619.48 288.56C620.518 286.319 621.53 284.405 622.514 282.82C623.498 281.235 624.482 279.786 625.466 278.474C627.707 276.178 629.812 274.347 631.78 272.98C633.802 271.613 635.661 270.547 637.356 269.782C638.449 269.126 639.46 268.607 640.39 268.224C641.319 267.841 642.084 267.787 642.686 268.06C645.747 268.716 648.344 270.055 650.476 272.078C652.608 274.101 654.029 277.025 654.74 280.852C655.122 283.257 655.341 285.444 655.396 287.412C655.505 289.325 655.368 291.239 654.986 293.152C654.603 295.011 653.892 297.061 652.854 299.302C651.87 301.543 650.476 304.167 648.672 307.174C646.43 311.602 643.97 315.319 641.292 318.326C638.668 321.278 636.016 323.519 633.338 325.05C630.714 326.581 628.199 327.401 625.794 327.51C623.443 327.674 621.448 327.127 619.808 325.87ZM626.368 320.458C627.625 320.294 628.636 320.048 629.402 319.72C630.222 319.392 631.069 318.763 631.944 317.834C632.818 316.905 634.048 315.538 635.634 313.734C637.055 312.094 638.23 310.7 639.16 309.552C640.144 308.404 640.964 307.229 641.62 306.026C642.33 304.823 642.986 303.402 643.588 301.762C644.244 300.067 644.954 297.908 645.72 295.284C646.157 293.644 646.458 292.441 646.622 291.676C646.84 290.856 646.977 290.173 647.032 289.626C647.086 289.079 647.086 288.341 647.032 287.412C647.032 286.428 647.032 284.952 647.032 282.984C646.977 282.055 646.786 281.016 646.458 279.868C646.13 278.665 645.747 277.818 645.31 277.326C644.763 276.725 643.943 276.205 642.85 275.768C641.756 275.331 640.608 275.385 639.406 275.932C638.75 276.205 637.93 276.779 636.946 277.654C635.962 278.474 634.95 279.458 633.912 280.606C632.873 281.754 631.889 282.902 630.96 284.05C630.03 285.198 629.292 286.237 628.746 287.166C628.199 288.095 627.926 288.751 627.926 289.134C627.926 289.134 627.898 289.271 627.844 289.544C627.844 289.817 627.734 290.091 627.516 290.364C626.805 291.129 626.067 292.387 625.302 294.136C624.536 295.885 623.826 297.881 623.17 300.122C622.514 302.363 621.967 304.605 621.53 306.846C621.092 309.087 620.819 311.11 620.71 312.914C620.71 313.789 620.71 314.527 620.71 315.128C620.71 315.729 620.764 316.276 620.874 316.768C621.038 317.205 621.284 317.697 621.612 318.244C621.94 318.791 622.596 319.337 623.58 319.884C624.618 320.431 625.548 320.622 626.368 320.458ZM685.808 330.626C684.441 330.079 683.43 329.314 682.774 328.33C682.118 327.401 681.927 326.307 682.2 325.05C682.091 325.487 682.173 325.405 682.446 324.804C682.774 324.203 683.184 323.301 683.676 322.098C684.223 320.895 684.797 319.556 685.398 318.08C685.999 316.549 686.573 315.046 687.12 313.57C687.721 312.094 688.213 310.837 688.596 309.798C689.525 307.447 690.373 305.315 691.138 303.402C691.903 301.489 692.532 299.849 693.024 298.482C693.571 297.115 693.981 296.049 694.254 295.284C694.527 294.519 694.664 294.109 694.664 294.054C695.211 292.797 695.73 291.348 696.222 289.708C696.769 288.013 697.343 286.565 697.944 285.362C698.272 284.597 698.573 283.804 698.846 282.984C699.174 282.164 699.475 281.344 699.748 280.524C698.327 282.164 696.796 283.968 695.156 285.936C693.571 287.849 691.903 289.817 690.154 291.84C688.459 293.863 686.737 295.885 684.988 297.908C683.293 299.931 681.653 301.871 680.068 303.73C678.537 305.589 677.116 307.311 675.804 308.896C674.492 310.427 673.371 311.739 672.442 312.832C671.513 313.871 670.829 314.636 670.392 315.128C669.189 316.057 668.069 317.069 667.03 318.162C666.046 319.201 664.953 320.185 663.75 321.114C663.258 321.497 662.602 322.016 661.782 322.672C661.017 323.273 660.251 323.82 659.486 324.312C658.775 324.804 658.174 325.05 657.682 325.05C655.495 324.667 654.101 324.011 653.5 323.082C652.953 322.207 652.844 321.169 653.172 319.966C653.555 318.709 653.992 317.424 654.484 316.112C654.757 315.347 655.003 314.554 655.222 313.734C655.441 312.914 655.605 312.039 655.714 311.11C656.151 309.197 656.589 307.529 657.026 306.108C657.463 304.687 657.873 303.402 658.256 302.254C658.639 300.942 658.994 299.657 659.322 298.4C659.705 297.143 659.923 295.913 659.978 294.71C660.525 293.726 661.071 292.578 661.618 291.266C662.165 289.899 662.657 288.587 663.094 287.33C663.586 286.073 663.969 285.143 664.242 284.542C664.843 283.23 665.335 281.863 665.718 280.442C666.155 279.021 666.675 277.627 667.276 276.26C667.659 275.495 668.178 274.511 668.834 273.308C669.49 272.051 670.091 270.793 670.638 269.536C671.185 268.279 671.458 267.267 671.458 266.502C671.458 265.682 671.759 265.108 672.36 264.78C672.961 264.452 673.672 264.343 674.492 264.452C675.312 264.507 676.05 264.78 676.706 265.272C677.417 265.709 677.854 266.338 678.018 267.158C678.237 267.759 678.346 268.415 678.346 269.126C678.401 269.837 678.291 270.52 678.018 271.176L671.212 288.478L663.75 308.158C663.422 308.978 663.094 309.798 662.766 310.618C662.438 311.438 662.11 312.258 661.782 313.078L678.346 296.514C679.275 295.53 680.177 294.519 681.052 293.48C681.981 292.441 682.829 291.403 683.594 290.364C684.687 288.888 685.781 287.549 686.874 286.346C687.967 285.089 688.979 283.968 689.908 282.984C690.892 282 691.767 281.125 692.532 280.36C693.297 279.595 693.926 278.966 694.418 278.474L704.832 267.404L706.882 266.584C707.921 266.475 708.795 266.721 709.506 267.322C710.217 267.923 710.681 268.689 710.9 269.618C711.173 270.493 711.146 271.34 710.818 272.16C710.599 272.652 710.244 273.472 709.752 274.62C709.26 275.768 708.686 277.162 708.03 278.802C707.374 280.387 706.663 282.137 705.898 284.05C705.133 285.963 704.34 287.959 703.52 290.036C702.755 292.059 701.962 294.109 701.142 296.186C700.377 298.209 699.639 300.149 698.928 302.008C698.545 303.156 698.135 304.304 697.698 305.452C697.315 306.545 696.933 307.666 696.55 308.814C696.167 309.962 695.785 311.11 695.402 312.258C695.019 313.406 694.609 314.554 694.172 315.702C693.789 316.795 693.407 317.916 693.024 319.064C692.805 319.829 692.532 320.567 692.204 321.278C691.876 321.989 691.575 322.672 691.302 323.328C690.974 323.929 690.701 324.503 690.482 325.05C690.263 325.651 690.045 326.499 689.826 327.592C689.498 328.74 688.924 329.615 688.104 330.216C687.339 330.872 686.573 331.009 685.808 330.626ZM690.072 263.714C687.885 263.714 686.136 263.058 684.824 261.746C683.567 260.379 682.528 258.63 681.708 256.498C681.599 256.061 681.544 255.596 681.544 255.104C681.544 254.612 681.79 254.038 682.282 253.382C682.61 253.054 683.047 252.863 683.594 252.808C684.195 252.753 684.605 252.781 684.824 252.89C686.081 253.109 686.956 253.573 687.448 254.284C687.995 254.94 688.268 255.733 688.268 256.662C688.432 256.935 688.569 257.181 688.678 257.4C688.787 257.564 688.897 257.755 689.006 257.974C689.279 258.193 689.553 258.302 689.826 258.302C690.154 258.302 690.837 258.111 691.876 257.728C693.352 257.236 694.555 256.635 695.484 255.924C696.468 255.159 697.397 254.421 698.272 253.71C699.037 253.109 699.611 252.671 699.994 252.398C700.431 252.07 700.759 251.879 700.978 251.824L701.142 251.742C701.743 251.633 702.317 251.633 702.864 251.742C703.465 251.851 703.875 252.097 704.094 252.48C704.367 252.808 704.531 253.273 704.586 253.874C704.695 254.421 704.723 254.913 704.668 255.35L704.586 255.514C704.367 256.006 704.067 256.58 703.684 257.236C703.356 257.892 702.673 258.575 701.634 259.286C700.759 259.887 699.775 260.516 698.682 261.172C697.589 261.773 696.413 262.32 695.156 262.812C694.773 263.031 694.281 263.249 693.68 263.468C693.079 263.632 691.876 263.714 690.072 263.714ZM736.65 301.516C735.502 301.899 734.545 302.09 733.78 302.09C733.015 302.035 732.167 301.68 731.238 301.024C730.145 299.931 729.789 298.837 730.172 297.744C730.555 296.596 731.539 295.475 733.124 294.382C734.217 293.726 735.01 293.398 735.502 293.398C736.049 293.343 736.841 293.535 737.88 293.972C739.684 295.12 740.477 296.405 740.258 297.826C740.094 299.193 738.891 300.423 736.65 301.516ZM730.91 318.736C729.762 319.119 728.805 319.31 728.04 319.31C727.275 319.255 726.427 318.9 725.498 318.244C724.405 317.151 724.049 316.057 724.432 314.964C724.815 313.816 725.799 312.695 727.384 311.602C728.477 310.946 729.27 310.618 729.762 310.618C730.309 310.563 731.101 310.755 732.14 311.192C733.944 312.34 734.737 313.625 734.518 315.046C734.354 316.413 733.151 317.643 730.91 318.736ZM739.704 334.07C738.665 333.797 737.654 333.195 736.67 332.266C735.686 331.391 735.166 330.544 735.112 329.724C735.166 329.56 735.194 329.232 735.194 328.74C735.194 328.248 735.303 327.811 735.522 327.428C735.522 327.428 735.686 327.51 736.014 327.674C736.396 327.838 737.025 327.811 737.9 327.592C738.993 327.647 739.813 327.537 740.36 327.264C740.906 326.991 741.59 326.389 742.41 325.46C743.011 324.64 743.694 323.793 744.46 322.918C745.28 321.989 745.826 321.169 746.1 320.458C746.974 319.857 747.603 319.31 747.986 318.818C748.368 318.271 748.724 317.725 749.052 317.178C749.052 316.905 749.134 316.413 749.298 315.702C749.462 314.937 749.872 314.035 750.528 312.996C751.129 311.629 751.703 310.481 752.25 309.552C752.796 308.568 753.07 307.939 753.07 307.666C753.07 307.666 753.152 307.475 753.316 307.092C753.48 306.709 753.534 306.245 753.48 305.698C753.808 305.534 754.081 305.179 754.3 304.632C754.573 304.031 754.682 303.429 754.628 302.828C754.628 302.664 754.874 302.035 755.366 300.942C755.858 299.794 756.131 298.646 756.186 297.498C756.787 295.53 757.224 293.781 757.498 292.25C757.826 290.665 758.072 288.943 758.236 287.084C758.4 285.225 758.564 282.847 758.728 279.95C758.837 277.49 758.919 275.659 758.974 274.456C759.028 273.199 759.001 272.242 758.892 271.586C758.837 270.93 758.591 270.274 758.154 269.618C757.607 267.869 757.142 266.994 756.76 266.994C756.596 266.994 756.459 266.666 756.35 266.01C756.24 265.354 756.295 264.643 756.514 263.878C756.459 263.659 756.842 263.413 757.662 263.14C758.536 262.867 759.22 262.757 759.712 262.812C760.094 262.812 760.504 262.976 760.942 263.304C761.434 263.577 761.762 263.823 761.926 264.042C762.144 263.823 762.472 264.179 762.91 265.108C763.402 266.037 763.921 267.295 764.468 268.88C764.796 269.645 765.042 270.301 765.206 270.848C765.37 271.34 765.479 271.914 765.534 272.57C765.588 273.171 765.588 274.046 765.534 275.194C765.479 276.287 765.397 277.818 765.288 279.786C765.288 281.699 765.151 283.804 764.878 286.1C764.659 288.341 764.386 290.555 764.058 292.742C763.73 294.874 763.374 296.815 762.992 298.564C762.609 299.985 762.09 301.707 761.434 303.73C760.778 305.698 760.04 307.693 759.22 309.716C758.454 311.739 757.716 313.543 757.006 315.128C756.35 316.713 755.803 317.834 755.366 318.49C755.475 318.49 755.311 318.818 754.874 319.474C754.491 320.13 753.944 320.977 753.234 322.016C752.578 323 751.894 324.011 751.184 325.05C750.473 326.143 749.872 327.073 749.38 327.838C748.56 328.986 747.521 330.079 746.264 331.118C745.006 332.157 743.776 332.949 742.574 333.496C741.426 334.097 740.469 334.289 739.704 334.07Z" fill="black"/>
</svg>
