<svg width="691" height="704" viewBox="0 0 691 704" fill="none" xmlns="http://www.w3.org/2000/svg">
<path d="M307.498 694.916C594.298 694.916 641.331 513.916 628.998 423.416C628.998 237.816 437.998 191.082 342.498 190.916C82.0982 190.916 10.9983 354.916 7.99827 436.916C7.99829 664.116 207.665 703.582 307.498 694.916Z" fill="white" stroke="black" stroke-width="16"/>
<path d="M142.724 408.784C141.764 408.464 140.996 407.856 140.42 406.96C139.908 406.064 139.812 405.392 140.132 404.944C140.516 404.112 140.836 403.248 141.092 402.352C141.348 401.392 141.7 400.496 142.148 399.664C142.596 398.896 142.916 398.096 143.108 397.264C143.364 396.368 143.62 395.504 143.876 394.672C144.388 393.2 144.9 391.76 145.412 390.352C145.924 388.88 146.5 387.44 147.14 386.032C147.652 385.072 148.068 384.048 148.388 382.96C148.772 381.808 149.22 380.592 149.732 379.312C148.644 379.952 147.652 380.592 146.756 381.232C145.924 381.872 145.156 382.576 144.452 383.344C142.98 384.816 141.7 386 140.612 386.896C139.588 387.728 138.5 388.592 137.348 389.488C136.26 390.32 134.884 391.472 133.22 392.944C133.156 393.008 132.676 393.36 131.78 394C130.884 394.64 129.796 395.376 128.516 396.208C127.236 396.976 126.052 397.712 124.964 398.416C123.876 399.12 123.108 399.6 122.66 399.856C121.444 400.56 120.452 401.2 119.684 401.776C118.98 402.352 118.212 402.928 117.38 403.504C116.548 404.08 115.364 404.752 113.828 405.52C112.996 406.032 112.356 406.288 111.908 406.288C111.46 406.288 111.012 406.16 110.564 405.904C110.116 405.648 109.476 405.392 108.644 405.136C108.58 404.688 108.356 404.176 107.972 403.6C107.588 403.024 107.748 402.48 108.452 401.968C108.644 401.712 109.22 401.264 110.18 400.624C111.14 399.984 112.228 399.28 113.444 398.512C114.724 397.68 115.908 396.912 116.996 396.208C118.084 395.504 118.852 394.96 119.3 394.576C119.748 394.256 120.484 393.808 121.508 393.232C122.532 392.592 123.62 391.92 124.772 391.216C125.924 390.512 126.98 389.872 127.94 389.296C128.964 388.656 129.636 388.176 129.956 387.856C130.084 387.728 130.276 387.568 130.532 387.376C130.852 387.12 131.428 386.672 132.26 386.032C133.092 385.392 134.372 384.432 136.1 383.152C137.828 381.872 140.164 380.112 143.108 377.872C143.876 377.36 144.548 376.752 145.124 376.048C145.7 375.28 146.148 374.416 146.468 373.456C146.276 373.072 145.86 372.368 145.22 371.344C144.644 370.32 143.972 369.232 143.204 368.08C142.5 366.928 141.86 365.936 141.284 365.104C140.772 364.208 140.484 363.76 140.42 363.76C140.292 363.632 139.94 363.248 139.364 362.608C138.852 361.904 138.244 361.168 137.54 360.4C136.9 359.568 136.356 358.896 135.908 358.384C135.46 357.808 135.3 357.584 135.428 357.712C135.364 357.648 134.98 357.104 134.276 356.08C133.572 355.056 132.74 353.872 131.78 352.528C130.884 351.184 130.084 350 129.38 348.976C128.676 347.888 128.292 347.28 128.228 347.152C127.716 346.448 127.204 345.712 126.692 344.944C126.18 344.176 125.86 343.344 125.732 342.448C126.052 341.936 126.5 341.648 127.076 341.584C127.652 341.52 128.068 341.552 128.324 341.68C129.028 342 129.764 342.288 130.532 342.544C131.3 342.736 131.908 343.184 132.356 343.888C132.996 344.592 133.508 345.104 133.892 345.424C134.276 345.744 134.788 346.448 135.428 347.536L147.908 365.2C148.164 365.456 148.58 366.064 149.156 367.024C149.796 367.92 150.34 368.752 150.788 369.52C151.3 370.288 151.492 370.608 151.364 370.48C151.62 371.184 151.94 371.312 152.324 370.864C152.772 370.416 153.156 369.968 153.476 369.52C153.412 368.56 153.54 367.632 153.86 366.736C154.18 365.776 154.468 364.784 154.724 363.76C155.236 362.16 155.748 360.56 156.26 358.96C156.836 357.296 157.284 355.664 157.604 354.064C157.732 353.552 157.86 353.072 157.988 352.624C158.18 352.176 158.436 351.728 158.756 351.28C159.076 350.768 159.268 350.224 159.332 349.648C159.396 349.072 159.492 348.496 159.62 347.92C159.812 346.96 160.004 346 160.196 345.04C160.452 344.016 160.836 343.056 161.348 342.16C162.628 341.84 163.588 342.128 164.228 343.024C164.932 343.92 165.604 344.72 166.244 345.424C166.308 345.936 166.308 346.448 166.244 346.96C166.244 347.472 166.084 347.984 165.764 348.496L164.42 353.008C164.42 353.136 164.26 353.712 163.94 354.736C163.684 355.696 163.364 356.784 162.98 358C162.66 359.216 162.34 360.208 162.02 360.976C161.7 361.936 161.412 362.928 161.156 363.952C160.964 364.912 160.676 365.84 160.292 366.736C160.036 368.08 159.684 369.424 159.236 370.768C158.852 372.048 158.5 373.328 158.18 374.608C158.18 374.992 158.34 375.024 158.66 374.704C159.044 374.32 159.46 373.84 159.908 373.264L163.748 369.616C163.812 369.552 164.26 369.104 165.092 368.272C165.988 367.376 167.108 366.288 168.452 365.008C169.796 363.664 171.204 362.288 172.676 360.88C174.212 359.408 175.62 358.096 176.9 356.944C178.244 355.792 179.3 354.928 180.068 354.352C181.924 352.496 183.78 350.864 185.636 349.456C187.492 348.048 189.124 347.12 190.532 346.672C191.172 347.248 191.844 347.792 192.548 348.304C193.316 348.752 193.828 349.488 194.084 350.512C193.764 351.152 193.316 351.856 192.74 352.624C192.164 353.328 191.588 353.872 191.012 354.256C189.412 355.088 187.812 356.144 186.212 357.424C184.676 358.64 183.428 359.6 182.468 360.304C181.764 360.752 180.836 361.456 179.684 362.416C178.596 363.376 177.444 364.4 176.228 365.488C175.076 366.576 174.02 367.6 173.06 368.56C172.1 369.456 171.46 370.064 171.14 370.384C170.628 370.96 169.7 371.76 168.356 372.784C167.012 373.808 165.636 375.28 164.228 377.2C164.74 378.096 165.188 379.024 165.572 379.984C166.02 380.944 166.596 381.776 167.3 382.48C167.236 382.416 167.492 382.832 168.068 383.728C168.644 384.624 169.348 385.712 170.18 386.992C171.076 388.272 171.908 389.488 172.676 390.64C173.444 391.792 173.956 392.56 174.212 392.944C174.66 394.032 175.3 395.024 176.132 395.92C176.964 396.752 177.636 397.712 178.148 398.8C178.66 399.248 179.108 399.728 179.492 400.24C179.94 400.688 180.484 401.072 181.124 401.392C181.636 401.584 182.052 402 182.372 402.64C182.692 403.28 183.012 403.984 183.332 404.752C182.948 405.84 182.532 406.48 182.084 406.672C181.7 406.928 180.708 407.12 179.108 407.248C178.02 406.992 176.868 406.32 175.652 405.232C174.5 404.08 173.572 402.96 172.868 401.872C170.884 399.056 169.124 396.336 167.588 393.712C166.052 391.088 164.612 388.784 163.268 386.8C163.14 386.032 162.852 385.36 162.404 384.784C161.956 384.144 161.572 383.504 161.252 382.864C161.188 382.608 161.092 382.416 160.964 382.288C160.836 382.096 160.676 381.936 160.484 381.808C160.356 381.68 160.164 381.616 159.908 381.616C159.204 381.488 158.66 381.136 158.276 380.56C157.892 379.92 157.412 379.248 156.836 378.544C156.388 380.336 155.812 382.032 155.108 383.632C154.404 385.168 153.732 386.768 153.092 388.432C152.964 388.816 152.74 389.168 152.42 389.488C152.1 389.808 151.94 390.224 151.94 390.736C151.94 390.928 151.748 391.6 151.364 392.752C150.98 393.84 150.5 395.184 149.924 396.784C149.348 398.32 148.772 399.92 148.196 401.584C147.684 403.184 147.268 404.56 146.948 405.712C146.692 406.416 146.5 406.96 146.372 407.344C146.244 407.792 145.988 408.112 145.604 408.304C145.156 408.56 144.676 408.752 144.164 408.88C143.716 409.008 143.236 408.976 142.724 408.784ZM230.964 405.712C230.324 405.392 229.844 405.072 229.524 404.752C229.204 404.368 228.66 403.952 227.892 403.504C227.636 402.608 227.348 401.712 227.028 400.816C226.772 399.856 226.676 398.928 226.74 398.032C226.804 397.52 226.708 396.976 226.452 396.4C226.26 395.76 226.292 395.216 226.548 394.768C226.42 393.744 226.452 392.432 226.644 390.832C226.836 389.168 227.092 387.6 227.412 386.128C227.732 384.592 227.956 383.504 228.084 382.864C227.892 382.608 227.7 382.448 227.508 382.384C227.38 382.32 227.188 382.416 226.932 382.672C226.292 383.312 225.684 383.952 225.108 384.592C224.532 385.232 223.924 385.904 223.284 386.608C223.028 386.864 222.74 387.12 222.42 387.376C222.1 387.568 221.94 387.888 221.94 388.336L218.484 392.944C218.228 393.456 217.748 394.128 217.044 394.96C216.404 395.728 215.892 396.656 215.508 397.744C215.38 398.192 215.156 398.576 214.836 398.896C214.516 399.152 214.196 399.408 213.876 399.664C213.044 399.344 212.5 399.12 212.244 398.992C211.988 398.864 211.508 398.48 210.804 397.84C210.164 397.2 209.716 396.624 209.46 396.112C209.204 395.536 209.14 394.96 209.268 394.384C209.268 393.424 209.268 392.08 209.268 390.352C209.332 388.56 209.332 386.864 209.268 385.264C209.268 383.6 209.14 382.448 208.884 381.808C208.18 381.872 207.7 381.968 207.444 382.096C207.188 382.224 206.868 382.608 206.484 383.248C206.548 383.184 206.26 383.632 205.62 384.592C205.044 385.488 204.244 386.672 203.22 388.144C202.26 389.552 201.3 390.992 200.34 392.464C199.38 393.872 198.58 395.088 197.94 396.112C197.364 397.072 197.108 397.52 197.172 397.456C196.724 397.968 196.34 398.512 196.02 399.088C195.764 399.664 195.508 400.272 195.252 400.912C194.932 401.68 194.58 402.192 194.196 402.448C193.812 402.64 193.46 402.576 193.14 402.256C192.628 401.936 192.084 401.616 191.508 401.296C190.996 400.976 190.548 400.688 190.164 400.432C189.908 399.984 189.684 399.536 189.492 399.088C189.364 398.576 189.268 398 189.204 397.36C189.716 397.04 190.068 396.848 190.26 396.784C190.452 396.656 190.612 396.432 190.74 396.112C192.148 394 193.364 392.208 194.388 390.736C195.412 389.2 196.276 387.952 196.98 386.992C197.684 386.032 198.228 385.296 198.612 384.784C198.996 384.208 199.22 383.824 199.284 383.632C199.604 382.992 199.988 382.384 200.436 381.808C200.948 381.232 201.428 380.624 201.876 379.984C201.94 379.792 202.26 379.344 202.836 378.64C203.412 377.872 204.02 377.104 204.66 376.336C205.3 375.568 205.748 375.12 206.004 374.992C206.324 374.8 206.548 374.544 206.676 374.224C206.868 373.84 207.06 373.456 207.252 373.072C207.38 372.496 207.668 372.08 208.116 371.824C208.564 371.568 209.236 371.504 210.132 371.632C210.644 372.08 211.22 372.56 211.86 373.072C212.5 373.52 213.172 374 213.876 374.512C213.812 375.152 213.78 375.824 213.78 376.528C213.844 377.232 214.1 378.32 214.548 379.792C214.356 380.56 214.388 381.36 214.644 382.192C214.9 383.024 214.9 383.792 214.644 384.496C214.644 385.328 214.836 385.936 215.22 386.32C215.668 386.64 216.34 386.32 217.236 385.36C218.26 384.08 219.476 382.704 220.884 381.232C222.292 379.696 223.668 378.256 225.012 376.912C226.42 375.504 227.604 374.32 228.564 373.36C229.588 372.336 230.196 371.696 230.388 371.44C230.516 371.12 230.74 370.96 231.06 370.96C231.444 370.896 231.796 370.96 232.116 371.152C233.204 371.728 233.94 372.144 234.324 372.4C234.708 372.656 235.252 373.136 235.956 373.84C236.596 374.736 236.692 375.536 236.244 376.24C235.988 376.88 235.636 377.936 235.188 379.408C234.804 380.816 234.388 382.384 233.94 384.112C233.556 385.84 233.204 387.472 232.884 389.008C232.628 390.48 232.468 391.632 232.404 392.464C232.34 393.744 232.276 395.088 232.212 396.496C232.148 397.84 232.244 399.248 232.5 400.72C233.012 402.704 233.14 403.984 232.884 404.56C232.692 405.072 232.052 405.456 230.964 405.712ZM262.95 405.808C262.31 405.168 261.67 404.304 261.03 403.216C260.39 402.064 259.878 400.752 259.494 399.28C259.366 398.768 259.302 398.064 259.302 397.168C259.366 396.272 259.366 395.632 259.302 395.248C259.11 395.696 258.79 396.176 258.342 396.688C257.958 397.136 257.574 397.52 257.19 397.84C256.934 398.096 256.358 398.608 255.462 399.376C254.566 400.08 253.67 400.656 252.774 401.104C250.662 402.448 248.902 403.184 247.494 403.312C246.15 403.44 244.87 402.736 243.654 401.2C242.63 400.368 241.894 399.44 241.446 398.416C241.062 397.392 241.062 395.984 241.446 394.192C241.574 391.952 241.894 389.776 242.406 387.664C242.918 385.488 243.974 382.608 245.574 379.024C246.918 376.4 247.942 374.48 248.646 373.264C249.35 371.984 249.798 371.216 249.99 370.96C250.95 370.64 251.75 370.672 252.39 371.056C253.03 371.376 253.414 371.984 253.542 372.88C253.926 373.52 253.862 374.608 253.35 376.144C252.902 377.68 252.102 379.568 250.95 381.808C250.054 383.984 249.222 386.16 248.454 388.336C247.75 390.512 247.334 392.368 247.206 393.904C247.078 395.44 247.462 396.368 248.358 396.688C248.934 397.008 249.926 396.912 251.334 396.4C252.806 395.888 254.438 394.608 256.23 392.56C258.086 390.512 259.878 387.408 261.606 383.248C262.118 381.968 262.502 380.848 262.758 379.888C263.014 378.864 263.174 377.744 263.238 376.528C263.11 375.76 263.142 375.088 263.334 374.512C263.59 373.872 264.102 373.328 264.87 372.88C265.126 372.56 265.478 372.272 265.926 372.016C266.374 371.696 266.662 371.696 266.79 372.016L268.326 371.92C268.582 371.856 268.742 372.016 268.806 372.4C268.934 372.72 269.158 373.008 269.478 373.264C270.182 373.84 270.374 375.088 270.054 377.008C269.734 378.928 268.838 381.616 267.366 385.072C266.15 387.696 265.318 389.68 264.87 391.024C264.486 392.368 264.262 393.68 264.198 394.96C264.198 396.112 264.422 397.2 264.87 398.224C265.318 399.248 266.022 400.176 266.982 401.008C267.686 401.456 268.07 401.968 268.134 402.544C268.262 403.12 268.294 403.792 268.23 404.56C268.102 405.136 267.718 405.616 267.078 406C266.502 406.32 265.83 406.48 265.062 406.48C264.294 406.48 263.59 406.256 262.95 405.808ZM299.94 405.52C299.428 405.328 298.884 404.944 298.308 404.368C297.732 403.728 297.252 402.992 296.868 402.16C296.484 401.328 296.292 400.56 296.292 399.856C296.612 399.152 297.028 397.936 297.54 396.208C298.052 394.416 298.692 392.368 299.46 390.064C299.972 389.36 300.356 388.528 300.612 387.568C300.932 386.608 301.22 385.744 301.476 384.976C301.988 383.952 302.596 382.64 303.3 381.04C304.004 379.376 304.676 377.712 305.316 376.048C306.02 374.32 306.628 372.88 307.14 371.728C307.844 370.064 308.26 369.04 308.388 368.656C308.516 368.208 308.612 367.856 308.676 367.6C308.676 367.088 308.804 366.672 309.06 366.352C309.316 365.968 309.572 365.776 309.828 365.776C310.084 365.52 310.372 365.392 310.692 365.392C311.076 365.328 311.396 365.296 311.652 365.296C312.356 365.296 312.964 365.776 313.476 366.736C313.988 367.632 314.244 368.464 314.244 369.232C314.244 370 313.956 371.088 313.38 372.496C312.868 373.84 312.26 375.248 311.556 376.72C310.916 378.192 310.372 379.472 309.924 380.56C309.476 381.648 309.348 382.288 309.54 382.48C309.54 382.48 309.988 382.288 310.884 381.904C311.78 381.456 312.74 380.848 313.764 380.08C314.468 379.696 315.236 379.216 316.068 378.64C316.9 378.064 317.7 377.52 318.468 377.008C319.236 376.432 319.876 376.08 320.388 375.952C321.156 375.44 321.956 374.96 322.788 374.512C323.62 374 324.164 373.616 324.42 373.36C325.508 372.848 326.308 372.688 326.82 372.88C327.396 373.072 327.972 373.552 328.548 374.32C329.252 375.152 329.38 375.888 328.932 376.528C328.484 377.104 327.428 377.904 325.764 378.928C324.42 379.76 322.788 380.752 320.868 381.904C319.012 383.056 317.348 384.08 315.876 384.976C314.468 385.872 313.668 386.416 313.476 386.608C313.476 386.608 313.732 387.088 314.244 388.048C314.756 389.008 315.268 389.872 315.78 390.64C316.292 391.664 316.836 392.624 317.412 393.52C318.052 394.352 318.372 394.928 318.372 395.248C318.884 396.592 319.524 397.712 320.292 398.608C321.06 399.44 321.924 399.984 322.884 400.24C323.908 400.432 324.932 400.304 325.956 399.856C327.236 399.344 328.164 399.184 328.74 399.376C329.38 399.568 329.828 400.048 330.084 400.816C330.34 401.328 330.404 401.712 330.276 401.968C330.212 402.16 329.796 402.64 329.028 403.408C327.812 404.624 326.564 405.392 325.284 405.712C324.068 406.032 322.948 405.936 321.924 405.424C321.284 405.424 320.548 405.168 319.716 404.656C318.884 404.08 317.86 403.152 316.644 401.872C315.492 400.592 314.052 398.8 312.324 396.496C312.324 396.24 312.196 395.888 311.94 395.44C311.748 394.928 311.524 394.448 311.268 394C311.012 393.488 310.692 392.944 310.308 392.368C309.924 391.728 309.732 391.408 309.732 391.408C309.732 391.216 309.668 391.056 309.54 390.928C309.476 390.736 309.348 390.512 309.156 390.256C309.028 390 308.868 389.712 308.676 389.392C307.652 389.072 306.916 389.264 306.468 389.968C306.02 390.672 305.54 391.408 305.028 392.176C304.708 393.008 304.292 394.192 303.78 395.728C303.332 397.2 302.948 398.64 302.628 400.048C302.372 401.456 302.308 402.416 302.436 402.928C302.436 403.952 302.276 404.656 301.956 405.04C301.636 405.36 300.964 405.52 299.94 405.52ZM338.842 403.792C338.394 403.664 337.786 403.536 337.018 403.408C336.25 403.28 335.546 403.056 334.906 402.736C334.33 402.352 334.042 401.872 334.042 401.296C334.042 400.784 334.074 400.336 334.138 399.952C334.266 399.504 334.522 399.12 334.906 398.8C334.97 398.672 335.002 398.576 335.002 398.512C335.002 398.448 335.034 398.384 335.098 398.32C335.098 398 335.034 397.712 334.906 397.456C334.778 397.2 334.778 396.88 334.906 396.496C335.162 395.792 335.354 395.216 335.482 394.768C335.674 394.256 335.77 393.616 335.77 392.848C335.77 392.72 335.77 392.592 335.77 392.464C335.77 392.272 335.802 392.112 335.866 391.984C336.378 390.576 336.794 389.136 337.114 387.664C337.434 386.192 337.914 384.784 338.554 383.44C339.322 381.776 340.314 379.6 341.53 376.912C342.746 374.16 343.77 371.632 344.602 369.328C344.858 368.624 345.146 368.176 345.466 367.984C345.85 367.728 346.266 367.632 346.714 367.696C347.482 367.76 348.25 368.208 349.018 369.04C349.786 369.808 350.362 370.48 350.746 371.056C350.106 372.272 349.338 373.712 348.442 375.376C347.61 376.976 346.81 378.544 346.042 380.08C345.338 381.552 344.826 382.768 344.506 383.728C345.402 383.792 346.458 383.792 347.674 383.728C348.954 383.6 350.202 383.6 351.418 383.728C352.826 383.856 354.074 383.856 355.162 383.728C356.25 383.6 357.466 383.44 358.81 383.248C359.13 382.288 359.45 381.2 359.77 379.984C360.154 378.768 360.538 377.52 360.922 376.24C361.37 374.96 361.914 373.776 362.554 372.688C363.194 371.6 363.994 370.768 364.954 370.192C365.466 370.064 365.85 370.064 366.106 370.192C366.362 370.256 366.714 370.448 367.162 370.768C367.994 371.408 368.602 371.92 368.986 372.304C369.434 372.624 369.594 373.008 369.466 373.456C369.338 373.904 368.922 374.64 368.218 375.664C367.77 376.368 367.45 377.2 367.258 378.16C367.066 379.056 366.714 379.824 366.202 380.464C366.074 380.592 365.818 381.168 365.434 382.192C365.05 383.216 364.602 384.464 364.09 385.936C363.578 387.408 363.066 388.88 362.554 390.352C362.042 391.824 361.594 393.104 361.21 394.192C360.89 395.28 360.73 395.92 360.73 396.112C360.666 396.944 360.538 397.808 360.346 398.704C360.154 399.536 360.058 400.4 360.058 401.296C360.058 401.808 359.898 402.192 359.578 402.448C359.322 402.64 358.97 402.736 358.522 402.736C357.882 402.736 357.178 402.576 356.41 402.256C355.642 401.936 355.066 401.648 354.682 401.392C354.426 401.2 354.202 400.88 354.01 400.432C353.882 399.984 353.786 399.6 353.722 399.28C354.106 397.68 354.554 396.176 355.066 394.768C355.642 393.296 356.154 391.792 356.602 390.256C356.73 390 356.794 389.744 356.794 389.488C356.794 389.232 356.73 388.976 356.602 388.72C354.49 388.4 352.346 388.336 350.17 388.528C347.994 388.72 345.85 388.88 343.738 389.008C343.418 389.328 343.034 390.096 342.586 391.312C342.202 392.464 341.85 393.68 341.53 394.96C341.21 396.176 340.954 397.104 340.762 397.744C340.826 398.192 340.762 398.832 340.57 399.664C340.378 400.496 340.122 401.328 339.802 402.16C339.482 402.928 339.162 403.472 338.842 403.792ZM383.68 402.352C382.336 402.608 381.472 402.704 381.088 402.64C380.768 402.512 380.256 402.128 379.552 401.488C378.528 400.976 377.664 400.336 376.96 399.568C376.32 398.8 375.84 398 375.52 397.168C375.264 396.272 375.168 395.536 375.232 394.96C375.424 392.72 375.968 390.32 376.864 387.76C377.76 385.2 378.848 382.736 380.128 380.368C381.408 378 382.784 375.984 384.256 374.32C385.792 372.592 387.264 371.472 388.672 370.96C389.952 370.448 391.168 370.256 392.32 370.384C393.472 370.512 394.304 371.12 394.816 372.208C395.776 374.064 395.552 375.248 394.144 375.76C393.952 375.76 393.728 375.856 393.472 376.048C393.216 376.176 393.088 376.368 393.088 376.624C393.344 376.752 394.048 376.784 395.2 376.72C396.352 376.592 397.504 376.4 398.656 376.144C399.872 375.824 400.672 375.504 401.056 375.184C401.44 374.992 401.728 374.896 401.92 374.896C402.112 374.896 402.592 374.96 403.36 375.088C404.448 375.408 404.992 375.792 404.992 376.24C404.992 376.496 405.088 376.752 405.28 377.008C405.472 377.2 405.696 377.296 405.952 377.296C406.4 377.36 406.336 377.648 405.76 378.16C405.248 378.672 404.352 379.376 403.072 380.272C401.856 381.04 401.088 381.552 400.768 381.808C400.512 382 400.48 382.448 400.672 383.152C401.184 384.368 401.216 385.776 400.768 387.376C400.32 388.976 399.52 390.608 398.368 392.272C397.216 393.936 395.808 395.504 394.144 396.976C392.544 398.384 390.816 399.6 388.96 400.624C387.168 401.584 385.408 402.16 383.68 402.352ZM382.048 398.128C382.304 398.128 382.752 398 383.392 397.744C384.032 397.424 384.544 397.168 384.928 396.976C385.184 396.72 385.504 396.432 385.888 396.112C386.336 395.728 386.688 395.504 386.944 395.44C387.2 395.44 387.52 395.344 387.904 395.152C388.288 394.896 388.832 394.416 389.536 393.712C390.24 392.944 391.168 391.824 392.32 390.352C393.6 388.944 394.592 387.664 395.296 386.512C396 385.296 396.192 384.176 395.872 383.152C395.808 382.896 395.616 382.736 395.296 382.672C395.04 382.608 394.688 382.448 394.24 382.192C393.6 382.192 392.992 382.032 392.416 381.712C391.904 381.328 391.296 380.848 390.592 380.272L389.056 378.352L387.424 379.984C386.4 381.008 385.312 382.544 384.16 384.592C383.072 386.576 382.144 388.624 381.376 390.736C380.608 392.784 380.16 394.416 380.032 395.632C379.968 396.592 380.128 397.232 380.512 397.552C380.896 397.872 381.408 398.064 382.048 398.128ZM407.418 403.888C406.65 403.76 406.042 403.408 405.594 402.832C405.21 402.192 404.666 401.616 403.962 401.104C403.962 400.4 404.122 399.28 404.442 397.744C404.826 396.144 405.274 394.576 405.786 393.04C406.298 391.44 406.714 390.288 407.034 389.584C407.29 387.92 407.706 386.32 408.282 384.784C408.922 383.248 409.434 381.744 409.818 380.272C410.138 378.992 410.426 377.776 410.682 376.624C411.002 375.472 411.322 374.352 411.642 373.264C411.962 372.432 412.122 371.856 412.122 371.536C412.122 371.152 412.186 370.864 412.314 370.672C412.506 370.416 412.986 370.096 413.754 369.712C414.458 369.968 415.098 370.128 415.674 370.192C416.314 370.192 416.89 370.032 417.402 369.712C417.466 369.648 417.946 369.648 418.842 369.712C419.802 369.712 420.858 369.712 422.01 369.712C423.162 369.712 424.026 369.68 424.602 369.616C425.498 369.552 426.362 369.648 427.194 369.904C428.026 370.16 428.922 370.288 429.882 370.288C431.098 370.736 432.218 371.248 433.242 371.824C434.266 372.4 435.066 373.104 435.642 373.936C436.282 374.704 436.57 375.696 436.506 376.912C436.378 377.872 436.314 378.864 436.314 379.888C436.314 380.912 436.058 381.872 435.546 382.768C435.482 383.408 435.162 384.464 434.586 385.936C434.01 387.344 433.434 388.848 432.858 390.448C432.346 391.984 432.026 393.264 431.898 394.288C431.834 394.736 431.642 395.184 431.322 395.632C431.066 396.016 430.97 396.464 431.034 396.976C431.098 397.616 431.002 398.416 430.746 399.376C430.554 400.272 430.234 400.976 429.786 401.488C429.21 402.128 428.506 402.384 427.674 402.256C426.842 402.064 426.106 401.68 425.466 401.104C424.89 400.464 424.634 399.76 424.698 398.992C424.698 398.224 424.73 397.296 424.794 396.208C424.922 395.056 425.018 394.064 425.082 393.232C425.53 392.784 425.754 392.368 425.754 391.984C425.818 391.536 425.882 391.088 425.946 390.64C426.522 389.296 427.098 387.6 427.674 385.552C428.314 383.44 428.826 381.424 429.21 379.504C429.594 377.584 429.658 376.208 429.402 375.376C428.378 375.376 427.034 375.44 425.37 375.568C423.706 375.632 422.17 375.728 420.762 375.856C419.418 375.92 418.682 375.952 418.554 375.952C418.298 376.016 418.074 376.176 417.882 376.432C417.69 376.624 417.594 376.816 417.594 377.008C417.338 378.608 416.89 380.176 416.25 381.712C415.61 383.184 415.13 384.72 414.81 386.32C414.746 386.768 414.522 387.536 414.138 388.624C413.754 389.648 413.306 390.8 412.794 392.08C412.346 393.296 411.93 394.512 411.546 395.728C411.162 396.88 410.97 397.808 410.97 398.512C410.714 398.96 410.522 399.472 410.394 400.048C410.266 400.624 410.202 401.36 410.202 402.256C410.138 402.768 409.882 403.12 409.434 403.312C408.986 403.504 408.314 403.696 407.418 403.888ZM443.096 405.52C442.584 405.328 442.04 404.944 441.464 404.368C440.888 403.728 440.408 402.992 440.024 402.16C439.64 401.328 439.448 400.56 439.448 399.856C439.768 399.152 440.184 397.936 440.696 396.208C441.208 394.416 441.848 392.368 442.616 390.064C443.128 389.36 443.512 388.528 443.768 387.568C444.088 386.608 444.376 385.744 444.632 384.976C445.144 383.952 445.752 382.64 446.456 381.04C447.16 379.376 447.832 377.712 448.472 376.048C449.176 374.32 449.784 372.88 450.296 371.728C451 370.064 451.416 369.04 451.544 368.656C451.672 368.208 451.768 367.856 451.832 367.6C451.832 367.088 451.96 366.672 452.216 366.352C452.472 365.968 452.728 365.776 452.984 365.776C453.24 365.52 453.528 365.392 453.848 365.392C454.232 365.328 454.552 365.296 454.808 365.296C455.512 365.296 456.12 365.776 456.632 366.736C457.144 367.632 457.4 368.464 457.4 369.232C457.4 370 457.112 371.088 456.536 372.496C456.024 373.84 455.416 375.248 454.712 376.72C454.072 378.192 453.528 379.472 453.08 380.56C452.632 381.648 452.504 382.288 452.696 382.48C452.696 382.48 453.144 382.288 454.04 381.904C454.936 381.456 455.896 380.848 456.92 380.08C457.624 379.696 458.392 379.216 459.224 378.64C460.056 378.064 460.856 377.52 461.624 377.008C462.392 376.432 463.032 376.08 463.544 375.952C464.312 375.44 465.112 374.96 465.944 374.512C466.776 374 467.32 373.616 467.576 373.36C468.664 372.848 469.464 372.688 469.976 372.88C470.552 373.072 471.128 373.552 471.704 374.32C472.408 375.152 472.536 375.888 472.088 376.528C471.64 377.104 470.584 377.904 468.92 378.928C467.576 379.76 465.944 380.752 464.024 381.904C462.168 383.056 460.504 384.08 459.032 384.976C457.624 385.872 456.824 386.416 456.632 386.608C456.632 386.608 456.888 387.088 457.4 388.048C457.912 389.008 458.424 389.872 458.936 390.64C459.448 391.664 459.992 392.624 460.568 393.52C461.208 394.352 461.528 394.928 461.528 395.248C462.04 396.592 462.68 397.712 463.448 398.608C464.216 399.44 465.08 399.984 466.04 400.24C467.064 400.432 468.088 400.304 469.112 399.856C470.392 399.344 471.32 399.184 471.896 399.376C472.536 399.568 472.984 400.048 473.24 400.816C473.496 401.328 473.56 401.712 473.432 401.968C473.368 402.16 472.952 402.64 472.184 403.408C470.968 404.624 469.72 405.392 468.44 405.712C467.224 406.032 466.104 405.936 465.08 405.424C464.44 405.424 463.704 405.168 462.872 404.656C462.04 404.08 461.016 403.152 459.8 401.872C458.648 400.592 457.208 398.8 455.48 396.496C455.48 396.24 455.352 395.888 455.096 395.44C454.904 394.928 454.68 394.448 454.424 394C454.168 393.488 453.848 392.944 453.464 392.368C453.08 391.728 452.888 391.408 452.888 391.408C452.888 391.216 452.824 391.056 452.696 390.928C452.632 390.736 452.504 390.512 452.312 390.256C452.184 390 452.024 389.712 451.832 389.392C450.808 389.072 450.072 389.264 449.624 389.968C449.176 390.672 448.696 391.408 448.184 392.176C447.864 393.008 447.448 394.192 446.936 395.728C446.488 397.2 446.104 398.64 445.784 400.048C445.528 401.456 445.464 402.416 445.592 402.928C445.592 403.952 445.432 404.656 445.112 405.04C444.792 405.36 444.12 405.52 443.096 405.52ZM483.726 428.08C483.662 428.208 483.374 428.08 482.862 427.696C482.414 427.312 481.966 426.832 481.518 426.256C481.07 425.744 480.878 425.296 480.942 424.912C480.686 424.016 480.718 422.896 481.038 421.552C481.422 420.272 482.222 418.352 483.438 415.792C484.078 414.768 484.654 413.552 485.166 412.144C485.742 410.736 486.382 409.328 487.086 407.92C487.406 407.344 488.11 406.096 489.198 404.176C490.286 402.256 491.438 400.08 492.654 397.648C493.934 395.216 494.99 392.912 495.822 390.736C494.158 392.464 492.622 394.224 491.214 396.016C489.806 397.744 488.494 399.152 487.278 400.24C486.126 401.328 485.038 401.84 484.014 401.776C483.182 401.584 482.286 401.296 481.326 400.912C480.43 400.464 479.822 399.696 479.502 398.608C479.246 397.2 479.15 395.408 479.214 393.232C479.342 391.056 479.758 387.76 480.462 383.344C480.974 381.168 481.262 379.504 481.326 378.352C481.454 377.136 481.422 376.24 481.23 375.664C481.038 375.088 480.686 374.576 480.174 374.128C479.342 373.36 478.894 372.688 478.83 372.112C478.83 371.472 479.278 370.928 480.174 370.48C481.518 370.16 482.478 370.064 483.054 370.192C483.63 370.256 484.334 370.768 485.166 371.728C485.678 372.56 486.126 373.36 486.51 374.128C486.958 374.832 487.182 376.08 487.182 377.872C487.182 378.64 487.054 379.664 486.798 380.944C486.606 382.224 486.414 383.44 486.222 384.592C486.094 385.68 485.998 386.448 485.934 386.896C485.294 389.264 484.878 391.312 484.686 393.04C484.558 394.768 484.654 395.632 484.974 395.632C486.254 394.608 487.47 393.456 488.622 392.176C489.838 390.832 491.086 389.328 492.366 387.664C493.71 385.936 495.182 383.984 496.782 381.808C497.358 380.72 497.934 379.664 498.51 378.64C499.086 377.616 499.566 376.56 499.95 375.472C500.334 374.64 500.718 373.968 501.102 373.456C501.486 372.944 501.806 372.656 502.062 372.592C502.382 372.464 502.766 372.496 503.214 372.688C503.726 372.88 504.174 373.104 504.558 373.36C505.006 373.552 505.23 373.712 505.23 373.84C505.294 373.904 505.454 373.968 505.71 374.032C505.966 374.096 506.222 374.16 506.478 374.224C506.798 374.224 506.958 374.32 506.958 374.512C506.958 374.64 506.798 375.056 506.478 375.76C506.222 376.464 505.902 377.264 505.518 378.16C505.198 378.992 504.91 379.76 504.654 380.464C504.398 381.104 504.302 381.488 504.366 381.616C504.494 381.744 504.398 382.224 504.078 383.056C503.758 383.824 503.374 384.688 502.926 385.648C502.542 386.608 502.19 387.472 501.87 388.24C501.23 390.352 500.494 392.464 499.662 394.576C498.83 396.624 497.838 398.672 496.686 400.72C496.302 401.488 495.726 402.672 494.958 404.272C494.254 405.872 493.55 407.44 492.846 408.976C492.206 410.576 491.694 411.792 491.31 412.624C491.054 413.136 490.67 413.936 490.158 415.024C489.71 416.176 489.198 417.424 488.622 418.768C488.11 420.112 487.598 421.36 487.086 422.512C486.574 423.728 486.19 424.656 485.934 425.296C485.806 426.512 485.518 427.408 485.07 427.984C484.814 427.984 484.526 427.984 484.206 427.984C483.886 428.048 483.726 428.08 483.726 428.08ZM514.813 401.008C513.597 401.456 512.573 401.68 511.741 401.68C510.973 401.616 510.109 401.232 509.149 400.528C507.933 399.376 507.517 398.224 507.901 397.072C508.349 395.856 509.405 394.672 511.069 393.52C512.221 392.816 513.053 392.432 513.565 392.368C514.141 392.304 515.005 392.528 516.157 393.04C518.077 394.256 518.909 395.6 518.653 397.072C518.461 398.544 517.181 399.856 514.813 401.008ZM109.403 527.096C108.763 527.16 107.803 527 106.523 526.616C105.307 526.168 104.475 525.72 104.027 525.272C103.579 524.632 103.163 523.864 102.779 522.968C102.459 522.072 102.203 521.272 102.011 520.568C101.883 519.8 101.819 519.352 101.819 519.224L102.971 511.256C103.291 510.68 103.451 510.072 103.451 509.432C103.515 508.792 103.675 508.184 103.931 507.608C103.867 507.288 103.963 506.648 104.219 505.688C104.539 504.664 104.891 503.544 105.275 502.328C105.723 501.048 106.139 499.896 106.523 498.872C106.907 497.784 107.131 497.08 107.195 496.76C107.451 495.8 107.803 494.84 108.251 493.88C108.699 492.92 109.115 491.96 109.499 491C110.011 489.336 110.395 488.12 110.651 487.352C110.907 486.584 111.131 485.976 111.323 485.528C111.579 485.08 111.867 484.568 112.187 483.992C112.507 483.352 112.955 482.392 113.531 481.112L119.195 468.248C118.555 467.928 117.979 467.32 117.467 466.424C116.955 465.464 116.699 464.6 116.699 463.832C116.635 463.448 116.699 463.192 116.891 463.064C117.083 462.872 117.403 462.68 117.851 462.488C118.555 462.488 119.291 462.456 120.059 462.392C120.827 462.328 121.595 462.36 122.363 462.488C122.939 462.552 123.323 462.52 123.515 462.392C123.707 462.2 124.091 462.168 124.667 462.296C125.243 462.488 125.819 462.552 126.395 462.488C127.035 462.424 127.579 462.264 128.027 462.008C128.219 462.008 128.795 461.976 129.755 461.912C130.715 461.848 131.771 461.784 132.923 461.72C134.139 461.656 135.195 461.592 136.091 461.528C137.051 461.464 137.627 461.432 137.819 461.432C137.755 461.432 138.171 461.4 139.067 461.336C140.027 461.272 141.147 461.208 142.427 461.144C143.707 461.016 144.859 460.92 145.883 460.856C146.907 460.728 147.483 460.632 147.611 460.568C148.955 460.248 149.883 460.376 150.395 460.952C150.907 461.528 151.291 462.072 151.547 462.584C151.675 462.904 151.835 463.256 152.027 463.64C152.219 463.96 152.347 464.248 152.411 464.504C152.539 464.696 152.507 464.824 152.315 464.888C151.995 465.336 151.547 465.656 150.971 465.848C150.459 466.04 149.851 466.008 149.147 465.752C148.891 465.688 147.963 465.688 146.363 465.752C144.763 465.816 142.811 465.944 140.507 466.136C138.267 466.328 135.963 466.552 133.595 466.808C131.291 467 129.275 467.192 127.547 467.384C126.907 467.768 126.363 468.28 125.915 468.92C125.467 469.496 125.051 470.136 124.667 470.84C124.475 471.224 124.027 472.12 123.323 473.528C122.683 474.936 121.979 476.472 121.211 478.136C120.443 479.8 119.803 481.24 119.291 482.456C118.779 483.608 118.523 484.152 118.523 484.088C118.011 484.792 118.139 485.208 118.907 485.336C119.739 485.464 120.443 485.528 121.019 485.528C121.531 485.528 122.043 485.656 122.555 485.912C123.131 486.104 123.675 486.168 124.187 486.104C124.507 486.04 125.115 486.136 126.011 486.392C126.971 486.584 127.995 486.872 129.083 487.256C130.235 487.576 131.259 487.928 132.155 488.312C133.115 488.632 133.787 488.92 134.171 489.176C135.643 490.072 136.923 490.968 138.011 491.864C139.099 492.76 139.963 493.848 140.603 495.128C141.243 496.408 141.787 497.72 142.235 499.064C142.683 500.408 142.843 501.816 142.715 503.288C142.715 503.608 142.619 504.28 142.427 505.304C142.299 506.264 142.107 507.256 141.851 508.28C141.595 509.304 141.307 510.072 140.987 510.584C140.219 511.864 139.387 513.08 138.491 514.232C137.659 515.32 136.891 516.28 136.187 517.112C135.163 518.392 133.947 519.48 132.539 520.376C131.195 521.208 129.787 521.976 128.315 522.68C127.163 523.256 126.267 523.704 125.627 524.024C125.051 524.28 124.507 524.472 123.995 524.6C123.483 524.728 122.779 524.888 121.883 525.08C121.947 525.08 121.627 525.176 120.923 525.368C120.219 525.496 119.515 525.656 118.811 525.848C118.107 526.04 117.755 526.136 117.755 526.136C116.923 526.584 116.059 526.872 115.163 527C114.267 527.064 113.371 527.096 112.475 527.096C111.963 527.096 111.451 527.064 110.939 527C110.427 527 109.915 527.032 109.403 527.096ZM108.539 522.008C109.499 521.944 110.491 521.912 111.515 521.912C112.539 521.912 113.563 521.784 114.587 521.528C117.787 520.632 120.763 519.672 123.515 518.648C126.331 517.624 128.891 515.832 131.195 513.272C132.795 511.416 133.979 509.688 134.747 508.088C135.579 506.488 136.219 504.664 136.667 502.616C136.923 501.592 136.923 500.664 136.667 499.832C136.411 498.936 136.187 497.88 135.995 496.664C135.419 495.32 134.875 494.424 134.363 493.976C133.851 493.464 133.339 493.144 132.827 493.016C132.315 492.888 131.803 492.696 131.291 492.44C130.459 491.736 129.275 491.256 127.739 491C126.203 490.744 125.147 490.584 124.571 490.52C124.955 490.584 124.859 490.584 124.283 490.52C123.771 490.392 123.003 490.264 121.979 490.136C120.955 489.944 119.931 489.784 118.907 489.656C117.883 489.528 117.083 489.464 116.507 489.464C116.059 490.488 115.579 491.608 115.067 492.824C114.619 494.04 114.139 495.256 113.627 496.472C113.179 497.624 112.763 498.776 112.379 499.928C111.739 501.784 111.131 503.672 110.555 505.592C109.979 507.448 109.435 509.336 108.923 511.256C108.667 512.344 108.411 513.656 108.155 515.192C107.899 516.728 107.771 518.168 107.771 519.512C107.835 520.792 108.091 521.624 108.539 522.008ZM146.631 546.104C145.095 546.552 143.399 546.616 141.543 546.296C139.751 546.04 138.183 545.496 136.839 544.664C135.431 543.832 134.631 542.904 134.439 541.88C134.375 541.496 134.503 541.08 134.823 540.632C135.079 540.184 135.431 539.864 135.879 539.672C136.263 539.544 136.615 539.672 136.935 540.056C137.447 540.376 138.375 540.76 139.719 541.208C141.063 541.72 142.567 541.816 144.231 541.496C145.703 541.176 147.143 540.312 148.551 538.904C150.023 537.496 151.207 536.184 152.103 534.968C152.615 534.2 153.479 532.824 154.695 530.84C155.911 528.856 157.159 526.68 158.439 524.312C159.783 521.88 160.903 519.64 161.799 517.592C161.991 517.08 162.215 516.472 162.471 515.768C162.727 515.064 163.047 514.488 163.431 514.04C163.815 513.272 164.135 512.568 164.391 511.928C164.711 511.224 164.903 510.744 164.967 510.488C165.031 510.168 165.319 509.528 165.831 508.568C166.343 507.608 166.823 506.648 167.271 505.688C167.591 504.728 168.071 503.32 168.711 501.464C169.351 499.608 169.991 498.104 170.631 496.952C171.399 495.48 172.007 494.296 172.455 493.4C172.967 492.44 173.511 491.864 174.087 491.672C174.663 491.224 175.047 491 175.239 491C175.495 491 175.975 491.192 176.679 491.576C177.447 492.344 177.927 493.112 178.119 493.88C178.311 494.584 178.215 495.48 177.831 496.568C177.511 497.592 176.871 499 175.911 500.792C175.399 502.328 174.823 503.736 174.183 505.016C173.607 506.232 173.159 507.032 172.839 507.416C172.519 508.184 172.135 509.048 171.687 510.008C171.303 510.904 170.951 511.736 170.631 512.504C169.479 515.064 168.487 517.144 167.655 518.744C166.823 520.344 166.087 521.816 165.447 523.16C164.807 524.504 164.135 526.072 163.431 527.864C161.959 530.232 160.519 532.472 159.111 534.584C157.767 536.76 156.327 538.776 154.791 540.632C154.151 541.208 153.351 541.88 152.391 542.648C151.431 543.416 150.439 544.12 149.415 544.76C148.455 545.4 147.527 545.848 146.631 546.104ZM159.591 523.064C158.631 522.936 157.671 522.36 156.711 521.336C155.815 520.312 155.111 519.224 154.599 518.072C154.087 516.92 153.895 516.088 154.023 515.576C154.023 515.256 154.023 515 154.023 514.808C154.023 514.616 154.023 514.52 154.023 514.52C153.639 514.52 153.287 514.04 152.967 513.08C152.711 512.12 152.519 510.872 152.391 509.336C152.263 507.8 152.167 506.168 152.103 504.44C152.103 502.712 152.167 501.08 152.295 499.544C152.551 498.456 152.679 497.272 152.679 495.992C152.679 494.648 152.711 493.592 152.775 492.824C152.711 491.8 152.807 491.128 153.063 490.808C153.319 490.424 153.575 490.136 153.831 489.944C155.623 489.176 156.807 489.656 157.383 491.384C158.023 493.048 158.183 496.184 157.863 500.792C157.735 503.352 157.735 505.912 157.863 508.472C157.991 511.032 158.343 513.272 158.919 515.192C159.559 517.112 160.423 518.424 161.511 519.128C161.959 519.384 162.183 519.736 162.183 520.184C162.183 520.632 162.055 521.112 161.799 521.624C161.543 522.072 161.191 522.456 160.743 522.776C160.359 523.032 159.975 523.128 159.591 523.064ZM187.771 526.424C187.579 526.488 187.131 526.392 186.427 526.136C185.723 525.816 184.955 525.432 184.123 524.984C183.355 524.472 182.747 523.992 182.299 523.544C181.787 522.904 181.307 522.264 180.859 521.624C180.475 520.92 180.283 520.12 180.283 519.224C179.835 518.264 179.579 517.272 179.515 516.248C179.515 515.16 179.483 514.104 179.419 513.08C179.355 511.48 179.707 509.848 180.475 508.184C181.243 506.456 181.851 505.176 182.299 504.344C182.619 503.448 183.259 502.296 184.219 500.888C185.243 499.416 186.491 497.976 187.963 496.568C189.435 495.16 190.971 494.072 192.571 493.304C193.595 492.792 194.619 492.376 195.643 492.056C196.731 491.672 197.979 491.736 199.387 492.248C200.091 492.44 200.603 492.696 200.923 493.016C201.243 493.336 201.595 493.656 201.979 493.976C202.491 493.592 202.907 492.664 203.227 491.192C203.611 489.656 203.835 487.928 203.899 486.008C204.027 484.024 203.931 482.136 203.611 480.344C203.355 478.488 202.811 477.016 201.979 475.928C200.443 473.816 198.747 472.44 196.891 471.8C195.035 471.16 192.923 471.352 190.555 472.376C189.787 472.056 189.083 471.448 188.443 470.552C187.867 469.656 187.707 468.76 187.963 467.864C188.475 467.416 189.115 466.968 189.883 466.52C190.651 466.072 191.419 465.784 192.187 465.656C193.083 465.464 193.979 465.336 194.875 465.272C195.835 465.208 196.827 465.464 197.851 466.04C201.179 467.128 203.675 468.664 205.339 470.648C207.067 472.568 208.251 474.904 208.891 477.656C209.531 480.408 209.915 483.576 210.043 487.16C210.171 488.184 210.203 489.112 210.139 489.944C210.139 490.712 210.043 492.024 209.851 493.88C209.211 494.712 208.955 495.704 209.083 496.856C209.275 497.944 209.147 498.968 208.699 499.928C208.635 501.016 208.379 501.912 207.931 502.616C207.483 503.32 207.259 503.992 207.259 504.632C206.107 507.832 204.539 510.968 202.555 514.04C200.635 517.112 198.427 519.768 195.931 522.008C193.435 524.248 190.715 525.72 187.771 526.424ZM187.195 520.184C187.835 520.44 188.795 520.184 190.075 519.416C191.355 518.584 192.667 517.496 194.011 516.152C195.355 514.744 196.475 513.4 197.371 512.12C197.691 511.672 198.107 510.936 198.619 509.912C199.195 508.888 199.707 507.896 200.155 506.936C200.667 505.976 200.955 505.368 201.019 505.112C201.595 503.512 201.915 502.008 201.979 500.6C202.107 499.128 201.947 498.168 201.499 497.72C200.795 496.888 199.643 496.696 198.043 497.144C196.507 497.592 195.035 498.328 193.627 499.352C192.603 500.12 191.675 501.144 190.843 502.424C190.075 503.64 189.275 504.76 188.443 505.784C188.507 506.232 188.379 506.616 188.059 506.936C187.803 507.256 187.515 507.576 187.195 507.896C186.363 509.496 185.819 511 185.563 512.408C185.307 513.752 185.179 514.584 185.179 514.904C185.179 515.928 185.339 516.984 185.659 518.072C185.979 519.16 186.491 519.864 187.195 520.184ZM221.519 527.288C218.703 527.288 216.399 526.232 214.607 524.12C212.815 521.944 211.951 519.256 212.015 516.056C212.143 513.752 212.591 511.288 213.359 508.664C214.191 505.976 215.279 503.416 216.623 500.984C217.967 498.488 219.439 496.312 221.039 494.456C222.639 492.6 224.303 491.288 226.031 490.52C226.671 490.2 227.343 489.944 228.047 489.752C228.815 489.56 229.583 489.464 230.351 489.464C231.055 489.464 231.791 489.592 232.559 489.848C233.327 490.04 233.967 490.264 234.479 490.52C235.567 490.968 236.399 491.512 236.975 492.152C237.551 492.792 238.063 493.784 238.511 495.128C238.703 496.344 238.799 497.208 238.799 497.72C238.799 498.232 238.639 499 238.319 500.024C237.551 502.328 236.559 504.312 235.343 505.976C234.127 507.64 232.495 509.048 230.447 510.2C229.935 510.52 229.327 510.776 228.623 510.968C227.983 511.096 227.311 511.16 226.607 511.16C225.327 511.16 224.079 510.936 222.863 510.488C221.711 509.976 220.783 509.24 220.079 508.28L219.407 507.512L219.119 508.28C218.479 510.008 217.967 511.608 217.583 513.08C217.263 514.552 217.103 515.896 217.103 517.112C217.103 517.88 217.167 518.616 217.295 519.32C217.487 520.024 217.743 520.632 218.063 521.144C218.319 521.528 218.735 521.816 219.311 522.008C219.951 522.136 220.623 522.2 221.327 522.2C221.775 522.2 222.223 522.2 222.671 522.2C223.183 522.136 223.663 522.008 224.111 521.816C225.199 521.432 226.063 521.016 226.703 520.568C227.407 520.12 228.111 519.64 228.815 519.128L229.199 518.936H229.103C229.871 518.552 230.543 518.168 231.119 517.784C231.759 517.4 232.079 517.208 232.079 517.208C232.335 517.208 232.591 517.048 232.847 516.728C233.359 516.472 233.999 516.568 234.767 517.016C235.599 517.464 236.015 518.04 236.015 518.744C235.951 519.064 235.663 519.576 235.151 520.28C234.639 520.92 234.063 521.528 233.423 522.104C232.847 522.68 232.367 523 231.983 523.064C231.919 523.128 231.695 523.256 231.311 523.448C230.927 523.576 230.671 523.704 230.543 523.832H230.639C230.063 524.6 229.487 524.984 228.911 524.984H228.143C227.887 525.432 227.055 525.944 225.647 526.52C224.239 527.032 222.863 527.288 221.519 527.288ZM225.839 506.168C226.991 506.168 227.983 505.848 228.815 505.208C229.711 504.504 230.479 503.736 231.119 502.904C232.399 501.176 233.135 499.512 233.327 497.912C233.583 496.248 233.391 495.096 232.751 494.456C232.367 494.264 232.015 494.168 231.695 494.168C231.439 494.104 230.895 494.2 230.063 494.456C229.487 494.584 228.687 495.064 227.663 495.896C226.639 496.728 225.615 497.656 224.591 498.68C223.631 499.704 222.895 500.568 222.383 501.272L221.135 503.288C221.647 503.096 222.127 503 222.575 503C223.087 502.936 223.375 502.968 223.439 503.096C223.439 503.672 223.535 504.216 223.727 504.728C223.983 505.176 224.271 505.528 224.591 505.784C224.975 506.04 225.391 506.168 225.839 506.168ZM246.21 523.448C246.018 523.192 245.826 522.872 245.634 522.488C245.506 522.104 245.442 521.784 245.442 521.528C245.442 521.4 245.41 521.24 245.346 521.048C245.346 520.856 245.218 520.76 244.962 520.76C244.77 520.568 244.898 519.832 245.346 518.552C245.858 517.208 246.498 515.672 247.266 513.944C248.098 512.216 248.93 510.552 249.762 508.952C250.658 507.288 251.394 505.976 251.97 505.016C252.29 504.824 252.482 504.568 252.546 504.248C252.674 503.864 252.674 503.672 252.546 503.672C252.546 503.672 252.706 503.384 253.026 502.808C253.41 502.168 253.698 501.752 253.89 501.56C254.402 500.664 254.786 499.768 255.042 498.872C255.298 497.912 255.362 497.112 255.234 496.472C254.978 496.152 254.69 496.056 254.37 496.184C254.05 496.312 253.89 496.376 253.89 496.376C253.634 496.44 253.25 496.568 252.738 496.76C252.29 496.888 251.874 497.08 251.49 497.336C250.018 498.36 249.026 498.84 248.514 498.776C248.002 498.648 247.426 497.816 246.786 496.28C246.53 495.576 246.434 495.064 246.498 494.744C246.562 494.424 246.818 494.072 247.266 493.688C247.778 493.24 248.258 492.952 248.706 492.824C249.154 492.632 249.506 492.44 249.762 492.248C250.466 491.8 251.042 491.48 251.49 491.288C252.002 491.096 252.386 490.968 252.642 490.904C254.306 490.392 255.714 490.296 256.866 490.616C258.018 490.936 258.882 491.768 259.458 493.112C260.354 494.2 260.802 495.448 260.802 496.856C260.802 498.2 260.354 499.768 259.458 501.56L258.498 503C258.178 503.64 258.114 503.96 258.306 503.96C258.562 503.96 258.85 503.736 259.17 503.288C259.362 503.032 259.746 502.648 260.322 502.136C260.898 501.624 261.282 501.368 261.474 501.368C261.474 501.368 261.538 501.336 261.666 501.272C261.858 501.208 261.954 500.952 261.954 500.504C262.146 500.312 262.338 500.12 262.53 499.928C262.786 499.736 262.914 499.64 262.914 499.64C263.17 499.64 263.65 499.352 264.354 498.776C265.122 498.136 266.018 497.4 267.042 496.568C267.746 496.056 268.386 495.8 268.962 495.8C270.434 495.352 271.618 495.832 272.514 497.24C273.474 498.648 273.954 500.472 273.954 502.712L271.938 507.896L275.394 503.672C275.778 503.16 276.162 502.712 276.546 502.328C276.994 501.944 277.378 501.624 277.698 501.368C277.826 500.92 278.018 500.664 278.274 500.6C278.53 500.536 278.658 500.504 278.658 500.504C278.658 500.504 278.722 500.504 278.85 500.504C278.978 500.44 279.042 500.312 279.042 500.12C279.362 499.864 279.714 499.64 280.098 499.448C280.482 499.192 280.738 498.936 280.866 498.68C281.954 498.232 282.946 498.168 283.842 498.488C284.738 498.744 285.506 499.544 286.146 500.888C286.594 501.656 286.85 502.328 286.914 502.904C286.978 503.48 287.01 504.344 287.01 505.496C286.882 506.456 286.754 507.224 286.626 507.8C286.562 508.312 286.498 508.856 286.434 509.432C286.37 510.008 286.274 510.808 286.146 511.832C285.89 512.344 285.73 512.888 285.666 513.464C285.666 514.04 285.666 514.584 285.666 515.096C285.666 515.928 285.698 516.504 285.762 516.824C285.826 517.08 286.082 517.208 286.53 517.208C287.426 517.016 288.642 516.568 290.178 515.864C291.778 515.096 292.962 514.36 293.73 513.656C294.69 512.76 295.522 512.312 296.226 512.312C296.994 512.248 297.474 512.6 297.666 513.368C297.794 513.624 297.57 514.2 296.994 515.096C296.482 515.992 295.874 516.856 295.17 517.688C294.53 518.52 294.05 518.936 293.73 518.936C293.538 518.936 293.314 519.128 293.058 519.512C292.802 519.832 292.514 520.088 292.194 520.28C291.746 520.728 291.298 521.144 290.85 521.528C290.466 521.912 290.018 522.104 289.506 522.104C289.25 522.104 288.93 522.2 288.546 522.392C288.226 522.52 287.842 522.584 287.394 522.584C286.754 522.776 285.762 522.68 284.418 522.296C283.138 521.912 282.306 521.016 281.922 519.608C281.666 518.904 281.442 517.784 281.25 516.248C281.058 514.648 281.09 513.048 281.346 511.448C281.602 510.296 281.762 509.24 281.826 508.28C281.89 507.32 282.018 506.648 282.21 506.264C282.21 506.072 282.21 505.624 282.21 504.92C282.21 504.152 282.114 503.768 281.922 503.768C281.666 503.768 281.058 504.248 280.098 505.208C279.202 506.104 278.114 507.256 276.834 508.664C275.618 510.072 274.402 511.544 273.186 513.08C271.97 514.616 270.978 515.992 270.21 517.208C269.634 517.912 269.122 518.776 268.674 519.8C268.226 520.824 267.906 521.4 267.714 521.528C267.266 522.04 266.722 522.104 266.082 521.72C265.506 521.336 264.962 520.728 264.45 519.896C264.258 519.512 264.13 519.192 264.066 518.936C264.002 518.616 264.002 518.2 264.066 517.688C264.194 517.112 264.418 516.28 264.738 515.192C265.122 514.104 265.634 512.568 266.274 510.584C266.978 508.408 267.586 506.456 268.098 504.728C268.674 502.936 268.962 502.04 268.962 502.04C268.962 501.784 268.482 502.04 267.522 502.808C266.562 503.512 265.442 504.408 264.162 505.496C263.586 506.2 262.626 507.256 261.282 508.664C259.938 510.072 258.466 511.672 256.866 513.464C255.266 515.256 253.73 517.144 252.258 519.128C250.402 521.752 249.09 523.352 248.322 523.928C247.618 524.504 246.914 524.344 246.21 523.448ZM326.225 524.888C325.585 524.44 325.105 524.024 324.785 523.64C324.465 523.256 324.337 522.712 324.401 522.008C324.529 521.048 324.721 520.056 324.977 519.032C325.233 517.944 325.553 516.888 325.937 515.864C326.129 514.712 326.353 513.56 326.609 512.408C326.929 511.256 327.441 510.168 328.145 509.144C329.233 506.072 330.225 503.096 331.121 500.216C332.081 497.272 333.361 493.816 334.961 489.848C335.281 489.144 335.569 488.632 335.825 488.312C336.145 487.928 336.433 487.544 336.689 487.16C336.753 486.904 336.945 486.776 337.265 486.776C337.649 486.712 338.065 486.776 338.513 486.968C338.961 487.096 339.313 487.32 339.569 487.64C339.825 487.576 340.177 487.992 340.625 488.888C341.137 489.784 341.329 490.488 341.201 491C341.201 491.256 341.137 491.608 341.009 492.056C340.881 492.504 340.689 492.92 340.433 493.304C340.177 493.56 339.921 493.944 339.665 494.456C339.409 494.904 339.025 495.512 338.513 496.28C337.873 498.072 337.329 499.576 336.881 500.792C336.433 502.008 335.889 503.384 335.249 504.92C334.801 505.56 334.449 506.424 334.193 507.512C333.937 508.6 333.681 509.656 333.425 510.68C332.977 511.832 332.561 512.888 332.177 513.848C331.857 514.808 331.697 515.416 331.697 515.672C331.249 517.08 330.897 518.488 330.641 519.896C330.385 521.24 329.969 522.424 329.393 523.448C329.329 524.408 329.041 525.048 328.529 525.368C328.081 525.688 327.313 525.528 326.225 524.888ZM349.169 526.424C348.145 526.296 347.377 526.104 346.865 525.848C346.353 525.528 345.393 524.856 343.985 523.832C343.217 523.064 342.161 521.88 340.817 520.28C339.473 518.68 338.129 516.984 336.785 515.192C335.441 513.336 334.321 511.768 333.425 510.488L337.361 505.208C338.193 506.232 338.865 507.192 339.377 508.088C339.889 508.984 340.305 509.592 340.625 509.912C342.097 512.088 343.249 513.848 344.081 515.192C344.977 516.536 345.777 517.624 346.481 518.456C347.185 519.288 347.921 520.024 348.689 520.664C349.521 521.304 350.545 521.976 351.761 522.68C351.953 522.808 352.145 523 352.337 523.256C352.529 523.512 352.593 523.896 352.529 524.408C352.273 525.112 351.985 525.56 351.665 525.752C351.409 525.88 350.577 526.104 349.169 526.424ZM333.137 509.432C332.753 508.344 332.881 507.256 333.521 506.168C334.225 505.016 334.993 504.216 335.825 503.768C336.081 503.32 336.337 503.032 336.593 502.904C336.913 502.712 337.105 502.488 337.169 502.232C337.297 501.976 337.617 501.624 338.129 501.176C338.705 500.728 339.217 500.312 339.665 499.928C340.689 499.288 341.841 498.52 343.121 497.624C344.465 496.664 345.745 495.704 346.961 494.744C348.177 493.784 349.201 492.952 350.033 492.248C350.929 491.544 351.473 491.096 351.665 490.904C351.857 490.648 352.113 490.488 352.433 490.424C352.817 490.296 353.297 490.36 353.873 490.616C354.641 490.808 355.153 491.128 355.409 491.576C355.665 491.96 355.793 492.728 355.793 493.88C355.985 494.584 355.697 495.352 354.929 496.184C354.225 496.952 353.137 497.816 351.665 498.776C351.153 499.096 350.449 499.576 349.553 500.216C348.721 500.856 347.985 501.464 347.345 502.04C346.897 502.296 346.225 502.744 345.329 503.384C344.497 503.96 343.761 504.536 343.121 505.112C342.609 505.432 341.937 506.008 341.105 506.84C340.273 507.608 339.441 508.184 338.609 508.568C336.561 510.488 335.217 511.512 334.577 511.64C333.937 511.768 333.457 511.032 333.137 509.432ZM356.872 548.504C356.616 548.504 356.296 548.504 355.912 548.504C355.528 548.568 355.176 548.312 354.856 547.736C354.6 547.416 354.44 546.936 354.376 546.296C354.376 545.656 354.536 544.504 354.856 542.84C355.176 541.752 355.432 540.664 355.624 539.576C355.816 538.552 355.912 537.784 355.912 537.272C355.912 537.016 355.976 536.504 356.104 535.736C356.296 535.032 356.392 534.52 356.392 534.2C356.712 533.688 356.968 532.984 357.16 532.088C357.352 531.192 357.448 530.392 357.448 529.688C357.448 528.92 357.832 528.216 358.6 527.576C358.6 527.064 358.696 526.424 358.888 525.656C359.144 524.888 359.272 524.376 359.272 524.12C359.464 523.224 359.88 521.656 360.52 519.416C361.224 517.112 362.056 514.52 363.016 511.64C364.04 508.76 365.032 505.944 365.992 503.192C366.952 500.44 367.816 498.104 368.584 496.184C369.352 494.392 369.864 492.856 370.12 491.576C370.44 490.232 370.6 489.24 370.6 488.6C370.6 488.344 370.664 488.152 370.792 488.024C370.92 487.832 371.208 487.48 371.656 486.968C372.296 486.328 372.84 486.136 373.288 486.392C373.8 486.648 374.408 487.032 375.112 487.544C375.624 488.376 375.976 489.08 376.168 489.656C376.424 490.232 376.424 491.224 376.168 492.632C376.168 493.592 376.008 494.424 375.688 495.128C375.368 495.832 375.08 496.376 374.824 496.76C374.568 497.08 374.504 497.208 374.632 497.144C377.256 495.928 379.56 495.288 381.544 495.224C383.592 495.096 385.288 495.448 386.632 496.28C388.04 497.048 389.096 498.136 389.8 499.544C390.504 500.952 390.856 502.584 390.856 504.44C390.856 505.208 390.696 506.136 390.376 507.224C390.056 508.248 389.64 509.208 389.128 510.104C388.68 510.936 388.264 511.544 387.88 511.928C387.624 511.928 387.368 512.152 387.112 512.6C386.856 512.984 386.6 513.432 386.344 513.944C385.832 514.584 385 515.32 383.848 516.152C382.76 516.92 381.672 517.56 380.584 518.072C379.496 518.52 378.696 518.648 378.184 518.456C378.184 518.456 378.088 518.488 377.896 518.552C377.768 518.552 377.704 518.712 377.704 519.032C377.704 519.16 377.192 519.448 376.168 519.896C375.144 520.28 373.96 520.664 372.616 521.048C371.272 521.368 370.088 521.528 369.064 521.528C367.72 521.528 366.76 521.272 366.184 520.76C366.056 520.888 365.896 521.08 365.704 521.336C365.576 521.592 365.512 521.816 365.512 522.008C365.512 522.392 365.352 523.128 365.032 524.216C364.776 525.24 364.456 526.232 364.072 527.192C363.688 528.152 363.336 528.632 363.016 528.632C363.016 528.632 362.952 528.728 362.824 528.92C362.696 529.112 362.76 529.368 363.016 529.688C363.016 529.688 362.984 530.04 362.92 530.744C362.92 531.512 362.76 532.152 362.44 532.664C362.44 533.176 362.344 533.944 362.152 534.968C361.96 535.992 361.736 536.76 361.48 537.272C361.48 538.04 361.352 538.776 361.096 539.48C360.904 540.248 360.68 540.632 360.424 540.632C360.168 540.696 360.008 541.08 359.944 541.784C359.88 542.552 359.848 543.096 359.848 543.416C359.784 545.016 359.464 546.264 358.888 547.16C358.312 548.056 357.64 548.504 356.872 548.504ZM368.488 516.44C369 516.44 370.056 516.216 371.656 515.768C373.256 515.32 374.888 514.776 376.552 514.136C378.28 513.432 379.56 512.728 380.392 512.024C382.056 510.552 383.336 508.888 384.232 507.032C385.192 505.112 385.128 503.288 384.04 501.56C383.528 500.664 382.6 500.312 381.256 500.504C379.912 500.632 378.44 501.144 376.84 502.04C375.24 502.936 373.736 504.056 372.328 505.4C371.56 506.232 370.856 507.256 370.216 508.472C369.576 509.688 369.032 510.904 368.584 512.12C368.2 513.336 367.976 514.36 367.912 515.192C367.848 516.024 368.04 516.44 368.488 516.44ZM403.617 549.08C403.553 549.208 403.265 549.08 402.753 548.696C402.305 548.312 401.857 547.832 401.409 547.256C400.961 546.744 400.769 546.296 400.833 545.912C400.577 545.016 400.609 543.896 400.929 542.552C401.313 541.272 402.113 539.352 403.329 536.792C403.969 535.768 404.545 534.552 405.057 533.144C405.633 531.736 406.273 530.328 406.977 528.92C407.297 528.344 408.001 527.096 409.089 525.176C410.177 523.256 411.329 521.08 412.545 518.648C413.825 516.216 414.881 513.912 415.713 511.736C414.049 513.464 412.513 515.224 411.105 517.016C409.697 518.744 408.385 520.152 407.169 521.24C406.017 522.328 404.929 522.84 403.905 522.776C403.073 522.584 402.177 522.296 401.217 521.912C400.321 521.464 399.713 520.696 399.393 519.608C399.137 518.2 399.041 516.408 399.105 514.232C399.233 512.056 399.649 508.76 400.353 504.344C400.865 502.168 401.153 500.504 401.217 499.352C401.345 498.136 401.313 497.24 401.121 496.664C400.929 496.088 400.577 495.576 400.065 495.128C399.233 494.36 398.785 493.688 398.721 493.112C398.721 492.472 399.169 491.928 400.065 491.48C401.409 491.16 402.369 491.064 402.945 491.192C403.521 491.256 404.225 491.768 405.057 492.728C405.569 493.56 406.017 494.36 406.401 495.128C406.849 495.832 407.073 497.08 407.073 498.872C407.073 499.64 406.945 500.664 406.689 501.944C406.497 503.224 406.305 504.44 406.113 505.592C405.985 506.68 405.889 507.448 405.825 507.896C405.185 510.264 404.769 512.312 404.577 514.04C404.449 515.768 404.545 516.632 404.865 516.632C406.145 515.608 407.361 514.456 408.513 513.176C409.729 511.832 410.977 510.328 412.257 508.664C413.601 506.936 415.073 504.984 416.673 502.808C417.249 501.72 417.825 500.664 418.401 499.64C418.977 498.616 419.457 497.56 419.841 496.472C420.225 495.64 420.609 494.968 420.993 494.456C421.377 493.944 421.697 493.656 421.953 493.592C422.273 493.464 422.657 493.496 423.105 493.688C423.617 493.88 424.065 494.104 424.449 494.36C424.897 494.552 425.121 494.712 425.121 494.84C425.185 494.904 425.345 494.968 425.601 495.032C425.857 495.096 426.113 495.16 426.369 495.224C426.689 495.224 426.849 495.32 426.849 495.512C426.849 495.64 426.689 496.056 426.369 496.76C426.113 497.464 425.793 498.264 425.409 499.16C425.089 499.992 424.801 500.76 424.545 501.464C424.289 502.104 424.193 502.488 424.257 502.616C424.385 502.744 424.289 503.224 423.969 504.056C423.649 504.824 423.265 505.688 422.817 506.648C422.433 507.608 422.081 508.472 421.761 509.24C421.121 511.352 420.385 513.464 419.553 515.576C418.721 517.624 417.729 519.672 416.577 521.72C416.193 522.488 415.617 523.672 414.849 525.272C414.145 526.872 413.441 528.44 412.737 529.976C412.097 531.576 411.585 532.792 411.201 533.624C410.945 534.136 410.561 534.936 410.049 536.024C409.601 537.176 409.089 538.424 408.513 539.768C408.001 541.112 407.489 542.36 406.977 543.512C406.465 544.728 406.081 545.656 405.825 546.296C405.697 547.512 405.409 548.408 404.961 548.984C404.705 548.984 404.417 548.984 404.097 548.984C403.777 549.048 403.617 549.08 403.617 549.08ZM432.304 523.448C432.112 523.192 431.92 522.872 431.728 522.488C431.6 522.104 431.536 521.784 431.536 521.528C431.536 521.4 431.504 521.24 431.44 521.048C431.44 520.856 431.312 520.76 431.056 520.76C430.864 520.568 430.992 519.832 431.44 518.552C431.952 517.208 432.592 515.672 433.36 513.944C434.192 512.216 435.024 510.552 435.856 508.952C436.752 507.288 437.488 505.976 438.064 505.016C438.384 504.824 438.576 504.568 438.64 504.248C438.768 503.864 438.768 503.672 438.64 503.672C438.64 503.672 438.8 503.384 439.12 502.808C439.504 502.168 439.792 501.752 439.984 501.56C440.496 500.664 440.88 499.768 441.136 498.872C441.392 497.912 441.456 497.112 441.328 496.472C441.072 496.152 440.784 496.056 440.464 496.184C440.144 496.312 439.984 496.376 439.984 496.376C439.728 496.44 439.344 496.568 438.832 496.76C438.384 496.888 437.968 497.08 437.584 497.336C436.112 498.36 435.12 498.84 434.608 498.776C434.096 498.648 433.52 497.816 432.88 496.28C432.624 495.576 432.528 495.064 432.592 494.744C432.656 494.424 432.912 494.072 433.36 493.688C433.872 493.24 434.352 492.952 434.8 492.824C435.248 492.632 435.6 492.44 435.856 492.248C436.56 491.8 437.136 491.48 437.584 491.288C438.096 491.096 438.48 490.968 438.736 490.904C440.4 490.392 441.808 490.296 442.96 490.616C444.112 490.936 444.976 491.768 445.552 493.112C446.448 494.2 446.896 495.448 446.896 496.856C446.896 498.2 446.448 499.768 445.552 501.56L444.592 503C444.272 503.64 444.208 503.96 444.4 503.96C444.656 503.96 444.944 503.736 445.264 503.288C445.456 503.032 445.84 502.648 446.416 502.136C446.992 501.624 447.376 501.368 447.568 501.368C447.568 501.368 447.632 501.336 447.76 501.272C447.952 501.208 448.048 500.952 448.048 500.504C448.24 500.312 448.432 500.12 448.624 499.928C448.88 499.736 449.008 499.64 449.008 499.64C449.264 499.64 449.744 499.352 450.448 498.776C451.216 498.136 452.112 497.4 453.136 496.568C453.84 496.056 454.48 495.8 455.056 495.8C456.528 495.352 457.712 495.832 458.608 497.24C459.568 498.648 460.048 500.472 460.048 502.712L458.032 507.896L461.488 503.672C461.872 503.16 462.256 502.712 462.64 502.328C463.088 501.944 463.472 501.624 463.792 501.368C463.92 500.92 464.112 500.664 464.368 500.6C464.624 500.536 464.752 500.504 464.752 500.504C464.752 500.504 464.816 500.504 464.944 500.504C465.072 500.44 465.136 500.312 465.136 500.12C465.456 499.864 465.808 499.64 466.192 499.448C466.576 499.192 466.832 498.936 466.96 498.68C468.048 498.232 469.04 498.168 469.936 498.488C470.832 498.744 471.6 499.544 472.24 500.888C472.688 501.656 472.944 502.328 473.008 502.904C473.072 503.48 473.104 504.344 473.104 505.496C472.976 506.456 472.848 507.224 472.72 507.8C472.656 508.312 472.592 508.856 472.528 509.432C472.464 510.008 472.368 510.808 472.24 511.832C471.984 512.344 471.824 512.888 471.76 513.464C471.76 514.04 471.76 514.584 471.76 515.096C471.76 515.928 471.792 516.504 471.856 516.824C471.92 517.08 472.176 517.208 472.624 517.208C473.52 517.016 474.736 516.568 476.272 515.864C477.872 515.096 479.056 514.36 479.824 513.656C480.784 512.76 481.616 512.312 482.32 512.312C483.088 512.248 483.568 512.6 483.76 513.368C483.888 513.624 483.664 514.2 483.088 515.096C482.576 515.992 481.968 516.856 481.264 517.688C480.624 518.52 480.144 518.936 479.824 518.936C479.632 518.936 479.408 519.128 479.152 519.512C478.896 519.832 478.608 520.088 478.288 520.28C477.84 520.728 477.392 521.144 476.944 521.528C476.56 521.912 476.112 522.104 475.6 522.104C475.344 522.104 475.024 522.2 474.64 522.392C474.32 522.52 473.936 522.584 473.488 522.584C472.848 522.776 471.856 522.68 470.512 522.296C469.232 521.912 468.4 521.016 468.016 519.608C467.76 518.904 467.536 517.784 467.344 516.248C467.152 514.648 467.184 513.048 467.44 511.448C467.696 510.296 467.856 509.24 467.92 508.28C467.984 507.32 468.112 506.648 468.304 506.264C468.304 506.072 468.304 505.624 468.304 504.92C468.304 504.152 468.208 503.768 468.016 503.768C467.76 503.768 467.152 504.248 466.192 505.208C465.296 506.104 464.208 507.256 462.928 508.664C461.712 510.072 460.496 511.544 459.28 513.08C458.064 514.616 457.072 515.992 456.304 517.208C455.728 517.912 455.216 518.776 454.768 519.8C454.32 520.824 454 521.4 453.808 521.528C453.36 522.04 452.816 522.104 452.176 521.72C451.6 521.336 451.056 520.728 450.544 519.896C450.352 519.512 450.224 519.192 450.16 518.936C450.096 518.616 450.096 518.2 450.16 517.688C450.288 517.112 450.512 516.28 450.832 515.192C451.216 514.104 451.728 512.568 452.368 510.584C453.072 508.408 453.68 506.456 454.192 504.728C454.768 502.936 455.056 502.04 455.056 502.04C455.056 501.784 454.576 502.04 453.616 502.808C452.656 503.512 451.536 504.408 450.256 505.496C449.68 506.2 448.72 507.256 447.376 508.664C446.032 510.072 444.56 511.672 442.96 513.464C441.36 515.256 439.824 517.144 438.352 519.128C436.496 521.752 435.184 523.352 434.416 523.928C433.712 524.504 433.008 524.344 432.304 523.448ZM495.021 525.56C494.189 525.56 493.517 525.4 493.005 525.08C492.557 524.76 491.981 524.312 491.277 523.736C490.061 522.456 489.197 521.24 488.685 520.088C488.173 518.872 488.013 517.72 488.205 516.632C488.397 516.12 488.461 515.64 488.397 515.192C488.397 514.68 488.397 514.424 488.397 514.424C488.077 514.104 487.981 513.912 488.109 513.848C488.237 513.72 488.365 513.528 488.493 513.272C488.877 513.272 489.005 512.92 488.877 512.216C488.749 511.704 489.005 510.584 489.645 508.856C490.285 507.128 491.085 505.496 492.045 503.96C492.429 503.32 493.005 502.488 493.773 501.464C494.541 500.376 495.373 499.32 496.269 498.296C497.229 497.208 498.093 496.344 498.861 495.704C500.461 494.36 501.869 493.368 503.085 492.728C504.301 492.088 505.613 491.608 507.021 491.288C508.429 490.968 509.389 490.808 509.901 490.808C510.477 490.808 511.245 491.32 512.205 492.344C513.677 492.984 514.733 493.752 515.373 494.648C516.077 495.544 516.525 496.856 516.717 498.584C516.909 500.504 516.749 502.712 516.237 505.208C515.789 507.64 514.285 510.68 511.725 514.328C510.125 516.632 508.653 518.36 507.309 519.512C505.965 520.6 504.365 521.688 502.509 522.776C501.165 523.672 499.949 524.344 498.861 524.792C497.773 525.176 496.493 525.432 495.021 525.56ZM504.237 515.384C505.773 513.656 506.989 512.024 507.885 510.488C508.845 508.952 509.741 507 510.573 504.632C510.829 503.928 510.989 503.064 511.053 502.04C511.117 500.952 511.085 499.96 510.957 499.064C510.893 498.104 510.669 497.56 510.285 497.432C509.517 496.984 508.589 496.856 507.501 497.048C506.413 497.176 505.229 497.784 503.949 498.872C501.965 500.536 500.237 502.616 498.765 505.112C497.293 507.544 495.853 510.328 494.445 513.464C493.485 515.768 493.261 517.624 493.773 519.032C494.349 520.376 495.533 520.856 497.325 520.472C499.181 520.024 501.485 518.328 504.237 515.384ZM531.553 510.68C529.761 511 528.577 510.136 528.001 508.088C527.425 506.04 527.585 503.224 528.481 499.64C528.865 498.872 529.185 498.136 529.441 497.432C529.697 496.664 529.825 496.056 529.825 495.608C530.081 494.776 530.401 493.816 530.785 492.728C531.233 491.576 531.681 490.52 532.129 489.56C532.577 488.536 532.897 487.864 533.089 487.544C533.345 487.544 533.601 487.32 533.857 486.872C534.177 486.424 534.337 485.976 534.337 485.528C534.337 485.016 534.433 484.44 534.625 483.8C534.881 483.16 535.137 482.712 535.393 482.456C535.393 482.136 535.521 481.784 535.777 481.4C536.033 481.016 536.161 480.696 536.161 480.44C536.161 480.184 536.225 479.96 536.353 479.768C536.545 479.576 536.641 479.352 536.641 479.096C537.217 478.072 537.953 476.568 538.849 474.584C539.809 472.536 540.737 470.392 541.633 468.152C542.593 465.912 543.393 463.928 544.033 462.2C544.673 460.472 544.993 459.416 544.993 459.032C545.121 458.52 545.313 458.136 545.569 457.88C545.825 457.624 546.209 457.56 546.721 457.688C546.977 457.496 547.233 457.4 547.489 457.4C547.745 457.336 548.001 457.304 548.257 457.304C548.257 457.304 548.353 457.432 548.545 457.688C548.801 457.944 549.153 458.328 549.601 458.84C550.113 459.288 550.401 459.8 550.465 460.376C550.529 460.952 550.561 461.624 550.561 462.392C550.497 463.608 550.049 464.984 549.217 466.52C548.385 468.056 547.457 469.752 546.433 471.608C545.793 472.824 545.153 473.976 544.513 475.064C543.937 476.152 543.649 476.824 543.649 477.08C543.649 477.336 543.521 477.72 543.265 478.232C543.009 478.744 542.721 479.384 542.401 480.152C542.017 480.792 541.601 481.56 541.153 482.456C540.705 483.352 540.289 484.184 539.905 484.952C539.585 485.656 539.425 486.104 539.425 486.296C539.361 486.552 539.265 486.808 539.137 487.064C539.073 487.32 538.913 487.576 538.657 487.832C538.401 487.832 538.241 488.024 538.177 488.408C538.177 488.728 538.177 488.888 538.177 488.888C538.177 489.144 538.017 489.752 537.697 490.712C537.441 491.608 536.993 492.696 536.353 493.976C535.137 497.368 534.273 500.088 533.761 502.136C533.249 504.12 532.929 505.816 532.801 507.224C532.673 508.76 532.545 509.656 532.417 509.912C532.353 510.168 532.065 510.424 531.553 510.68ZM526.369 526.04C525.153 526.488 524.129 526.712 523.297 526.712C522.529 526.648 521.665 526.264 520.705 525.56C519.489 524.408 519.073 523.256 519.457 522.104C519.905 520.888 520.961 519.704 522.625 518.552C523.777 517.848 524.609 517.464 525.121 517.4C525.697 517.336 526.561 517.56 527.713 518.072C529.633 519.288 530.465 520.632 530.209 522.104C530.017 523.576 528.737 524.888 526.369 526.04Z" fill="black"/>
<path d="M533.832 272.779C592.32 272.779 601.911 235.868 599.396 217.413C599.396 179.564 560.445 170.034 540.97 170C487.866 170 473.366 203.444 472.754 220.166C472.754 266.498 513.473 274.546 533.832 272.779Z" fill="white" stroke="black" stroke-width="10"/>
<path d="M608.953 169.858C646.257 169.858 652.374 146.207 650.77 134.381C650.77 110.128 625.927 104.022 613.506 104C579.636 104 570.388 125.43 569.998 136.145C569.998 165.834 595.968 170.991 608.953 169.858Z" fill="white" stroke="black" stroke-width="8"/>
<path d="M650.045 82.912C673.072 82.912 676.848 68.2194 675.858 60.8731C675.858 45.8071 660.523 42.0135 652.855 42C631.948 42 626.24 55.3126 625.999 61.9689C625.999 80.4118 642.03 83.6155 650.045 82.912Z" fill="white" stroke="black" stroke-width="6"/>
<path d="M676.023 21.9571C687.536 21.9571 689.425 14.7899 688.929 11.2064C688.929 3.85712 681.262 2.0066 677.428 2C666.975 2 664.12 8.49397 664 11.7409C664 20.7375 672.015 22.3002 676.023 21.9571Z" fill="white" stroke="black" stroke-width="4"/>
</svg>
