<svg width="293" height="219" viewBox="0 0 293 219" fill="none" xmlns="http://www.w3.org/2000/svg">
<path d="M72.3182 22.8534C126.691 4.40007 156.028 2.0934 163.9 3.24673C226.567 0.478789 262.97 25.5445 273.338 38.4233C301.446 73.4847 287.737 110.699 277.369 124.923C270.918 140.147 220.539 155.102 196.155 160.677L219.195 212L157.564 170.48L80.958 179.707C22.4378 179.245 4.7358 130.306 3.19983 105.893C-0.486482 64.3733 47.7428 33.2334 72.3182 22.8534Z" fill="white" stroke="black" stroke-width="5"/>
<path d="M93.5713 76.6243C93.8826 76.4254 94.2382 76.326 94.6384 76.326C94.9496 76.326 95.2052 76.3923 95.4053 76.5249C95.8499 76.4365 96.2167 76.547 96.5057 76.8564C96.8169 77.1436 96.9725 77.4862 96.9725 77.884C96.9725 78.2155 96.8503 78.4917 96.6057 78.7127C96.3834 78.9337 96.05 79.0442 95.6054 79.0442C95.3164 79.0442 95.0941 79.0221 94.9385 78.9779C94.694 79.1768 94.3494 79.2762 93.9048 79.2762C93.4157 79.2762 92.9711 79.1768 92.571 78.9779C92.4376 79.0663 92.1931 79.1436 91.8374 79.2099C91.4817 79.2762 91.1372 79.3094 90.8037 79.3094C90.5814 79.3094 90.3814 79.2873 90.2035 79.2431C90.3814 79.5304 90.4703 79.895 90.4703 80.337C90.4703 80.8011 90.3702 81.1215 90.1702 81.2983C90.5036 81.6961 90.6703 82.2155 90.6703 82.8564C90.6703 83.2762 90.5814 83.663 90.4036 84.0166C90.6259 84.6133 90.737 85.1989 90.737 85.7735C90.737 86.1492 90.6926 86.4807 90.6037 86.768C90.7148 86.9006 90.8037 87.1105 90.8704 87.3978C90.9593 87.6851 91.0038 87.9724 91.0038 88.2597C91.0038 88.5912 90.9371 88.8785 90.8037 89.1215C91.1372 89.4309 91.3039 89.9171 91.3039 90.5801C91.3039 91.0221 91.2483 91.3757 91.1372 91.6409C91.3372 91.9503 91.4373 92.3481 91.4373 92.8343C91.4373 93.1215 91.3817 93.3757 91.2706 93.5967C91.3817 93.7956 91.4373 94.0718 91.4373 94.4254C91.4373 94.7569 91.3928 95.011 91.3039 95.1878C91.5262 95.4088 91.6373 95.7624 91.6373 96.2486C91.6373 96.4475 91.604 96.6354 91.5373 96.8122C91.8263 97.1436 91.9486 97.4751 91.9041 97.8066C92.0153 98.0718 92.0708 98.2928 92.0708 98.4696C92.0708 98.8453 91.9263 99.1547 91.6373 99.3978C91.3484 99.6409 91.0149 99.7624 90.637 99.7624C90.348 99.7624 90.0924 99.6851 89.8701 99.5304C89.67 99.3536 89.5366 99.0884 89.4699 98.7348C89.3143 98.5801 89.1921 98.3591 89.1031 98.0718C89.0142 97.7845 88.9698 97.5083 88.9698 97.2431C88.9698 97.0884 88.992 96.9227 89.0364 96.7459C88.7919 96.5028 88.6697 96.0718 88.6697 95.453C88.6697 95.1657 88.6919 94.9669 88.7363 94.8564C88.5363 94.547 88.4362 94.2818 88.4362 94.0608C88.4362 93.7514 88.5585 93.4751 88.803 93.232C88.4918 93.0111 88.3362 92.6685 88.3362 92.2044C88.3362 91.8287 88.4251 91.5414 88.603 91.3425C88.2917 91.1657 88.1361 90.7017 88.1361 89.9503C88.1361 89.5304 88.1806 89.1989 88.2695 88.9558C88.1584 88.8232 88.0583 88.6243 87.9694 88.3591C87.9027 88.0718 87.8694 87.7845 87.8694 87.4972C87.8694 87.1878 87.9138 86.9558 88.0028 86.8011C87.8027 86.4033 87.7027 85.9282 87.7027 85.3757C87.7027 85.0442 87.7471 84.5691 87.836 83.9503C87.6804 83.5304 87.6026 83.0773 87.6026 82.5912C87.6026 82.1492 87.6693 81.7845 87.8027 81.4972C87.5359 81.232 87.4026 80.7459 87.4026 80.0387C87.4026 79.7072 87.4359 79.4088 87.5026 79.1436C87.2581 79.2762 87.0135 79.3425 86.769 79.3425C86.5245 79.3425 86.2911 79.2873 86.0688 79.1768C85.9131 79.2652 85.702 79.3094 85.4352 79.3094C84.9906 79.3094 84.6794 79.2099 84.5016 79.011C84.3904 79.1215 84.2237 79.2099 84.0014 79.2762C83.7791 79.3425 83.5457 79.3757 83.3011 79.3757C82.7454 79.3757 82.3675 79.2431 82.1674 78.9779C82.034 79 81.8562 79.011 81.6339 79.011C81.0781 79.011 80.6669 78.9116 80.4001 78.7127C80.1334 78.5138 80 78.2486 80 77.9171C80 77.5414 80.1778 77.1878 80.5335 76.8564C80.8892 76.5028 81.3116 76.326 81.8006 76.326C82.0229 76.326 82.2786 76.3812 82.5676 76.4917C82.7454 76.2928 83.09 76.1934 83.6012 76.1934C84.0236 76.1934 84.3459 76.2707 84.5682 76.4254C84.7461 76.2707 85.0573 76.1934 85.5019 76.1934C85.7909 76.1934 86.0688 76.2265 86.3355 76.2928C86.6245 76.3591 86.8357 76.4475 86.9691 76.558C87.1247 76.337 87.5359 76.2265 88.2028 76.2265C88.803 76.2265 89.1809 76.326 89.3366 76.5249C89.5144 76.3481 89.8256 76.2597 90.2702 76.2597C90.6926 76.2597 90.9593 76.3591 91.0705 76.558C91.3372 76.3591 91.7263 76.2597 92.2376 76.2597C92.8155 76.2597 93.2601 76.3812 93.5713 76.6243Z" fill="black"/>
<path d="M99.7964 86.9006C99.6186 86.6133 99.5296 86.337 99.5296 86.0718C99.5296 85.674 99.663 85.3425 99.9298 85.0773C99.9965 84.7459 100.152 84.4365 100.397 84.1492C100.641 83.8398 100.908 83.6077 101.197 83.453C101.508 83.2762 101.753 83.2099 101.93 83.2541C102.086 83.0111 102.397 82.7901 102.864 82.5912C103.331 82.3702 103.764 82.2597 104.165 82.2597C104.253 82.2597 104.387 82.2818 104.565 82.326C104.809 82.0608 105.132 81.9282 105.532 81.9282C105.843 81.9282 106.065 82.0166 106.199 82.1934C106.488 81.9945 106.866 81.895 107.332 81.895C107.888 81.895 108.377 82.0276 108.8 82.2928C109.244 82.558 109.5 82.9116 109.566 83.3536C109.967 83.4862 110.267 83.6961 110.467 83.9834C110.689 84.2486 110.822 84.6243 110.867 85.1105C111.156 85.3978 111.367 85.7403 111.5 86.1381C111.634 86.5138 111.701 86.9006 111.701 87.2983C111.701 87.8066 111.612 88.2155 111.434 88.5249C111.589 88.7459 111.723 89.0773 111.834 89.5193C111.945 89.9613 112.001 90.3923 112.001 90.8122C112.001 90.989 111.978 91.2099 111.934 91.4751C112.09 91.8066 112.167 92.0276 112.167 92.1381C112.167 92.2044 112.134 92.3591 112.067 92.6022C112.09 92.6906 112.112 92.8011 112.134 92.9337C112.156 93.0442 112.167 93.1878 112.167 93.3646C112.167 93.6961 112.045 93.9945 111.801 94.2597C111.889 94.5028 111.934 94.8011 111.934 95.1547C111.934 95.6188 111.823 95.9945 111.6 96.2818C111.645 96.3702 111.667 96.5138 111.667 96.7127C111.667 97.1768 111.478 97.5635 111.1 97.8729C111.011 98.1823 110.845 98.4254 110.6 98.6022C110.356 98.7569 110.089 98.8343 109.8 98.8343C109.511 98.8343 109.277 98.7459 109.1 98.5691C108.522 98.8122 108.055 98.9337 107.699 98.9337C107.521 98.9337 107.388 98.9227 107.299 98.9006C106.721 99.0773 106.232 99.1657 105.832 99.1657C105.543 99.1657 105.143 99.1105 104.631 99C104.32 99.1768 104.02 99.2652 103.731 99.2652C103.464 99.2652 103.22 99.1878 102.998 99.0332C102.886 99.0552 102.72 99.0663 102.497 99.0663C101.63 99.0663 100.963 98.6796 100.497 97.9061C99.6519 97.4199 99.2295 96.6906 99.2295 95.7182C99.2295 95.4751 99.2407 95.2873 99.2629 95.1547C99.0628 95.0221 98.9628 94.7459 98.9628 94.326C98.9628 94.0387 99.0184 93.7845 99.1295 93.5635C99.0406 93.1657 98.9961 92.9116 98.9961 92.8011C98.9961 92.1602 99.3073 91.5856 99.9298 91.0773C100.174 90.5691 100.452 90.2265 100.763 90.0497C101.097 89.8729 101.508 89.7403 101.997 89.6519C102.131 89.2762 102.442 89.0221 102.931 88.8895C103.42 88.7569 103.898 88.7127 104.365 88.7569C104.498 88.6685 104.687 88.5912 104.932 88.5249C105.176 88.4365 105.421 88.3923 105.665 88.3923C105.932 88.3923 106.165 88.4365 106.365 88.5249C106.41 88.4807 106.521 88.4586 106.699 88.4586C106.832 88.4586 106.966 88.4696 107.099 88.4917C107.232 88.5138 107.321 88.547 107.366 88.5912C107.677 88.1934 108.044 87.9945 108.466 87.9945C108.599 87.9945 108.733 88.0276 108.866 88.0939V87.9945C108.866 87.6188 108.944 87.3536 109.1 87.1989C108.877 87.1326 108.633 86.9448 108.366 86.6354C108.121 86.3039 107.977 86.0055 107.933 85.7403C107.577 85.5856 107.332 85.3315 107.199 84.9779C106.932 85.1768 106.621 85.2762 106.265 85.2762C106.021 85.2762 105.787 85.2099 105.565 85.0773C105.187 85.1878 104.943 85.232 104.831 85.2099C104.52 85.4309 104.176 85.5414 103.798 85.5414C103.464 85.9834 103.075 86.1823 102.631 86.1381C102.431 86.4917 102.153 86.8011 101.797 87.0663C101.464 87.3315 101.119 87.4641 100.763 87.4641C100.363 87.4641 100.041 87.2762 99.7964 86.9006ZM101.63 94.2928C101.897 94.558 102.031 94.8122 102.031 95.0552C102.031 95.232 101.986 95.453 101.897 95.7182C101.986 95.7182 102.108 95.7735 102.264 95.884C102.442 95.9724 102.542 96.0718 102.564 96.1823C102.742 96.116 102.964 96.0829 103.231 96.0829C103.72 96.0829 104.042 96.1934 104.198 96.4144C104.442 96.326 104.698 96.2818 104.965 96.2818C105.387 96.2818 105.721 96.4033 105.965 96.6464C106.143 96.4696 106.432 96.326 106.832 96.2155C107.255 96.105 107.632 96.0497 107.966 96.0497C108.166 95.6519 108.522 95.4199 109.033 95.3536C109.077 95.1989 109.2 95 109.4 94.7569C109.311 94.6243 109.233 94.4475 109.166 94.2265C109.1 94.0055 109.066 93.7845 109.066 93.5635C109.066 93.0994 109.177 92.7569 109.4 92.5359C109.155 92.2265 109.033 91.8619 109.033 91.442C109.033 91.1547 109.077 90.9116 109.166 90.7127C108.988 90.8232 108.788 90.8785 108.566 90.8785C108.366 90.8785 108.199 90.8011 108.066 90.6464C107.866 90.8453 107.588 90.9448 107.232 90.9448C107.01 90.9448 106.788 90.8895 106.565 90.779C106.321 91.0221 106.021 91.1436 105.665 91.1436C105.554 91.1436 105.387 91.0994 105.165 91.0111C104.831 91.3425 104.531 91.442 104.265 91.3094C104.131 91.6188 103.953 91.8287 103.731 91.9392C103.531 92.0497 103.242 92.105 102.864 92.105C102.775 92.3481 102.62 92.547 102.397 92.7017C102.197 92.8564 101.986 92.9116 101.764 92.8674C101.875 93.0221 101.93 93.1989 101.93 93.3978C101.93 93.7293 101.83 94.0276 101.63 94.2928Z" fill="black"/>
<path d="M117.03 99.5635C116.875 99.6298 116.719 99.663 116.564 99.663C116.186 99.663 115.886 99.5083 115.663 99.1989C115.463 98.8674 115.363 98.4807 115.363 98.0387C115.363 97.8619 115.408 97.6188 115.497 97.3094C115.363 97.0663 115.297 96.8232 115.297 96.5801C115.297 96.3812 115.352 96.1492 115.463 95.884C115.397 95.7514 115.363 95.5856 115.363 95.3867C115.363 95.1215 115.441 94.8785 115.597 94.6575C115.53 94.4807 115.497 94.3149 115.497 94.1602C115.497 93.9392 115.541 93.7514 115.63 93.5967C115.452 93.3094 115.363 92.9669 115.363 92.5691C115.363 92.0608 115.485 91.6961 115.73 91.4751C115.53 91.011 115.43 90.5801 115.43 90.1823C115.43 89.9613 115.474 89.6961 115.563 89.3867C115.497 89.1215 115.463 88.8785 115.463 88.6575C115.463 88.3039 115.552 87.9503 115.73 87.5967C115.552 87.3094 115.463 87.0552 115.463 86.8343C115.463 86.5912 115.552 86.3812 115.73 86.2044C115.597 85.9613 115.53 85.6851 115.53 85.3757C115.53 85.0663 115.597 84.8674 115.73 84.779C115.508 84.5359 115.397 84.2486 115.397 83.9171C115.397 83.453 115.563 83.1105 115.897 82.8895C115.986 82.6022 116.13 82.3923 116.33 82.2597C116.53 82.1271 116.753 82.0608 116.997 82.0608C117.353 82.0608 117.675 82.1823 117.964 82.4254C118.253 82.6685 118.398 82.9669 118.398 83.3204C118.398 83.5635 118.32 83.7956 118.164 84.0166C118.253 84.2597 118.298 84.5138 118.298 84.779C118.298 85.0884 118.253 85.3646 118.164 85.6077C118.231 85.8287 118.264 86.0387 118.264 86.2376C118.264 86.4807 118.209 86.7017 118.098 86.9006C118.253 87.1436 118.331 87.4199 118.331 87.7293C118.331 87.9503 118.286 88.1602 118.198 88.3591C118.264 88.4917 118.298 88.6575 118.298 88.8564C118.298 89.1436 118.22 89.4862 118.064 89.884C118.153 90.0608 118.209 90.1934 118.231 90.2818C118.498 90.1271 118.776 90.0718 119.065 90.116C119.176 89.9834 119.309 89.8729 119.465 89.7845C119.642 89.6961 119.809 89.6519 119.965 89.6519C120.165 89.3204 120.409 89 120.698 88.6906C120.987 88.3591 121.254 88.1602 121.499 88.0939C121.588 87.8287 121.788 87.5746 122.099 87.3315C122.432 87.0663 122.732 86.9116 122.999 86.8674C123.088 86.6243 123.255 86.4365 123.499 86.3039C123.744 86.1492 123.988 86.0829 124.233 86.105C124.477 85.7735 124.744 85.4751 125.033 85.2099C125.344 84.9448 125.645 84.7901 125.934 84.7459C126.022 84.4144 126.223 84.1271 126.534 83.884C126.867 83.6409 127.19 83.5193 127.501 83.5193C127.59 83.5193 127.701 83.5414 127.834 83.5856C127.99 83.5193 128.157 83.4862 128.334 83.4862C128.69 83.4862 128.968 83.6188 129.168 83.884C129.368 84.1492 129.468 84.4586 129.468 84.8122C129.468 85.1657 129.357 85.4641 129.135 85.7072C128.935 85.9282 128.623 86.0276 128.201 86.0055C128.068 86.1823 127.79 86.4254 127.367 86.7348C126.945 87.0442 126.645 87.2099 126.467 87.232C126.467 87.5856 126.323 87.9171 126.034 88.2265C125.767 88.5138 125.433 88.6685 125.033 88.6906C124.9 88.9116 124.711 89.0773 124.466 89.1878C124.222 89.2983 123.977 89.3315 123.733 89.2873C123.688 89.5525 123.566 89.7845 123.366 89.9834C123.166 90.1823 122.944 90.3039 122.699 90.3481C122.366 90.9448 122.021 91.3425 121.665 91.5414C122.043 91.6077 122.432 91.7956 122.832 92.105C123.233 92.4144 123.477 92.7348 123.566 93.0663C123.966 93.221 124.233 93.5083 124.366 93.9282C124.589 94.0166 124.778 94.1492 124.933 94.326C125.111 94.5028 125.211 94.7127 125.233 94.9558C125.567 94.9779 125.911 95.1547 126.267 95.4862C126.623 95.7956 126.845 96.1381 126.934 96.5138C127.134 96.6022 127.312 96.7348 127.467 96.9116C127.623 97.0663 127.712 97.2431 127.734 97.442C127.956 97.6851 128.068 97.9503 128.068 98.2376C128.068 98.5691 127.923 98.8674 127.634 99.1326C127.345 99.3978 127.023 99.5304 126.667 99.5304C126.2 99.5304 125.856 99.2873 125.633 98.8011C125.278 98.779 124.989 98.6243 124.766 98.337C124.566 98.0497 124.489 97.7293 124.533 97.3757C124.2 97.4199 123.866 97.3425 123.533 97.1436C123.199 96.9448 122.977 96.6354 122.866 96.2155C122.332 95.9945 122.032 95.6188 121.966 95.0884C121.588 94.9116 121.365 94.6243 121.299 94.2265C120.943 94.1823 120.621 93.9945 120.332 93.663C120.065 93.3315 119.943 92.9779 119.965 92.6022C119.898 92.6243 119.787 92.6354 119.631 92.6354C119.387 93.0331 119.02 93.232 118.531 93.232C118.353 93.232 118.22 93.221 118.131 93.1989C118.175 93.2431 118.198 93.3646 118.198 93.5635C118.198 93.8066 118.164 94.0276 118.098 94.2265C118.186 94.3812 118.231 94.558 118.231 94.7569C118.231 94.9558 118.186 95.1326 118.098 95.2873C118.209 95.5525 118.264 95.7845 118.264 95.9834C118.264 96.2928 118.186 96.5359 118.031 96.7127C118.098 96.8674 118.131 97.0663 118.131 97.3094C118.131 97.7514 118.02 98.2155 117.797 98.7017C117.597 99.1657 117.342 99.453 117.03 99.5635Z" fill="black"/>
<path d="M140.019 96.0497C139.819 95.9171 139.719 95.663 139.719 95.2873C139.719 95.0884 139.752 94.9006 139.819 94.7238C139.886 94.547 139.975 94.4144 140.086 94.326C139.952 94.1713 139.886 93.9282 139.886 93.5967C139.886 93.2873 139.952 92.9669 140.086 92.6354C140.219 92.3039 140.341 92.0829 140.453 91.9724C140.364 91.9503 140.286 91.884 140.219 91.7735C140.153 91.663 140.119 91.5193 140.119 91.3425C140.119 91.2099 140.164 91.011 140.253 90.7459C140.008 90.4807 139.886 90.0829 139.886 89.5525C139.886 89.0221 139.997 88.558 140.219 88.1602C140.019 87.7624 139.919 87.3867 139.919 87.0332C139.919 86.6796 140.03 86.3812 140.253 86.1381C140.164 86.0939 140.086 85.9724 140.019 85.7735C139.952 85.5525 139.919 85.3315 139.919 85.1105C139.919 84.6243 140.075 84.3039 140.386 84.1492C140.542 83.5746 140.931 83.2873 141.553 83.2873C141.82 83.2873 142.12 83.3536 142.453 83.4862C142.676 83.2873 142.92 83.1436 143.187 83.0552C143.476 82.9448 143.743 82.9116 143.987 82.9558C144.232 82.7127 144.587 82.5912 145.054 82.5912C145.365 82.5912 145.632 82.6796 145.854 82.8564C146.032 82.8122 146.266 82.7901 146.555 82.7901C146.821 82.7901 147.055 82.8453 147.255 82.9558C147.455 83.0663 147.7 83.2652 147.989 83.5525C148.055 83.5304 148.144 83.5193 148.255 83.5193C148.678 83.5193 149.011 83.6851 149.256 84.0166C149.367 83.9945 149.5 83.9834 149.656 83.9834C150.056 83.9834 150.389 84.1492 150.656 84.4807C150.923 84.5691 151.123 84.7348 151.256 84.9779C151.412 85.1989 151.468 85.4641 151.423 85.7735C151.734 86.0387 151.89 86.3702 151.89 86.768C151.89 86.9227 151.857 87.0884 151.79 87.2652C152.012 87.5746 152.123 87.9392 152.123 88.3591C152.123 88.7569 152.001 89.0663 151.756 89.2873C151.734 89.7956 151.401 90.1713 150.756 90.4144C151.201 90.547 151.568 90.8232 151.857 91.2431C152.146 91.663 152.268 92.0939 152.223 92.5359C152.379 92.9558 152.457 93.3757 152.457 93.7956C152.457 94.3702 152.323 94.8453 152.057 95.221C152.079 95.6409 151.957 96.0276 151.69 96.3812C151.445 96.7348 151.09 97.0221 150.623 97.2431C150.534 97.4862 150.367 97.6851 150.123 97.8398C149.9 97.9724 149.667 98.0276 149.422 98.0055C149.022 98.2486 148.6 98.3702 148.155 98.3702C148.022 98.3702 147.922 98.3591 147.855 98.337C147.611 98.6464 147.277 98.8011 146.855 98.8011C146.699 98.8011 146.555 98.768 146.421 98.7017C145.999 98.989 145.577 99.1326 145.154 99.1326C144.799 99.1326 144.51 99.0111 144.287 98.768C144.198 98.8122 144.076 98.8343 143.92 98.8343C143.832 99.0553 143.676 99.232 143.454 99.3646C143.254 99.4972 143.031 99.5635 142.787 99.5635C142.542 99.5635 142.32 99.4972 142.12 99.3646C141.786 99.3646 141.509 99.2541 141.286 99.0332C141.064 98.8122 140.931 98.5359 140.886 98.2044C140.642 98.0497 140.419 97.8066 140.219 97.4751C140.041 97.1215 139.952 96.779 139.952 96.4475C139.952 96.3591 139.975 96.2265 140.019 96.0497ZM143.954 85.442C143.887 85.5083 143.698 85.6077 143.387 85.7403C143.076 85.8729 142.898 85.9503 142.853 85.9724C142.898 86.1492 142.92 86.2818 142.92 86.3702C142.92 86.7238 142.798 87.0221 142.553 87.2652C142.709 87.442 142.787 87.7072 142.787 88.0608C142.787 88.3923 142.709 88.7348 142.553 89.0884C142.642 89.221 142.698 89.4199 142.72 89.6851C142.765 89.9282 142.809 90.105 142.853 90.2155C143.009 90.0829 143.276 90.0166 143.654 90.0166C143.898 90.0166 144.132 90.0608 144.354 90.1492C144.754 90.0166 145.121 89.9503 145.454 89.9503L145.854 89.9834C146.366 89.674 146.921 89.5193 147.522 89.5193L147.855 89.5525C148.1 89.1105 148.644 88.6906 149.489 88.2928C149.267 88.0718 149.156 87.8066 149.156 87.4972C149.156 87.3425 149.189 87.1878 149.256 87.0332C149.1 86.8564 149.011 86.6796 148.989 86.5028C148.767 86.547 148.544 86.5249 148.322 86.4365C148.122 86.326 147.977 86.1823 147.888 86.0055C147.8 86.0276 147.677 86.0387 147.522 86.0387C147.233 86.0387 146.966 85.9724 146.721 85.8398C146.477 85.7072 146.31 85.5304 146.221 85.3094C146.155 85.3315 146.055 85.3425 145.921 85.3425C145.743 85.3425 145.577 85.3094 145.421 85.2431C145.043 85.442 144.554 85.5083 143.954 85.442ZM147.422 95.8508C147.622 95.8508 147.744 95.8619 147.788 95.884C148.1 95.6188 148.433 95.5193 148.789 95.5856C149.1 95.0994 149.345 94.8674 149.522 94.8895C149.433 94.4696 149.567 94.0387 149.923 93.5967C149.789 93.4862 149.689 93.3425 149.622 93.1657C149.556 92.989 149.545 92.8122 149.589 92.6354H149.456C149.211 92.6354 148.933 92.5028 148.622 92.2376C148.533 92.2597 148.378 92.2707 148.155 92.2707C147.866 92.2707 147.644 92.2376 147.488 92.1713C147.333 92.2818 147.122 92.3702 146.855 92.4365C146.61 92.5028 146.455 92.547 146.388 92.5691C146.032 92.7017 145.666 92.768 145.288 92.768C145.154 92.768 144.954 92.7459 144.687 92.7017C144.265 92.9448 143.82 93.0663 143.354 93.0663C143.109 93.0663 142.92 93.0331 142.787 92.9669C142.698 93.011 142.642 93.0773 142.62 93.1657C142.598 93.2541 142.576 93.3204 142.553 93.3646C142.798 93.6298 142.92 93.9392 142.92 94.2928C142.92 94.6685 142.765 94.9779 142.453 95.221C142.609 95.3978 142.687 95.6409 142.687 95.9503C142.687 96.105 142.653 96.2707 142.587 96.4475L142.687 96.6464C142.887 96.5359 143.142 96.4365 143.454 96.3481C143.765 96.2597 144.065 96.2155 144.354 96.2155C144.71 96.2155 144.999 96.2928 145.221 96.4475C145.465 96.0939 145.799 95.9171 146.221 95.9171C146.421 95.9171 146.599 95.9613 146.755 96.0497C146.888 95.9613 147.033 95.895 147.188 95.8508H147.422Z" fill="black"/>
<path d="M164.967 99.3646C164.701 99.6298 164.289 99.7624 163.734 99.7624C163.311 99.7624 162.967 99.6961 162.7 99.5635C162.3 99.6519 161.944 99.6961 161.633 99.6961C160.766 99.6961 160.143 99.4751 159.766 99.0332C159.677 99.0552 159.554 99.0663 159.399 99.0663C158.887 99.0663 158.498 98.8343 158.232 98.3702C158.009 98.3923 157.72 98.2818 157.365 98.0387C157.031 97.7735 156.887 97.5193 156.931 97.2762C156.576 97.1878 156.275 96.9779 156.031 96.6464C155.809 96.2928 155.709 95.895 155.731 95.453C155.486 95.3646 155.297 95.1878 155.164 94.9227C155.031 94.6575 154.964 94.3591 154.964 94.0276C154.964 93.674 155.019 93.4199 155.131 93.2652C154.886 92.8895 154.764 92.4586 154.764 91.9724C154.764 91.4641 154.919 91.0552 155.231 90.7459C154.986 90.5691 154.864 90.3039 154.864 89.9503C154.864 89.7293 154.919 89.5083 155.031 89.2873C155.142 89.0663 155.286 88.9116 155.464 88.8232C155.42 88.5138 155.453 88.2265 155.564 87.9613C155.697 87.674 155.875 87.4641 156.098 87.3315C156.053 87.2652 156.031 87.1657 156.031 87.0332C156.031 86.8343 156.098 86.6354 156.231 86.4365C156.387 86.2376 156.553 86.116 156.731 86.0718C156.709 86.0055 156.698 85.9171 156.698 85.8066C156.698 85.3425 156.876 84.9448 157.231 84.6133C157.587 84.2597 157.932 84.105 158.265 84.1492C158.265 83.8398 158.398 83.5856 158.665 83.3867C158.954 83.1657 159.321 83.0552 159.766 83.0552C159.966 83.0552 160.121 83.0663 160.232 83.0884C160.388 82.7569 160.655 82.4917 161.033 82.2928C161.411 82.0718 161.8 81.9613 162.2 81.9613C162.466 81.9613 162.689 82.0166 162.867 82.1271C163.178 81.8619 163.567 81.7293 164.034 81.7293C164.412 81.7293 164.745 81.8177 165.034 81.9945C165.345 82.1713 165.534 82.4144 165.601 82.7238C165.957 82.7238 166.334 82.8564 166.735 83.1215C167.135 83.3646 167.368 83.6188 167.435 83.884C167.968 84.0387 168.48 84.3812 168.969 84.9116C169.48 85.4199 169.736 85.9392 169.736 86.4696C169.736 86.558 169.713 86.6906 169.669 86.8674C170.625 87.0663 171.058 88.0276 170.969 89.7514C171.169 90.0829 171.269 90.4365 171.269 90.8122C171.269 91.2541 171.125 91.6961 170.836 92.1381C170.903 92.337 170.936 92.5249 170.936 92.7017C170.936 92.9669 170.88 93.221 170.769 93.4641C170.658 93.7072 170.514 93.895 170.336 94.0276C170.358 94.3812 170.291 94.6685 170.136 94.8895C170.002 95.1105 169.747 95.4088 169.369 95.7845C169.391 95.8729 169.402 96.0055 169.402 96.1823C169.402 96.8453 169.024 97.2762 168.268 97.4751C168.202 97.8287 168.013 98.116 167.702 98.337C167.413 98.558 167.057 98.6685 166.635 98.6685C166.279 99.1547 165.845 99.3978 165.334 99.3978C165.178 99.3978 165.056 99.3867 164.967 99.3646ZM161.833 97.0442C162.011 96.8895 162.311 96.8122 162.733 96.8122C163.044 96.8122 163.211 96.8564 163.233 96.9448C163.411 96.7459 163.634 96.5912 163.9 96.4807C164.167 96.3702 164.412 96.326 164.634 96.3481C165.012 95.9724 165.423 95.7845 165.868 95.7845C166.023 95.7845 166.134 95.7956 166.201 95.8177C166.179 95.6188 166.234 95.4309 166.368 95.2541C166.501 95.0552 166.657 94.9227 166.835 94.8564C166.835 94.5691 166.901 94.326 167.035 94.1271C167.19 93.9061 167.379 93.7403 167.602 93.6298C167.602 93.1878 167.69 92.8343 167.868 92.5691C167.802 92.3923 167.768 92.2155 167.768 92.0387C167.768 91.7956 167.824 91.5635 167.935 91.3425C168.046 91.0994 168.202 90.9006 168.402 90.7459C168.18 90.547 168.068 90.3039 168.068 90.0166C168.068 89.7514 168.146 89.4862 168.302 89.221C167.857 88.9558 167.557 88.7017 167.401 88.4586C167.268 88.1934 167.201 87.7182 167.201 87.0332C167.001 87.0552 166.79 86.9448 166.568 86.7017C166.368 86.4586 166.246 86.1823 166.201 85.8729C165.957 85.9392 165.656 85.8729 165.301 85.674C164.967 85.453 164.801 85.1768 164.801 84.8453C164.623 84.9337 164.412 84.9779 164.167 84.9779C163.7 84.9779 163.322 84.8122 163.033 84.4807C162.789 84.7238 162.466 84.9227 162.066 85.0773C161.688 85.2099 161.355 85.2541 161.066 85.2099C161.044 85.4309 160.844 85.6961 160.466 86.0055C160.11 86.2928 159.788 86.4807 159.499 86.5691C159.565 86.7017 159.599 86.8564 159.599 87.0332C159.599 87.2541 159.543 87.4751 159.432 87.6961C159.321 87.9171 159.165 88.105 158.965 88.2597C158.987 88.5691 158.91 88.8674 158.732 89.1547C158.576 89.442 158.354 89.6409 158.065 89.7514C158.109 89.9282 158.132 90.0718 158.132 90.1823C158.132 90.4917 158.054 90.7348 157.898 90.9116C157.965 91.0663 157.998 91.221 157.998 91.3757C157.998 91.6188 157.876 91.884 157.631 92.1713C158.187 92.547 158.465 93.0884 158.465 93.7956C158.465 94.1713 158.398 94.4917 158.265 94.7569C158.487 94.779 158.643 94.8453 158.732 94.9558C158.821 95.0663 158.899 95.2431 158.965 95.4862C159.521 95.5525 159.932 95.8177 160.199 96.2818C160.444 96.2818 160.744 96.3591 161.099 96.5138C161.477 96.6685 161.722 96.8453 161.833 97.0442Z" fill="black"/>
<path d="M174.774 85.0773C174.596 85.1657 174.408 85.2099 174.207 85.2099C173.852 85.2099 173.563 85.0663 173.341 84.779C173.14 84.4917 173.04 84.1602 173.04 83.7845C173.04 83.4751 173.129 83.2099 173.307 82.9889C173.485 82.768 173.752 82.6464 174.107 82.6243C174.419 82.3812 174.797 82.2597 175.241 82.2597C175.708 82.2597 176.075 82.4144 176.342 82.7238C176.43 82.5249 176.586 82.3702 176.808 82.2597C177.031 82.1492 177.286 82.0939 177.575 82.0939C177.82 82.0939 178.053 82.1381 178.276 82.2265C178.498 82.3149 178.676 82.4365 178.809 82.5912C179.054 82.2155 179.431 82.0276 179.943 82.0276C180.454 82.0276 180.843 82.2265 181.11 82.6243C181.421 82.4696 181.788 82.3923 182.21 82.3923C182.321 82.3923 182.466 82.4144 182.644 82.4586C182.933 82.2376 183.244 82.1271 183.577 82.1271C183.889 82.1271 184.222 82.2044 184.578 82.3591C184.911 82.1381 185.345 82.0276 185.878 82.0276C186.123 82.0276 186.323 82.0608 186.478 82.1271C186.701 81.9724 186.934 81.895 187.179 81.895C187.534 81.895 187.834 82.0497 188.079 82.3591C188.346 82.6464 188.479 82.9669 188.479 83.3204C188.479 83.8287 188.235 84.1934 187.745 84.4144C187.501 84.8564 187.123 85.0773 186.612 85.0773C186.301 85.0773 186 84.9558 185.711 84.7127C185.467 84.9779 185.167 85.1105 184.811 85.1105C184.522 85.1105 184.133 85 183.644 84.779C183.4 84.9558 183.144 85.0442 182.877 85.0442C182.699 85.0442 182.51 85.011 182.31 84.9448C181.843 85.1878 181.41 85.2983 181.01 85.2762C181.076 85.4972 181.11 85.8177 181.11 86.2376C181.11 86.6796 181.065 87 180.976 87.1989C181.177 87.4862 181.277 87.7514 181.277 87.9945C181.277 88.1934 181.21 88.4144 181.076 88.6575C181.143 88.7901 181.177 88.9558 181.177 89.1547C181.177 89.3536 181.132 89.5414 181.043 89.7182C181.154 89.9171 181.254 90.2376 181.343 90.6796C181.432 91.1215 181.477 91.5414 181.477 91.9392C181.477 92.3812 181.421 92.7127 181.31 92.9337C181.399 93.0884 181.443 93.2762 181.443 93.4972C181.443 93.8066 181.343 94.0829 181.143 94.326C181.365 94.547 181.477 94.8343 181.477 95.1878C181.477 95.5193 181.399 95.8066 181.243 96.0497C181.332 96.2044 181.377 96.4033 181.377 96.6464C181.377 97 181.299 97.3536 181.143 97.7072C181.299 97.9503 181.377 98.1934 181.377 98.4365C181.377 98.7901 181.221 99.0884 180.91 99.3315C180.621 99.5746 180.298 99.6961 179.943 99.6961C179.654 99.6961 179.409 99.6188 179.209 99.4641C179.009 99.2873 178.865 99.0332 178.776 98.7017C178.509 98.4365 178.376 98.105 178.376 97.7072C178.376 97.3757 178.487 97.0552 178.709 96.7459C178.598 96.5249 178.542 96.326 178.542 96.1492C178.542 95.9061 178.62 95.6409 178.776 95.3536C178.62 95.2652 178.498 95.1215 178.409 94.9227C178.342 94.7238 178.309 94.5138 178.309 94.2928C178.309 93.8729 178.442 93.5193 178.709 93.232C178.642 92.8343 178.609 92.5912 178.609 92.5028C178.609 92.2597 178.665 92.0276 178.776 91.8066C178.665 91.6298 178.609 91.4088 178.609 91.1436C178.609 90.9227 178.631 90.7569 178.676 90.6464C178.453 90.4696 178.342 90.1823 178.342 89.7845C178.342 89.5193 178.409 89.3204 178.542 89.1878C178.453 88.9669 178.409 88.8011 178.409 88.6906C178.409 88.5359 178.464 88.326 178.576 88.0608C178.353 87.6851 178.242 87.1657 178.242 86.5028C178.242 85.9061 178.309 85.442 178.442 85.1105C178.176 85.1105 177.931 85.0221 177.709 84.8453C177.442 85.1768 176.908 85.3425 176.108 85.3425C175.53 85.3425 175.086 85.2541 174.774 85.0773Z" fill="black"/>
<path d="M199.008 86.8343C199.097 87.1436 199.264 87.3867 199.509 87.5635C199.753 87.7182 200.042 87.7956 200.376 87.7956C200.776 87.7956 201.131 87.674 201.443 87.4309C201.776 87.1878 201.943 86.8564 201.943 86.4365C201.943 85.9945 201.732 85.5193 201.309 85.0111C200.887 84.5028 200.442 84.2486 199.975 84.2486C199.575 84.2486 199.231 84.4144 198.942 84.7459C198.653 85.0773 198.508 85.442 198.508 85.8398C198.508 86.2376 198.675 86.5691 199.008 86.8343ZM199.275 99.2652C198.897 99.1326 198.608 98.9558 198.408 98.7348C198.23 98.4917 198.141 98.2265 198.141 97.9392C198.141 97.5856 198.275 97.2652 198.542 96.9779C198.831 96.6685 199.175 96.5138 199.575 96.5138C199.975 96.5138 200.409 96.7127 200.876 97.1105C201.209 97.221 201.476 97.4751 201.676 97.8729C201.898 98.2486 202.009 98.6464 202.009 99.0663C202.009 99.3757 201.954 99.6188 201.843 99.7956C201.576 100.193 201.187 100.392 200.676 100.392C200.342 100.392 200.042 100.293 199.775 100.094C199.509 99.895 199.342 99.6188 199.275 99.2652Z" fill="black"/>
<path d="M205.097 77.4862C204.875 77.4199 204.653 77.2652 204.43 77.0221C204.297 76.8232 204.23 76.6022 204.23 76.3591C204.23 76.0055 204.364 75.6961 204.63 75.4309C204.897 75.1436 205.197 75 205.531 75C205.798 75 206.009 75.0663 206.164 75.1989C206.52 75.1768 206.82 75.2873 207.065 75.5304C207.331 75.7735 207.454 76.0718 207.431 76.4254C207.609 76.558 207.743 76.7348 207.832 76.9558C207.943 77.1768 207.987 77.3978 207.965 77.6188C208.276 77.663 208.532 77.8066 208.732 78.0497C208.932 78.2707 209.032 78.5359 209.032 78.8453C209.21 78.8895 209.388 79.0111 209.565 79.2099C209.743 79.3867 209.866 79.5635 209.932 79.7403C210.155 79.8287 210.388 80.1492 210.633 80.7017C211.099 81.0773 211.366 81.4641 211.433 81.8619C211.588 82.0387 211.666 82.2707 211.666 82.558C211.666 82.8895 211.577 83.1547 211.399 83.3536C211.511 83.3978 211.588 83.5083 211.633 83.6851C211.677 83.8619 211.677 84.0276 211.633 84.1823C211.833 84.2928 211.989 84.4586 212.1 84.6796C212.211 84.8785 212.266 85.0994 212.266 85.3425C212.266 85.5193 212.233 85.7072 212.166 85.9061C212.322 86.1492 212.4 86.3702 212.4 86.5691C212.4 86.7459 212.355 86.9337 212.266 87.1326C212.355 87.2873 212.4 87.4641 212.4 87.663C212.4 87.7956 212.389 87.9061 212.366 87.9945C212.611 88.2376 212.733 88.7127 212.733 89.4199C212.733 89.663 212.711 89.9171 212.667 90.1823C212.889 90.4254 213 90.779 213 91.2431C213 91.7514 212.878 92.1492 212.633 92.4365C212.655 92.5028 212.667 92.6022 212.667 92.7348C212.667 93.0663 212.578 93.3757 212.4 93.663C212.289 94.1713 212.111 94.5691 211.866 94.8564C212.022 95.0773 212.1 95.3094 212.1 95.5525C212.1 95.8619 212 96.116 211.8 96.3149C211.866 96.5138 211.9 96.7238 211.9 96.9448C211.9 97.2541 211.811 97.5635 211.633 97.8729C211.611 98.0939 211.533 98.2707 211.399 98.4033C211.288 98.5359 211.099 98.6906 210.833 98.8674C210.699 99.3315 210.421 99.8066 209.999 100.293C209.71 101 209.31 101.707 208.799 102.414C208.687 102.724 208.51 103.055 208.265 103.409C208.021 103.785 207.776 104.039 207.531 104.171C207.198 104.724 206.787 105 206.298 105C205.986 105 205.72 104.89 205.497 104.669C205.297 104.448 205.197 104.16 205.197 103.807C205.197 103.254 205.453 102.757 205.964 102.315C206.209 101.541 206.787 100.646 207.698 99.6298C207.809 99.1878 208.021 98.7127 208.332 98.2044C208.643 97.6961 208.965 97.3536 209.299 97.1768C209.299 97.0884 209.288 96.8674 209.265 96.5138C209.265 96.1381 209.332 95.8287 209.465 95.5856C209.354 95.3646 209.299 95.1547 209.299 94.9558C209.299 94.7127 209.343 94.4696 209.432 94.2265C209.543 93.9834 209.666 93.7403 209.799 93.4972C209.932 93.232 210.032 93.0221 210.099 92.8674C209.966 92.6685 209.899 92.4586 209.899 92.2376C209.899 91.8398 210.066 91.5083 210.399 91.2431C210.243 90.9779 210.166 90.7127 210.166 90.4475L210.199 90.1492C210.132 89.884 210.099 89.7072 210.099 89.6188C210.099 89.442 210.132 89.3094 210.199 89.221C210.088 89.0884 209.988 88.8232 209.899 88.4254C209.81 88.0276 209.766 87.6851 209.766 87.3978C209.766 87.221 209.777 87.0994 209.799 87.0332C209.599 86.7901 209.499 86.5028 209.499 86.1713C209.499 85.9724 209.521 85.8287 209.565 85.7403C209.232 85.2541 209.043 84.7238 208.999 84.1492C208.732 83.7514 208.598 83.2541 208.598 82.6575C208.598 82.4365 208.61 82.2818 208.632 82.1934C208.432 82.0829 208.209 81.895 207.965 81.6298C207.72 81.3425 207.554 81.0994 207.465 80.9006C207.198 80.8564 206.976 80.7348 206.798 80.5359C206.62 80.337 206.509 80.105 206.464 79.8398C206.22 79.7072 205.998 79.4641 205.798 79.1105C205.597 78.7348 205.509 78.4033 205.531 78.116C205.331 77.9613 205.186 77.7514 205.097 77.4862Z" fill="black"/>
</svg>
