<svg width="293" height="219" viewBox="0 0 293 219" fill="none" xmlns="http://www.w3.org/2000/svg">
<path d="M72.3182 22.8534C126.691 4.40007 156.028 2.0934 163.9 3.24673C226.567 0.478789 262.97 25.5445 273.338 38.4233C301.446 73.4847 287.737 110.699 277.369 124.923C270.918 140.147 220.539 155.102 196.155 160.677L219.195 212L157.564 170.48L80.958 179.707C22.4378 179.245 4.7358 130.306 3.19984 105.893C-0.486478 64.3733 47.7428 33.2334 72.3182 22.8534Z" fill="white" stroke="black" stroke-width="5"/>
<path d="M51.352 82.4064C51.0669 82.0481 50.8752 81.6384 50.7768 81.1773C50.6783 80.7163 50.686 80.264 50.7999 79.8205C50.7657 79.6602 50.7072 79.484 50.6245 79.2921C50.5575 79.0758 50.509 78.8975 50.4791 78.7572C50.3977 78.3764 50.4902 77.9793 50.7566 77.5662C50.899 77.4519 51.06 77.3756 51.2395 77.3373C51.5387 77.2734 51.8272 77.3061 52.1051 77.4355C52.3986 77.5405 52.737 77.7092 53.1204 77.9418C53.3126 77.6702 53.5754 77.4359 53.9088 77.239C54.2421 77.0421 54.5883 76.9053 54.9473 76.8286C55.4659 76.7179 55.8342 76.7336 56.0522 76.8757C56.4084 76.5901 56.7153 76.3673 56.9732 76.2075C57.251 76.0434 57.5594 75.9251 57.8985 75.8527C58.2176 75.7846 58.5795 75.7702 58.9841 75.8096L61.1383 75.3497C61.5571 75.2603 61.9019 75.3124 62.1727 75.5061C62.4434 75.6998 62.6173 75.9771 62.6944 76.3379C62.7714 76.6987 62.7245 77.065 62.5536 77.4369C62.3984 77.7844 62.1612 77.9922 61.8421 78.0604C61.6825 78.0944 61.4923 78.0826 61.2715 78.025L60.4038 78.2102C60.0477 78.4958 59.6503 78.6855 59.2115 78.7792C58.8126 78.8644 58.482 78.8301 58.2198 78.6765C58.0788 78.8953 57.7854 79.0837 57.3394 79.2417C56.9092 79.3755 56.3749 79.5105 55.7367 79.6468L54.4502 79.9215C54.4231 79.9901 54.3327 80.1037 54.1789 80.2623C54.025 80.4209 53.8584 80.5194 53.6789 80.5577C53.8 80.6367 53.9119 80.77 54.0145 80.9577C54.1171 81.1453 54.192 81.3494 54.2391 81.5699C54.3375 82.031 54.3048 82.4152 54.1411 82.7227L54.3272 83.5946C54.4342 84.0958 54.4878 84.493 54.4878 84.7865C54.5036 85.0556 54.4545 85.4119 54.3407 85.8554C54.5401 85.8128 54.6748 85.8574 54.7446 85.9892C54.8344 86.1167 54.9114 86.3309 54.9756 86.6315C55.0895 86.188 55.2475 85.9028 55.4498 85.7758C55.6678 85.6244 56.0261 85.4955 56.5247 85.3891C56.697 85.1217 56.9627 84.9497 57.3217 84.8731C57.6608 84.8007 57.9636 84.8513 58.2301 85.025C58.3896 84.9909 58.6226 84.9097 58.9288 84.7815C59.2351 84.6532 59.498 84.5657 59.7174 84.5188C60.0365 84.4507 60.2688 84.464 60.4141 84.5587C60.5864 84.2913 61.0117 84.0853 61.6898 83.9405C62.348 83.8 62.9201 83.7931 63.4059 83.9199C63.5513 84.0147 63.7088 84.1173 63.8783 84.2278C64.0679 84.334 64.2595 84.4503 64.4533 84.5766L65.5071 85.2634C66.0002 85.6192 66.3002 86.0477 66.4072 86.5488C66.4629 86.8094 66.4565 87.0727 66.3882 87.3388C66.6304 87.4967 66.7929 87.6716 66.8756 87.8636C66.9782 88.0512 67.0595 88.2854 67.1194 88.566C67.262 88.7452 67.3717 89.0152 67.4488 89.376C67.5429 89.817 67.5374 90.2793 67.4321 90.7629C67.3424 91.2222 67.1651 91.5639 66.9002 91.7882C66.9858 92.1891 66.9645 92.529 66.8363 92.8078C66.7238 93.0624 66.5479 93.2153 66.3086 93.2664C66.3985 93.6873 66.3772 94.0272 66.2447 94.286C66.1323 94.5406 65.9563 94.6934 65.717 94.7445C65.4279 95.2464 65.1736 95.5207 64.9542 95.5676C64.8146 95.5974 64.6721 95.5649 64.5268 95.4702C64.4585 95.7363 64.3474 95.9487 64.1936 96.1073C64.0397 96.2659 63.8631 96.3665 63.6636 96.409C63.3844 96.4687 63.1358 96.4274 62.9177 96.2853C62.5417 96.5752 62.214 96.75 61.9348 96.8096C61.6755 96.8649 61.4247 96.8137 61.1825 96.6558L60.3148 96.8411C60.2237 97.1958 59.7992 97.4542 59.0413 97.616C58.6224 97.7054 58.1929 97.7447 57.7526 97.7339C57.3124 97.7231 57.0096 97.6725 56.8443 97.582C56.672 97.8494 56.4661 98.0086 56.2268 98.0597C55.9276 98.1236 55.6163 98.0328 55.2928 97.7875C54.965 97.5221 54.67 97.1659 54.4077 96.7189L53.8492 94.103C53.7422 93.6018 53.6808 93.2167 53.6651 92.9476C53.6451 92.6584 53.692 92.2921 53.8059 91.8486C53.5878 91.7065 53.4296 91.5517 53.3313 91.384C53.2486 91.1921 53.1751 90.9458 53.111 90.6451C53.0468 90.3444 53.0153 90.0996 53.0167 89.9107C53.0338 89.6975 53.1128 89.4815 53.2538 89.2627C52.7607 88.9069 52.4585 88.4684 52.3473 87.9472C52.2959 87.7067 52.3044 87.4533 52.3727 87.1873C52.1262 87.0093 51.9601 86.7199 51.8745 86.319C51.7846 85.8981 51.7966 85.4658 51.9105 85.0223C51.664 84.8444 51.5172 84.6452 51.4701 84.4247C51.4187 84.1842 51.4714 83.9424 51.628 83.6993L51.352 82.4064ZM58.1109 95.0165C58.6294 94.6124 59.7464 94.2272 61.4617 93.861L63.1969 93.4905C63.2909 93.3447 63.3764 93.1588 63.4533 92.9328C63.523 92.7712 63.5814 92.6539 63.6284 92.581C63.6754 92.5081 63.7587 92.4589 63.8784 92.4333C63.8313 92.2128 63.8783 91.9932 64.0193 91.7745C64.1603 91.5557 64.3405 91.4229 64.5599 91.3761C64.5 91.0955 64.4686 90.8507 64.4656 90.6417C64.4827 90.4285 64.5617 90.2125 64.7027 89.9937C64.5032 90.0363 64.3693 89.8972 64.3008 89.5765C64.228 89.2357 64.27 88.9438 64.4267 88.7008C64.1801 88.5229 64.0355 88.3337 63.9927 88.1332C63.9541 87.9528 64.0346 87.8413 64.2341 87.7987C63.8949 87.5777 63.6363 87.3919 63.4581 87.2413C63.2757 87.0707 63.1631 86.8851 63.1203 86.6847C62.8211 86.7485 62.5675 86.7817 62.3595 86.7842C62.1672 86.7624 61.952 86.6826 61.714 86.5448C61.4947 86.885 60.9462 87.1488 60.0686 87.3362C59.8963 87.6035 59.6207 87.7777 59.2417 87.8586C58.8827 87.9352 58.4403 87.9144 57.9145 87.7961L57.0768 87.9749C56.9201 88.218 56.7485 88.3909 56.5619 88.4936C56.3909 88.572 56.1559 88.6432 55.8567 88.707C55.9166 88.9877 55.9487 89.2847 55.9531 89.5982C55.9731 89.8873 55.9554 90.3417 55.9 90.9614C56.1665 91.135 56.3404 91.4123 56.4217 91.7932C56.4987 92.154 56.4789 92.5984 56.3622 93.1263C56.6287 93.3 56.8026 93.5772 56.8839 93.9581C56.961 94.3189 56.9411 94.7633 56.8244 95.2912L58.1109 95.0165Z" fill="black"/>
<path d="M79.939 87.7154C79.9148 87.993 79.7945 88.2597 79.578 88.5156C79.7891 89.3089 79.6867 89.8547 79.2707 90.1531C79.2993 90.4824 79.2324 90.8529 79.0701 91.2649C78.9078 91.6768 78.6999 91.9727 78.4463 92.1526C78.4634 92.2328 78.4799 92.4074 78.4956 92.6765C78.527 92.9213 78.51 93.1346 78.4445 93.3162C78.3989 93.4936 78.3035 93.6817 78.1583 93.8803C78.4078 94.5606 78.2285 95.3325 77.6203 96.1959C77.7031 96.6813 77.6248 97.0962 77.3856 97.4407C77.1705 97.801 76.87 98.0538 76.4839 98.1991C76.5039 98.4883 76.3523 98.8036 76.0289 99.1451C75.7298 99.5024 75.4107 99.7172 75.0717 99.7896C75.039 100.027 74.7569 100.318 74.2256 100.662C73.7185 101.022 73.3623 101.161 73.1571 101.079C72.687 101.221 72.2823 101.182 71.9432 100.961C71.604 100.74 71.3938 100.439 71.3125 100.058C71.2526 99.7771 71.281 99.5195 71.3978 99.285C71.5145 99.0505 71.7225 98.9013 72.0217 98.8374C72.1214 98.8161 72.2033 98.8091 72.2675 98.8164C72.7361 98.2762 73.1399 97.9699 73.479 97.8975C73.5987 97.872 73.6905 97.8628 73.7547 97.8701C73.7432 97.621 73.8336 97.3607 74.0259 97.0891C74.2224 96.8375 74.4674 96.6175 74.7609 96.4291C74.7181 96.2287 74.7529 96.0012 74.8654 95.7466C74.9779 95.492 75.1289 95.2712 75.3183 95.084C75.2527 94.9723 75.2135 94.8863 75.2007 94.8262C75.1365 94.5255 75.1955 94.1671 75.3778 93.7509C75.5558 93.3147 75.7637 93.0187 76.0016 92.8632C75.4915 92.7206 75.1829 92.3987 75.0759 91.8975C74.8722 91.9201 74.6528 91.8202 74.4176 91.598C74.2024 91.3714 74.0627 91.1078 73.9985 90.8071C73.96 90.6267 73.9735 90.4457 74.039 90.264C73.7184 90.2277 73.4548 90.1163 73.2482 89.9299C73.0615 89.7392 72.936 89.4935 72.8718 89.1928C72.8247 88.9723 72.8176 88.7433 72.8503 88.5057C72.5368 88.405 72.281 88.2815 72.0829 88.1351C71.9048 87.9845 71.8 87.7868 71.7686 87.542C71.4266 87.4054 71.2107 87.1267 71.1208 86.7057C71.078 86.5052 71.0673 86.3084 71.0886 86.1152C70.4744 85.6805 70.101 85.1524 69.9683 84.531C69.9298 84.3506 69.9098 84.2081 69.9083 84.1036C69.5992 84.0229 69.3491 83.8772 69.1581 83.6665C68.9628 83.4357 68.831 83.1599 68.7625 82.8392C68.6983 82.5385 68.6982 82.2451 68.7623 81.959C68.1666 81.7089 67.8217 81.3633 67.7276 80.9223C67.6206 80.4212 67.7544 79.9734 68.129 79.579C68.2829 79.4204 68.4695 79.3177 68.6889 79.2709C68.9881 79.207 69.2809 79.2598 69.5673 79.4292C69.8737 79.5943 70.1209 79.8245 70.3091 80.1196C70.5228 80.2417 70.7259 80.4603 70.9183 80.7755C71.1108 81.0908 71.2391 81.3987 71.3033 81.6994C71.3418 81.8798 71.3575 82.0022 71.3504 82.0666C72.0857 82.5803 72.5176 83.1379 72.6459 83.7392C72.6631 83.8194 72.6731 83.964 72.676 84.173C72.9652 84.2579 73.1997 84.4279 73.3792 84.683C73.5546 84.9181 73.6522 85.1802 73.6722 85.4693C73.9059 85.5871 74.0884 85.7577 74.2195 85.9813C74.3706 86.2005 74.4519 86.4347 74.4633 86.6837C74.6428 86.6454 74.8324 86.7517 75.0319 87.0025C75.2471 87.229 75.3647 87.4869 75.3847 87.776C75.674 87.861 75.8842 88.0152 76.0153 88.2387C76.1422 88.4422 76.2199 88.7085 76.2485 89.0378C76.5249 89.0626 76.708 89.2855 76.7979 89.7065C76.785 89.3529 76.8013 89.0874 76.8468 88.91C76.8924 88.7326 76.9757 88.5367 77.0967 88.3222C77.014 88.1303 76.9663 88.0042 76.9534 87.9441C76.9064 87.7236 76.9099 87.5447 76.964 87.4074C77.0138 87.25 77.1064 87.1464 77.2417 87.0966C77.0806 86.7328 77.1012 86.3406 77.3034 85.9202C77.2179 85.8127 77.1623 85.6988 77.1366 85.5785C77.1066 85.4382 77.1344 85.2751 77.2198 85.0892C77.3209 84.879 77.385 84.7395 77.412 84.6709C77.2153 84.3356 77.0913 84.0477 77.04 83.8071C76.9972 83.6067 76.9964 83.4077 77.0377 83.2103C77.0789 83.0129 77.1615 82.7647 77.2854 82.4658C77.1143 82.2508 76.9775 81.9027 76.8747 81.4216C76.7378 80.7802 76.7433 80.1712 76.8914 79.5946C76.7517 79.331 76.6647 79.119 76.6304 78.9587C76.5791 78.7181 76.594 78.4949 76.6751 78.2889C76.5724 77.8078 76.6407 77.395 76.88 77.0505C77.1192 76.706 77.4284 76.4933 77.8073 76.4124C78.1265 76.3442 78.4214 76.407 78.6922 76.6007C78.9786 76.7701 79.1568 77.0674 79.2267 77.4926C79.4262 77.7435 79.5688 78.0693 79.6544 78.4703C79.8085 79.1919 79.7737 79.8595 79.5502 80.4731C79.6856 80.7167 79.7854 80.9888 79.8496 81.2895C79.9566 81.7906 79.8798 82.3101 79.6192 82.8478C79.6734 83.0039 79.754 83.1858 79.8609 83.3935C79.9678 83.6012 80.0362 83.7753 80.0662 83.9156C80.1304 84.2163 80.0863 84.4981 79.9339 84.7612C80.0936 85.0206 80.0104 85.6566 79.6844 86.6694C79.8155 86.8929 79.8961 87.0748 79.926 87.2151C79.9603 87.3755 79.9646 87.5423 79.939 87.7154Z" fill="black"/>
<path d="M83.9509 92.7694C83.5021 92.4251 83.2262 92.0124 83.1235 91.5313C83.0165 91.0301 83.1062 90.5708 83.3924 90.1534C83.6744 89.7159 84.0348 89.4504 84.4736 89.3567C84.5933 89.3311 84.6852 89.322 84.7493 89.3293C84.812 89.2321 84.8604 89.1169 84.8945 88.9839C84.9444 88.8265 84.9885 88.6913 85.0269 88.5783C85.0853 88.4611 85.18 88.3675 85.3111 88.2976C85.2997 88.3419 85.3858 88.0616 85.5695 87.4565C85.5053 87.1558 85.6007 86.821 85.8556 86.4522C85.8185 86.3763 85.785 86.2682 85.7551 86.1279C85.678 85.767 85.705 85.405 85.836 85.0417C85.9826 84.654 86.1806 84.3603 86.4299 84.1603C86.3315 83.9927 86.2438 83.7285 86.1668 83.3676C86.0469 82.8064 86.0483 82.4707 86.1708 82.3607C85.8559 82.1555 85.6556 81.8524 85.57 81.4515C85.5272 81.2511 85.5186 81.0643 85.5442 80.8911C85.5855 80.6937 85.6574 80.5421 85.7599 80.4364C85.4763 80.1825 85.2575 79.6948 85.1034 78.9731C84.9836 78.4119 84.9721 78.0161 85.0689 77.7858C84.9948 77.634 84.9513 77.528 84.9385 77.4679C84.8614 77.107 84.9247 76.7687 85.1284 76.4527C85.3477 76.1125 85.6369 75.904 85.9959 75.8273C86.1954 75.7848 86.4077 75.8023 86.6328 75.88C86.892 75.5312 87.2111 75.3164 87.5901 75.2355C87.8294 75.1844 88.0495 75.1898 88.2505 75.2517C88.4356 75.0445 88.7875 74.8855 89.3061 74.7748C89.6452 74.7024 89.9109 74.6771 90.1032 74.6989C90.2884 74.4917 90.5704 74.3477 90.9494 74.2668C91.3084 74.1901 91.5749 74.2171 91.7487 74.3476C91.9695 74.1118 92.2295 73.962 92.5287 73.8981C92.788 73.8428 93.0059 73.8382 93.1826 73.8843C93.4362 73.7044 93.9619 73.5293 94.7597 73.3589C95.1187 73.2823 95.47 73.3645 95.8134 73.6056C96.1525 73.8266 96.3585 74.1075 96.4313 74.4483C96.5297 74.9093 96.341 75.2954 95.8652 75.6066C95.9621 75.6697 96.0213 75.7514 96.0427 75.8517C96.0598 75.9318 96.0434 76.0506 95.9936 76.208C96.0592 76.3197 96.1533 76.4673 96.2758 76.6507C96.4184 76.8299 96.5046 76.9896 96.5346 77.1299C96.5774 77.3304 96.5539 77.5136 96.4642 77.6794C96.5383 77.8313 96.5839 77.9473 96.6011 78.0275C96.6653 78.3282 96.6155 78.6322 96.4517 78.9397C96.5344 79.1316 96.5843 79.2677 96.6014 79.3478C96.6485 79.5683 96.6222 79.8359 96.5226 80.1506C96.789 80.3243 96.9608 80.5915 97.0378 80.9524C97.1363 81.4134 97.0537 81.8083 96.7902 82.137C97.061 82.3307 97.2606 82.7283 97.389 83.3296C97.5088 83.8909 97.4975 84.3754 97.3552 84.783C97.4293 84.9349 97.4749 85.0509 97.492 85.1311C97.5605 85.4518 97.5214 85.806 97.3748 86.1936C97.4346 86.1808 97.5173 86.2261 97.6227 86.3293C97.7239 86.4125 97.8108 86.4778 97.8835 86.5251C98.11 86.4139 98.323 86.337 98.5224 86.2944C99.041 86.1837 99.4906 86.2868 99.8711 86.6038C100.267 86.8965 100.54 87.3936 100.69 88.0952C100.793 88.5763 100.839 89.038 100.829 89.4802C101.003 89.6108 101.126 89.8465 101.199 90.1872C101.289 90.6082 101.202 90.983 100.939 91.3118C101.073 91.7442 101.045 92.2008 100.856 92.6813C100.686 93.1577 100.392 93.4405 99.9734 93.53C99.734 93.5811 99.4754 93.542 99.1976 93.4126C98.847 93.236 98.6332 92.9672 98.5562 92.6064L98.4577 91.9987C98.3679 91.8711 98.2974 91.6871 98.246 91.4465C98.1476 90.9855 98.2422 90.5985 98.5299 90.2855C98.3803 90.1708 98.2706 90.0475 98.2007 89.9157C98.1508 89.7796 98.098 89.5813 98.0424 89.3207C97.8131 89.5164 97.469 89.6632 97.0103 89.7611C96.7111 89.825 96.4155 89.8567 96.1234 89.8562C96.0094 90.0062 95.8228 90.109 95.5635 90.1643C95.1846 90.2452 94.7742 90.228 94.3325 90.1128C94.1231 90.3042 93.9187 90.4212 93.7193 90.4638C93.5397 90.5021 93.2954 90.4809 92.9862 90.4002C92.8751 90.4658 92.7896 90.5051 92.7298 90.5178C92.4705 90.5732 92.204 90.5462 91.9304 90.437C91.8079 90.547 91.6669 90.619 91.5074 90.6531C91.3478 90.6871 91.1896 90.679 91.0329 90.6286C90.8891 90.9318 90.5579 91.1387 90.0393 91.2494C89.78 91.3048 89.5243 91.328 89.2721 91.3189C89.0156 91.2898 88.8147 91.2279 88.6693 91.1332C88.4813 91.4249 88.2278 91.6047 87.9087 91.6729C87.7092 91.7155 87.4869 91.7 87.2419 91.6266C87.1421 91.6479 87.0089 91.7078 86.8423 91.8062C86.6913 91.8804 86.5445 91.9746 86.4021 92.0889C86.4663 92.3895 86.4799 92.6486 86.4429 92.8661C86.8091 93.0185 87.0414 93.3252 87.1399 93.7862C87.1613 93.8865 87.1734 94.0411 87.1763 94.25C87.2747 94.4177 87.3388 94.5716 87.3688 94.712C87.4629 95.153 87.3804 95.5479 87.1212 95.8966C86.8862 96.2612 86.5429 96.4602 86.0912 96.4938C85.7123 96.5747 85.3575 96.5247 85.0269 96.3438C84.7006 96.1829 84.4968 95.912 84.4155 95.5311C84.3427 95.1904 84.364 94.8505 84.4793 94.5115C84.2855 94.3852 84.133 94.0614 84.0217 93.5402C83.9532 93.2195 83.9296 92.9625 83.9509 92.7694ZM91.5079 76.8827C91.3954 77.1373 91.1597 77.3029 90.8006 77.3795C90.5812 77.4264 90.3654 77.441 90.1531 77.4235C89.9365 77.3859 89.7997 77.3312 89.7427 77.2596C89.7143 77.5171 89.5206 77.6843 89.1616 77.7609C88.982 77.7992 88.7961 77.8075 88.6038 77.7857C88.3588 78.0057 88.1665 78.1306 88.0268 78.1604C87.9471 78.1774 87.8509 78.1665 87.7383 78.1277L87.6572 78.3336C87.8695 78.6446 88.0249 79.0306 88.1234 79.4916C88.2218 79.9527 88.2461 80.4086 88.1964 80.8594C88.5242 81.1247 88.7394 81.498 88.8421 81.979C88.9577 82.5203 88.9307 83.029 88.7613 83.5054C88.8598 83.9664 88.8463 84.4409 88.7211 84.9287C88.6158 85.4123 88.4385 85.754 88.1892 85.954C88.3232 86.0931 88.4116 86.2628 88.4544 86.4633C88.4929 86.6437 88.4716 86.8369 88.3904 87.0428C88.3292 87.2445 88.2195 87.4147 88.0614 87.5532C88.1042 87.7537 88.0872 87.9669 88.0103 88.1929C87.9334 88.4189 87.8238 88.589 87.6813 88.7033C87.8722 88.6206 88.0375 88.5644 88.1771 88.5346C88.4364 88.4792 88.6943 88.4661 88.9507 88.4951C89.2229 88.4999 89.4216 88.5518 89.547 88.6508C89.6709 88.3519 89.9024 88.1662 90.2415 88.0938C90.4808 88.0427 90.7351 88.0618 91.0044 88.151C91.1269 88.041 91.258 87.9711 91.3976 87.9413C91.5572 87.9072 91.7153 87.9154 91.8721 87.9658C92.0572 87.7586 92.2795 87.6273 92.5388 87.5719C92.7981 87.5166 93.0745 87.5414 93.368 87.6464C93.5147 87.5522 93.6778 87.4859 93.8574 87.4476C94.2164 87.3709 94.5035 87.4459 94.7187 87.6724C94.8013 87.5709 94.9523 87.4968 95.1717 87.4499C94.9651 87.2635 94.8211 86.9798 94.7398 86.599C94.6413 86.1379 94.6861 85.7616 94.8741 85.4699C94.7572 85.1176 94.6816 84.8613 94.6474 84.7009C94.5361 84.1797 94.5744 83.7733 94.7624 83.4817C94.4503 83.192 94.2515 82.8467 94.1659 82.4458C94.0803 82.0449 94.1315 81.6986 94.3195 81.407C94.2083 81.1792 94.1313 80.9651 94.0885 80.7646C94.02 80.4439 94.0499 80.1441 94.178 79.8652C94.0683 79.7419 93.9877 79.56 93.9364 79.3195C93.8807 79.0589 93.8778 78.8499 93.9277 78.6926C93.8094 78.5292 93.7245 78.3272 93.6732 78.0867C93.6047 77.766 93.6331 77.5084 93.7584 77.3139C93.6929 77.2022 93.6515 77.1062 93.6344 77.026C93.613 76.9258 93.6037 76.8335 93.6066 76.749C93.6051 76.6445 93.5937 76.5422 93.5723 76.442L93.2731 76.5058C93.0866 76.902 92.8138 77.1384 92.4548 77.215C92.2752 77.2533 92.0972 77.2494 91.9205 77.2033C91.7595 77.1329 91.6219 77.026 91.5079 76.8827Z" fill="black"/>
<path d="M112.309 74.2965C112.55 74.3499 112.801 74.5479 113.062 74.8904C113.342 75.2287 113.526 75.5983 113.611 75.9992C113.757 76.6807 113.556 77.2057 113.009 77.574C112.909 77.8887 112.737 78.156 112.492 78.376C112.267 78.5917 111.995 78.7336 111.676 78.8018C111.416 78.8571 111.134 78.8545 110.829 78.7938C110.691 78.9281 110.491 79.0652 110.229 79.205C109.967 79.3448 109.696 79.4445 109.417 79.5041C108.938 79.6063 108.588 79.5763 108.365 79.4142C108.2 79.6172 107.898 79.7655 107.459 79.8592C107.14 79.9273 106.838 79.9289 106.553 79.864C106.304 80.0639 106 80.2022 105.641 80.2789C105.302 80.3513 105.012 80.3608 104.771 80.3074C104.61 80.5304 104.22 80.7079 103.602 80.8399C103.263 80.9123 103.027 80.9312 102.895 80.8966C103.079 81.4651 103.091 81.9132 102.931 82.2406C103.392 82.5406 103.629 82.9196 103.643 83.3776C103.668 83.3934 103.794 83.4502 104.024 83.5479C104.253 83.6456 104.442 83.8464 104.59 84.15C104.81 84.1032 105.029 84.1508 105.247 84.2929C105.485 84.4307 105.643 84.5856 105.721 84.7575C105.784 84.6603 105.935 84.5861 106.174 84.535C106.354 84.4967 106.52 84.4927 106.672 84.523C106.825 84.5533 106.919 84.6065 106.956 84.6824C107.079 84.5724 107.23 84.4982 107.409 84.4599C107.669 84.4046 107.927 84.4437 108.185 84.5772C108.376 84.4946 108.521 84.4426 108.621 84.4213C108.821 84.3787 108.997 84.3726 109.149 84.4029C109.175 84.2298 109.302 84.0454 109.531 83.8497C109.756 83.634 110.011 83.5063 110.294 83.4667C110.411 83.2322 110.596 83.025 110.85 82.8451C111.103 82.6652 111.37 82.5455 111.649 82.4859C112.187 82.3709 112.623 82.5083 112.957 82.8982C113.071 83.0416 113.152 83.2235 113.199 83.444C113.301 83.9251 113.163 84.3528 112.784 84.7271C112.697 84.8085 112.551 84.955 112.346 85.1665C112.137 85.3579 111.941 85.515 111.759 85.6377C111.576 85.7605 111.406 85.8389 111.246 85.873C111.024 86.2977 110.653 86.5654 110.135 86.6761C109.895 86.7272 109.712 86.7455 109.583 86.7309C109.387 86.9825 109.059 87.1572 108.601 87.2552C108.182 87.3446 107.875 87.3262 107.682 87.1999C107.555 87.2898 107.422 87.3497 107.282 87.3795C107.003 87.4391 106.722 87.3943 106.44 87.2449C105.435 87.5222 104.679 87.3484 104.17 86.7235C103.891 86.7831 103.535 86.6808 103.104 86.4167C102.687 86.1283 102.432 85.858 102.336 85.6059C101.839 85.5235 101.479 85.2545 101.257 84.7989C101.202 84.6428 101.17 84.4925 101.16 84.3479C101.076 84.3449 100.989 84.2796 100.9 84.1521C100.825 84.0002 100.771 83.8441 100.737 83.6838C100.711 83.5635 100.704 83.4812 100.716 83.4368C100.453 82.9898 100.279 82.5658 100.194 82.1649C100.108 81.764 100.111 81.3862 100.202 81.0314C100.035 80.8364 99.924 80.6086 99.8684 80.348C99.7999 80.0273 99.8012 79.6917 99.8724 79.3411C99.9435 78.9906 100.028 78.7524 100.127 78.6267C100.065 78.535 100.059 78.3582 100.107 78.0963C100.151 77.8145 100.232 77.5563 100.348 77.3217C100.481 77.0629 100.633 76.8943 100.804 76.8159L100.703 76.4915C100.536 75.7097 100.85 75.1292 101.645 74.7499C101.572 74.4091 101.701 74.0358 102.032 73.6299C102.362 73.224 102.681 73.0091 102.989 72.9854C102.982 72.7563 103.135 72.5455 103.448 72.3528C103.777 72.1359 104.038 72.0383 104.23 72.0601C104.334 71.7654 104.615 71.5169 105.072 71.3145C105.209 71.0757 105.447 70.9201 105.786 70.8477C105.885 70.8264 106.019 70.8188 106.188 70.8248L106.45 70.7372C106.69 70.6861 106.9 70.6937 107.081 70.7598C107.277 70.8017 107.379 70.8849 107.384 71.0094C107.832 70.9558 108.222 70.9773 108.556 71.0738C108.889 71.1702 109.131 71.4226 109.28 71.8308C109.527 71.7153 109.871 71.7152 110.312 71.8305C110.75 71.9257 111.151 72.144 111.516 72.4853C111.896 72.8022 112.142 73.2213 112.254 73.7425C112.279 73.8628 112.298 74.0475 112.309 74.2965ZM108.329 77.1899C108.468 76.8667 108.927 76.6221 109.705 76.456C110.143 76.3623 110.491 76.33 110.748 76.3591C110.571 76.313 110.385 76.1745 110.19 75.9437C110.01 75.6886 109.895 75.4408 109.843 75.2003C109.809 75.0399 109.813 74.9133 109.856 74.8203C109.581 74.9 109.327 74.8809 109.093 74.7631C108.875 74.621 108.663 74.4568 108.456 74.2703C108.269 74.0797 108.125 73.9427 108.024 73.8595C107.937 73.9409 107.717 73.9355 107.364 73.8433C107.026 73.7268 106.828 73.5804 106.77 73.4043C106.711 73.5215 106.561 73.6479 106.319 73.7835C106.072 73.899 105.877 73.9616 105.733 73.9714C105.695 74.0844 105.576 74.2144 105.378 74.3615C105.18 74.5086 104.958 74.5876 104.71 74.5986C104.591 75.0221 104.448 75.3775 104.28 75.6649C104.112 75.9523 103.872 76.1923 103.558 76.3849C103.578 76.6741 103.515 77.0125 103.368 77.4001C103.242 77.7835 103.088 78.0888 102.907 78.316L103.033 78.3205C103.269 78.0605 103.627 77.8793 104.106 77.7771C104.385 77.7175 104.651 77.6922 104.903 77.7012C105.175 77.706 105.369 77.7379 105.486 77.7968C105.901 77.3939 106.397 77.1307 106.976 77.0072C107.454 76.905 107.905 76.9659 108.329 77.1899Z" fill="black"/>
<path d="M115.421 71.9974C115.279 72.1116 115.118 72.1879 114.938 72.2262C114.619 72.2943 114.332 72.2194 114.077 72.0014C113.842 71.7791 113.688 71.4976 113.615 71.1568C113.555 70.8762 113.583 70.6186 113.7 70.3841C113.817 70.1496 114.033 69.9882 114.348 69.9C114.58 69.6199 114.895 69.4373 115.294 69.3521C115.713 69.2627 116.072 69.3327 116.371 69.5623C116.413 69.3648 116.522 69.1947 116.7 69.0519C116.878 68.9091 117.097 68.81 117.356 68.7546C117.576 68.7078 117.794 68.7032 118.01 68.7408C118.227 68.7784 118.41 68.8546 118.56 68.9693C118.706 68.5817 119.009 68.3389 119.468 68.241C119.926 68.1431 120.314 68.2489 120.63 68.5587C120.88 68.3587 121.194 68.2183 121.573 68.1374C121.673 68.1161 121.806 68.1085 121.975 68.1145C122.191 67.8587 122.449 67.6988 122.748 67.635C123.027 67.5753 123.341 67.5816 123.691 67.6538C123.947 67.3895 124.315 67.2062 124.793 67.104C125.013 67.0572 125.199 67.0489 125.351 67.0792C125.52 66.8963 125.715 66.7815 125.934 66.7346C126.253 66.6665 126.553 66.7493 126.832 66.9831C127.127 67.1926 127.309 67.4577 127.377 67.7784C127.476 68.2395 127.327 68.6171 126.931 68.9112C126.797 69.359 126.501 69.6318 126.042 69.7298C125.763 69.7894 125.47 69.7366 125.164 69.5715C124.996 69.8589 124.752 70.0366 124.433 70.1048C124.174 70.1601 123.803 70.1344 123.321 70.0276C123.136 70.2349 122.924 70.364 122.685 70.4151C122.525 70.4492 122.349 70.4553 122.157 70.4335C121.785 70.7434 121.418 70.9267 121.054 70.9833C121.157 71.171 121.249 71.4552 121.33 71.8361C121.416 72.237 121.438 72.5362 121.397 72.7336C121.632 72.9559 121.773 73.1773 121.82 73.3978C121.859 73.5782 121.841 73.7914 121.769 74.0375C121.854 74.145 121.916 74.2889 121.955 74.4693C121.993 74.6498 121.99 74.8287 121.944 75.0061C122.083 75.1652 122.234 75.4367 122.4 75.8205C122.565 76.2044 122.686 76.5768 122.763 76.9376C122.849 77.3385 122.863 77.6498 122.806 77.8716C122.916 77.9949 122.992 78.1567 123.035 78.3572C123.095 78.6378 123.059 78.9076 122.926 79.1664C123.169 79.3243 123.324 79.5636 123.393 79.8843C123.457 80.185 123.443 80.4605 123.35 80.7108C123.46 80.8341 123.538 81.006 123.585 81.2265C123.654 81.5472 123.652 81.8828 123.581 82.2334C123.768 82.424 123.885 82.6296 123.932 82.8501C124 83.1709 123.919 83.4713 123.686 83.7514C123.474 84.0273 123.208 84.1993 122.889 84.2674C122.63 84.3228 122.396 84.2994 122.186 84.1975C121.972 84.0754 121.794 83.8726 121.65 83.5889C121.359 83.3995 121.175 83.1243 121.098 82.7635C121.034 82.4628 121.071 82.1509 121.211 81.8277C121.069 81.6485 120.98 81.4787 120.946 81.3184C120.899 81.0979 120.917 80.8424 121.001 80.552C120.845 80.5016 120.707 80.3948 120.589 80.2314C120.49 80.0638 120.42 79.8797 120.377 79.6793C120.296 79.2984 120.347 78.9521 120.531 78.6404C120.394 78.2924 120.317 78.0783 120.3 77.9981C120.252 77.7776 120.257 77.5565 120.314 77.3347C120.18 77.1956 120.088 77.0058 120.036 76.7653C119.994 76.5648 119.981 76.4102 120 76.3015C119.766 76.1837 119.611 75.9444 119.534 75.5836C119.482 75.343 119.504 75.1499 119.598 75.004C119.475 74.8206 119.403 74.6788 119.382 74.5786C119.352 74.4382 119.361 74.2372 119.409 73.9753C119.137 73.6771 118.937 73.2273 118.809 72.626C118.693 72.0848 118.663 71.651 118.718 71.3248C118.479 71.3759 118.243 71.3425 118.009 71.2248C117.834 71.5766 117.387 71.8291 116.669 71.9824C116.15 72.0931 115.734 72.0981 115.421 71.9974Z" fill="black"/>
<path d="M138.632 77.4482C138.426 77.3662 138.287 77.1549 138.215 76.8141C138.176 76.6337 138.17 76.4569 138.195 76.2838C138.221 76.1106 138.275 75.9733 138.358 75.8719C138.208 75.7571 138.101 75.5494 138.037 75.2487C137.977 74.968 137.975 74.6646 138.03 74.3384C138.086 74.0121 138.153 73.7883 138.231 73.6667C138.147 73.6637 138.064 73.6185 137.983 73.531C137.902 73.4436 137.844 73.3197 137.81 73.1593C137.784 73.039 137.785 72.8501 137.814 72.5925C137.543 72.3988 137.356 72.0614 137.254 71.5803C137.151 71.0992 137.161 70.657 137.283 70.2536C137.027 69.9311 136.864 69.6095 136.796 69.2888C136.727 68.968 136.769 68.6761 136.922 68.413C136.833 68.39 136.74 68.2946 136.641 68.127C136.539 67.9393 136.466 67.7453 136.423 67.5448C136.329 67.1038 136.407 66.7833 136.656 66.5834C136.684 66.0324 136.978 65.6973 137.536 65.578C137.776 65.5269 138.058 65.5296 138.383 65.586C138.544 65.363 138.735 65.1859 138.957 65.0546C139.195 64.899 139.428 64.8178 139.656 64.8111C139.828 64.5437 140.124 64.3653 140.543 64.2759C140.822 64.2163 141.079 64.2454 141.312 64.3632C141.463 64.289 141.668 64.2242 141.928 64.1689C142.167 64.1178 142.387 64.1232 142.588 64.1851C142.789 64.247 143.047 64.3806 143.362 64.5858C143.417 64.553 143.495 64.5259 143.595 64.5046C143.974 64.4237 144.305 64.5102 144.589 64.764C144.684 64.7227 144.802 64.6871 144.941 64.6573C145.3 64.5807 145.632 64.6671 145.935 64.9167C146.192 64.9458 146.403 65.0578 146.57 65.2528C146.752 65.4234 146.854 65.6533 146.874 65.9425C147.204 66.1234 147.408 66.3943 147.485 66.7551C147.515 66.8954 147.517 67.0521 147.492 67.2253C147.751 67.4633 147.921 67.7728 148.003 68.1536C148.08 68.5145 148.03 68.8185 147.853 69.0658C147.932 69.5311 147.705 69.9358 147.174 70.2798C147.599 70.3149 147.981 70.4952 148.322 70.8207C148.662 71.1462 148.856 71.5137 148.901 71.9231C149.122 72.2741 149.273 72.6401 149.355 73.021C149.466 73.5422 149.438 73.9987 149.272 74.3906C149.373 74.7672 149.338 75.1414 149.167 75.5132C149.016 75.8808 148.753 76.2095 148.377 76.4994C148.344 76.7369 148.233 76.9493 148.043 77.1364C147.87 77.2993 147.671 77.3941 147.447 77.4209C147.135 77.7181 146.78 77.9092 146.381 77.9944C146.261 78.0199 146.169 78.0291 146.105 78.0218C145.946 78.3493 145.677 78.5535 145.298 78.6344C145.158 78.6642 145.022 78.6618 144.889 78.6272C144.566 78.9687 144.215 79.1799 143.836 79.2608C143.517 79.329 143.234 79.2741 142.988 79.0962C142.916 79.1533 142.811 79.1968 142.671 79.2266C142.634 79.4441 142.529 79.6342 142.355 79.7971C142.201 79.9557 142.015 80.0584 141.795 80.1053C141.576 80.1521 141.364 80.1345 141.158 80.0526C140.859 80.1165 140.588 80.0695 140.346 79.9116C140.104 79.7537 139.931 79.5287 139.827 79.2365C139.577 79.1431 139.331 78.9651 139.087 78.7028C138.859 78.4161 138.713 78.1225 138.649 77.8218C138.632 77.7416 138.626 77.6171 138.632 77.4482ZM140.108 67.0726C140.061 67.1455 139.91 67.2719 139.657 67.4518C139.403 67.6317 139.259 67.7359 139.223 67.7645C139.297 67.9163 139.343 68.0323 139.36 68.1125C139.428 68.4332 139.376 68.7273 139.204 68.9946C139.378 69.1252 139.499 69.3508 139.568 69.6715C139.632 69.9722 139.628 70.2978 139.557 70.6484C139.663 70.7516 139.751 70.9214 139.822 71.1577C139.909 71.3697 139.983 71.5215 140.045 71.6132C140.159 71.4631 140.385 71.3519 140.724 71.2795C140.944 71.2327 141.162 71.228 141.378 71.2656C141.712 71.0687 142.028 70.9383 142.327 70.8744L142.692 70.8279C143.091 70.4493 143.56 70.2025 144.099 70.0875L144.404 70.0537C144.538 69.606 144.945 69.1208 145.626 68.5981C145.384 68.4403 145.233 68.221 145.173 67.9404C145.143 67.8 145.143 67.6533 145.173 67.5002C144.999 67.3697 144.885 67.2264 144.831 67.0702C144.64 67.1529 144.436 67.1755 144.22 67.1379C144.019 67.076 143.861 66.9733 143.747 66.83C143.672 66.8671 143.564 66.9005 143.424 66.9303C143.165 66.9857 142.913 66.9767 142.668 66.9032C142.423 66.8298 142.239 66.7014 142.116 66.518C142.061 66.5508 141.973 66.58 141.854 66.6055C141.694 66.6396 141.538 66.6415 141.386 66.6111C141.085 66.8639 140.659 67.0177 140.108 67.0726ZM145.235 75.8497C145.414 75.8114 145.526 75.798 145.57 75.8095C145.798 75.5094 146.078 75.3553 146.41 75.3473C146.595 74.8467 146.77 74.5894 146.934 74.5753C146.773 74.2115 146.809 73.7951 147.042 73.326C146.901 73.2513 146.784 73.1402 146.69 72.9926C146.595 72.845 146.551 72.6868 146.557 72.5179L146.437 72.5435C146.218 72.5903 145.943 72.5233 145.612 72.3423C145.537 72.3794 145.399 72.4192 145.2 72.4618C144.941 72.5172 144.735 72.5297 144.582 72.4994C144.464 72.6294 144.292 72.75 144.065 72.8613C143.859 72.9683 143.727 73.0382 143.672 73.071C143.378 73.2594 143.062 73.3898 142.723 73.4622C142.603 73.4877 142.42 73.506 142.172 73.517C141.84 73.8184 141.464 74.0138 141.046 74.1033C140.826 74.1501 140.65 74.1562 140.518 74.1217C140.447 74.1788 140.41 74.2496 140.407 74.334C140.404 74.4184 140.397 74.4828 140.385 74.5272C140.656 74.7209 140.826 74.9781 140.894 75.2988C140.967 75.6396 140.887 75.9501 140.655 76.2302C140.829 76.3607 140.946 76.5663 141.006 76.847C141.036 76.9873 141.038 77.144 141.012 77.3172L141.141 77.4784C141.299 77.3398 141.509 77.2007 141.771 77.0609C142.033 76.9211 142.294 76.8235 142.553 76.7681C142.872 76.7 143.146 76.7148 143.376 76.8125C143.527 76.445 143.792 76.2207 144.171 76.1398C144.35 76.1015 144.518 76.1075 144.675 76.1579C144.778 76.0522 144.894 75.9643 145.026 75.8944L145.235 75.8497Z" fill="black"/>
<path d="M155.324 77.2169C155.197 77.3068 155.064 77.3667 154.924 77.3965C154.585 77.4689 154.286 77.3861 154.027 77.148C153.783 76.8857 153.618 76.554 153.533 76.1531C153.499 75.9927 153.491 75.7637 153.511 75.4661C153.344 75.2711 153.238 75.0634 153.19 74.8429C153.152 74.6625 153.157 74.4413 153.205 74.1795C153.12 74.072 153.058 73.9281 153.019 73.7476C152.968 73.5071 152.991 73.2717 153.087 73.0414C152.993 72.8938 152.931 72.7499 152.901 72.6096C152.859 72.4091 152.862 72.2302 152.912 72.0729C152.697 71.8463 152.551 71.5527 152.474 71.1918C152.375 70.7308 152.414 70.3766 152.591 70.1293C152.321 69.7467 152.148 69.375 152.071 69.0141C152.028 68.8137 152.017 68.5646 152.037 68.267C151.926 68.0392 151.849 67.8251 151.806 67.6246C151.737 67.3039 151.749 66.9661 151.84 66.6113C151.625 66.3848 151.496 66.1713 151.453 65.9709C151.406 65.7504 151.445 65.5429 151.57 65.3485C151.403 65.1535 151.29 64.9157 151.23 64.6351C151.17 64.3544 151.191 64.1613 151.294 64.0555C151.048 63.8776 150.892 63.6383 150.828 63.3376C150.738 62.9167 150.821 62.574 151.078 62.3097C151.102 62.0321 151.191 61.814 151.345 61.6554C151.499 61.4968 151.685 61.394 151.905 61.3472C152.224 61.2791 152.536 61.3276 152.843 61.4927C153.149 61.6578 153.337 61.9008 153.405 62.2215C153.452 62.442 153.427 62.6674 153.33 62.8977C153.457 63.1011 153.546 63.3231 153.598 63.5637C153.658 63.8443 153.671 64.1034 153.639 64.3409C153.741 64.5286 153.812 64.7127 153.85 64.8931C153.897 65.1136 153.89 65.3247 153.829 65.5264C154.016 65.7171 154.139 65.9527 154.199 66.2334C154.242 66.4338 154.243 66.6328 154.201 66.8302C154.287 66.9377 154.349 67.0817 154.387 67.2621C154.443 67.5227 154.44 67.8483 154.377 68.2389C154.491 68.3822 154.567 68.4919 154.604 68.5678C154.813 68.3764 155.052 68.273 155.319 68.2578C155.393 68.1162 155.492 67.9904 155.614 67.8804C155.757 67.7662 155.898 67.6942 156.037 67.6643C156.153 67.3253 156.31 66.9878 156.509 66.6518C156.705 66.2958 156.905 66.0643 157.112 65.9573C157.14 65.6997 157.271 65.4309 157.503 65.1508C157.751 64.8463 157.99 64.6485 158.221 64.5573C158.253 64.3198 158.367 64.1175 158.56 63.9504C158.75 63.7632 158.956 63.6562 159.18 63.6294C159.335 63.2819 159.517 62.9602 159.725 62.6643C159.953 62.3641 160.192 62.1663 160.443 62.0709C160.458 61.7531 160.582 61.4542 160.814 61.1741C161.066 60.8897 161.332 60.7177 161.611 60.6581C161.691 60.6411 161.795 60.6398 161.923 60.6544C162.05 60.5644 162.193 60.5024 162.353 60.4684C162.672 60.4002 162.947 60.4673 163.178 60.6695C163.409 60.8717 163.558 61.1332 163.627 61.4539C163.695 61.7746 163.653 62.0666 163.501 62.3296C163.364 62.5684 163.104 62.7182 162.721 62.7791C162.636 62.965 162.433 63.2387 162.114 63.6003C161.795 63.9618 161.558 64.1697 161.403 64.2238C161.471 64.5445 161.406 64.8729 161.206 65.2089C161.023 65.5206 160.754 65.7248 160.399 65.8215C160.322 66.0475 160.184 66.234 159.986 66.3811C159.788 66.5281 159.575 66.605 159.348 66.6118C159.359 66.8609 159.294 67.0948 159.153 67.3135C159.012 67.5322 158.836 67.6851 158.625 67.772C158.442 68.3771 158.21 68.8039 157.929 69.0525C158.281 69.0402 158.666 69.1361 159.085 69.3401C159.504 69.5441 159.786 69.7879 159.93 70.0715C160.319 70.1352 160.614 70.3447 160.815 70.7C161.031 70.7376 161.227 70.8217 161.4 70.9522C161.594 71.0785 161.725 71.2498 161.792 71.466C162.095 71.4222 162.438 71.5166 162.822 71.7491C163.201 71.9616 163.467 72.2297 163.619 72.5535C163.816 72.5953 164.001 72.6815 164.175 72.8121C164.344 72.9226 164.458 73.0659 164.517 73.2421C164.763 73.42 164.915 73.6393 164.97 73.8999C165.034 74.2005 164.963 74.4988 164.755 74.7947C164.547 75.0906 164.283 75.2727 163.964 75.3408C163.545 75.4302 163.189 75.2757 162.895 74.8773C162.572 74.9254 162.283 74.8404 162.028 74.6224C161.792 74.4002 161.661 74.1244 161.632 73.7952C161.341 73.8991 161.027 73.8929 160.689 73.7763C160.352 73.6598 160.092 73.4217 159.911 73.0622C159.39 72.9639 159.048 72.6806 158.885 72.2123C158.512 72.1243 158.257 71.9063 158.12 71.5583C157.792 71.5863 157.467 71.4777 157.143 71.2323C156.84 70.9828 156.662 70.6855 156.609 70.3404C156.553 70.3732 156.456 70.4046 156.316 70.4344C156.174 70.842 155.883 71.0927 155.444 71.1864C155.285 71.2205 155.163 71.236 155.079 71.233C155.127 71.2645 155.171 71.3705 155.209 71.5509C155.256 71.7714 155.269 71.9783 155.248 72.1715C155.358 72.2948 155.432 72.4466 155.47 72.627C155.509 72.8074 155.503 72.9763 155.453 73.1337C155.604 73.3529 155.699 73.5527 155.738 73.7332C155.798 74.0138 155.775 74.2492 155.669 74.4394C155.759 74.5669 155.828 74.7409 155.875 74.9614C155.96 75.3624 155.951 75.8046 155.845 76.2882C155.756 76.7475 155.582 77.057 155.324 77.2169Z" fill="black"/>
<path d="M177.028 66.987C177.004 67.2646 176.883 67.5314 176.667 67.7872C176.878 68.5805 176.775 69.1263 176.359 69.4247C176.388 69.754 176.321 70.1246 176.159 70.5365C175.997 70.9484 175.789 71.2443 175.535 71.4242C175.552 71.5044 175.569 71.679 175.584 71.9481C175.616 72.1929 175.599 72.4062 175.533 72.5878C175.488 72.7652 175.392 72.9533 175.247 73.152C175.497 73.8323 175.317 74.6041 174.709 75.4675C174.792 75.9529 174.714 76.3678 174.474 76.7123C174.259 77.0726 173.959 77.3254 173.573 77.4707C173.593 77.7599 173.441 78.0752 173.118 78.4167C172.819 78.774 172.5 78.9888 172.16 79.0612C172.128 79.2988 171.846 79.5895 171.314 79.9335C170.807 80.2933 170.451 80.4322 170.246 80.3503C169.776 80.4926 169.371 80.4532 169.032 80.2322C168.693 80.0112 168.483 79.7102 168.401 79.3294C168.341 79.0487 168.37 78.7911 168.487 78.5566C168.603 78.3221 168.811 78.1729 169.11 78.109C169.21 78.0877 169.292 78.0807 169.356 78.088C169.825 77.5478 170.229 77.2415 170.568 77.1691C170.687 77.1436 170.779 77.1344 170.843 77.1417C170.832 76.8926 170.922 76.6323 171.115 76.3607C171.311 76.1091 171.556 75.8892 171.85 75.7007C171.807 75.5003 171.842 75.2728 171.954 75.0182C172.067 74.7636 172.218 74.5428 172.407 74.3556C172.342 74.2439 172.302 74.1579 172.289 74.0978C172.225 73.7971 172.284 73.4387 172.467 73.0225C172.645 72.5863 172.852 72.2904 173.09 72.1348C172.58 71.9922 172.272 71.6703 172.165 71.1692C171.961 71.1917 171.742 71.0918 171.506 70.8696C171.291 70.643 171.152 70.3794 171.087 70.0788C171.049 69.8983 171.062 69.7173 171.128 69.5357C170.807 69.4993 170.544 69.3879 170.337 69.2015C170.15 69.0108 170.025 68.7651 169.961 68.4644C169.914 68.2439 169.906 68.0149 169.939 67.7774C169.626 67.6766 169.37 67.5531 169.172 67.4067C168.994 67.2561 168.889 67.0584 168.857 66.8136C168.515 66.677 168.299 66.3983 168.21 65.9773C168.167 65.7769 168.156 65.58 168.177 65.3868C167.563 64.9521 167.19 64.424 167.057 63.8026C167.019 63.6222 166.999 63.4797 166.997 63.3752C166.688 63.2945 166.438 63.1488 166.247 62.9381C166.052 62.7073 165.92 62.4315 165.851 62.1108C165.787 61.8101 165.787 61.5167 165.851 61.2306C165.255 60.9805 164.911 60.6349 164.816 60.1939C164.709 59.6928 164.843 59.245 165.218 58.8506C165.372 58.6921 165.558 58.5893 165.778 58.5425C166.077 58.4786 166.37 58.5314 166.656 58.7008C166.962 58.8659 167.21 59.0961 167.398 59.3913C167.612 59.5133 167.815 59.7319 168.007 60.0471C168.2 60.3624 168.328 60.6703 168.392 60.971C168.431 61.1514 168.446 61.2738 168.439 61.3382C169.174 61.8519 169.606 62.4095 169.735 63.0108C169.752 63.091 169.762 63.2356 169.765 63.4446C170.054 63.5295 170.288 63.6995 170.468 63.9546C170.643 64.1897 170.741 64.4518 170.761 64.7409C170.995 64.8587 171.177 65.0294 171.308 65.2529C171.459 65.4721 171.541 65.7063 171.552 65.9553C171.732 65.917 171.921 66.0233 172.121 66.2741C172.336 66.5006 172.453 66.7585 172.474 67.0476C172.763 67.1326 172.973 67.2868 173.104 67.5103C173.231 67.7138 173.309 67.9801 173.337 68.3094C173.614 68.3342 173.797 68.5571 173.887 68.9781C173.874 68.6245 173.89 68.359 173.936 68.1816C173.981 68.0042 174.064 67.8083 174.186 67.5938C174.103 67.4019 174.055 67.2759 174.042 67.2157C173.995 66.9952 173.999 66.8163 174.053 66.679C174.103 66.5217 174.195 66.4181 174.331 66.3682C174.169 66.0044 174.19 65.6122 174.392 65.1918C174.307 65.0843 174.251 64.9704 174.225 64.8501C174.195 64.7098 174.223 64.5467 174.309 64.3608C174.41 64.1506 174.474 64.0111 174.501 63.9425C174.304 63.6072 174.18 63.3193 174.129 63.0788C174.086 62.8783 174.085 62.6794 174.126 62.4819C174.168 62.2845 174.25 62.0363 174.374 61.7374C174.203 61.5224 174.066 61.1743 173.964 60.6932C173.827 60.0518 173.832 59.4428 173.98 58.8662C173.84 58.6026 173.753 58.3906 173.719 58.2303C173.668 57.9897 173.683 57.7665 173.764 57.5605C173.661 57.0794 173.729 56.6666 173.969 56.3221C174.208 55.9776 174.517 55.7649 174.896 55.684C175.215 55.6158 175.51 55.6786 175.781 55.8723C176.067 56.0417 176.246 56.339 176.315 56.7643C176.515 57.0151 176.658 57.341 176.743 57.7419C176.897 58.4635 176.863 59.1311 176.639 59.7448C176.774 59.9883 176.874 60.2604 176.938 60.5611C177.045 61.0623 176.969 61.5817 176.708 62.1194C176.762 62.2755 176.843 62.4574 176.95 62.6651C177.057 62.8728 177.125 63.0469 177.155 63.1872C177.219 63.4879 177.175 63.7698 177.023 64.0328C177.182 64.2922 177.099 64.9282 176.773 65.941C176.904 66.1645 176.985 66.3464 177.015 66.4868C177.049 66.6471 177.053 66.8139 177.028 66.987Z" fill="black"/>
<path d="M190.626 69.1769C190.494 69.4357 190.291 69.6572 190.017 69.8413C189.74 70.0054 189.441 70.1215 189.122 70.1897C188.723 70.2748 188.429 70.2643 188.239 70.158C188.113 70.248 187.969 70.31 187.81 70.3441C187.431 70.425 187.084 70.3628 186.769 70.1576C186.551 70.3089 186.352 70.4037 186.173 70.4421C185.854 70.5102 185.517 70.4981 185.164 70.4059C184.826 70.2894 184.572 70.1236 184.401 69.9086C184.03 70.0296 183.628 70.0003 183.193 69.8206C182.774 69.6166 182.497 69.3406 182.36 68.9925C181.706 68.8597 181.147 68.2454 180.684 67.1497C180.543 67.075 180.421 66.9438 180.318 66.7561C180.215 66.5684 180.143 66.3744 180.1 66.1739C180.07 66.0336 180.059 65.9312 180.066 65.8668C179.581 65.2577 179.262 64.5923 179.108 63.8706C178.966 63.2091 178.991 62.6381 179.18 62.1575C179.097 61.9656 179.045 61.8195 179.024 61.7193C178.951 61.3785 178.962 61.0407 179.058 60.706C179.149 60.3512 179.299 60.0781 179.508 59.8867C179.447 59.795 179.397 59.6589 179.359 59.4785C179.29 59.1578 179.328 58.8458 179.472 58.5426C179.631 58.2152 179.804 58.0001 179.991 57.8973C180.011 57.5997 180.145 57.2986 180.392 56.9942C180.656 56.6655 180.959 56.4749 181.303 56.4226C181.573 55.7361 181.914 55.3803 182.326 55.3552C182.454 55.0764 182.657 54.8549 182.935 54.6908C183.233 54.5224 183.513 54.4206 183.777 54.3853C183.946 54.2024 184.151 54.0854 184.39 54.0343C184.63 53.9832 184.882 53.9922 185.147 54.0614C185.281 53.907 185.487 53.8 185.766 53.7404C185.966 53.6978 186.162 53.6875 186.354 53.7093C186.547 53.7311 186.681 53.7757 186.758 53.8431C186.909 53.7689 187.087 53.7728 187.292 53.8548C187.493 53.9167 187.631 54.0236 187.705 54.1754C188.044 54.103 188.357 54.1515 188.643 54.3209C188.945 54.466 189.186 54.6661 189.366 54.9212C189.561 55.152 189.664 55.3397 189.674 55.4842C190.047 55.5722 190.342 55.7817 190.559 56.1127C190.767 56.4036 190.896 56.6694 190.948 56.9099C191.033 57.3108 190.95 57.6535 190.698 57.9378C190.528 58.1207 190.334 58.2356 190.115 58.2825C189.756 58.3591 189.374 58.2833 188.971 58.055C188.588 57.8225 188.299 57.4963 188.105 57.0766C187.838 57.0919 187.569 57.0549 187.3 56.9657C187.026 56.8564 186.8 56.7265 186.622 56.5759C186.567 56.6087 186.419 56.6507 186.18 56.7018C185.96 56.7486 185.809 56.7705 185.725 56.7675C185.584 56.9863 185.403 57.119 185.184 57.1659C184.965 57.2127 184.74 57.1873 184.511 57.0895C184.337 57.5458 184.001 57.8272 183.502 57.9336C183.32 58.3498 183.15 58.6794 182.994 58.9225C182.833 59.1455 182.579 59.2731 182.231 59.3054C182.264 59.3613 182.293 59.4494 182.319 59.5696C182.37 59.8102 182.355 60.0334 182.274 60.2394C182.193 60.4454 182.09 60.6455 181.964 60.84C181.855 61.0101 181.768 61.1438 181.706 61.241C181.87 61.5204 181.979 61.7904 182.035 62.051C182.134 62.512 182.112 63.0931 181.969 63.7942C182.099 63.9132 182.222 64.0966 182.337 64.3444C182.468 64.5679 182.559 64.8 182.611 65.0405C182.641 65.1808 182.652 65.2832 182.645 65.3476C182.806 65.418 182.962 65.5628 183.113 65.7821C183.284 65.9971 183.393 66.2148 183.44 66.4353C183.973 66.4892 184.431 66.6325 184.815 66.865C185.218 67.0933 185.447 67.3377 185.503 67.5983C185.684 67.3711 185.904 67.2298 186.163 67.1744C186.403 67.1233 186.645 67.1345 186.89 67.2079C187.155 67.2771 187.369 67.3991 187.531 67.574C187.627 67.5327 187.744 67.4971 187.884 67.4673C188.183 67.4034 188.464 67.4483 188.726 67.6019C188.771 67.4245 188.934 67.2116 189.215 66.963C189.496 66.7145 189.738 66.5789 189.942 66.5564C190.019 66.3304 190.146 66.146 190.324 66.0032C190.522 65.8561 190.741 65.757 190.98 65.7059C191.14 65.6718 191.251 65.6584 191.316 65.6657C191.506 65.2896 191.821 65.0547 192.26 64.9611C192.639 64.8801 192.996 64.9402 193.331 65.1412C193.666 65.3421 193.874 65.633 193.955 66.0139C194.049 66.4549 193.939 66.8662 193.624 67.2478C193.325 67.6051 192.946 67.8327 192.487 67.9307C192.308 67.969 192.176 67.9866 192.092 67.9836C192.26 67.9896 192.259 68.0841 192.09 68.267C191.94 68.4457 191.711 68.6413 191.402 68.854C191.089 69.0467 190.83 69.1543 190.626 69.1769Z" fill="black"/>
<path d="M196.681 65.1805C196.474 64.9941 196.336 64.7405 196.268 64.4198C196.204 64.1191 196.22 63.8536 196.317 63.6234C196.144 63.3039 196.037 63.0439 195.994 62.8435C195.93 62.5428 195.954 62.2651 196.066 62.0106C195.902 61.7312 195.788 61.4411 195.724 61.1405C195.643 60.7596 195.634 60.4261 195.698 60.1399C195.564 60.0009 195.465 59.781 195.401 59.4803C195.298 58.9992 195.311 58.6192 195.439 58.3404C195.299 58.0768 195.2 57.8046 195.14 57.524C195.11 57.3837 195.098 57.2813 195.105 57.2169C194.839 57.0433 194.674 56.8061 194.609 56.5054C194.545 56.2047 194.591 55.9329 194.748 55.6898C194.541 55.5034 194.415 55.2999 194.368 55.0794C194.333 54.9191 194.346 54.6858 194.406 54.3796C194.263 54.2004 194.175 54.0307 194.141 53.8703C194.055 53.4694 194.158 53.1225 194.45 52.8296C194.556 52.346 194.828 52.0574 195.266 51.9637C195.566 51.8998 195.846 51.9447 196.109 52.0983C196.391 52.2477 196.564 52.4727 196.628 52.7734C196.671 52.9738 196.659 53.1649 196.594 53.3465C196.708 53.4899 196.786 53.6618 196.829 53.8622C196.893 54.1629 196.855 54.4226 196.714 54.6413C196.788 54.7932 196.874 54.9529 196.973 55.1206C197.091 55.2839 197.163 55.4258 197.189 55.546C197.231 55.7465 197.192 55.954 197.071 56.1684C197.202 56.392 197.309 56.6941 197.39 57.075C197.454 57.3757 197.464 57.6147 197.418 57.7921C197.481 57.6949 197.612 57.625 197.811 57.5824C198.17 57.5058 198.531 57.5336 198.893 57.6659C199.026 57.5116 199.183 57.4153 199.363 57.3769C199.502 57.3471 199.648 57.3474 199.801 57.3777C199.93 57.2033 200.115 57.0906 200.354 57.0395C200.534 57.0012 200.702 57.0072 200.859 57.0576C201.037 56.9147 201.215 56.8242 201.395 56.7859C201.694 56.722 201.953 56.7611 202.171 56.9032C202.393 56.7719 202.823 56.6381 203.461 56.5018C203.88 56.4124 204.174 56.3707 204.342 56.3767C204.405 56.2795 204.474 56.2124 204.549 56.1753C204.254 55.6724 204.017 55 203.837 54.1581C203.683 53.4364 203.646 52.9726 203.728 52.7667C203.511 52.4357 203.353 52.0396 203.255 51.5786C203.157 51.1175 203.141 50.7017 203.208 50.3311C203.29 49.9363 203.482 49.6647 203.784 49.5163C203.975 49.4337 204.111 49.3838 204.19 49.3668C204.829 49.2305 205.251 49.6435 205.456 50.6056C205.537 50.9865 205.574 51.3036 205.565 51.5569C205.775 51.6589 205.916 51.8803 205.989 52.2211C206.066 52.5819 206.019 52.8538 205.85 53.0367C205.961 53.2644 206.04 53.4886 206.087 53.7091C206.134 53.9296 206.154 54.1665 206.145 54.4198C206.531 54.8613 206.791 55.3928 206.924 56.0142C207.013 56.4352 207.03 56.9032 206.973 57.4184C207.261 57.6923 207.448 58.0297 207.533 58.4306C207.597 58.7313 207.595 59.0146 207.527 59.2807C207.678 59.5 207.777 59.7199 207.824 59.9404C207.88 60.201 207.886 60.4722 207.842 60.7541C207.813 61.0117 207.736 61.2377 207.611 61.4321C207.833 61.5942 207.989 61.8858 208.079 62.3067C208.152 62.6475 208.161 62.981 208.105 63.3073C208.323 63.4493 208.467 63.6807 208.535 64.0015C208.595 64.2821 208.575 64.5798 208.475 64.8945C208.524 65.2195 208.46 65.5056 208.283 65.7529C208.102 65.9802 207.872 66.1236 207.593 66.1832C207.354 66.2343 207.119 66.211 206.89 66.1133C206.68 66.0113 206.508 65.8385 206.373 65.5949C206.264 65.2827 206.197 65.0665 206.172 64.9462C206.12 64.7057 206.099 64.4587 206.107 64.2054C206.025 64.0135 205.97 63.8574 205.945 63.7371C205.898 63.5166 205.888 63.2253 205.915 62.8632C205.761 62.7284 205.632 62.4205 205.53 61.9394C205.418 61.4182 205.423 61.0504 205.544 60.8359C205.433 60.6081 205.339 60.3138 205.262 59.953C205.155 59.4519 205.14 59.0883 205.217 58.8623C205.036 58.7961 204.9 58.6993 204.811 58.5717C204.396 58.6812 203.972 58.6983 203.539 58.6231C203.291 58.9276 202.948 59.1266 202.509 59.2203C202.23 59.2799 201.963 59.253 201.71 59.1394C201.599 59.2051 201.493 59.2485 201.393 59.2698C201.334 59.2826 201.2 59.2902 200.992 59.2927C200.826 59.4957 200.624 59.6227 200.385 59.6738C200.225 59.7079 200.079 59.7076 199.947 59.673C199.722 59.8888 199.509 60.0179 199.31 60.0605C199.15 60.0946 198.994 60.0964 198.842 60.0661C198.685 60.0157 198.554 59.9389 198.449 59.8357C198.315 59.99 198.132 60.1128 197.902 60.204C198.073 60.419 198.195 60.6969 198.267 61.0376C198.374 61.5388 198.347 61.9953 198.184 62.4072C198.246 62.4989 198.338 62.6365 198.46 62.8199C198.583 63.0033 198.661 63.1752 198.695 63.3356C198.751 63.5962 198.708 63.8359 198.567 64.0546C198.604 64.1305 198.674 64.2623 198.777 64.45C198.895 64.6134 198.969 64.7652 198.999 64.9055C199.046 65.126 198.994 65.3678 198.841 65.6309C198.874 65.6868 198.903 65.7749 198.929 65.8952C198.993 66.1958 198.939 66.4798 198.767 66.7472C198.594 67.0145 198.359 67.1801 198.06 67.244C197.92 67.2738 197.764 67.2757 197.591 67.2496C197.366 67.1719 197.166 67.0156 196.991 66.7805C196.816 66.5455 196.698 66.2877 196.638 66.007C196.57 65.6863 196.584 65.4108 196.681 65.1805Z" fill="black"/>
<path d="M219.976 63.2252C219.788 63.5168 219.444 63.7159 218.946 63.8223C218.567 63.9032 218.245 63.9091 217.98 63.8399C217.638 63.9968 217.327 64.105 217.048 64.1646C216.27 64.3307 215.669 64.2495 215.244 63.9209C215.169 63.958 215.061 63.9915 214.922 64.0213C214.463 64.1192 214.069 63.9833 213.74 63.6134C213.544 63.676 213.264 63.6312 212.897 63.4788C212.547 63.3021 212.368 63.0993 212.361 62.8703C212.025 62.8582 211.715 62.7253 211.431 62.4714C211.163 62.1933 210.996 61.8516 210.931 61.4465C210.694 61.4131 210.49 61.2889 210.319 61.0739C210.148 60.859 210.031 60.6011 209.967 60.3004C209.898 59.9797 209.899 59.7385 209.969 59.5769C209.676 59.283 209.483 58.9155 209.389 58.4745C209.291 58.0135 209.351 57.6128 209.57 57.2726C209.317 57.159 209.156 56.9419 209.087 56.6212C209.044 56.4207 209.051 56.2096 209.108 55.9879C209.165 55.7661 209.265 55.5981 209.407 55.4839C209.308 55.2118 209.282 54.9448 209.33 54.683C209.394 54.3968 209.513 54.1723 209.687 54.0095C209.634 53.9578 209.595 53.8719 209.569 53.7516C209.531 53.5712 209.552 53.378 209.633 53.1721C209.734 52.9618 209.861 52.8196 210.012 52.7455C209.979 52.6896 209.952 52.6116 209.93 52.5113C209.84 52.0904 209.923 51.6955 210.178 51.3267C210.429 50.9378 210.708 50.7315 211.015 50.7077C210.956 50.4271 211.026 50.171 211.227 49.9395C211.443 49.6837 211.751 49.5132 212.15 49.428C212.329 49.3897 212.471 49.3699 212.575 49.3686C212.651 49.0382 212.839 48.7465 213.139 48.4937C213.435 48.2209 213.763 48.0461 214.122 47.9695C214.361 47.9184 214.572 47.9259 214.753 47.992C214.981 47.6919 215.304 47.4971 215.723 47.4077C216.062 47.3353 216.378 47.3516 216.672 47.4566C216.985 47.5573 217.202 47.7416 217.321 48.0095C217.641 47.9414 218.005 47.9892 218.416 48.1531C218.822 48.297 219.08 48.4828 219.192 48.7106C219.7 48.7487 220.225 48.9615 220.767 49.3489C221.324 49.712 221.654 50.1341 221.757 50.6152C221.774 50.6953 221.78 50.8199 221.774 50.9888C222.67 50.9861 223.245 51.775 223.499 53.3556C223.743 53.6179 223.901 53.9195 223.974 54.2603C224.06 54.6612 224.016 55.0898 223.842 55.5461C223.94 55.7137 224.006 55.8777 224.041 56.0381C224.092 56.2786 224.091 56.5198 224.039 56.7616C223.986 57.0034 223.893 57.2014 223.759 57.3558C223.847 57.6722 223.843 57.9456 223.746 58.1759C223.669 58.4019 223.498 58.7215 223.232 59.1346C223.269 59.2105 223.304 59.3287 223.339 59.4891C223.467 60.0904 223.211 60.5537 222.572 60.8789C222.58 61.2124 222.466 61.5092 222.23 61.7693C222.013 62.0251 221.716 62.1934 221.337 62.2743C221.112 62.7835 220.77 63.087 220.311 63.185C220.172 63.2148 220.06 63.2282 219.976 63.2252ZM216.714 61.7208C216.844 61.5464 217.098 61.4188 217.477 61.3379C217.756 61.2782 217.914 61.2864 217.951 61.3623C218.072 61.1478 218.242 60.9649 218.46 60.8136C218.678 60.6623 218.889 60.5754 219.092 60.5528C219.359 60.1397 219.691 59.8905 220.09 59.8053C220.23 59.7755 220.332 59.7642 220.396 59.7715C220.337 59.5954 220.351 59.4143 220.436 59.2284C220.517 59.0224 220.631 58.8724 220.778 58.7782C220.722 58.5176 220.735 58.2843 220.816 58.0783C220.913 57.8481 221.051 57.6615 221.229 57.5187C221.143 57.1178 221.154 56.78 221.263 56.5054C221.168 56.3578 221.104 56.2039 221.07 56.0435C221.023 55.823 221.028 55.6019 221.085 55.3801C221.138 55.1383 221.239 54.9281 221.388 54.7495C221.15 54.6117 221.003 54.4124 220.948 54.1518C220.896 53.9113 220.915 53.6559 221.003 53.3855C220.553 53.2301 220.234 53.0571 220.048 52.8664C219.877 52.6514 219.725 52.2332 219.592 51.6118C219.417 51.6701 219.206 51.6104 218.959 51.4325C218.733 51.2503 218.57 51.0231 218.47 50.751C218.263 50.858 217.981 50.8553 217.624 50.7431C217.282 50.6065 217.078 50.3879 217.014 50.0872C216.872 50.2014 216.691 50.282 216.472 50.3288C216.053 50.4182 215.681 50.3403 215.358 50.095C215.186 50.3623 214.935 50.6045 214.606 50.8214C214.293 51.0141 214.002 51.1181 213.734 51.1333C213.757 51.338 213.629 51.6169 213.35 51.9699C213.086 52.2987 212.833 52.5308 212.591 52.6663C212.677 52.7738 212.736 52.9078 212.771 53.0681C212.813 53.2686 212.806 53.4797 212.75 53.7014C212.693 53.9232 212.589 54.1234 212.44 54.302C212.52 54.5784 212.508 54.8639 212.404 55.1586C212.32 55.449 212.159 55.672 211.921 55.8276C211.995 55.9794 212.043 56.1055 212.064 56.2057C212.124 56.4863 212.101 56.7217 211.996 56.9119C212.086 57.0394 212.146 57.1734 212.176 57.3137C212.223 57.5342 212.164 57.7982 212.001 58.1056C212.572 58.3399 212.926 58.7778 213.063 59.4193C213.136 59.76 213.138 60.0635 213.07 60.3296C213.273 60.307 213.426 60.3374 213.527 60.4205C213.628 60.5037 213.732 60.6492 213.839 60.8569C214.351 60.8106 214.771 60.9724 215.1 61.3422C215.32 61.2954 215.604 61.3081 215.953 61.3802C216.322 61.4482 216.576 61.5617 216.714 61.7208Z" fill="black"/>
<path d="M95.2243 128.372C95.3099 128.773 95.2644 129.097 95.0878 129.344C94.9269 129.567 94.6869 129.713 94.3677 129.781C94.1284 129.832 93.8862 129.821 93.6411 129.748C93.396 129.674 93.2343 129.552 93.1559 129.38C92.8638 129.379 92.6044 129.288 92.3779 129.106C92.1513 128.923 92.008 128.692 91.9481 128.411C91.9139 128.251 91.9252 128.06 91.9821 127.838C91.7299 127.536 91.5652 127.204 91.4882 126.843C91.4326 126.583 91.4211 126.334 91.4538 126.096C91.5022 125.834 91.5833 125.628 91.6973 125.478C91.4536 125.216 91.2889 124.884 91.2033 124.483C91.1134 124.062 91.124 123.672 91.2351 123.313C91.1253 123.19 91.0512 123.038 91.0127 122.858C90.9527 122.577 90.9911 122.317 91.1279 122.079C90.9725 121.839 90.8584 121.549 90.7857 121.209C90.7386 120.988 90.73 120.801 90.7599 120.648C90.6017 120.493 90.4948 120.286 90.4391 120.025C90.3792 119.744 90.3749 119.431 90.4261 119.085C90.1995 118.902 90.0562 118.671 89.9963 118.39C89.945 118.15 89.9755 117.902 90.088 117.648C90.0025 117.54 89.9448 117.416 89.9148 117.276C89.8634 117.035 89.8961 116.798 90.0129 116.563C89.8618 116.344 89.7542 116.084 89.69 115.783C89.583 115.282 89.5986 114.818 89.7366 114.39C89.8704 113.942 90.1368 113.676 90.5357 113.591C90.6554 113.565 90.8114 113.563 91.0038 113.585C91.5851 113.671 91.9314 113.974 92.0427 114.495C92.0897 114.716 92.0926 114.925 92.0514 115.122C92.278 115.304 92.4255 115.556 92.494 115.876C92.5496 116.137 92.5354 116.413 92.4514 116.703C92.6096 116.858 92.7101 117.035 92.7529 117.236C92.8086 117.497 92.7801 117.754 92.6677 118.009C92.8073 118.272 92.8922 118.474 92.9221 118.615C92.9863 118.915 92.9415 119.145 92.7877 119.303C93.0428 119.521 93.2003 119.771 93.2602 120.051C93.3158 120.312 93.2774 120.572 93.145 120.831C93.3004 121.07 93.4144 121.36 93.4872 121.701C93.5257 121.881 93.5322 122.058 93.5066 122.231C93.6362 122.35 93.7289 122.54 93.7845 122.8C93.8616 123.161 93.8139 123.475 93.6416 123.743C93.8027 124.107 93.9453 124.579 94.0694 125.16C94.1477 125.039 94.2147 124.962 94.2702 124.929C94.2972 124.567 94.451 124.262 94.7316 124.013C94.6902 123.624 94.8077 123.295 95.084 123.026C94.9984 122.625 95.1194 122.264 95.447 121.942C95.3899 121.577 95.4475 121.261 95.6199 120.994C95.8079 120.702 96.0514 120.524 96.3506 120.461C96.3178 120.405 96.2886 120.317 96.2629 120.196C96.203 119.916 96.2172 119.64 96.3055 119.37C96.4094 119.075 96.5782 118.84 96.8118 118.664C96.796 118.395 96.8608 118.161 97.0061 117.963C97.1713 117.76 97.3693 117.613 97.6001 117.522C97.4803 117.254 97.4859 116.938 97.6169 116.575C97.7479 116.211 97.9281 115.932 98.1574 115.736C98.0789 115.271 98.1215 114.885 98.2853 114.577C98.4647 114.245 98.7596 114.015 99.1699 113.885C99.0758 113.738 99.0138 113.594 98.9839 113.453C98.9154 113.133 98.9816 112.857 99.1824 112.625C99.4032 112.389 99.6831 112.235 100.022 112.163C100.361 112.09 100.672 112.129 100.954 112.278C101.256 112.423 101.456 112.674 101.553 113.031C101.662 113.154 101.741 113.326 101.788 113.546C101.843 113.807 101.819 114.032 101.713 114.223C101.803 114.35 101.865 114.494 101.899 114.654C101.946 114.875 101.934 115.255 101.861 115.794C102.004 115.974 102.094 116.153 102.133 116.334C102.184 116.574 102.153 116.822 102.041 117.076C102.323 117.226 102.509 117.511 102.599 117.932C102.65 118.172 102.654 118.434 102.61 118.716C102.566 118.997 102.473 119.248 102.332 119.466C102.493 119.537 102.637 119.674 102.764 119.877C102.907 120.056 103.006 120.276 103.061 120.537C103.16 120.998 103.097 121.389 102.874 121.709C102.906 121.765 102.936 121.853 102.961 121.973C103.008 122.194 103.007 122.382 102.957 122.54C103.087 122.659 103.194 122.919 103.28 123.32C103.353 123.66 103.369 123.93 103.327 124.127C103.501 124.258 103.618 124.463 103.678 124.744C103.755 125.105 103.685 125.413 103.469 125.669C103.687 125.811 103.888 126.019 104.072 126.295C104.271 126.545 104.401 126.811 104.461 127.092C104.486 127.212 104.481 127.381 104.444 127.598C104.407 127.816 104.301 128.006 104.128 128.169C103.954 128.332 103.757 128.437 103.538 128.484C103.239 128.547 102.982 128.518 102.769 128.396C102.488 128.351 102.252 128.224 102.061 128.013C101.886 127.778 101.79 127.526 101.774 127.257C101.601 127.126 101.448 126.949 101.317 126.726C101.182 126.482 101.088 126.24 101.037 125.999C100.968 125.679 100.975 125.415 101.056 125.209C100.918 125.05 100.827 124.87 100.784 124.67C100.733 124.429 100.797 124.143 100.976 123.812C100.785 123.601 100.656 123.335 100.587 123.014C100.523 122.714 100.53 122.503 100.608 122.381C100.511 122.318 100.444 122.196 100.405 122.016C100.35 121.755 100.402 121.461 100.561 121.134C100.336 120.762 100.185 120.397 100.108 120.036C100.005 119.555 100.034 119.056 100.195 118.539L99.9811 118.271C99.6606 118.821 99.3694 119.166 99.1072 119.306C99.0874 119.604 98.9571 119.873 98.7164 120.113C98.8063 120.827 98.5757 121.505 98.0245 122.147C98.1001 122.403 98.0837 122.669 97.9755 122.943C97.863 123.198 97.6757 123.395 97.4136 123.535C97.4094 123.808 97.2948 124.053 97.0697 124.268C97.181 124.79 97.0365 125.187 96.6362 125.461C96.6491 125.815 96.5908 126.079 96.4612 126.253C96.3316 126.428 96.1236 126.577 95.8373 126.701C95.8545 127.074 95.8168 127.386 95.7242 127.637C95.6516 127.883 95.485 128.128 95.2243 128.372Z" fill="black"/>
<path d="M113.056 122.207C112.851 122.125 112.712 121.914 112.639 121.573C112.601 121.393 112.594 121.216 112.62 121.043C112.646 120.87 112.7 120.732 112.782 120.631C112.633 120.516 112.526 120.308 112.462 120.008C112.402 119.727 112.399 119.424 112.455 119.097C112.51 118.771 112.577 118.547 112.656 118.426C112.571 118.423 112.489 118.377 112.408 118.29C112.326 118.203 112.269 118.079 112.234 117.918C112.209 117.798 112.21 117.609 112.239 117.351C111.968 117.158 111.781 116.82 111.678 116.339C111.576 115.858 111.585 115.416 111.708 115.013C111.451 114.69 111.289 114.368 111.22 114.048C111.152 113.727 111.194 113.435 111.346 113.172C111.258 113.149 111.165 113.054 111.066 112.886C110.964 112.698 110.891 112.504 110.848 112.304C110.754 111.863 110.831 111.542 111.081 111.342C111.109 110.791 111.402 110.456 111.961 110.337C112.2 110.286 112.482 110.289 112.807 110.345C112.968 110.122 113.16 109.945 113.382 109.814C113.62 109.658 113.853 109.577 114.081 109.57C114.253 109.303 114.549 109.124 114.968 109.035C115.247 108.975 115.503 109.004 115.737 109.122C115.888 109.048 116.093 108.983 116.352 108.928C116.592 108.877 116.812 108.882 117.013 108.944C117.214 109.006 117.472 109.139 117.787 109.345C117.842 109.312 117.92 109.285 118.019 109.264C118.398 109.183 118.73 109.269 119.013 109.523C119.109 109.482 119.226 109.446 119.366 109.416C119.725 109.34 120.056 109.426 120.36 109.676C120.616 109.705 120.828 109.817 120.995 110.012C121.177 110.182 121.278 110.412 121.298 110.701C121.629 110.882 121.833 111.153 121.91 111.514C121.94 111.654 121.942 111.811 121.916 111.984C122.176 112.222 122.346 112.532 122.427 112.913C122.504 113.273 122.455 113.577 122.278 113.825C122.356 114.29 122.13 114.695 121.599 115.039C122.023 115.074 122.406 115.254 122.746 115.58C123.087 115.905 123.28 116.273 123.326 116.682C123.547 117.033 123.698 117.399 123.779 117.78C123.891 118.301 123.863 118.758 123.696 119.149C123.798 119.526 123.763 119.9 123.592 120.272C123.441 120.64 123.177 120.968 122.801 121.258C122.769 121.496 122.658 121.708 122.468 121.895C122.294 122.058 122.096 122.153 121.872 122.18C121.56 122.477 121.205 122.668 120.806 122.753C120.686 122.779 120.594 122.788 120.53 122.781C120.371 123.108 120.101 123.312 119.722 123.393C119.583 123.423 119.447 123.421 119.314 123.386C118.991 123.728 118.64 123.939 118.261 124.02C117.942 124.088 117.659 124.033 117.412 123.855C117.341 123.912 117.236 123.956 117.096 123.986C117.059 124.203 116.954 124.393 116.78 124.556C116.626 124.715 116.439 124.817 116.22 124.864C116.001 124.911 115.788 124.893 115.583 124.812C115.284 124.875 115.013 124.828 114.771 124.671C114.529 124.513 114.355 124.288 114.251 123.995C114.002 123.902 113.755 123.724 113.512 123.462C113.284 123.175 113.138 122.881 113.073 122.581C113.056 122.501 113.051 122.376 113.056 122.207ZM114.532 111.832C114.485 111.904 114.335 112.031 114.081 112.211C113.828 112.391 113.683 112.495 113.648 112.523C113.722 112.675 113.767 112.791 113.785 112.871C113.853 113.192 113.801 113.486 113.629 113.754C113.803 113.884 113.924 114.11 113.992 114.43C114.057 114.731 114.053 115.057 113.982 115.407C114.087 115.511 114.176 115.68 114.247 115.917C114.334 116.129 114.408 116.28 114.469 116.372C114.583 116.222 114.81 116.111 115.149 116.038C115.368 115.992 115.586 115.987 115.803 116.025C116.136 115.828 116.453 115.697 116.752 115.633L117.117 115.587C117.516 115.208 117.985 114.961 118.523 114.846L118.829 114.813C118.963 114.365 119.37 113.88 120.051 113.357C119.809 113.199 119.658 112.98 119.598 112.699C119.568 112.559 119.568 112.412 119.598 112.259C119.424 112.129 119.31 111.985 119.255 111.829C119.065 111.912 118.861 111.934 118.644 111.897C118.443 111.835 118.286 111.732 118.172 111.589C118.096 111.626 117.989 111.659 117.849 111.689C117.59 111.745 117.338 111.736 117.093 111.662C116.848 111.589 116.664 111.46 116.541 111.277C116.486 111.31 116.398 111.339 116.278 111.364C116.119 111.399 115.963 111.4 115.81 111.37C115.51 111.623 115.084 111.777 114.532 111.832ZM119.66 120.609C119.839 120.57 119.951 120.557 119.995 120.568C120.223 120.268 120.503 120.114 120.835 120.106C121.02 119.606 121.194 119.348 121.358 119.334C121.197 118.97 121.233 118.554 121.467 118.085C121.326 118.01 121.208 117.899 121.114 117.752C121.02 117.604 120.976 117.446 120.982 117.277L120.862 117.302C120.643 117.349 120.368 117.282 120.037 117.101C119.961 117.138 119.824 117.178 119.624 117.221C119.365 117.276 119.159 117.289 119.007 117.258C118.889 117.388 118.716 117.509 118.49 117.62C118.283 117.727 118.152 117.797 118.097 117.83C117.803 118.018 117.487 118.149 117.148 118.221C117.028 118.247 116.844 118.265 116.596 118.276C116.265 118.577 115.889 118.773 115.47 118.862C115.251 118.909 115.075 118.915 114.942 118.881C114.871 118.938 114.834 119.008 114.831 119.093C114.829 119.177 114.821 119.242 114.81 119.286C115.081 119.48 115.25 119.737 115.319 120.058C115.392 120.399 115.312 120.709 115.08 120.989C115.254 121.12 115.371 121.325 115.43 121.606C115.46 121.746 115.463 121.903 115.437 122.076L115.565 122.237C115.723 122.099 115.933 121.96 116.196 121.82C116.458 121.68 116.718 121.582 116.978 121.527C117.297 121.459 117.571 121.474 117.801 121.571C117.951 121.204 118.216 120.98 118.595 120.899C118.775 120.86 118.943 120.866 119.1 120.917C119.202 120.811 119.319 120.723 119.45 120.653L119.66 120.609Z" fill="black"/>
<path d="M137.689 108.177C137.93 108.23 138.18 108.428 138.441 108.771C138.722 109.109 138.905 109.478 138.991 109.879C139.136 110.561 138.935 111.086 138.388 111.454C138.289 111.769 138.116 112.036 137.871 112.256C137.646 112.472 137.374 112.614 137.055 112.682C136.796 112.737 136.514 112.735 136.209 112.674C136.071 112.808 135.871 112.945 135.608 113.085C135.346 113.225 135.076 113.325 134.796 113.384C134.318 113.486 133.967 113.456 133.745 113.294C133.58 113.497 133.278 113.646 132.839 113.739C132.52 113.807 132.218 113.809 131.933 113.744C131.683 113.944 131.379 114.082 131.02 114.159C130.681 114.231 130.391 114.241 130.15 114.187C129.99 114.41 129.6 114.588 128.982 114.72C128.643 114.792 128.407 114.811 128.274 114.777C128.458 115.345 128.47 115.793 128.311 116.121C128.771 116.421 129.009 116.8 129.023 117.258C129.047 117.274 129.174 117.33 129.403 117.428C129.633 117.526 129.822 117.726 129.97 118.03C130.189 117.983 130.408 118.031 130.626 118.173C130.864 118.311 131.022 118.466 131.101 118.638C131.163 118.54 131.314 118.466 131.554 118.415C131.733 118.377 131.899 118.373 132.052 118.403C132.204 118.433 132.299 118.487 132.336 118.563C132.458 118.453 132.609 118.378 132.789 118.34C133.048 118.285 133.307 118.324 133.565 118.457C133.756 118.375 133.901 118.323 134.001 118.301C134.2 118.259 134.376 118.253 134.528 118.283C134.554 118.11 134.682 117.925 134.911 117.73C135.136 117.514 135.39 117.386 135.674 117.347C135.791 117.112 135.976 116.905 136.229 116.725C136.483 116.545 136.749 116.426 137.028 116.366C137.567 116.251 138.003 116.388 138.336 116.778C138.45 116.922 138.531 117.104 138.578 117.324C138.681 117.805 138.543 118.233 138.164 118.607C138.077 118.689 137.931 118.835 137.726 119.047C137.516 119.238 137.321 119.395 137.138 119.518C136.956 119.641 136.785 119.719 136.625 119.753C136.403 120.178 136.033 120.445 135.514 120.556C135.275 120.607 135.091 120.626 134.963 120.611C134.766 120.863 134.439 121.037 133.98 121.135C133.561 121.225 133.255 121.206 133.061 121.08C132.934 121.17 132.801 121.23 132.661 121.26C132.382 121.319 132.101 121.274 131.819 121.125C130.815 121.402 130.058 121.229 129.55 120.604C129.27 120.663 128.915 120.561 128.483 120.297C128.067 120.008 127.811 119.738 127.716 119.486C127.218 119.404 126.858 119.135 126.636 118.679C126.582 118.523 126.55 118.373 126.54 118.228C126.456 118.225 126.369 118.16 126.279 118.032C126.205 117.88 126.151 117.724 126.116 117.564C126.091 117.444 126.084 117.361 126.095 117.317C125.833 116.87 125.659 116.446 125.573 116.045C125.488 115.644 125.49 115.266 125.581 114.911C125.415 114.717 125.304 114.489 125.248 114.228C125.179 113.907 125.181 113.572 125.252 113.221C125.323 112.871 125.408 112.633 125.506 112.507C125.445 112.415 125.438 112.238 125.487 111.976C125.531 111.695 125.611 111.436 125.728 111.202C125.86 110.943 126.012 110.774 126.183 110.696L126.082 110.372C125.916 109.59 126.23 109.009 127.024 108.63C126.952 108.289 127.081 107.916 127.411 107.51C127.741 107.104 128.061 106.889 128.368 106.865C128.361 106.636 128.514 106.426 128.828 106.233C129.157 106.016 129.417 105.918 129.61 105.94C129.714 105.646 129.994 105.397 130.452 105.195C130.588 104.956 130.826 104.8 131.165 104.728C131.265 104.707 131.399 104.699 131.567 104.705L131.83 104.617C132.069 104.566 132.279 104.574 132.46 104.64C132.657 104.682 132.758 104.765 132.764 104.89C133.211 104.836 133.602 104.857 133.935 104.954C134.268 105.05 134.51 105.303 134.66 105.711C134.906 105.595 135.25 105.595 135.692 105.711C136.129 105.806 136.531 106.024 136.895 106.365C137.276 106.682 137.522 107.101 137.633 107.623C137.659 107.743 137.677 107.928 137.689 108.177ZM133.708 111.07C133.848 110.747 134.306 110.502 135.084 110.336C135.523 110.242 135.871 110.21 136.127 110.239C135.95 110.193 135.764 110.055 135.569 109.824C135.39 109.569 135.274 109.321 135.223 109.08C135.188 108.92 135.193 108.793 135.235 108.7C134.96 108.78 134.706 108.761 134.472 108.643C134.254 108.501 134.042 108.337 133.835 108.15C133.649 107.96 133.505 107.823 133.404 107.74C133.317 107.821 133.097 107.816 132.743 107.723C132.406 107.607 132.207 107.461 132.149 107.284C132.091 107.402 131.94 107.528 131.698 107.664C131.452 107.779 131.257 107.842 131.113 107.851C131.074 107.964 130.956 108.095 130.758 108.242C130.56 108.389 130.337 108.468 130.089 108.479C129.971 108.902 129.828 109.258 129.66 109.545C129.492 109.832 129.251 110.072 128.938 110.265C128.958 110.554 128.894 110.893 128.748 111.28C128.621 111.664 128.467 111.969 128.286 112.196L128.412 112.201C128.649 111.941 129.006 111.759 129.485 111.657C129.764 111.598 130.03 111.572 130.282 111.581C130.554 111.586 130.749 111.618 130.866 111.677C131.28 111.274 131.777 111.011 132.355 110.887C132.834 110.785 133.285 110.846 133.708 111.07Z" fill="black"/>
<path d="M151.611 116.805C151.479 117.064 151.276 117.286 151.002 117.47C150.724 117.634 150.426 117.75 150.107 117.818C149.708 117.903 149.414 117.893 149.224 117.786C149.097 117.876 148.954 117.938 148.795 117.972C148.416 118.053 148.069 117.991 147.754 117.786C147.536 117.937 147.337 118.032 147.157 118.07C146.838 118.139 146.502 118.126 146.149 118.034C145.811 117.918 145.557 117.752 145.386 117.537C145.015 117.658 144.613 117.629 144.178 117.449C143.759 117.245 143.481 116.969 143.344 116.621C142.69 116.488 142.132 115.874 141.668 114.778C141.527 114.703 141.405 114.572 141.303 114.384C141.2 114.197 141.127 114.003 141.085 113.802C141.055 113.662 141.043 113.56 141.05 113.495C140.566 112.886 140.246 112.221 140.092 111.499C139.951 110.837 139.975 110.266 140.165 109.786C140.082 109.594 140.03 109.448 140.009 109.348C139.936 109.007 139.947 108.669 140.042 108.334C140.134 107.98 140.284 107.706 140.493 107.515C140.432 107.423 140.382 107.287 140.343 107.107C140.275 106.786 140.313 106.474 140.456 106.171C140.616 105.843 140.789 105.628 140.976 105.526C140.995 105.228 141.129 104.927 141.377 104.623C141.641 104.294 141.944 104.103 142.287 104.051C142.558 103.364 142.899 103.009 143.311 102.984C143.439 102.705 143.642 102.483 143.92 102.319C144.217 102.151 144.498 102.049 144.762 102.014C144.931 101.831 145.136 101.714 145.375 101.663C145.614 101.612 145.866 101.621 146.132 101.69C146.265 101.535 146.472 101.428 146.751 101.369C146.951 101.326 147.147 101.316 147.339 101.338C147.531 101.359 147.666 101.404 147.743 101.471C147.894 101.397 148.072 101.401 148.277 101.483C148.478 101.545 148.616 101.652 148.69 101.804C149.029 101.731 149.342 101.78 149.628 101.949C149.93 102.094 150.171 102.294 150.35 102.55C150.546 102.78 150.648 102.968 150.658 103.113C151.032 103.201 151.327 103.41 151.543 103.741C151.751 104.032 151.881 104.298 151.933 104.538C152.018 104.939 151.935 105.282 151.683 105.566C151.513 105.749 151.319 105.864 151.099 105.911C150.74 105.987 150.359 105.912 149.956 105.683C149.573 105.451 149.284 105.125 149.09 104.705C148.822 104.72 148.554 104.683 148.284 104.594C148.011 104.485 147.785 104.355 147.607 104.204C147.551 104.237 147.404 104.279 147.164 104.33C146.945 104.377 146.793 104.399 146.709 104.396C146.568 104.615 146.388 104.747 146.169 104.794C145.949 104.841 145.725 104.816 145.495 104.718C145.322 105.174 144.986 105.456 144.487 105.562C144.305 105.978 144.135 106.308 143.979 106.551C143.818 106.774 143.563 106.901 143.216 106.934C143.249 106.99 143.278 107.078 143.303 107.198C143.355 107.439 143.34 107.662 143.259 107.868C143.178 108.074 143.074 108.274 142.949 108.468C142.839 108.638 142.753 108.772 142.691 108.869C142.854 109.149 142.964 109.419 143.02 109.679C143.118 110.14 143.096 110.721 142.954 111.422C143.084 111.542 143.206 111.725 143.322 111.973C143.453 112.196 143.544 112.428 143.596 112.669C143.626 112.809 143.637 112.912 143.63 112.976C143.791 113.046 143.947 113.191 144.098 113.41C144.269 113.625 144.378 113.843 144.425 114.064C144.958 114.118 145.416 114.261 145.799 114.493C146.203 114.722 146.432 114.966 146.488 115.227C146.669 114.999 146.889 114.858 147.148 114.803C147.387 114.752 147.63 114.763 147.875 114.836C148.14 114.905 148.353 115.027 148.516 115.202C148.611 115.161 148.729 115.125 148.869 115.096C149.168 115.032 149.448 115.077 149.711 115.23C149.756 115.053 149.919 114.84 150.2 114.591C150.48 114.343 150.723 114.207 150.926 114.185C151.003 113.959 151.131 113.774 151.309 113.632C151.507 113.484 151.725 113.385 151.965 113.334C152.124 113.3 152.236 113.287 152.3 113.294C152.491 112.918 152.806 112.683 153.245 112.589C153.624 112.508 153.981 112.569 154.316 112.769C154.65 112.97 154.858 113.261 154.94 113.642C155.034 114.083 154.924 114.495 154.609 114.876C154.31 115.233 153.931 115.461 153.472 115.559C153.293 115.597 153.161 115.615 153.077 115.612C153.245 115.618 153.244 115.712 153.075 115.895C152.925 116.074 152.696 116.27 152.387 116.482C152.073 116.675 151.815 116.783 151.611 116.805Z" fill="black"/>
<path d="M167.636 101.783C167.877 101.836 168.128 102.034 168.389 102.377C168.67 102.715 168.853 103.085 168.938 103.486C169.084 104.167 168.883 104.692 168.336 105.06C168.236 105.375 168.064 105.642 167.819 105.862C167.594 106.078 167.322 106.22 167.003 106.288C166.744 106.343 166.461 106.341 166.157 106.28C166.018 106.414 165.818 106.551 165.556 106.691C165.294 106.831 165.023 106.931 164.744 106.99C164.265 107.093 163.915 107.063 163.693 106.901C163.527 107.103 163.225 107.252 162.787 107.345C162.467 107.414 162.165 107.415 161.88 107.35C161.631 107.55 161.327 107.689 160.968 107.765C160.629 107.838 160.339 107.847 160.098 107.794C159.937 108.017 159.548 108.194 158.929 108.326C158.59 108.399 158.354 108.417 158.222 108.383C158.406 108.951 158.418 109.399 158.259 109.727C158.719 110.027 158.956 110.406 158.971 110.864C158.995 110.88 159.122 110.936 159.351 111.034C159.58 111.132 159.769 111.333 159.918 111.636C160.137 111.59 160.356 111.637 160.574 111.779C160.812 111.917 160.97 112.072 161.048 112.244C161.111 112.147 161.262 112.072 161.501 112.021C161.681 111.983 161.847 111.979 161.999 112.009C162.152 112.04 162.246 112.093 162.283 112.169C162.406 112.059 162.557 111.985 162.736 111.946C162.996 111.891 163.254 111.93 163.512 112.064C163.703 111.981 163.849 111.929 163.948 111.908C164.148 111.865 164.324 111.859 164.476 111.889C164.502 111.716 164.629 111.532 164.859 111.336C165.084 111.12 165.338 110.993 165.621 110.953C165.738 110.719 165.923 110.511 166.177 110.331C166.43 110.152 166.697 110.032 166.976 109.972C167.515 109.857 167.951 109.995 168.284 110.385C168.398 110.528 168.479 110.71 168.526 110.93C168.628 111.411 168.49 111.839 168.112 112.213C168.025 112.295 167.879 112.441 167.674 112.653C167.464 112.844 167.268 113.001 167.086 113.124C166.904 113.247 166.733 113.325 166.573 113.359C166.351 113.784 165.981 114.052 165.462 114.162C165.223 114.214 165.039 114.232 164.911 114.217C164.714 114.469 164.386 114.644 163.928 114.741C163.509 114.831 163.202 114.812 163.009 114.686C162.882 114.776 162.749 114.836 162.609 114.866C162.33 114.925 162.049 114.881 161.767 114.731C160.763 115.009 160.006 114.835 159.497 114.21C159.218 114.269 158.862 114.167 158.431 113.903C158.015 113.615 157.759 113.344 157.663 113.092C157.166 113.01 156.806 112.741 156.584 112.285C156.53 112.129 156.497 111.979 156.487 111.834C156.403 111.831 156.316 111.766 156.227 111.638C156.153 111.487 156.098 111.33 156.064 111.17C156.038 111.05 156.031 110.967 156.043 110.923C155.78 110.476 155.606 110.052 155.521 109.651C155.435 109.25 155.438 108.872 155.529 108.518C155.362 108.323 155.251 108.095 155.196 107.834C155.127 107.514 155.128 107.178 155.2 106.827C155.271 106.477 155.355 106.239 155.454 106.113C155.392 106.021 155.386 105.844 155.434 105.583C155.478 105.301 155.559 105.043 155.676 104.808C155.808 104.549 155.96 104.381 156.131 104.302L156.03 103.978C155.863 103.196 156.177 102.615 156.972 102.236C156.899 101.895 157.028 101.522 157.359 101.116C157.689 100.71 158.008 100.495 158.316 100.472C158.309 100.243 158.462 100.032 158.775 99.8391C159.104 99.6222 159.365 99.5246 159.557 99.5464C159.661 99.2517 159.942 99.0032 160.399 98.8008C160.536 98.562 160.774 98.4064 161.113 98.334C161.213 98.3127 161.347 98.3051 161.515 98.3111L161.777 98.2235C162.017 98.1724 162.227 98.18 162.408 98.2461C162.605 98.288 162.706 98.3712 162.711 98.4957C163.159 98.4421 163.549 98.4636 163.883 98.5601C164.216 98.6566 164.458 98.9089 164.607 99.3171C164.854 99.2016 165.198 99.2015 165.64 99.3168C166.077 99.412 166.478 99.6303 166.843 99.9716C167.224 100.289 167.469 100.708 167.581 101.229C167.606 101.349 167.625 101.534 167.636 101.783ZM163.656 104.676C163.795 104.353 164.254 104.108 165.032 103.942C165.471 103.849 165.818 103.816 166.075 103.845C165.898 103.799 165.712 103.661 165.517 103.43C165.337 103.175 165.222 102.927 165.17 102.687C165.136 102.526 165.14 102.4 165.183 102.307C164.908 102.386 164.654 102.367 164.42 102.249C164.202 102.107 163.99 101.943 163.783 101.757C163.596 101.566 163.452 101.429 163.351 101.346C163.264 101.427 163.044 101.422 162.691 101.33C162.353 101.213 162.155 101.067 162.097 100.891C162.038 101.008 161.888 101.134 161.646 101.27C161.399 101.385 161.204 101.448 161.06 101.458C161.022 101.571 160.904 101.701 160.706 101.848C160.508 101.995 160.285 102.074 160.037 102.085C159.919 102.508 159.776 102.864 159.607 103.151C159.439 103.439 159.199 103.679 158.885 103.871C158.905 104.16 158.842 104.499 158.695 104.886C158.569 105.27 158.415 105.575 158.234 105.802L158.36 105.807C158.597 105.547 158.954 105.366 159.433 105.263C159.712 105.204 159.978 105.179 160.23 105.188C160.502 105.192 160.697 105.224 160.813 105.283C161.228 104.88 161.724 104.617 162.303 104.493C162.781 104.391 163.232 104.452 163.656 104.676Z" fill="black"/>
<path d="M181.972 96.0814C182.258 96.2508 182.457 96.5961 182.568 97.1173C182.666 97.5783 182.656 97.9684 182.536 98.2873C182.679 98.4665 182.767 98.6362 182.801 98.7966C182.87 99.1173 182.818 99.4114 182.646 99.6787C182.932 99.8481 183.107 100.083 183.172 100.384C183.232 100.664 183.177 101.095 183.01 101.676C183.253 101.938 183.407 102.22 183.471 102.521C183.518 102.741 183.52 102.992 183.476 103.274C183.634 103.429 183.737 103.617 183.784 103.837C183.844 104.118 183.792 104.412 183.628 104.719C183.897 104.809 184.07 105.034 184.147 105.394C184.207 105.675 184.191 105.94 184.099 106.191C184.254 106.43 184.351 106.64 184.389 106.82C184.454 107.121 184.4 107.405 184.227 107.672C184.391 107.952 184.497 108.202 184.544 108.422C184.634 108.843 184.593 109.24 184.422 109.611C184.267 109.959 184.056 110.193 183.79 110.312C183.734 110.345 183.637 110.376 183.497 110.406C183.138 110.483 182.829 110.402 182.569 110.164C182.33 109.922 182.172 109.62 182.095 109.259C182.078 109.179 182.01 108.911 181.891 108.454C181.793 107.993 181.782 107.597 181.857 107.267C181.666 107.056 181.549 106.85 181.506 106.65C181.455 106.409 181.478 106.174 181.575 105.944C181.46 105.8 181.369 105.568 181.301 105.248C181.215 104.847 181.221 104.531 181.318 104.301C181.261 104.229 181.219 104.133 181.194 104.013C181.172 103.913 181.169 103.798 181.183 103.669C181.193 103.521 181.177 103.398 181.136 103.302L180.828 102.739C180.782 102.623 180.738 102.465 180.695 102.264C180.618 101.904 180.605 101.55 180.656 101.204C180.43 101.022 180.278 100.75 180.201 100.389C180.12 100.008 180.135 99.6385 180.246 99.2794C180.107 99.1203 180.01 98.9104 179.955 98.6499C179.865 98.2289 179.913 97.8203 180.1 97.4242C179.789 97.8259 179.245 98.1097 178.467 98.2758C178.128 98.3482 177.822 98.382 177.55 98.3772C177.348 98.5042 177.117 98.5954 176.858 98.6508C176.659 98.6934 176.433 98.7101 176.181 98.7011C176.014 98.7996 175.843 98.878 175.668 98.9364C175.512 98.9905 175.315 99.0431 175.076 99.0942C175.158 99.2861 175.206 99.4122 175.219 99.4723C175.262 99.6727 175.217 99.9024 175.085 100.161C175.177 100.204 175.271 100.3 175.365 100.447C175.459 100.595 175.525 100.759 175.563 100.939C175.632 101.26 175.618 101.535 175.521 101.766C175.663 101.945 175.758 102.145 175.805 102.365C175.835 102.506 175.852 102.68 175.855 102.889C176.209 103.086 176.428 103.375 176.509 103.756C176.565 104.016 176.54 104.294 176.436 104.588C176.619 104.759 176.744 105.005 176.813 105.325C176.864 105.566 176.863 105.807 176.811 106.049C176.758 106.291 176.643 106.483 176.465 106.626C176.617 107.243 176.623 107.755 176.48 108.163C176.338 108.571 176.037 108.97 175.579 109.362C175.577 109.844 175.344 110.365 174.88 110.926C174.416 111.486 173.944 111.911 173.464 112.203C173.2 112.531 172.859 112.74 172.44 112.83C172.121 112.898 171.825 112.877 171.551 112.768C171.293 112.635 171.13 112.407 171.061 112.087C171.031 111.946 171.027 111.78 171.048 111.586C171.04 111.253 171.169 110.88 171.435 110.466C171.697 110.033 172.016 109.672 172.392 109.382C172.784 109.068 173.116 108.913 173.388 108.918C173.428 108.616 173.515 108.293 173.65 107.95C173.801 107.582 173.964 107.317 174.138 107.154C173.971 106.372 174.061 105.819 174.409 105.493C174.299 105.37 174.195 105.078 174.096 104.616C174.028 104.296 174.008 104.059 174.038 103.906C173.601 103.517 173.318 103.022 173.19 102.421C173.121 102.1 173.115 101.829 173.172 101.607C172.966 101.421 172.817 101.117 172.727 100.696C172.672 100.435 172.668 100.174 172.717 99.9122C172.607 99.789 172.526 99.607 172.475 99.3665C172.411 99.0658 172.421 98.7703 172.505 98.4799C172.584 98.1694 172.745 97.9464 172.987 97.8109C173.043 97.4847 173.223 97.2052 173.528 96.9724C173.853 96.7354 174.209 96.5965 174.596 96.5557C174.766 96.3728 174.98 96.2536 175.239 96.1983C175.559 96.1301 175.857 96.1607 176.135 96.29C176.424 96.0816 176.718 95.9454 177.018 95.8815C177.377 95.8049 177.695 95.8312 177.973 95.9605C178.078 95.7704 178.25 95.5975 178.488 95.4419C178.741 95.262 178.988 95.1465 179.227 95.0954C179.27 95.0024 179.355 94.911 179.481 94.821C179.604 94.7111 179.745 94.639 179.904 94.605C180.024 94.5794 180.116 94.5703 180.18 94.5775C180.358 94.4347 180.527 94.3463 180.687 94.3122C181.006 94.2441 181.303 94.3169 181.578 94.5306C181.869 94.7201 182.046 94.9652 182.11 95.2658C182.17 95.5465 182.124 95.8183 181.972 96.0814Z" fill="black"/>
<path d="M196.533 107.529C196.345 107.82 196.002 108.019 195.503 108.126C195.124 108.207 194.802 108.213 194.537 108.143C194.195 108.3 193.885 108.409 193.606 108.468C192.828 108.634 192.226 108.553 191.802 108.224C191.726 108.262 191.619 108.295 191.479 108.325C191.02 108.423 190.626 108.287 190.297 107.917C190.102 107.98 189.821 107.935 189.455 107.782C189.104 107.606 188.926 107.403 188.918 107.174C188.582 107.162 188.272 107.029 187.989 106.775C187.721 106.497 187.554 106.155 187.488 105.75C187.252 105.717 187.048 105.593 186.877 105.378C186.706 105.163 186.588 104.905 186.524 104.604C186.456 104.283 186.456 104.042 186.526 103.88C186.234 103.587 186.041 103.219 185.947 102.778C185.848 102.317 185.909 101.916 186.128 101.576C185.874 101.463 185.713 101.245 185.645 100.925C185.602 100.724 185.609 100.513 185.666 100.291C185.723 100.07 185.823 99.9017 185.965 99.7875C185.865 99.5153 185.839 99.2484 185.888 98.9865C185.952 98.7004 186.071 98.4759 186.245 98.313C186.192 98.2614 186.153 98.1755 186.127 98.0552C186.088 97.8748 186.11 97.6816 186.191 97.4756C186.292 97.2654 186.418 97.1232 186.569 97.0491C186.536 96.9932 186.509 96.9151 186.488 96.8149C186.398 96.3939 186.48 95.9991 186.735 95.6302C186.986 95.2414 187.265 95.035 187.573 95.0113C187.513 94.7306 187.584 94.4746 187.784 94.243C188.001 93.9872 188.309 93.8167 188.707 93.7316C188.887 93.6932 189.029 93.6735 189.133 93.6722C189.208 93.3417 189.396 93.0501 189.697 92.7973C189.993 92.5244 190.321 92.3497 190.68 92.273C190.919 92.2219 191.129 92.2295 191.31 92.2956C191.538 91.9954 191.861 91.8007 192.28 91.7112C192.619 91.6388 192.936 91.6551 193.229 91.7601C193.543 91.8609 193.759 92.0452 193.879 92.3131C194.198 92.2449 194.563 92.2928 194.973 92.4567C195.379 92.6006 195.638 92.7864 195.749 93.0141C196.258 93.0523 196.783 93.265 197.324 93.6524C197.882 94.0155 198.212 94.4376 198.314 94.9187C198.331 94.9989 198.337 95.1234 198.331 95.2923C199.228 95.2896 199.803 96.0786 200.057 97.6591C200.301 97.9215 200.459 98.2231 200.532 98.5638C200.617 98.9648 200.573 99.3933 200.399 99.8496C200.498 100.017 200.564 100.181 200.598 100.342C200.65 100.582 200.649 100.823 200.596 101.065C200.544 101.307 200.45 101.505 200.316 101.659C200.405 101.976 200.401 102.249 200.304 102.479C200.227 102.705 200.055 103.025 199.789 103.438C199.826 103.514 199.862 103.632 199.896 103.793C200.024 104.394 199.769 104.857 199.129 105.182C199.138 105.516 199.024 105.813 198.787 106.073C198.571 106.329 198.273 106.497 197.894 106.578C197.669 107.087 197.327 107.391 196.869 107.489C196.729 107.518 196.617 107.532 196.533 107.529ZM193.271 106.024C193.401 105.85 193.655 105.722 194.034 105.641C194.314 105.582 194.472 105.59 194.509 105.666C194.63 105.451 194.799 105.269 195.017 105.117C195.235 104.966 195.446 104.879 195.65 104.856C195.916 104.443 196.249 104.194 196.648 104.109C196.787 104.079 196.889 104.068 196.953 104.075C196.895 103.899 196.908 103.718 196.994 103.532C197.075 103.326 197.189 103.176 197.336 103.082C197.28 102.821 197.293 102.588 197.374 102.382C197.471 102.152 197.608 101.965 197.786 101.822C197.701 101.421 197.712 101.084 197.82 100.809C197.726 100.661 197.662 100.507 197.628 100.347C197.581 100.127 197.585 99.9054 197.642 99.6837C197.695 99.4419 197.796 99.2317 197.946 99.053C197.708 98.9152 197.561 98.716 197.505 98.4554C197.454 98.2149 197.472 97.9594 197.561 97.6891C197.11 97.5337 196.792 97.3606 196.605 97.17C196.434 96.955 196.282 96.5368 196.15 95.9153C195.974 95.9737 195.764 95.9139 195.517 95.736C195.29 95.5538 195.127 95.3267 195.027 95.0546C194.821 95.1616 194.539 95.1589 194.181 95.0466C193.839 94.9101 193.636 94.6914 193.572 94.3907C193.429 94.505 193.248 94.5855 193.029 94.6324C192.61 94.7218 192.239 94.6439 191.916 94.3985C191.743 94.6659 191.493 94.908 191.163 95.125C190.85 95.3177 190.559 95.4216 190.292 95.4369C190.314 95.6416 190.186 95.9205 189.907 96.2735C189.644 96.6022 189.391 96.8344 189.149 96.9699C189.234 97.0774 189.294 97.2113 189.328 97.3717C189.371 97.5722 189.364 97.7833 189.307 98.005C189.25 98.2268 189.147 98.427 188.997 98.6056C189.077 98.882 189.065 99.1675 188.961 99.4622C188.877 99.7526 188.716 99.9756 188.478 100.131C188.553 100.283 188.6 100.409 188.622 100.509C188.682 100.79 188.659 101.025 188.553 101.215C188.643 101.343 188.703 101.477 188.733 101.617C188.78 101.838 188.722 102.102 188.558 102.409C189.129 102.643 189.484 103.081 189.621 103.723C189.693 104.064 189.696 104.367 189.627 104.633C189.831 104.611 189.983 104.641 190.085 104.724C190.186 104.807 190.29 104.953 190.397 105.16C190.908 105.114 191.329 105.276 191.658 105.646C191.877 105.599 192.161 105.612 192.511 105.684C192.88 105.752 193.133 105.865 193.271 106.024Z" fill="black"/>
</svg>
