<svg width="691" height="704" viewBox="0 0 691 704" fill="none" xmlns="http://www.w3.org/2000/svg">
<path d="M307.498 694.916C594.298 694.916 641.331 513.916 628.998 423.416C628.998 237.816 437.998 191.082 342.498 190.916C82.0982 190.916 10.9983 354.916 7.99827 436.916C7.99829 664.116 207.665 703.582 307.498 694.916Z" fill="white" stroke="black" stroke-width="16"/>
<path d="M83.8569 433.864C83.2809 433.864 82.6729 433.864 82.0329 433.864C81.4569 433.928 80.9129 433.8 80.4009 433.48C78.7369 433.608 77.1049 433 75.5049 431.656C73.9049 430.312 72.9449 428.84 72.6249 427.24C72.4329 425.768 72.4329 424.232 72.6249 422.632C72.9449 421.032 73.3609 419.144 73.8729 416.968C74.4489 414.792 75.0889 412.552 75.7929 410.248C76.5609 407.88 77.3609 405.672 78.1929 403.624C78.3849 403.176 78.7049 402.344 79.1529 401.128C79.6009 399.848 80.0809 398.472 80.5929 397C81.1689 395.464 81.6809 394.088 82.1289 392.872C82.5769 391.592 82.8649 390.728 82.9929 390.28C83.4409 388.936 83.7929 387.944 84.0489 387.304C84.3049 386.664 84.5609 386.12 84.8169 385.672C85.0729 385.16 85.3929 384.488 85.7769 383.656C86.1609 382.824 86.6729 381.576 87.3129 379.912C88.0169 378.184 88.7849 376.488 89.6169 374.824C90.5129 373.16 91.4729 371.528 92.4969 369.928C92.8169 369.48 93.0729 369 93.2649 368.488C93.4569 367.976 93.6489 367.496 93.8409 367.048C94.4809 365.96 95.1849 365.608 95.9529 365.992C96.7849 366.312 97.7769 366.76 98.9289 367.336C99.5689 367.72 99.9529 368.2 100.081 368.776C100.273 369.352 100.113 369.96 99.6009 370.6C98.3849 372.584 97.1689 374.632 95.9529 376.744C94.8009 378.792 93.6809 380.872 92.5929 382.984C92.4649 383.24 92.2089 383.752 91.8249 384.52C91.5049 385.288 91.1849 386.056 90.8649 386.824C90.5449 387.592 90.3849 388.136 90.3849 388.456C90.0009 389.224 89.4889 390.44 88.8489 392.104C88.2089 393.768 87.5369 395.56 86.8329 397.48C86.1289 399.4 85.4569 401.224 84.8169 402.952C84.2409 404.616 83.7929 405.864 83.4729 406.696C82.7689 408.424 82.0969 410.28 81.4569 412.264C80.8809 414.184 80.4329 415.816 80.1129 417.16C80.0489 417.608 79.9209 418.312 79.7289 419.272C79.5369 420.168 79.3449 421.128 79.1529 422.152C79.0249 423.112 78.8969 423.944 78.7689 424.648C78.6409 425.288 78.6089 425.512 78.6729 425.32C78.6089 425.768 78.6089 426.184 78.6729 426.568C78.7369 426.952 78.8969 427.336 79.1529 427.72C81.7769 428.936 84.4649 429.48 87.2169 429.352C89.9689 429.16 92.6569 428.968 95.2809 428.776C95.4089 428.84 95.8569 428.872 96.6249 428.872C97.3929 428.872 98.1929 428.872 99.0249 428.872C99.8569 428.808 100.401 428.776 100.657 428.776C100.785 428.392 100.753 428.104 100.561 427.912C100.433 427.656 100.241 427.432 99.9849 427.24C99.4729 426.28 99.1529 425.512 99.0249 424.936C98.8969 424.36 98.9609 423.752 99.2169 423.112C99.4729 422.472 99.8569 421.544 100.369 420.328C100.561 419.432 101.073 417.8 101.905 415.432C102.737 413.064 103.697 410.344 104.785 407.272C105.937 404.2 107.089 401.16 108.241 398.152C109.393 395.08 110.417 392.392 111.313 390.088C112.209 387.72 112.817 386.12 113.137 385.288C113.841 383.688 114.385 382.376 114.769 381.352C115.153 380.264 115.473 379.24 115.729 378.28C116.049 377.256 116.369 376.072 116.689 374.728L117.361 372.712C117.873 372.52 118.385 372.488 118.897 372.616C119.409 372.68 119.889 372.808 120.337 373C121.041 373.192 121.809 373.64 122.641 374.344C123.473 375.048 123.601 375.88 123.025 376.84C123.089 376.776 122.897 377.352 122.449 378.568C122.001 379.784 121.393 381.352 120.625 383.272C119.921 385.192 119.121 387.24 118.225 389.416C117.393 391.592 116.593 393.672 115.825 395.656C115.057 397.64 114.417 399.272 113.905 400.552C113.457 401.832 113.201 402.504 113.137 402.568C112.369 404.68 111.601 406.792 110.833 408.904C110.065 410.952 109.361 413.032 108.721 415.144C107.697 418.472 106.833 421.352 106.129 423.784C105.489 426.152 105.073 427.592 104.881 428.104C105.265 428.36 105.649 428.584 106.033 428.776C106.481 428.904 106.929 428.776 107.377 428.392C108.785 428.392 110.417 428.296 112.273 428.104C114.193 427.848 116.017 427.592 117.745 427.336C119.537 427.016 120.945 426.76 121.969 426.568C122.993 426.376 123.313 426.312 122.929 426.376C123.377 426.184 123.857 426.024 124.369 425.896C124.881 425.768 125.361 425.608 125.809 425.416C126.065 424.712 126.257 424.008 126.385 423.304C126.577 422.536 126.801 421.832 127.057 421.192C127.825 419.08 128.529 416.936 129.169 414.76C129.809 412.584 130.609 410.504 131.569 408.52C131.889 407.816 132.177 407.112 132.433 406.408C132.753 405.704 133.009 405 133.201 404.296C133.329 403.848 133.585 403.016 133.969 401.8C134.417 400.52 134.929 399.144 135.505 397.672C136.081 396.136 136.593 394.76 137.041 393.544C137.489 392.264 137.809 391.4 138.001 390.952C138.257 390.248 138.705 389.032 139.345 387.304C139.985 385.512 140.721 383.528 141.553 381.352C142.385 379.112 143.217 376.936 144.049 374.824C144.881 372.648 145.585 370.792 146.161 369.256C146.737 367.72 147.089 366.824 147.217 366.568C148.241 366.376 149.169 366.44 150.001 366.76C150.833 367.08 151.665 367.624 152.497 368.392C152.689 369.032 152.753 369.672 152.689 370.312C152.625 370.952 152.433 371.624 152.113 372.328C150.961 375.144 149.713 378.184 148.369 381.448C147.089 384.712 145.841 387.944 144.625 391.144C143.409 394.344 142.289 397.288 141.265 399.976C140.241 402.856 139.153 405.736 138.001 408.616C136.913 411.432 135.921 414.344 135.025 417.352C134.897 417.608 134.673 418.184 134.353 419.08C134.033 419.976 133.713 420.968 133.393 422.056C133.073 423.08 132.785 424.008 132.529 424.84C132.337 425.672 132.273 426.152 132.337 426.28C132.657 426.6 132.721 427.016 132.529 427.528C132.337 427.976 132.049 428.392 131.665 428.776C131.345 429.16 131.025 429.416 130.705 429.544C130.449 429.608 130.161 429.736 129.841 429.928C129.585 430.056 129.297 429.992 128.977 429.736C126.801 430.568 124.305 431.24 121.489 431.752C118.737 432.264 115.825 432.776 112.753 433.288C112.049 433.416 110.993 433.448 109.585 433.384C108.241 433.384 106.929 433.384 105.649 433.384C104.433 433.384 103.601 433.48 103.153 433.672C102.961 433.8 102.449 433.832 101.617 433.768C100.849 433.704 100.049 433.608 99.2169 433.48C98.3849 433.416 97.7449 433.384 97.2969 433.384C95.9529 433.384 94.3209 433.416 92.4009 433.48C90.5449 433.608 88.7849 433.704 87.1209 433.768C85.5209 433.832 84.4329 433.864 83.8569 433.864ZM155.052 431.56C154.22 431.56 153.548 431.4 153.036 431.08C152.588 430.76 152.012 430.312 151.308 429.736C150.092 428.456 149.228 427.24 148.716 426.088C148.204 424.872 148.044 423.72 148.236 422.632C148.428 422.12 148.492 421.64 148.428 421.192C148.428 420.68 148.428 420.424 148.428 420.424C148.108 420.104 148.012 419.912 148.14 419.848C148.268 419.72 148.396 419.528 148.524 419.272C148.908 419.272 149.036 418.92 148.908 418.216C148.78 417.704 149.036 416.584 149.676 414.856C150.316 413.128 151.116 411.496 152.076 409.96C152.46 409.32 153.036 408.488 153.804 407.464C154.572 406.376 155.404 405.32 156.3 404.296C157.26 403.208 158.124 402.344 158.892 401.704C160.492 400.36 161.9 399.368 163.116 398.728C164.332 398.088 165.644 397.608 167.052 397.288C168.46 396.968 169.42 396.808 169.932 396.808C170.508 396.808 171.276 397.32 172.236 398.344C173.708 398.984 174.764 399.752 175.404 400.648C176.108 401.544 176.556 402.856 176.748 404.584C176.94 406.504 176.78 408.712 176.268 411.208C175.82 413.64 174.316 416.68 171.756 420.328C170.156 422.632 168.684 424.36 167.34 425.512C165.996 426.6 164.396 427.688 162.54 428.776C161.196 429.672 159.98 430.344 158.892 430.792C157.804 431.176 156.524 431.432 155.052 431.56ZM164.268 421.384C165.804 419.656 167.02 418.024 167.916 416.488C168.876 414.952 169.772 413 170.604 410.632C170.86 409.928 171.02 409.064 171.084 408.04C171.148 406.952 171.116 405.96 170.988 405.064C170.924 404.104 170.7 403.56 170.316 403.432C169.548 402.984 168.62 402.856 167.532 403.048C166.444 403.176 165.26 403.784 163.98 404.872C161.996 406.536 160.268 408.616 158.796 411.112C157.324 413.544 155.884 416.328 154.476 419.464C153.516 421.768 153.292 423.624 153.804 425.032C154.38 426.376 155.564 426.856 157.356 426.472C159.212 426.024 161.516 424.328 164.268 421.384ZM208.594 428.296C207.89 427.848 207.25 427.272 206.674 426.568C206.098 425.8 205.81 424.84 205.81 423.688C205.81 423.048 205.938 421.96 206.194 420.424C206.45 418.888 206.802 417.16 207.25 415.24C207.698 413.32 208.146 411.528 208.594 409.864C209.234 408.712 209.778 407.56 210.226 406.408C210.674 405.256 210.898 404.552 210.898 404.296C211.026 403.528 211.186 402.632 211.378 401.608C211.634 400.584 211.89 399.656 212.146 398.824C212.402 397.992 212.594 397.512 212.722 397.384C213.042 397.064 213.426 396.872 213.874 396.808C214.322 396.68 214.77 396.744 215.218 397C215.73 397.192 216.114 397.608 216.37 398.248C217.074 399.016 217.426 399.944 217.426 401.032C217.426 402.056 217.074 403.592 216.37 405.64C215.794 406.92 215.218 408.424 214.642 410.152C214.066 411.88 213.554 413.48 213.106 414.952C212.722 416.36 212.498 417.32 212.434 417.832L210.514 418.408C211.602 417.384 212.626 416.328 213.586 415.24C214.546 414.088 215.25 413.192 215.698 412.552C216.786 411.08 217.714 409.864 218.482 408.904C219.314 407.88 220.37 406.664 221.65 405.256C222.93 403.784 224.178 402.888 225.394 402.568C226.674 402.184 227.666 401.992 228.37 401.992C229.778 402.248 230.898 402.984 231.73 404.2C232.626 405.352 233.202 407.08 233.458 409.384C233.458 410.28 233.362 411.336 233.17 412.552C233.042 413.768 232.978 414.376 232.978 414.376C232.978 414.376 233.49 413.704 234.514 412.36C235.602 411.016 237.042 409.544 238.834 407.944C240.05 407.048 241.234 406.536 242.386 406.408C243.538 406.216 244.562 406.6 245.458 407.56C247.122 408.456 248.21 409.832 248.722 411.688C249.234 413.48 249.362 415.784 249.106 418.6C248.914 420.264 248.882 421.512 249.01 422.344C249.138 423.112 249.33 423.88 249.586 424.648C250.098 424.904 250.194 425.448 249.874 426.28C249.554 427.048 249.17 427.432 248.722 427.432C248.082 427.432 247.346 427.304 246.514 427.048C245.746 426.792 245.042 426.376 244.402 425.8C243.826 425.16 243.538 424.296 243.538 423.208V417.256C243.538 415.848 243.474 414.696 243.346 413.8C243.282 412.904 243.122 412.36 242.866 412.168C242.162 411.784 241.138 412.2 239.794 413.416C238.45 414.632 237.01 416.264 235.474 418.312C233.938 420.36 232.498 422.472 231.154 424.648C229.938 426.632 229.17 427.784 228.85 428.104C228.594 428.36 228.114 428.264 227.41 427.816C226.002 427.368 225.106 426.76 224.722 425.992C224.402 425.16 224.37 424.232 224.626 423.208C224.946 422.12 225.33 420.648 225.778 418.792C226.29 416.936 226.77 415.144 227.218 413.416C227.666 411.624 227.954 410.344 228.082 409.576C227.826 409.064 227.378 408.904 226.738 409.096C226.162 409.224 225.554 409.512 224.914 409.96C224.146 410.472 223.218 411.432 222.13 412.84C221.042 414.248 219.922 415.88 218.77 417.736C218.002 418.952 217.202 420.168 216.37 421.384C215.538 422.536 214.77 423.56 214.066 424.456C213.362 425.352 212.754 426.024 212.242 426.472C211.346 427.88 210.738 428.648 210.418 428.776C210.098 428.904 209.49 428.744 208.594 428.296ZM271.262 431.752C269.086 432.328 267.55 432.616 266.654 432.616C265.758 432.616 264.798 432.168 263.774 431.272C263.454 430.952 263.262 430.632 263.198 430.312C263.134 429.928 262.974 429.704 262.718 429.64C262.654 429.192 262.686 428.84 262.814 428.584C263.006 428.264 263.422 427.976 264.062 427.72C265.022 428.296 266.238 428.456 267.71 428.2C269.182 427.944 270.622 427.4 272.03 426.568C273.502 425.672 274.654 424.616 275.486 423.4C276.766 421.864 277.758 420.424 278.462 419.08C279.166 417.672 279.55 416.424 279.614 415.336C279.614 414.696 279.518 414.248 279.326 413.992C279.198 413.672 278.878 413.192 278.366 412.552C277.214 412.936 276.158 413.384 275.198 413.896C274.302 414.408 273.566 414.952 272.99 415.528C271.07 417.128 269.566 418.44 268.478 419.464C267.454 420.488 266.558 421.512 265.79 422.536C265.086 423.56 264.19 424.936 263.102 426.664C262.59 427.304 262.11 427.784 261.662 428.104C261.278 428.424 260.862 428.584 260.414 428.584C260.606 429.864 260.158 430.632 259.07 430.888C257.662 430.568 256.638 430.152 255.998 429.64C255.358 429.064 255.166 427.976 255.422 426.376C255.678 425.48 255.934 424.424 256.19 423.208C256.446 421.928 256.734 420.872 257.054 420.04C258.59 415.944 259.934 412.296 261.086 409.096C262.302 405.896 263.358 403.624 264.254 402.28L266.366 396.808C267.454 396.872 268.286 397.096 268.862 397.48C269.438 397.8 270.11 398.6 270.878 399.88C270.878 400.2 270.558 401.128 269.918 402.664C269.342 404.136 268.638 405.832 267.806 407.752C267.038 409.672 266.302 411.464 265.598 413.128C264.958 414.728 264.51 415.848 264.254 416.488C263.998 417.192 264.19 417.064 264.83 416.104C265.534 415.144 266.75 413.928 268.478 412.456C269.31 411.624 270.334 410.856 271.55 410.152C272.766 409.384 273.79 408.808 274.622 408.424C275.518 408.04 276.254 407.816 276.83 407.752C277.406 407.688 277.822 407.624 278.078 407.56C279.678 407.56 280.958 407.976 281.918 408.808C282.878 409.576 283.55 410.472 283.934 411.496C284.382 412.52 284.606 413.352 284.606 413.992C284.798 415.016 284.926 416.008 284.99 416.968C285.118 417.864 285.054 418.824 284.798 419.848C284.606 420.36 284.254 421.064 283.742 421.96C283.23 422.856 282.622 423.784 281.918 424.744C281.278 425.64 280.51 426.376 279.614 426.952C279.038 427.528 278.27 428.136 277.31 428.776C276.35 429.416 275.326 430.024 274.238 430.6C273.214 431.112 272.222 431.496 271.262 431.752ZM291.23 433.288C290.078 433.16 289.118 432.808 288.35 432.232C287.646 431.592 287.134 430.664 286.814 429.448C286.814 428.36 286.942 427.368 287.198 426.472C287.518 425.512 287.774 424.584 287.966 423.688C288.286 422.216 288.734 420.744 289.31 419.272C289.886 417.8 290.398 416.328 290.846 414.856C291.23 413.96 291.55 413.096 291.806 412.264C292.062 411.432 292.318 410.6 292.574 409.768C292.894 408.744 293.214 407.752 293.534 406.792C293.854 405.832 294.174 404.872 294.494 403.912C294.75 403.08 294.942 402.216 295.07 401.32C295.262 400.424 295.422 399.528 295.55 398.632C296.254 397.864 297.022 397.544 297.854 397.672C298.75 397.8 299.838 398.536 301.118 399.88C301.438 400.648 301.598 401.352 301.598 401.992C301.598 402.568 301.438 403.176 301.118 403.816C300.862 404.392 300.51 405.256 300.062 406.408C299.678 407.56 299.262 408.712 298.814 409.864C298.43 410.952 298.142 411.784 297.95 412.36C297.822 413.064 297.47 414.216 296.894 415.816C296.382 417.416 295.838 419.08 295.262 420.808C294.686 422.472 294.27 423.816 294.014 424.84C293.63 425.8 293.342 426.728 293.15 427.624C292.958 428.52 292.766 429.64 292.574 430.984C292.702 431.56 292.606 432.04 292.286 432.424C292.03 432.744 291.678 433.032 291.23 433.288ZM300.476 440.584C299.836 440.584 299.42 440.52 299.228 440.392C299.1 440.328 298.908 440.072 298.652 439.624C298.652 439.176 298.748 438.792 298.94 438.472C299.196 438.152 299.548 437.768 299.996 437.32C300.636 436.68 301.372 435.88 302.204 434.92C303.036 434.024 303.804 433.096 304.508 432.136C305.276 431.176 305.82 430.408 306.14 429.832C306.396 429.128 306.62 428.296 306.812 427.336C307.068 426.376 307.324 425.32 307.58 424.168C307.58 423.656 307.58 423.208 307.58 422.824C307.644 422.376 307.804 422.024 308.06 421.768C308.508 421.32 308.892 421.128 309.212 421.192C309.596 421.256 309.916 421.64 310.172 422.344C310.492 423.048 310.716 424.104 310.844 425.512C311.1 426.92 311.1 428.2 310.844 429.352C310.588 430.504 310.108 431.912 309.404 433.576C309.276 434.024 308.86 434.696 308.156 435.592C307.452 436.488 306.748 437.32 306.044 438.088C305.34 438.856 304.892 439.24 304.7 439.24C304.444 439.24 304.22 439.304 304.028 439.432C303.836 439.624 303.612 439.848 303.356 440.104C303.1 440.36 302.716 440.488 302.204 440.488C301.756 440.552 301.18 440.584 300.476 440.584ZM347.846 432.808C347.654 432.552 347.462 432.36 347.27 432.232C347.078 432.04 346.854 431.848 346.598 431.656C346.406 431.4 346.086 431.08 345.638 430.696C345.574 429.928 345.67 428.872 345.926 427.528C346.246 426.184 346.598 424.84 346.982 423.496C347.366 422.152 347.686 421.16 347.942 420.52C347.942 420.52 348.102 419.976 348.422 418.888C348.806 417.8 349.254 416.488 349.766 414.952C350.278 413.352 350.79 411.784 351.302 410.248C351.878 408.648 352.326 407.336 352.646 406.312C353.03 405.224 353.222 404.68 353.222 404.68C353.35 404.424 353.414 404.168 353.414 403.912C353.414 403.592 353.414 403.208 353.414 402.76C353.222 401.608 353.318 400.744 353.702 400.168C354.15 399.592 354.502 398.984 354.758 398.344C355.462 398.408 355.942 398.408 356.198 398.344C356.518 398.28 356.87 398.344 357.254 398.536C357.702 398.6 358.566 398.536 359.846 398.344C361.126 398.152 362.406 397.896 363.686 397.576C365.03 397.256 365.926 397 366.374 396.808C367.27 396.808 368.134 396.776 368.966 396.712C369.862 396.648 370.726 396.68 371.558 396.808C372.646 396.808 373.606 397.192 374.438 397.96C375.27 398.728 375.846 399.336 376.166 399.784C376.038 400.04 375.878 400.296 375.686 400.552C375.558 400.744 375.43 400.936 375.302 401.128C375.174 401.32 375.014 401.512 374.822 401.704C374.438 401.704 373.638 401.704 372.422 401.704C371.206 401.704 369.894 401.768 368.486 401.896C367.142 402.024 366.022 402.248 365.126 402.568C364.294 402.824 363.398 402.984 362.438 403.048C361.542 403.048 360.71 403.208 359.942 403.528C359.622 403.848 359.302 404.488 358.982 405.448C358.662 406.408 358.374 407.4 358.118 408.424C357.862 409.448 357.638 410.216 357.446 410.728C357.446 410.664 357.254 411.112 356.87 412.072C356.55 413.032 356.166 414.12 355.718 415.336C355.334 416.552 355.014 417.544 354.758 418.312C354.502 418.696 354.182 419.432 353.798 420.52C353.414 421.608 353.062 422.696 352.742 423.784C352.422 424.872 352.198 425.672 352.07 426.184C351.814 427.336 351.494 428.488 351.11 429.64C350.726 430.728 350.246 431.816 349.67 432.904C349.414 432.904 349.126 432.904 348.806 432.904C348.486 432.84 348.166 432.808 347.846 432.808ZM379.021 431.56C378.189 431.56 377.517 431.4 377.005 431.08C376.557 430.76 375.981 430.312 375.277 429.736C374.061 428.456 373.197 427.24 372.685 426.088C372.173 424.872 372.013 423.72 372.205 422.632C372.397 422.12 372.461 421.64 372.397 421.192C372.397 420.68 372.397 420.424 372.397 420.424C372.077 420.104 371.981 419.912 372.109 419.848C372.237 419.72 372.365 419.528 372.493 419.272C372.877 419.272 373.005 418.92 372.877 418.216C372.749 417.704 373.005 416.584 373.645 414.856C374.285 413.128 375.085 411.496 376.045 409.96C376.429 409.32 377.005 408.488 377.773 407.464C378.541 406.376 379.373 405.32 380.269 404.296C381.229 403.208 382.093 402.344 382.861 401.704C384.461 400.36 385.869 399.368 387.085 398.728C388.301 398.088 389.613 397.608 391.021 397.288C392.429 396.968 393.389 396.808 393.901 396.808C394.477 396.808 395.245 397.32 396.205 398.344C397.677 398.984 398.733 399.752 399.373 400.648C400.077 401.544 400.525 402.856 400.717 404.584C400.909 406.504 400.749 408.712 400.237 411.208C399.789 413.64 398.285 416.68 395.725 420.328C394.125 422.632 392.653 424.36 391.309 425.512C389.965 426.6 388.365 427.688 386.509 428.776C385.165 429.672 383.949 430.344 382.861 430.792C381.773 431.176 380.493 431.432 379.021 431.56ZM388.237 421.384C389.773 419.656 390.989 418.024 391.885 416.488C392.845 414.952 393.741 413 394.573 410.632C394.829 409.928 394.989 409.064 395.053 408.04C395.117 406.952 395.085 405.96 394.957 405.064C394.893 404.104 394.669 403.56 394.285 403.432C393.517 402.984 392.589 402.856 391.501 403.048C390.413 403.176 389.229 403.784 387.949 404.872C385.965 406.536 384.237 408.616 382.765 411.112C381.293 413.544 379.853 416.328 378.445 419.464C377.485 421.768 377.261 423.624 377.773 425.032C378.349 426.376 379.533 426.856 381.325 426.472C383.181 426.024 385.485 424.328 388.237 421.384ZM402.638 431.176C402.19 430.92 401.71 430.76 401.198 430.696C400.75 430.632 400.27 430.568 399.758 430.504C399.31 430.056 398.926 429.608 398.606 429.16C398.35 428.648 398.158 428.072 398.03 427.432C397.966 427.048 398.03 426.696 398.222 426.376C398.414 426.056 398.606 425.768 398.798 425.512C398.99 425.512 399.214 425.544 399.47 425.608C399.726 425.608 399.982 425.608 400.238 425.608C401.326 424.776 402.286 423.88 403.118 422.92C404.014 421.896 404.878 420.84 405.71 419.752C406.606 418.536 407.406 417.32 408.11 416.104C408.814 414.824 409.39 413.48 409.838 412.072C410.03 411.496 410.158 410.92 410.222 410.344C410.286 409.704 410.446 409.128 410.702 408.616C411.086 407.848 411.374 407.08 411.566 406.312C411.822 405.48 412.078 404.68 412.334 403.912C411.374 403.72 410.638 403.592 410.126 403.528C409.678 403.4 409.262 403.176 408.878 402.856C408.494 402.536 407.95 402.056 407.246 401.416C407.182 400.52 407.278 399.88 407.534 399.496C407.79 399.048 408.398 398.696 409.358 398.44C409.742 398.312 410.126 398.216 410.51 398.152C410.894 398.024 411.278 397.96 411.662 397.96C412.366 397.896 413.07 397.864 413.774 397.864C414.478 397.864 415.214 397.896 415.982 397.96C416.494 398.024 417.006 398.12 417.518 398.248C418.03 398.376 418.542 398.504 419.054 398.632C419.63 398.824 420.206 399.08 420.782 399.4C421.358 399.656 421.934 399.88 422.51 400.072C422.958 400.136 423.374 400.296 423.758 400.552C424.142 400.808 424.558 401.096 425.006 401.416C426.158 402.12 427.054 403.016 427.694 404.104C428.334 405.128 428.654 406.28 428.654 407.56C428.654 409.544 428.366 411.4 427.79 413.128C427.47 414.344 427.118 415.56 426.734 416.776C426.414 417.992 426.062 419.208 425.678 420.424C425.422 421.256 425.166 422.056 424.91 422.824C424.654 423.592 424.462 424.392 424.334 425.224C424.206 425.928 424.11 426.664 424.046 427.432C423.982 428.2 423.886 429 423.758 429.832C423.502 429.896 423.246 429.96 422.99 430.024C422.798 430.088 422.542 430.184 422.222 430.312C421.518 430.056 420.782 429.8 420.014 429.544C419.246 429.224 418.702 428.552 418.382 427.528C418.382 427.4 418.382 427.272 418.382 427.144C418.446 426.952 418.478 426.728 418.478 426.472C418.478 426.28 418.478 426.088 418.478 425.896C418.478 425.704 418.478 425.512 418.478 425.32C418.606 424.168 418.798 423.048 419.054 421.96C419.31 420.808 419.63 419.688 420.014 418.6C420.526 417.32 420.942 416.072 421.262 414.856C421.582 413.576 421.902 412.328 422.222 411.112C422.414 410.536 422.542 409.96 422.606 409.384C422.734 408.744 422.83 408.136 422.894 407.56C422.958 406.856 422.798 406.056 422.414 405.16C421.774 404.648 421.102 404.264 420.398 404.008C419.694 403.688 418.926 403.464 418.094 403.336C417.966 403.784 417.742 404.264 417.422 404.776C417.358 404.904 417.326 405.096 417.326 405.352C417.326 405.544 417.262 405.672 417.134 405.736C416.75 405.992 416.494 406.344 416.366 406.792C416.302 407.176 416.238 407.592 416.174 408.04C416.11 408.36 416.014 408.68 415.886 409C415.758 409.32 415.598 409.64 415.406 409.96C415.15 410.216 414.99 410.568 414.926 411.016C414.862 411.4 414.798 411.816 414.734 412.264C414.606 413.224 414.382 414.152 414.062 415.048C413.742 415.944 413.326 416.936 412.814 418.024C412.494 418.472 412.206 418.952 411.95 419.464C411.694 419.912 411.438 420.392 411.182 420.904C411.118 421.16 410.99 421.416 410.798 421.672C410.606 421.864 410.446 422.12 410.318 422.44C409.998 423.08 409.646 423.752 409.262 424.456C408.878 425.096 408.43 425.672 407.918 426.184C407.086 427.016 406.254 427.88 405.422 428.776C404.654 429.672 403.726 430.472 402.638 431.176ZM442.008 429.352C440.664 429.608 439.8 429.704 439.416 429.64C439.096 429.512 438.584 429.128 437.88 428.488C436.856 427.976 435.992 427.336 435.288 426.568C434.648 425.8 434.168 425 433.848 424.168C433.592 423.272 433.496 422.536 433.56 421.96C433.752 419.72 434.296 417.32 435.192 414.76C436.088 412.2 437.176 409.736 438.456 407.368C439.736 405 441.112 402.984 442.584 401.32C444.12 399.592 445.592 398.472 447 397.96C448.28 397.448 449.496 397.256 450.648 397.384C451.8 397.512 452.632 398.12 453.144 399.208C454.104 401.064 453.88 402.248 452.472 402.76C452.28 402.76 452.056 402.856 451.8 403.048C451.544 403.176 451.416 403.368 451.416 403.624C451.672 403.752 452.376 403.784 453.528 403.72C454.68 403.592 455.832 403.4 456.984 403.144C458.2 402.824 459 402.504 459.384 402.184C459.768 401.992 460.056 401.896 460.248 401.896C460.44 401.896 460.92 401.96 461.688 402.088C462.776 402.408 463.32 402.792 463.32 403.24C463.32 403.496 463.416 403.752 463.608 404.008C463.8 404.2 464.024 404.296 464.28 404.296C464.728 404.36 464.664 404.648 464.088 405.16C463.576 405.672 462.68 406.376 461.4 407.272C460.184 408.04 459.416 408.552 459.096 408.808C458.84 409 458.808 409.448 459 410.152C459.512 411.368 459.544 412.776 459.096 414.376C458.648 415.976 457.848 417.608 456.696 419.272C455.544 420.936 454.136 422.504 452.472 423.976C450.872 425.384 449.144 426.6 447.288 427.624C445.496 428.584 443.736 429.16 442.008 429.352ZM440.376 425.128C440.632 425.128 441.08 425 441.72 424.744C442.36 424.424 442.872 424.168 443.256 423.976C443.512 423.72 443.832 423.432 444.216 423.112C444.664 422.728 445.016 422.504 445.272 422.44C445.528 422.44 445.848 422.344 446.232 422.152C446.616 421.896 447.16 421.416 447.864 420.712C448.568 419.944 449.496 418.824 450.648 417.352C451.928 415.944 452.92 414.664 453.624 413.512C454.328 412.296 454.52 411.176 454.2 410.152C454.136 409.896 453.944 409.736 453.624 409.672C453.368 409.608 453.016 409.448 452.568 409.192C451.928 409.192 451.32 409.032 450.744 408.712C450.232 408.328 449.624 407.848 448.92 407.272L447.384 405.352L445.752 406.984C444.728 408.008 443.64 409.544 442.488 411.592C441.4 413.576 440.472 415.624 439.704 417.736C438.936 419.784 438.488 421.416 438.36 422.632C438.296 423.592 438.456 424.232 438.84 424.552C439.224 424.872 439.736 425.064 440.376 425.128ZM477.292 400.744C478.316 400.424 479.564 399.752 481.036 398.728C482.508 397.704 483.948 396.584 485.356 395.368C486.764 394.152 487.82 393.128 488.524 392.296C489.164 391.592 489.74 390.856 490.252 390.088C490.828 389.32 491.436 388.584 492.076 387.88C493.1 386.792 494.06 385.352 494.956 383.56C495.852 381.768 496.3 380.136 496.3 378.664C496.3 378.28 496.108 377.96 495.724 377.704C495.404 377.448 495.084 377.384 494.764 377.512C494.252 377.704 493.74 377.96 493.228 378.28C492.716 378.536 492.268 378.856 491.884 379.24C491.052 380.072 490.124 380.904 489.1 381.736C488.076 382.504 487.148 383.336 486.316 384.232C486.252 384.296 486.188 384.392 486.124 384.52C486.124 384.584 486.092 384.68 486.028 384.808C485.452 385.896 484.812 386.952 484.108 387.976C483.468 389 482.796 390.056 482.092 391.144C481.132 392.68 480.3 394.28 479.596 395.944C478.956 397.608 478.188 399.208 477.292 400.744ZM479.788 406.696C479.98 406.696 480.172 406.696 480.364 406.696C480.62 406.632 480.844 406.568 481.036 406.504C481.676 406.568 482.284 406.696 482.86 406.888C483.5 407.016 484.14 407.144 484.78 407.272C485.1 407.848 485.484 408.488 485.932 409.192C486.444 409.832 486.796 410.472 486.988 411.112C487.116 411.56 487.244 412.04 487.372 412.552C487.5 413 487.596 413.48 487.66 413.992C487.532 414.312 487.5 414.984 487.564 416.008C487.692 417.032 487.596 417.96 487.276 418.792C486.892 420.008 486.54 421.256 486.22 422.536C485.9 423.752 485.388 424.904 484.684 425.992C484.236 426.696 483.532 427.624 482.572 428.776C481.676 429.928 480.876 430.728 480.172 431.176C479.724 431.432 479.244 431.624 478.732 431.752C478.284 431.816 477.804 431.976 477.292 432.232C476.46 432.68 475.564 432.616 474.604 432.04C473.708 431.464 472.876 431.176 472.108 431.176C471.532 431.176 470.86 430.728 470.092 429.832C469.388 428.936 468.78 427.912 468.268 426.76C467.82 425.608 467.66 424.616 467.788 423.784C467.852 423.464 467.788 423.176 467.596 422.92C467.468 422.664 467.404 422.376 467.404 422.056C467.404 420.776 467.436 419.272 467.5 417.544C467.564 415.816 467.724 414.088 467.98 412.36C468.3 410.632 468.716 409.224 469.228 408.136C468.716 407.816 468.3 407.4 467.98 406.888C467.724 406.376 467.436 405.864 467.116 405.352C467.244 405.032 467.372 404.712 467.5 404.392C467.628 404.072 467.724 403.784 467.788 403.528C468.236 403.464 468.652 403.4 469.036 403.336C469.484 403.272 469.932 403.176 470.38 403.048C471.468 399.72 472.812 396.328 474.412 392.872C476.076 389.416 478.06 386.184 480.364 383.176C482.668 380.104 485.324 377.608 488.332 375.688C489.1 375.176 490.028 374.632 491.116 374.056C492.268 373.416 493.324 373.192 494.284 373.384C494.476 373.32 494.668 373.32 494.86 373.384C495.116 373.448 495.308 373.416 495.436 373.288C495.564 373.352 495.692 373.416 495.82 373.48C495.948 373.48 496.076 373.544 496.204 373.672C496.524 374.12 497.26 374.76 498.412 375.592C499.628 376.36 500.652 377.416 501.484 378.76C502.124 379.784 502.124 381 501.484 382.408C500.908 383.816 500.428 385.064 500.044 386.152C499.724 387.048 499.244 387.88 498.604 388.648C498.028 389.352 497.548 390.152 497.164 391.048C497.036 391.432 496.812 391.752 496.492 392.008C496.172 392.2 495.948 392.52 495.82 392.968C495.244 393.224 494.828 393.608 494.572 394.12C494.38 394.632 494.06 395.048 493.612 395.368C493.164 395.752 492.748 396.104 492.364 396.424C492.044 396.744 491.692 397.128 491.308 397.576C490.668 398.344 489.9 399.016 489.004 399.592C488.172 400.104 487.404 400.744 486.7 401.512C485.676 402.024 484.652 402.696 483.628 403.528C482.668 404.36 481.644 404.936 480.556 405.256C479.916 405.448 479.244 405.704 478.54 406.024C477.836 406.28 477.164 406.568 476.524 406.888C475.948 407.144 475.468 407.816 475.084 408.904C474.764 409.928 474.476 411.144 474.22 412.552C473.964 413.96 473.772 415.304 473.644 416.584C473.516 417.864 473.42 418.792 473.356 419.368C473.292 420.136 473.356 421.32 473.548 422.92C473.74 424.456 473.996 425.576 474.316 426.28C474.444 426.536 474.732 426.792 475.18 427.048C475.628 427.304 475.98 427.304 476.236 427.048C476.428 426.856 476.748 426.472 477.196 425.896C477.708 425.32 478.188 424.744 478.636 424.168C479.148 423.528 479.468 423.08 479.596 422.824C479.98 422.056 480.364 421.192 480.748 420.232C481.132 419.272 481.452 418.376 481.708 417.544C482.092 416.136 482.188 414.92 481.996 413.896C481.868 412.872 481.612 411.944 481.228 411.112C480.844 410.28 480.492 409.512 480.172 408.808C479.852 408.104 479.724 407.4 479.788 406.696ZM500.974 429.832C500.206 429.96 499.374 429.832 498.478 429.448C497.582 429.064 496.782 428.52 496.078 427.816C495.438 427.112 495.022 426.376 494.83 425.608C494.574 424.264 494.734 422.6 495.31 420.616C495.95 418.568 496.846 416.424 497.998 414.184C499.214 411.88 500.558 409.672 502.03 407.56C503.566 405.448 505.134 403.624 506.734 402.088C508.398 400.488 509.934 399.4 511.342 398.824C512.046 398.376 512.59 398.088 512.974 397.96C513.422 397.768 513.87 397.736 514.318 397.864C514.83 397.992 515.566 398.312 516.526 398.824C517.422 399.08 518.094 399.368 518.542 399.688C518.99 400.008 519.566 400.648 520.27 401.608C520.782 402.568 521.166 403.528 521.422 404.488C521.678 405.448 521.902 406.536 522.094 407.752C522.606 409.352 522.798 410.408 522.67 410.92C522.542 411.368 522.35 411.72 522.094 411.976C521.582 412.616 521.454 412.936 521.71 412.936C521.71 412.936 521.678 413.064 521.614 413.32C521.614 413.512 521.486 413.832 521.23 414.28C520.782 415.688 520.43 417.16 520.174 418.696C519.982 420.168 520.014 421.384 520.27 422.344C520.782 423.752 521.71 424.584 523.054 424.84C524.398 425.096 525.774 424.52 527.182 423.112C527.886 422.6 528.558 422.152 529.198 421.768C529.838 421.32 530.158 421.352 530.158 421.864C530.158 421.864 530.254 421.96 530.446 422.152C530.638 422.28 530.862 422.344 531.118 422.344C531.438 422.344 531.63 422.472 531.694 422.728C531.822 422.984 531.822 423.336 531.694 423.784C531.63 424.168 531.438 424.616 531.118 425.128C530.158 426.088 529.678 426.728 529.678 427.048C529.678 427.048 529.55 427.176 529.294 427.432C529.102 427.624 528.75 427.944 528.238 428.392C527.086 429.096 525.614 429.448 523.822 429.448C522.094 429.448 520.75 429.096 519.79 428.392C518.83 427.688 517.934 426.728 517.102 425.512C516.334 424.296 515.822 423.24 515.566 422.344L515.086 421.384L512.302 423.208C511.598 423.912 510.83 424.584 509.998 425.224C509.23 425.864 508.718 426.312 508.462 426.568C508.27 426.824 508.046 427.048 507.79 427.24C507.598 427.432 507.374 427.528 507.118 427.528C506.862 427.528 506.638 427.528 506.446 427.528C506.254 427.528 506.158 427.528 506.158 427.528C506.158 427.784 505.838 428.104 505.198 428.488C504.622 428.872 503.918 429.192 503.086 429.448C502.318 429.704 501.614 429.832 500.974 429.832ZM500.014 424.648C500.398 424.648 501.07 424.36 502.03 423.784C503.054 423.144 504.174 422.408 505.39 421.576C506.67 420.744 507.79 419.912 508.75 419.08C509.774 418.248 510.478 417.608 510.862 417.16C511.118 416.904 511.534 416.488 512.11 415.912C512.686 415.272 513.198 414.728 513.646 414.28C515.118 412.616 516.142 410.792 516.718 408.808C517.294 406.76 517.23 405.16 516.526 404.008C516.27 403.304 515.95 402.92 515.566 402.856C515.182 402.792 514.382 403.016 513.166 403.528C512.398 403.976 511.438 404.84 510.286 406.12C509.198 407.336 508.014 408.776 506.734 410.44C505.518 412.04 504.366 413.704 503.278 415.432C502.19 417.16 501.294 418.76 500.59 420.232C499.886 421.704 499.534 422.856 499.534 423.688C499.534 423.944 499.598 424.168 499.726 424.36C499.918 424.552 500.014 424.648 500.014 424.648ZM548.797 414.664C547.773 414.536 547.037 414.12 546.589 413.416C546.141 412.648 545.917 411.88 545.917 411.112C545.917 410.984 545.917 410.728 545.917 410.344C545.981 409.96 546.077 409.512 546.205 409C546.205 408.616 546.397 408.008 546.781 407.176C547.165 406.344 547.581 405.352 548.029 404.2C548.733 402.92 549.821 401.48 551.293 399.88C552.765 398.28 554.013 397.096 555.037 396.328C555.613 395.88 556.029 395.592 556.285 395.464C556.541 395.272 556.669 395.176 556.669 395.176C556.669 394.92 557.117 394.44 558.013 393.736C558.909 392.968 559.677 392.456 560.317 392.2C560.317 392.2 560.733 391.912 561.565 391.336C562.397 390.76 563.037 390.248 563.485 389.8C564.957 388.328 566.045 386.984 566.749 385.768C567.453 384.488 567.997 383.048 568.381 381.448C568.765 379.848 569.181 377.864 569.629 375.496C569.693 373.256 569.693 371.752 569.629 370.984C569.629 370.152 569.245 369.448 568.477 368.872C567.133 368.168 565.469 368.104 563.485 368.68C561.565 369.192 559.677 370.216 557.821 371.752C556.029 373.224 554.653 375.048 553.693 377.224C553.309 378.312 553.085 379.048 553.021 379.432C553.021 379.816 553.117 380.328 553.309 380.968C553.309 381.48 553.373 381.96 553.501 382.408C553.693 382.856 553.789 383.24 553.789 383.56C553.533 383.624 553.053 383.656 552.349 383.656C551.709 383.656 551.037 383.624 550.333 383.56C549.629 383.496 549.053 383.368 548.605 383.176C548.605 383.176 548.477 382.984 548.221 382.6C547.965 382.216 547.773 381.896 547.645 381.64C547.261 381.128 547.069 380.648 547.069 380.2C547.133 379.688 547.165 378.952 547.165 377.992C547.613 376.712 548.221 375.336 548.989 373.864C549.757 372.328 550.749 370.888 551.965 369.544C553.181 368.2 554.589 367.112 556.189 366.28C557.533 365.704 558.653 365.192 559.549 364.744C560.509 364.232 560.989 363.976 560.989 363.976C560.989 363.976 561.213 363.976 561.661 363.976C562.173 363.912 563.005 363.816 564.157 363.688C564.541 363.752 564.957 363.752 565.405 363.688C565.917 363.624 566.173 363.752 566.173 364.072C566.365 364.072 566.749 364.072 567.325 364.072C567.901 364.072 568.445 364.072 568.957 364.072C569.725 364.264 570.525 364.584 571.357 365.032C572.189 365.416 572.957 365.864 573.661 366.376C574.429 366.824 575.037 367.304 575.485 367.816C575.933 369.224 576.125 370.984 576.061 373.096C575.997 375.144 575.677 377.32 575.101 379.624C574.525 381.928 573.757 384.136 572.797 386.248C571.901 388.296 570.813 390.024 569.533 391.432C569.149 391.816 568.445 392.456 567.421 393.352C566.397 394.248 565.309 395.24 564.157 396.328C563.069 397.352 562.173 398.248 561.469 399.016C559.293 400.232 557.373 402.056 555.709 404.488C554.045 406.92 552.797 409.288 551.965 411.592C551.261 413.128 550.781 414.024 550.525 414.28C550.269 414.536 549.693 414.664 548.797 414.664ZM546.109 432.04C544.893 432.488 543.869 432.712 543.037 432.712C542.269 432.648 541.405 432.264 540.445 431.56C539.229 430.408 538.813 429.256 539.197 428.104C539.645 426.888 540.701 425.704 542.365 424.552C543.517 423.848 544.349 423.464 544.861 423.4C545.437 423.336 546.301 423.56 547.453 424.072C549.373 425.288 550.205 426.632 549.949 428.104C549.757 429.576 548.477 430.888 546.109 432.04ZM138.324 561.968C138.324 561.968 138.228 561.904 138.036 561.776C137.844 561.712 137.588 561.648 137.268 561.584C137.012 561.52 136.692 561.488 136.308 561.488C135.284 561.232 134.548 560.656 134.1 559.76C133.652 558.928 133.556 558 133.812 556.976C134.068 556.72 134.26 556.176 134.388 555.344C134.516 554.512 134.58 553.84 134.58 553.328C134.836 552.816 134.996 552.464 135.06 552.272C135.124 552.016 135.284 551.376 135.54 550.352C135.732 549.264 136.052 547.76 136.5 545.84C137.012 543.856 137.556 541.744 138.132 539.504C138.772 537.264 139.38 535.12 139.956 533.072C140.532 531.024 141.044 529.296 141.492 527.888C142.004 526.48 142.356 525.68 142.548 525.488C142.548 525.488 142.548 525.392 142.548 525.2C142.548 524.944 142.548 524.688 142.548 524.432C142.548 524.432 142.58 524.144 142.644 523.568C142.772 522.928 143.092 522.224 143.604 521.456C143.86 520.752 144.084 519.984 144.276 519.152C144.468 518.32 144.564 517.776 144.564 517.52C144.82 517.2 145.172 516.432 145.62 515.216C146.132 513.936 146.612 512.688 147.06 511.472C147.444 510.448 147.86 509.36 148.308 508.208C148.82 507.056 149.236 506.064 149.556 505.232C149.94 504.4 150.132 503.984 150.132 503.984C150.132 503.728 150.132 503.6 150.132 503.6C150.132 503.536 150.132 503.504 150.132 503.504C150.388 503.248 150.996 501.968 151.956 499.664C152.98 497.296 154.356 494.256 156.084 490.544C156.34 490.032 156.66 489.456 157.044 488.816C157.428 488.176 157.62 487.728 157.62 487.472C157.94 486.96 158.388 486.736 158.964 486.8C159.54 486.8 160.116 486.992 160.692 487.376C161.332 487.76 161.812 488.304 162.132 489.008L163.092 490.544L159.636 497.456C158.612 499.248 157.748 500.88 157.044 502.352C156.404 503.824 156.084 504.688 156.084 504.944C156.084 504.944 155.892 505.456 155.508 506.48C155.124 507.504 154.676 508.72 154.164 510.128C153.652 511.536 153.204 512.816 152.82 513.968C152.116 515.952 151.444 517.584 150.804 518.864C150.228 520.144 149.94 520.912 149.94 521.168C149.94 521.04 150.644 520.944 152.052 520.88C153.46 520.816 155.252 520.784 157.428 520.784C159.604 520.784 161.812 520.784 164.052 520.784C166.356 520.72 168.372 520.688 170.1 520.688C171.892 520.624 173.108 520.528 173.748 520.4L178.74 519.92L182.004 510.032C182.516 508.24 183.188 506.064 184.02 503.504C184.852 500.944 185.588 498.768 186.228 496.976C187.252 494.032 188.052 492.208 188.628 491.504C189.204 490.8 189.876 490.448 190.644 490.448C190.836 490.448 191.092 490.512 191.412 490.64C191.796 490.704 192.148 490.864 192.468 491.12C192.852 491.312 193.108 491.6 193.236 491.984C194.004 492.688 194.356 493.488 194.292 494.384C194.292 495.28 193.78 496.464 192.756 497.936C191.732 499.664 190.868 501.552 190.164 503.6C189.524 505.584 188.948 507.216 188.436 508.496C188.436 509.264 188.34 509.904 188.148 510.416C187.956 510.864 187.732 511.216 187.476 511.472C187.348 511.6 187.092 512.08 186.708 512.912C186.324 513.744 185.972 514.576 185.652 515.408C185.332 516.24 185.172 516.752 185.172 516.944C185.172 517.392 185.076 517.936 184.884 518.576C184.692 519.216 184.468 519.664 184.212 519.92C184.084 520.304 183.796 521.264 183.348 522.8C182.9 524.336 182.388 526.16 181.812 528.272C181.236 530.32 180.628 532.336 179.988 534.32C179.348 536.24 178.772 537.84 178.26 539.12C178.26 539.568 178.1 540.144 177.78 540.848C177.46 541.488 177.3 542.064 177.3 542.576C177.044 543.344 176.724 544.304 176.34 545.456C175.956 546.608 175.764 547.344 175.764 547.664C175.444 549.136 175.092 550.64 174.708 552.176C174.388 553.712 174.1 555.024 173.844 556.112C173.652 557.264 173.556 557.936 173.556 558.128C173.3 558.384 172.916 558.416 172.404 558.224C171.892 558.032 171.284 557.808 170.58 557.552C169.364 556.848 168.628 556.08 168.372 555.248C168.18 554.48 168.436 553.36 169.14 551.888C169.46 551.376 169.844 550.128 170.292 548.144C170.804 546.096 171.316 544.08 171.828 542.096C172.212 541.136 172.628 539.856 173.076 538.256C173.524 536.592 173.972 534.928 174.42 533.264C174.868 531.536 175.252 530.096 175.572 528.944C175.892 527.728 176.116 527.056 176.244 526.928C176.244 526.672 176.244 526.448 176.244 526.256C176.244 526.064 176.244 525.968 176.244 525.968C176.116 525.84 175.316 525.744 173.844 525.68C172.372 525.552 170.548 525.52 168.372 525.584C166.196 525.584 163.924 525.648 161.556 525.776C159.252 525.84 157.172 526 155.316 526.256C154.612 526.256 153.812 526.256 152.916 526.256C152.02 526.256 151.316 526.256 150.804 526.256C150.1 526.256 149.492 526.256 148.98 526.256C148.532 526.256 148.308 526.256 148.308 526.256C148.244 526.448 148.02 527.12 147.636 528.272C147.252 529.424 146.804 530.832 146.292 532.496C145.78 534.096 145.236 535.76 144.66 537.488C144.148 539.152 143.7 540.688 143.316 542.096C142.996 543.44 142.772 544.4 142.644 544.976C142.388 546.128 142.036 547.568 141.588 549.296C141.204 551.024 140.756 552.784 140.244 554.576C139.796 556.432 139.38 558.032 138.996 559.376C138.676 560.72 138.452 561.584 138.324 561.968ZM206.527 550.64C205.183 551.792 203.615 552.464 201.823 552.656C200.095 552.848 198.399 552.592 196.735 551.888C195.071 551.12 193.695 549.968 192.607 548.432C191.519 547.024 190.815 545.424 190.495 543.632C190.175 541.776 190.143 539.376 190.399 536.432C190.591 533.936 191.391 531.44 192.799 528.944C194.207 526.384 195.903 524.112 197.887 522.128C199.935 520.144 201.951 518.768 203.935 518C204.895 517.36 205.695 517.072 206.335 517.136C207.039 517.136 208.095 517.2 209.503 517.328C210.975 517.52 212.063 517.808 212.767 518.192C213.535 518.576 214.143 519.088 214.591 519.728C215.551 520.688 216.191 521.648 216.511 522.608C216.831 523.504 216.991 524.4 216.991 525.296C216.735 526.704 215.775 528.432 214.111 530.48C212.511 532.464 210.399 534.096 207.775 535.376C206.367 535.824 204.831 536.016 203.167 535.952C201.503 535.888 200.127 535.472 199.039 534.704C197.823 534.192 197.023 534.288 196.639 534.992C196.255 535.632 195.903 537.232 195.583 539.792C195.327 542.224 195.519 544.016 196.159 545.168C196.799 546.256 197.663 546.896 198.751 547.088C200.031 547.344 201.023 547.536 201.727 547.664C202.495 547.728 203.423 547.44 204.511 546.8C205.535 546.16 206.175 545.808 206.431 545.744C206.687 545.616 206.879 545.488 207.007 545.36C207.199 545.168 207.615 544.752 208.255 544.112C208.703 543.664 209.055 543.344 209.311 543.152C209.567 542.896 209.855 542.768 210.175 542.768C210.495 542.768 210.783 542.928 211.039 543.248C211.295 543.504 211.551 543.696 211.807 543.824C212.447 543.824 212.575 544.208 212.191 544.976C211.871 545.744 211.199 546.672 210.175 547.76C209.151 548.784 207.935 549.744 206.527 550.64ZM206.431 530.288C207.135 529.968 207.871 529.52 208.639 528.944C209.407 528.304 210.047 527.632 210.559 526.928C211.135 526.16 211.423 525.52 211.423 525.008C211.423 524.112 211.007 523.376 210.175 522.8C209.343 522.16 208.095 522.064 206.431 522.512C205.727 522.704 204.927 523.184 204.031 523.952C203.135 524.656 202.271 525.456 201.439 526.352C200.671 527.248 200.031 528.048 199.519 528.752C199.071 529.456 198.911 529.872 199.039 530C199.231 530.32 199.775 530.576 200.671 530.768C201.567 530.896 202.559 530.928 203.647 530.864C204.799 530.8 205.727 530.608 206.431 530.288ZM254.18 550.352C252.836 550.608 251.972 550.704 251.588 550.64C251.268 550.512 250.756 550.128 250.052 549.488C249.028 548.976 248.164 548.336 247.46 547.568C246.82 546.8 246.34 546 246.02 545.168C245.764 544.272 245.668 543.536 245.732 542.96C245.924 540.72 246.468 538.32 247.364 535.76C248.26 533.2 249.348 530.736 250.628 528.368C251.908 526 253.284 523.984 254.756 522.32C256.292 520.592 257.764 519.472 259.172 518.96C260.452 518.448 261.668 518.256 262.82 518.384C263.972 518.512 264.804 519.12 265.316 520.208C266.276 522.064 266.052 523.248 264.644 523.76C264.452 523.76 264.228 523.856 263.972 524.048C263.716 524.176 263.588 524.368 263.588 524.624C263.844 524.752 264.548 524.784 265.7 524.72C266.852 524.592 268.004 524.4 269.156 524.144C270.372 523.824 271.172 523.504 271.556 523.184C271.94 522.992 272.228 522.896 272.42 522.896C272.612 522.896 273.092 522.96 273.86 523.088C274.948 523.408 275.492 523.792 275.492 524.24C275.492 524.496 275.588 524.752 275.78 525.008C275.972 525.2 276.196 525.296 276.452 525.296C276.9 525.36 276.836 525.648 276.26 526.16C275.748 526.672 274.852 527.376 273.572 528.272C272.356 529.04 271.588 529.552 271.268 529.808C271.012 530 270.98 530.448 271.172 531.152C271.684 532.368 271.716 533.776 271.268 535.376C270.82 536.976 270.02 538.608 268.868 540.272C267.716 541.936 266.308 543.504 264.644 544.976C263.044 546.384 261.316 547.6 259.46 548.624C257.668 549.584 255.908 550.16 254.18 550.352ZM252.548 546.128C252.804 546.128 253.252 546 253.892 545.744C254.532 545.424 255.044 545.168 255.428 544.976C255.684 544.72 256.004 544.432 256.388 544.112C256.836 543.728 257.188 543.504 257.444 543.44C257.7 543.44 258.02 543.344 258.404 543.152C258.788 542.896 259.332 542.416 260.036 541.712C260.74 540.944 261.668 539.824 262.82 538.352C264.1 536.944 265.092 535.664 265.796 534.512C266.5 533.296 266.692 532.176 266.372 531.152C266.308 530.896 266.116 530.736 265.796 530.672C265.54 530.608 265.188 530.448 264.74 530.192C264.1 530.192 263.492 530.032 262.916 529.712C262.404 529.328 261.796 528.848 261.092 528.272L259.556 526.352L257.924 527.984C256.9 529.008 255.812 530.544 254.66 532.592C253.572 534.576 252.644 536.624 251.876 538.736C251.108 540.784 250.66 542.416 250.532 543.632C250.468 544.592 250.628 545.232 251.012 545.552C251.396 545.872 251.908 546.064 252.548 546.128ZM327 524.912C327 524.912 326.648 525.232 325.944 525.872C325.24 526.448 324.376 527.184 323.352 528.08C322.328 528.912 321.304 529.776 320.28 530.672C319.32 531.504 318.488 532.24 317.784 532.88C317.144 533.456 316.824 533.744 316.824 533.744L309.72 539.504C309.72 540.336 309.848 541.008 310.104 541.52C310.36 541.968 310.808 542.736 311.448 543.824C312.152 544.976 313.016 546.128 314.04 547.28C315.128 548.432 316.12 549.424 317.016 550.256C317.976 551.088 318.584 551.664 318.84 551.984C319.224 552.56 319.16 552.976 318.648 553.232C318.136 553.488 317.496 553.68 316.728 553.808C315.96 553.872 315.384 553.968 315 554.096C313.912 553.904 312.792 553.232 311.64 552.08C310.488 550.928 309.432 549.648 308.472 548.24C307.576 546.832 306.968 545.712 306.648 544.88C305.752 543.728 305.08 542.768 304.632 542C304.184 541.232 303.704 540.048 303.192 538.448C302.808 538.896 302.488 539.312 302.232 539.696C301.976 540.08 301.656 540.72 301.272 541.616C301.016 542.384 300.696 543.28 300.312 544.304C299.928 545.264 299.576 546.128 299.256 546.896C299 547.6 298.936 547.952 299.064 547.952C299.192 548.912 299.16 549.584 298.968 549.968C298.776 550.352 298.392 550.832 297.816 551.408L295.224 551.504C294.008 550.672 293.272 549.872 293.016 549.104C292.76 548.272 292.632 547.472 292.632 546.704C293.272 545.424 293.912 544.112 294.552 542.768C295.256 541.36 295.768 539.888 296.088 538.352C295.704 538.352 295.32 538.416 294.936 538.544C294.552 538.608 294.008 538.704 293.304 538.832C292.344 539.792 291.448 540.624 290.616 541.328C289.848 541.968 288.952 542.736 287.928 543.632C286.968 544.528 285.656 545.808 283.992 547.472C282.968 548.432 281.944 549.424 280.92 550.448C279.896 551.472 278.968 552.592 278.136 553.808C277.496 554.64 276.152 554.736 274.104 554.096L271.992 550.832C271.992 550.32 272.12 549.872 272.376 549.488C272.632 549.104 272.984 548.784 273.432 548.528C273.688 548.336 274.296 547.824 275.256 546.992C276.216 546.096 277.272 545.104 278.424 544.016C279.64 542.928 280.632 542.032 281.4 541.328C281.592 541.136 282.04 540.752 282.744 540.176C283.512 539.536 284.248 538.928 284.952 538.352C285.72 537.776 286.136 537.488 286.2 537.488C286.712 536.976 287.576 536.24 288.792 535.28C290.008 534.32 290.936 533.52 291.576 532.88C290.936 531.856 290.264 530.736 289.56 529.52C288.92 528.24 288.152 527.056 287.256 525.968C286.616 524.944 285.976 523.888 285.336 522.8C284.76 521.712 284.12 520.592 283.416 519.44C283.736 518.544 284.344 518.064 285.24 518C286.136 517.936 287.032 518.128 287.928 518.576C289.464 519.984 290.648 521.808 291.48 524.048C292.44 525.584 293.24 526.832 293.88 527.792C294.52 528.688 295.128 529.552 295.704 530.384C296.28 531.216 296.952 532.272 297.72 533.552C298.168 531.44 298.648 529.296 299.16 527.12C299.672 524.944 300.056 523.184 300.312 521.84C300.44 521.328 300.536 520.816 300.6 520.304C300.728 519.792 300.728 519.248 300.6 518.672C300.536 518.352 300.536 518.064 300.6 517.808C300.728 517.488 300.824 517.232 300.888 517.04C301.016 516.592 301.272 516.304 301.656 516.176C302.04 516.048 302.456 516.144 302.904 516.464C303.864 517.104 304.76 517.904 305.592 518.864C306.488 519.824 306.776 520.88 306.456 522.032C306.456 522.096 306.296 522.8 305.976 524.144C305.656 525.424 305.304 526.928 304.92 528.656C304.536 530.32 304.184 531.792 303.864 533.072C303.544 534.352 303.384 535.024 303.384 535.088L304.344 535.28C305.624 534.448 306.936 533.584 308.28 532.688C309.624 531.728 310.648 530.96 311.352 530.384C312.248 529.744 313.368 528.816 314.712 527.6C316.056 526.384 317.368 525.136 318.648 523.856C319.928 522.576 320.92 521.584 321.624 520.88C322.2 520.368 322.584 520.048 322.776 519.92C323.032 519.728 323.512 519.568 324.216 519.44C324.92 519.888 325.592 520.496 326.232 521.264C326.936 521.968 327.352 522.672 327.48 523.376C327.544 524.016 327.384 524.528 327 524.912ZM353.797 554.096C353.157 554.416 352.421 554.224 351.589 553.52C350.757 552.816 350.181 552.24 349.861 551.792C349.285 551.024 348.869 549.968 348.613 548.624C348.357 547.28 348.229 546.16 348.229 545.264C348.229 543.6 348.101 542.64 347.845 542.384C347.653 542.128 347.237 542.352 346.597 543.056C346.021 543.696 345.157 544.592 344.005 545.744C343.493 546.256 342.661 546.928 341.509 547.76C340.357 548.592 339.173 549.296 337.957 549.872C336.741 550.448 335.717 550.736 334.885 550.736C334.309 550.672 333.733 550.352 333.157 549.776C332.581 549.2 332.069 548.56 331.621 547.856C331.237 547.088 330.949 546.448 330.757 545.936C330.437 544.976 330.405 543.408 330.661 541.232C330.981 538.992 331.493 536.528 332.197 533.84C332.965 531.088 333.829 528.464 334.789 525.968C335.813 523.408 336.837 521.328 337.861 519.728C338.949 518.064 340.005 517.232 341.029 517.232C341.733 517.232 342.277 517.648 342.661 518.48C343.109 519.248 343.461 519.888 343.717 520.4C344.037 521.04 344.133 521.456 344.005 521.648C343.941 521.84 343.685 522.192 343.237 522.704C342.725 523.344 342.117 524.432 341.413 525.968C340.709 527.44 339.973 529.072 339.205 530.864C338.501 532.592 337.861 534.256 337.285 535.856C336.709 537.456 336.293 538.672 336.037 539.504C335.909 540.016 335.717 540.72 335.461 541.616C335.269 542.512 335.205 543.216 335.269 543.728C335.269 543.792 335.301 543.952 335.365 544.208C335.429 544.4 335.685 544.496 336.133 544.496C337.541 544.496 338.949 543.92 340.357 542.768C341.829 541.552 343.269 539.984 344.677 538.064C346.149 536.144 347.525 534.128 348.805 532.016C350.085 529.904 351.269 527.888 352.357 525.968C353.509 524.048 354.501 522.48 355.333 521.264C356.165 519.984 356.837 519.312 357.349 519.248C357.797 519.184 358.309 519.248 358.885 519.44C359.525 519.568 360.069 519.792 360.517 520.112C360.965 520.432 361.157 520.88 361.093 521.456C360.325 523.824 359.397 526.192 358.309 528.56C357.221 530.864 356.197 533.2 355.237 535.568C354.341 537.936 353.701 540.368 353.317 542.864C353.061 544.4 353.157 545.904 353.605 547.376C354.117 548.848 354.917 550.16 356.005 551.312C356.645 551.952 356.581 552.56 355.813 553.136C355.045 553.712 354.373 554.032 353.797 554.096ZM363.73 546.704C363.666 546.384 363.602 545.744 363.538 544.784C363.474 543.76 363.282 543.12 362.962 542.864C363.154 541.392 363.314 540.048 363.442 538.832C363.57 537.616 363.826 536.432 364.21 535.28C364.402 534.64 364.722 533.808 365.17 532.784C365.682 531.76 366.226 530.768 366.802 529.808C367.378 528.784 367.89 528.08 368.338 527.696C368.786 527.312 369.17 526.864 369.49 526.352C369.874 525.84 370.29 525.456 370.738 525.2C371.122 524.88 371.346 524.528 371.41 524.144C371.538 523.76 371.794 523.472 372.178 523.28C373.138 522.64 373.906 522.064 374.482 521.552C375.058 521.04 375.666 520.592 376.306 520.208C377.01 519.824 377.938 519.472 379.09 519.152C380.37 518.768 381.298 518.512 381.874 518.384C382.514 518.192 383.122 518.128 383.698 518.192C384.274 518.256 385.138 518.448 386.29 518.768C386.29 518.384 386.258 517.936 386.194 517.424C386.13 516.848 386.098 516.24 386.098 515.6C386.226 514.704 386.194 513.84 386.002 513.008C385.874 512.112 385.746 511.472 385.618 511.088C385.234 510.64 385.01 509.936 384.946 508.976C384.882 507.952 384.594 507.152 384.082 506.576C384.274 505.36 383.826 504.208 382.738 503.12C381.714 501.968 380.466 501.072 378.994 500.432C377.522 499.728 376.146 499.472 374.866 499.664C374.162 499.728 373.426 499.824 372.658 499.952C371.89 500.08 371.186 500.4 370.546 500.912C369.714 500.976 369.042 501.008 368.53 501.008C368.018 501.008 367.538 500.848 367.09 500.528C366.386 499.504 365.906 498.768 365.65 498.32C365.458 497.872 365.49 497.52 365.746 497.264C366.002 496.944 366.45 496.656 367.09 496.4C367.794 496.08 368.658 495.568 369.682 494.864C370.386 495.12 370.898 495.088 371.218 494.768C371.538 494.448 372.05 494.416 372.754 494.672C373.266 494.352 374.098 494.256 375.25 494.384C376.402 494.512 377.106 494.64 377.362 494.768C377.554 494.896 377.746 494.992 377.938 495.056C378.13 495.056 378.322 495.088 378.514 495.152C380.754 495.6 382.706 496.496 384.37 497.84C386.098 499.184 387.474 500.912 388.498 503.024C388.882 503.856 389.266 504.688 389.65 505.52C390.034 506.352 390.418 507.152 390.802 507.92C390.93 508.304 391.058 509.104 391.186 510.32C391.378 511.472 391.538 512.592 391.666 513.68C391.858 514.704 391.954 515.312 391.954 515.504C392.082 516.144 392.146 516.752 392.146 517.328C392.146 517.904 392.082 518.512 391.954 519.152C391.186 524.208 390.034 528.848 388.498 533.072C386.962 537.296 384.882 541.584 382.258 545.936C381.746 546.768 381.042 547.6 380.146 548.432C379.25 549.264 378.386 550.032 377.554 550.736C376.53 551.632 375.41 552.272 374.194 552.656C372.978 552.976 371.634 553.168 370.162 553.232C368.37 551.824 367.058 550.8 366.226 550.16C365.394 549.52 364.85 548.976 364.594 548.528C364.338 548.08 364.05 547.472 363.73 546.704ZM371.122 548.528C371.506 548.208 371.922 548.016 372.37 547.952C372.882 547.824 373.266 547.472 373.522 546.896C374.354 546.256 375.282 545.232 376.306 543.824C377.394 542.416 378.418 540.912 379.378 539.312C380.338 537.648 381.074 536.208 381.586 534.992C381.842 534.288 382.066 533.616 382.258 532.976C382.514 532.272 382.834 531.632 383.218 531.056C383.858 529.84 384.37 528.4 384.754 526.736C385.138 525.008 385.106 523.696 384.658 522.8C381.394 523.888 378.706 525.36 376.594 527.216C374.482 529.008 372.562 531.568 370.834 534.896C370.642 536.24 370.258 537.52 369.682 538.736C369.17 539.888 368.85 541.136 368.722 542.48C368.402 543.12 368.242 543.824 368.242 544.592C368.306 545.296 368.466 546.128 368.722 547.088C369.554 547.728 370.002 548.08 370.066 548.144C370.194 548.144 370.546 548.272 371.122 548.528ZM394.772 550.544C394.516 550.032 394.196 549.648 393.812 549.392C393.428 549.072 393.236 548.784 393.236 548.528C393.236 548.272 393.204 548.016 393.14 547.76C393.14 547.44 393.012 547.152 392.756 546.896C392.436 546.512 392.468 545.648 392.852 544.304C393.236 542.896 393.876 541.2 394.772 539.216C395.668 537.168 396.724 535.024 397.94 532.784C398.452 532.272 398.964 531.6 399.476 530.768C399.988 529.936 400.372 529.392 400.628 529.136C400.628 528.88 400.724 528.656 400.916 528.464C401.108 528.208 401.332 528.08 401.588 528.08V527.504C401.588 527.184 401.876 526.64 402.452 525.872C403.092 525.104 403.86 524.272 404.756 523.376C405.652 522.416 406.58 521.52 407.54 520.688C408.5 519.792 409.3 519.152 409.94 518.768C411.284 517.872 412.66 517.328 414.068 517.136C415.54 516.944 416.788 517.264 417.812 518.096C418.004 518.288 418.324 518.608 418.772 519.056C419.22 519.504 419.732 520.016 420.308 520.592C420.948 521.104 421.588 521.648 422.228 522.224L425.78 525.392L424.052 530.192C423.22 532.752 422.996 534.992 423.38 536.912C423.828 538.832 424.468 540.496 425.3 541.904C425.62 542.608 426.26 543.28 427.22 543.92C428.244 544.56 429.204 544.944 430.1 545.072C430.612 545.136 431.092 545.328 431.54 545.648C431.988 545.968 432.212 546.48 432.212 547.184C432.212 547.824 432.084 548.336 431.828 548.72C431.572 549.104 431.124 549.36 430.484 549.488C428.372 549.744 426.388 549.232 424.532 547.952C422.74 546.672 421.076 544.56 419.54 541.616C419.284 541.232 418.932 540.528 418.484 539.504C418.1 538.416 417.876 537.712 417.812 537.392C417.556 537.712 417.076 538.32 416.372 539.216C415.668 540.048 415.124 540.656 414.74 541.04C410.196 545.648 406.26 548.752 402.932 550.352C399.668 551.888 396.948 551.952 394.772 550.544ZM398.228 545.168C398.228 545.616 398.9 545.616 400.244 545.168C401.652 544.656 403.156 543.76 404.756 542.48C406.932 540.624 409.108 538.576 411.284 536.336C413.524 534.096 415.316 532.016 416.66 530.096L418.772 526.64C418.132 525.168 417.428 524.176 416.66 523.664C415.956 523.088 415.348 522.8 414.836 522.8C414.004 522.8 412.756 523.568 411.092 525.104C409.492 526.64 407.764 528.688 405.908 531.248C404.052 533.808 402.292 536.624 400.628 539.696C399.988 540.976 399.412 542.224 398.9 543.44C398.452 544.592 398.228 545.168 398.228 545.168ZM438.241 551.024C437.729 551.408 436.993 551.504 436.033 551.312C435.073 551.12 434.305 550.928 433.729 550.736C433.601 550.48 433.473 550.192 433.345 549.872C433.217 549.552 433.121 549.264 433.057 549.008C432.993 548.688 432.929 548.368 432.865 548.048C432.865 547.728 432.801 547.44 432.673 547.184C432.865 546.992 433.025 546.8 433.153 546.608C433.345 546.416 433.537 546.256 433.729 546.128C434.049 546.128 434.401 546.128 434.785 546.128C435.169 546.128 435.521 546.128 435.841 546.128C436.161 546 436.417 545.808 436.609 545.552C436.865 545.232 437.185 545.072 437.569 545.072C438.977 544.176 440.353 542.768 441.697 540.848C443.105 538.928 444.449 536.784 445.729 534.416C447.073 532.048 448.257 529.744 449.281 527.504C450.369 525.2 451.265 523.28 451.969 521.744C451.969 521.616 451.969 521.52 451.969 521.456C451.969 521.392 451.937 521.328 451.873 521.264C451.425 521.392 450.945 521.52 450.433 521.648C449.921 521.712 449.409 521.84 448.897 522.032C448.833 522.096 448.737 522.16 448.609 522.224C448.481 522.288 448.385 522.352 448.321 522.416C447.617 522.992 446.689 523.152 445.537 522.896C444.449 522.64 443.681 522.096 443.233 521.264C443.105 521.008 442.977 520.784 442.849 520.592C442.721 520.4 442.561 520.176 442.369 519.92C442.625 519.344 443.009 518.8 443.521 518.288C444.097 517.712 444.705 517.36 445.345 517.232C447.073 516.848 448.769 516.56 450.433 516.368C452.161 516.112 453.889 516.048 455.617 516.176C457.345 516.304 459.041 516.688 460.705 517.328C461.025 517.392 461.313 517.456 461.569 517.52C461.825 517.584 462.081 517.712 462.337 517.904C462.721 518.16 463.105 518.448 463.489 518.768C463.873 519.088 464.225 519.408 464.545 519.728C464.993 520.112 465.345 520.528 465.601 520.976C465.857 521.424 466.017 521.936 466.081 522.512C466.209 523.152 466.273 523.824 466.273 524.528C466.337 525.232 466.305 525.936 466.177 526.64C465.857 528.24 465.345 530.16 464.641 532.4C464.001 534.576 463.425 536.464 462.913 538.064C462.145 540.56 461.473 542.8 460.897 544.784C460.321 546.704 459.777 548.592 459.265 550.448C458.433 550.704 457.633 550.672 456.865 550.352C456.097 550.032 455.425 549.552 454.849 548.912C454.593 548.016 454.465 547.184 454.465 546.416C454.465 545.584 454.689 544.752 455.137 543.92C455.585 543.024 455.905 541.872 456.097 540.464C456.289 539.056 456.705 537.936 457.345 537.104C457.473 536.848 457.537 536.624 457.537 536.432C457.537 536.048 457.665 535.312 457.921 534.224C458.241 533.136 458.593 531.92 458.977 530.576C459.361 529.168 459.713 527.856 460.033 526.64C460.417 525.424 460.673 524.496 460.801 523.856C460.929 523.472 460.929 523.12 460.801 522.8C460.737 522.48 460.705 522.128 460.705 521.744C460.193 521.488 459.457 521.296 458.497 521.168C457.601 521.04 456.993 521.36 456.673 522.128C456.609 522.256 456.545 522.416 456.481 522.608C456.481 522.736 456.449 522.864 456.385 522.992C455.873 524.592 455.169 526.128 454.273 527.6C453.441 529.072 452.673 531.088 451.969 533.648C451.777 534.352 451.489 535.024 451.105 535.664C450.785 536.24 450.497 536.88 450.241 537.584C450.241 537.648 450.209 537.712 450.145 537.776C450.145 537.84 450.113 537.904 450.049 537.968C450.049 538.032 450.017 538.096 449.953 538.16C449.505 538.736 449.089 539.344 448.705 539.984C448.385 540.56 448.033 541.168 447.649 541.808C446.561 543.6 445.121 545.264 443.329 546.8C441.601 548.336 439.905 549.744 438.241 551.024ZM484.25 535.664C483.226 535.536 482.49 535.12 482.042 534.416C481.594 533.648 481.37 532.88 481.37 532.112C481.37 531.984 481.37 531.728 481.37 531.344C481.434 530.96 481.53 530.512 481.658 530C481.658 529.616 481.85 529.008 482.234 528.176C482.618 527.344 483.034 526.352 483.482 525.2C484.186 523.92 485.274 522.48 486.746 520.88C488.218 519.28 489.466 518.096 490.49 517.328C491.066 516.88 491.482 516.592 491.738 516.464C491.994 516.272 492.122 516.176 492.122 516.176C492.122 515.92 492.57 515.44 493.466 514.736C494.362 513.968 495.13 513.456 495.77 513.2C495.77 513.2 496.186 512.912 497.018 512.336C497.85 511.76 498.49 511.248 498.938 510.8C500.41 509.328 501.498 507.984 502.202 506.768C502.906 505.488 503.45 504.048 503.834 502.448C504.218 500.848 504.634 498.864 505.082 496.496C505.146 494.256 505.146 492.752 505.082 491.984C505.082 491.152 504.698 490.448 503.93 489.872C502.586 489.168 500.922 489.104 498.938 489.68C497.018 490.192 495.13 491.216 493.274 492.752C491.482 494.224 490.106 496.048 489.146 498.224C488.762 499.312 488.538 500.048 488.474 500.432C488.474 500.816 488.57 501.328 488.762 501.968C488.762 502.48 488.826 502.96 488.954 503.408C489.146 503.856 489.242 504.24 489.242 504.56C488.986 504.624 488.506 504.656 487.802 504.656C487.162 504.656 486.49 504.624 485.786 504.56C485.082 504.496 484.506 504.368 484.058 504.176C484.058 504.176 483.93 503.984 483.674 503.6C483.418 503.216 483.226 502.896 483.098 502.64C482.714 502.128 482.522 501.648 482.522 501.2C482.586 500.688 482.618 499.952 482.618 498.992C483.066 497.712 483.674 496.336 484.442 494.864C485.21 493.328 486.202 491.888 487.418 490.544C488.634 489.2 490.042 488.112 491.642 487.28C492.986 486.704 494.106 486.192 495.002 485.744C495.962 485.232 496.442 484.976 496.442 484.976C496.442 484.976 496.666 484.976 497.114 484.976C497.626 484.912 498.458 484.816 499.61 484.688C499.994 484.752 500.41 484.752 500.858 484.688C501.37 484.624 501.626 484.752 501.626 485.072C501.818 485.072 502.202 485.072 502.778 485.072C503.354 485.072 503.898 485.072 504.41 485.072C505.178 485.264 505.978 485.584 506.81 486.032C507.642 486.416 508.41 486.864 509.114 487.376C509.882 487.824 510.49 488.304 510.938 488.816C511.386 490.224 511.578 491.984 511.514 494.096C511.45 496.144 511.13 498.32 510.554 500.624C509.978 502.928 509.21 505.136 508.25 507.248C507.354 509.296 506.266 511.024 504.986 512.432C504.602 512.816 503.898 513.456 502.874 514.352C501.85 515.248 500.762 516.24 499.61 517.328C498.522 518.352 497.626 519.248 496.922 520.016C494.746 521.232 492.826 523.056 491.162 525.488C489.498 527.92 488.25 530.288 487.418 532.592C486.714 534.128 486.234 535.024 485.978 535.28C485.722 535.536 485.146 535.664 484.25 535.664ZM481.562 553.04C480.346 553.488 479.322 553.712 478.49 553.712C477.722 553.648 476.858 553.264 475.898 552.56C474.682 551.408 474.266 550.256 474.65 549.104C475.098 547.888 476.154 546.704 477.818 545.552C478.97 544.848 479.802 544.464 480.314 544.4C480.89 544.336 481.754 544.56 482.906 545.072C484.826 546.288 485.658 547.632 485.402 549.104C485.21 550.576 483.93 551.888 481.562 553.04Z" fill="black"/>
<path d="M533.832 272.779C592.32 272.779 601.911 235.868 599.396 217.413C599.396 179.564 560.445 170.034 540.97 170C487.866 170 473.366 203.444 472.754 220.166C472.754 266.498 513.473 274.546 533.832 272.779Z" fill="white" stroke="black" stroke-width="10"/>
<path d="M608.953 169.858C646.257 169.858 652.374 146.207 650.77 134.381C650.77 110.128 625.927 104.022 613.506 104C579.636 104 570.388 125.43 569.998 136.145C569.998 165.834 595.968 170.991 608.953 169.858Z" fill="white" stroke="black" stroke-width="8"/>
<path d="M650.045 82.912C673.072 82.912 676.848 68.2194 675.858 60.8731C675.858 45.8071 660.523 42.0135 652.855 42C631.948 42 626.24 55.3126 625.999 61.9689C625.999 80.4118 642.03 83.6155 650.045 82.912Z" fill="white" stroke="black" stroke-width="6"/>
<path d="M676.023 21.9571C687.536 21.9571 689.425 14.7899 688.929 11.2064C688.929 3.85712 681.262 2.0066 677.428 2C666.975 2 664.12 8.49397 664 11.7409C664 20.7375 672.015 22.3002 676.023 21.9571Z" fill="white" stroke="black" stroke-width="4"/>
</svg>
