<svg width="811" height="608" viewBox="0 0 811 608" fill="none" xmlns="http://www.w3.org/2000/svg">
<path d="M22 367C-44 222.2 103.833 107.333 186 67.9996C334 2.3996 467.333 1.33294 515.5 8.9996C646.7 29.3996 737.5 84.8329 766.5 110C829.3 171.6 803.333 289 782.5 340C768.5 386 619.667 433.5 547 451.5L613.5 593.5L440 480.5L234 505.5C124.8 514.3 47.1667 416.833 22 367Z" fill="white" stroke="black" stroke-width="10"/>
<path d="M126.876 245.854C126.165 245.417 125.509 244.87 124.908 244.214C124.306 243.613 124.17 242.738 124.498 241.59C124.443 240.934 124.47 240.305 124.58 239.704C124.744 239.103 124.853 238.693 124.908 238.474C125.181 238.474 125.345 238.337 125.4 238.064C125.454 237.736 125.482 237.463 125.482 237.244C125.482 236.807 125.646 236.069 125.974 235.03C126.302 233.991 126.63 232.898 126.958 231.75C127.395 230.821 127.805 229.837 128.188 228.798C128.625 227.759 128.844 227.131 128.844 226.912C128.844 226.475 128.953 226.037 129.172 225.6C129.39 225.108 129.636 224.643 129.91 224.206C130.183 223.55 130.374 222.839 130.484 222.074C130.648 221.254 130.73 220.625 130.73 220.188C131.058 219.477 131.413 218.712 131.796 217.892C132.178 217.072 132.479 216.225 132.698 215.35C133.026 214.421 133.518 213.054 134.174 211.25C134.83 209.391 135.513 207.533 136.224 205.674C136.716 204.635 137.18 203.569 137.618 202.476C138.11 201.328 138.547 200.371 138.93 199.606C139.312 198.786 139.586 198.376 139.75 198.376C139.75 198.376 139.75 198.294 139.75 198.13C139.75 197.911 139.75 197.693 139.75 197.474C139.75 197.201 139.968 196.681 140.406 195.916C140.843 195.096 141.253 194.249 141.636 193.374C142.182 192.554 142.565 191.789 142.784 191.078C143.002 190.313 143.112 189.93 143.112 189.93C143.112 189.93 143.221 189.766 143.44 189.438C143.658 189.055 143.877 188.755 144.096 188.536C145.517 187.771 146.72 187.388 147.704 187.388C148.742 187.388 149.453 188.044 149.836 189.356C150.273 190.559 150.464 191.406 150.41 191.898C150.355 192.335 150.164 192.882 149.836 193.538C149.398 194.522 148.824 195.779 148.114 197.31C147.403 198.786 146.665 200.371 145.9 202.066C145.134 203.761 144.396 205.401 143.686 206.986C143.03 208.517 142.483 209.829 142.046 210.922C141.663 212.015 141.472 212.699 141.472 212.972L138.028 221.418C137.809 221.801 137.454 222.785 136.962 224.37C136.47 225.901 135.896 227.759 135.24 229.946C134.584 232.078 133.9 234.265 133.19 236.506C132.534 238.693 131.878 240.688 131.222 242.492C130.894 243.421 130.593 244.187 130.32 244.788C130.046 245.444 129.773 245.936 129.5 246.264C129.226 246.592 128.898 246.756 128.516 246.756C128.297 246.756 128.051 246.674 127.778 246.51C127.504 246.346 127.204 246.127 126.876 245.854ZM155.904 245.69C155.412 245.745 154.728 245.499 153.854 244.952C153.034 244.46 152.132 243.831 151.148 243.066C150.218 242.301 149.316 241.508 148.442 240.688C147.622 239.868 146.966 239.157 146.474 238.556C145.599 237.299 144.478 235.604 143.112 233.472C141.8 231.34 140.816 229.099 140.16 226.748C139.777 224.999 139.367 223.605 138.93 222.566C138.547 221.473 138.356 220.516 138.356 219.696L138.438 214.612L144.424 214.202C144.697 217.154 145.134 219.614 145.736 221.582C146.337 223.495 147.048 225.217 147.868 226.748C148.524 228.169 149.234 229.563 150 230.93C150.82 232.297 151.722 233.445 152.706 234.374C153.963 235.741 155.084 236.752 156.068 237.408C157.052 238.064 157.79 238.392 158.282 238.392C159.32 238.884 160.086 239.349 160.578 239.786C161.07 240.223 161.398 240.606 161.562 240.934C161.726 241.262 161.78 241.563 161.726 241.836C161.78 242 161.753 242.355 161.644 242.902C161.534 243.503 161.37 244.077 161.152 244.624C160.933 245.225 160.632 245.608 160.25 245.772C159.867 246.155 159.375 246.373 158.774 246.428C158.172 246.537 157.216 246.291 155.904 245.69ZM136.88 214.366L142.866 209.938C143.03 209.774 143.494 209.337 144.26 208.626C145.08 207.861 146.638 206.603 148.934 204.854L159.758 196.08C161.124 195.369 162.382 194.577 163.53 193.702C164.678 192.827 165.634 192.144 166.4 191.652C167.329 190.996 168.286 190.313 169.27 189.602C170.254 188.891 170.855 188.563 171.074 188.618C171.511 188.399 172.03 188.618 172.632 189.274C173.233 189.875 173.725 190.613 174.108 191.488C174.545 192.308 174.736 192.937 174.682 193.374C174.791 193.921 174.709 194.385 174.436 194.768C174.162 195.151 173.452 195.67 172.304 196.326C170.937 196.927 169.844 197.501 169.024 198.048C168.258 198.595 167.821 199.005 167.712 199.278C167.712 199.278 167.138 199.715 165.99 200.59C164.842 201.465 163.475 202.449 161.89 203.542C159.703 205.018 157.899 206.33 156.478 207.478C155.111 208.571 154.209 209.446 153.772 210.102C153.553 210.102 153.334 210.184 153.116 210.348C152.952 210.512 152.76 210.567 152.542 210.512C152.542 210.512 152.323 210.676 151.886 211.004C151.448 211.277 151.12 211.578 150.902 211.906C150.792 212.179 150.546 212.535 150.164 212.972C149.836 213.409 149.426 213.601 148.934 213.546C148.551 213.765 147.868 214.229 146.884 214.94C145.9 215.596 144.861 216.334 143.768 217.154C142.729 217.974 141.827 218.712 141.062 219.368C140.296 220.024 139.886 220.407 139.832 220.516L136.88 214.366ZM169.352 241.426C168.642 241.426 168.068 241.289 167.63 241.016C167.248 240.743 166.756 240.36 166.154 239.868C165.116 238.775 164.268 237.599 163.612 236.342C163.011 235.085 162.792 233.991 162.956 233.062C163.12 232.625 163.175 232.215 163.12 231.832C163.12 231.395 163.12 231.176 163.12 231.176C162.847 230.903 162.765 230.739 162.874 230.684C162.984 230.575 163.093 230.411 163.202 230.192C163.53 230.192 163.64 229.891 163.53 229.29C163.421 228.853 163.585 227.923 164.022 226.502C164.514 225.026 165.17 223.632 165.99 222.32C166.318 221.773 166.81 221.063 167.466 220.188C168.122 219.259 168.833 218.357 169.598 217.482C170.418 216.553 171.156 215.815 171.812 215.268C173.179 214.12 174.436 213.191 175.584 212.48C176.787 211.769 177.99 211.277 179.192 211.004C180.395 210.731 181.625 210.594 182.882 210.594C184.194 210.594 185.26 211.031 186.08 211.906C187.338 212.453 188.212 213.191 188.704 214.12C189.251 215.049 189.606 216.252 189.77 217.728C189.934 219.368 189.77 221.391 189.278 223.796C188.786 226.147 187.447 228.88 185.26 231.996C183.894 233.964 182.554 235.495 181.242 236.588C179.93 237.681 178.482 238.693 176.896 239.622C175.748 240.387 174.518 240.852 173.206 241.016C171.894 241.18 170.61 241.317 169.352 241.426ZM177.716 231.422C178.919 230.383 179.766 229.235 180.258 227.978C180.805 226.721 181.379 225.245 181.98 223.55C182.199 223.222 182.336 222.675 182.39 221.91C182.5 221.145 182.527 220.407 182.472 219.696C182.418 218.931 182.226 218.493 181.898 218.384C181.406 218.001 180.914 217.919 180.422 218.138C179.93 218.302 179.302 218.657 178.536 219.204C176.896 220.571 175.366 222.156 173.944 223.96C172.578 225.709 171.621 227.869 171.074 230.438C170.91 231.805 171.047 232.843 171.484 233.554C171.976 234.21 172.742 234.401 173.78 234.128C174.874 233.8 176.186 232.898 177.716 231.422ZM190.287 261.106C190.068 261.106 189.74 261.106 189.303 261.106C188.92 261.161 188.592 260.942 188.319 260.45C188.1 260.177 187.772 259.63 187.335 258.81C186.898 258.045 186.816 256.951 187.089 255.53C187.362 254.601 187.581 253.671 187.745 252.742C187.909 251.867 187.991 251.211 187.991 250.774C187.991 250.555 188.046 250.118 188.155 249.462C188.319 248.861 188.401 248.423 188.401 248.15C188.674 247.713 188.893 247.111 189.057 246.346C189.221 245.581 189.303 244.897 189.303 244.296C189.303 243.64 189.631 243.039 190.287 242.492C190.287 242.055 190.369 241.508 190.533 240.852C190.752 240.196 190.861 239.759 190.861 239.54C191.025 238.775 191.38 237.435 191.927 235.522C192.528 233.554 193.239 231.34 194.059 228.88C194.934 226.42 195.781 224.015 196.601 221.664C197.421 219.313 198.159 217.318 198.815 215.678C199.471 214.147 200.018 212.726 200.455 211.414C200.892 210.102 201.111 209.173 201.111 208.626C201.111 208.407 201.166 208.243 201.275 208.134C201.384 207.97 201.63 207.669 202.013 207.232C202.56 206.685 203.27 206.494 204.145 206.658C205.074 206.767 205.84 207.041 206.441 207.478C206.878 208.189 207.179 208.845 207.343 209.446C207.562 209.993 207.562 210.867 207.343 212.07C207.343 212.89 207.152 213.655 206.769 214.366C206.386 215.022 206.031 215.569 205.703 216.006C205.43 216.389 205.348 216.553 205.457 216.498C207.862 215.022 210.022 214.229 211.935 214.12C213.903 213.956 215.543 214.284 216.855 215.104C218.222 215.869 219.26 216.935 219.971 218.302C220.682 219.669 221.037 221.145 221.037 222.73C221.037 223.386 220.818 224.261 220.381 225.354C219.944 226.447 219.452 227.486 218.905 228.47C218.358 229.399 217.921 230.028 217.593 230.356C217.374 230.356 217.156 230.547 216.937 230.93C216.718 231.258 216.5 231.641 216.281 232.078C215.844 232.625 215.106 233.253 214.067 233.964C213.083 234.62 212.072 235.167 211.033 235.604C209.994 235.987 209.256 236.096 208.819 235.932C208.819 235.932 208.737 235.987 208.573 236.096C208.464 236.205 208.409 236.397 208.409 236.67C208.409 236.779 208.026 236.998 207.261 237.326C206.496 237.654 205.594 237.955 204.555 238.228C203.516 238.501 202.56 238.638 201.685 238.638C200.537 238.638 199.717 238.419 199.225 237.982C199.116 238.091 198.979 238.255 198.815 238.474C198.706 238.693 198.651 238.884 198.651 239.048C198.651 239.376 198.514 239.895 198.241 240.606C198.022 241.317 197.749 241.945 197.421 242.492C197.093 243.093 196.792 243.394 196.519 243.394C196.519 243.394 196.464 243.476 196.355 243.64C196.246 243.804 196.3 244.023 196.519 244.296C196.519 244.296 196.492 244.597 196.437 245.198C196.437 245.854 196.3 246.401 196.027 246.838C196.027 247.275 195.945 247.931 195.781 248.806C195.617 249.681 195.426 250.337 195.207 250.774C195.207 251.43 195.098 252.059 194.879 252.66C194.715 253.316 194.524 253.644 194.305 253.644C194.086 253.699 193.95 254.027 193.895 254.628C193.84 255.284 193.813 255.749 193.813 256.022C193.758 257.389 193.321 258.564 192.501 259.548C191.681 260.587 190.943 261.106 190.287 261.106ZM200.783 232.406C201.22 232.406 202.013 232.215 203.161 231.832C204.309 231.449 205.512 230.985 206.769 230.438C208.026 229.837 209.01 229.235 209.721 228.634C211.142 227.377 212.236 226.147 213.001 224.944C213.821 223.741 213.766 222.402 212.837 220.926C212.4 220.161 211.689 219.86 210.705 220.024C209.776 220.133 208.737 220.571 207.589 221.336C206.441 222.101 205.266 223.058 204.063 224.206C203.407 224.917 202.806 225.737 202.259 226.666C201.712 227.595 201.248 228.497 200.865 229.372C200.537 230.247 200.346 230.985 200.291 231.586C200.236 232.133 200.4 232.406 200.783 232.406ZM234.971 241.344C233.823 241.563 232.949 241.508 232.347 241.18C231.801 240.797 231.227 240.333 230.625 239.786C229.751 239.349 228.958 238.747 228.247 237.982C227.537 237.162 226.99 236.315 226.607 235.44C226.225 234.565 226.061 233.882 226.115 233.39C226.279 231.477 226.717 229.399 227.427 227.158C228.193 224.917 229.149 222.73 230.297 220.598C231.5 218.466 232.839 216.58 234.315 214.94C235.846 213.245 237.486 212.015 239.235 211.25C240.329 210.813 241.504 210.649 242.761 210.758C244.019 210.867 244.866 211.387 245.303 212.316C246.123 213.901 245.932 214.913 244.729 215.35C244.565 215.35 244.374 215.432 244.155 215.596C243.937 215.705 243.827 215.869 243.827 216.088C244.046 216.197 244.647 216.225 245.631 216.17C246.615 216.061 247.599 215.897 248.583 215.678C249.622 215.405 250.305 215.131 250.633 214.858C250.961 214.694 251.207 214.612 251.371 214.612C251.535 214.612 251.945 214.667 252.601 214.776C253.531 215.049 253.995 215.377 253.995 215.76C253.995 215.979 254.077 216.334 254.241 216.826C254.405 217.263 254.597 217.482 254.815 217.482C255.198 217.537 255.28 217.919 255.061 218.63C254.897 219.341 254.269 220.079 253.175 220.844C252.137 221.5 251.481 221.937 251.207 222.156C250.989 222.32 250.961 222.703 251.125 223.304C251.563 224.343 251.535 225.6 251.043 227.076C250.551 228.552 249.731 230.083 248.583 231.668C247.435 233.253 246.069 234.757 244.483 236.178C242.953 237.545 241.34 238.72 239.645 239.704C238.005 240.633 236.447 241.18 234.971 241.344ZM235.217 234.456C235.436 234.456 235.819 234.347 236.365 234.128C236.912 233.855 237.349 233.636 237.677 233.472C237.896 233.253 238.169 233.007 238.497 232.734C238.88 232.406 239.181 232.215 239.399 232.16C239.618 232.16 239.755 232.078 239.809 231.914C239.864 231.695 240.055 231.285 240.383 230.684C240.711 230.028 241.367 229.071 242.351 227.814C243.445 226.611 244.155 225.655 244.483 224.944C244.811 224.179 244.839 223.359 244.565 222.484C244.511 222.265 244.347 222.129 244.073 222.074C243.855 222.019 243.554 221.883 243.171 221.664C242.625 221.664 242.242 221.801 242.023 222.074C241.859 222.293 241.477 222.156 240.875 221.664L239.563 220.024L238.169 221.418C237.295 222.293 236.502 223.386 235.791 224.698C235.135 226.01 234.616 227.349 234.233 228.716C233.851 230.083 233.605 231.285 233.495 232.324C233.441 233.144 233.577 233.691 233.905 233.964C234.233 234.237 234.671 234.401 235.217 234.456ZM278.723 232.406C278.996 232.242 279.242 232.133 279.461 232.078C279.734 231.969 279.98 231.887 280.199 231.832C280.964 231.723 281.484 231.941 281.757 232.488C282.085 233.035 282.249 233.609 282.249 234.21C282.249 234.593 282.222 234.921 282.167 235.194C282.112 235.467 282.03 235.659 281.921 235.768C281.921 235.987 281.921 236.26 281.921 236.588C281.976 236.861 281.948 237.135 281.839 237.408C281.62 238.173 281.046 238.884 280.117 239.54C279.188 240.141 278.176 240.551 277.083 240.77C276.044 240.934 275.17 240.743 274.459 240.196C273.967 239.977 273.475 239.677 272.983 239.294C272.382 238.693 271.917 237.955 271.589 237.08C271.316 236.151 271.179 235.112 271.179 233.964C271.179 233.089 271.261 232.16 271.425 231.176C271.644 230.192 271.917 229.181 272.245 228.142C271.097 229.071 269.894 229.919 268.637 230.684C267.434 231.449 266.204 232.215 264.947 232.98C264.674 232.98 264.373 232.98 264.045 232.98C263.717 232.98 263.416 232.98 263.143 232.98C262.432 232.98 261.776 232.871 261.175 232.652C260.628 232.433 260.109 232.051 259.617 231.504C258.906 230.739 258.387 229.891 258.059 228.962C257.786 227.978 257.649 226.967 257.649 225.928C257.649 224.015 258.004 222.047 258.715 220.024C259.426 218.001 260.218 216.061 261.093 214.202C262.022 212.343 262.815 210.731 263.471 209.364C264.619 208.763 265.576 208.653 266.341 209.036C267.161 209.364 267.817 209.965 268.309 210.84C268.856 211.66 269.293 212.562 269.621 213.546C269.402 214.585 268.91 215.541 268.145 216.416C267.434 217.291 266.86 218.493 266.423 220.024C266.204 220.844 265.931 221.691 265.603 222.566C265.33 223.386 265.111 224.233 264.947 225.108C265.384 224.889 266.04 224.479 266.915 223.878C267.79 223.222 268.774 222.511 269.867 221.746C270.96 220.926 271.999 220.106 272.983 219.286C274.022 218.466 274.924 217.728 275.689 217.072C276.454 216.416 276.946 215.897 277.165 215.514C277.602 214.967 277.848 214.448 277.903 213.956C277.958 213.464 278.176 212.972 278.559 212.48C279.543 211.387 280.554 210.949 281.593 211.168C282.686 211.332 283.643 211.879 284.463 212.808C285.283 213.737 285.72 214.803 285.775 216.006C285.119 216.99 284.408 218.165 283.643 219.532C282.878 220.899 282.14 222.375 281.429 223.96C280.718 225.491 280.117 226.994 279.625 228.47C279.133 229.946 278.832 231.258 278.723 232.406ZM298.256 241.262C296.124 240.387 294.648 238.966 293.828 236.998C293.008 235.03 292.789 232.406 293.172 229.126C293.281 227.431 293.226 226.311 293.008 225.764C292.789 225.163 292.379 224.589 291.778 224.042C291.614 223.823 291.231 223.468 290.63 222.976C290.028 222.429 289.755 222.019 289.81 221.746C289.755 221.363 289.837 220.899 290.056 220.352C290.274 219.751 290.466 219.423 290.63 219.368C291.012 219.204 291.395 219.013 291.778 218.794C292.215 218.575 292.543 218.521 292.762 218.63C292.98 218.63 293.308 218.767 293.746 219.04C294.238 219.313 294.484 219.559 294.484 219.778C294.702 220.161 295.03 219.997 295.468 219.286C295.96 218.575 296.479 217.673 297.026 216.58C297.572 215.705 298.256 214.885 299.076 214.12C299.896 213.355 300.716 212.671 301.536 212.07C302.41 211.414 303.148 210.922 303.75 210.594C304.023 210.485 304.542 210.321 305.308 210.102C306.128 209.883 306.975 209.719 307.85 209.61C308.724 209.446 309.38 209.391 309.818 209.446C310.802 209.501 311.84 209.911 312.934 210.676C314.027 211.441 314.874 212.152 315.476 212.808C316.186 213.3 316.651 214.065 316.87 215.104C317.143 216.088 317.252 217.127 317.198 218.22C317.143 219.313 316.924 220.243 316.542 221.008C316.378 221.555 315.804 222.32 314.82 223.304C313.836 224.288 312.742 225.245 311.54 226.174C310.392 227.049 309.408 227.65 308.588 227.978C307.877 228.142 307.03 228.279 306.046 228.388C305.062 228.443 304.132 228.443 303.258 228.388C302.438 228.279 301.864 228.142 301.536 227.978C301.153 227.759 300.825 227.841 300.552 228.224C300.333 228.552 300.142 229.481 299.978 231.012C299.923 231.613 299.923 232.133 299.978 232.57C300.087 233.007 300.196 233.335 300.306 233.554C300.688 234.21 301.071 234.702 301.454 235.03C301.836 235.303 302.547 235.385 303.586 235.276C304.624 235.167 305.663 234.538 306.702 233.39C307.795 232.187 308.779 231.231 309.654 230.52C309.872 230.137 310.337 229.891 311.048 229.782C311.813 229.618 312.715 229.673 313.754 229.946C314.355 230.329 314.628 230.93 314.574 231.75C314.574 232.57 314.136 233.773 313.262 235.358C313.098 235.741 312.633 236.315 311.868 237.08C311.157 237.791 310.364 238.529 309.49 239.294C308.67 240.005 307.986 240.524 307.44 240.852C305.8 241.727 304.187 242.137 302.602 242.082C301.016 242.027 299.568 241.754 298.256 241.262ZM304.324 222.812C305.144 222.593 305.827 222.375 306.374 222.156C306.975 221.937 307.549 221.582 308.096 221.09C308.642 220.598 309.271 219.86 309.982 218.876C310.2 218.275 310.31 217.755 310.31 217.318C310.364 216.881 310.337 216.607 310.228 216.498C309.79 216.061 309.298 215.924 308.752 216.088C308.26 216.197 307.713 216.471 307.112 216.908C306.729 217.072 306.182 217.427 305.472 217.974C304.816 218.466 304.16 219.04 303.504 219.696C302.902 220.297 302.41 220.871 302.028 221.418C301.7 221.91 301.645 222.211 301.864 222.32C301.754 222.539 302.055 222.675 302.766 222.73C303.531 222.785 304.05 222.812 304.324 222.812ZM317.6 249.052C316.999 249.052 316.479 248.915 316.042 248.642C315.659 248.369 315.359 248.041 315.14 247.658C315.14 247.275 315.249 246.947 315.468 246.674C315.687 246.401 315.987 246.073 316.37 245.69C316.971 245.143 317.545 244.46 318.092 243.64C318.639 242.875 319.131 242.082 319.568 241.262C320.06 240.442 320.443 239.786 320.716 239.294C320.935 238.693 321.153 237.982 321.372 237.162C321.591 236.342 321.809 235.44 322.028 234.456C322.028 234.019 322.028 233.636 322.028 233.308C322.083 232.925 322.219 232.625 322.438 232.406C322.875 232.023 323.395 231.695 323.996 231.422C324.652 231.094 325.281 231.203 325.882 231.75C326.538 232.242 327.03 233.527 327.358 235.604C327.577 236.807 327.577 237.9 327.358 238.884C327.139 239.868 326.675 241.071 325.964 242.492C325.855 242.875 325.445 243.503 324.734 244.378C324.078 245.253 323.395 246.045 322.684 246.756C322.028 247.521 321.618 247.904 321.454 247.904C321.235 247.904 321.044 247.959 320.88 248.068C320.716 248.232 320.497 248.423 320.224 248.642C320.005 248.861 319.677 248.97 319.24 248.97C318.803 249.025 318.256 249.052 317.6 249.052ZM358.225 242.738C357.46 242.738 356.913 242.629 356.585 242.41C356.257 242.191 355.874 241.836 355.437 241.344C354.89 240.579 354.508 240.005 354.289 239.622C354.07 239.185 353.988 238.529 354.043 237.654C354.262 236.889 354.617 236.315 355.109 235.932C355.656 235.495 356.257 235.331 356.913 235.44C357.077 235.495 357.241 235.549 357.405 235.604C357.624 235.604 357.815 235.659 357.979 235.768C359.51 235.003 360.794 234.046 361.833 232.898C362.926 231.75 363.965 230.465 364.949 229.044C364.129 228.661 363.364 228.197 362.653 227.65C361.997 227.049 361.478 226.447 361.095 225.846C360.603 224.971 360.248 224.015 360.029 222.976C359.865 221.937 359.728 220.817 359.619 219.614C359.947 218.903 360.193 218.138 360.357 217.318C360.576 216.498 360.849 215.623 361.177 214.694C361.56 213.71 362.134 212.726 362.899 211.742C363.5 210.977 364.266 210.211 365.195 209.446C366.124 208.681 367.054 208.052 367.983 207.56C368.967 207.013 369.732 206.74 370.279 206.74C370.935 206.959 371.509 206.931 372.001 206.658C372.548 206.33 373.204 206.303 373.969 206.576C374.188 206.631 374.379 206.658 374.543 206.658C374.762 206.658 374.98 206.685 375.199 206.74C377.167 207.123 378.643 207.697 379.627 208.462C380.611 209.173 381.212 210.211 381.431 211.578C381.048 213.71 380.693 215.268 380.365 216.252C380.092 217.236 379.682 218.22 379.135 219.204C378.752 219.915 378.37 220.68 377.987 221.5C377.659 222.265 377.276 223.031 376.839 223.796L376.511 224.37C377.003 224.425 377.495 224.507 377.987 224.616C378.534 224.671 378.834 224.725 378.889 224.78C379.6 224.944 380.228 225.245 380.775 225.682C381.322 226.065 381.841 226.475 382.333 226.912C382.606 227.131 382.77 227.568 382.825 228.224C382.88 228.88 382.688 229.427 382.251 229.864C381.65 231.121 381.021 232.379 380.365 233.636C379.709 234.893 379.108 236.123 378.561 237.326C378.342 237.818 378.151 238.447 377.987 239.212C377.823 239.923 377.522 240.743 377.085 241.672C376.757 241.781 376.429 241.891 376.101 242C375.773 242.109 375.418 242.219 375.035 242.328C374.707 242.437 374.379 242.547 374.051 242.656C372.794 242.383 371.946 241.672 371.509 240.524C371.454 240.415 371.263 240.114 370.935 239.622C370.662 239.075 370.634 238.419 370.853 237.654C370.962 237.217 371.099 236.834 371.263 236.506C371.427 236.123 371.564 235.823 371.673 235.604C371.946 235.003 372.22 234.374 372.493 233.718C372.766 233.062 373.067 232.406 373.395 231.75C373.45 231.586 373.532 231.395 373.641 231.176L373.149 231.094C372.821 231.039 372.52 231.012 372.247 231.012C371.974 230.957 371.728 230.903 371.509 230.848C371.29 231.012 371.072 231.203 370.853 231.422C370.689 231.586 370.498 231.887 370.279 232.324C369.678 232.98 369.104 233.718 368.557 234.538C368.01 235.358 367.409 236.096 366.753 236.752C365.714 237.845 364.84 238.72 364.129 239.376C363.473 240.032 362.844 240.633 362.243 241.18C360.767 242.219 359.428 242.738 358.225 242.738ZM369.049 224.78C369.596 224.671 370.06 224.507 370.443 224.288C370.88 224.015 371.263 223.632 371.591 223.14C371.974 222.648 372.302 221.992 372.575 221.172C372.848 220.352 373.149 219.341 373.477 218.138C373.641 217.646 373.778 217.181 373.887 216.744C374.051 216.252 374.215 215.787 374.379 215.35C374.543 214.913 374.68 214.475 374.789 214.038C374.953 213.601 375.117 213.163 375.281 212.726C374.898 212.453 374.379 212.316 373.723 212.316C373.122 212.261 372.52 212.289 371.919 212.398C370.443 212.945 369.268 213.792 368.393 214.94C367.573 216.033 366.89 217.482 366.343 219.286C365.96 220.817 365.96 222.101 366.343 223.14C366.78 224.124 367.682 224.671 369.049 224.78ZM431.316 242.984C431.097 242.984 430.797 242.957 430.414 242.902C430.086 242.847 429.813 242.711 429.594 242.492C429.375 242.492 428.993 242.41 428.446 242.246C427.899 242.082 427.407 241.891 426.97 241.672C426.423 241.453 425.685 241.016 424.756 240.36C423.827 239.649 422.897 238.884 421.968 238.064C421.039 237.244 420.246 236.479 419.59 235.768C418.989 235.057 418.688 234.538 418.688 234.21C418.688 233.937 418.551 233.8 418.278 233.8C418.278 233.8 418.196 233.718 418.032 233.554C417.868 233.335 417.786 233.117 417.786 232.898C417.786 232.351 417.513 232.078 416.966 232.078C416.966 232.078 416.583 232.461 415.818 233.226C415.107 233.991 414.205 234.921 413.112 236.014C411.581 237.545 410.433 238.665 409.668 239.376C408.957 240.032 408.383 240.36 407.946 240.36C407.509 240.36 406.935 240.169 406.224 239.786C405.568 239.349 404.967 238.775 404.42 238.064C403.928 237.353 403.682 236.506 403.682 235.522C403.682 235.522 404.229 234.893 405.322 233.636C406.47 232.379 407.809 231.094 409.34 229.782L413.522 225.518L412.62 222.402C412.237 221.527 411.827 220.625 411.39 219.696C411.007 218.712 410.707 217.892 410.488 217.236C409.832 216.307 409.477 215.733 409.422 215.514C409.422 215.241 409.641 214.776 410.078 214.12C410.515 213.683 411.226 213.245 412.21 212.808C413.249 212.316 414.096 212.289 414.752 212.726C415.08 212.726 415.517 213.191 416.064 214.12C416.611 214.995 417.103 215.979 417.54 217.072C418.032 218.111 418.278 218.849 418.278 219.286C418.278 220.161 418.442 220.625 418.77 220.68C419.153 220.735 420 220.325 421.312 219.45C421.968 218.849 422.487 218.357 422.87 217.974C423.253 217.537 423.444 217.318 423.444 217.318C423.608 217.154 424.1 216.744 424.92 216.088C425.74 215.432 426.587 214.749 427.462 214.038C428.337 213.327 428.911 212.917 429.184 212.808C429.621 212.48 430.168 212.48 430.824 212.808C431.48 213.081 432.054 213.519 432.546 214.12C433.093 214.667 433.366 215.241 433.366 215.842C433.366 216.498 433.175 217.236 432.792 218.056C432.409 218.821 431.671 219.505 430.578 220.106C429.594 220.817 428.829 221.391 428.282 221.828C427.79 222.265 427.271 222.757 426.724 223.304C426.177 223.796 425.303 224.561 424.1 225.6L421.968 227.322L423.28 229.536C423.499 229.919 423.799 230.356 424.182 230.848C424.619 231.34 425.029 231.695 425.412 231.914C425.74 232.351 426.314 232.925 427.134 233.636C427.954 234.292 428.747 234.893 429.512 235.44C430.277 235.987 430.715 236.26 430.824 236.26C431.043 236.26 431.289 236.342 431.562 236.506C431.835 236.67 432.163 236.861 432.546 237.08C432.983 237.517 433.175 238.228 433.12 239.212C433.065 240.141 432.847 241.016 432.464 241.836C432.136 242.601 431.753 242.984 431.316 242.984ZM446.057 241.344C444.909 241.563 444.035 241.508 443.433 241.18C442.887 240.797 442.313 240.333 441.711 239.786C440.837 239.349 440.044 238.747 439.333 237.982C438.623 237.162 438.076 236.315 437.693 235.44C437.311 234.565 437.147 233.882 437.201 233.39C437.365 231.477 437.803 229.399 438.513 227.158C439.279 224.917 440.235 222.73 441.383 220.598C442.586 218.466 443.925 216.58 445.401 214.94C446.932 213.245 448.572 212.015 450.321 211.25C451.415 210.813 452.59 210.649 453.847 210.758C455.105 210.867 455.952 211.387 456.389 212.316C457.209 213.901 457.018 214.913 455.815 215.35C455.651 215.35 455.46 215.432 455.241 215.596C455.023 215.705 454.913 215.869 454.913 216.088C455.132 216.197 455.733 216.225 456.717 216.17C457.701 216.061 458.685 215.897 459.669 215.678C460.708 215.405 461.391 215.131 461.719 214.858C462.047 214.694 462.293 214.612 462.457 214.612C462.621 214.612 463.031 214.667 463.687 214.776C464.617 215.049 465.081 215.377 465.081 215.76C465.081 215.979 465.163 216.334 465.327 216.826C465.491 217.263 465.683 217.482 465.901 217.482C466.284 217.537 466.366 217.919 466.147 218.63C465.983 219.341 465.355 220.079 464.261 220.844C463.223 221.5 462.567 221.937 462.293 222.156C462.075 222.32 462.047 222.703 462.211 223.304C462.649 224.343 462.621 225.6 462.129 227.076C461.637 228.552 460.817 230.083 459.669 231.668C458.521 233.253 457.155 234.757 455.569 236.178C454.039 237.545 452.426 238.72 450.731 239.704C449.091 240.633 447.533 241.18 446.057 241.344ZM446.303 234.456C446.522 234.456 446.905 234.347 447.451 234.128C447.998 233.855 448.435 233.636 448.763 233.472C448.982 233.253 449.255 233.007 449.583 232.734C449.966 232.406 450.267 232.215 450.485 232.16C450.704 232.16 450.841 232.078 450.895 231.914C450.95 231.695 451.141 231.285 451.469 230.684C451.797 230.028 452.453 229.071 453.437 227.814C454.531 226.611 455.241 225.655 455.569 224.944C455.897 224.179 455.925 223.359 455.651 222.484C455.597 222.265 455.433 222.129 455.159 222.074C454.941 222.019 454.64 221.883 454.257 221.664C453.711 221.664 453.328 221.801 453.109 222.074C452.945 222.293 452.563 222.156 451.961 221.664L450.649 220.024L449.255 221.418C448.381 222.293 447.588 223.386 446.877 224.698C446.221 226.01 445.702 227.349 445.319 228.716C444.937 230.083 444.691 231.285 444.581 232.324C444.527 233.144 444.663 233.691 444.991 233.964C445.319 234.237 445.757 234.401 446.303 234.456ZM489.809 232.406C490.082 232.242 490.328 232.133 490.547 232.078C490.82 231.969 491.066 231.887 491.285 231.832C492.05 231.723 492.569 231.941 492.843 232.488C493.171 233.035 493.335 233.609 493.335 234.21C493.335 234.593 493.307 234.921 493.253 235.194C493.198 235.467 493.116 235.659 493.007 235.768C493.007 235.987 493.007 236.26 493.007 236.588C493.061 236.861 493.034 237.135 492.925 237.408C492.706 238.173 492.132 238.884 491.203 239.54C490.273 240.141 489.262 240.551 488.169 240.77C487.13 240.934 486.255 240.743 485.545 240.196C485.053 239.977 484.561 239.677 484.069 239.294C483.467 238.693 483.003 237.955 482.675 237.08C482.401 236.151 482.265 235.112 482.265 233.964C482.265 233.089 482.347 232.16 482.511 231.176C482.729 230.192 483.003 229.181 483.331 228.142C482.183 229.071 480.98 229.919 479.723 230.684C478.52 231.449 477.29 232.215 476.033 232.98C475.759 232.98 475.459 232.98 475.131 232.98C474.803 232.98 474.502 232.98 474.229 232.98C473.518 232.98 472.862 232.871 472.261 232.652C471.714 232.433 471.195 232.051 470.703 231.504C469.992 230.739 469.473 229.891 469.145 228.962C468.871 227.978 468.735 226.967 468.735 225.928C468.735 224.015 469.09 222.047 469.801 220.024C470.511 218.001 471.304 216.061 472.179 214.202C473.108 212.343 473.901 210.731 474.557 209.364C475.705 208.763 476.661 208.653 477.427 209.036C478.247 209.364 478.903 209.965 479.395 210.84C479.941 211.66 480.379 212.562 480.707 213.546C480.488 214.585 479.996 215.541 479.231 216.416C478.52 217.291 477.946 218.493 477.509 220.024C477.29 220.844 477.017 221.691 476.689 222.566C476.415 223.386 476.197 224.233 476.033 225.108C476.47 224.889 477.126 224.479 478.001 223.878C478.875 223.222 479.859 222.511 480.953 221.746C482.046 220.926 483.085 220.106 484.069 219.286C485.107 218.466 486.009 217.728 486.775 217.072C487.54 216.416 488.032 215.897 488.251 215.514C488.688 214.967 488.934 214.448 488.989 213.956C489.043 213.464 489.262 212.972 489.645 212.48C490.629 211.387 491.64 210.949 492.679 211.168C493.772 211.332 494.729 211.879 495.549 212.808C496.369 213.737 496.806 214.803 496.861 216.006C496.205 216.99 495.494 218.165 494.729 219.532C493.963 220.899 493.225 222.375 492.515 223.96C491.804 225.491 491.203 226.994 490.711 228.47C490.219 229.946 489.918 231.258 489.809 232.406ZM505.897 261.516C505.679 261.571 505.351 261.489 504.913 261.27C504.531 261.051 504.203 260.669 503.929 260.122C503.656 259.575 503.574 258.865 503.683 257.99C503.465 257.225 503.492 256.268 503.765 255.12C504.093 254.027 504.777 252.387 505.815 250.2C506.362 249.325 506.854 248.287 507.291 247.084C507.783 245.881 508.33 244.679 508.931 243.476C509.205 242.984 509.669 242.137 510.325 240.934C511.036 239.731 511.801 238.31 512.621 236.67C513.496 234.975 514.289 233.226 514.999 231.422C513.578 232.898 512.348 234.292 511.309 235.604C510.325 236.861 509.423 237.873 508.603 238.638C507.838 239.349 507.018 239.677 506.143 239.622C505.433 239.458 504.585 238.993 503.601 238.228C502.617 237.463 501.989 236.615 501.715 235.686C501.497 234.483 501.415 232.953 501.469 231.094C501.579 229.235 501.934 226.42 502.535 222.648C502.973 220.789 503.164 219.368 503.109 218.384C503.109 217.345 502.973 216.58 502.699 216.088C502.426 215.596 502.071 215.159 501.633 214.776C500.923 214.12 500.868 213.409 501.469 212.644C502.071 211.879 502.754 211.305 503.519 210.922C504.667 210.649 505.569 210.594 506.225 210.758C506.936 210.867 507.647 211.332 508.357 212.152C508.795 212.863 509.232 213.628 509.669 214.448C510.107 215.268 510.325 216.443 510.325 217.974C510.325 218.63 510.298 219.368 510.243 220.188C510.189 220.953 510.134 221.664 510.079 222.32C510.025 222.976 509.97 223.495 509.915 223.878C509.369 225.901 508.877 227.65 508.439 229.126C508.002 230.602 507.92 231.34 508.193 231.34C509.287 230.465 510.216 229.618 510.981 228.798C511.801 227.978 512.676 226.994 513.605 225.846C514.535 224.698 515.683 223.195 517.049 221.336C517.541 220.407 518.033 219.505 518.525 218.63C519.017 217.755 519.427 216.853 519.755 215.924C520.083 215.213 520.521 214.475 521.067 213.71C521.614 212.89 521.997 212.453 522.215 212.398C522.489 212.289 522.871 212.316 523.363 212.48C523.855 212.644 524.32 212.835 524.757 213.054C525.249 213.218 525.495 213.355 525.495 213.464C525.55 213.519 525.823 213.573 526.315 213.628C526.807 213.683 527.299 213.737 527.791 213.792C528.283 213.792 528.529 213.874 528.529 214.038C528.529 214.147 528.365 214.557 528.037 215.268C527.764 215.979 527.436 216.771 527.053 217.646C526.671 218.521 526.315 219.313 525.987 220.024C525.714 220.68 525.605 221.063 525.659 221.172C525.769 221.281 525.687 221.691 525.413 222.402C525.14 223.058 524.812 223.796 524.429 224.616C524.101 225.436 523.801 226.174 523.527 226.83C522.981 228.634 522.352 230.438 521.641 232.242C520.931 233.991 520.083 235.741 519.099 237.49C518.771 238.146 518.279 239.157 517.623 240.524C517.022 241.891 516.421 243.23 515.819 244.542C515.273 245.909 514.835 246.947 514.507 247.658C514.289 248.095 513.961 248.779 513.523 249.708C513.141 250.692 512.703 251.758 512.211 252.906C511.774 254.054 511.337 255.12 510.899 256.104C510.462 257.143 510.134 257.935 509.915 258.482C509.806 259.521 509.56 260.286 509.177 260.778C508.685 261.27 508.002 261.516 507.127 261.516C506.307 261.516 505.897 261.516 505.897 261.516ZM554.442 239.294C553.403 238.857 552.556 238.201 551.9 237.326C551.299 236.397 550.998 235.276 550.998 233.964C550.998 233.417 551.107 232.488 551.326 231.176C551.545 229.864 551.845 228.388 552.228 226.748C552.611 225.108 552.993 223.577 553.376 222.156C553.923 221.172 554.278 220.188 554.442 219.204C554.661 218.22 554.77 217.619 554.77 217.4C554.879 216.744 555.071 215.869 555.344 214.776C555.617 213.683 555.891 212.699 556.164 211.824C556.492 210.895 556.711 210.375 556.82 210.266C557.093 209.993 557.558 209.829 558.214 209.774C558.87 209.719 559.526 209.801 560.182 210.02C560.838 210.184 561.275 210.539 561.494 211.086C562.095 211.742 562.423 212.726 562.478 214.038C562.587 215.35 562.341 216.881 561.74 218.63C561.248 219.723 560.756 221.008 560.264 222.484C559.772 223.96 559.335 225.327 558.952 226.584C558.624 227.787 558.433 228.607 558.378 229.044L555.426 228.962C556.355 228.087 557.23 227.185 558.05 226.256C558.87 225.272 559.471 224.507 559.854 223.96C560.783 222.703 561.576 221.664 562.232 220.844C562.943 219.969 563.845 218.931 564.938 217.728C566.031 216.471 567.207 215.596 568.464 215.104C569.721 214.557 570.651 214.284 571.252 214.284C572.455 214.503 573.521 215.131 574.45 216.17C575.434 217.154 576.035 218.63 576.254 220.598C576.254 221.363 576.172 222.265 576.008 223.304C575.899 224.343 575.844 224.862 575.844 224.862C575.844 224.862 576.281 224.315 577.156 223.222C578.085 222.129 579.315 220.899 580.846 219.532C581.885 218.767 582.896 218.329 583.88 218.22C584.864 218.056 585.739 218.384 586.504 219.204C587.925 219.969 588.964 221.309 589.62 223.222C590.276 225.135 590.495 227.295 590.276 229.7C590.112 231.121 590.112 232.269 590.276 233.144C590.495 233.964 590.713 234.702 590.932 235.358C591.643 236.342 591.752 237.217 591.26 237.982C590.768 238.693 590.331 239.048 589.948 239.048C589.401 239.048 588.581 238.939 587.488 238.72C586.395 238.501 585.383 238.119 584.454 237.572C583.579 237.025 583.142 236.287 583.142 235.358V230.274C583.142 229.071 583.087 228.197 582.978 227.65C582.923 227.049 582.787 226.666 582.568 226.502C581.967 226.174 581.229 226.42 580.354 227.24C579.479 228.06 578.523 229.235 577.484 230.766C576.5 232.242 575.434 233.909 574.286 235.768C573.247 237.463 572.4 238.501 571.744 238.884C571.088 239.212 570.459 239.185 569.858 238.802C568.655 238.419 567.89 237.9 567.562 237.244C567.289 236.533 567.261 235.741 567.48 234.866C567.753 233.937 568.081 232.734 568.464 231.258C568.901 229.782 569.311 228.361 569.694 226.994C570.077 225.573 570.323 224.534 570.432 223.878C570.213 223.441 569.831 223.304 569.284 223.468C568.792 223.577 568.273 223.823 567.726 224.206C567.07 224.643 566.359 225.108 565.594 225.6C564.883 226.092 564.036 227.131 563.052 228.716C562.396 229.755 561.658 230.903 560.838 232.16C560.018 233.363 559.253 234.456 558.542 235.44C557.886 236.424 557.339 237.107 556.902 237.49C556.519 238.474 556.164 239.103 555.836 239.376C555.508 239.595 555.043 239.567 554.442 239.294ZM614.827 240.36C613.187 241.289 611.437 241.836 609.579 242C607.775 242.109 606.08 241.863 604.495 241.262C602.909 240.606 601.625 239.649 600.641 238.392C600.094 237.681 599.575 236.561 599.083 235.03C598.591 233.445 598.509 231.313 598.837 228.634C599.165 226.119 599.93 223.577 601.133 221.008C602.39 218.439 603.921 216.17 605.725 214.202C607.529 212.234 609.497 210.895 611.629 210.184C612.394 209.911 613.159 209.719 613.925 209.61C614.745 209.446 615.811 209.419 617.123 209.528C618.38 209.692 619.501 210.02 620.485 210.512C621.469 210.949 622.179 211.441 622.617 211.988C623.491 212.863 624.065 213.71 624.339 214.53C624.612 215.35 624.721 216.143 624.667 216.908C624.393 218.657 623.601 220.543 622.289 222.566C621.031 224.589 619.255 226.092 616.959 227.076C616.029 227.459 614.936 227.705 613.679 227.814C612.421 227.923 610.699 227.759 608.513 227.322C607.201 227.049 606.326 227.185 605.889 227.732C605.506 228.279 605.342 229.345 605.397 230.93C605.506 231.914 605.725 232.789 606.053 233.554C606.435 234.265 607.119 234.757 608.103 235.03C609.36 235.249 610.262 235.276 610.809 235.112C611.355 234.893 612.039 234.593 612.859 234.21C613.296 233.937 613.706 233.636 614.089 233.308C614.526 232.98 614.936 232.652 615.319 232.324C615.756 231.996 616.111 231.75 616.385 231.586C616.658 231.367 616.931 231.231 617.205 231.176C617.478 231.121 617.751 231.094 618.025 231.094C618.626 231.149 619.2 231.477 619.747 232.078C620.293 232.679 620.649 233.253 620.813 233.8C620.813 234.237 620.539 234.866 619.993 235.686C619.446 236.451 618.708 237.271 617.779 238.146C616.904 238.966 615.92 239.704 614.827 240.36ZM613.761 222.074C614.143 221.91 614.69 221.527 615.401 220.926C616.166 220.325 616.849 219.696 617.451 219.04C618.052 218.329 618.353 217.783 618.353 217.4C618.353 216.799 617.943 216.279 617.123 215.842C616.357 215.405 615.346 215.323 614.089 215.596C613.651 215.705 613.132 216.006 612.531 216.498C611.929 216.99 611.328 217.564 610.727 218.22C610.125 218.821 609.606 219.423 609.169 220.024C608.731 220.571 608.431 221.008 608.267 221.336C608.485 221.609 608.923 221.828 609.579 221.992C610.235 222.156 610.945 222.238 611.711 222.238C612.531 222.238 613.214 222.183 613.761 222.074ZM634.014 242.738C633.686 242.519 633.139 242.273 632.374 242C631.663 241.727 630.952 241.453 630.241 241.18C629.531 240.852 628.984 240.524 628.602 240.196C627.344 238.993 626.47 237.736 625.978 236.424C625.54 235.057 625.322 233.773 625.322 232.57C625.376 231.367 625.486 230.356 625.65 229.536C625.814 228.661 625.896 228.142 625.896 227.978C625.841 227.322 625.95 226.721 626.224 226.174C626.497 225.627 626.716 225.163 626.88 224.78C627.918 222.812 628.875 221.09 629.75 219.614C630.624 218.138 631.909 216.471 633.604 214.612C634.096 214.175 634.615 213.792 635.162 213.464C635.708 213.136 636.31 213.027 636.966 213.136L638.852 214.53C639.344 215.077 639.617 215.623 639.672 216.17C639.781 216.717 639.726 217.318 639.508 217.974C639.398 218.357 639.262 218.767 639.098 219.204C638.934 219.641 638.715 220.024 638.442 220.352C637.512 221.227 636.747 222.238 636.146 223.386C635.599 224.479 635.08 225.491 634.588 226.42C634.369 226.967 634.123 227.431 633.85 227.814C633.576 228.142 633.303 228.525 633.03 228.962C632.866 229.235 632.674 229.536 632.456 229.864C632.292 230.192 632.155 230.575 632.046 231.012C631.882 232.051 631.8 232.734 631.8 233.062C631.8 233.39 631.854 233.855 631.964 234.456C632.401 234.675 633.057 234.757 633.932 234.702C634.806 234.647 635.353 234.511 635.572 234.292C636.61 233.417 637.321 232.707 637.704 232.16C638.141 231.559 638.496 230.93 638.77 230.274C639.043 229.563 639.453 228.661 640 227.568C640.437 226.803 640.82 225.791 641.148 224.534C641.53 223.277 641.831 222.047 642.05 220.844C642.268 219.641 642.296 218.849 642.132 218.466C642.077 218.029 642.05 217.482 642.05 216.826C642.05 216.17 642.05 215.541 642.05 214.94C642.05 214.667 642.022 214.393 641.968 214.12C641.913 213.847 641.858 213.546 641.804 213.218C641.749 212.835 641.667 212.48 641.558 212.152C641.339 209.856 641.175 207.943 641.066 206.412C641.011 204.881 641.011 203.515 641.066 202.312C641.175 201.109 641.339 199.825 641.558 198.458C641.776 197.638 642.214 196.791 642.87 195.916C643.58 194.987 644.209 194.303 644.756 193.866C645.74 192.991 647.106 192.281 648.856 191.734C650.605 191.187 652.163 190.969 653.53 191.078C653.912 191.023 654.404 190.996 655.006 190.996C655.607 190.996 656.236 190.996 656.892 190.996C657.602 190.941 658.258 190.914 658.86 190.914C659.352 190.805 659.762 190.723 660.09 190.668C660.472 190.559 661.101 190.231 661.976 189.684C663.069 189.083 664.026 189.001 664.846 189.438L666.978 192.472C666.923 193.784 666.404 194.85 665.42 195.67C664.49 196.435 662.905 196.955 660.664 197.228C660.281 197.228 659.926 197.201 659.597 197.146C659.27 197.091 658.969 197.119 658.696 197.228C658.313 197.392 657.876 197.419 657.384 197.31C656.892 197.201 656.591 197.146 656.482 197.146C655.935 197.146 655.306 197.228 654.596 197.392C653.885 197.501 653.12 197.474 652.3 197.31C650.332 197.911 649.02 198.895 648.364 200.262C647.762 201.629 647.462 202.941 647.462 204.198C647.571 205.565 647.79 207.068 648.118 208.708C648.5 210.348 648.774 212.316 648.938 214.612C648.938 214.995 648.938 215.377 648.938 215.76C648.992 216.088 649.02 216.443 649.02 216.826C649.402 218.466 649.539 219.942 649.43 221.254C649.32 222.511 649.129 223.386 648.856 223.878C648.801 224.151 648.746 224.835 648.692 225.928C648.692 226.967 648.391 228.087 647.79 229.29C646.478 231.914 645.111 234.292 643.69 236.424C642.323 238.501 640.601 240.251 638.524 241.672C637.868 242.109 637.212 242.41 636.556 242.574C635.9 242.738 635.052 242.793 634.014 242.738ZM674.14 214.94C673.594 214.995 672.938 214.967 672.172 214.858C671.462 214.749 670.86 214.803 670.368 215.022C669.767 215.295 669.056 215.842 668.236 216.662C667.471 217.482 666.952 218.357 666.678 219.286C666.405 220.161 666.733 220.899 667.662 221.5C668.045 221.719 668.428 221.937 668.81 222.156C669.193 222.375 669.576 222.621 669.958 222.894C670.341 223.058 670.696 223.222 671.024 223.386C671.407 223.55 671.762 223.769 672.09 224.042C672.309 223.331 672.5 222.621 672.664 221.91C672.883 221.145 673.102 220.407 673.32 219.696C673.484 219.149 673.621 218.63 673.73 218.138C673.84 217.591 673.922 217.045 673.976 216.498C674.086 215.951 674.14 215.432 674.14 214.94ZM672.254 243.312C671.653 242.929 671.052 242.547 670.45 242.164C669.849 241.781 669.248 241.399 668.646 241.016C668.537 239.321 668.619 237.627 668.892 235.932C669.166 234.237 669.548 232.57 670.04 230.93C669.822 231.149 669.603 231.367 669.384 231.586C669.166 231.805 668.92 232.023 668.646 232.242C668.373 232.461 668.072 232.679 667.744 232.898C667.471 233.117 667.198 233.335 666.924 233.554C666.651 233.718 665.995 234.128 664.956 234.784C663.918 235.44 662.77 236.151 661.512 236.916C660.255 237.681 659.134 238.365 658.15 238.966C657.166 239.513 656.62 239.786 656.51 239.786C655.144 239.677 654.16 239.075 653.558 237.982C653.012 236.834 652.602 235.686 652.328 234.538C652.82 233.773 653.367 233.144 653.968 232.652C654.57 232.16 655.308 231.805 656.182 231.586C656.948 231.313 657.822 230.93 658.806 230.438C659.845 229.891 660.856 229.317 661.84 228.716C662.824 228.06 663.644 227.513 664.3 227.076C663.863 226.967 663.453 226.803 663.07 226.584C662.688 226.311 662.332 225.983 662.004 225.6C660.966 224.507 660.255 223.167 659.872 221.582C659.49 219.942 659.49 218.521 659.872 217.318C659.982 216.99 660.091 216.662 660.2 216.334C660.364 215.951 660.501 215.596 660.61 215.268C660.884 214.503 661.184 213.819 661.512 213.218C661.84 212.617 662.196 212.097 662.578 211.66C663.344 210.84 664.191 210.211 665.12 209.774C666.104 209.337 667.116 209.036 668.154 208.872C668.318 208.817 668.482 208.79 668.646 208.79C668.81 208.79 668.974 208.763 669.138 208.708C669.904 208.599 670.669 208.544 671.434 208.544C672.254 208.489 673.047 208.462 673.812 208.462C674.414 208.517 675.015 208.544 675.616 208.544C676.272 208.544 676.874 208.544 677.42 208.544C678.623 209.145 679.58 209.856 680.29 210.676C681.001 211.441 681.356 212.535 681.356 213.956C681.356 215.651 681.165 217.427 680.782 219.286C680.454 221.145 680.017 223.058 679.47 225.026C678.924 226.939 678.35 228.88 677.748 230.848C677.202 232.761 676.71 234.62 676.272 236.424C676.163 236.971 676.054 237.545 675.944 238.146C675.835 238.693 675.726 239.239 675.616 239.786C675.452 240.715 675.124 241.535 674.632 242.246C674.14 243.011 673.348 243.367 672.254 243.312ZM681.235 249.052C680.633 249.052 680.114 248.915 679.677 248.642C679.294 248.369 678.993 248.041 678.775 247.658C678.775 247.275 678.884 246.947 679.103 246.674C679.321 246.401 679.622 246.073 680.005 245.69C680.606 245.143 681.18 244.46 681.727 243.64C682.273 242.875 682.765 242.082 683.203 241.262C683.695 240.442 684.077 239.786 684.351 239.294C684.569 238.693 684.788 237.982 685.007 237.162C685.225 236.342 685.444 235.44 685.663 234.456C685.663 234.019 685.663 233.636 685.663 233.308C685.717 232.925 685.854 232.625 686.073 232.406C686.51 232.023 687.029 231.695 687.631 231.422C688.287 231.094 688.915 231.203 689.517 231.75C690.173 232.242 690.665 233.527 690.993 235.604C691.211 236.807 691.211 237.9 690.993 238.884C690.774 239.868 690.309 241.071 689.599 242.492C689.489 242.875 689.079 243.503 688.369 244.378C687.713 245.253 687.029 246.045 686.319 246.756C685.663 247.521 685.253 247.904 685.089 247.904C684.87 247.904 684.679 247.959 684.515 248.068C684.351 248.232 684.132 248.423 683.859 248.642C683.64 248.861 683.312 248.97 682.875 248.97C682.437 249.025 681.891 249.052 681.235 249.052ZM225.927 344.508C224.506 344.508 223.549 344.153 223.057 343.442C222.565 342.677 222.1 341.802 221.663 340.818C221.663 339.889 221.8 338.877 222.073 337.784C222.401 336.636 222.811 335.433 223.303 334.176C223.795 332.864 224.287 331.579 224.779 330.322C224.998 328.955 225.38 327.643 225.927 326.386C226.474 325.129 226.911 323.899 227.239 322.696C227.567 321.603 227.868 320.564 228.141 319.58C228.469 318.541 228.797 317.557 229.125 316.628C229.125 315.863 229.262 315.207 229.535 314.66C229.863 314.059 230.273 313.594 230.765 313.266C231.257 312.938 231.804 312.774 232.405 312.774C233.006 312.993 233.444 313.102 233.717 313.102C234.045 313.102 234.318 313.047 234.537 312.938C234.81 312.774 235.384 312.692 236.259 312.692C237.134 312.692 238.063 312.692 239.047 312.692C240.031 312.692 240.769 312.665 241.261 312.61C242.19 312.555 243.01 312.637 243.721 312.856C244.432 313.075 245.142 313.184 245.853 313.184C247.001 313.621 248.094 314.141 249.133 314.742C250.226 315.289 251.074 315.999 251.675 316.874C252.331 317.749 252.604 318.869 252.495 320.236C252.331 321.001 252.222 321.903 252.167 322.942C252.167 323.981 251.866 324.965 251.265 325.894C251.21 326.277 250.937 327.097 250.445 328.354C249.953 329.557 249.434 330.814 248.887 332.126C248.395 333.438 248.094 334.477 247.985 335.242C247.876 335.625 247.766 336.035 247.657 336.472C247.548 336.909 247.438 337.347 247.329 337.784C247.165 338.604 246.974 339.397 246.755 340.162C246.536 340.873 246.181 341.501 245.689 342.048C244.924 342.813 244.022 343.141 242.983 343.032C241.944 342.868 241.07 342.403 240.359 341.638C239.648 340.873 239.348 339.943 239.457 338.85C239.457 338.358 239.512 337.62 239.621 336.636C239.73 335.652 239.84 334.723 239.949 333.848C240.058 333.301 240.195 332.864 240.359 332.536C240.578 332.153 240.714 331.853 240.769 331.634C241.37 330.213 241.917 328.655 242.409 326.96C242.956 325.265 243.393 323.68 243.721 322.204C244.049 320.673 244.24 319.471 244.295 318.596C243.53 318.596 242.628 318.651 241.589 318.76C240.605 318.815 239.676 318.869 238.801 318.924C237.981 318.979 237.38 319.006 236.997 319.006C236.669 319.006 236.478 319.033 236.423 319.088C236.368 319.088 236.314 319.225 236.259 319.498C235.931 320.865 235.466 322.395 234.865 324.09C234.318 325.73 233.908 327.179 233.635 328.436C233.58 328.873 233.362 329.557 232.979 330.486C232.596 331.361 232.186 332.345 231.749 333.438C231.312 334.477 230.929 335.488 230.601 336.472C230.273 337.401 230.082 338.139 230.027 338.686C229.699 339.069 229.48 339.561 229.371 340.162C229.316 340.763 229.262 341.337 229.207 341.884C229.043 342.868 228.633 343.524 227.977 343.852C227.376 344.125 226.692 344.344 225.927 344.508ZM258.129 360.17C257.364 360.389 256.571 360.197 255.751 359.596C254.986 358.995 254.385 358.175 253.947 357.136C253.565 356.097 253.565 355.031 253.947 353.938C254.057 353.61 254.221 353.063 254.439 352.298C254.658 351.587 254.795 350.959 254.849 350.412C254.904 350.029 255.068 349.373 255.341 348.444C255.615 347.569 255.915 346.695 256.243 345.82C256.626 344.945 256.927 344.317 257.145 343.934C257.473 343.387 257.692 342.759 257.801 342.048C257.965 341.337 258.047 340.791 258.047 340.408C258.157 340.025 258.293 339.588 258.457 339.096C258.676 338.604 258.895 338.221 259.113 337.948C259.223 337.511 259.387 337.046 259.605 336.554C259.824 336.007 260.07 335.543 260.343 335.16C260.453 334.777 260.535 334.313 260.589 333.766C260.699 333.219 260.863 332.919 261.081 332.864C261.136 332.645 261.163 332.427 261.163 332.208C261.218 331.989 261.327 331.689 261.491 331.306C261.601 330.705 261.847 329.83 262.229 328.682C262.612 327.534 263.077 326.277 263.623 324.91C264.225 323.325 264.635 321.958 264.853 320.81C265.072 319.607 264.771 318.842 263.951 318.514C263.514 318.295 263.241 317.803 263.131 317.038C263.022 316.218 263.077 315.398 263.295 314.578C263.514 313.758 263.842 313.266 264.279 313.102C264.771 312.883 265.373 312.747 266.083 312.692C266.794 312.637 267.423 312.637 267.969 312.692C268.571 312.692 268.844 312.747 268.789 312.856C268.789 313.129 268.926 313.293 269.199 313.348C269.309 313.184 269.527 313.43 269.855 314.086C270.238 314.687 270.593 315.371 270.921 316.136C271.249 316.901 271.413 317.421 271.413 317.694C271.304 317.913 271.249 318.049 271.249 318.104C271.249 318.104 271.359 318.104 271.577 318.104C271.577 318.104 271.878 317.967 272.479 317.694C273.081 317.366 273.709 317.011 274.365 316.628C275.076 316.191 275.541 315.863 275.759 315.644C275.759 315.644 275.896 315.589 276.169 315.48C276.497 315.316 276.771 315.125 276.989 314.906C278.083 314.469 279.258 314.387 280.515 314.66C281.827 314.933 282.866 315.425 283.631 316.136C284.725 317.503 285.545 319.197 286.091 321.22C286.693 323.243 286.611 325.211 285.845 327.124C285.736 327.397 285.49 327.862 285.107 328.518C284.779 329.119 284.451 329.693 284.123 330.24C283.795 330.732 283.631 330.978 283.631 330.978C282.374 332.946 280.98 334.586 279.449 335.898C277.973 337.21 276.361 338.358 274.611 339.342C274.065 339.725 273.299 340.08 272.315 340.408C271.386 340.736 270.511 340.982 269.691 341.146C268.926 341.31 268.461 341.337 268.297 341.228C267.696 340.791 267.149 339.861 266.657 338.44C266.384 339.151 266.111 339.861 265.837 340.572C265.619 341.228 265.482 341.665 265.427 341.884C265.373 342.267 265.318 342.595 265.263 342.868C265.209 343.087 265.072 343.278 264.853 343.442C264.853 343.442 264.826 343.551 264.771 343.77C264.717 343.989 264.525 344.317 264.197 344.754C263.651 346.339 263.213 347.569 262.885 348.444C262.557 349.373 262.284 350.111 262.065 350.658C261.901 351.259 261.737 351.888 261.573 352.544C261.464 354.02 261.109 355.578 260.507 357.218C259.961 358.858 259.168 359.842 258.129 360.17ZM270.347 333.52C270.566 333.411 270.949 333.219 271.495 332.946C272.097 332.673 272.753 332.345 273.463 331.962C274.174 331.525 274.83 331.115 275.431 330.732C276.087 330.295 276.552 329.912 276.825 329.584C277.263 329.092 277.509 328.709 277.563 328.436C277.618 328.108 277.755 327.589 277.973 326.878C278.137 326.441 278.329 325.949 278.547 325.402C278.766 324.855 278.957 324.336 279.121 323.844C279.34 323.407 279.422 322.969 279.367 322.532C279.367 322.04 279.203 321.63 278.875 321.302C278.657 321.247 278.137 321.329 277.317 321.548C276.552 321.767 275.65 322.204 274.611 322.86C273.627 323.516 272.643 324.473 271.659 325.73C270.511 327.206 269.746 328.545 269.363 329.748C268.981 330.896 268.899 331.825 269.117 332.536C269.336 333.192 269.746 333.52 270.347 333.52ZM311.093 344.836C310.546 344.289 310.109 343.551 309.781 342.622C309.453 341.638 309.125 340.517 308.797 339.26C308.688 338.823 308.633 338.331 308.633 337.784C308.688 337.237 308.688 336.8 308.633 336.472C308.469 336.855 308.196 337.347 307.813 337.948C307.485 338.549 307.157 338.987 306.829 339.26C306.61 339.479 306.118 339.916 305.353 340.572C304.588 341.173 303.822 341.665 303.057 342.048C301.253 343.196 299.64 343.743 298.219 343.688C296.852 343.579 295.65 342.868 294.611 341.556C293.736 340.845 293.026 339.943 292.479 338.85C291.932 337.757 291.823 336.445 292.151 334.914C292.26 333.001 292.534 331.142 292.971 329.338C293.408 327.479 294.31 325.019 295.677 321.958C296.825 319.717 297.7 317.967 298.301 316.71C298.902 315.453 299.285 314.715 299.449 314.496C300.269 314.223 301.28 314.25 302.483 314.578C303.686 314.851 304.342 315.371 304.451 316.136C304.779 316.683 304.779 317.721 304.451 319.252C304.123 320.728 303.467 322.423 302.483 324.336C301.718 326.195 300.98 327.999 300.269 329.748C299.613 331.497 299.203 332.973 299.039 334.176C298.93 335.379 299.258 336.117 300.023 336.39C300.515 336.663 301.226 336.636 302.155 336.308C303.139 335.98 304.287 334.996 305.599 333.356C306.911 331.716 308.305 329.119 309.781 325.566C310.218 324.473 310.546 323.516 310.765 322.696C310.984 321.821 311.12 320.865 311.175 319.826C311.066 319.17 311.23 318.487 311.667 317.776C312.159 317.065 312.733 316.519 313.389 316.136C313.608 315.863 313.908 315.617 314.291 315.398C314.674 315.125 314.92 315.125 315.029 315.398L316.341 315.316C316.56 315.261 316.806 315.48 317.079 315.972C317.352 316.464 317.626 316.819 317.899 317.038C318.5 317.53 318.774 318.596 318.719 320.236C318.664 321.876 318.008 324.172 316.751 327.124C315.712 329.365 315.002 331.06 314.619 332.208C314.291 333.356 314.1 334.477 314.045 335.57C314.045 336.554 314.127 337.401 314.291 338.112C314.455 338.768 314.947 339.451 315.767 340.162C316.368 340.545 316.696 341.201 316.751 342.13C316.86 343.005 316.888 343.77 316.833 344.426C316.724 344.918 316.286 345.246 315.521 345.41C314.81 345.629 314.018 345.683 313.143 345.574C312.323 345.465 311.64 345.219 311.093 344.836ZM329.635 342.704C328.979 342.868 328.295 342.977 327.585 343.032C326.929 343.032 326.273 342.923 325.617 342.704C324.687 342.321 324.059 341.857 323.731 341.31C323.403 340.763 323.239 340.135 323.239 339.424C323.239 338.385 323.403 337.319 323.731 336.226C324.113 335.133 324.25 334.067 324.141 333.028C324.305 332.645 324.551 331.935 324.879 330.896C325.261 329.857 325.644 328.737 326.027 327.534C326.464 326.277 326.819 325.101 327.093 324.008C327.421 322.915 327.585 322.095 327.585 321.548C327.585 320.783 327.475 320.209 327.257 319.826C327.093 319.389 327.038 318.951 327.093 318.514C327.147 318.077 327.503 317.503 328.159 316.792C328.432 316.519 328.869 316.054 329.471 315.398C330.072 314.742 330.509 314.359 330.783 314.25C331.22 314.141 331.63 314.086 332.013 314.086C332.45 314.086 332.887 314.168 333.325 314.332C333.27 314.332 333.243 314.332 333.243 314.332C333.243 314.277 333.215 314.25 333.161 314.25C334.09 313.758 335.347 313.348 336.933 313.02C338.573 312.692 340.213 312.555 341.853 312.61C343.547 312.61 344.941 312.938 346.035 313.594C346.8 314.031 347.374 314.66 347.757 315.48C348.139 316.3 348.167 317.339 347.839 318.596C347.511 318.815 347.183 319.061 346.855 319.334C346.527 319.553 346.199 319.799 345.871 320.072C345.433 319.853 344.996 319.771 344.559 319.826C344.176 319.826 343.739 319.826 343.247 319.826C342.481 319.771 341.661 319.717 340.787 319.662C339.967 319.607 339.147 319.635 338.327 319.744C337.507 319.853 336.741 320.154 336.031 320.646C335.812 321.411 335.539 322.286 335.211 323.27C334.883 324.199 334.582 325.129 334.309 326.058C334.035 326.987 333.789 327.78 333.571 328.436C333.352 329.092 333.215 329.502 333.161 329.666C332.505 331.251 331.876 333.274 331.275 335.734C330.673 338.194 330.127 340.517 329.635 342.704ZM345.599 345.984C344.888 345.765 344.232 345.328 343.631 344.672C343.084 344.016 342.647 343.551 342.319 343.278C342.264 343.114 342.182 342.95 342.073 342.786C342.018 342.622 341.964 342.458 341.909 342.294C341.909 341.747 341.964 341.365 342.073 341.146C342.237 340.927 342.592 340.545 343.139 339.998C343.522 339.397 343.904 339.069 344.287 339.014C344.67 338.959 345.025 338.987 345.353 339.096C346.446 338.276 347.485 337.511 348.469 336.8C349.508 336.035 350.328 335.215 350.929 334.34C351.694 333.192 352.432 332.017 353.143 330.814C353.908 329.611 354.646 328.409 355.357 327.206C355.63 326.714 355.931 326.14 356.259 325.484C356.587 324.828 356.915 324.172 357.243 323.516C357.571 322.805 357.844 322.204 358.063 321.712C357.516 321.603 357.134 321.493 356.915 321.384C356.696 321.22 356.423 321.029 356.095 320.81C355.931 320.209 355.712 319.553 355.439 318.842C355.22 318.131 355.084 317.585 355.029 317.202C355.029 315.835 355.685 314.988 356.997 314.66C358.637 314.277 360.058 314.031 361.261 313.922C362.464 313.813 363.639 313.621 364.787 313.348C365.88 313.075 367.028 312.993 368.231 313.102C369.434 313.157 370.554 313.403 371.593 313.84C372.14 314.059 372.632 314.359 373.069 314.742C373.506 315.125 373.916 315.644 374.299 316.3C374.9 317.175 375.256 318.131 375.365 319.17C375.529 320.209 375.584 321.138 375.529 321.958C375.529 322.723 375.556 323.215 375.611 323.434C375.447 324.035 375.201 324.965 374.873 326.222C374.545 327.479 374.162 328.819 373.725 330.24C373.342 331.661 372.96 332.946 372.577 334.094C372.249 335.187 372.03 335.925 371.921 336.308C371.702 337.183 371.402 338.085 371.019 339.014C370.691 339.889 370.472 340.736 370.363 341.556C370.144 342.704 369.68 343.497 368.969 343.934C368.258 344.317 367.63 344.645 367.083 344.918C366.482 345.137 365.935 345.082 365.443 344.754C364.951 344.426 364.486 344.071 364.049 343.688C363.666 342.649 363.448 341.884 363.393 341.392C363.393 340.845 363.557 340.107 363.885 339.178C364.049 338.741 364.35 337.757 364.787 336.226C365.224 334.695 365.716 332.973 366.263 331.06C366.81 329.147 367.329 327.397 367.821 325.812C368.313 324.172 368.641 323.024 368.805 322.368C368.914 321.821 368.996 321.357 369.051 320.974C369.106 320.537 369.106 320.127 369.051 319.744C368.668 319.635 368.122 319.58 367.411 319.58C366.7 319.58 366.044 319.635 365.443 319.744C365.334 319.799 365.197 319.826 365.033 319.826C364.924 319.826 364.814 319.853 364.705 319.908C364.486 320.892 364.213 321.876 363.885 322.86C363.557 323.789 363.147 324.801 362.655 325.894C362.218 326.933 361.671 328.108 361.015 329.42C360.414 330.732 359.676 332.208 358.801 333.848C358.254 334.941 357.708 335.925 357.161 336.8C356.614 337.675 356.04 338.495 355.439 339.26L354.455 340.572C354.127 340.9 353.772 341.255 353.389 341.638C353.006 342.021 352.651 342.376 352.323 342.704C351.995 342.977 351.722 343.223 351.503 343.442L348.961 345.41C348.469 345.793 347.95 345.984 347.403 345.984C346.856 345.984 346.255 345.984 345.599 345.984ZM387.161 343.852C386.724 343.961 386.15 344.016 385.439 344.016C384.729 343.961 384.1 343.879 383.553 343.77C383.061 343.606 382.815 343.442 382.815 343.278C382.815 343.005 382.679 342.868 382.405 342.868C382.405 342.868 382.105 342.649 381.503 342.212C380.902 341.72 380.355 341.365 379.863 341.146C379.371 340.381 379.043 339.506 378.879 338.522C378.77 337.483 379.098 335.679 379.863 333.11C379.918 331.361 380.41 329.529 381.339 327.616C382.269 325.648 383.444 323.735 384.865 321.876C386.287 320.017 387.763 318.377 389.293 316.956C390.824 315.48 392.191 314.387 393.393 313.676C394.159 312.911 395.17 312.501 396.427 312.446C397.739 312.391 398.887 312.637 399.871 313.184C400.418 313.457 401.019 314.004 401.675 314.824C402.331 315.644 402.96 316.519 403.561 317.448C404.163 318.323 404.627 319.115 404.955 319.826C405.119 320.427 405.256 320.974 405.365 321.466C405.529 321.903 405.639 322.45 405.693 323.106C405.748 323.762 405.693 324.746 405.529 326.058C405.256 327.042 405.01 328.053 404.791 329.092C404.627 330.076 404.545 331.087 404.545 332.126C404.436 333.165 404.545 333.903 404.873 334.34C405.256 334.777 405.803 334.805 406.513 334.422C407.169 334.094 407.853 334.067 408.563 334.34C409.274 334.559 409.766 334.996 410.039 335.652C410.367 336.253 410.285 337.046 409.793 338.03C409.465 338.741 408.946 339.424 408.235 340.08C407.525 340.736 406.732 341.283 405.857 341.72C404.983 342.103 404.135 342.294 403.315 342.294C402.714 342.294 402.113 342.075 401.511 341.638C400.91 341.146 400.363 340.49 399.871 339.67C399.379 338.85 398.969 337.948 398.641 336.964L398.149 335.078L395.197 337.784C394.487 338.549 393.776 339.26 393.065 339.916C392.409 340.517 391.999 340.955 391.835 341.228C391.562 341.72 391.015 342.157 390.195 342.54C389.43 342.923 388.419 343.36 387.161 343.852ZM389.375 335.98C390.305 335.433 391.097 334.777 391.753 334.012C392.464 333.247 393.147 332.399 393.803 331.47C394.459 330.486 395.17 329.447 395.935 328.354C396.865 327.097 397.521 326.085 397.903 325.32C398.341 324.555 398.669 323.735 398.887 322.86C398.669 322.259 398.368 321.63 397.985 320.974C397.603 320.263 397.22 319.881 396.837 319.826C396.072 319.826 395.143 320.291 394.049 321.22C393.011 322.149 391.863 323.489 390.605 325.238C390.387 325.511 390.113 325.949 389.785 326.55C389.457 327.151 389.129 327.725 388.801 328.272C388.528 328.764 388.337 329.092 388.227 329.256C388.063 329.475 387.817 329.994 387.489 330.814C387.216 331.579 386.97 332.372 386.751 333.192C386.533 333.957 386.423 334.504 386.423 334.832C386.423 335.16 386.451 335.515 386.505 335.898C386.615 336.281 386.888 336.527 387.325 336.636C387.763 336.745 388.446 336.527 389.375 335.98ZM423.523 344.344C422.32 344.344 421.418 344.289 420.817 344.18C420.27 344.071 419.86 343.907 419.587 343.688C419.313 343.469 418.958 343.169 418.521 342.786C418.302 342.349 417.919 341.802 417.373 341.146C416.826 340.435 416.443 339.971 416.225 339.752C416.006 338.932 415.924 337.811 415.979 336.39C416.088 334.969 416.334 333.438 416.717 331.798C417.099 330.158 417.564 328.682 418.111 327.37C418.329 326.933 418.521 326.495 418.685 326.058C418.849 325.621 418.931 325.402 418.931 325.402C418.931 325.129 419.259 324.473 419.915 323.434C420.625 322.395 421.391 321.302 422.211 320.154C423.085 319.006 423.796 318.186 424.343 317.694C424.725 317.257 425.299 316.792 426.065 316.3C426.885 315.808 427.595 315.453 428.197 315.234C428.798 315.015 429.618 314.742 430.657 314.414C431.695 314.031 432.625 313.84 433.445 313.84C434.21 313.84 435.03 314.004 435.905 314.332C436.779 314.66 437.517 315.234 438.119 316.054C439.103 317.038 439.731 318.213 440.005 319.58C440.278 320.947 440.305 322.122 440.087 323.106C439.813 324.199 439.267 325.101 438.447 325.812C437.627 326.468 436.752 326.823 435.823 326.878C434.893 326.878 434.073 326.495 433.363 325.73C433.144 325.293 433.035 324.937 433.035 324.664C433.035 324.336 433.144 323.871 433.363 323.27C433.581 322.505 433.691 321.821 433.691 321.22C433.691 320.619 433.445 320.318 432.953 320.318C432.242 320.318 431.668 320.537 431.231 320.974C430.793 321.357 430.137 322.013 429.263 322.942C428.88 323.379 428.388 324.008 427.787 324.828C427.185 325.648 426.584 326.55 425.983 327.534C425.436 328.463 424.944 329.42 424.507 330.404C423.905 332.208 423.523 333.383 423.359 333.93C423.249 334.422 423.195 334.668 423.195 334.668C423.195 334.887 423.167 335.105 423.113 335.324C423.058 335.488 423.031 335.679 423.031 335.898C423.031 336.554 423.413 337.073 424.179 337.456C424.78 337.839 425.272 338.03 425.655 338.03C426.092 337.975 426.912 337.675 428.115 337.128C428.989 336.691 429.809 336.117 430.575 335.406C431.395 334.695 432.242 334.067 433.117 333.52C433.718 333.137 434.183 332.809 434.511 332.536C434.893 332.263 435.085 332.235 435.085 332.454C435.085 332.673 435.167 332.782 435.331 332.782C435.495 332.782 435.686 332.673 435.905 332.454C436.233 332.017 436.643 331.853 437.135 331.962C437.627 332.017 438.064 332.153 438.447 332.372C438.884 332.591 439.103 332.782 439.103 332.946C438.993 333.438 439.103 333.848 439.431 334.176C439.431 334.395 439.349 334.695 439.185 335.078C439.075 335.406 438.911 335.679 438.693 335.898C438.419 336.281 438.009 336.827 437.463 337.538C436.971 338.249 436.506 338.877 436.069 339.424C435.631 339.971 435.413 340.244 435.413 340.244C435.194 340.189 434.975 340.244 434.757 340.408C434.593 340.572 434.401 340.763 434.183 340.982C433.745 341.365 433.335 341.665 432.953 341.884C432.57 342.048 432.269 342.13 432.051 342.13C431.668 342.349 431.367 342.485 431.149 342.54C430.985 342.595 430.903 342.731 430.903 342.95C430.356 343.497 429.372 343.879 427.951 344.098C426.529 344.262 425.053 344.344 423.523 344.344ZM468.357 346.394C467.373 346.503 466.499 346.285 465.733 345.738C464.968 345.191 464.367 344.59 463.929 343.934C463.383 343.059 462.973 342.048 462.699 340.9C462.426 339.697 462.289 338.577 462.289 337.538C462.289 337.483 462.262 337.429 462.207 337.374C462.207 337.319 462.207 337.292 462.207 337.292C462.207 337.237 462.18 337.237 462.125 337.292C461.469 338.003 460.513 338.877 459.255 339.916C458.053 340.9 456.768 341.775 455.401 342.54C454.089 343.251 452.914 343.579 451.875 343.524C451.219 343.469 450.563 343.169 449.907 342.622C449.306 342.021 448.759 341.337 448.267 340.572C447.775 339.807 447.447 339.123 447.283 338.522C447.065 337.647 447.119 336.226 447.447 334.258C447.775 332.235 448.267 329.994 448.923 327.534C449.634 325.019 450.454 322.614 451.383 320.318C452.313 317.967 453.269 316.054 454.253 314.578C455.292 313.047 456.276 312.282 457.205 312.282C458.025 312.282 458.736 312.719 459.337 313.594C459.939 314.414 460.376 315.152 460.649 315.808C460.977 316.628 461.141 317.202 461.141 317.53C461.141 317.803 460.841 318.268 460.239 318.924C459.693 319.471 459.119 320.373 458.517 321.63C457.916 322.833 457.315 324.199 456.713 325.73C456.112 327.206 455.565 328.6 455.073 329.912C454.636 331.224 454.281 332.263 454.007 333.028C453.898 333.629 453.789 334.094 453.679 334.422C453.57 334.75 453.488 335.133 453.433 335.57C453.543 335.57 453.652 335.57 453.761 335.57C453.925 335.515 454.062 335.461 454.171 335.406C455.21 335.023 456.276 334.258 457.369 333.11C458.517 331.962 459.638 330.595 460.731 329.01C461.825 327.37 462.863 325.703 463.847 324.008C464.886 322.259 465.87 320.646 466.799 319.17C467.729 317.639 468.549 316.409 469.259 315.48C470.025 314.496 470.653 314.004 471.145 314.004C471.692 313.949 472.348 314.086 473.113 314.414C473.879 314.687 474.507 315.097 474.999 315.644C475.546 316.136 475.765 316.71 475.655 317.366C475.437 318.623 474.863 320.236 473.933 322.204C473.004 324.117 472.047 326.222 471.063 328.518C470.134 330.814 469.451 333.192 469.013 335.652C468.795 336.909 468.877 338.03 469.259 339.014C469.642 339.943 470.216 340.873 470.981 341.802C471.856 342.841 471.911 343.852 471.145 344.836C470.435 345.765 469.505 346.285 468.357 346.394ZM483.493 342.294C482.454 341.857 481.607 341.201 480.951 340.326C480.35 339.397 480.049 338.276 480.049 336.964C480.049 336.417 480.158 335.488 480.377 334.176C480.596 332.864 480.896 331.388 481.279 329.748C481.662 328.108 482.044 326.577 482.427 325.156C482.974 324.172 483.329 323.188 483.493 322.204C483.712 321.22 483.821 320.619 483.821 320.4C483.93 319.744 484.122 318.869 484.395 317.776C484.668 316.683 484.942 315.699 485.215 314.824C485.543 313.895 485.762 313.375 485.871 313.266C486.144 312.993 486.609 312.829 487.265 312.774C487.921 312.719 488.577 312.801 489.233 313.02C489.889 313.184 490.326 313.539 490.545 314.086C491.146 314.742 491.474 315.726 491.529 317.038C491.638 318.35 491.392 319.881 490.791 321.63C490.299 322.723 489.807 324.008 489.315 325.484C488.823 326.96 488.386 328.327 488.003 329.584C487.675 330.787 487.484 331.607 487.429 332.044L484.477 331.962C485.406 331.087 486.281 330.185 487.101 329.256C487.921 328.272 488.522 327.507 488.905 326.96C489.834 325.703 490.627 324.664 491.283 323.844C491.994 322.969 492.896 321.931 493.989 320.728C495.082 319.471 496.258 318.596 497.515 318.104C498.772 317.557 499.702 317.284 500.303 317.284C501.506 317.503 502.572 318.131 503.501 319.17C504.485 320.154 505.086 321.63 505.305 323.598C505.305 324.363 505.223 325.265 505.059 326.304C504.95 327.343 504.895 327.862 504.895 327.862C504.895 327.862 505.332 327.315 506.207 326.222C507.136 325.129 508.366 323.899 509.897 322.532C510.936 321.767 511.947 321.329 512.931 321.22C513.915 321.056 514.79 321.384 515.555 322.204C516.976 322.969 518.015 324.309 518.671 326.222C519.327 328.135 519.546 330.295 519.327 332.7C519.163 334.121 519.163 335.269 519.327 336.144C519.546 336.964 519.764 337.702 519.983 338.358C520.694 339.342 520.803 340.217 520.311 340.982C519.819 341.693 519.382 342.048 518.999 342.048C518.452 342.048 517.632 341.939 516.539 341.72C515.446 341.501 514.434 341.119 513.505 340.572C512.63 340.025 512.193 339.287 512.193 338.358V333.274C512.193 332.071 512.138 331.197 512.029 330.65C511.974 330.049 511.838 329.666 511.619 329.502C511.018 329.174 510.28 329.42 509.405 330.24C508.53 331.06 507.574 332.235 506.535 333.766C505.551 335.242 504.485 336.909 503.337 338.768C502.298 340.463 501.451 341.501 500.795 341.884C500.139 342.212 499.51 342.185 498.909 341.802C497.706 341.419 496.941 340.9 496.613 340.244C496.34 339.533 496.312 338.741 496.531 337.866C496.804 336.937 497.132 335.734 497.515 334.258C497.952 332.782 498.362 331.361 498.745 329.994C499.128 328.573 499.374 327.534 499.483 326.878C499.264 326.441 498.882 326.304 498.335 326.468C497.843 326.577 497.324 326.823 496.777 327.206C496.121 327.643 495.41 328.108 494.645 328.6C493.934 329.092 493.087 330.131 492.103 331.716C491.447 332.755 490.709 333.903 489.889 335.16C489.069 336.363 488.304 337.456 487.593 338.44C486.937 339.424 486.39 340.107 485.953 340.49C485.57 341.474 485.215 342.103 484.887 342.376C484.559 342.595 484.094 342.567 483.493 342.294ZM527.806 338.358C527.751 337.319 527.86 336.062 528.134 334.586C528.462 333.055 528.899 331.579 529.446 330.158C529.992 328.682 530.539 327.479 531.086 326.55C531.14 325.621 531.359 324.883 531.742 324.336C532.179 323.735 532.48 323.243 532.644 322.86C532.808 322.313 533.163 321.521 533.71 320.482C534.256 319.443 534.858 318.405 535.514 317.366C536.17 316.273 536.744 315.48 537.236 314.988C537.673 313.621 538.138 312.637 538.63 312.036C539.122 311.435 539.723 311.025 540.434 310.806C540.762 310.861 541.199 310.943 541.746 311.052C542.347 311.161 542.921 311.544 543.468 312.2C543.632 312.419 543.96 312.747 544.452 313.184C544.944 313.567 545.299 314.223 545.518 315.152C545.518 316.136 545.272 316.929 544.78 317.53C544.342 318.077 543.987 318.569 543.714 319.006C543.331 319.498 542.976 319.963 542.648 320.4C542.374 320.783 542.101 321.165 541.828 321.548C541.554 321.931 541.226 322.368 540.844 322.86C540.953 322.915 541.008 322.942 541.008 322.942C541.062 322.942 541.117 322.942 541.172 322.942C541.882 322.887 542.702 323.024 543.632 323.352C544.561 323.68 545.436 324.09 546.256 324.582C547.076 325.019 547.677 325.429 548.06 325.812C548.442 326.195 548.852 326.605 549.29 327.042C549.727 327.425 550.137 327.889 550.52 328.436C550.957 328.928 551.285 329.557 551.504 330.322C551.668 330.541 551.886 330.978 552.16 331.634C552.433 332.29 552.542 332.973 552.488 333.684C552.488 333.848 552.46 334.012 552.406 334.176C552.406 334.34 552.378 334.504 552.324 334.668C552.105 336.035 551.476 337.292 550.438 338.44C549.399 339.533 548.333 340.435 547.24 341.146C545.162 342.349 543.167 343.223 541.254 343.77C539.34 344.317 537.044 344.563 534.366 344.508C534.147 344.508 533.956 344.508 533.792 344.508C533.628 344.508 533.464 344.481 533.3 344.426C532.48 344.317 531.714 344.016 531.004 343.524C530.348 343.032 529.637 342.294 528.872 341.31C528.216 340.381 527.86 339.397 527.806 338.358ZM535.432 336.964C536.361 336.855 537.072 336.745 537.564 336.636C538.11 336.527 538.794 336.363 539.614 336.144C540.215 335.816 540.844 335.515 541.5 335.242C542.156 334.914 542.812 334.531 543.468 334.094C544.178 333.602 544.78 332.973 545.272 332.208C545.49 331.771 545.654 331.361 545.764 330.978C545.873 330.541 545.736 330.213 545.354 329.994C544.807 329.557 544.288 329.256 543.796 329.092C543.358 328.873 542.839 328.764 542.238 328.764C542.074 328.819 541.882 328.819 541.664 328.764C541.5 328.655 541.336 328.573 541.172 328.518C540.406 328.299 539.778 328.272 539.286 328.436C538.848 328.6 538.411 328.737 537.974 328.846C538.028 329.065 538.001 329.256 537.892 329.42C537.837 329.584 537.7 329.83 537.482 330.158C537.482 330.267 537.345 330.459 537.072 330.732C536.908 331.005 536.744 331.415 536.58 331.962C536.47 332.454 536.334 332.973 536.17 333.52C536.06 334.067 535.924 334.586 535.76 335.078C535.705 335.297 535.623 335.57 535.514 335.898C535.404 336.171 535.377 336.527 535.432 336.964ZM561.643 340.736C560.495 341.119 559.539 341.31 558.773 341.31C558.008 341.255 557.161 340.9 556.231 340.244C555.138 339.151 554.755 338.057 555.083 336.964C555.466 335.816 556.45 334.695 558.035 333.602C559.129 332.946 559.921 332.618 560.413 332.618C560.96 332.563 561.753 332.755 562.791 333.192C564.65 334.34 565.47 335.625 565.251 337.046C565.033 338.413 563.83 339.643 561.643 340.736ZM577.899 340.736C576.751 341.119 575.795 341.31 575.029 341.31C574.264 341.255 573.417 340.9 572.487 340.244C571.394 339.151 571.011 338.057 571.339 336.964C571.722 335.816 572.706 334.695 574.291 333.602C575.385 332.946 576.177 332.618 576.669 332.618C577.216 332.563 578.009 332.755 579.047 333.192C580.906 334.34 581.726 335.625 581.507 337.046C581.289 338.413 580.086 339.643 577.899 340.736ZM594.155 340.736C593.007 341.119 592.05 341.31 591.285 341.31C590.52 341.255 589.672 340.9 588.743 340.244C587.65 339.151 587.267 338.057 587.595 336.964C587.978 335.816 588.962 334.695 590.547 333.602C591.64 332.946 592.433 332.618 592.925 332.618C593.472 332.563 594.264 332.755 595.303 333.192C597.162 334.34 597.982 335.625 597.763 337.046C597.544 338.413 596.342 339.643 594.155 340.736Z" fill="black"/>
</svg>
