<svg width="293" height="219" viewBox="0 0 293 219" fill="none" xmlns="http://www.w3.org/2000/svg">
<path d="M72.3182 22.8534C126.691 4.40007 156.028 2.0934 163.9 3.24673C226.567 0.478789 262.97 25.5445 273.338 38.4233C301.446 73.4847 287.737 110.699 277.369 124.923C270.918 140.147 220.539 155.102 196.155 160.677L219.195 212L157.564 170.48L80.958 179.707C22.4378 179.245 4.7358 130.306 3.19984 105.893C-0.486478 64.3733 47.7428 33.2334 72.3182 22.8534Z" fill="white" stroke="black" stroke-width="5"/>
<path d="M136.16 72.4748C135.921 72.3632 135.77 72.1019 135.706 71.6909C135.673 71.4732 135.677 71.2621 135.719 71.0575C135.762 70.8529 135.835 70.6929 135.941 70.5775C135.77 70.4306 135.657 70.1758 135.601 69.8131C135.548 69.4746 135.566 69.1128 135.655 68.7277C135.743 68.3427 135.838 68.0804 135.939 67.9409C135.839 67.9316 135.744 67.8721 135.653 67.7623C135.562 67.6526 135.502 67.501 135.472 67.3076C135.449 67.1625 135.464 66.9374 135.515 66.6324C135.205 66.3832 135.006 65.9684 134.916 65.3881C134.826 64.8077 134.868 64.2813 135.041 63.8088C134.757 63.4071 134.585 63.0128 134.526 62.6259C134.466 62.239 134.536 61.894 134.735 61.5907C134.631 61.5573 134.526 61.4373 134.421 61.2308C134.311 61.0002 134.237 60.764 134.2 60.5222C134.118 59.9902 134.232 59.6135 134.543 59.3921C134.614 58.7374 134.987 58.3578 135.661 58.2535C135.95 58.2088 136.286 58.2311 136.669 58.3203C136.876 58.0654 137.117 57.8673 137.391 57.7259C137.685 57.5565 137.968 57.4756 138.24 57.483C138.464 57.176 138.829 56.9834 139.334 56.9052C139.671 56.8531 139.975 56.9051 140.246 57.0613C140.431 56.9831 140.68 56.9198 140.993 56.8714C141.282 56.8267 141.544 56.8481 141.779 56.9354C142.014 57.0228 142.313 57.1995 142.674 57.4654C142.743 57.43 142.837 57.403 142.958 57.3844C143.415 57.3137 143.804 57.4391 144.125 57.7609C144.242 57.7181 144.384 57.6836 144.553 57.6576C144.986 57.5905 145.375 57.716 145.72 58.034C146.024 58.086 146.269 58.2339 146.454 58.4775C146.66 58.6932 146.765 58.9741 146.77 59.3201C147.152 59.5581 147.376 59.8947 147.444 60.33C147.47 60.4992 147.462 60.6862 147.419 60.8908C147.713 61.1921 147.895 61.5724 147.966 62.0319C148.033 62.4671 147.953 62.8261 147.726 63.1089C147.788 63.6688 147.49 64.1357 146.833 64.5097C147.337 64.5803 147.781 64.8211 148.165 65.2321C148.549 65.6431 148.754 66.0942 148.781 66.5852C149.021 67.0186 149.176 67.465 149.247 67.9244C149.344 68.5531 149.28 69.0953 149.055 69.5511C149.15 70.0068 149.083 70.4504 148.854 70.882C148.65 71.3099 148.313 71.6838 147.845 72.0038C147.79 72.2847 147.643 72.5303 147.404 72.7405C147.186 72.9229 146.943 73.0224 146.674 73.0392C146.282 73.3722 145.845 73.576 145.364 73.6505C145.219 73.6728 145.109 73.6775 145.033 73.6645C144.821 74.044 144.486 74.2691 144.028 74.3399C143.86 74.366 143.698 74.3539 143.542 74.3037C143.133 74.6889 142.7 74.9168 142.243 74.9876C141.858 75.0472 141.524 74.9626 141.242 74.7339C141.154 74.7971 141.025 74.8418 140.856 74.8679C140.798 75.1246 140.659 75.3441 140.441 75.5264C140.247 75.705 140.017 75.8148 139.752 75.8558C139.487 75.8967 139.236 75.8615 138.996 75.7499C138.635 75.8058 138.316 75.7314 138.038 75.5269C137.759 75.3223 137.568 75.0424 137.464 74.6871C137.173 74.5588 136.891 74.3301 136.618 74.0009C136.366 73.6438 136.212 73.2839 136.156 72.9212C136.141 72.8245 136.142 72.6757 136.16 72.4748ZM138.625 60.2089C138.564 60.2926 138.376 60.4331 138.062 60.6303C137.747 60.8275 137.568 60.9419 137.523 60.9736C137.602 61.1596 137.648 61.3009 137.663 61.3976C137.723 61.7845 137.641 62.1315 137.417 62.4384C137.616 62.6058 137.745 62.8829 137.805 63.2698C137.861 63.6325 137.835 64.0203 137.726 64.4333C137.845 64.5635 137.939 64.7718 138.008 65.0582C138.097 65.3168 138.175 65.5028 138.242 65.6162C138.388 65.4451 138.666 65.3278 139.075 65.2645C139.34 65.2235 139.6 65.2328 139.856 65.2923C140.266 65.0801 140.652 64.9461 141.013 64.8903L141.452 64.8595C141.954 64.4353 142.529 64.1729 143.179 64.0724L143.546 64.0528C143.736 63.5282 144.254 62.9775 145.102 62.4007C144.824 62.1961 144.659 61.9246 144.606 61.5861C144.58 61.4168 144.59 61.242 144.636 61.0615C144.437 60.8941 144.311 60.7156 144.257 60.5259C144.024 60.6115 143.78 60.6246 143.524 60.5651C143.288 60.4777 143.108 60.3447 142.981 60.1662C142.889 60.2053 142.758 60.2378 142.59 60.2639C142.277 60.3123 141.977 60.2845 141.69 60.1804C141.402 60.0763 141.192 59.9108 141.058 59.6839C140.99 59.7192 140.883 59.7481 140.739 59.7704C140.546 59.8002 140.36 59.7919 140.18 59.7454C139.805 60.0264 139.286 60.1808 138.625 60.2089ZM144.143 71.0168C144.359 70.9833 144.494 70.9749 144.546 70.9916C144.838 70.6493 145.182 70.4847 145.578 70.4976C145.833 69.9135 146.059 69.6186 146.255 69.613C146.087 69.1685 146.159 68.6746 146.469 68.1314C146.306 68.0328 146.173 67.8924 146.071 67.7102C145.969 67.5279 145.927 67.3363 145.945 67.1354L145.801 67.1578C145.536 67.1987 145.213 67.1002 144.831 66.8622C144.738 66.9013 144.572 66.9394 144.331 66.9767C144.018 67.0251 143.772 67.0261 143.592 66.9796C143.442 67.1266 143.229 67.2587 142.951 67.3759C142.697 67.4894 142.536 67.5639 142.468 67.5992C142.105 67.8039 141.719 67.9379 141.31 68.0012C141.165 68.0236 140.945 68.0329 140.649 68.0293C140.233 68.366 139.772 68.5735 139.266 68.6517C139.001 68.6927 138.791 68.6881 138.635 68.6379C138.547 68.7011 138.498 68.783 138.489 68.8834C138.479 68.9839 138.467 69.0602 138.45 69.1122C138.76 69.3614 138.945 69.6795 139.004 70.0664C139.068 70.4774 138.952 70.842 138.656 71.1602C138.854 71.3275 138.98 71.5805 139.032 71.919C139.058 72.0883 139.05 72.2752 139.008 72.4798L139.15 72.6807C139.348 72.5263 139.608 72.3746 139.93 72.2258C140.252 72.0769 140.57 71.9782 140.883 71.9298C141.268 71.8702 141.594 71.9064 141.861 72.0385C142.066 71.6106 142.397 71.3613 142.854 71.2905C143.071 71.257 143.271 71.2756 143.454 71.3462C143.584 71.2271 143.729 71.1304 143.89 71.0559L144.143 71.0168Z" fill="black"/>
<path d="M39.3284 133.659C39.5729 133.646 39.8082 133.733 40.0345 133.921C40.2607 134.109 40.4426 134.328 40.58 134.579C40.7415 134.827 40.8076 135.015 40.7781 135.143C41.1119 135.388 41.3125 135.729 41.3798 136.164C41.4359 136.527 41.3661 136.872 41.1703 137.199C40.9948 137.499 40.7302 137.701 40.3766 137.805C39.9471 137.896 39.4737 137.784 38.9564 137.468C38.4392 137.151 38.1228 136.779 38.0073 136.352C37.6923 136.227 37.3213 135.901 36.8945 135.373C36.4918 134.841 36.2624 134.393 36.2062 134.031C35.8837 133.858 35.5508 133.538 35.2074 133.071C34.8603 132.58 34.7124 132.182 34.7638 131.877C34.3856 131.663 34.0685 131.365 33.8123 130.984C33.5764 130.575 33.4248 130.153 33.3575 129.718C32.9889 129.725 32.6506 129.53 32.3425 129.132C32.0585 128.73 31.8847 128.324 31.8211 127.913C31.5858 127.825 31.3772 127.672 31.1953 127.452C31.0135 127.233 30.9038 127.002 30.8664 126.76C30.844 126.615 30.8697 126.463 30.9435 126.303C30.7252 126.485 30.4837 126.597 30.2189 126.638C29.9541 126.679 29.6559 126.663 29.3242 126.591C29.0022 126.739 28.6486 126.844 28.2634 126.903C27.9264 126.955 27.6884 126.93 27.5493 126.828C27.1882 126.884 26.8946 126.818 26.6683 126.63C26.4661 126.439 26.3389 126.174 26.2865 125.835C26.2378 125.521 26.2652 125.219 26.3684 124.931C26.4958 124.639 26.6576 124.49 26.8539 124.484C26.8946 124.429 27.0075 124.362 27.1926 124.284C27.3777 124.205 27.5785 124.15 27.7952 124.116C28.1804 124.056 28.4647 124.062 28.6481 124.133C29.0221 124 29.3655 123.91 29.6784 123.862C30.0155 123.81 30.2276 123.826 30.3147 123.912C30.5459 123.653 30.7938 123.503 31.0586 123.462C31.2512 123.433 31.4114 123.433 31.5392 123.462C31.6537 123.247 31.9025 123.022 32.2855 122.79C32.6889 122.529 33.0286 122.415 33.3046 122.446C33.3672 122.214 33.5152 122.055 33.7484 121.969C33.9779 121.859 34.2047 121.812 34.4289 121.827C34.3952 121.609 34.4337 121.38 34.5445 121.14C34.6553 120.9 34.805 120.753 34.9939 120.7C34.8452 120.376 34.7484 120.069 34.7035 119.779C34.6512 119.44 34.6581 119.167 34.7245 118.959C34.5614 118.86 34.4287 118.72 34.3266 118.537C34.2447 118.327 34.2111 118.109 34.2255 117.884C33.8714 117.667 33.6275 117.445 33.4938 117.218C33.2012 117.238 32.926 117.132 32.6682 116.9C32.3628 116.997 32.1044 116.999 31.8931 116.908C31.6818 116.817 31.4788 116.7 31.2841 116.557C31.0894 116.414 30.9365 116.301 30.8252 116.219C30.4812 116.545 30.0565 116.747 29.5509 116.825C29.0213 116.907 28.5878 116.813 28.2503 116.543C28.0876 116.767 27.7776 116.914 27.3203 116.984C26.887 117.052 26.523 117.009 26.2282 116.856C26.0656 117.08 25.7796 117.223 25.3704 117.286C24.9612 117.35 24.625 117.327 24.3618 117.219C24.5383 117.563 24.664 117.977 24.7388 118.461C24.8024 118.872 24.7965 119.232 24.721 119.541C24.9809 119.946 25.1464 120.379 25.2175 120.838C25.2886 121.297 25.2447 121.651 25.0858 121.898C25.2751 122.166 25.3941 122.457 25.4428 122.772C25.4951 123.11 25.4419 123.403 25.283 123.651C25.5574 123.831 25.7357 124.187 25.818 124.719C25.8891 125.178 25.8813 125.526 25.7946 125.763C25.9412 125.913 26.0805 126.176 26.2126 126.552C26.3447 126.928 26.4406 127.309 26.5005 127.696C26.5529 128.035 26.5579 128.306 26.5156 128.511C26.5787 128.6 26.655 128.774 26.7443 129.032C26.8298 129.267 26.8932 129.517 26.9343 129.783C27.0166 130.315 27.0005 130.689 26.886 130.905C27.1941 131.303 27.3818 131.719 27.4492 132.154C27.5015 132.493 27.4558 132.834 27.3118 133.178C27.6793 133.642 27.9172 134.224 28.0257 134.925C28.1193 135.529 28.0663 135.983 27.8667 136.287C28.1063 136.72 28.2654 137.191 28.3439 137.698C28.4337 138.279 28.3641 138.785 28.1351 139.216C27.9024 139.624 27.461 139.878 26.8111 139.978C26.4259 140.038 26.0812 139.881 25.7769 139.507C25.4966 139.129 25.3153 138.675 25.233 138.143C25.1619 137.683 25.166 137.311 25.2452 137.026C24.9815 136.597 24.8067 136.104 24.7206 135.548C24.6458 135.064 24.6581 134.666 24.7577 134.354C24.4603 133.706 24.2724 133.129 24.1938 132.621C24.1152 132.113 24.1517 131.711 24.3031 131.416C24.0955 131.349 23.9147 131.216 23.7607 131.017C23.627 130.79 23.5396 130.543 23.4984 130.277C23.4236 129.794 23.498 129.399 23.7216 129.092C23.6141 129.034 23.5112 128.926 23.4128 128.768C23.3347 128.582 23.2807 128.392 23.2507 128.199C23.1759 127.715 23.2209 127.448 23.3856 127.398C23.3022 127.337 23.214 127.165 23.1209 126.882C23.0279 126.599 22.957 126.301 22.9084 125.986C22.841 125.551 22.8248 125.207 22.8596 124.954C22.598 124.697 22.4298 124.327 22.355 123.844C22.2951 123.457 22.3187 123.131 22.4257 122.867C22.2476 122.672 22.1305 122.393 22.0744 122.03C22.0183 121.667 22.0761 121.324 22.2478 121C22.0398 120.612 21.9133 120.272 21.8684 119.982C21.8161 119.644 21.8814 119.349 22.0643 119.098C21.8975 118.975 21.7833 118.794 21.7218 118.556C21.6566 118.294 21.5977 117.994 21.5454 117.655C21.1731 117.639 20.87 117.512 20.6363 117.276C20.4026 117.04 20.2595 116.752 20.2071 116.414C20.1435 116.003 20.2217 115.632 20.4416 115.301C20.6818 114.941 21.0325 114.739 21.4936 114.692C21.4508 114.575 21.5664 114.446 21.8403 114.304C22.1382 114.159 22.4557 114.06 22.7927 114.008C23.3223 113.926 23.692 114.005 23.9016 114.245C24.0386 114.174 24.2274 114.121 24.4681 114.083C24.8051 114.031 25.0413 114.044 25.1766 114.122C25.4393 113.908 25.7873 113.768 26.2206 113.701C26.7261 113.622 27.104 113.675 27.3544 113.86C27.8134 113.64 28.1993 113.506 28.5123 113.458C28.9696 113.387 29.3374 113.454 29.6155 113.658C29.9338 113.485 30.3457 113.36 30.8513 113.281C31.2364 113.222 31.5828 113.23 31.8903 113.306C32.1942 113.358 32.4111 113.486 32.541 113.688C32.6095 113.653 32.716 113.624 32.8604 113.602C33.1733 113.553 33.4689 113.631 33.747 113.836C34.0455 114.013 34.2691 114.263 34.4177 114.586C34.8863 114.588 35.2487 114.78 35.5049 115.161C35.9457 115.142 36.2765 115.289 36.4974 115.602C36.7386 115.886 36.8929 116.246 36.9602 116.681C37.3074 117.172 37.5164 117.648 37.5875 118.107C37.6437 118.47 37.6062 118.785 37.4751 119.053C37.6163 119.328 37.7093 119.611 37.7542 119.901C37.8216 120.336 37.737 120.745 37.5005 121.129C37.5604 121.516 37.5119 121.919 37.3551 122.34C37.1946 122.736 36.9413 123.01 36.5952 123.163C36.5475 123.492 36.4183 123.772 36.2075 124.003C35.9967 124.233 35.7228 124.375 35.3858 124.427C35.2954 124.639 35.1493 124.81 34.9476 124.941C34.7422 125.047 34.4988 125.146 34.2174 125.239C33.9601 125.329 33.7509 125.41 33.5899 125.485C33.7381 125.487 33.879 125.601 34.0127 125.828C34.1427 126.031 34.1772 126.174 34.1162 126.258C34.3162 126.276 34.5425 126.464 34.7949 126.821C35.0436 127.154 35.1525 127.459 35.1214 127.736C35.4974 127.777 35.8098 127.964 36.0585 128.297C36.3313 128.626 36.5051 129.032 36.5799 129.516C36.9137 129.762 37.2105 130.087 37.4705 130.492C37.7304 130.898 37.8782 131.296 37.914 131.687C38.3291 131.82 38.6629 132.066 38.9153 132.423C39.1678 132.78 39.3055 133.192 39.3284 133.659Z" fill="black"/>
<path d="M57.1179 120.767C57.4014 120.847 57.687 121.1 57.9748 121.526C58.2866 121.948 58.4799 122.401 58.5547 122.885C58.6819 123.707 58.4069 124.319 57.7296 124.721C57.5894 125.089 57.3658 125.396 57.0587 125.642C56.7757 125.884 56.4416 126.034 56.0565 126.094C55.7435 126.142 55.4073 126.12 55.0479 126.027C54.874 126.178 54.626 126.328 54.304 126.476C53.9819 126.625 53.6524 126.726 53.3154 126.778C52.7377 126.867 52.3218 126.808 52.0677 126.6C51.8569 126.83 51.4867 126.987 50.9571 127.069C50.572 127.128 50.2117 127.11 49.8763 127.013C49.5655 127.234 49.1934 127.379 48.7601 127.446C48.3509 127.509 48.0046 127.501 47.7211 127.421C47.514 127.676 47.0374 127.861 46.2911 127.976C45.8819 128.04 45.5994 128.046 45.4438 127.996C45.6245 128.686 45.6087 129.221 45.3962 129.6C45.9247 129.989 46.182 130.457 46.168 131.004C46.1958 131.024 46.3432 131.1 46.6101 131.232C46.877 131.364 47.0885 131.616 47.2447 131.988C47.5095 131.947 47.767 132.019 48.0173 132.203C48.2917 132.383 48.4698 132.579 48.5517 132.789C48.633 132.677 48.8181 132.599 49.1069 132.554C49.3236 132.521 49.5218 132.527 49.7015 132.574C49.8812 132.62 49.9906 132.69 50.0297 132.783C50.1832 132.66 50.3683 132.582 50.585 132.549C50.8979 132.5 51.2036 132.564 51.5021 132.741C51.7353 132.655 51.9121 132.603 52.0325 132.585C52.2732 132.547 52.4834 132.552 52.6631 132.598C52.7054 132.394 52.8699 132.183 53.1567 131.965C53.4397 131.723 53.7516 131.588 54.0923 131.56C54.2475 131.289 54.4824 131.054 54.7969 130.857C55.1115 130.66 55.4373 130.535 55.7743 130.483C56.4242 130.382 56.9348 130.576 57.306 131.063C57.4322 131.241 57.5159 131.464 57.557 131.73C57.6468 132.31 57.4531 132.81 56.9759 133.231C56.8668 133.322 56.6828 133.487 56.4238 133.725C56.1611 133.939 55.9169 134.113 55.6912 134.247C55.4654 134.381 55.2562 134.463 55.0637 134.492C54.7699 134.984 54.3101 135.278 53.6842 135.374C53.3954 135.419 53.175 135.428 53.0231 135.402C52.7716 135.689 52.3691 135.875 51.8154 135.961C51.3099 136.039 50.9459 135.996 50.7234 135.832C50.5661 135.931 50.4032 135.993 50.2347 136.02C49.8977 136.072 49.566 135.999 49.2397 135.802C48.0233 136.065 47.1329 135.806 46.5687 135.027C46.2317 135.079 45.8147 134.933 45.3178 134.589C44.8412 134.217 44.5545 133.878 44.4578 133.571C43.8704 133.439 43.4596 133.094 43.2254 132.536C43.1714 132.346 43.1433 132.165 43.1412 131.992C43.0412 131.983 42.942 131.899 42.8436 131.741C42.7655 131.555 42.7115 131.365 42.6816 131.172C42.6591 131.027 42.6562 130.928 42.6728 130.876C42.3904 130.325 42.2118 129.808 42.137 129.325C42.0621 128.841 42.0911 128.391 42.2238 127.974C42.0382 127.731 41.9211 127.452 41.8724 127.137C41.8126 126.75 41.837 126.35 41.9456 125.938C42.0543 125.525 42.1714 125.246 42.2972 125.103C42.2303 124.99 42.2346 124.779 42.3101 124.47C42.3818 124.137 42.4952 123.835 42.6504 123.563C42.8259 123.263 43.0182 123.073 43.2274 122.991L43.1296 122.597C42.9836 121.654 43.3975 120.984 44.3711 120.586C44.3075 120.174 44.4865 119.738 44.9081 119.277C45.3297 118.815 45.7247 118.581 46.0933 118.574C46.1003 118.3 46.2972 118.059 46.6839 117.851C47.0911 117.614 47.4085 117.516 47.6364 117.555C47.7804 117.211 48.1318 116.933 48.6909 116.723C48.8701 116.448 49.1643 116.279 49.5736 116.215C49.6939 116.197 49.8541 116.197 50.0542 116.215L50.3736 116.129C50.6624 116.084 50.9125 116.107 51.1238 116.198C51.3554 116.261 51.4704 116.367 51.4688 116.516C52.0058 116.483 52.4699 116.535 52.8609 116.672C53.2519 116.81 53.5228 117.127 53.6736 117.623C53.9753 117.503 54.3856 117.526 54.9045 117.693C55.4196 117.836 55.8831 118.123 56.2949 118.555C56.7271 118.958 56.9918 119.475 57.0891 120.103C57.1115 120.248 57.1211 120.47 57.1179 120.767ZM52.1748 123.946C52.3631 123.57 52.9267 123.31 53.8655 123.165C54.3951 123.083 54.8118 123.068 55.1156 123.12C54.9081 123.053 54.6957 122.875 54.4786 122.587C54.2818 122.271 54.1609 121.968 54.116 121.677C54.0861 121.484 54.0998 121.333 54.157 121.225C53.8237 121.302 53.5218 121.262 53.2511 121.106C53.0008 120.922 52.7588 120.711 52.525 120.475C52.3154 120.235 52.153 120.062 52.038 119.956C51.9289 120.047 51.6668 120.026 51.2517 119.892C50.857 119.731 50.6307 119.543 50.573 119.329C50.4954 119.465 50.3076 119.605 50.0096 119.75C49.7079 119.871 49.4709 119.933 49.2987 119.935C49.2452 120.067 49.0954 120.214 48.8493 120.375C48.6032 120.537 48.332 120.616 48.0356 120.613C47.866 121.109 47.6712 121.523 47.4513 121.854C47.2314 122.186 46.9281 122.455 46.5413 122.664C46.5456 123.01 46.4471 123.409 46.2459 123.861C46.0688 124.309 45.8647 124.663 45.6335 124.921L45.7836 124.935C46.0832 124.641 46.5218 124.45 47.0996 124.36C47.4366 124.308 47.7551 124.296 48.0552 124.324C48.3794 124.348 48.6091 124.399 48.7445 124.477C49.2661 124.025 49.8759 123.745 50.574 123.637C51.1518 123.547 51.6853 123.651 52.1748 123.946Z" fill="black"/>
<path d="M74.7603 128.176C74.8699 128.407 74.9434 128.643 74.9808 128.885C75.0557 129.369 74.9136 129.725 74.5546 129.954C74.6589 130.309 74.5706 130.694 74.2897 131.109C74.0088 131.524 73.7239 131.754 73.4351 131.798C73.3484 132.035 73.0191 132.296 72.4472 132.583C71.8754 132.869 71.3367 133.051 70.8312 133.13C70.4701 133.186 70.182 133.156 69.967 133.041C69.6562 133.262 69.1878 133.421 68.5619 133.518C68.0083 133.604 67.4897 133.597 67.0061 133.499C66.5466 133.397 66.2425 133.184 66.0939 132.86C65.6236 133.007 65.0596 132.946 64.4016 132.676C63.7678 132.403 63.3367 132.086 63.1083 131.725C62.6563 131.671 62.2597 131.497 61.9184 131.203C61.6012 130.906 61.3951 130.529 61.2999 130.074C61.1218 129.878 61.0159 129.672 60.9822 129.454C60.9299 129.116 60.9914 128.797 61.1669 128.497C61.3665 128.194 61.6227 128.018 61.9357 127.97C62.2486 127.921 62.5794 128.068 62.9282 128.41C63.354 128.295 63.7616 128.38 64.151 128.667C64.5644 128.949 64.7974 129.26 64.8498 129.599C64.922 129.587 65.1063 129.584 65.4026 129.587C65.7193 129.563 66.0092 129.605 66.2724 129.713C66.5356 129.82 66.7359 130 66.8733 130.251C67.3066 130.184 67.7372 130.179 68.1652 130.237C68.6134 130.267 68.8849 130.348 68.9796 130.482C69.1534 130.332 69.4153 130.192 69.7652 130.064C70.1353 129.907 70.4528 129.809 70.7176 129.768C70.7749 129.66 70.9405 129.535 71.2144 129.394C71.4883 129.252 71.7196 129.155 71.9085 129.101C71.7619 128.95 71.6624 128.705 71.6101 128.367C71.5315 127.859 71.6318 127.472 71.9111 127.206C71.6073 127.154 71.3561 127.044 71.1577 126.877C70.9555 126.685 70.8459 126.455 70.8288 126.185C70.6437 126.263 70.503 126.31 70.4067 126.325C69.9494 126.395 69.5482 126.272 69.2032 125.954C68.7292 126.077 68.2309 126.042 67.7083 125.851C67.2098 125.656 66.8185 125.357 66.5346 124.955C66.3773 125.054 66.2023 125.118 66.0098 125.148C65.6005 125.211 65.1485 125.157 64.6537 124.986C64.1793 124.788 63.8632 124.576 63.7054 124.353C63.3833 124.502 62.9693 124.455 62.4633 124.211C61.9573 123.968 61.6744 123.652 61.6145 123.266C61.3032 123.165 61.0371 122.959 60.8162 122.646C60.5916 122.31 60.4568 121.996 60.4119 121.706C60.3782 121.488 60.4039 121.336 60.489 121.248C60.3312 121.025 60.2336 120.793 60.1962 120.551C60.1289 120.116 60.2153 119.719 60.4555 119.36C60.3422 119.105 60.2686 118.869 60.235 118.651C60.1713 118.24 60.2032 117.888 60.3306 117.596C60.4782 117.276 60.6882 117.12 60.9605 117.127C60.8525 116.748 60.8844 116.396 61.0561 116.073C61.2519 115.745 61.509 115.495 61.8273 115.322C62.1659 115.121 62.4714 115.024 62.7437 115.032C62.8544 114.792 63.0208 114.593 63.2428 114.434C63.4649 114.276 63.6962 114.179 63.9369 114.141C64.3462 114.078 64.6538 114.154 64.8597 114.37C64.865 114.245 64.9343 114.136 65.0675 114.041C65.2248 113.942 65.4118 113.876 65.6284 113.842C65.821 113.813 66.0192 113.819 66.223 113.862C66.4268 113.905 66.5843 113.967 66.6956 114.049C66.8176 113.881 67.0591 113.77 67.4202 113.714C67.7091 113.669 68.0073 113.685 68.3148 113.761C68.6187 113.813 68.8337 113.928 68.9599 114.107C69.0931 114.012 69.244 113.952 69.4125 113.925C69.7014 113.881 69.983 113.949 70.2574 114.129C70.5521 114.281 70.772 114.507 70.9169 114.807C71.2705 114.703 71.6623 114.766 72.0924 114.996C72.5224 115.227 72.7117 115.495 72.6604 115.8C73.3664 116.062 73.7681 116.507 73.8654 117.136C73.9252 117.523 73.8452 117.882 73.6253 118.213C73.4054 118.544 73.0909 118.741 72.6816 118.805C72.3168 118.836 72.0009 118.786 71.734 118.654C71.4671 118.522 71.2909 118.339 71.2053 118.105C70.8849 118.105 70.5653 118.03 70.2465 117.882C69.948 117.705 69.7606 117.449 69.6841 117.115C69.2342 117.234 68.8777 117.239 68.6145 117.131C68.3754 117.02 68.1473 116.82 67.9302 116.532C67.7804 116.679 67.5731 116.773 67.3083 116.814C67.0435 116.855 66.7434 116.827 66.408 116.73C66.2619 116.901 66.064 117.056 65.8142 117.193C65.5884 117.327 65.3552 117.413 65.1145 117.45C64.8497 117.491 64.6116 117.466 64.4003 117.375C64.4934 117.658 64.4567 117.899 64.2903 118.098C64.1239 118.297 63.8685 118.398 63.524 118.402C63.6224 118.56 63.6866 118.736 63.7165 118.929C63.7838 119.364 63.6474 119.757 63.3071 120.107C63.5906 120.187 63.815 120.362 63.9803 120.634C64.1418 120.881 64.2311 121.14 64.2482 121.41L64.5314 121.329C65.2536 121.217 65.7465 121.376 66.0102 121.805L66.2934 121.724C66.6786 121.665 67.0546 121.706 67.4216 121.847C67.8126 121.985 68.1279 122.27 68.3675 122.703C68.7489 122.62 69.1295 122.61 69.5093 122.675C69.8854 122.716 70.168 122.87 70.3574 123.138C70.5387 123.036 70.7137 122.972 70.8822 122.946C71.2914 122.882 71.6712 122.947 72.0215 123.141C72.396 123.33 72.6195 123.581 72.6922 123.891C72.9089 123.858 73.1202 123.949 73.3261 124.165C73.5561 124.377 73.6713 124.643 73.6718 124.965C73.8366 124.915 74.008 124.987 74.1861 125.183C74.3605 125.354 74.4683 125.572 74.5094 125.838C74.5319 125.983 74.5163 126.122 74.4628 126.254C74.8373 126.444 75.0563 126.744 75.1199 127.155C75.1536 127.373 75.1353 127.574 75.0652 127.758C75.0192 127.938 74.9176 128.078 74.7603 128.176Z" fill="black"/>
<path d="M88.6345 127.218C88.6399 127.094 88.687 127 88.7758 126.936C88.8887 126.869 89.0154 126.813 89.1561 126.766C89.2487 126.727 89.3672 126.696 89.5116 126.674C89.9208 126.611 90.2701 126.717 90.5595 126.995C90.8692 127.244 91.0558 127.574 91.1194 127.985C91.1681 128.299 91.1269 128.59 90.9958 128.858C90.8609 129.102 90.6325 129.298 90.3104 129.447C89.8723 129.961 89.2985 130.235 88.5892 130.271C88.4228 130.47 88.1832 130.593 87.8702 130.642C87.4369 130.709 87.0154 130.613 86.6057 130.355C86.3575 130.344 86.0499 130.267 85.683 130.126C85.3123 129.961 85.1138 129.793 85.0876 129.624C84.7432 129.628 84.3642 129.488 83.9507 129.206C83.5613 128.919 83.3774 128.527 83.3988 128.028C83.0891 127.779 82.8859 127.501 82.7891 127.194C82.4778 127.094 82.2275 126.91 82.0381 126.642C81.8729 126.37 81.79 126.074 81.7895 125.752C81.4317 125.51 81.2078 125.099 81.1181 124.519C81.0844 124.301 81.0654 124.019 81.0612 123.673C80.683 123.459 80.4584 123.123 80.3873 122.663C80.3237 122.252 80.4037 121.893 80.6274 121.586C80.2936 121.341 80.0912 120.988 80.0201 120.529C79.9939 120.36 80.0102 120.147 80.0691 119.89C79.8798 119.622 79.7627 119.343 79.7178 119.053C79.6579 118.666 79.7194 118.347 79.9024 118.096C79.7131 117.828 79.5922 117.525 79.5399 117.187C79.495 116.896 79.4918 116.637 79.5303 116.408C79.5892 116.151 79.6695 115.953 79.7711 115.814C79.4577 115.54 79.2729 115.222 79.2168 114.86C79.1868 114.666 79.1912 114.455 79.2297 114.226C79.0243 114.332 78.7892 114.406 78.5244 114.447C78.1151 114.51 77.8011 114.472 77.5824 114.333C77.3047 114.45 77.0576 114.525 76.8409 114.559C76.4076 114.626 75.9417 114.562 75.4432 114.366C75.2249 114.549 74.9834 114.66 74.7186 114.701C74.3334 114.761 73.9962 114.652 73.7068 114.375C73.3896 114.078 73.1992 113.723 73.1356 113.312C73.0795 112.949 73.1531 112.629 73.3564 112.35C73.5319 112.05 73.8344 111.855 74.264 111.763C74.5342 111.598 74.7896 111.496 75.0303 111.459C75.5118 111.385 75.9517 111.44 76.3502 111.626C76.6445 111.457 76.9842 111.343 77.3693 111.283C77.7063 111.231 77.9805 111.25 78.1918 111.341C78.2009 111.241 78.2841 111.141 78.4413 111.043C78.619 110.916 78.7698 110.856 78.8939 110.861C78.7639 110.659 78.6709 110.376 78.6148 110.013C78.5474 109.578 78.6082 109.333 78.797 109.279C78.5911 109.064 78.4526 108.726 78.3815 108.267C78.2842 107.638 78.3734 107.178 78.6489 106.888C78.55 106.408 78.5901 106.031 78.7694 105.755C78.9486 105.48 79.2067 105.316 79.5437 105.264C79.8808 105.212 80.2124 105.285 80.5387 105.482C80.8612 105.655 81.0506 105.922 81.1067 106.285C81.1441 106.527 81.0908 106.82 80.9469 107.164C81.2213 107.344 81.3978 107.689 81.4763 108.196C81.51 108.414 81.5095 108.649 81.4747 108.902C81.4602 109.127 81.4141 109.308 81.3366 109.444C81.496 109.518 81.5981 109.7 81.643 109.99C81.6804 110.232 81.6708 110.568 81.614 110.998C81.8194 110.892 82.0425 110.82 82.2832 110.783C82.6443 110.727 82.9342 110.769 83.153 110.908C83.375 110.75 83.5582 110.66 83.7027 110.637C83.9434 110.6 84.1509 110.667 84.3253 110.838C84.4751 110.691 84.6704 110.599 84.9111 110.562C85.2481 110.51 85.5335 110.602 85.7672 110.838C86.2246 110.767 86.5784 110.824 86.8288 111.008C87.0994 111.164 87.2591 111.399 87.3077 111.714C87.3676 112.1 87.2691 112.499 87.0123 112.911C86.7758 113.294 86.465 113.515 86.0798 113.575C85.8631 113.608 85.6353 113.569 85.3962 113.458C85.1854 113.688 84.8874 113.834 84.5023 113.893C84.1412 113.949 83.8272 113.911 83.5603 113.779C83.266 113.948 83.0467 114.044 82.9023 114.066C82.7097 114.096 82.4679 114.047 82.1769 113.919C82.4385 114.175 82.5954 114.473 82.6478 114.812C82.7039 115.174 82.61 115.523 82.366 115.858C82.6276 116.115 82.792 116.46 82.8594 116.896C82.9192 117.283 82.867 117.662 82.7028 118.034C83.0216 118.183 83.2147 118.475 83.282 118.91C83.3381 119.273 83.2784 119.604 83.1029 119.903C83.3848 120.132 83.5781 120.585 83.6829 121.262C83.7278 121.552 83.7291 121.8 83.6868 122.004C83.8927 122.22 84.0163 122.461 84.0574 122.727C84.0799 122.872 84.0737 123.071 84.0389 123.324C84.0244 123.549 84.0164 123.736 84.0148 123.885C84.356 124.179 84.551 124.483 84.5996 124.797C85.0575 125.048 85.3201 125.391 85.3874 125.826C85.91 126.018 86.22 126.428 86.3172 127.057C86.3766 127.122 86.4322 127.163 86.4841 127.179C86.536 127.196 86.5759 127.215 86.6037 127.235L86.8508 127.16C87.2119 127.104 87.5176 127.168 87.7679 127.352C87.953 127.274 88.1057 127.226 88.2261 127.207C88.2983 127.196 88.4345 127.2 88.6345 127.218Z" fill="black"/>
<path d="M91.212 115.603C90.9708 115.319 90.8277 115.031 90.7828 114.741C90.7155 114.306 90.8038 113.921 91.0477 113.586C91.0638 113.212 91.18 112.848 91.3961 112.492C91.6085 112.113 91.8581 111.814 92.1449 111.596C92.4519 111.351 92.7055 111.237 92.9056 111.256C93.0329 110.964 93.3325 110.67 93.8044 110.374C94.2725 110.054 94.7232 109.861 95.1565 109.793C95.2527 109.779 95.4009 109.78 95.601 109.799C95.8209 109.468 96.1475 109.269 96.5808 109.202C96.9178 109.15 97.1735 109.209 97.3478 109.38C97.6271 109.114 98.0195 108.942 98.525 108.864C99.1268 108.771 99.6789 108.834 100.181 109.053C100.707 109.269 101.044 109.613 101.191 110.085C101.647 110.163 102.007 110.343 102.273 110.624C102.558 110.877 102.766 111.265 102.897 111.79C103.258 112.056 103.545 112.395 103.757 112.808C103.965 113.197 104.103 113.609 104.17 114.044C104.256 114.6 104.229 115.062 104.089 115.431C104.295 115.646 104.495 115.987 104.69 116.452C104.886 116.917 105.019 117.379 105.09 117.838C105.12 118.032 105.133 118.277 105.13 118.575C105.355 118.912 105.476 119.14 105.495 119.261C105.506 119.334 105.496 119.509 105.465 119.786C105.504 119.879 105.547 119.996 105.593 120.137C105.636 120.255 105.673 120.41 105.703 120.603C105.759 120.966 105.677 121.313 105.457 121.644C105.594 121.895 105.693 122.214 105.753 122.601C105.831 123.109 105.775 123.539 105.583 123.89C105.646 123.979 105.694 124.133 105.728 124.35C105.806 124.858 105.667 125.313 105.31 125.715C105.266 126.068 105.127 126.362 104.892 126.597C104.654 126.807 104.378 126.936 104.065 126.985C103.752 127.033 103.484 126.975 103.262 126.812C102.677 127.175 102.192 127.386 101.807 127.445C101.614 127.475 101.468 127.486 101.368 127.476C100.772 127.767 100.257 127.945 99.8241 128.012C99.5112 128.061 99.0685 128.067 98.4962 128.032C98.1891 128.278 97.8791 128.425 97.5661 128.473C97.2773 128.518 96.9994 128.474 96.7325 128.342C96.6158 128.385 96.4372 128.425 96.1964 128.462C95.2576 128.607 94.47 128.296 93.8335 127.528C92.8365 127.137 92.2556 126.41 92.091 125.346C92.0498 125.08 92.0301 124.873 92.0317 124.724C91.7926 124.613 91.6375 124.327 91.5664 123.868C91.5178 123.553 91.5349 123.266 91.6179 123.005C91.4542 122.585 91.3631 122.314 91.3444 122.194C91.2359 121.492 91.4756 120.812 92.0636 120.151C92.2423 119.554 92.4852 119.133 92.7923 118.887C93.1234 118.638 93.5463 118.424 94.0609 118.245C94.1418 117.812 94.4358 117.481 94.9429 117.254C95.45 117.027 95.9601 116.899 96.4731 116.869C96.6026 116.75 96.7941 116.634 97.0477 116.52C97.2975 116.382 97.5548 116.293 97.8196 116.252C98.1085 116.207 98.3687 116.217 98.6003 116.28C98.641 116.224 98.7576 116.181 98.9502 116.151C99.0946 116.129 99.2409 116.119 99.3891 116.121C99.5373 116.123 99.6392 116.144 99.6948 116.185C99.9645 115.697 100.328 115.418 100.785 115.348C100.93 115.325 101.08 115.339 101.235 115.389L101.219 115.281C101.155 114.869 101.194 114.566 101.337 114.371C101.085 114.336 100.788 114.171 100.447 113.877C100.126 113.556 99.919 113.253 99.826 112.971C99.4146 112.861 99.1068 112.624 98.9025 112.259C98.6473 112.522 98.3272 112.683 97.942 112.742C97.6772 112.783 97.4132 112.75 97.1501 112.642C96.7595 112.826 96.5022 112.915 96.3781 112.91C96.0785 113.204 95.7241 113.382 95.3149 113.446C95.0286 113.985 94.641 114.268 94.1521 114.294C93.9953 114.715 93.7468 115.1 93.4065 115.449C93.0904 115.795 92.7397 115.998 92.3545 116.058C91.9212 116.125 91.5404 115.973 91.212 115.603ZM94.4495 123.384C94.7832 123.63 94.9707 123.886 95.0119 124.152C95.0418 124.345 95.031 124.594 94.9797 124.899C95.0759 124.884 95.2177 124.924 95.4049 125.019C95.6125 125.086 95.7376 125.178 95.7804 125.295C95.9618 125.193 96.1969 125.12 96.4857 125.075C97.0153 124.993 97.3831 125.06 97.589 125.276C97.8388 125.138 98.1082 125.047 98.397 125.002C98.8544 124.931 99.2361 125.008 99.542 125.233C99.7047 125.01 99.9933 124.804 100.408 124.617C100.847 124.425 101.246 124.301 101.608 124.245C101.757 123.776 102.103 123.463 102.645 123.305C102.667 123.128 102.766 122.89 102.941 122.59C102.823 122.46 102.708 122.28 102.599 122.049C102.489 121.819 102.416 121.582 102.378 121.341C102.3 120.833 102.362 120.439 102.565 120.16C102.248 119.863 102.054 119.484 101.983 119.025C101.934 118.71 101.941 118.437 102.004 118.204C101.83 118.355 101.623 118.449 101.382 118.486C101.165 118.52 100.972 118.463 100.801 118.316C100.618 118.567 100.334 118.723 99.9488 118.782C99.7081 118.82 99.458 118.796 99.1986 118.713C98.975 119.02 98.6706 119.203 98.2854 119.263C98.1651 119.281 97.977 119.261 97.7213 119.201C97.4164 119.62 97.1082 119.779 96.7969 119.679C96.7049 120.04 96.5478 120.299 96.3258 120.457C96.1279 120.612 95.8243 120.72 95.4151 120.784C95.3599 121.065 95.2251 121.308 95.0106 121.515C94.8201 121.718 94.6008 121.814 94.3526 121.802C94.4991 121.953 94.5892 122.137 94.6229 122.355C94.679 122.718 94.6212 123.061 94.4495 123.384Z" fill="black"/>
<path d="M115.765 125.583C115.515 125.721 115.27 125.808 115.029 125.845C114.692 125.897 114.396 125.819 114.142 125.611C113.881 125.676 113.564 125.614 113.189 125.424C112.835 125.207 112.603 124.983 112.494 124.752C112.193 124.724 111.904 124.608 111.626 124.403C111.368 124.171 111.173 123.867 111.041 123.491C110.741 123.463 110.471 123.307 110.229 123.023C110.009 122.71 109.864 122.336 109.797 121.901C109.756 121.635 109.753 121.376 109.788 121.123C109.578 120.883 109.465 120.553 109.45 120.135C109.068 119.897 108.847 119.584 108.787 119.198C108.757 119.004 108.765 118.817 108.811 118.637C108.633 118.441 108.522 118.199 108.477 117.909C108.421 117.546 108.479 117.203 108.65 116.879C108.268 116.641 108.044 116.304 107.976 115.869C107.935 115.603 107.972 115.362 108.086 115.146C107.821 114.866 107.655 114.508 107.587 114.072C107.535 113.734 107.568 113.469 107.686 113.277C107.416 113.121 107.25 112.849 107.19 112.462C107.153 112.221 107.184 111.943 107.284 111.631C107.133 111.456 107.03 111.187 106.974 110.825C106.892 110.293 106.973 109.859 107.216 109.524C107.111 109.318 107.043 109.118 107.013 108.925C106.945 108.489 107.037 108.128 107.289 107.842C107.561 107.528 107.901 107.339 108.31 107.275C108.72 107.212 109.089 107.291 109.419 107.512C109.773 107.73 109.99 108.093 110.068 108.6C110.128 108.987 110.108 109.411 110.006 109.873C110.388 110.111 110.615 110.459 110.686 110.919C110.738 111.257 110.677 111.576 110.501 111.876C110.687 112.12 110.813 112.459 110.881 112.894C110.952 113.354 110.937 113.74 110.838 114.052C111.099 114.309 111.277 114.739 111.371 115.344C111.434 115.755 111.453 116.037 111.427 116.189C111.654 116.377 111.793 116.64 111.845 116.979C111.875 117.172 111.861 117.397 111.802 117.654C112.084 117.883 112.26 118.227 112.331 118.686C112.354 118.831 112.352 118.98 112.327 119.133C112.434 119.19 112.539 119.31 112.641 119.493C112.739 119.651 112.804 119.826 112.834 120.02C112.871 120.262 112.843 120.477 112.748 120.664C112.945 120.659 113.098 120.771 113.207 121.002C113.313 121.208 113.359 121.424 113.344 121.649L113.381 121.644C113.549 121.618 113.708 121.692 113.859 121.867C114.029 122.014 114.102 122.163 114.076 122.316C114.141 122.256 114.245 122.215 114.39 122.193C114.582 122.163 114.758 122.186 114.918 122.26C115.098 122.306 115.233 122.385 115.324 122.494C115.764 122.154 116.201 121.95 116.634 121.883C116.851 121.849 117.049 121.856 117.229 121.902C117.419 121.7 117.674 121.512 117.992 121.339C118.331 121.138 118.632 121.017 118.897 120.976C119.017 120.957 119.13 120.965 119.233 120.998C119.024 120.758 118.887 120.433 118.823 120.022C118.752 119.562 118.852 119.25 119.122 119.084C118.924 118.917 118.776 118.519 118.678 117.89C118.562 117.14 118.637 116.584 118.901 116.221C118.628 115.892 118.458 115.51 118.391 115.075C118.331 114.688 118.362 114.411 118.484 114.243C118.31 114.072 118.2 113.841 118.155 113.551C118.11 113.261 118.111 112.951 118.159 112.622C118.227 112.265 118.33 111.977 118.469 111.757C118.122 111.588 117.893 111.141 117.781 110.415C117.71 109.956 117.688 109.575 117.715 109.274C117.424 108.824 117.252 108.43 117.199 108.091C117.132 107.656 117.222 107.283 117.47 106.972C117.717 106.662 118.034 106.476 118.419 106.417C118.876 106.346 119.29 106.468 119.659 106.782C120.052 107.093 120.289 107.588 120.369 108.269C120.509 108.371 120.635 108.55 120.748 108.805C120.882 109.032 120.969 109.278 121.01 109.544C121.093 110.076 121.018 110.471 120.787 110.73C121.303 111.195 121.6 111.681 121.678 112.189C121.731 112.528 121.678 112.821 121.519 113.068C121.752 113.304 121.894 113.579 121.942 113.894C121.991 114.208 121.957 114.548 121.841 114.912C122.019 115.107 122.129 115.338 122.17 115.604C122.237 116.039 122.115 116.442 121.802 116.812C122.084 117.041 122.253 117.337 122.309 117.699C122.369 118.086 122.28 118.546 122.042 119.078C122.305 119.186 122.472 119.469 122.543 119.929C122.614 120.388 122.591 120.875 122.473 121.388C122.707 121.624 122.858 121.96 122.925 122.395C122.966 122.661 122.952 122.886 122.882 123.07C122.967 123.305 123.019 123.482 123.038 123.603C123.109 124.063 123.021 124.448 122.773 124.758C122.546 125.041 122.239 125.212 121.854 125.272C121.517 125.324 121.199 125.262 120.901 125.085C120.599 124.884 120.39 124.57 120.274 124.142C120.247 124.122 120.205 124.091 120.149 124.05C120.114 123.981 120.081 123.925 120.049 123.88C119.677 124.185 119.323 124.364 118.986 124.416C118.865 124.435 118.767 124.437 118.691 124.424C118.412 124.69 118.128 124.846 117.839 124.89C117.598 124.928 117.362 124.915 117.131 124.852C117.06 125.036 116.925 125.193 116.723 125.323C116.545 125.45 116.336 125.532 116.095 125.569C115.951 125.591 115.841 125.596 115.765 125.583Z" fill="black"/>
<path d="M130.254 122.227C130.432 122.744 130.39 123.184 130.125 123.547C129.881 123.881 129.543 124.082 129.109 124.149C128.724 124.209 128.369 124.14 128.042 123.943C127.712 123.722 127.512 123.381 127.441 122.922C127.396 122.632 127.417 122.294 127.506 121.909C127.309 121.593 127.182 121.254 127.126 120.891C127.081 120.601 127.104 120.35 127.195 120.138C127.035 120.063 126.904 119.935 126.802 119.753C126.7 119.57 126.63 119.358 126.593 119.116C126.556 118.875 126.563 118.601 126.614 118.296C126.356 118.064 126.199 117.766 126.143 117.403C126.072 116.944 126.182 116.543 126.475 116.201C126.439 116.132 126.409 116.013 126.382 115.844C126.345 115.602 126.343 115.429 126.376 115.325C126.059 115.027 125.852 114.564 125.754 113.935C125.687 113.5 125.719 113.148 125.85 112.881C125.659 112.762 125.485 112.59 125.327 112.367C125.165 112.12 125.064 111.863 125.023 111.597C124.978 111.307 125.019 111.016 125.146 110.724C124.981 110.452 124.882 110.208 124.848 109.99C124.792 109.627 124.848 109.272 125.016 108.924C124.682 108.679 124.491 108.399 124.442 108.085C124.405 107.843 124.439 107.503 124.544 107.066C124.323 106.754 124.182 106.404 124.122 106.017C124.044 105.509 124.176 105.167 124.518 104.99C124.49 104.648 124.567 104.351 124.75 104.1C124.933 103.849 125.181 103.699 125.494 103.651C125.855 103.595 126.196 103.728 126.517 104.05C126.858 104.344 127.079 104.817 127.18 105.47C127.222 105.736 127.243 105.955 127.245 106.128C127.334 106.065 127.419 105.977 127.5 105.866C127.578 105.73 127.685 105.627 127.822 105.556C127.959 105.485 128.172 105.428 128.461 105.383C128.49 105.255 128.628 105.11 128.874 104.948C129.144 104.782 129.412 104.679 129.677 104.638C129.869 104.608 130.005 104.612 130.085 104.649C130.263 104.522 130.448 104.444 130.64 104.414C130.929 104.37 131.274 104.527 131.675 104.886C132.245 104.748 132.687 104.816 133 105.089C133.382 105.005 133.726 105.002 134.034 105.078C134.341 105.154 134.609 105.373 134.838 105.733C135.34 105.953 135.628 106.304 135.703 106.788C135.767 107.199 135.646 107.614 135.341 108.032C135.057 108.423 134.71 108.65 134.3 108.713C133.843 108.784 133.42 108.602 133.033 108.167C132.768 108.208 132.56 108.215 132.408 108.189C132.256 108.163 132.094 108.077 131.924 107.93C131.787 108 131.67 108.043 131.574 108.058C131.357 108.092 131.119 108.067 130.86 107.983C130.557 108.253 130.21 108.405 129.822 108.441C129.729 108.802 129.383 109.029 128.781 109.122C128.816 109.191 128.847 109.31 128.873 109.479C128.922 109.793 128.898 110.119 128.802 110.455C128.727 110.764 128.604 111.006 128.434 111.181C128.697 111.611 128.865 112.055 128.936 112.515C129 112.926 128.952 113.255 128.793 113.502C128.88 113.588 128.971 113.698 129.066 113.831C129.185 113.962 129.277 114.083 129.344 114.197C129.422 114.383 129.469 114.524 129.484 114.621C129.51 114.79 129.485 115.029 129.41 115.338C129.575 115.61 129.669 115.818 129.691 115.963C129.721 116.156 129.678 116.435 129.562 116.8C129.744 117.02 129.857 117.274 129.902 117.564C129.955 117.903 129.915 118.206 129.784 118.474C130.013 118.835 130.158 119.221 130.222 119.632C130.271 119.946 130.243 120.248 130.14 120.536C130.298 120.759 130.396 120.992 130.433 121.233C130.485 121.572 130.426 121.903 130.254 122.227Z" fill="black"/>
<path d="M138.357 108.308C138.116 108.024 137.973 107.737 137.928 107.446C137.861 107.011 137.949 106.626 138.193 106.291C138.209 105.917 138.325 105.553 138.541 105.197C138.754 104.818 139.003 104.519 139.29 104.302C139.597 104.056 139.851 103.943 140.051 103.961C140.178 103.669 140.478 103.375 140.95 103.079C141.418 102.759 141.869 102.566 142.302 102.499C142.398 102.484 142.546 102.486 142.746 102.504C142.966 102.173 143.293 101.974 143.726 101.907C144.063 101.855 144.319 101.914 144.493 102.085C144.772 101.819 145.165 101.647 145.67 101.569C146.272 101.476 146.824 101.539 147.327 101.758C147.853 101.974 148.19 102.318 148.337 102.79C148.792 102.868 149.153 103.048 149.418 103.329C149.704 103.582 149.912 103.97 150.042 104.495C150.404 104.761 150.691 105.1 150.902 105.513C151.11 105.902 151.248 106.314 151.315 106.749C151.401 107.305 151.374 107.767 151.234 108.136C151.44 108.352 151.641 108.692 151.836 109.157C152.031 109.622 152.164 110.084 152.235 110.544C152.265 110.737 152.279 110.982 152.275 111.28C152.5 111.617 152.622 111.845 152.64 111.966C152.652 112.039 152.642 112.214 152.611 112.491C152.65 112.584 152.692 112.701 152.739 112.842C152.782 112.96 152.818 113.115 152.848 113.308C152.904 113.671 152.822 114.018 152.602 114.349C152.74 114.6 152.838 114.919 152.898 115.306C152.977 115.814 152.92 116.244 152.728 116.595C152.791 116.685 152.839 116.838 152.873 117.056C152.952 117.563 152.813 118.018 152.456 118.42C152.412 118.773 152.272 119.067 152.038 119.302C151.799 119.512 151.523 119.641 151.21 119.69C150.897 119.738 150.63 119.681 150.407 119.517C149.822 119.88 149.337 120.091 148.952 120.151C148.76 120.18 148.613 120.191 148.513 120.181C147.917 120.472 147.403 120.65 146.969 120.717C146.657 120.766 146.214 120.772 145.642 120.737C145.334 120.983 145.024 121.13 144.711 121.178C144.423 121.223 144.145 121.179 143.878 121.047C143.761 121.09 143.583 121.13 143.342 121.167C142.403 121.313 141.615 121.001 140.979 120.233C139.982 119.843 139.401 119.115 139.236 118.051C139.195 117.785 139.175 117.578 139.177 117.429C138.938 117.318 138.783 117.032 138.712 116.573C138.663 116.258 138.68 115.971 138.763 115.711C138.6 115.29 138.508 115.02 138.49 114.899C138.381 114.197 138.621 113.517 139.209 112.856C139.388 112.259 139.631 111.838 139.938 111.592C140.269 111.343 140.692 111.129 141.206 110.95C141.287 110.517 141.581 110.187 142.088 109.959C142.595 109.732 143.105 109.604 143.618 109.574C143.748 109.455 143.939 109.339 144.193 109.225C144.443 109.088 144.7 108.998 144.965 108.957C145.254 108.913 145.514 108.922 145.746 108.985C145.786 108.929 145.903 108.886 146.096 108.857C146.24 108.834 146.386 108.824 146.534 108.826C146.683 108.828 146.785 108.849 146.84 108.89C147.11 108.403 147.473 108.123 147.931 108.053C148.075 108.03 148.225 108.044 148.381 108.094L148.364 107.986C148.3 107.575 148.34 107.271 148.482 107.076C148.23 107.041 147.934 106.876 147.592 106.582C147.271 106.261 147.064 105.958 146.971 105.676C146.56 105.566 146.252 105.329 146.048 104.964C145.793 105.227 145.473 105.388 145.087 105.447C144.823 105.488 144.559 105.455 144.295 105.347C143.905 105.531 143.648 105.621 143.523 105.615C143.224 105.909 142.869 106.088 142.46 106.151C142.174 106.69 141.786 106.973 141.297 106.999C141.141 107.42 140.892 107.805 140.552 108.155C140.236 108.501 139.885 108.703 139.5 108.763C139.067 108.83 138.686 108.679 138.357 108.308ZM141.595 116.09C141.929 116.335 142.116 116.591 142.157 116.857C142.187 117.05 142.176 117.299 142.125 117.604C142.221 117.59 142.363 117.63 142.55 117.724C142.758 117.791 142.883 117.883 142.926 118.001C143.107 117.898 143.342 117.825 143.631 117.78C144.161 117.698 144.528 117.765 144.734 117.981C144.984 117.843 145.254 117.752 145.542 117.707C146 117.636 146.381 117.713 146.687 117.938C146.85 117.715 147.139 117.51 147.553 117.322C147.992 117.13 148.392 117.006 148.753 116.95C148.902 116.482 149.248 116.168 149.79 116.01C149.812 115.833 149.911 115.595 150.087 115.296C149.968 115.165 149.854 114.985 149.744 114.754C149.634 114.524 149.561 114.287 149.524 114.046C149.445 113.538 149.507 113.144 149.711 112.865C149.393 112.568 149.199 112.189 149.128 111.73C149.08 111.416 149.087 111.142 149.149 110.91C148.975 111.06 148.768 111.154 148.527 111.192C148.311 111.225 148.117 111.168 147.946 111.021C147.763 111.273 147.479 111.428 147.094 111.488C146.853 111.525 146.603 111.502 146.344 111.418C146.12 111.725 145.816 111.908 145.431 111.968C145.31 111.986 145.122 111.966 144.867 111.906C144.562 112.325 144.254 112.484 143.942 112.384C143.85 112.745 143.693 113.004 143.471 113.162C143.273 113.317 142.97 113.426 142.56 113.489C142.505 113.77 142.37 114.014 142.156 114.22C141.965 114.423 141.746 114.519 141.498 114.508C141.644 114.658 141.735 114.842 141.768 115.06C141.824 115.423 141.767 115.766 141.595 116.09Z" fill="black"/>
<path d="M161.046 103.312C161.135 103.571 161.089 103.826 160.906 104.077C160.743 104.3 160.519 104.446 160.234 104.515C160.14 105.025 159.74 105.384 159.033 105.592C159.12 105.999 159.09 106.363 158.943 106.683C158.791 106.979 158.599 107.17 158.366 107.255C158.463 107.884 158.432 108.557 158.272 109.275C158.35 109.461 158.4 109.627 158.422 109.772C158.497 110.255 158.468 110.706 158.335 111.122C158.493 111.345 158.596 111.614 158.645 111.929C158.709 112.34 158.702 112.774 158.625 113.232C158.886 113.488 159.045 113.798 159.101 114.161C159.135 114.378 159.114 114.641 159.039 114.95C159.133 115.084 159.205 115.308 159.254 115.623C159.336 116.155 159.288 116.558 159.108 116.834C159.257 117.157 159.346 117.416 159.376 117.609C159.406 117.803 159.396 117.977 159.346 118.134C159.41 118.545 159.304 118.895 159.029 119.186C158.749 119.452 158.393 119.618 157.96 119.685C157.55 119.749 157.173 119.696 156.826 119.527C156.5 119.329 156.317 119.023 156.277 118.609C156.171 118.402 156.1 118.178 156.062 117.936C155.984 117.428 155.993 116.932 156.091 116.446C155.829 116.19 155.672 115.892 155.62 115.554C155.586 115.336 155.607 115.073 155.682 114.764C155.473 114.524 155.342 114.235 155.289 113.896C155.252 113.654 155.266 113.429 155.333 113.221C155.399 113.013 155.495 112.837 155.621 112.694C155.224 112.359 154.986 111.938 154.908 111.43C154.833 110.946 154.926 110.511 155.186 110.124C155.071 110.018 154.959 109.85 154.849 109.619C154.74 109.388 154.666 109.152 154.629 108.91C154.58 108.596 154.617 108.355 154.739 108.188C154.479 107.782 154.306 107.302 154.22 106.745C154.145 106.262 154.167 105.924 154.285 105.733C153.993 105.282 153.814 104.84 153.747 104.405C153.672 103.921 153.726 103.554 153.909 103.302C153.453 102.903 153.181 102.425 153.095 101.868C152.991 101.191 153.203 100.651 153.732 100.247C153.998 100.057 154.276 99.9402 154.565 99.8955C155.022 99.8247 155.437 99.9586 155.81 100.297C156.179 100.611 156.403 101.022 156.482 101.53C156.523 101.796 156.506 102.084 156.43 102.392C156.792 102.658 157.01 103.033 157.085 103.517C157.137 103.855 157.156 104.137 157.142 104.362C157.226 103.631 157.439 103.177 157.781 103C157.71 102.541 157.789 102.095 158.018 101.664C158.247 101.232 158.539 100.89 158.894 100.637C159.274 100.38 159.601 100.267 159.877 100.299C160.378 99.5531 160.978 99.1261 161.676 99.018C161.989 98.9696 162.275 98.9872 162.534 99.0709C162.725 98.8681 163.037 98.7332 163.47 98.6661C163.831 98.6103 164.179 98.6307 164.515 98.7273C164.846 98.7998 165.081 98.9616 165.218 99.2127C166.092 99.1269 166.762 99.3947 167.228 100.016C167.545 99.9916 167.874 100.126 168.215 100.42C168.58 100.71 168.797 101.073 168.864 101.508C168.894 101.702 168.871 101.953 168.796 102.262C169.383 102.394 169.725 102.774 169.823 103.403C169.856 103.62 169.869 103.779 169.86 103.88C170.199 104.001 170.443 104.148 170.594 104.323C170.764 104.47 170.87 104.677 170.911 104.943C170.956 105.233 170.944 105.631 170.874 106.137C171.197 106.31 171.397 106.65 171.476 107.158C171.558 107.69 171.488 108.109 171.264 108.416C171.537 108.745 171.714 109.176 171.797 109.708C171.879 110.24 171.824 110.682 171.632 111.033C171.889 111.736 172.039 112.233 172.084 112.523C172.163 113.031 172.109 113.398 171.922 113.625C172.182 114.031 172.344 114.439 172.407 114.85C172.493 115.406 172.425 115.838 172.201 116.145C172.285 116.528 172.165 116.868 171.841 117.166C171.542 117.46 171.175 117.64 170.742 117.707C170.405 117.76 170.103 117.72 169.836 117.588C169.569 117.456 169.411 117.232 169.363 116.918C169.099 116.489 168.922 115.984 168.833 115.403C168.694 114.509 168.81 113.822 169.18 113.344C168.977 113.152 168.767 112.826 168.547 112.365C168.348 111.876 168.215 111.413 168.148 110.978C168.054 110.374 168.117 109.98 168.335 109.798C168.086 109.465 167.932 109.105 167.872 108.718C167.805 108.283 167.855 107.73 168.022 107.061C167.78 106.925 167.56 106.699 167.363 106.383C167.166 106.067 167.043 105.752 166.995 105.437C166.98 105.34 166.981 105.192 167 104.991C166.701 104.814 166.406 104.501 166.115 104.051C165.847 103.597 165.696 103.175 165.66 102.784C165.44 102.793 165.212 102.754 164.976 102.667C164.741 102.58 164.546 102.436 164.392 102.237L163.995 102.299C163.586 102.362 163.284 102.322 163.089 102.179C162.934 102.451 162.643 102.719 162.215 102.983C161.808 103.219 161.43 103.327 161.082 103.307L161.046 103.312Z" fill="black"/>
<path d="M186.134 112.132C186.139 112.007 186.187 111.913 186.275 111.85C186.388 111.783 186.515 111.726 186.656 111.68C186.748 111.641 186.867 111.61 187.011 111.588C187.42 111.524 187.77 111.631 188.059 111.908C188.369 112.158 188.555 112.488 188.619 112.899C188.668 113.213 188.626 113.504 188.495 113.772C188.361 114.016 188.132 114.212 187.81 114.361C187.372 114.874 186.798 115.149 186.089 115.184C185.922 115.383 185.683 115.507 185.37 115.556C184.937 115.623 184.515 115.527 184.105 115.268C183.857 115.257 183.549 115.181 183.183 115.04C182.812 114.874 182.613 114.707 182.587 114.538C182.243 114.541 181.864 114.402 181.45 114.119C181.061 113.833 180.877 113.441 180.898 112.942C180.589 112.693 180.385 112.415 180.289 112.108C179.977 112.007 179.727 111.823 179.538 111.556C179.372 111.284 179.29 110.987 179.289 110.666C178.931 110.424 178.707 110.013 178.618 109.432C178.584 109.215 178.565 108.933 178.561 108.587C178.183 108.373 177.958 108.037 177.887 107.577C177.823 107.166 177.903 106.807 178.127 106.5C177.793 106.255 177.591 105.902 177.52 105.443C177.493 105.273 177.51 105.061 177.569 104.804C177.379 104.536 177.262 104.257 177.217 103.967C177.157 103.58 177.219 103.261 177.402 103.01C177.213 102.742 177.092 102.439 177.039 102.1C176.995 101.81 176.991 101.551 177.03 101.322C177.089 101.065 177.169 100.867 177.271 100.727C176.957 100.454 176.772 100.136 176.716 99.7733C176.686 99.5799 176.691 99.3688 176.729 99.14C176.524 99.246 176.289 99.3196 176.024 99.3605C175.615 99.4238 175.301 99.3858 175.082 99.2463C174.804 99.3635 174.557 99.4389 174.341 99.4725C173.907 99.5395 173.441 99.4754 172.943 99.2802C172.725 99.4625 172.483 99.5742 172.218 99.6151C171.833 99.6747 171.496 99.566 171.206 99.2889C170.889 98.9913 170.699 98.637 170.635 98.226C170.579 97.8632 170.653 97.5424 170.856 97.2633C171.031 96.9638 171.334 96.7684 171.764 96.6772C172.034 96.5116 172.289 96.4102 172.53 96.3729C173.011 96.2984 173.451 96.3542 173.85 96.5401C174.144 96.3708 174.484 96.2563 174.869 96.1967C175.206 96.1446 175.48 96.1641 175.691 96.2552C175.7 96.1547 175.784 96.0552 175.941 95.9566C176.119 95.83 176.269 95.7696 176.394 95.7751C176.264 95.5724 176.17 95.2897 176.114 94.927C176.047 94.4917 176.108 94.2471 176.297 94.1931C176.091 93.9774 175.952 93.6398 175.881 93.1804C175.784 92.5517 175.873 92.0922 176.148 91.802C176.05 91.3221 176.09 90.9445 176.269 90.6692C176.448 90.3939 176.706 90.2301 177.043 90.178C177.38 90.1258 177.712 90.1983 178.038 90.3954C178.361 90.5683 178.55 90.8362 178.606 91.1989C178.644 91.4407 178.59 91.7337 178.446 92.0778C178.721 92.2582 178.897 92.6023 178.976 93.11C179.01 93.3277 179.009 93.563 178.974 93.816C178.96 94.041 178.914 94.2215 178.836 94.3573C178.996 94.4316 179.098 94.6139 179.143 94.9041C179.18 95.1459 179.17 95.4816 179.114 95.9113C179.319 95.8053 179.542 95.7336 179.783 95.6964C180.144 95.6405 180.434 95.6823 180.653 95.8218C180.875 95.6636 181.058 95.5734 181.202 95.551C181.443 95.5138 181.651 95.5807 181.825 95.7518C181.975 95.6048 182.17 95.5127 182.411 95.4754C182.748 95.4233 183.033 95.5153 183.267 95.7515C183.724 95.6807 184.078 95.7374 184.328 95.9215C184.599 96.0777 184.759 96.313 184.807 96.6273C184.867 97.0142 184.769 97.4132 184.512 97.8243C184.275 98.2076 183.965 98.429 183.579 98.4886C183.363 98.5221 183.135 98.4831 182.896 98.3715C182.685 98.6022 182.387 98.7474 182.002 98.807C181.641 98.8628 181.327 98.8247 181.06 98.6927C180.766 98.8621 180.546 98.9579 180.402 98.9802C180.209 99.01 179.968 98.9608 179.677 98.8325C179.938 99.0891 180.095 99.3867 180.147 99.7253C180.204 100.088 180.11 100.437 179.866 100.772C180.127 101.028 180.292 101.374 180.359 101.809C180.419 102.196 180.367 102.576 180.202 102.948C180.521 103.097 180.714 103.389 180.782 103.824C180.838 104.187 180.778 104.518 180.603 104.817C180.884 105.046 181.078 105.499 181.182 106.176C181.227 106.466 181.229 106.713 181.186 106.918C181.392 107.134 181.516 107.375 181.557 107.641C181.579 107.786 181.573 107.985 181.538 108.238C181.524 108.463 181.516 108.65 181.514 108.799C181.856 109.092 182.051 109.396 182.099 109.711C182.557 109.962 182.82 110.305 182.887 110.74C183.41 110.932 183.72 111.342 183.817 111.971C183.876 112.036 183.932 112.077 183.984 112.093C184.036 112.11 184.075 112.129 184.103 112.149L184.35 112.074C184.711 112.018 185.017 112.082 185.268 112.266C185.453 112.188 185.605 112.139 185.726 112.121C185.798 112.11 185.934 112.113 186.134 112.132Z" fill="black"/>
<path d="M210.489 88.3825C210.717 88.4215 210.898 88.5545 211.031 88.7814C211.189 89.0046 211.261 89.2287 211.246 89.4538C211.597 89.6472 211.78 89.8787 211.798 90.1484C211.865 90.5837 211.647 91.0878 211.144 91.6608C211.25 91.8673 211.32 92.0793 211.354 92.2969C211.406 92.6355 211.37 92.9628 211.247 93.2791C211.123 93.5953 210.95 93.8325 210.728 93.9907C210.791 94.8723 210.628 95.4918 210.239 95.849C210.208 96.1262 210.005 96.4052 209.629 96.6862C209.25 96.9429 208.892 97.0974 208.555 97.1495C208.409 97.3207 208.131 97.5123 207.72 97.7245C207.305 97.9124 206.984 97.9869 206.756 97.9478C206.527 98.3794 206.16 98.6343 205.654 98.7126C205.462 98.7423 205.327 98.7507 205.251 98.7377C205.118 98.8326 204.931 98.8987 204.69 98.9359C204.426 98.9769 204.127 98.9612 203.796 98.8887C203.448 99.1901 202.684 99.432 201.505 99.6146C201.654 99.9382 201.739 100.173 201.762 100.318C201.806 100.608 201.749 100.877 201.591 101.124C201.908 101.422 202.128 101.969 202.252 102.767C202.349 103.396 202.362 103.877 202.29 104.21C202.639 104.552 202.86 105.025 202.953 105.63C203.036 106.162 202.994 106.688 202.828 107.209C203.002 107.38 203.154 107.641 203.282 107.993C203.41 108.345 203.504 108.714 203.564 109.101C203.654 109.681 203.642 110.079 203.527 110.295C203.628 110.626 203.691 110.876 203.717 111.045C203.874 112.061 203.399 112.654 202.292 112.826C201.787 112.904 201.362 112.71 201.019 112.243C200.696 111.748 200.48 111.15 200.371 110.449C200.263 109.748 200.275 109.189 200.408 108.772C200.1 108.374 199.897 107.861 199.8 107.232C199.759 106.966 199.732 106.636 199.72 106.241C199.459 105.985 199.259 105.409 199.12 104.514C199.004 103.765 199.002 103.27 199.113 103.03C198.944 102.734 198.814 102.296 198.724 101.716C198.638 101.16 198.637 100.752 198.72 100.491C198.554 100.22 198.457 99.9871 198.427 99.7937C198.397 99.6003 198.405 99.4133 198.451 99.2329C198.182 98.9279 198.01 98.5336 197.935 98.05C197.883 97.7114 197.892 97.4501 197.962 97.2659C197.832 97.0632 197.748 96.8409 197.711 96.5991C197.67 96.3331 197.684 96.1081 197.754 95.9239C197.457 95.5984 197.292 95.3269 197.258 95.1093C197.221 94.8675 197.278 94.5987 197.429 94.3029C197.24 94.0351 197.127 93.7803 197.089 93.5385C197.029 93.1516 197.125 92.8149 197.377 92.5284C196.935 92.2253 196.675 91.8198 196.597 91.312C196.582 91.2153 196.576 91.0181 196.579 90.7205C196.261 90.5718 196.06 90.2314 195.978 89.6994C195.918 89.3125 195.946 88.9368 196.062 88.5722C196.178 88.2076 196.357 88.0067 196.597 87.9694C196.576 87.6755 196.687 87.4356 196.93 87.2495C197.192 87.0355 197.504 86.9006 197.865 86.8448C198.202 86.7926 198.514 86.8186 198.802 86.9227C199.109 86.9989 199.304 87.1421 199.386 87.3523C199.833 87.0602 200.19 86.8936 200.455 86.8526C200.599 86.8303 200.699 86.8396 200.755 86.8805C200.823 86.8451 200.984 86.7707 201.238 86.6572C201.488 86.5195 201.721 86.4339 201.937 86.4003C202.25 86.3519 202.578 86.4002 202.921 86.5453C203.047 86.402 203.237 86.2736 203.49 86.1601C203.744 86.0466 204.015 85.9675 204.304 85.9228C204.569 85.8818 204.791 85.8846 204.971 85.931C205.063 85.892 205.194 85.8594 205.362 85.8333C205.723 85.7774 206.099 85.8183 206.49 85.9559C206.881 86.0934 207.192 86.2682 207.422 86.4802C207.851 86.389 208.201 86.4215 208.472 86.5777C208.763 86.706 209.03 86.9989 209.274 87.4564C209.55 87.488 209.825 87.594 210.099 87.7744C210.398 87.951 210.528 88.1537 210.489 88.3825ZM200.706 96.8413C200.832 96.698 201.063 96.6004 201.4 96.5482C201.809 96.4849 202.084 96.5044 202.223 96.6066C202.365 96.4113 202.677 96.2764 203.158 96.2019C203.64 96.1274 203.966 96.1636 204.136 96.3105C204.286 96.1636 204.53 96.064 204.867 96.0118C205.083 95.9783 205.257 95.9885 205.389 96.0424C205.609 95.7113 205.875 95.5215 206.188 95.4731C206.357 95.447 206.491 95.4386 206.591 95.4479C206.609 95.247 206.84 94.9884 207.284 94.6721C207.725 94.3316 208.083 94.1772 208.359 94.2088C208.329 94.0153 208.362 93.7502 208.458 93.4135C208.553 93.0768 208.666 92.849 208.795 92.7299C208.684 92.6481 208.606 92.4621 208.561 92.1719C208.509 91.8334 208.499 91.4511 208.532 91.0252C208.585 90.5713 208.662 90.2746 208.764 90.1351C207.719 89.7521 207.148 89.3327 207.053 88.877C206.657 88.8641 206.182 88.7395 205.627 88.5034C205.006 88.9462 204.466 89.203 204.009 89.2738C203.744 89.3148 203.362 89.3121 202.861 89.2657C202.429 89.6545 201.935 89.8918 201.382 89.9774C201.045 90.0296 200.757 89.9999 200.518 89.8883C200.505 89.9646 200.349 90.0753 200.051 90.2204C199.777 90.3618 199.578 90.4298 199.454 90.4242C199.516 90.6623 199.647 90.9515 199.847 91.2919C200.08 91.6769 200.22 92.0265 200.269 92.3409C200.317 92.6552 200.256 92.9742 200.084 93.2979C200.21 93.4765 200.309 93.7955 200.38 94.2549C200.44 94.6418 200.435 94.9273 200.364 95.1115C200.615 95.2956 200.772 95.5932 200.835 96.0042C200.877 96.2702 200.833 96.5492 200.706 96.8413Z" fill="black"/>
<path d="M233.115 104.045C233.115 104.045 233.333 104.098 233.768 104.204C234.227 104.307 234.484 104.849 234.537 105.831C234.663 106.009 234.745 106.22 234.783 106.461C234.843 106.848 234.735 107.187 234.459 107.477C234.184 107.767 233.841 107.944 233.432 108.007C233.071 108.063 232.741 108.003 232.443 107.826C232.165 107.622 231.992 107.302 231.925 106.866C231.652 106.859 231.344 106.696 230.999 106.378C230.674 106.032 230.482 105.666 230.422 105.279C230.407 105.182 230.408 105.034 230.427 104.833C230.167 104.749 229.913 104.541 229.665 104.208C229.436 103.847 229.254 103.467 229.118 103.067C228.982 102.667 228.913 102.381 228.911 102.208C228.576 102.111 228.269 101.799 227.99 101.273C227.732 100.719 227.595 100.232 227.58 99.8138C227.422 99.9124 227.223 99.9804 226.983 100.018C226.501 100.092 226.033 100.016 225.579 99.7891C225.315 100.152 224.87 100.382 224.244 100.479C223.666 100.568 223.235 100.486 222.949 100.233C222.677 100.548 222.361 100.733 222 100.789C221.711 100.833 221.473 100.808 221.286 100.713C221.136 100.86 220.892 100.96 220.555 101.012C220.266 101.057 219.97 101.053 219.666 101.001C219.362 100.949 219.113 100.852 218.919 100.708C218.894 100.712 218.838 100.746 218.749 100.809C218.965 101.246 219.101 101.646 219.157 102.008C219.243 102.565 219.041 103.091 218.551 103.588C218.677 103.766 218.761 103.989 218.802 104.255C218.884 104.787 218.782 105.322 218.496 105.862C218.21 106.401 217.902 106.721 217.572 106.822C217.702 107.025 217.79 107.271 217.834 107.561C217.935 108.214 217.812 108.852 217.465 109.475C217.114 110.074 216.626 110.422 216 110.519C215.831 110.545 215.697 110.553 215.597 110.544C215.284 110.593 215.028 110.533 214.83 110.366C214.631 110.198 214.508 109.958 214.459 109.643C214.426 109.426 214.447 109.162 214.522 108.854C214.483 108.761 214.448 108.617 214.419 108.424C214.344 107.94 214.519 107.48 214.944 107.043C214.909 106.974 214.88 106.867 214.858 106.722C214.802 106.359 214.83 105.983 214.942 105.595C215.075 105.178 215.276 104.887 215.546 104.721C215.515 104.677 215.486 104.57 215.46 104.4C215.396 103.989 215.419 103.503 215.53 102.941C215.636 102.355 215.804 102.007 216.034 101.897C215.821 100.841 216.004 99.7109 216.581 98.5073C216.495 97.9512 216.499 97.4183 216.593 96.9086C216.683 96.3747 216.928 95.9654 217.327 95.6808C217.28 95.2176 217.317 94.7414 217.439 94.2522C217.56 93.763 217.717 93.3426 217.909 92.991C217.796 92.7362 217.722 92.4999 217.689 92.2823C217.636 91.9438 217.655 91.6685 217.746 91.4564C217.857 91.2164 217.992 91.0592 218.153 90.9848C218.114 90.8918 218.08 90.7486 218.05 90.5552C217.968 90.0232 218.095 89.5702 218.431 89.1963L218.362 88.9842C218.305 88.6215 218.399 88.2727 218.643 87.9379C218.604 87.8449 218.572 87.7138 218.545 87.5445C218.478 87.1092 218.519 86.6572 218.668 86.1885C218.818 85.7197 219.014 85.3923 219.256 85.2062C219.596 84.5347 220.006 84.1616 220.488 84.0871C220.704 84.0536 220.992 84.0833 221.352 84.1763C222.054 84.0924 222.643 84.5583 223.121 85.5738C223.379 85.8063 223.584 86.0964 223.736 86.4442C223.885 86.7678 223.97 87.0766 223.99 87.3705C224.23 87.482 224.416 87.6513 224.55 87.8782C224.707 88.1014 224.795 88.3478 224.812 88.6175C225.086 88.7979 225.343 89.1048 225.583 89.5381C225.847 89.9677 226.01 90.3881 226.074 90.7992C226.104 90.9926 226.112 91.1275 226.1 91.2037C226.294 91.3469 226.476 91.5664 226.645 91.8621C226.838 92.1541 226.955 92.4331 226.996 92.6991C227.019 92.8442 227.024 92.9548 227.011 93.0311C227.357 93.2003 227.663 93.4997 227.926 93.9294C228.214 94.3553 228.429 94.7923 228.573 95.2406C228.736 95.661 228.807 95.9595 228.785 96.1362C228.845 96.2013 229.005 96.3622 229.267 96.6188C229.524 96.8513 229.736 97.1033 229.901 97.3748C230.063 97.6222 230.162 97.8668 230.2 98.1086C230.233 98.3262 230.234 98.4871 230.2 98.5913C230.315 98.6973 230.446 98.8256 230.593 98.9762C230.736 99.1027 230.852 99.2208 230.943 99.3305C231.034 99.4402 231.093 99.5797 231.119 99.749C231.145 99.9183 231.152 100.041 231.139 100.117C231.362 100.281 231.569 100.509 231.762 100.801C231.955 101.093 232.074 101.384 232.119 101.674C232.157 101.916 232.137 102.105 232.059 102.24C232.354 102.393 232.601 102.639 232.802 102.98C233.003 103.32 233.107 103.675 233.115 104.045ZM225.253 97.2027C225.279 97.0502 225.374 96.9488 225.539 96.8985C225.7 96.8241 225.846 96.8138 225.978 96.8677C225.907 96.7301 225.866 96.625 225.855 96.5525C225.825 96.359 225.851 96.2065 225.932 96.0949C225.689 95.9591 225.475 95.7695 225.289 95.5258C225.128 95.2785 225.039 95.0199 225.021 94.7502C224.845 94.7279 224.67 94.6312 224.496 94.4601C224.342 94.2611 224.246 94.0407 224.209 93.7989C224.198 93.7264 224.201 93.5897 224.219 93.3888C223.665 93.1526 223.339 92.7202 223.242 92.0915C223.205 91.8497 223.198 91.5661 223.221 91.2405C223.194 91.2201 223.126 91.181 223.018 91.1234C222.907 91.0416 222.849 90.9021 222.843 90.7049C222.339 90.6343 222.05 90.2828 221.977 89.6504C221.769 89.5835 221.585 89.4263 221.423 89.179C221.558 89.7277 221.408 90.1964 220.976 90.5853C221.041 90.8475 221.039 91.1573 220.971 91.5144C220.903 91.8716 220.798 92.1478 220.656 92.3431C220.695 92.4361 220.731 92.5914 220.765 92.8091C220.851 93.3652 220.736 94.1381 220.421 95.1277C220.342 95.4124 220.283 95.6691 220.245 95.8979C220.186 96.1546 220.115 96.4131 220.032 96.6736C219.973 96.9303 219.869 97.1321 219.719 97.2791C219.756 97.5209 219.742 97.746 219.676 97.9543L219.959 97.8733C220.199 97.8361 220.389 97.8686 220.528 97.9709C220.582 97.8388 220.717 97.756 220.934 97.7225C221.078 97.7001 221.192 97.7196 221.276 97.781C221.531 97.5187 221.875 97.354 222.308 97.287C222.621 97.2385 222.918 97.2422 223.197 97.298C223.477 97.3537 223.714 97.4532 223.909 97.5964C224.109 97.2931 224.341 97.121 224.606 97.0801C224.774 97.054 224.99 97.0949 225.253 97.2027Z" fill="black"/>
<path d="M253.475 100.524C253.719 100.511 253.955 100.598 254.181 100.786C254.407 100.974 254.589 101.193 254.726 101.444C254.888 101.692 254.954 101.879 254.925 102.008C255.258 102.253 255.459 102.594 255.526 103.029C255.582 103.392 255.513 103.737 255.317 104.064C255.141 104.364 254.877 104.565 254.523 104.67C254.094 104.761 253.62 104.648 253.103 104.332C252.586 104.016 252.269 103.644 252.154 103.216C251.839 103.092 251.468 102.766 251.041 102.237C250.638 101.705 250.409 101.258 250.353 100.895C250.03 100.722 249.697 100.403 249.354 99.9358C249.007 99.4448 248.859 99.0467 248.91 98.7417C248.532 98.5278 248.215 98.2303 247.959 97.849C247.723 97.4398 247.571 97.0176 247.504 96.5824C247.135 96.5899 246.797 96.3946 246.489 95.9966C246.205 95.5949 246.031 95.1885 245.968 94.7774C245.732 94.69 245.524 94.5366 245.342 94.3172C245.16 94.0977 245.05 93.8671 245.013 93.6253C244.99 93.4802 245.016 93.3277 245.09 93.1677C244.872 93.35 244.63 93.4617 244.365 93.5026C244.101 93.5436 243.802 93.5279 243.471 93.4554C243.149 93.6042 242.795 93.7085 242.41 93.7681C242.073 93.8202 241.835 93.7951 241.696 93.6929C241.335 93.7487 241.041 93.6828 240.815 93.4949C240.613 93.3034 240.485 93.0383 240.433 92.6998C240.384 92.3855 240.412 92.0841 240.515 91.7958C240.642 91.5037 240.804 91.3549 241 91.3493C241.041 91.2935 241.154 91.2265 241.339 91.1483C241.524 91.0702 241.725 91.0143 241.942 90.9808C242.327 90.9212 242.611 90.9267 242.795 90.9974C243.169 90.8652 243.512 90.775 243.825 90.7265C244.162 90.6744 244.374 90.6911 244.461 90.7766C244.692 90.5181 244.94 90.3683 245.205 90.3273C245.398 90.2975 245.558 90.2975 245.686 90.3272C245.8 90.1114 246.049 89.8872 246.432 89.6546C246.835 89.3941 247.175 89.2797 247.451 89.3113C247.514 89.0787 247.662 88.9197 247.895 88.8341C248.124 88.7243 248.351 88.6768 248.575 88.6916C248.542 88.474 248.58 88.2452 248.691 88.0052C248.802 87.7653 248.952 87.6183 249.14 87.5643C248.992 87.2407 248.895 86.9338 248.85 86.6436C248.798 86.3051 248.805 86.0317 248.871 85.8233C248.708 85.7248 248.575 85.5843 248.473 85.4021C248.391 85.1919 248.358 84.9743 248.372 84.7492C248.018 84.5316 247.774 84.3094 247.64 84.0825C247.348 84.103 247.072 83.997 246.815 83.7646C246.509 83.8614 246.251 83.8642 246.04 83.7731C245.828 83.682 245.625 83.5648 245.431 83.4216C245.236 83.2785 245.083 83.166 244.972 83.0841C244.628 83.4097 244.203 83.6116 243.697 83.6898C243.168 83.7718 242.734 83.6779 242.397 83.4083C242.234 83.6315 241.924 83.7785 241.467 83.8493C241.033 83.9163 240.669 83.8736 240.375 83.7211C240.212 83.9444 239.926 84.0877 239.517 84.151C239.108 84.2143 238.771 84.1921 238.508 84.0842C238.685 84.4283 238.81 84.8422 238.885 85.3258C238.949 85.7368 238.943 86.0968 238.867 86.4056C239.127 86.811 239.293 87.2434 239.364 87.7029C239.435 88.1623 239.391 88.5157 239.232 88.7632C239.422 89.031 239.541 89.3221 239.589 89.6364C239.642 89.9749 239.588 90.2679 239.429 90.5153C239.704 90.6957 239.882 91.0519 239.964 91.5838C240.036 92.0433 240.028 92.3911 239.941 92.6274C240.088 92.778 240.227 93.0412 240.359 93.4169C240.491 93.7926 240.587 94.1739 240.647 94.5608C240.699 94.8993 240.704 95.1709 240.662 95.3755C240.725 95.4648 240.801 95.6387 240.891 95.8972C240.976 96.1316 241.04 96.3818 241.081 96.6477C241.163 97.1797 241.147 97.5536 241.033 97.7694C241.341 98.1674 241.528 98.584 241.596 99.0193C241.648 99.3578 241.602 99.6991 241.458 100.043C241.826 100.506 242.064 101.089 242.172 101.79C242.266 102.394 242.213 102.848 242.013 103.151C242.253 103.585 242.412 104.055 242.49 104.563C242.58 105.143 242.511 105.649 242.282 106.081C242.049 106.488 241.608 106.742 240.958 106.843C240.572 106.903 240.228 106.745 239.923 106.372C239.643 105.994 239.462 105.539 239.379 105.007C239.308 104.548 239.312 104.176 239.392 103.891C239.128 103.462 238.953 102.969 238.867 102.413C238.792 101.929 238.805 101.531 238.904 101.218C238.607 100.571 238.419 99.9936 238.34 99.4858C238.262 98.978 238.298 98.5763 238.45 98.2805C238.242 98.2136 238.061 98.0806 237.907 97.8816C237.773 97.6547 237.686 97.4082 237.645 97.1423C237.57 96.6586 237.644 96.2634 237.868 95.9564C237.761 95.8988 237.658 95.7909 237.559 95.6328C237.481 95.4468 237.427 95.2571 237.397 95.0636C237.322 94.58 237.367 94.3131 237.532 94.2628C237.449 94.2015 237.36 94.0294 237.267 93.7467C237.174 93.464 237.104 93.1655 237.055 92.8511C236.988 92.4159 236.971 92.0718 237.006 91.8188C236.745 91.5621 236.576 91.192 236.501 90.7084C236.442 90.3215 236.465 89.996 236.572 89.7318C236.394 89.5366 236.277 89.2576 236.221 88.8949C236.165 88.5321 236.223 88.189 236.394 87.8653C236.186 87.4765 236.06 87.1371 236.015 86.8469C235.963 86.5084 236.028 86.2136 236.211 85.9624C236.044 85.8397 235.93 85.6593 235.868 85.4212C235.803 85.1589 235.744 84.8585 235.692 84.52C235.32 84.5033 235.017 84.3769 234.783 84.1407C234.549 83.9045 234.406 83.6172 234.354 83.2786C234.29 82.8676 234.368 82.4965 234.588 82.1653C234.828 81.8063 235.179 81.6035 235.64 81.5569C235.597 81.4397 235.713 81.3104 235.987 81.169C236.285 81.0239 236.602 80.9252 236.939 80.8731C237.469 80.7911 237.838 80.8701 238.048 81.11C238.185 81.0393 238.374 80.9853 238.615 80.9481C238.952 80.8959 239.188 80.9089 239.323 80.987C239.586 80.773 239.934 80.6325 240.367 80.5655C240.873 80.4873 241.251 80.5402 241.501 80.7243C241.96 80.5047 242.346 80.3707 242.659 80.3223C243.116 80.2516 243.484 80.3184 243.762 80.523C244.08 80.35 244.492 80.2243 244.998 80.1461C245.383 80.0865 245.729 80.0948 246.037 80.171C246.341 80.223 246.558 80.3504 246.688 80.5531C246.756 80.5178 246.862 80.4889 247.007 80.4666C247.32 80.4182 247.615 80.4962 247.893 80.7008C248.192 80.8774 248.416 81.1276 248.564 81.4512C249.033 81.453 249.395 81.6445 249.651 82.0258C250.092 82.0071 250.423 82.154 250.644 82.4664C250.885 82.751 251.039 83.1109 251.107 83.5461C251.454 84.0371 251.663 84.5123 251.734 84.9718C251.79 85.3345 251.753 85.6498 251.622 85.9177C251.763 86.1929 251.856 86.4756 251.901 86.7658C251.968 87.2011 251.883 87.6103 251.647 87.9935C251.707 88.3804 251.658 88.7841 251.502 89.2045C251.341 89.6007 251.088 89.8751 250.742 90.0277C250.694 90.3569 250.565 90.6369 250.354 90.8676C250.143 91.0983 249.869 91.2397 249.532 91.2919C249.442 91.5039 249.296 91.6751 249.094 91.8053C248.889 91.9114 248.645 92.011 248.364 92.104C248.107 92.1934 247.897 92.2752 247.736 92.3497C247.885 92.3515 248.025 92.4659 248.159 92.6928C248.289 92.8955 248.324 93.0387 248.263 93.1224C248.463 93.141 248.689 93.3288 248.941 93.6859C249.19 94.0188 249.299 94.3239 249.268 94.601C249.644 94.6419 249.956 94.8288 250.205 95.1617C250.478 95.4909 250.652 95.8973 250.726 96.3809C251.06 96.6263 251.357 96.9518 251.617 97.3572C251.877 97.7627 252.025 98.1607 252.061 98.5513C252.476 98.6852 252.809 98.9307 253.062 99.2878C253.314 99.6448 253.452 100.057 253.475 100.524Z" fill="black"/>
<path d="M277.193 98.7107C277.305 98.7925 277.401 98.9385 277.483 99.1487C277.585 99.3309 277.655 99.543 277.692 99.7848C277.752 100.172 277.72 100.523 277.597 100.839C277.469 101.132 277.213 101.307 276.828 101.367C276.635 101.397 276.373 101.375 276.042 101.303C275.682 101.21 275.36 101.037 275.074 100.784C274.788 100.531 274.597 100.251 274.5 99.9444C274.134 99.8031 273.843 99.6004 273.63 99.3363C273.441 99.0685 273.279 98.6602 273.145 98.1115C272.917 98.0725 272.66 97.9266 272.374 97.6736C272.113 97.417 271.937 97.1594 271.848 96.9009C271.544 96.8488 271.25 96.6964 270.964 96.4434C270.678 96.1905 270.509 95.8948 270.457 95.5563C269.933 95.5136 269.47 95.3128 269.07 94.9539C268.669 94.5949 268.433 94.1858 268.362 93.7263C268.34 93.5813 268.335 93.4706 268.348 93.3943C267.883 93.4167 267.434 93.2261 267.002 92.8226C266.566 92.3948 266.337 91.9475 266.314 91.4807C266.038 91.4491 265.759 91.3189 265.477 91.0902C265.219 90.8577 265.014 90.5676 264.862 90.2198C264.86 90.3686 264.764 90.5444 264.574 90.7472C264.383 90.95 264.228 91.0607 264.107 91.0793C264.024 91.3397 263.867 91.5992 263.636 91.8578C263.401 92.0922 263.167 92.2523 262.934 92.3379C262.903 92.615 262.766 92.8466 262.524 93.0327C262.302 93.1908 262.024 93.3081 261.691 93.3844C261.971 93.762 262.173 94.3497 262.297 95.1477C262.413 95.8973 262.426 96.539 262.336 97.0729C262.609 97.402 262.794 97.881 262.891 98.5097C262.973 99.0416 262.959 99.4276 262.848 99.6676C262.863 99.7643 262.919 99.9661 263.016 100.273C263.109 100.556 263.178 100.842 263.223 101.132C263.44 102.535 262.983 103.324 261.851 103.499C261.346 103.577 260.958 103.463 260.689 103.158C260.42 102.853 260.248 102.459 260.174 101.976C260.091 101.444 260.112 101.019 260.235 100.703C260.016 100.242 259.882 99.8542 259.834 99.5398C259.777 99.1771 259.797 98.9018 259.891 98.7139C259.585 98.4889 259.383 98.062 259.286 97.4334C259.211 96.9497 259.206 96.5173 259.27 96.1359C259.028 95.5296 258.889 95.1055 258.851 94.8637C258.803 94.5494 258.802 94.2276 258.85 93.8983C258.494 93.5078 258.276 93.0586 258.198 92.5508C258.115 92.0188 258.192 91.5612 258.429 91.178C258.034 91.0163 257.799 90.6936 257.724 90.21C257.672 89.8714 257.717 89.4436 257.859 88.9265C257.669 88.6587 257.554 88.3918 257.513 88.1258C257.479 87.9082 257.5 87.6449 257.576 87.3362C257.349 87.1483 257.189 86.7522 257.096 86.1476C256.976 85.3739 257.027 84.747 257.249 84.2671C257.05 84.0997 256.875 83.8421 256.722 83.4943C256.566 83.1223 256.456 82.7308 256.393 82.3197C256.303 81.7394 256.308 81.2929 256.407 80.9804C256.171 80.5713 256.024 80.1732 255.964 79.7863C255.878 79.2302 255.979 78.7689 256.267 78.4024C256.576 78.008 256.959 77.7754 257.416 77.7046C257.85 77.6376 258.231 77.7147 258.561 77.936C258.891 78.1573 259.096 78.5218 259.174 79.0296L259.194 79.3979C259.5 79.6229 259.691 79.9772 259.765 80.4608C259.836 80.9203 259.802 81.3341 259.662 81.7025C259.801 81.8047 259.904 82.0735 259.971 82.5088C260.069 83.1374 259.998 83.5569 259.759 83.7671C259.937 83.9624 260.051 84.2172 260.099 84.5316C260.163 84.9426 260.132 85.3807 260.007 85.8458C260.324 86.1433 260.509 86.4614 260.561 86.7999C260.603 87.0659 260.566 87.3068 260.451 87.5226C260.566 87.6286 260.639 87.7783 260.669 87.9717C260.691 88.1168 260.683 88.3037 260.645 88.5325C260.63 88.7576 260.622 88.9446 260.62 89.0934C260.835 89.2087 260.969 89.4356 261.022 89.7741C261.044 89.9192 261.034 90.094 260.992 90.2986C261.088 89.9619 261.333 89.7136 261.727 89.5535C261.715 89.1592 261.837 88.8309 262.092 88.5685C262.344 88.282 262.654 88.135 263.022 88.1275C262.983 87.7127 263.069 87.3156 263.281 86.9361C263.494 86.5566 263.877 86.324 264.431 86.2383C264.491 85.8328 264.666 85.4468 264.954 85.0803C265.242 84.7138 265.498 84.538 265.723 84.5528C265.961 84.0208 266.163 83.6553 266.329 83.4562C266.52 83.2534 266.82 83.046 267.231 82.8338C267.211 82.5399 267.332 82.2116 267.597 81.8488C267.857 81.4619 268.136 81.1958 268.434 81.0507C268.453 80.8498 268.608 80.5782 268.9 80.2359C269.192 79.8936 269.451 79.6554 269.677 79.5215C269.584 79.2388 269.678 78.89 269.958 78.4751C270.26 78.0324 270.593 77.7951 270.957 77.7634C271.018 77.3579 271.154 77.0398 271.364 76.8091C271.599 76.5747 271.861 76.4352 272.15 76.3905C272.535 76.3309 272.905 76.4098 273.259 76.6274C273.609 76.8208 273.809 77.0747 273.857 77.389C273.913 77.7517 273.783 78.1061 273.467 78.4521C273.517 79.4101 273.183 80.1179 272.465 80.5756C272.458 80.8491 272.353 81.1253 272.149 81.4043C271.946 81.6834 271.692 81.8713 271.386 81.9681C271.379 82.2415 271.189 82.6052 270.816 83.0592C270.462 83.4852 270.095 83.7401 269.714 83.8239C269.653 84.2294 269.462 84.6675 269.141 85.1381C268.815 85.5846 268.484 85.8339 268.147 85.8861C267.913 86.4423 267.713 86.8199 267.546 87.019C267.38 87.218 267.056 87.5157 266.575 87.912C267.259 88.0291 267.603 88.4215 267.608 89.0893C267.991 89.1785 268.33 89.3737 268.623 89.675C268.916 89.9763 269.052 90.3018 269.033 90.6515C269.464 90.7332 269.926 91.0084 270.417 91.4771C270.905 91.9216 271.155 92.341 271.167 92.7353C271.495 92.7836 271.867 92.9612 272.284 93.268C272.702 93.5748 272.964 93.918 273.072 94.2974C273.304 94.3606 273.578 94.541 273.895 94.8386C274.209 95.1119 274.406 95.3537 274.488 95.5639C274.844 95.6326 275.162 95.8558 275.442 96.2333C275.722 96.6109 275.908 97.0154 276 97.4469C276.207 97.5139 276.43 97.6775 276.667 97.9379C276.905 98.1983 277.08 98.4558 277.193 98.7107Z" fill="black"/>
</svg>
