<svg width="255" height="192" viewBox="0 0 255 192" fill="none" xmlns="http://www.w3.org/2000/svg">
<path d="M63 20.5001C110.2 4.50006 135.667 2.50006 142.5 3.50006C196.9 1.10011 228.5 22.8334 237.5 34C261.9 64.4 250 96.6667 241 109C235.4 122.2 191.667 135.167 170.5 140L190.5 184.5L137 148.5L70.5 156.5C19.7 156.1 4.33333 113.667 3 92.5C-0.2 56.5 41.6667 29.5 63 20.5001Z" fill="white" stroke="black" stroke-width="5"/>
<path d="M86.2482 90.5922C86.2482 90.5922 86.3918 90.624 86.6789 90.6875C86.9818 90.7483 87.1559 91.0956 87.2013 91.7292C87.2861 91.8431 87.342 91.9779 87.3691 92.1337C87.4125 92.3828 87.3452 92.6027 87.1673 92.7933C86.9894 92.9838 86.7663 93.1018 86.4982 93.1473C86.2616 93.1875 86.0444 93.1522 85.8465 93.0415C85.6616 92.9125 85.5448 92.7079 85.496 92.4276C85.317 92.4259 85.1126 92.3243 84.8827 92.1228C84.6658 91.9031 84.5356 91.6686 84.4923 91.4194C84.4814 91.3571 84.4809 91.261 84.4908 91.1311C84.3195 91.08 84.1504 90.9483 83.9836 90.7361C83.8298 90.5057 83.7062 90.2621 83.6127 90.0054C83.5193 89.7487 83.471 89.5645 83.4678 89.4528C83.2465 89.3941 83.0416 89.1964 82.853 88.8596C82.6775 88.5046 82.5825 88.192 82.5679 87.9219C82.4657 87.9874 82.3357 88.0335 82.1779 88.0603C81.8625 88.1138 81.5544 88.0699 81.2537 87.9285C81.0839 88.1658 80.794 88.3192 80.3839 88.3889C80.0053 88.4531 79.7209 88.4052 79.5307 88.2451C79.3555 88.4512 79.1495 88.5743 78.913 88.6145C78.7237 88.6466 78.5671 88.6331 78.4431 88.574C78.3462 88.6706 78.1874 88.7376 77.9666 88.7751C77.7773 88.8073 77.5826 88.8082 77.3825 88.7781C77.1824 88.7479 77.0176 88.6877 76.8882 88.5974C76.8724 88.6001 76.8357 88.6223 76.7781 88.6642C76.9242 88.944 77.0176 89.2008 77.0583 89.4344C77.1207 89.7926 76.9935 90.1348 76.6768 90.4612C76.7616 90.5751 76.8189 90.7177 76.8487 90.889C76.9084 91.2316 76.847 91.5787 76.6647 91.9304C76.4823 92.282 76.2834 92.4921 76.068 92.5608C76.1555 92.6902 76.2156 92.8484 76.2481 93.0353C76.3213 93.4558 76.2471 93.8692 76.0256 94.2756C75.8013 94.6664 75.4842 94.8967 75.0741 94.9663C74.9637 94.985 74.8756 94.9919 74.8097 94.9871C74.6047 95.0219 74.4361 94.9864 74.304 94.8805C74.1719 94.7747 74.0882 94.6205 74.053 94.418C74.0286 94.2779 74.0395 94.1077 74.0859 93.9074C74.0593 93.8478 74.0351 93.7557 74.0134 93.6311C73.9592 93.3196 74.0695 93.0203 74.3442 92.7331C74.3203 92.6891 74.3002 92.6203 74.284 92.5269C74.2433 92.2933 74.2578 92.0503 74.3276 91.798C74.4104 91.5274 74.5396 91.3371 74.7153 91.2271C74.6941 91.1986 74.6741 91.1298 74.6551 91.0208C74.609 90.7561 74.6192 90.4417 74.6857 90.0776C74.7495 89.698 74.8562 89.4714 75.0058 89.3979C74.855 88.7181 74.963 87.9862 75.33 87.2024C75.2676 86.8442 75.2645 86.5 75.3207 86.1697C75.3742 85.8239 75.5306 85.5569 75.7902 85.3685C75.7544 85.0699 75.7739 84.762 75.8485 84.4447C75.9232 84.1273 76.0218 83.8541 76.1442 83.6248C76.0671 83.4615 76.0163 83.3098 75.9919 83.1697C75.954 82.9516 75.9636 82.7736 76.0207 82.6356C76.091 82.4794 76.1786 82.3763 76.2836 82.3265C76.2569 82.2668 76.2328 82.1747 76.2111 82.0501C76.1514 81.7075 76.2302 81.4136 76.4473 81.1683L76.3992 81.0321C76.3586 80.7985 76.4166 80.5722 76.5733 80.3532C76.5467 80.2935 76.5239 80.2092 76.5049 80.1002C76.4561 79.8199 76.4783 79.5275 76.5714 79.2231C76.6646 78.9187 76.7898 78.705 76.947 78.5821C77.1631 78.1446 77.4289 77.899 77.7444 77.8455C77.8863 77.8214 78.0758 77.8373 78.3129 77.8933C78.7731 77.8312 79.1653 78.1254 79.4897 78.7758C79.6614 78.923 79.7992 79.1081 79.903 79.331C80.004 79.5383 80.0629 79.7368 80.0797 79.9263C80.2379 79.9957 80.3622 80.1029 80.4524 80.2479C80.5583 80.3903 80.6184 80.5484 80.6324 80.7224C80.8145 80.8358 80.9866 81.0311 81.1485 81.3082C81.3262 81.5827 81.4381 81.8524 81.4842 82.1171C81.5059 82.2417 81.5129 82.3287 81.5053 82.3781C81.6347 82.4684 81.7564 82.608 81.8705 82.7971C82.0004 82.9835 82.0803 83.1624 82.1101 83.3337C82.1264 83.4271 82.1307 83.4986 82.1231 83.548C82.3525 83.6533 82.5561 83.8432 82.7338 84.1177C82.9273 84.3895 83.0734 84.6694 83.1723 84.9572C83.2842 85.2269 83.3338 85.4189 83.3213 85.5332C83.3609 85.5746 83.468 85.6767 83.6425 85.8395C83.8143 85.9867 83.9559 86.147 84.0673 86.3205C84.176 86.4785 84.2439 86.6353 84.271 86.791C84.2954 86.9312 84.2973 87.0351 84.2766 87.1028C84.3532 87.1699 84.4405 87.2513 84.5383 87.3469C84.6334 87.427 84.7115 87.502 84.7723 87.5718C84.8332 87.6416 84.8731 87.7311 84.8921 87.8401C84.9111 87.9491 84.9168 88.0283 84.9091 88.0777C85.057 88.1809 85.1959 88.3257 85.3258 88.5121C85.4557 88.6984 85.5369 88.8851 85.5694 89.072C85.5965 89.2277 85.5853 89.3499 85.5358 89.4385C85.731 89.5336 85.8962 89.6899 86.0315 89.9075C86.1669 90.125 86.2391 90.3533 86.2482 90.5922ZM81.0123 86.2619C81.0276 86.1631 81.089 86.0965 81.1967 86.0622C81.3017 86.0123 81.3977 86.004 81.4847 86.0374C81.4369 85.9493 81.4089 85.8819 81.4008 85.8352C81.3791 85.7106 81.3944 85.6118 81.4466 85.5388C81.2857 85.4539 81.143 85.3338 81.0185 85.1785C80.9098 85.0206 80.8485 84.8546 80.8344 84.6806C80.7186 84.6682 80.6025 84.6078 80.4862 84.4992C80.3829 84.3725 80.3177 84.2312 80.2906 84.0755C80.2824 84.0287 80.2833 83.9404 80.2932 83.8105C79.9267 83.6642 79.7082 83.3886 79.6377 82.9837C79.6106 82.828 79.603 82.6449 79.6151 82.4344C79.5966 82.4215 79.5518 82.397 79.4806 82.361C79.4066 82.3094 79.3667 82.22 79.3608 82.0927C79.029 82.0528 78.8358 81.8291 78.7811 81.4215C78.6441 81.3806 78.5212 81.2812 78.4125 81.1233C78.5064 81.4761 78.4133 81.7806 78.1331 82.0366C78.1787 82.2052 78.181 82.4052 78.1401 82.6367C78.0992 82.8681 78.033 83.0477 77.9416 83.1754C77.9682 83.235 77.9937 83.3349 78.0181 83.4751C78.0805 83.8333 78.0134 84.3337 77.8167 84.9764C77.7677 85.1611 77.7317 85.3276 77.7088 85.4758C77.6728 85.6422 77.629 85.81 77.5772 85.9791C77.5412 86.1456 77.4748 86.2771 77.378 86.3737C77.4051 86.5294 77.3979 86.675 77.3565 86.8103L77.5417 86.7548C77.6995 86.728 77.8245 86.7469 77.917 86.8113C77.9507 86.7254 78.0386 86.6704 78.1805 86.6463C78.2752 86.6303 78.3502 86.6416 78.4057 86.6803C78.5706 86.508 78.7949 86.3977 79.0789 86.3496C79.2839 86.3148 79.4786 86.3138 79.6629 86.3466C79.8473 86.3795 80.0042 86.441 80.1336 86.5313C80.2615 86.3332 80.4122 86.2194 80.5857 86.19C80.6961 86.1713 80.8383 86.1952 81.0123 86.2619Z" fill="black"/>
<path d="M93.9248 91.9829C93.584 91.7041 93.381 91.3777 93.3159 91.004C93.2481 90.6146 93.3332 90.2635 93.571 89.9505C93.8061 89.622 94.0971 89.4283 94.4441 89.3694C94.5388 89.3533 94.6111 89.3491 94.6611 89.3566C94.7134 89.2836 94.755 89.1964 94.7861 89.0949C94.8302 88.9752 94.8691 88.8723 94.9029 88.7864C94.9524 88.6979 95.0297 88.6286 95.1347 88.5787C95.1243 88.6126 95.2008 88.3992 95.3642 87.9385C95.3235 87.7049 95.409 87.4499 95.6207 87.1734C95.5941 87.1138 95.5713 87.0295 95.5523 86.9205C95.5035 86.6401 95.5363 86.362 95.6506 86.086C95.7781 85.7918 95.9427 85.5715 96.1445 85.425C96.0728 85.2928 96.0125 85.0866 95.9637 84.8063C95.8878 84.3702 95.8996 84.1117 95.9992 84.0306C95.7589 83.863 95.6116 83.6234 95.5574 83.3119C95.5303 83.1562 95.5295 83.012 95.5552 82.8794C95.5938 82.7285 95.6551 82.6139 95.7389 82.5355C95.5247 82.3314 95.3688 81.949 95.2712 81.3883C95.1953 80.9522 95.1989 80.6469 95.2822 80.4725C95.229 80.3532 95.1983 80.2703 95.1902 80.2235C95.1414 79.9432 95.2019 79.6844 95.3717 79.4471C95.5545 79.1916 95.7879 79.0398 96.0718 78.9916C96.2295 78.9648 96.3954 78.9847 96.5694 79.0514C96.7838 78.7905 97.0409 78.6347 97.3405 78.5838C97.5298 78.5517 97.7022 78.5625 97.8577 78.6163C98.0095 78.4622 98.2905 78.3504 98.7006 78.2808C98.9687 78.2353 99.1778 78.2238 99.3279 78.2465C99.4797 78.0924 99.7055 77.99 100.005 77.9391C100.289 77.8909 100.497 77.9197 100.629 78.0256C100.81 77.8506 101.018 77.743 101.255 77.7029C101.46 77.6681 101.631 77.6711 101.768 77.712C101.973 77.5811 102.39 77.462 103.021 77.355C103.305 77.3068 103.578 77.3807 103.839 77.5769C104.098 77.7574 104.251 77.9801 104.297 78.2448C104.359 78.603 104.199 78.8948 103.816 79.1201C103.89 79.1717 103.934 79.2365 103.947 79.3143C103.958 79.3766 103.941 79.4676 103.897 79.5874C103.945 79.6754 104.014 79.792 104.104 79.937C104.21 80.0794 104.273 80.2051 104.292 80.3141C104.319 80.4698 104.295 80.6102 104.219 80.7353C104.272 80.8546 104.304 80.9453 104.315 81.0076C104.356 81.2412 104.307 81.474 104.169 81.7059C104.227 81.8563 104.262 81.9626 104.273 82.0249C104.303 82.1962 104.274 82.4016 104.185 82.6411C104.389 82.7829 104.515 82.994 104.564 83.2744C104.626 83.6326 104.549 83.9343 104.331 84.1796C104.537 84.337 104.681 84.6494 104.762 85.1166C104.838 85.5527 104.814 85.9256 104.689 86.2354C104.743 86.3546 104.775 86.4454 104.785 86.5077C104.829 86.7568 104.787 87.0285 104.659 87.3227C104.707 87.3147 104.77 87.3521 104.849 87.4348C104.926 87.502 104.992 87.5549 105.048 87.5936C105.229 87.5147 105.398 87.4619 105.556 87.4351C105.966 87.3655 106.315 87.4586 106.603 87.7143C106.904 87.9518 107.102 88.3431 107.197 88.8882C107.262 89.262 107.284 89.6191 107.262 89.9595C107.394 90.0654 107.483 90.2507 107.529 90.5154C107.586 90.8425 107.506 91.1287 107.289 91.374C107.38 91.7112 107.344 92.0621 107.18 92.4267C107.032 92.7885 106.792 92.9976 106.461 93.0538C106.272 93.0859 106.07 93.048 105.857 92.9399C105.588 92.7932 105.429 92.5797 105.38 92.2993L105.322 91.8281C105.256 91.7271 105.206 91.5832 105.174 91.3963C105.111 91.0381 105.198 90.7428 105.434 90.5104C105.32 90.4175 105.238 90.3191 105.187 90.2155C105.153 90.1091 105.118 89.9547 105.082 89.7523C104.896 89.8961 104.622 89.9988 104.259 90.0604C104.023 90.1005 103.79 90.116 103.561 90.1068C103.467 90.2189 103.317 90.2924 103.112 90.3272C102.812 90.3781 102.491 90.3525 102.149 90.2503C101.978 90.3914 101.814 90.4754 101.657 90.5021C101.515 90.5262 101.324 90.5025 101.084 90.431C100.995 90.4782 100.927 90.5058 100.879 90.5139C100.674 90.5487 100.466 90.5198 100.255 90.4274C100.156 90.5084 100.043 90.5596 99.9165 90.5811C99.7904 90.6025 99.6666 90.5914 99.5454 90.5478C99.4229 90.7771 99.1566 90.9265 98.7465 90.9961C98.5415 91.0309 98.3402 91.041 98.1428 91.0264C97.9427 90.9963 97.7872 90.9425 97.6763 90.8651C97.5196 91.0841 97.315 91.2151 97.0626 91.2579C96.9049 91.2847 96.7312 91.2661 96.5414 91.2021C96.4625 91.2154 96.3562 91.2576 96.2224 91.3284C96.1016 91.3809 95.9836 91.4491 95.8682 91.5328C95.9089 91.7664 95.9112 91.9664 95.8753 92.1329C96.1575 92.2614 96.3297 92.5047 96.3921 92.8629C96.4057 92.9408 96.4102 93.0602 96.4058 93.2213C96.4775 93.3535 96.5229 93.474 96.5418 93.5831C96.6015 93.9257 96.5241 94.2274 96.3097 94.4883C96.1138 94.7621 95.8383 94.9051 95.4831 94.9172C95.1835 94.9681 94.9069 94.9188 94.6536 94.7694C94.4029 94.6356 94.2518 94.4207 94.2003 94.1248C94.1542 93.8601 94.1818 93.5988 94.2831 93.3411C94.1352 93.238 94.026 92.9839 93.9555 92.579C93.9122 92.3298 93.9019 92.1311 93.9248 91.9829ZM100.359 79.9715C100.263 80.1642 100.073 80.2847 99.7886 80.3329C99.6151 80.3623 99.4454 80.3671 99.2796 80.3471C99.111 80.3116 99.0055 80.2654 98.9631 80.2084C98.9326 80.406 98.7753 80.5289 98.4914 80.5771C98.3495 80.6012 98.2034 80.6019 98.0534 80.5793C97.8542 80.7414 97.6995 80.8318 97.5891 80.8505C97.526 80.8613 97.4509 80.8499 97.3639 80.8166L97.2937 80.9728C97.4502 81.2188 97.5596 81.521 97.622 81.8792C97.6844 82.2374 97.6888 82.5894 97.6353 82.9351C97.8838 83.1495 98.0405 83.4436 98.1056 83.8174C98.1788 84.2379 98.1414 84.629 97.9933 84.9909C98.0556 85.3491 98.0299 85.7142 97.916 86.0863C97.818 86.4557 97.668 86.7137 97.4662 86.8602C97.5667 86.9714 97.6306 87.1048 97.6577 87.2606C97.6821 87.4007 97.6592 87.5489 97.5889 87.7052C97.5345 87.8587 97.443 87.9865 97.3146 88.0885C97.3418 88.2442 97.3216 88.408 97.254 88.5798C97.1865 88.7516 97.0951 88.8793 96.9797 88.963C97.1321 88.9051 97.2634 88.8668 97.3738 88.848C97.5789 88.8132 97.7815 88.8109 97.9816 88.8411C98.1948 88.853 98.3489 88.899 98.444 88.979C98.5508 88.7525 98.7382 88.6165 99.0063 88.5709C99.1956 88.5388 99.3944 88.5612 99.6026 88.6381C99.7022 88.557 99.8072 88.5072 99.9176 88.4884C100.044 88.467 100.167 88.4781 100.289 88.5216C100.441 88.3676 100.619 88.2732 100.824 88.2383C101.029 88.2035 101.245 88.231 101.472 88.3208C101.59 88.2527 101.72 88.2066 101.862 88.1825C102.146 88.1343 102.368 88.2007 102.53 88.3817C102.598 88.3061 102.719 88.2535 102.892 88.224C102.736 88.0741 102.632 87.8512 102.581 87.5553C102.518 87.1971 102.566 86.9085 102.722 86.6895C102.642 86.4145 102.591 86.2148 102.569 86.0902C102.499 85.6852 102.542 85.3733 102.699 85.1543C102.463 84.9216 102.318 84.6496 102.264 84.3381C102.21 84.0266 102.261 83.7614 102.418 83.5424C102.338 83.3635 102.285 83.1962 102.257 83.0405C102.214 82.7913 102.247 82.5612 102.356 82.3502C102.274 82.2519 102.217 82.1093 102.185 81.9224C102.149 81.72 102.154 81.5589 102.198 81.4391C102.11 81.3097 102.05 81.1515 102.018 80.9646C101.974 80.7154 102.005 80.5179 102.109 80.3718C102.062 80.2838 102.032 80.2086 102.021 80.1463C102.008 80.0684 102.004 79.997 102.009 79.932C102.011 79.8515 102.005 79.7722 101.992 79.6944L101.755 79.7345C101.596 80.0341 101.375 80.208 101.091 80.2562C100.949 80.2803 100.809 80.2719 100.672 80.231C100.548 80.1719 100.444 80.0854 100.359 79.9715Z" fill="black"/>
<path d="M107.298 80.2849C107.136 80.1038 107.039 79.9199 107.007 79.733C106.958 79.4527 107.012 79.203 107.168 78.984C107.175 78.7423 107.248 78.5056 107.386 78.2737C107.521 78.0262 107.682 77.8305 107.868 77.6867C108.067 77.5246 108.233 77.4484 108.364 77.4582C108.445 77.2681 108.639 77.0749 108.945 76.8785C109.25 76.6665 109.544 76.5365 109.827 76.4883C109.891 76.4776 109.988 76.4771 110.12 76.4868C110.261 76.2705 110.473 76.1382 110.757 76.09C110.978 76.0525 111.146 76.088 111.263 76.1966C111.443 76.0216 111.699 75.906 112.03 75.8498C112.425 75.7828 112.788 75.8174 113.12 75.9534C113.468 76.0867 113.693 76.3051 113.795 76.6086C114.095 76.6538 114.333 76.7656 114.511 76.944C114.701 77.1041 114.842 77.3528 114.933 77.6901C115.173 77.8577 115.365 78.0737 115.508 78.338C115.649 78.5867 115.744 78.8512 115.793 79.1315C115.855 79.4897 115.842 79.7885 115.754 80.028C115.891 80.165 116.027 80.3825 116.16 80.6806C116.293 80.9787 116.385 81.2757 116.437 81.5716C116.458 81.6962 116.47 81.8546 116.471 82.0469C116.622 82.2617 116.704 82.4081 116.718 82.486C116.726 82.5327 116.721 82.6457 116.704 82.8251C116.73 82.8847 116.76 82.9599 116.792 83.0506C116.821 83.1258 116.847 83.2257 116.868 83.3503C116.909 83.5839 116.859 83.8089 116.718 84.0252C116.811 84.1858 116.879 84.3907 116.922 84.6399C116.979 84.967 116.946 85.2451 116.824 85.4743C116.866 85.5313 116.9 85.6298 116.924 85.77C116.981 86.0971 116.895 86.3924 116.664 86.6559C116.639 86.8847 116.551 87.076 116.399 87.2301C116.244 87.3686 116.065 87.4552 115.86 87.49C115.655 87.5248 115.478 87.4906 115.33 87.3874C114.95 87.6284 114.634 87.7702 114.381 87.8131C114.255 87.8345 114.159 87.8428 114.093 87.8379C113.705 88.0321 113.369 88.1533 113.085 88.2015C112.88 88.2363 112.589 88.2456 112.213 88.2293C112.014 88.3914 111.812 88.4898 111.606 88.5246C111.417 88.5567 111.234 88.5317 111.057 88.4494C110.981 88.4784 110.864 88.5063 110.707 88.533C110.092 88.6374 109.571 88.4452 109.145 87.9564C108.486 87.7155 108.097 87.2524 107.977 86.5672C107.947 86.3958 107.932 86.2621 107.932 86.166C107.774 86.0967 107.669 85.914 107.617 85.6181C107.582 85.4157 107.59 85.2299 107.642 85.0607C107.53 84.7911 107.467 84.6174 107.454 84.5395C107.375 84.0879 107.525 83.6455 107.905 83.2123C108.016 82.8246 108.171 82.5498 108.37 82.3877C108.585 82.223 108.86 82.08 109.197 81.9588C109.245 81.678 109.435 81.4614 109.766 81.309C110.096 81.1567 110.43 81.068 110.767 81.0429C110.85 80.9645 110.975 80.8873 111.14 80.8111C111.303 80.7194 111.471 80.6588 111.645 80.6293C111.834 80.5972 112.005 80.6002 112.158 80.6384C112.184 80.6019 112.26 80.573 112.386 80.5515C112.481 80.5355 112.577 80.5272 112.674 80.5267C112.772 80.5262 112.839 80.5389 112.876 80.5647C113.048 80.2468 113.284 80.0625 113.583 80.0116C113.678 79.9956 113.777 80.0029 113.879 80.0335L113.867 79.9634C113.821 79.6987 113.844 79.5024 113.935 79.3747C113.769 79.3547 113.573 79.2518 113.345 79.0659C113.131 78.8617 112.992 78.6689 112.928 78.4874C112.657 78.4212 112.452 78.2715 112.314 78.0384C112.149 78.2107 111.941 78.3183 111.688 78.3611C111.515 78.3906 111.341 78.3719 111.167 78.3053C110.912 78.4287 110.744 78.4893 110.663 78.4871C110.469 78.6803 110.238 78.7997 109.97 78.8452C109.788 79.1968 109.536 79.3838 109.215 79.4062C109.116 79.6795 108.957 79.931 108.737 80.1607C108.533 80.3878 108.305 80.5227 108.053 80.5656C107.769 80.6138 107.517 80.5202 107.298 80.2849ZM109.506 85.2735C109.728 85.4282 109.853 85.5913 109.883 85.7626C109.905 85.8872 109.901 86.0483 109.87 86.2459C109.933 86.2352 110.027 86.2594 110.151 86.3185C110.288 86.3594 110.371 86.4174 110.4 86.4926C110.518 86.4245 110.672 86.3743 110.861 86.3422C111.208 86.2833 111.45 86.3223 111.588 86.4593C111.751 86.3676 111.927 86.3057 112.116 86.2735C112.415 86.2227 112.667 86.2682 112.87 86.41C112.975 86.264 113.162 86.128 113.433 86.0019C113.719 85.8732 113.98 85.7887 114.217 85.7486C114.31 85.4441 114.534 85.2378 114.888 85.1295C114.901 85.0151 114.963 84.8602 115.075 84.6648C114.996 84.5821 114.919 84.4668 114.845 84.3191C114.77 84.1714 114.719 84.0197 114.692 83.864C114.635 83.5369 114.672 83.2821 114.803 83.0996C114.591 82.911 114.46 82.6688 114.408 82.3729C114.373 82.1704 114.375 81.9938 114.414 81.8429C114.301 81.9422 114.166 82.0052 114.008 82.032C113.866 82.0561 113.738 82.0216 113.625 81.9287C113.507 82.093 113.322 82.1965 113.07 82.2393C112.912 82.2661 112.748 82.254 112.576 82.2029C112.433 82.4036 112.235 82.5254 111.982 82.5683C111.903 82.5816 111.78 82.5706 111.611 82.5351C111.415 82.8088 111.214 82.9151 111.009 82.8537C110.952 83.0878 110.852 83.2572 110.708 83.3619C110.579 83.4638 110.381 83.5376 110.113 83.5831C110.08 83.7651 109.994 83.924 109.855 84.0598C109.732 84.1929 109.589 84.2573 109.426 84.2529C109.523 84.3485 109.585 84.4664 109.609 84.6066C109.65 84.8402 109.615 85.0625 109.506 85.2735Z" fill="black"/>
<path d="M127.5 74.7632C127.719 74.9024 127.864 75.1744 127.934 75.5794C127.997 75.9376 127.976 76.2377 127.872 76.4799C127.978 76.6222 128.042 76.7557 128.063 76.8803C128.107 77.1295 128.057 77.3544 127.913 77.5552C128.132 77.6944 128.262 77.8808 128.303 78.1144C128.341 78.3324 128.284 78.6626 128.134 79.105C128.317 79.3146 128.428 79.5361 128.469 79.7697C128.499 79.941 128.492 80.1346 128.448 80.3505C128.567 80.4746 128.642 80.6223 128.672 80.7936C128.71 81.0116 128.66 81.2366 128.521 81.4685C128.73 81.5454 128.858 81.724 128.907 82.0043C128.945 82.2224 128.923 82.4264 128.843 82.6165C128.957 82.8055 129.026 82.9702 129.051 83.1103C129.091 83.3439 129.04 83.5611 128.896 83.7619C129.016 83.9821 129.09 84.1779 129.12 84.3492C129.177 84.6762 129.133 84.9804 128.987 85.2617C128.854 85.5248 128.681 85.6984 128.469 85.7826C128.424 85.8062 128.346 85.8274 128.236 85.8461C127.952 85.8943 127.712 85.8228 127.517 85.6315C127.337 85.4376 127.222 85.2005 127.174 84.9201C127.163 84.8578 127.118 84.6489 127.04 84.2934C126.978 83.9352 126.981 83.6299 127.051 83.3776C126.908 83.2094 126.823 83.0475 126.796 82.8918C126.763 82.7049 126.789 82.5242 126.872 82.3497C126.787 82.2358 126.723 82.0543 126.68 81.8051C126.626 81.4936 126.64 81.2507 126.723 81.0762C126.681 81.0192 126.652 80.944 126.635 80.8506C126.622 80.7727 126.623 80.6844 126.638 80.5856C126.651 80.4712 126.642 80.3764 126.613 80.3012L126.39 79.8581C126.358 79.7674 126.328 79.6441 126.301 79.4884C126.252 79.208 126.253 78.9353 126.305 78.67C126.133 78.5228 126.022 78.309 125.974 78.0287C125.922 77.7328 125.946 77.4482 126.044 77.1749C125.941 77.0481 125.872 76.8835 125.836 76.6811C125.78 76.354 125.831 76.0407 125.989 75.7411C125.733 76.0412 125.297 76.2434 124.682 76.3478C124.414 76.3933 124.174 76.4101 123.96 76.3982C123.798 76.49 123.614 76.5533 123.409 76.5881C123.251 76.6148 123.073 76.6209 122.876 76.6063C122.742 76.6771 122.606 76.7324 122.466 76.7721C122.343 76.8091 122.187 76.8436 121.997 76.8757C122.056 77.0261 122.089 77.1247 122.098 77.1714C122.125 77.3271 122.082 77.5027 121.97 77.6981C122.041 77.7341 122.111 77.8104 122.18 77.927C122.249 78.0435 122.296 78.1719 122.321 78.3121C122.364 78.5613 122.344 78.7731 122.261 78.9476C122.367 79.0899 122.435 79.2467 122.464 79.4181C122.483 79.5271 122.491 79.6621 122.486 79.8232C122.758 79.9855 122.92 80.2146 122.971 80.5105C123.006 80.713 122.979 80.9262 122.888 81.15C123.025 81.287 123.116 81.4801 123.159 81.7293C123.192 81.9162 123.183 82.102 123.134 82.2867C123.085 82.4714 122.989 82.6161 122.845 82.7207C122.944 83.2008 122.932 83.5958 122.807 83.9056C122.683 84.2153 122.434 84.514 122.062 84.8017C122.045 85.1733 121.846 85.5679 121.464 85.9855C121.082 86.4031 120.698 86.7167 120.313 86.9265C120.096 87.1718 119.821 87.3226 119.49 87.3788C119.238 87.4216 119.006 87.3968 118.795 87.3044C118.597 87.1936 118.477 87.0137 118.433 86.7645C118.414 86.6555 118.416 86.5269 118.439 86.3787C118.443 86.1215 118.556 85.8377 118.778 85.5275C118.997 85.2016 119.259 84.9327 119.563 84.7208C119.88 84.4905 120.146 84.3814 120.359 84.3933C120.4 84.1619 120.479 83.916 120.596 83.6556C120.726 83.377 120.862 83.1775 121.003 83.0573C120.897 82.4499 120.986 82.026 121.269 81.7856C121.187 81.6873 121.115 81.459 121.052 81.1008C121.009 80.8517 121.001 80.6685 121.03 80.5515C120.699 80.2388 120.493 79.8489 120.412 79.3816C120.369 79.1325 120.373 78.9233 120.424 78.7542C120.268 78.6043 120.162 78.3658 120.105 78.0388C120.07 77.8363 120.075 77.6349 120.122 77.4347C120.04 77.3363 119.982 77.1937 119.95 77.0069C119.909 76.7732 119.926 76.5458 120.001 76.3246C120.074 76.0879 120.207 75.9209 120.401 75.8238C120.455 75.5742 120.606 75.3643 120.852 75.1942C121.114 75.0214 121.398 74.9251 121.703 74.9054C121.842 74.7696 122.014 74.6843 122.219 74.6495C122.471 74.6067 122.704 74.6393 122.918 74.7473C123.151 74.5954 123.386 74.4994 123.623 74.4593C123.907 74.4111 124.155 74.441 124.369 74.549C124.458 74.4057 124.598 74.2777 124.789 74.165C124.994 74.0341 125.191 73.9526 125.38 73.9205C125.417 73.8501 125.486 73.7822 125.588 73.7168C125.688 73.6357 125.801 73.5845 125.927 73.5631C126.022 73.547 126.094 73.5428 126.144 73.5503C126.288 73.4457 126.423 73.3826 126.549 73.3612C126.802 73.3184 127.032 73.3835 127.241 73.5565C127.463 73.7112 127.594 73.9054 127.635 74.139C127.673 74.3571 127.628 74.5651 127.5 74.7632Z" fill="black"/>
<path d="M130.73 74.9365C130.509 74.5089 130.377 74.1705 130.334 73.9214C130.269 73.5476 130.338 73.2472 130.543 73.0201C130.673 72.8376 130.857 72.7263 131.093 72.6861C131.267 72.6567 131.433 72.6766 131.591 72.746C131.746 72.7997 131.877 72.8978 131.983 73.0401C132.068 73.154 132.137 73.3667 132.192 73.6782C132.259 74.0675 132.286 74.3597 132.271 74.5546C132.567 74.7609 132.761 75.1289 132.853 75.6584C132.905 75.9543 132.899 76.2037 132.837 76.4067C132.943 76.549 133.015 76.6811 133.052 76.8031C133.097 76.7795 133.159 76.761 133.238 76.7476C133.316 76.7342 133.422 76.7324 133.553 76.7421C133.687 76.5751 133.911 76.4649 134.227 76.4114C134.384 76.3846 134.595 76.3809 134.858 76.4004C135.036 76.2098 135.29 76.0865 135.622 76.0302C136.063 75.9553 136.394 76.0354 136.614 76.2707C136.816 76.2204 137.011 76.2194 137.198 76.2678C137.398 76.298 137.557 76.3751 137.676 76.4992C137.929 76.4564 138.151 76.5228 138.344 76.6985C138.55 76.8559 138.708 77.0617 138.817 77.3157C138.939 77.5515 139 77.7577 138.998 77.9344C139.191 78.014 139.311 78.1939 139.36 78.4742C139.384 78.6144 139.394 78.717 139.389 78.7819C139.629 78.9496 139.77 79.1502 139.811 79.3838C139.849 79.6019 139.793 79.7957 139.644 79.9653C139.719 80.2091 139.719 80.4417 139.644 80.6629C139.568 80.8841 139.396 81.0577 139.125 81.1838C139.116 81.4098 139.022 81.6181 138.844 81.8087C138.877 82.0917 138.843 82.362 138.742 82.6197C138.654 82.8592 138.507 83.0444 138.303 83.1753C138.154 83.4411 137.944 83.6772 137.671 83.8838C137.399 84.0904 137.098 84.2296 136.769 84.3014C136.751 84.3847 136.685 84.4681 136.569 84.5519C136.467 84.6173 136.375 84.649 136.294 84.6468C136.013 84.9028 135.755 85.0509 135.518 85.091C135.266 85.1339 135.043 85.0674 134.85 84.8917C134.712 85.0275 134.548 85.1115 134.358 85.1436C134.09 85.1891 133.836 85.1281 133.596 84.9604C133.175 85.0638 132.829 84.9864 132.557 84.7279C132.284 84.4695 132.11 84.1223 132.034 83.6862C131.958 83.2501 131.986 82.8525 132.119 82.4933C131.907 82.3047 131.783 82.1014 131.745 81.8834C131.701 81.6342 131.762 81.4235 131.927 81.2512C131.687 81.0835 131.545 80.8751 131.501 80.6259C131.453 80.3456 131.525 80.1088 131.719 79.9156C131.547 79.7684 131.442 79.5858 131.404 79.3677C131.363 79.1341 131.412 78.9013 131.55 78.6694C131.376 78.5066 131.255 78.2306 131.187 77.8412C131.144 77.592 131.152 77.4063 131.212 77.2839C131.138 77.2323 131.065 77.1404 130.993 77.0083C130.922 76.8761 130.874 76.74 130.849 76.5998C130.825 76.4597 130.827 76.3311 130.855 76.214C130.881 76.0814 130.932 76.0006 131.008 75.9716C130.931 75.9045 130.858 75.8126 130.789 75.696C130.736 75.5768 130.7 75.4627 130.681 75.3537C130.648 75.1668 130.665 75.0277 130.73 74.9365ZM134.713 78.2287C134.586 78.4268 134.364 78.5527 134.048 78.6062C133.828 78.6437 133.614 78.6318 133.409 78.5705C133.439 78.7418 133.417 78.8977 133.344 79.0384C133.45 79.1808 133.523 79.3687 133.564 79.6023C133.608 79.8515 133.606 80.0763 133.56 80.2765C133.679 80.4006 133.757 80.5717 133.795 80.7897C133.833 81.0078 133.827 81.2494 133.775 81.5147C133.968 81.6903 134.092 81.9339 134.146 82.2454C134.206 82.588 134.146 82.8949 133.965 83.166C133.997 83.1606 134.031 83.1708 134.068 83.1966C134.184 83.1129 134.32 83.0577 134.478 83.0309C134.572 83.0148 134.693 83.0103 134.841 83.0174C134.988 83.0244 135.095 83.0304 135.161 83.0353C135.527 82.7165 135.981 82.5271 136.523 82.4672C136.504 82.3582 136.53 82.2256 136.6 82.0694C136.686 81.9105 136.796 81.7956 136.93 81.7248C136.934 81.5637 136.965 81.4142 137.022 81.2762C137.079 81.1382 137.162 81.0521 137.27 81.0177C137.245 80.8776 137.264 80.706 137.326 80.5031C137.404 80.2974 137.503 80.1683 137.624 80.1158L137.6 79.9756C137.57 79.8043 137.576 79.651 137.617 79.5157L137.561 79.3328C137.542 79.2238 137.548 79.1186 137.579 79.0171C137.204 78.728 136.993 78.4511 136.947 78.1863C136.792 78.2287 136.616 78.2426 136.418 78.228C136.221 78.2134 136.04 78.1558 135.877 78.0553C135.767 78.1702 135.633 78.241 135.475 78.2678C135.365 78.2865 135.227 78.2859 135.061 78.266C134.911 78.2433 134.795 78.2309 134.713 78.2287Z" fill="black"/>
<path d="M156.014 75.3588C156.122 75.4206 156.229 75.5707 156.336 75.8092C156.439 76.0321 156.516 76.2837 156.565 76.564C156.641 77.0001 156.638 77.3131 156.558 77.5032C156.709 77.7181 156.818 78.0202 156.886 78.4095C156.962 78.8456 156.965 79.1898 156.895 79.4422C157.014 79.5663 157.089 79.714 157.118 79.8853C157.154 80.0877 157.123 80.2853 157.027 80.4781C156.944 80.6525 156.805 80.7883 156.611 80.8854C156.464 81.0706 156.162 81.202 155.705 81.2797C155.5 81.3145 155.33 81.3192 155.196 81.2939C155.023 81.4195 154.857 81.4957 154.7 81.5225C154.542 81.5492 154.387 81.5435 154.234 81.5053C154.094 81.4489 153.991 81.3701 153.925 81.2692C153.826 81.4463 153.524 81.5777 153.019 81.6634C152.704 81.717 152.424 81.7405 152.179 81.7339C152.006 81.8595 151.738 81.953 151.375 82.0146C150.949 82.0869 150.631 82.0768 150.42 81.9844C150.286 82.0552 150.109 82.1093 149.888 82.1468C149.714 82.1763 149.587 82.1899 149.505 82.1877C149.359 82.469 149.089 82.6431 148.695 82.7101C148.506 82.7422 148.319 82.7418 148.135 82.709C147.95 82.6761 147.811 82.6197 147.715 82.5396C147.485 82.8032 147.189 82.9658 146.826 83.0273C146.542 83.0755 146.289 83.0222 146.067 82.8675C145.944 82.9045 145.826 82.9246 145.713 82.9277C145.556 83.1467 145.359 83.2763 145.123 83.3165C144.886 83.3566 144.62 83.3216 144.325 83.2114C144.043 83.0829 143.796 82.9244 143.584 82.7358C143.468 82.6273 143.359 82.4213 143.257 82.1178C143.156 81.8144 143.077 81.4991 143.02 81.1721C142.965 80.8606 142.954 80.6541 142.985 80.5527C142.805 80.3587 142.685 80.0904 142.626 79.7478C142.55 79.3117 142.603 78.9179 142.785 78.5663C142.503 78.3417 142.331 78.058 142.272 77.7154C142.217 77.4039 142.261 77.092 142.401 76.7795C142.132 76.6328 141.963 76.3648 141.896 75.9754C141.828 75.5861 141.892 75.2545 142.088 74.9807C141.85 74.8286 141.698 74.5579 141.63 74.1686C141.619 74.1063 141.613 73.931 141.611 73.6426C141.526 73.3365 141.475 73.1367 141.458 73.0432C141.409 72.7629 141.404 72.4993 141.442 72.2523C141.394 72.0681 141.382 71.8616 141.408 71.6328C141.446 71.3858 141.542 71.1931 141.697 71.0546C141.812 70.9709 141.948 70.9157 142.106 70.8889C142.374 70.8434 142.614 70.9149 142.826 71.1035C143.037 71.2921 143.172 71.598 143.229 72.0211C143.291 72.2832 143.349 72.6181 143.404 73.0257C143.474 73.4306 143.501 73.7227 143.483 73.9021C143.594 73.9794 143.687 74.092 143.761 74.2397C143.852 74.3847 143.912 74.5429 143.941 74.7142C144.007 75.088 143.937 75.3884 143.733 75.6154C144.018 75.8556 144.194 76.1626 144.259 76.5364C144.307 76.8167 144.281 77.0857 144.18 77.3434C144.444 77.5551 144.607 77.8401 144.67 78.1983C144.738 78.5876 144.64 78.957 144.376 79.3065C144.597 79.4612 144.738 79.7099 144.798 80.0525C144.849 80.3484 144.815 80.6188 144.695 80.8636C144.778 80.9619 144.815 81.0838 144.808 81.2293C144.942 81.1585 145.072 81.1124 145.198 81.091C145.356 81.0642 145.514 81.0855 145.672 81.1548C145.771 81.0738 145.884 81.0226 146.01 81.0012C146.215 80.9664 146.42 81.0199 146.623 81.1617C146.78 80.9427 147.016 80.8064 147.331 80.7529C147.647 80.6994 147.955 80.7433 148.255 80.8846C148.326 80.7284 148.434 80.6058 148.581 80.5167C148.725 80.412 148.887 80.3606 149.066 80.3623C149.007 80.2119 148.971 80.0978 148.957 80.0199C148.914 79.7707 148.948 79.5004 149.06 79.2088C148.779 78.9037 148.598 78.5175 148.517 78.0503C148.43 77.5519 148.495 77.1801 148.713 76.9348C148.565 76.8316 148.436 76.7011 148.328 76.5431C148.232 76.367 148.168 76.1854 148.135 75.9985C148.079 75.6715 148.147 75.4114 148.341 75.2181C148.018 74.9522 147.819 74.6012 147.743 74.1651C147.678 73.7913 147.737 73.4767 147.92 73.2211C147.656 73.1056 147.504 72.931 147.463 72.6974C147.428 72.4949 147.499 72.2503 147.677 71.9637C147.528 71.6683 147.438 71.4349 147.409 71.2636C147.354 70.9521 147.463 70.6931 147.736 70.4865C147.883 70.3974 148.004 70.3448 148.098 70.3288C148.319 70.2913 148.53 70.3357 148.73 70.462C148.947 70.5856 149.083 70.7628 149.14 70.9938C149.375 71.2264 149.521 71.5062 149.578 71.8333C149.613 72.0358 149.589 72.2242 149.506 72.3987C149.618 72.5722 149.698 72.7991 149.746 73.0795C149.806 73.4221 149.762 73.7263 149.613 73.992C149.755 74.064 149.884 74.1946 149.998 74.3836C150.125 74.5545 150.208 74.7489 150.246 74.9669C150.305 75.3096 150.25 75.5995 150.08 75.8368C150.323 75.9239 150.489 76.2244 150.578 76.7383C150.671 77.2679 150.627 77.7162 150.447 78.0834C150.635 78.228 150.758 78.4716 150.818 78.8142C150.845 78.9699 150.858 79.0881 150.855 79.1686L150.92 79.3982C150.958 79.6162 150.93 79.8775 150.837 80.1819C150.981 80.0772 151.25 79.9915 151.645 79.9245C152.007 79.8629 152.272 79.8421 152.438 79.8621C152.618 79.6871 152.914 79.5648 153.324 79.4952C153.781 79.4176 154.177 79.4545 154.512 79.6061C154.63 79.538 154.745 79.4945 154.855 79.4758C154.934 79.4624 154.998 79.4595 155.048 79.467C155.024 79.423 155.004 79.3543 154.988 79.2608C154.947 79.0272 154.986 78.7802 155.103 78.5198C154.897 78.3624 154.76 78.089 154.692 77.6996C154.657 77.4972 154.648 77.3063 154.665 77.1269C154.696 76.9293 154.742 76.7771 154.805 76.6703C154.684 76.6267 154.567 76.5182 154.456 76.3447C154.342 76.1556 154.267 75.9599 154.232 75.7574C154.199 75.5705 154.204 75.4094 154.245 75.2741C154.121 75.1189 154.035 74.9089 153.989 74.6441C153.957 74.4572 153.951 74.2819 153.971 74.1181C153.988 73.9388 154.031 73.8113 154.099 73.7356C153.943 73.5857 153.847 73.4095 153.812 73.2071C153.785 73.0513 153.792 72.9058 153.834 72.7705C153.728 72.6282 153.662 72.4869 153.638 72.3467C153.614 72.2066 153.627 72.0519 153.679 71.8828C153.531 71.6835 153.427 71.4125 153.367 71.0699C153.288 70.6183 153.326 70.2752 153.48 70.0406C153.489 69.8145 153.556 69.6349 153.679 69.5018C153.802 69.3687 153.95 69.2874 154.123 69.2579C154.376 69.2151 154.619 69.2619 154.854 69.3985C155.105 69.5323 155.25 69.716 155.291 69.9496C155.329 70.1676 155.276 70.377 155.133 70.5778C155.338 70.6391 155.469 70.8333 155.526 71.1604C155.572 71.4251 155.559 71.6759 155.487 71.9127C155.643 72.0626 155.738 72.2387 155.774 72.4412C155.801 72.5969 155.792 72.7347 155.748 72.8544C155.87 72.9941 155.954 73.1963 156 73.461C156.038 73.6791 156.042 73.8869 156.011 74.0845C155.981 74.2821 155.917 74.4292 155.82 74.5258C155.939 74.6499 156.012 74.7898 156.039 74.9456C156.058 75.0546 156.05 75.1923 156.014 75.3588Z" fill="black"/>
<path d="M167.834 69.9371C168.021 69.9855 168.211 70.1456 168.405 70.4174C168.614 70.6866 168.746 70.9769 168.8 71.2883C168.892 71.8178 168.718 72.2162 168.277 72.4834C168.189 72.7229 168.045 72.9236 167.846 73.0857C167.663 73.2451 167.445 73.3462 167.193 73.3891C166.988 73.4239 166.766 73.4133 166.529 73.3573C166.417 73.4566 166.255 73.5561 166.045 73.6559C165.835 73.7557 165.62 73.8243 165.399 73.8618C165.021 73.9261 164.747 73.8924 164.578 73.7607C164.442 73.9121 164.2 74.0172 163.853 74.0761C163.601 74.119 163.364 74.1111 163.143 74.0524C162.941 74.1989 162.698 74.2963 162.414 74.3445C162.146 74.39 161.918 74.3885 161.731 74.3401C161.598 74.5071 161.287 74.632 160.798 74.715C160.53 74.7605 160.344 74.768 160.242 74.7373C160.367 75.1809 160.363 75.5265 160.227 75.774C160.578 76.019 160.752 76.3182 160.749 76.6715C160.767 76.6844 160.865 76.732 161.042 76.8142C161.218 76.8965 161.36 77.0568 161.466 77.2953C161.64 77.2658 161.81 77.3092 161.976 77.4252C162.158 77.5386 162.277 77.6627 162.333 77.7975C162.386 77.7245 162.506 77.672 162.696 77.6398C162.838 77.6157 162.968 77.6177 163.086 77.6457C163.205 77.6736 163.277 77.7174 163.304 77.7771C163.404 77.696 163.524 77.6434 163.666 77.6194C163.871 77.5845 164.073 77.6225 164.271 77.7332C164.423 77.6753 164.539 77.6396 164.618 77.6263C164.775 77.5995 164.913 77.6001 165.032 77.6281C165.058 77.4954 165.163 77.3572 165.349 77.2134C165.533 77.054 165.736 76.9633 165.96 76.9414C166.059 76.7643 166.211 76.6102 166.415 76.4793C166.62 76.3484 166.832 76.2642 167.053 76.2267C167.479 76.1544 167.817 76.2735 168.065 76.584C168.15 76.6979 168.208 76.8405 168.237 77.0118C168.302 77.3856 168.18 77.7109 167.871 77.9879C167.801 78.048 167.682 78.1564 167.514 78.3131C167.344 78.4543 167.185 78.5694 167.038 78.6584C166.891 78.7475 166.755 78.8027 166.629 78.8242C166.441 79.1447 166.142 79.3397 165.732 79.4093C165.543 79.4414 165.398 79.45 165.298 79.4349C165.136 79.6227 164.873 79.7475 164.51 79.8091C164.179 79.8653 163.94 79.8418 163.792 79.7386C163.689 79.8041 163.583 79.8462 163.473 79.8649C163.252 79.9024 163.033 79.8594 162.817 79.7357C162.021 79.919 161.433 79.7622 161.054 79.2653C160.833 79.3028 160.558 79.2132 160.228 78.9967C159.911 78.7619 159.719 78.5459 159.652 78.3488C159.265 78.2702 158.992 78.0521 158.832 77.6944C158.795 77.5724 158.774 77.4556 158.771 77.3439C158.705 77.3391 158.639 77.2862 158.573 77.1852C158.52 77.0659 158.482 76.944 158.46 76.8194C158.444 76.726 158.441 76.6623 158.452 76.6285C158.26 76.2762 158.138 75.9443 158.083 75.6328C158.029 75.3213 158.043 75.0303 158.126 74.7597C158.002 74.6044 157.922 74.4255 157.887 74.2231C157.843 73.9739 157.855 73.7154 157.922 73.4474C157.989 73.1795 158.063 72.9986 158.144 72.9046C158.099 72.8321 158.1 72.6957 158.146 72.4955C158.19 72.2796 158.261 72.0831 158.36 71.906C158.472 71.7105 158.597 71.5852 158.733 71.53L158.665 71.277C158.559 70.6696 158.824 70.2319 159.459 69.9637C159.413 69.6989 159.526 69.4152 159.798 69.1124C160.07 68.8097 160.327 68.6538 160.569 68.6448C160.571 68.4682 160.698 68.3103 160.95 68.1714C161.215 68.0142 161.422 67.9469 161.572 67.9695C161.663 67.7456 161.891 67.5626 162.256 67.4205C162.371 67.2407 162.562 67.128 162.83 67.0825C162.909 67.0691 163.015 67.0673 163.146 67.077L163.355 67.0175C163.544 66.9854 163.709 66.9975 163.849 67.054C164.001 67.0922 164.078 67.1593 164.079 67.2554C164.431 67.2277 164.736 67.256 164.995 67.3405C165.253 67.4249 165.434 67.6266 165.538 67.9456C165.735 67.8641 166.005 67.8744 166.348 67.9766C166.687 68.0633 166.995 68.2436 167.27 68.5176C167.558 68.7733 167.737 69.1036 167.808 69.5086C167.824 69.602 167.833 69.7448 167.834 69.9371ZM164.62 72.0459C164.74 71.8011 165.107 71.6265 165.723 71.5221C166.07 71.4632 166.343 71.4488 166.543 71.479C166.406 71.4381 166.265 71.3258 166.119 71.1421C165.987 70.9401 165.904 70.7457 165.872 70.5588C165.85 70.4342 165.857 70.3367 165.894 70.2664C165.676 70.3195 165.477 70.2971 165.297 70.1993C165.131 70.0832 164.97 69.9502 164.814 69.8003C164.674 69.6477 164.565 69.5379 164.489 69.4707C164.418 69.5308 164.245 69.52 163.971 69.4382C163.71 69.3382 163.56 69.2195 163.52 69.082C163.47 69.1706 163.348 69.2634 163.154 69.3605C162.957 69.4421 162.802 69.4844 162.689 69.4876C162.655 69.5735 162.558 69.6701 162.398 69.7774C162.238 69.8847 162.061 69.9389 161.866 69.9398C161.76 70.2625 161.637 70.532 161.496 70.7484C161.355 70.9647 161.158 71.1424 160.906 71.2813C160.913 71.5047 160.852 71.7635 160.725 72.0577C160.613 72.3492 160.483 72.5798 160.334 72.7494L160.433 72.7567C160.626 72.5635 160.912 72.4348 161.291 72.3705C161.512 72.333 161.721 72.3216 161.918 72.3362C162.131 72.3481 162.283 72.3785 162.373 72.4274C162.711 72.1295 163.108 71.9418 163.566 71.8642C163.944 71.7999 164.296 71.8605 164.62 72.0459Z" fill="black"/>
<path d="M173.083 76.1411C173.196 76.138 173.305 76.1998 173.408 76.3266C173.511 76.4533 173.579 76.6102 173.612 76.7971C173.641 76.9684 173.636 77.1217 173.594 77.257C173.703 77.511 173.649 77.7607 173.432 78.006C173.213 78.2357 172.945 78.3773 172.629 78.4309C172.377 78.4737 172.135 78.4347 171.903 78.3138C171.684 78.1746 171.53 77.9441 171.441 77.6224C171.288 77.4881 171.198 77.3431 171.171 77.1873C171.125 76.9226 171.193 76.6624 171.376 76.4069C171.572 76.1332 171.827 75.9695 172.143 75.916C172.427 75.8678 172.74 75.9428 173.083 76.1411Z" fill="black"/>
<path d="M178.259 75.2626C178.372 75.2595 178.48 75.3213 178.583 75.448C178.687 75.5748 178.755 75.7317 178.787 75.9185C178.817 76.0899 178.811 76.2432 178.77 76.3785C178.879 76.6325 178.825 76.8822 178.608 77.1275C178.388 77.3572 178.12 77.4988 177.805 77.5524C177.553 77.5952 177.31 77.5562 177.078 77.4352C176.859 77.2961 176.705 77.0656 176.617 76.7439C176.463 76.6096 176.373 76.4646 176.346 76.3088C176.3 76.0441 176.368 75.7839 176.551 75.5284C176.747 75.2547 177.003 75.091 177.318 75.0375C177.602 74.9893 177.916 75.0643 178.259 75.2626Z" fill="black"/>
<path d="M183.434 74.3841C183.547 74.381 183.656 74.4428 183.759 74.5695C183.862 74.6963 183.93 74.8532 183.963 75.04C183.992 75.2114 183.987 75.3647 183.945 75.5C184.054 75.754 184 76.0037 183.783 76.249C183.563 76.4787 183.296 76.6203 182.98 76.6739C182.728 76.7167 182.486 76.6777 182.254 76.5567C182.034 76.4176 181.881 76.1871 181.792 75.8654C181.639 75.7311 181.549 75.5861 181.522 75.4303C181.475 75.1656 181.544 74.9054 181.727 74.6499C181.923 74.3762 182.178 74.2125 182.494 74.1589C182.778 74.1108 183.091 74.1858 183.434 74.3841Z" fill="black"/>
</svg>
