<svg width="255" height="192" viewBox="0 0 255 192" fill="none" xmlns="http://www.w3.org/2000/svg">
<path d="M63 20.5001C110.2 4.50006 135.667 2.50006 142.5 3.50006C196.9 1.10011 228.5 22.8334 237.5 34C261.9 64.4 250 96.6667 241 109C235.4 122.2 191.667 135.167 170.5 140L190.5 184.5L137 148.5L70.5 156.5C19.7 156.1 4.33333 113.667 3 92.5C-0.2 56.5 41.6667 29.5 63 20.5001Z" fill="white" stroke="black" stroke-width="5"/>
<path d="M55.5701 95.3561C55.9952 96.1974 56.2077 96.9377 56.2077 97.5771C56.2077 98.3174 55.9344 98.9063 55.3879 99.3438C55.0843 99.5457 54.7655 99.6467 54.4315 99.6467C53.976 99.6467 53.551 99.4784 53.1563 99.1419C52.7919 98.8054 52.5794 98.3679 52.5186 97.8295C52.0632 97.1564 51.8355 96.3656 51.8355 95.457C51.8355 95.0532 51.881 94.6494 51.9721 94.2456C51.7292 93.6062 51.6078 92.95 51.6078 92.2769C51.6078 91.5366 51.7292 90.9477 51.9721 90.5102C51.8203 90.1064 51.7444 89.7194 51.7444 89.3492C51.7444 88.9791 51.7899 88.6426 51.881 88.3397C52.0025 88.0368 52.1543 87.8181 52.3365 87.6835C52.0936 87.246 51.9721 86.8254 51.9721 86.4216C51.9721 86.1523 52.0328 85.9 52.1543 85.6644C51.9418 85.4288 51.7596 85.126 51.6078 84.7558C51.4863 84.352 51.4256 83.965 51.4256 83.5948C51.4256 83.1237 51.547 82.7535 51.7899 82.4843C51.7596 82.3161 51.7444 82.0805 51.7444 81.7776C51.7444 81.4748 51.7596 81.256 51.7899 81.1214C51.547 80.8186 51.4256 80.4147 51.4256 79.91C51.4256 79.3042 51.5926 78.8163 51.9266 78.4461C51.714 78.2442 51.547 77.9582 51.4256 77.588C51.3041 77.1842 51.2434 76.7635 51.2434 76.3261C51.2434 75.5184 51.3952 74.9632 51.6989 74.6603C51.5774 74.0546 51.5167 73.6507 51.5167 73.4488C51.5167 73.1796 51.5774 72.8095 51.6989 72.3383C51.3649 71.8672 51.1979 71.3793 51.1979 70.8745C51.1979 70.6053 51.2738 70.3024 51.4256 69.9659C51.2738 69.6967 51.1979 69.3602 51.1979 68.9563C50.5603 69.3938 49.8771 69.6125 49.1484 69.6125C48.8144 69.6125 48.4956 69.5621 48.192 69.4611C47.8276 70.0332 47.2963 70.3192 46.598 70.3192C46.3247 70.3192 46.1122 70.2856 45.9603 70.2183C45.6264 70.4875 45.2772 70.6221 44.9128 70.6221C44.427 70.6221 43.9868 70.4202 43.5921 70.0164C43.1974 69.6125 43 69.1078 43 68.502C43 67.829 43.334 67.2401 44.002 66.7353C44.6699 66.2306 45.3227 66.0118 45.9603 66.0791C46.1425 65.8099 46.4158 65.608 46.7801 65.4734C47.1748 65.3388 47.5999 65.2715 48.0554 65.2715C48.4197 65.2715 48.7081 65.322 48.9207 65.4229C49.2547 65.1537 49.7101 65.0191 50.287 65.0191C50.287 64.8172 50.3781 64.6489 50.5603 64.5143C50.7728 64.3461 50.9853 64.2788 51.1979 64.3124C51.7444 63.9759 52.2757 63.8076 52.7919 63.8076C53.3081 63.8076 53.7787 63.9759 54.2038 64.3124C54.5985 64.4807 54.9173 64.8172 55.1602 65.322C55.4031 65.7931 55.5245 66.2979 55.5245 66.8363C55.5245 67.4757 55.3727 67.9804 55.0691 68.3506C55.4942 68.7208 55.7067 69.2592 55.7067 69.9659C55.7067 70.5043 55.5853 70.925 55.3424 71.2278C55.5245 71.7326 55.6156 72.372 55.6156 73.146C55.6156 74.3911 55.4334 75.367 55.0691 76.0737C55.6156 76.4775 55.8889 77.1 55.8889 77.9413C55.8889 78.5807 55.7371 79.2033 55.4334 79.809C55.5853 80.2128 55.6612 80.5662 55.6612 80.869C55.6612 81.2055 55.6004 81.4916 55.479 81.7271C55.6612 82.03 55.7522 82.3665 55.7522 82.7367C55.7522 83.0732 55.6612 83.4266 55.479 83.7967C55.8737 84.6717 56.0711 85.7822 56.0711 87.1282C56.0711 88.1378 55.9344 88.9791 55.6612 89.6521C55.8433 89.955 55.9344 90.3083 55.9344 90.7121C55.9344 91.116 55.8282 91.4861 55.6156 91.8226C55.7674 92.1592 55.8433 92.6471 55.8433 93.2865C55.8433 93.9259 55.7522 94.6157 55.5701 95.3561Z" fill="black"/>
<path d="M80.6021 78.7995C80.6931 79.0014 80.7387 79.2538 80.7387 79.5566C80.7387 80.196 80.5717 80.7008 80.2377 81.0709C80.3288 81.3738 80.3743 81.6767 80.3743 81.9795C80.3743 82.8881 80.0555 83.7294 79.4179 84.5034C79.6001 84.8063 79.6912 85.1428 79.6912 85.513C79.6912 85.9168 79.6001 86.3374 79.4179 86.7749C79.2357 87.1787 79.008 87.5152 78.7348 87.7844C78.7955 88.1883 78.6437 88.693 78.2793 89.2988C77.915 89.9045 77.5051 90.2915 77.0496 90.4598C76.6246 91.5366 76.0477 92.3611 75.319 92.9332C75.3493 93.4379 75.0761 94.0605 74.4992 94.8008C73.9223 95.5412 73.4517 95.8945 73.0873 95.8608C72.7534 96.2647 72.4194 96.5171 72.0854 96.618C71.9639 97.0891 71.7818 97.4425 71.5389 97.678C71.296 97.9136 70.962 98.0819 70.5369 98.1828C70.4762 98.6203 70.1877 99.0241 69.6716 99.3943C69.1858 99.7644 68.6696 99.9495 68.1231 99.9495C67.6069 99.9495 67.1667 99.7308 66.8023 99.2933C66.4683 98.8558 66.3013 98.3679 66.3013 97.8295C66.3013 97.0891 66.5594 96.5339 67.0756 96.1637C67.2274 95.8608 67.4855 95.5243 67.8498 95.1542C68.2445 94.7503 68.5633 94.5316 68.8062 94.498C68.8973 94.0268 69.1099 93.6398 69.4438 93.337C69.8082 93.0005 70.2029 92.8322 70.628 92.8322C70.6583 92.3274 70.9316 91.8395 71.4478 91.3683C71.9639 90.8636 72.4042 90.6112 72.7685 90.6112C72.7685 90.0728 72.9507 89.4839 73.3151 88.8445C73.6794 88.1714 74.0589 87.7844 74.4537 87.6835C74.4537 87.246 74.6814 86.8927 75.1368 86.6235C74.4385 86.859 73.8919 86.9768 73.4972 86.9768C73.1936 86.9768 72.9052 86.9263 72.6319 86.8254C72.2979 86.9263 71.9943 86.9768 71.721 86.9768C71.2049 86.9768 70.7342 86.7917 70.3092 86.4216C69.9145 86.5225 69.4135 86.4047 68.8062 86.0682C68.199 85.7317 67.7284 85.3279 67.3944 84.8568C66.9693 84.8904 66.5898 84.8063 66.2558 84.6044C65.9218 84.4025 65.5574 84.0996 65.1627 83.6958C64.7073 83.4602 64.3278 83.1237 64.0241 82.6862C63.7205 82.2151 63.5383 81.7776 63.4776 81.3738C63.0829 81.2055 62.7489 80.9532 62.4756 80.6166C62.2327 80.2465 62.1113 79.8258 62.1113 79.3547C62.1113 79.1191 62.1568 78.8499 62.2479 78.5471C61.9139 78.0759 61.7469 77.3861 61.7469 76.4775C61.7469 76.141 61.7621 75.8886 61.7925 75.7203C61.7318 75.3838 61.7014 75.1146 61.7014 74.9127C61.7014 74.1387 61.8836 73.4825 62.2479 72.9441C62.1568 72.6749 62.1113 72.4225 62.1113 72.1869C62.1113 71.4129 62.3846 70.824 62.9311 70.4202C62.8704 69.5789 63.0981 68.7713 63.6142 67.9973C64.1608 67.1896 64.768 66.6849 65.436 66.4829C65.77 65.9445 66.2254 65.4902 66.8023 65.1201C67.4096 64.7162 68.0623 64.5143 68.7607 64.5143C69.0339 64.5143 69.2313 64.5311 69.3528 64.5648C69.7171 64.06 70.1574 63.8076 70.6735 63.8076C70.795 63.8076 70.9771 63.8413 71.22 63.9086C71.5237 63.5721 71.9032 63.4038 72.3586 63.4038C72.4497 63.4038 72.5864 63.4375 72.7685 63.5048C73.3151 63.4711 73.9071 63.5889 74.5447 63.8581C75.1824 64.0937 75.5619 64.4302 75.6833 64.8677C75.8351 64.8004 76.0629 64.7667 76.3665 64.7667C76.9434 64.7667 77.4292 65.0191 77.8239 65.5239C78.249 66.0286 78.4615 66.6007 78.4615 67.2401C79.1295 67.9131 79.5242 68.7713 79.6456 69.8145C80.01 70.6894 80.1922 71.4129 80.1922 71.985C80.1922 72.1532 80.1618 72.4056 80.1011 72.7422C80.344 73.0114 80.5565 73.4152 80.7387 73.9536C80.9209 74.492 81.012 75.0305 81.012 75.5689C81.012 76.04 80.9209 76.5111 80.7387 76.9823C80.8298 77.1169 80.8753 77.3524 80.8753 77.6889C80.8753 78.1264 80.7842 78.4966 80.6021 78.7995ZM67.1667 80.0109C67.5917 80.1119 67.8802 80.4652 68.032 81.0709H68.1231C68.3963 81.0709 68.6392 81.2897 68.8518 81.7271C69.3679 81.7271 69.8386 81.9291 70.2636 82.3329C70.4154 82.2319 70.6128 82.1814 70.8557 82.1814C71.5237 82.1814 71.9639 82.3497 72.1765 82.6862C72.2372 82.6189 72.4042 82.5853 72.6774 82.5853C73.0722 82.5853 73.3606 82.6357 73.5428 82.7367C73.6946 82.3665 73.8919 82.0973 74.1348 81.9291C74.4081 81.7608 74.7725 81.6094 75.2279 81.4748C75.2886 81.2728 75.3949 81.0709 75.5467 80.869C75.6985 80.6335 75.8655 80.482 76.0477 80.4147C76.0173 80.3138 76.0021 80.1792 76.0021 80.0109C76.0021 79.5061 76.154 79.035 76.4576 78.5975C76.3665 78.3283 76.3209 78.0255 76.3209 77.6889C76.3209 76.8813 76.4879 76.2083 76.8219 75.6698C76.245 74.7613 75.9566 73.8022 75.9566 72.7926C75.9566 72.5907 75.987 72.2542 76.0477 71.7831C75.6226 71.3456 75.3342 70.5043 75.1824 69.2592C74.5447 69.2592 73.8312 68.7881 73.0418 67.8458C72.7685 68.0477 72.4042 68.1487 71.9487 68.1487C71.7362 68.1487 71.5085 68.1151 71.2656 68.0477C70.8709 68.4852 70.1118 68.704 68.9884 68.704C68.7455 69.1078 68.4267 69.4611 68.032 69.764C67.6373 70.0332 67.2729 70.1846 66.9389 70.2183C66.9086 70.3865 66.8478 70.6558 66.7568 71.0259C66.696 71.3624 66.6049 71.6821 66.4835 71.985C66.3924 72.2542 66.2406 72.5066 66.0281 72.7422C66.0584 72.8431 66.0736 73.0114 66.0736 73.2469C66.0736 73.7854 65.9218 74.2397 65.6182 74.6098C65.7093 74.9127 65.7548 75.1819 65.7548 75.4175C65.7548 75.7203 65.6637 76.0064 65.4815 76.2756C65.7548 76.4775 65.9673 76.7467 66.1191 77.0832C66.271 77.3861 66.3469 77.7226 66.3469 78.0928C66.3469 78.3283 66.3317 78.4966 66.3013 78.5975C66.6353 78.8331 66.8478 79.0518 66.9389 79.2538C67.0604 79.4557 67.1363 79.708 67.1667 80.0109Z" fill="black"/>
<path d="M89.2394 94.7503C89.4519 94.784 89.6341 94.9523 89.7859 95.2551C89.9377 95.558 90.0136 95.9113 90.0136 96.3151C90.0136 96.6853 89.9529 97.005 89.8314 97.2742C89.9529 97.8463 89.7707 98.3511 89.2849 98.7885C88.7991 99.1924 88.2526 99.3943 87.6453 99.3943C87.1595 99.3943 86.7193 99.226 86.3246 98.8895C85.9602 98.5193 85.7477 97.9809 85.6869 97.2742C85.444 96.9377 85.3226 96.6012 85.3226 96.2647C85.3226 95.6926 85.5351 95.171 85.9602 94.6999C86.4156 94.1951 86.947 93.9427 87.5542 93.9427C88.1008 93.9427 88.6625 94.2119 89.2394 94.7503Z" fill="black"/>
<path d="M121.2 83.9986C121.351 84.2342 121.427 84.5202 121.427 84.8568C121.427 85.1933 121.336 85.4625 121.154 85.6644C121.549 86.3711 121.746 87.1282 121.746 87.9359C121.746 89.08 121.367 89.8708 120.608 90.3083C120.668 90.6448 120.699 90.8972 120.699 91.0655C120.699 91.8058 120.471 92.4284 120.016 92.9332C120.046 93.3706 119.924 93.8586 119.651 94.397C119.408 94.9018 119.089 95.3224 118.695 95.6589C118.027 96.7358 117.298 97.3415 116.509 97.4761C116.326 97.8126 116.023 98.1323 115.598 98.4352C115.173 98.7044 114.732 98.839 114.277 98.839C114.064 98.839 113.913 98.8222 113.822 98.7885C113.639 99.0241 113.245 99.226 112.637 99.3943C112.03 99.5625 111.423 99.6467 110.816 99.6467C110.3 99.6467 109.844 99.5625 109.449 99.3943C108.66 99.6635 107.916 99.7981 107.218 99.7981C106.459 99.7981 105.715 99.6635 104.986 99.3943C104.288 99.1251 103.696 98.7549 103.21 98.2838C102.663 98.1828 102.026 97.6444 101.297 96.6685C100.447 96.7021 99.703 95.8945 99.0654 94.2456C98.5493 93.6735 98.1545 93.1519 97.8813 92.6808C97.608 92.176 97.4714 91.6544 97.4714 91.116C97.4714 90.8467 97.5169 90.5607 97.608 90.2578C97.274 90.1905 96.9856 89.9382 96.7427 89.5007C96.4998 89.0632 96.3783 88.6257 96.3783 88.1883C96.3783 87.9527 96.3935 87.7844 96.4239 87.6835C95.9077 87.1787 95.6496 86.6403 95.6496 86.0682C95.6496 85.7317 95.7711 85.3279 96.014 84.8568C95.8925 84.4866 95.8318 84.0996 95.8318 83.6958C95.8318 83.1237 96.0292 82.2824 96.4239 81.1719C96.0899 80.7008 95.9229 80.0782 95.9229 79.3042C95.9229 78.6648 96.0292 78.0423 96.2417 77.4366C96.4542 76.7972 96.7275 76.3429 97.0615 76.0737C96.9704 75.7035 96.9249 75.3165 96.9249 74.9127C96.9249 74.1387 97.0615 73.3984 97.3348 72.6917C97.608 71.9513 98.0179 71.3961 98.5644 71.0259C98.5644 70.6894 98.6403 70.3697 98.7922 70.0668C98.9743 69.7303 99.1869 69.4779 99.4298 69.3097C99.4298 69.0068 99.5512 68.603 99.7941 68.0982C100.037 67.5935 100.341 67.156 100.705 66.7858C101.069 66.4156 101.434 66.2642 101.798 66.3315C101.95 65.894 102.223 65.5407 102.618 65.2715C103.043 65.0023 103.483 64.9013 103.939 64.9686C104.182 64.6658 104.561 64.3965 105.077 64.161C105.624 63.8918 106.079 63.774 106.444 63.8076C106.626 63.5384 106.929 63.3365 107.354 63.2019C107.779 63.0673 108.235 63 108.721 63C109.389 63 109.92 63.101 110.315 63.3029L110.634 63.2524C111.059 63.2524 111.393 63.4543 111.635 63.8581C111.969 63.8581 112.228 63.8918 112.41 63.9591C112.622 63.9927 112.774 64.1105 112.865 64.3124L113.184 64.2619C113.579 64.2619 113.958 64.4638 114.323 64.8677C114.808 64.6994 115.34 64.935 115.917 65.5744C116.524 66.2137 116.858 66.8363 116.919 67.442C117.101 67.5766 117.237 67.7617 117.328 67.9973C117.42 68.1992 117.511 68.5189 117.602 68.9563C117.996 69.1246 118.33 69.3938 118.604 69.764C118.907 70.1342 119.044 70.5548 119.014 71.0259C119.317 71.2278 119.575 71.6653 119.788 72.3383C120 72.9777 120.076 73.5161 120.016 73.9536C120.835 74.7613 121.245 75.8213 121.245 77.1337C121.245 77.6721 121.2 78.2442 121.109 78.8499C121.26 79.2874 121.336 79.708 121.336 80.1119C121.336 80.5157 121.26 80.869 121.109 81.1719C121.26 81.4411 121.397 81.7103 121.518 81.9795C121.64 82.2487 121.701 82.5011 121.701 82.7367C121.701 83.1069 121.534 83.5275 121.2 83.9986ZM107.445 95.8608C108.053 95.8608 108.478 96.0123 108.721 96.3151C108.781 96.0796 109.009 95.8945 109.404 95.7599C109.799 95.6253 110.208 95.558 110.634 95.558C110.998 95.558 111.271 95.6085 111.453 95.7094C111.635 95.4065 111.894 95.1542 112.228 94.9522C112.592 94.7167 112.987 94.5989 113.412 94.5989C113.594 94.5989 113.731 94.6157 113.822 94.6494C114.004 94.3129 114.307 93.9932 114.732 93.6903C115.188 93.3874 115.583 93.2192 115.917 93.1855C115.856 92.7481 115.947 92.2433 116.19 91.6712C116.463 91.0655 116.782 90.5607 117.146 90.1569C117.055 89.4502 117.01 89.0632 117.01 88.9959C117.01 88.121 117.207 87.5152 117.602 87.1787C117.268 86.7412 117.101 86.2701 117.101 85.7653C117.101 85.3952 117.192 85.0418 117.374 84.7053C117.253 84.4361 117.192 84.1332 117.192 83.7967C117.192 83.3256 117.313 82.905 117.556 82.5348C117.344 82.03 117.237 81.4916 117.237 80.9195C117.237 80.482 117.298 80.0782 117.42 79.708C117.389 79.5398 117.374 79.2874 117.374 78.9509C117.374 78.3452 117.45 77.7058 117.602 77.0327C117.086 76.6289 116.736 76.1746 116.554 75.6698C116.372 75.1314 116.251 74.4584 116.19 73.6508C115.613 73.2806 115.309 72.759 115.279 72.0859C114.884 71.9177 114.565 71.6317 114.323 71.2278C114.11 70.7904 114.019 70.3529 114.049 69.9154C113.928 69.8145 113.776 69.6294 113.594 69.3602C112.926 69.3602 112.41 69.0573 112.045 68.4516C111.651 68.4516 111.21 68.3674 110.725 68.1992C110.269 68.0309 109.92 67.8122 109.677 67.543C109.556 67.5766 109.389 67.6103 109.176 67.6439C108.964 67.6776 108.706 67.6944 108.402 67.6944C108.159 67.6944 107.992 67.6776 107.901 67.6439C107.779 67.8795 107.567 68.0646 107.263 68.1992C106.96 68.3338 106.641 68.4011 106.307 68.4011C105.912 69.0405 105.366 69.3602 104.667 69.3602C104.333 69.9322 103.863 70.2519 103.255 70.3192C103.286 70.7231 103.21 71.11 103.028 71.4802C102.876 71.8167 102.633 72.0859 102.299 72.2879C102.299 72.6917 102.193 73.0618 101.98 73.3984C101.768 73.7012 101.494 73.9368 101.16 74.105C101.221 74.4416 101.252 74.7949 101.252 75.1651C101.252 75.9391 101.145 76.7635 100.933 77.6385C100.751 78.4798 100.447 79.2033 100.022 79.809C100.174 80.1119 100.25 80.4652 100.25 80.869C100.25 81.2055 100.189 81.5757 100.067 81.9795C99.9763 82.3497 99.9156 82.6189 99.8852 82.7872C99.9763 83.1237 100.022 83.477 100.022 83.8472C100.022 84.4193 99.9156 85.025 99.703 85.6644C100.007 86.1355 100.143 86.6403 100.113 87.1787C100.447 87.3806 100.735 87.8349 100.978 88.5416C101.252 89.2146 101.388 89.854 101.388 90.4598L101.343 90.8636C101.616 90.9982 101.859 91.2337 102.071 91.5703C102.284 91.9068 102.375 92.2938 102.345 92.7312C102.679 92.7649 103.073 92.9836 103.529 93.3874C103.984 93.7913 104.364 94.1951 104.667 94.5989C105.214 94.6662 105.684 94.784 106.079 94.9522C106.474 95.0869 106.838 95.3897 107.172 95.8608H107.445Z" fill="black"/>
<path d="M145.184 84.8063C145.427 85.1764 145.579 85.6644 145.639 86.2701C145.761 86.6739 145.821 87.1787 145.821 87.7844C145.821 88.9286 145.594 89.9382 145.138 90.8131C145.26 91.2169 145.32 91.4861 145.32 91.6207C145.32 92.0246 145.153 92.5125 144.819 93.0846C144.789 93.6567 144.44 94.111 143.772 94.4475C143.772 94.683 143.711 94.9523 143.59 95.2551C143.468 95.558 143.317 95.7935 143.134 95.9618C142.983 96.332 142.77 96.6348 142.497 96.8704C142.254 97.106 141.905 97.3247 141.449 97.5266C141.206 97.8631 140.933 98.0987 140.629 98.2333C140.356 98.3679 139.977 98.4184 139.491 98.3847C139.369 98.5866 139.126 98.7549 138.762 98.8895C138.398 99.0241 138.033 99.0914 137.669 99.0914C137.487 99.0914 137.305 99.0578 137.123 98.9904C136.363 99.6298 135.574 99.9495 134.754 99.9495C134.086 99.9495 133.479 99.7476 132.933 99.3438C132.659 99.4111 132.356 99.3774 132.022 99.2428C131.688 99.1082 131.475 98.94 131.384 98.7381C131.323 98.7717 131.217 98.7885 131.065 98.7885C130.822 98.7885 130.625 98.6876 130.473 98.4857C129.927 98.553 129.441 98.452 129.016 98.1828C128.591 97.9136 128.333 97.4425 128.242 96.7694C127.209 96.2647 126.556 95.5075 126.283 94.498C126.04 94.3297 125.843 94.0437 125.691 93.6398C125.539 93.236 125.463 92.8322 125.463 92.4284C125.463 92.1592 125.524 91.8899 125.646 91.6207C125.524 91.4861 125.433 91.2506 125.372 90.9141C125.312 90.5439 125.281 90.1569 125.281 89.7531C125.281 88.7099 125.448 88.0537 125.782 87.7844C125.661 87.5152 125.6 87.1619 125.6 86.7244C125.6 86.1187 125.691 85.5466 125.873 85.0082C126.055 84.4698 126.314 84.0996 126.647 83.8977C126.587 83.3929 126.708 82.8545 127.012 82.2824C127.315 81.6767 127.634 81.3233 127.968 81.2224C128.059 80.8522 128.211 80.5493 128.424 80.3138C128.667 80.0446 128.955 79.8595 129.289 79.7585C128.985 79.523 128.727 79.2033 128.515 78.7995C128.302 78.3956 128.181 77.9918 128.15 77.588C127.482 76.7467 127.194 75.7203 127.285 74.5089C127.194 74.0377 127.148 73.6003 127.148 73.1965C127.148 72.4898 127.285 71.8672 127.558 71.3288C127.498 70.5548 127.71 69.7472 128.196 68.9059C128.348 68.4011 128.56 67.93 128.834 67.4925C129.107 67.055 129.395 66.7858 129.699 66.6849C129.881 66.2137 130.154 65.8436 130.519 65.5744C130.883 65.3051 131.263 65.1537 131.657 65.1201C131.87 64.8172 132.143 64.5816 132.477 64.4134C132.841 64.2451 133.206 64.161 133.57 64.161L133.934 64.2115C134.147 63.9759 134.557 63.8581 135.164 63.8581C135.65 63.8581 136.075 63.9422 136.439 64.1105C136.652 63.9086 137.016 63.8076 137.532 63.8076C137.988 63.8076 138.459 63.9086 138.944 64.1105C139.4 64.0769 139.81 64.1946 140.174 64.4638C140.538 64.6994 140.812 65.0696 140.994 65.5744C141.358 65.608 141.707 65.894 142.041 66.4325C142.406 66.9709 142.557 67.4757 142.497 67.9468C142.952 68.3506 143.21 68.8722 143.271 69.5116C143.484 69.5789 143.666 69.8481 143.817 70.3192C144 70.7567 144.076 71.211 144.045 71.6821C144.197 72.0859 144.273 72.4393 144.273 72.7422C144.273 73.2806 144.121 73.7854 143.817 74.2565C143.878 74.593 143.909 74.8286 143.909 74.9632C143.909 75.6025 143.681 76.1746 143.225 76.6794C143.225 77.0159 143.134 77.4029 142.952 77.8404C142.77 78.2779 142.557 78.5639 142.315 78.6985C142.284 78.9677 142.102 79.2369 141.768 79.5061C141.434 79.7417 141.085 79.8931 140.721 79.9604C141.419 80.1287 141.829 80.5325 141.95 81.1719C142.436 81.2392 142.952 81.5757 143.499 82.1814C144.076 82.7535 144.379 83.3761 144.41 84.0491C144.652 84.1501 144.911 84.4025 145.184 84.8063ZM134.299 68.4011C134.086 68.603 133.752 68.8217 133.297 69.0573C132.872 69.2929 132.568 69.377 132.386 69.3097C132.356 69.4779 132.234 69.7135 132.022 70.0164C131.839 70.3192 131.672 70.538 131.521 70.6726C131.551 70.9754 131.49 71.312 131.339 71.6821C131.217 72.0186 131.05 72.2879 130.838 72.4898C130.989 72.7926 131.065 73.432 131.065 74.4079C131.065 74.9127 131.05 75.2324 131.02 75.367C131.384 75.7035 131.672 76.141 131.885 76.6794C132.158 76.7467 132.477 76.915 132.841 77.1842C133.206 77.4197 133.494 77.6721 133.707 77.9413C134.132 77.874 134.466 77.8404 134.709 77.8404C135.103 77.8404 135.468 77.8909 135.802 77.9918C136.045 77.8236 136.363 77.7394 136.758 77.7394C137.092 77.7394 137.381 77.8067 137.624 77.9413C137.866 77.5039 138.292 77.201 138.899 77.0327C138.959 76.7635 139.187 76.4607 139.582 76.1241C139.977 75.7876 140.295 75.5857 140.538 75.5184C140.478 75.4175 140.447 75.2156 140.447 74.9127C140.447 74.4752 140.508 74.0209 140.629 73.5498C140.751 73.0787 140.903 72.759 141.085 72.5907C140.933 72.4898 140.751 72.2037 140.538 71.7326C140.356 71.2615 140.311 70.9081 140.402 70.6726C140.189 70.6053 139.977 70.3865 139.764 70.0164C139.552 69.6125 139.46 69.276 139.491 69.0068H139.445C139.263 69.0068 139.066 68.9395 138.853 68.8049C138.641 68.6703 138.519 68.5357 138.489 68.4011C138.125 68.4011 137.791 68.3001 137.487 68.0982C137.183 68.2665 136.895 68.3506 136.622 68.3506C136.348 68.3506 136.09 68.3001 135.847 68.1992C135.574 68.4011 135.255 68.502 134.891 68.502C134.739 68.502 134.542 68.4684 134.299 68.4011ZM133.479 95.3056C134.086 95.3056 134.481 95.4065 134.663 95.6085C135.392 95.171 136.105 94.9522 136.804 94.9522C137.107 94.9522 137.335 94.9859 137.487 95.0532C138.064 94.6494 138.489 94.4643 138.762 94.498C139.066 93.8922 139.521 93.5389 140.128 93.4379C140.341 92.8322 140.538 92.3442 140.721 91.9741C140.903 91.5703 141.13 91.2842 141.404 91.116C141.373 90.7794 141.388 90.3925 141.449 89.955C141.54 89.5175 141.692 89.2146 141.905 89.0464C141.814 88.7772 141.768 88.4911 141.768 88.1883C141.768 87.8517 141.814 87.4816 141.905 87.0778C141.631 86.9095 141.419 86.7076 141.267 86.472C141.146 86.2028 141.039 85.9336 140.948 85.6644C140.857 85.3952 140.796 85.2101 140.766 85.1091C139.886 84.6044 139.354 83.9313 139.172 83.09C138.99 83.191 138.762 83.2415 138.489 83.2415C138.125 83.2415 137.76 83.1742 137.396 83.0396C137.031 82.8713 136.804 82.6862 136.713 82.4843C136.47 82.6526 135.999 82.7367 135.301 82.7367C134.785 82.7367 134.405 82.6526 134.162 82.4843C133.707 82.8881 133.191 83.09 132.614 83.09C132.31 83.09 132.067 83.0564 131.885 82.9891C131.733 83.2246 131.46 83.5275 131.065 83.8977C130.701 84.2678 130.397 84.5202 130.154 84.6548C130.094 85.126 129.881 85.5466 129.517 85.9168C129.638 86.186 129.699 86.5562 129.699 87.0273C129.699 87.4984 129.638 88.0032 129.517 88.5416C129.395 89.08 129.259 89.5007 129.107 89.8035C129.319 90.0055 129.486 90.4934 129.608 91.2674C129.76 92.0077 129.805 92.563 129.744 92.9332C129.987 92.9332 130.352 93.1014 130.838 93.4379C131.354 93.7408 131.642 93.9932 131.703 94.1951C131.976 94.1951 132.28 94.3129 132.614 94.5484C132.978 94.7503 133.267 95.0027 133.479 95.3056Z" fill="black"/>
<path d="M153.241 94.7503C153.453 94.784 153.635 94.9523 153.787 95.2551C153.939 95.558 154.015 95.9113 154.015 96.3151C154.015 96.6853 153.954 97.005 153.833 97.2742C153.954 97.8463 153.772 98.3511 153.286 98.7885C152.801 99.1924 152.254 99.3943 151.647 99.3943C151.161 99.3943 150.721 99.226 150.326 98.8895C149.962 98.5193 149.749 97.9809 149.688 97.2742C149.445 96.9377 149.324 96.6012 149.324 96.2647C149.324 95.6926 149.537 95.171 149.962 94.6999C150.417 94.1951 150.948 93.9427 151.556 93.9427C152.102 93.9427 152.664 94.2119 153.241 94.7503Z" fill="black"/>
<path d="M176.684 94.498C176.958 94.2287 177.307 94.0941 177.732 94.0941C178.066 94.0941 178.309 94.1783 178.461 94.3465C179.098 94.2792 179.584 94.4306 179.918 94.8008C180.252 95.1373 180.419 95.5748 180.419 96.1132C180.419 96.6853 180.206 97.2069 179.781 97.678C179.387 98.1492 178.84 98.3847 178.142 98.3847L177.732 98.3342C177.337 98.6708 176.882 98.839 176.366 98.839C176.001 98.839 175.652 98.7717 175.318 98.6371C174.984 98.9063 174.605 99.0409 174.18 99.0409C173.754 99.0409 173.375 98.8895 173.041 98.5866C172.646 99.1587 172.191 99.4447 171.675 99.4447C171.371 99.4447 170.946 99.2933 170.399 98.9904C170.156 99.1924 169.838 99.2933 169.443 99.2933C169.109 99.2933 168.76 99.2428 168.395 99.1419C168.061 99.512 167.652 99.6971 167.166 99.6971C166.71 99.6971 166.285 99.512 165.891 99.1419C165.769 99.2092 165.587 99.2428 165.344 99.2428C165.131 99.2428 164.98 99.226 164.889 99.1924C164.494 99.5625 164.069 99.7476 163.613 99.7476C163.37 99.7476 163.128 99.6971 162.885 99.5962C162.581 99.8317 162.217 99.9495 161.792 99.9495C161.488 99.9495 161.169 99.8486 160.835 99.6467C160.258 99.613 159.788 99.3101 159.423 98.7381C159.059 98.1323 158.877 97.4761 158.877 96.7694C158.877 95.9618 159.105 95.3729 159.56 95.0027C159.499 94.3633 159.651 93.8081 160.015 93.337C160.41 92.8658 160.896 92.6471 161.473 92.6808C161.473 91.9068 161.746 91.2674 162.293 90.7626C162.839 90.2242 163.568 89.6521 164.479 89.0464C164.479 88.0368 165.101 87.246 166.346 86.6739C166.437 86.0682 166.817 85.4457 167.485 84.8063C168.153 84.1332 168.805 83.6285 169.443 83.2919C169.504 82.7872 169.686 82.3665 169.989 82.03C170.323 81.6598 170.703 81.4579 171.128 81.4243C171.067 80.7849 171.25 80.2465 171.675 79.809C172.1 79.3379 172.601 79.1191 173.178 79.1528C173.178 78.8499 173.238 78.5807 173.36 78.3452C173.481 78.1096 173.618 77.8909 173.77 77.6889C173.921 77.487 174.028 77.3524 174.088 77.2851C174.028 77.0159 173.997 76.814 173.997 76.6794C173.997 76.2756 174.104 75.9054 174.316 75.5689C174.529 75.1987 174.802 74.9463 175.136 74.8117C175.075 74.3406 175.045 73.9368 175.045 73.6003C175.045 72.658 175.181 71.9345 175.455 71.4297C175.09 71.2278 174.787 70.9081 174.544 70.4707C174.149 70.4034 173.8 70.2015 173.496 69.8649C173.193 69.5284 173.011 69.1414 172.95 68.704C172.828 68.7713 172.601 68.8049 172.267 68.8049C171.842 68.8049 171.401 68.7208 170.946 68.5525C170.521 68.3506 170.202 68.1151 169.989 67.8458C169.747 68.0814 169.413 68.2833 168.988 68.4516C168.562 68.6198 168.137 68.7208 167.712 68.7544C167.53 69.091 167.211 69.4275 166.756 69.764C166.331 70.1005 165.951 70.3024 165.617 70.3697C165.557 70.8072 165.314 71.2783 164.889 71.7831C164.494 72.2542 164.099 72.5739 163.704 72.7422C163.674 73.5498 163.522 74.206 163.249 74.7108C163.006 75.1819 162.52 75.4175 161.792 75.4175C161.306 75.4175 160.866 75.2156 160.471 74.8117C160.106 74.3743 159.924 73.8863 159.924 73.3479C159.924 73.1123 159.97 72.8768 160.061 72.6412L160.015 72.2374C160.015 71.5643 160.213 70.925 160.607 70.3192C161.033 69.7135 161.518 69.3097 162.065 69.1078C162.035 68.3338 162.232 67.7112 162.657 67.2401C163.112 66.769 163.644 66.5334 164.251 66.5334C164.342 66.1633 164.722 65.709 165.39 65.1705C166.058 64.6321 166.68 64.3797 167.257 64.4134C167.803 64.0095 168.623 63.8076 169.716 63.8076C170.202 63.8076 170.657 63.8749 171.083 64.0095C171.508 64.1105 171.811 64.2788 171.993 64.5143C172.358 64.1442 172.783 63.9591 173.269 63.9591C173.633 63.9591 173.952 64.06 174.225 64.2619C174.529 64.4302 174.711 64.6321 174.772 64.8677C175.409 64.9686 175.895 65.4397 176.229 66.281C176.593 66.3147 176.912 66.4661 177.185 66.7353C177.489 66.9709 177.686 67.2738 177.777 67.6439C178.203 67.7785 178.552 68.2328 178.825 69.0068C179.129 69.7808 179.28 70.6053 179.28 71.4802C179.28 71.9177 179.235 72.3383 179.144 72.7422C179.235 73.045 179.28 73.2806 179.28 73.4488C179.28 73.7517 179.174 74.0377 178.962 74.307C179.022 74.5762 179.053 74.8117 179.053 75.0136C179.053 75.5857 178.931 76.1578 178.688 76.7299C178.445 77.302 178.142 77.6721 177.777 77.8404C177.747 78.3452 177.626 78.8499 177.413 79.3547C177.231 79.8258 176.973 80.2128 176.639 80.5157C176.578 81.0878 176.381 81.6262 176.047 82.131C175.743 82.6021 175.318 82.9218 174.772 83.09C174.68 83.4939 174.438 83.9145 174.043 84.352C173.679 84.7894 173.329 85.025 172.995 85.0587C172.874 85.698 172.494 86.3038 171.857 86.8759C171.219 87.4143 170.551 87.7676 169.853 87.9359C169.731 88.6089 169.549 89.0969 169.306 89.3997C169.063 89.7026 168.593 90.0391 167.894 90.4093C167.773 91.5534 167.09 92.3442 165.845 92.7817C165.693 93.3874 165.541 93.8754 165.39 94.2456C165.238 94.6157 165.025 94.9186 164.752 95.1542C165.177 94.9186 165.557 94.8008 165.891 94.8008C166.225 94.8008 166.574 94.9018 166.938 95.1037C167.242 94.8681 167.591 94.7503 167.986 94.7503C168.38 94.7503 168.684 94.8345 168.896 95.0027C169.322 94.7672 169.762 94.6494 170.217 94.6494C170.582 94.6494 170.87 94.7503 171.083 94.9522C171.508 94.5484 172.054 94.3465 172.722 94.3465C173.208 94.3465 173.663 94.4643 174.088 94.6999C174.544 94.397 175.045 94.2456 175.591 94.2456C175.956 94.2456 176.32 94.3297 176.684 94.498Z" fill="black"/>
<path d="M206.087 86.6739C206.664 86.6739 207.12 86.8927 207.453 87.3301C207.818 87.7676 208 88.2724 208 88.8445C208 89.4839 207.787 90.0223 207.362 90.4598C206.907 90.8636 206.36 91.0655 205.723 91.0655C205.541 91.0655 205.267 91.0318 204.903 90.9645C204.357 91.2674 203.886 91.4188 203.491 91.4188C203.279 91.4188 203.036 91.3683 202.762 91.2674C202.945 91.7049 203.036 92.2096 203.036 92.7817C203.036 93.6903 202.808 94.3465 202.353 94.7503C202.565 94.9186 202.732 95.1878 202.854 95.558C203.005 95.9281 203.081 96.3151 203.081 96.719C203.081 97.4256 202.899 97.9304 202.535 98.2333C202.444 98.8054 202.231 99.2428 201.897 99.5457C201.594 99.8486 201.229 100 200.804 100C200.258 100 199.772 99.7981 199.347 99.3943C198.922 98.9568 198.709 98.4015 198.709 97.7285C198.709 97.392 198.77 97.0387 198.891 96.6685C198.77 96.3993 198.709 96.0628 198.709 95.6589C198.709 94.8849 198.876 94.3129 199.21 93.9427C199.089 93.8417 198.982 93.5894 198.891 93.1855C198.831 92.7817 198.8 92.3611 198.8 91.9236C198.8 91.4525 198.831 91.0823 198.891 90.8131C198.648 90.9477 198.345 91.015 197.98 91.015C197.221 91.015 196.629 90.8299 196.204 90.4598C195.597 90.9309 194.899 91.1664 194.109 91.1664C193.411 91.1664 192.834 90.9982 192.379 90.6617C191.619 91.0318 190.891 91.2169 190.192 91.2169C189.676 91.2169 189.251 91.1328 188.917 90.9645C188.705 91.0991 188.386 91.2169 187.961 91.3179C187.566 91.3852 187.171 91.4188 186.777 91.4188C186.139 91.4188 185.608 91.3179 185.183 91.116C184.666 91.0823 184.257 90.8804 183.953 90.5102C183.649 90.1401 183.497 89.6858 183.497 89.1473C183.497 88.8445 183.573 88.4911 183.725 88.0873C183.907 87.6162 184.165 87.1451 184.499 86.6739C184.833 86.2028 185.152 85.8831 185.456 85.7149C185.547 85.311 185.759 84.9745 186.093 84.7053C186.427 84.4025 186.807 84.2174 187.232 84.1501C187.232 84.0491 187.262 83.9482 187.323 83.8472C187.414 83.7126 187.475 83.5948 187.505 83.4939C187.445 83.2246 187.414 83.0227 187.414 82.8881C187.414 82.4843 187.505 82.1141 187.687 81.7776C187.9 81.4075 188.158 81.1382 188.462 80.97C188.522 80.4989 188.705 80.1119 189.008 79.809C189.342 79.5061 189.737 79.3042 190.192 79.2033C190.253 78.8331 190.405 78.4461 190.648 78.0423C190.891 77.6048 191.118 77.3524 191.331 77.2851C191.483 76.7804 191.665 76.3934 191.878 76.1241C192.09 75.8213 192.424 75.4848 192.879 75.1146C192.819 74.5089 192.971 73.92 193.335 73.3479C193.699 72.7422 194.124 72.3215 194.61 72.0859C194.671 71.6148 194.853 71.11 195.157 70.5716C195.46 70.0332 195.764 69.6462 196.068 69.4106C196.189 68.9395 196.417 68.5189 196.751 68.1487C197.085 67.7449 197.464 67.4252 197.889 67.1896C197.889 66.6849 198.132 66.2474 198.618 65.8772C198.618 65.507 198.709 65.1537 198.891 64.8172C199.316 63.9422 199.908 63.5048 200.667 63.5048C201.244 63.5048 201.745 63.774 202.17 64.3124C202.626 64.8508 202.854 65.507 202.854 66.281C202.854 66.6849 202.823 66.9877 202.762 67.1896C202.823 67.3242 202.854 67.5766 202.854 67.9468C202.854 68.317 202.823 68.5862 202.762 68.7544C202.914 69.0573 202.99 69.5116 202.99 70.1173C202.99 70.9586 202.869 71.6148 202.626 72.0859C202.808 72.5234 202.899 73.0282 202.899 73.6003C202.899 74.2397 202.778 74.9127 202.535 75.6194C202.869 76.0905 203.036 76.7299 203.036 77.5375C203.036 78.2779 202.899 78.8331 202.626 79.2033C202.869 79.8427 202.99 80.7681 202.99 81.9795C202.99 83.0227 202.869 83.7462 202.626 84.1501C202.778 84.4529 202.854 84.9241 202.854 85.5634C202.854 85.8663 202.823 86.186 202.762 86.5225C203.036 86.5225 203.279 86.6066 203.491 86.7749C203.856 86.6403 204.387 86.573 205.085 86.573C205.51 86.573 205.844 86.6066 206.087 86.6739ZM199.21 81.8786C199.028 81.5757 198.937 80.7849 198.937 79.5061C198.937 78.3956 199.028 77.7058 199.21 77.4366C198.846 77.0664 198.664 76.5111 198.664 75.7708C198.664 75.2324 198.739 74.7949 198.891 74.4584C198.709 74.0546 198.618 73.6844 198.618 73.3479C198.618 73.2133 198.648 72.9777 198.709 72.6412C198.557 73.1123 198.299 73.6003 197.935 74.105C197.601 74.5762 197.176 75.1314 196.66 75.7708C196.72 76.2756 196.569 76.814 196.204 77.3861C195.84 77.9245 195.415 78.3283 194.929 78.5975C194.929 79.0687 194.61 79.7754 193.973 80.7176C193.335 81.6598 192.804 82.2656 192.379 82.5348C192.379 82.9723 192.287 83.3761 192.105 83.7462C191.923 84.0828 191.665 84.3183 191.331 84.4529C191.331 84.8904 191.194 85.3447 190.921 85.8158C190.648 86.2533 190.314 86.6403 189.919 86.9768C190.041 86.8759 190.253 86.8254 190.557 86.8254C190.982 86.8254 191.194 86.9263 191.194 87.1282C191.528 86.8927 192.06 86.7749 192.788 86.7749C193.487 86.7749 194.003 86.8927 194.337 87.1282C194.914 86.7581 195.627 86.573 196.477 86.573C196.963 86.573 197.312 86.6403 197.525 86.7749C197.616 86.7076 197.829 86.6571 198.163 86.6235C198.497 86.5898 198.694 86.6066 198.755 86.6739C198.724 86.5057 198.709 86.2869 198.709 86.0177C198.709 85.7149 198.77 85.1933 198.891 84.4529C198.831 84.0491 198.8 83.7462 198.8 83.5443C198.8 82.9386 198.937 82.3834 199.21 81.8786Z" fill="black"/>
</svg>
