<svg width="811" height="608" viewBox="0 0 811 608" fill="none" xmlns="http://www.w3.org/2000/svg">
<path d="M22 367C-44 222.2 103.833 107.333 186 67.9996C334 2.3996 467.333 1.33294 515.5 8.9996C646.7 29.3996 737.5 84.8329 766.5 110C829.3 171.6 803.333 289 782.5 340C768.5 386 619.667 433.5 547 451.5L613.5 593.5L440 480.5L234 505.5C124.8 514.3 47.1667 416.833 22 367Z" fill="white" stroke="black" stroke-width="10"/>
<path d="M132.133 250.182C131.313 250.619 130.411 250.674 129.427 250.346C128.443 250.073 127.596 249.499 126.885 248.624C126.229 247.804 125.874 246.793 125.819 245.59C126.038 245.098 126.311 244.688 126.639 244.36C126.967 244.032 127.35 243.759 127.787 243.54C128.006 243.431 128.197 243.376 128.361 243.376C128.58 243.321 128.798 243.294 129.017 243.294C129.072 243.294 129.345 243.048 129.837 242.556C130.329 242.009 130.876 241.408 131.477 240.752C132.133 240.096 132.68 239.549 133.117 239.112C133.609 238.62 133.828 238.401 133.773 238.456C134.702 237.363 135.55 236.351 136.315 235.422C137.08 234.438 138.146 233.017 139.513 231.158C139.95 230.557 140.415 229.873 140.907 229.108C141.454 228.288 142 227.468 142.547 226.648C142.984 225.937 143.394 225.254 143.777 224.598C144.214 223.942 144.597 223.368 144.925 222.876C145.198 222.548 145.444 222.22 145.663 221.892C145.936 221.509 146.182 221.154 146.401 220.826L146.729 219.842C147.002 219.077 147.303 218.202 147.631 217.218C148.014 216.234 148.369 215.277 148.697 214.348C149.08 213.419 149.38 212.599 149.599 211.888C149.872 211.177 150.064 210.713 150.173 210.494C150.228 210.385 150.31 210.193 150.419 209.92C150.528 209.592 150.692 209.237 150.911 208.854C151.294 208.089 151.704 207.187 152.141 206.148C152.633 205.055 153.125 203.961 153.617 202.868C154.109 201.775 154.546 200.818 154.929 199.998C154.546 200.107 154.136 200.271 153.699 200.49C153.316 200.709 152.852 200.955 152.305 201.228C150.392 202.157 148.779 202.841 147.467 203.278C146.21 203.661 145.198 203.825 144.433 203.77C143.668 203.661 143.094 203.36 142.711 202.868C141.782 201.611 141.536 200.244 141.973 198.768C142.41 197.292 143.23 196.335 144.433 195.898C145.198 195.625 145.964 195.351 146.729 195.078C147.549 194.805 148.342 194.531 149.107 194.258C149.872 193.93 150.638 193.629 151.403 193.356C152.223 193.083 153.016 192.809 153.781 192.536C155.202 192.099 156.514 191.689 157.717 191.306C158.974 190.923 160.122 190.541 161.161 190.158C161.598 190.158 162.172 190.131 162.883 190.076C163.648 189.967 164.414 189.857 165.179 189.748C165.944 189.639 166.628 189.529 167.229 189.42C167.885 189.256 168.322 189.147 168.541 189.092C169.689 189.037 170.755 189.147 171.739 189.42C172.723 189.639 173.57 189.994 174.281 190.486C174.554 190.65 174.773 190.814 174.937 190.978C175.156 191.142 175.374 191.333 175.593 191.552L177.315 194.012C177.588 194.504 177.834 195.051 178.053 195.652C178.272 196.199 178.463 196.8 178.627 197.456C178.736 197.839 178.764 198.358 178.709 199.014C178.709 199.615 178.627 200.353 178.463 201.228C178.299 202.103 178.08 203.196 177.807 204.508C177.534 205.82 177.151 207.378 176.659 209.182C176.44 210.002 176.194 210.877 175.921 211.806C175.702 212.681 175.456 213.637 175.183 214.676C175.019 215.387 174.855 216.07 174.691 216.726C174.527 217.327 174.363 217.956 174.199 218.612C174.09 219.213 173.953 219.842 173.789 220.498C173.625 221.154 173.434 221.865 173.215 222.63C172.996 224.215 172.614 225.992 172.067 227.96C171.52 229.873 170.892 231.841 170.181 233.864C169.47 235.887 168.787 237.8 168.131 239.604C167.53 241.353 167.065 242.857 166.737 244.114C166.518 244.497 166.245 245.098 165.917 245.918C165.644 246.683 165.288 247.285 164.851 247.722C164.14 248.378 163.43 248.788 162.719 248.952C162.063 249.171 161.407 249.143 160.751 248.87C159.712 248.433 158.947 247.886 158.455 247.23C157.963 246.629 157.826 245.781 158.045 244.688C158.154 244.524 158.428 243.868 158.865 242.72C159.357 241.517 159.876 240.178 160.423 238.702C160.97 237.171 161.462 235.777 161.899 234.52C162.391 233.263 162.692 232.47 162.801 232.142C163.02 230.83 163.266 229.573 163.539 228.37C163.867 227.167 164.195 226.101 164.523 225.172C164.851 224.188 165.152 223.45 165.425 222.958C165.644 221.974 165.835 221.072 165.999 220.252C166.163 219.377 166.327 218.557 166.491 217.792C166.71 216.699 166.901 215.715 167.065 214.84C167.284 213.965 167.475 213.173 167.639 212.462C167.858 211.697 168.049 211.013 168.213 210.412L169.525 204.59C169.744 203.551 169.962 202.54 170.181 201.556C170.4 200.517 170.618 199.479 170.837 198.44C170.892 198.276 170.919 198.112 170.919 197.948C170.974 197.729 171.028 197.538 171.083 197.374C170.427 197.374 169.47 197.429 168.213 197.538C166.956 197.593 165.808 197.647 164.769 197.702C163.73 197.757 163.156 197.839 163.047 197.948C163.047 198.167 162.91 198.686 162.637 199.506C162.418 200.217 162.09 201.064 161.653 202.048C161.27 202.977 160.86 203.961 160.423 205C159.986 205.984 159.576 206.913 159.193 207.788C158.81 208.608 158.51 209.237 158.291 209.674C157.58 210.986 156.924 212.298 156.323 213.61C155.776 214.922 155.202 216.261 154.601 217.628C154.382 218.339 153.918 219.432 153.207 220.908C152.551 222.329 151.758 223.915 150.829 225.664C149.954 227.413 149.052 229.135 148.123 230.83C147.194 232.47 146.319 233.919 145.499 235.176C144.679 236.379 143.914 237.445 143.203 238.374C142.547 239.303 141.864 240.233 141.153 241.162C140.442 242.037 139.568 243.103 138.529 244.36C137.654 245.563 136.561 246.738 135.249 247.886C133.937 249.089 132.898 249.854 132.133 250.182ZM200.948 245.836C200.401 245.289 199.964 244.551 199.636 243.622C199.308 242.638 198.98 241.517 198.652 240.26C198.542 239.823 198.488 239.331 198.488 238.784C198.542 238.237 198.542 237.8 198.488 237.472C198.324 237.855 198.05 238.347 197.668 238.948C197.34 239.549 197.012 239.987 196.684 240.26C196.465 240.479 195.973 240.916 195.208 241.572C194.442 242.173 193.677 242.665 192.912 243.048C191.108 244.196 189.495 244.743 188.074 244.688C186.707 244.579 185.504 243.868 184.466 242.556C183.591 241.845 182.88 240.943 182.334 239.85C181.787 238.757 181.678 237.445 182.006 235.914C182.115 234.001 182.388 232.142 182.826 230.338C183.263 228.479 184.165 226.019 185.532 222.958C186.68 220.717 187.554 218.967 188.156 217.71C188.757 216.453 189.14 215.715 189.304 215.496C190.124 215.223 191.135 215.25 192.338 215.578C193.54 215.851 194.196 216.371 194.306 217.136C194.634 217.683 194.634 218.721 194.306 220.252C193.978 221.728 193.322 223.423 192.338 225.336C191.572 227.195 190.834 228.999 190.124 230.748C189.468 232.497 189.058 233.973 188.894 235.176C188.784 236.379 189.112 237.117 189.878 237.39C190.37 237.663 191.08 237.636 192.01 237.308C192.994 236.98 194.142 235.996 195.454 234.356C196.766 232.716 198.16 230.119 199.636 226.566C200.073 225.473 200.401 224.516 200.62 223.696C200.838 222.821 200.975 221.865 201.03 220.826C200.92 220.17 201.084 219.487 201.522 218.776C202.014 218.065 202.588 217.519 203.244 217.136C203.462 216.863 203.763 216.617 204.146 216.398C204.528 216.125 204.774 216.125 204.884 216.398L206.196 216.316C206.414 216.261 206.66 216.48 206.934 216.972C207.207 217.464 207.48 217.819 207.754 218.038C208.355 218.53 208.628 219.596 208.574 221.236C208.519 222.876 207.863 225.172 206.606 228.124C205.567 230.365 204.856 232.06 204.474 233.208C204.146 234.356 203.954 235.477 203.9 236.57C203.9 237.554 203.982 238.401 204.146 239.112C204.31 239.768 204.802 240.451 205.622 241.162C206.223 241.545 206.551 242.201 206.606 243.13C206.715 244.005 206.742 244.77 206.688 245.426C206.578 245.918 206.141 246.246 205.376 246.41C204.665 246.629 203.872 246.683 202.998 246.574C202.178 246.465 201.494 246.219 200.948 245.836ZM221.867 246.328C220.282 246.601 218.696 246.465 217.111 245.918C215.58 245.371 214.296 244.497 213.257 243.294C212.273 242.037 211.781 240.533 211.781 238.784C211.617 237.144 211.754 235.203 212.191 232.962C212.683 230.666 213.394 228.37 214.323 226.074C215.307 223.778 216.428 221.837 217.685 220.252C218.778 218.94 219.872 217.737 220.965 216.644C222.058 215.551 223.042 214.813 223.917 214.43C224.682 214.102 225.612 213.856 226.705 213.692C227.853 213.473 228.646 213.364 229.083 213.364C229.958 213.583 230.914 213.938 231.953 214.43C233.046 214.922 233.593 215.496 233.593 216.152C233.593 216.152 233.648 216.234 233.757 216.398C233.921 216.507 234.003 216.562 234.003 216.562C234.331 216.562 234.686 216.972 235.069 217.792C235.506 218.557 235.834 219.459 236.053 220.498C236.272 221.482 236.217 222.275 235.889 222.876C235.67 223.915 235.233 224.926 234.577 225.91C233.976 226.894 233.456 227.386 233.019 227.386C232.8 227.386 232.582 227.413 232.363 227.468C232.199 227.468 232.117 227.605 232.117 227.878C232.117 228.151 231.816 228.288 231.215 228.288C230.668 228.288 230.094 228.179 229.493 227.96C228.892 227.741 228.509 227.413 228.345 226.976C228.345 226.703 228.4 226.347 228.509 225.91C228.618 225.473 228.782 224.735 229.001 223.696C229.329 222.165 229.356 221.154 229.083 220.662C228.81 220.115 228.126 220.061 227.033 220.498C225.666 221.263 224.546 222.165 223.671 223.204C222.796 224.188 222.004 225.582 221.293 227.386C220.637 229.19 219.899 231.705 219.079 234.93C218.751 236.187 218.696 237.171 218.915 237.882C219.188 238.593 219.407 238.975 219.571 239.03C220.336 239.249 221.156 239.303 222.031 239.194C222.96 239.03 223.726 238.784 224.327 238.456C225.202 238.019 225.967 237.554 226.623 237.062C227.334 236.515 228.099 235.941 228.919 235.34C229.192 235.176 229.438 234.875 229.657 234.438C229.876 233.946 230.204 233.591 230.641 233.372C231.078 232.716 231.625 232.388 232.281 232.388C232.992 232.333 233.675 232.306 234.331 232.306C234.768 232.415 235.233 232.689 235.725 233.126C236.217 233.563 236.572 234.001 236.791 234.438C237.064 234.821 237.037 235.094 236.709 235.258C236.49 235.258 236.354 235.34 236.299 235.504C236.299 235.613 236.299 235.668 236.299 235.668C236.408 235.887 236.162 236.379 235.561 237.144C235.014 237.909 234.304 238.729 233.429 239.604C232.554 240.479 231.707 241.244 230.887 241.9C230.122 242.501 229.575 242.802 229.247 242.802C228.7 242.802 228.427 242.966 228.427 243.294C228.427 243.403 228.017 243.677 227.197 244.114C226.432 244.551 225.53 244.989 224.491 245.426C223.507 245.863 222.632 246.164 221.867 246.328ZM246.488 242.966C246.324 242.747 245.969 242.474 245.422 242.146C244.876 241.818 244.602 241.545 244.602 241.326C244.602 241.217 244.575 241.08 244.52 240.916C244.52 240.752 244.411 240.67 244.192 240.67C244.028 240.506 244.11 239.905 244.438 238.866C244.821 237.827 245.313 236.597 245.914 235.176C246.57 233.755 247.254 232.388 247.964 231.076C248.675 229.709 249.276 228.616 249.768 227.796C250.042 227.632 250.206 227.413 250.26 227.14C250.37 226.812 250.37 226.648 250.26 226.648C250.26 226.648 250.397 226.402 250.67 225.91C250.998 225.363 251.244 225.008 251.408 224.844C251.846 224.079 252.174 223.313 252.392 222.548C252.611 221.728 252.666 221.045 252.556 220.498C252.338 220.225 252.092 220.143 251.818 220.252C251.545 220.361 251.408 220.416 251.408 220.416C251.19 220.471 250.862 220.58 250.424 220.744C250.042 220.853 249.686 221.017 249.358 221.236C248.101 222.111 247.172 222.548 246.57 222.548C246.024 222.548 245.477 221.892 244.93 220.58C244.712 219.979 244.63 219.405 244.684 218.858C244.739 218.311 244.958 217.874 245.34 217.546C245.778 217.163 246.324 216.781 246.98 216.398C247.636 215.961 248.074 215.66 248.292 215.496C248.894 215.113 249.741 214.703 250.834 214.266C251.928 213.829 252.584 213.583 252.802 213.528C254.224 213.091 255.426 213.091 256.41 213.528C257.394 213.911 258.132 214.676 258.624 215.824C259.39 216.753 259.772 217.737 259.772 218.776C259.772 219.815 259.39 221.099 258.624 222.63L257.804 223.86C257.531 224.407 257.476 224.68 257.64 224.68C257.859 224.68 258.105 224.489 258.378 224.106C258.542 223.887 258.87 223.559 259.362 223.122C259.854 222.685 260.182 222.466 260.346 222.466C260.346 222.466 260.401 222.439 260.51 222.384C260.674 222.329 260.756 222.111 260.756 221.728C260.92 221.564 261.084 221.4 261.248 221.236C261.467 221.072 261.576 220.99 261.576 220.99C261.795 220.99 262.068 220.881 262.396 220.662C262.779 220.389 263.408 219.897 264.282 219.186C264.884 218.749 265.43 218.53 265.922 218.53C267.18 218.147 268.191 218.557 268.956 219.76C269.776 220.963 270.186 222.521 270.186 224.434L268.464 228.862L271.416 225.254C271.744 224.817 272.072 224.434 272.4 224.106C272.783 223.778 273.111 223.505 273.384 223.286C273.494 222.903 273.658 222.685 273.876 222.63C274.095 222.575 274.204 222.548 274.204 222.548C274.204 222.548 274.259 222.548 274.368 222.548C274.478 222.493 274.532 222.384 274.532 222.22C274.806 222.001 275.106 221.81 275.434 221.646C275.762 221.427 275.981 221.209 276.09 220.99C277.02 220.607 278.14 220.553 279.452 220.826C280.764 221.045 281.694 221.728 282.24 222.876C282.623 223.532 282.978 224.106 283.306 224.598C283.634 225.09 283.798 225.828 283.798 226.812C283.689 227.632 283.58 228.206 283.47 228.534C283.416 228.862 283.361 229.217 283.306 229.6C283.252 229.928 283.17 230.529 283.06 231.404C282.842 231.841 282.705 232.306 282.65 232.798C282.65 233.29 282.65 233.755 282.65 234.192C282.65 234.903 282.678 235.395 282.732 235.668C282.787 235.887 283.006 235.996 283.388 235.996C284.154 235.832 284.782 235.586 285.274 235.258C285.821 234.875 286.422 234.383 287.078 233.782C287.898 233.017 288.609 232.907 289.21 233.454C289.866 233.946 290.276 234.52 290.44 235.176C290.55 235.395 290.44 235.887 290.112 236.652C289.784 237.417 289.402 238.155 288.964 238.866C288.527 239.577 288.172 239.932 287.898 239.932C287.734 239.932 287.406 240.151 286.914 240.588C286.422 241.025 286.04 241.326 285.766 241.49C285.384 241.873 285.001 242.228 284.618 242.556C284.29 242.884 283.908 243.048 283.47 243.048C283.252 243.048 282.978 243.13 282.65 243.294C282.377 243.403 282.049 243.458 281.666 243.458C281.12 243.622 280.272 243.54 279.124 243.212C278.031 242.884 277.32 242.119 276.992 240.916C276.774 240.315 276.446 239.549 276.008 238.62C275.626 237.691 275.544 236.543 275.762 235.176C275.981 234.192 276.118 233.29 276.172 232.47C276.227 231.65 276.336 231.076 276.5 230.748C276.5 230.584 276.5 230.201 276.5 229.6C276.5 228.944 276.418 228.616 276.254 228.616C276.036 228.616 275.626 228.889 275.024 229.436C274.423 229.983 273.712 230.721 272.892 231.65C272.072 232.525 271.225 233.481 270.35 234.52C269.53 235.559 268.792 236.597 268.136 237.636C267.644 238.237 267.207 238.975 266.824 239.85C266.442 240.725 266.168 241.217 266.004 241.326C265.622 241.763 264.966 241.818 264.036 241.49C263.162 241.162 262.506 240.643 262.068 239.932C261.904 239.604 261.713 239.413 261.494 239.358C261.276 239.249 261.084 239.085 260.92 238.866C260.811 238.593 260.811 238.073 260.92 237.308C261.084 236.543 261.44 235.313 261.986 233.618C262.588 231.759 263.107 230.092 263.544 228.616C264.036 227.085 264.282 226.32 264.282 226.32C264.282 226.101 263.872 226.32 263.052 226.976C262.232 227.577 261.276 228.343 260.182 229.272C259.69 229.873 259.034 230.639 258.214 231.568C257.449 232.497 256.547 233.591 255.508 234.848C254.524 236.105 253.404 237.581 252.146 239.276C250.561 241.517 249.358 242.884 248.538 243.376C247.773 243.868 247.09 243.731 246.488 242.966ZM303.922 244.852C303.485 244.961 302.911 245.016 302.2 245.016C301.49 244.961 300.861 244.879 300.314 244.77C299.822 244.606 299.576 244.442 299.576 244.278C299.576 244.005 299.44 243.868 299.166 243.868C299.166 243.868 298.866 243.649 298.264 243.212C297.663 242.72 297.116 242.365 296.624 242.146C296.132 241.381 295.804 240.506 295.64 239.522C295.531 238.483 295.859 236.679 296.624 234.11C296.679 232.361 297.171 230.529 298.1 228.616C299.03 226.648 300.205 224.735 301.626 222.876C303.048 221.017 304.524 219.377 306.054 217.956C307.585 216.48 308.952 215.387 310.154 214.676C310.92 213.911 311.931 213.501 313.188 213.446C314.5 213.391 315.648 213.637 316.632 214.184C317.179 214.457 317.78 215.004 318.436 215.824C319.092 216.644 319.721 217.519 320.322 218.448C320.924 219.323 321.388 220.115 321.716 220.826C321.88 221.427 322.017 221.974 322.126 222.466C322.29 222.903 322.4 223.45 322.454 224.106C322.509 224.762 322.454 225.746 322.29 227.058C322.017 228.042 321.771 229.053 321.552 230.092C321.388 231.076 321.306 232.087 321.306 233.126C321.197 234.165 321.306 234.903 321.634 235.34C322.017 235.777 322.564 235.805 323.274 235.422C323.93 235.094 324.614 235.067 325.324 235.34C326.035 235.559 326.527 235.996 326.8 236.652C327.128 237.253 327.046 238.046 326.554 239.03C326.226 239.741 325.707 240.424 324.996 241.08C324.286 241.736 323.493 242.283 322.618 242.72C321.744 243.103 320.896 243.294 320.076 243.294C319.475 243.294 318.874 243.075 318.272 242.638C317.671 242.146 317.124 241.49 316.632 240.67C316.14 239.85 315.73 238.948 315.402 237.964L314.91 236.078L311.958 238.784C311.248 239.549 310.537 240.26 309.826 240.916C309.17 241.517 308.76 241.955 308.596 242.228C308.323 242.72 307.776 243.157 306.956 243.54C306.191 243.923 305.18 244.36 303.922 244.852ZM306.136 236.98C307.066 236.433 307.858 235.777 308.514 235.012C309.225 234.247 309.908 233.399 310.564 232.47C311.22 231.486 311.931 230.447 312.696 229.354C313.626 228.097 314.282 227.085 314.664 226.32C315.102 225.555 315.43 224.735 315.648 223.86C315.43 223.259 315.129 222.63 314.746 221.974C314.364 221.263 313.981 220.881 313.598 220.826C312.833 220.826 311.904 221.291 310.81 222.22C309.772 223.149 308.624 224.489 307.366 226.238C307.148 226.511 306.874 226.949 306.546 227.55C306.218 228.151 305.89 228.725 305.562 229.272C305.289 229.764 305.098 230.092 304.988 230.256C304.824 230.475 304.578 230.994 304.25 231.814C303.977 232.579 303.731 233.372 303.512 234.192C303.294 234.957 303.184 235.504 303.184 235.832C303.184 236.16 303.212 236.515 303.266 236.898C303.376 237.281 303.649 237.527 304.086 237.636C304.524 237.745 305.207 237.527 306.136 236.98ZM351.271 246.492C350.889 246.711 350.369 246.629 349.713 246.246C349.112 245.863 348.511 245.289 347.909 244.524C347.527 243.868 347.226 243.212 347.007 242.556C346.843 241.845 346.761 240.807 346.761 239.44C346.816 238.347 346.816 237.609 346.761 237.226C346.761 236.789 346.515 236.761 346.023 237.144C345.586 237.472 344.684 238.292 343.317 239.604C341.951 240.971 340.639 242.146 339.381 243.13C338.179 244.059 337.195 244.497 336.429 244.442C336.047 244.442 335.527 244.196 334.871 243.704C334.215 243.212 333.587 242.611 332.985 241.9C332.384 241.135 331.947 240.424 331.673 239.768C331.345 238.456 331.318 236.761 331.591 234.684C331.919 232.607 332.439 230.447 333.149 228.206C333.86 225.91 334.653 223.778 335.527 221.81C336.457 219.787 337.359 218.175 338.233 216.972C339.163 215.715 339.955 215.113 340.611 215.168C341.541 215.277 342.333 215.742 342.989 216.562C343.7 217.327 344.247 218.175 344.629 219.104C344.848 219.487 344.93 219.815 344.875 220.088C344.875 220.361 344.657 220.689 344.219 221.072C343.727 221.728 343.126 222.685 342.415 223.942C341.759 225.145 341.076 226.457 340.365 227.878C339.709 229.299 339.108 230.666 338.561 231.978C338.069 233.235 337.714 234.274 337.495 235.094C337.277 235.914 337.277 236.324 337.495 236.324C338.261 236.324 338.971 236.133 339.627 235.75C340.283 235.313 341.103 234.629 342.087 233.7C343.235 232.552 344.247 231.404 345.121 230.256C345.996 229.053 346.898 227.687 347.827 226.156C348.538 225.063 349.276 223.86 350.041 222.548C350.861 221.236 351.381 220.307 351.599 219.76C352.365 218.339 352.939 217.273 353.321 216.562C353.704 215.851 354.169 215.414 354.715 215.25C354.989 215.25 355.371 215.25 355.863 215.25C356.355 215.25 356.601 215.25 356.601 215.25C356.929 215.305 357.312 215.551 357.749 215.988C358.187 216.207 358.624 216.507 359.061 216.89C359.553 217.273 359.799 217.601 359.799 217.874C359.581 218.421 359.225 219.241 358.733 220.334C358.296 221.373 357.968 222.138 357.749 222.63C356.711 224.981 355.699 227.304 354.715 229.6C353.786 231.841 353.103 234.137 352.665 236.488C352.556 237.253 352.529 238.155 352.583 239.194C352.693 240.178 352.857 240.889 353.075 241.326C353.239 241.654 353.431 242.037 353.649 242.474C353.923 242.857 354.223 243.185 354.551 243.458C355.043 243.786 355.016 244.196 354.469 244.688C353.977 245.18 353.349 245.617 352.583 246C351.873 246.328 351.435 246.492 351.271 246.492ZM350.369 210.248C348.456 210.303 346.925 209.783 345.777 208.69C344.629 207.597 343.591 205.711 342.661 203.032C342.497 202.431 342.47 201.884 342.579 201.392C342.689 200.845 342.825 200.435 342.989 200.162C343.372 199.725 343.809 199.479 344.301 199.424C344.848 199.315 345.231 199.315 345.449 199.424C346.215 199.697 346.898 200.08 347.499 200.572C348.101 201.009 348.374 201.775 348.319 202.868C348.429 203.141 348.511 203.415 348.565 203.688C348.675 203.907 348.757 204.071 348.811 204.18C348.975 204.563 349.221 204.781 349.549 204.836C349.877 204.836 350.123 204.809 350.287 204.754C351.381 204.317 352.337 203.879 353.157 203.442C354.032 202.95 354.825 202.349 355.535 201.638C356.137 201.037 356.683 200.545 357.175 200.162C357.667 199.725 358.187 199.233 358.733 198.686L358.815 198.604C359.362 198.167 359.991 198.057 360.701 198.276C361.412 198.44 361.795 198.659 361.849 198.932C362.123 199.205 362.287 199.67 362.341 200.326C362.451 200.927 362.505 201.447 362.505 201.884L362.423 202.212C362.205 202.595 361.986 203.114 361.767 203.77C361.549 204.371 360.975 205 360.045 205.656C359.061 206.531 358.077 207.241 357.093 207.788C356.109 208.335 354.989 208.963 353.731 209.674C353.349 209.893 352.884 210.057 352.337 210.166C351.791 210.221 351.135 210.248 350.369 210.248ZM395.391 246.492C395.117 246.547 394.543 246.437 393.669 246.164C392.849 245.945 391.947 245.59 390.963 245.098C390.033 244.551 389.295 244.005 388.749 243.458C388.038 242.693 387.546 241.982 387.273 241.326C386.999 240.615 386.863 239.905 386.863 239.194C386.535 238.483 386.343 237.691 386.289 236.816C386.289 235.887 386.261 234.985 386.207 234.11C386.207 232.634 386.535 231.158 387.191 229.682C387.901 228.151 388.448 227.031 388.831 226.32C389.213 225.281 389.897 224.133 390.881 222.876C391.919 221.619 393.067 220.416 394.325 219.268C395.637 218.12 396.867 217.273 398.015 216.726C398.835 216.234 400.037 215.851 401.623 215.578C403.208 215.25 404.684 215.305 406.051 215.742C406.707 215.906 407.253 216.207 407.691 216.644C408.183 217.081 408.593 217.491 408.921 217.874C409.085 216.89 409.221 215.66 409.331 214.184C409.495 212.653 409.577 211.095 409.577 209.51C409.631 207.925 409.549 206.476 409.331 205.164C409.167 203.797 408.839 202.786 408.347 202.13C407.144 200.49 405.504 199.397 403.427 198.85C401.349 198.249 399.436 198.331 397.687 199.096C396.976 198.713 396.457 198.303 396.129 197.866C395.855 197.429 395.609 196.882 395.391 196.226C395.5 195.078 395.937 194.203 396.703 193.602C397.468 193.001 398.534 192.563 399.901 192.29C400.666 192.126 401.541 192.017 402.525 191.962C403.509 191.907 404.52 192.181 405.559 192.782C408.565 193.766 410.807 195.215 412.283 197.128C413.759 198.987 414.743 201.173 415.235 203.688C415.781 206.203 416.082 208.936 416.137 211.888C416.191 212.653 416.164 213.637 416.055 214.84C416 215.988 415.836 217.191 415.563 218.448C415.399 219.377 415.18 220.307 414.907 221.236C414.688 222.111 414.415 222.876 414.087 223.532C413.923 224.243 413.731 224.953 413.513 225.664C413.294 226.32 413.048 227.003 412.775 227.714C411.736 230.666 410.369 233.481 408.675 236.16C406.98 238.784 405.012 241.025 402.771 242.884C400.529 244.688 398.069 245.891 395.391 246.492ZM394.571 239.686C395.5 239.631 396.429 239.194 397.359 238.374C398.343 237.554 399.272 236.57 400.147 235.422C401.076 234.219 401.923 233.099 402.689 232.06C403.071 231.568 403.427 231.076 403.755 230.584C404.083 230.037 404.383 229.463 404.657 228.862C404.985 228.261 405.258 227.659 405.477 227.058C405.969 225.801 406.297 224.653 406.461 223.614C406.679 222.575 406.597 221.919 406.215 221.646C405.668 221.209 404.766 221.236 403.509 221.728C402.251 222.165 401.021 222.821 399.819 223.696C398.944 224.297 398.124 225.117 397.359 226.156C396.593 227.14 395.91 228.097 395.309 229.026C394.981 229.518 394.68 230.01 394.407 230.502C394.133 230.939 393.915 231.295 393.751 231.568C393.423 232.115 393.149 232.853 392.931 233.782C392.767 234.711 392.685 235.613 392.685 236.488C392.685 237.363 392.821 238.128 393.095 238.784C393.423 239.44 393.915 239.741 394.571 239.686ZM419.314 244.278C419.095 243.841 418.603 243.403 417.838 242.966C417.127 242.529 416.772 242.201 416.772 241.982C416.772 241.763 416.635 241.435 416.362 240.998C416.143 240.506 415.924 240.151 415.706 239.932C415.432 239.604 415.514 238.811 415.952 237.554C416.389 236.242 417.045 234.657 417.92 232.798C418.794 230.939 419.751 229.053 420.79 227.14C421.227 226.703 421.664 226.129 422.102 225.418C422.539 224.707 422.867 224.243 423.086 224.024C423.086 223.805 423.168 223.614 423.332 223.45C423.496 223.231 423.687 223.122 423.906 223.122L424.562 221.81C424.671 221.591 424.999 221.154 425.546 220.498C426.147 219.842 426.858 219.131 427.678 218.366C428.498 217.546 429.318 216.781 430.138 216.07C431.012 215.359 431.723 214.84 432.27 214.512C433.418 213.747 434.593 213.391 435.796 213.446C437.053 213.501 438.119 213.883 438.994 214.594C439.158 214.758 439.513 215.086 440.06 215.578C440.661 216.07 441.317 216.617 442.028 217.218C442.793 217.819 443.449 218.366 443.996 218.858L447.03 221.564L445.636 225.664C444.925 227.851 444.734 229.764 445.062 231.404C445.39 233.044 445.909 234.465 446.62 235.668C446.893 236.269 447.248 236.734 447.686 237.062C448.178 237.39 448.806 237.609 449.572 237.718C450.009 237.773 450.419 237.937 450.802 238.21C451.184 238.483 451.376 238.921 451.376 239.522C451.376 240.834 451.13 241.791 450.638 242.392C450.2 242.939 449.708 243.267 449.162 243.376C447.358 243.595 445.636 243.403 443.996 242.802C442.356 242.201 440.88 240.643 439.568 238.128C439.349 237.8 439.048 237.199 438.666 236.324C438.338 235.395 438.146 234.793 438.092 234.52C437.873 234.793 437.572 235.149 437.19 235.586C436.862 235.969 436.534 236.324 436.206 236.652C432.324 240.588 428.99 243.157 426.202 244.36C423.468 245.508 421.172 245.481 419.314 244.278ZM423.824 237.472C424.206 237.527 424.808 237.335 425.628 236.898C426.448 236.406 427.541 235.613 428.908 234.52C430.766 232.935 432.297 231.623 433.5 230.584C434.702 229.545 435.878 228.206 437.026 226.566L438.83 223.614C438.283 222.357 437.791 221.537 437.354 221.154C436.916 220.771 436.479 220.58 436.042 220.58C435.331 220.58 434.484 221.045 433.5 221.974C432.516 222.849 431.395 224.161 430.138 225.91C428.935 227.605 427.568 229.737 426.038 232.306C425.327 233.509 424.78 234.684 424.398 235.832C424.015 236.925 423.824 237.472 423.824 237.472ZM457.47 245.918C456.924 245.699 456.404 245.535 455.912 245.426C455.42 245.317 454.901 245.18 454.354 245.016C453.862 244.524 453.425 244.005 453.042 243.458C452.714 242.857 452.496 242.228 452.386 241.572C452.168 240.861 452.168 240.315 452.386 239.932C452.66 239.495 452.851 238.948 452.96 238.292C453.343 238.292 453.698 238.292 454.026 238.292C454.409 238.292 454.792 238.292 455.174 238.292C455.94 237.691 456.705 236.925 457.47 235.996C458.29 235.067 459.056 234.083 459.766 233.044C460.368 232.115 460.914 231.185 461.406 230.256C461.953 229.327 462.336 228.452 462.554 227.632C462.718 227.085 462.828 226.566 462.882 226.074C462.992 225.582 463.156 225.09 463.374 224.598C463.538 224.215 463.675 223.833 463.784 223.45C463.948 223.067 464.112 222.685 464.276 222.302C463.62 222.193 463.074 222.029 462.636 221.81C462.254 221.591 461.871 221.318 461.488 220.99C461.16 220.607 460.75 220.197 460.258 219.76C460.204 218.831 460.258 218.011 460.422 217.3C460.641 216.589 461.133 216.043 461.898 215.66C462.117 215.551 462.336 215.469 462.554 215.414C462.828 215.305 463.101 215.223 463.374 215.168C464.194 214.785 465.233 214.621 466.49 214.676C467.748 214.676 468.95 214.785 470.098 215.004C470.426 215.059 470.754 215.113 471.082 215.168C471.41 215.223 471.711 215.305 471.984 215.414C472.476 215.523 472.941 215.715 473.378 215.988C473.87 216.261 474.362 216.48 474.854 216.644C475.292 216.753 475.729 216.917 476.166 217.136C476.604 217.355 477.014 217.601 477.396 217.874C478.49 218.585 479.364 219.514 480.02 220.662C480.731 221.81 481.086 223.013 481.086 224.27C481.086 226.074 480.84 227.769 480.348 229.354C480.075 230.393 479.747 231.431 479.364 232.47C479.036 233.509 478.736 234.547 478.462 235.586C478.298 236.133 478.134 236.679 477.97 237.226C477.806 237.718 477.67 238.237 477.56 238.784C477.342 239.659 477.178 240.561 477.068 241.49C476.959 242.365 476.877 243.294 476.822 244.278C476.44 244.387 476.03 244.524 475.592 244.688C475.21 244.797 474.8 244.907 474.362 245.016C473.652 244.797 472.859 244.497 471.984 244.114C471.164 243.731 470.563 243.185 470.18 242.474C470.126 242.31 470.071 242.146 470.016 241.982C469.962 241.818 469.907 241.654 469.852 241.49C469.798 241.326 469.77 241.162 469.77 240.998C469.77 240.834 469.77 240.67 469.77 240.506C469.716 239.358 469.852 238.155 470.18 236.898C470.563 235.586 470.946 234.329 471.328 233.126C471.602 232.251 471.875 231.431 472.148 230.666C472.476 229.846 472.722 229.081 472.886 228.37C472.996 227.878 473.16 227.304 473.378 226.648C473.597 225.937 473.734 225.254 473.788 224.598C473.843 224.051 473.788 223.532 473.624 223.04C473.296 222.767 472.941 222.575 472.558 222.466C472.176 222.357 471.766 222.247 471.328 222.138C471.328 222.138 471.192 222.466 470.918 223.122C470.864 223.177 470.809 223.259 470.754 223.368C470.754 223.477 470.754 223.587 470.754 223.696C470.59 224.024 470.426 224.407 470.262 224.844C470.098 225.227 469.962 225.609 469.852 225.992C469.798 226.156 469.743 226.32 469.688 226.484C469.634 226.648 469.579 226.785 469.524 226.894C469.36 227.277 469.224 227.632 469.114 227.96C469.06 228.233 469.032 228.397 469.032 228.452C468.978 229.217 468.814 229.955 468.54 230.666C468.322 231.322 468.076 231.951 467.802 232.552C467.529 233.099 467.228 233.673 466.9 234.274C466.572 234.821 466.272 235.395 465.998 235.996C465.944 236.215 465.862 236.406 465.752 236.57C465.643 236.734 465.534 236.925 465.424 237.144C465.042 237.8 464.632 238.456 464.194 239.112C463.757 239.768 463.292 240.397 462.8 240.998C462.09 241.982 461.297 242.884 460.422 243.704C459.548 244.524 458.564 245.262 457.47 245.918ZM494.171 245.918C492.913 245.809 491.929 245.727 491.219 245.672C490.508 245.617 489.907 245.481 489.415 245.262C488.923 244.989 488.349 244.551 487.693 243.95C486.982 243.239 486.463 242.419 486.135 241.49C485.807 240.561 485.643 239.495 485.643 238.292C485.643 236.433 485.943 234.356 486.545 232.06C487.201 229.764 487.966 227.468 488.841 225.172C489.77 222.876 490.617 220.826 491.383 219.022C492.203 217.163 492.777 215.797 493.105 214.922C493.105 214.047 493.515 213.528 494.335 213.364C495.155 213.145 496.029 213.118 496.959 213.282C497.943 213.446 498.571 213.719 498.845 214.102C499.173 214.485 499.473 214.895 499.747 215.332C500.075 215.769 500.266 216.289 500.321 216.89C500.43 217.71 500.266 218.475 499.829 219.186C499.446 219.897 499.063 220.471 498.681 220.908C497.97 221.783 497.232 222.958 496.467 224.434C495.701 225.855 494.963 227.386 494.253 229.026C493.542 230.666 492.968 232.251 492.531 233.782C492.148 235.258 491.929 236.488 491.875 237.472C491.875 238.456 492.148 239.03 492.695 239.194C493.952 239.522 495.291 239.522 496.713 239.194C498.134 238.866 499.419 238.319 500.567 237.554C501.769 236.734 502.671 235.805 503.273 234.766C503.71 234.001 503.901 233.317 503.847 232.716C503.847 232.06 503.273 231.705 502.125 231.65C501.359 231.595 500.539 231.623 499.665 231.732C498.79 231.841 497.724 231.951 496.467 232.06C496.029 231.623 495.537 231.049 494.991 230.338C494.499 229.573 494.034 229.108 493.597 228.944C493.815 227.523 494.444 226.484 495.483 225.828C496.576 225.172 497.697 224.789 498.845 224.68C499.993 224.516 500.785 224.461 501.223 224.516C502.316 224.68 503.464 225.063 504.667 225.664C505.924 226.265 506.99 227.031 507.865 227.96C508.357 228.507 508.767 229.108 509.095 229.764C509.477 230.42 509.723 231.131 509.833 231.896C510.051 233.317 509.997 234.684 509.669 235.996C509.341 237.308 508.821 238.429 508.111 239.358C507.072 240.725 505.514 241.927 503.437 242.966C501.414 244.005 499.227 244.989 496.877 245.918C496.33 245.918 495.893 245.863 495.565 245.754C495.237 245.645 494.772 245.699 494.171 245.918ZM518.176 244.77C517.848 244.715 517.247 244.415 516.372 243.868C515.552 243.321 514.759 242.529 513.994 241.49C513.283 240.397 512.873 239.057 512.764 237.472C512.709 236.543 512.764 235.613 512.928 234.684C513.092 233.755 513.365 232.771 513.748 231.732C514.295 230.475 514.814 229.272 515.306 228.124C515.853 226.976 516.399 225.828 516.946 224.68C517.93 222.275 518.859 220.498 519.734 219.35C520.663 218.202 521.538 217.628 522.358 217.628C523.561 217.737 524.627 218.284 525.556 219.268C526.485 220.252 526.923 221.209 526.868 222.138C526.759 222.575 526.54 223.095 526.212 223.696C525.939 224.297 525.583 224.899 525.146 225.5C524.381 226.211 523.779 226.976 523.342 227.796C522.959 228.561 522.604 229.463 522.276 230.502C521.565 231.869 521.073 232.798 520.8 233.29C520.581 233.782 520.335 234.411 520.062 235.176C520.39 235.285 520.691 235.34 520.964 235.34C521.292 235.285 521.62 235.176 521.948 235.012C522.276 234.793 522.577 234.493 522.85 234.11C523.834 233.017 524.599 232.197 525.146 231.65C525.693 231.103 526.185 230.557 526.622 230.01C526.786 229.846 527.196 229.327 527.852 228.452C528.508 227.523 529.164 226.593 529.82 225.664C530.531 224.68 531.023 224.024 531.296 223.696C531.733 223.095 532.089 222.548 532.362 222.056C532.69 221.564 532.963 221.072 533.182 220.58C533.291 219.869 533.619 219.35 534.166 219.022C534.713 218.694 535.341 218.585 536.052 218.694C537.091 219.241 537.856 219.76 538.348 220.252C538.895 220.744 539.359 221.482 539.742 222.466C540.015 223.013 540.015 223.805 539.742 224.844C539.469 225.828 538.84 227.277 537.856 229.19C537.419 230.065 537.009 231.021 536.626 232.06C536.243 233.044 536.052 234.001 536.052 234.93C536.052 235.586 536.161 236.133 536.38 236.57C536.544 236.406 536.927 236.051 537.528 235.504C538.129 234.903 538.813 234.247 539.578 233.536C540.343 232.771 540.999 232.115 541.546 231.568C541.601 231.459 541.901 231.076 542.448 230.42C543.049 229.709 543.459 229.217 543.678 228.944L547.04 224.762C547.423 224.325 547.805 223.696 548.188 222.876C548.625 222.056 549.117 221.345 549.664 220.744C550.211 220.143 550.867 219.979 551.632 220.252C553.436 220.853 554.693 222.193 555.404 224.27C555.459 225.582 555.185 226.921 554.584 228.288C554.037 229.6 553.627 231.185 553.354 233.044C553.245 233.864 553.163 234.821 553.108 235.914C553.053 236.953 553.026 237.527 553.026 237.636C553.409 238.128 553.873 238.237 554.42 237.964C554.967 237.691 555.486 237.527 555.978 237.472C557.126 237.855 557.782 238.702 557.946 240.014C558.11 241.271 557.727 242.392 556.798 243.376C556.142 243.759 555.513 244.032 554.912 244.196C554.365 244.305 553.846 244.333 553.354 244.278C552.479 244.114 551.741 243.841 551.14 243.458C550.593 243.021 550.156 242.611 549.828 242.228C549.5 241.791 549.254 241.517 549.09 241.408C548.434 240.807 547.887 240.096 547.45 239.276C547.013 238.456 546.712 237.363 546.548 235.996C546.22 236.379 545.701 236.925 544.99 237.636C544.279 238.347 543.569 239.085 542.858 239.85C542.147 240.561 541.519 241.189 540.972 241.736C540.425 242.228 540.152 242.474 540.152 242.474C539.332 243.239 538.512 243.759 537.692 244.032C536.872 244.305 535.943 244.333 534.904 244.114C534.084 243.677 533.264 243.048 532.444 242.228C531.624 241.353 531.105 240.643 530.886 240.096C530.667 239.495 530.476 239.003 530.312 238.62C530.148 238.183 530.011 237.8 529.902 237.472C529.847 237.199 529.793 236.953 529.738 236.734C529.683 236.515 529.629 236.324 529.574 236.16C529.355 236.433 529.027 236.789 528.59 237.226C528.207 237.609 527.797 238.019 527.36 238.456C526.923 238.839 526.485 239.194 526.048 239.522C524.408 241.053 523.205 242.201 522.44 242.966C521.675 243.677 521.101 244.169 520.718 244.442C520.39 244.661 519.953 244.77 519.406 244.77H518.176ZM571.639 247.476C568.632 247.476 566.309 246.601 564.669 244.852C563.083 243.103 562.291 240.424 562.291 236.816C562.291 234.848 562.646 232.689 563.357 230.338C564.122 227.987 565.106 225.691 566.309 223.45C567.566 221.209 568.933 219.268 570.409 217.628C571.885 215.933 573.361 214.758 574.837 214.102C575.383 213.829 575.957 213.637 576.559 213.528C577.215 213.364 577.843 213.282 578.445 213.282C579.101 213.282 579.811 213.337 580.577 213.446C581.397 213.501 582.162 213.665 582.873 213.938C584.13 214.321 585.223 215.059 586.153 216.152C587.137 217.245 587.629 218.831 587.629 220.908C587.629 221.455 587.574 222.056 587.465 222.712C587.355 223.313 587.164 223.915 586.891 224.516C586.18 226.32 585.087 228.042 583.611 229.682C582.189 231.322 580.686 232.47 579.101 233.126C578.663 233.345 578.226 233.509 577.789 233.618C577.406 233.673 576.996 233.7 576.559 233.7C575.411 233.7 574.372 233.536 573.443 233.208C572.568 232.88 571.748 232.443 570.983 231.896L570.327 231.322L569.917 232.142C569.534 233.181 569.261 234.055 569.097 234.766C568.987 235.477 568.933 235.996 568.933 236.324C568.933 236.98 568.96 237.663 569.015 238.374C569.069 239.03 569.233 239.577 569.507 240.014C569.725 240.287 569.999 240.506 570.327 240.67C570.709 240.834 571.174 240.916 571.721 240.916C572.049 240.916 572.349 240.916 572.623 240.916C572.951 240.861 573.224 240.807 573.443 240.752C574.427 240.533 575.219 240.178 575.821 239.686C576.477 239.139 577.16 238.675 577.871 238.292L578.199 238.128L578.117 237.882C579.046 237.39 579.675 237.089 580.003 236.98C580.331 236.816 580.577 236.679 580.741 236.57C580.959 236.351 581.205 236.242 581.479 236.242C582.244 236.133 582.982 236.351 583.693 236.898C584.458 237.39 584.841 238.019 584.841 238.784C584.841 239.112 584.595 239.631 584.103 240.342C583.665 241.053 583.091 241.763 582.381 242.474C581.725 243.13 581.041 243.649 580.331 244.032C580.167 244.087 580.003 244.169 579.839 244.278C579.675 244.333 579.511 244.415 579.347 244.524H579.429C578.937 245.18 578.445 245.508 577.953 245.508H577.297C577.078 245.891 576.367 246.301 575.165 246.738C573.962 247.23 572.787 247.476 571.639 247.476ZM575.903 227.714C576.395 227.714 576.832 227.632 577.215 227.468C577.652 227.304 578.062 227.113 578.445 226.894C579.757 225.965 580.604 224.762 580.987 223.286C581.369 221.81 581.233 220.689 580.577 219.924C580.467 219.76 580.331 219.651 580.167 219.596C580.003 219.487 579.811 219.432 579.593 219.432C578.991 219.432 578.308 219.623 577.543 220.006C576.832 220.389 576.121 220.935 575.411 221.646C574.7 222.357 574.044 223.204 573.443 224.188L572.377 225.91C572.486 225.855 572.568 225.828 572.623 225.828C572.732 225.773 572.814 225.746 572.869 225.746C573.361 225.746 573.689 225.91 573.853 226.238C574.017 226.566 574.208 226.894 574.427 227.222C574.7 227.55 575.192 227.714 575.903 227.714ZM622.361 224.516C621.213 224.899 620.256 225.09 619.491 225.09C618.726 225.035 617.878 224.68 616.949 224.024C615.856 222.931 615.5 221.837 615.883 220.744C616.266 219.596 617.25 218.475 618.835 217.382C619.928 216.726 620.721 216.398 621.213 216.398C621.76 216.343 622.552 216.535 623.591 216.972C625.395 218.12 626.188 219.405 625.969 220.826C625.805 222.193 624.602 223.423 622.361 224.516ZM616.621 241.736C615.473 242.119 614.516 242.31 613.751 242.31C612.986 242.255 612.138 241.9 611.209 241.244C610.116 240.151 609.76 239.057 610.143 237.964C610.526 236.816 611.51 235.695 613.095 234.602C614.188 233.946 614.981 233.618 615.473 233.618C616.02 233.563 616.812 233.755 617.851 234.192C619.655 235.34 620.448 236.625 620.229 238.046C620.065 239.413 618.862 240.643 616.621 241.736ZM625.415 257.07C624.376 256.797 623.365 256.195 622.381 255.266C621.397 254.391 620.877 253.544 620.823 252.724C620.877 252.56 620.905 252.232 620.905 251.74C620.905 251.248 621.014 250.811 621.233 250.428C621.233 250.428 621.397 250.51 621.725 250.674C622.107 250.838 622.736 250.811 623.611 250.592C624.704 250.647 625.524 250.537 626.071 250.264C626.617 249.991 627.301 249.389 628.121 248.46C628.722 247.64 629.405 246.793 630.171 245.918C630.991 244.989 631.537 244.169 631.811 243.458C632.685 242.857 633.314 242.31 633.697 241.818C634.079 241.271 634.435 240.725 634.763 240.178C634.763 239.905 634.845 239.413 635.009 238.702C635.173 237.937 635.583 237.035 636.239 235.996C636.84 234.629 637.414 233.481 637.961 232.552C638.507 231.568 638.781 230.939 638.781 230.666C638.781 230.666 638.863 230.475 639.027 230.092C639.191 229.709 639.245 229.245 639.191 228.698C639.519 228.534 639.792 228.179 640.011 227.632C640.284 227.031 640.393 226.429 640.339 225.828C640.339 225.664 640.585 225.035 641.077 223.942C641.569 222.794 641.842 221.646 641.897 220.498C642.498 218.53 642.935 216.781 643.209 215.25C643.537 213.665 643.783 211.943 643.947 210.084C644.111 208.225 644.275 205.847 644.439 202.95C644.548 200.49 644.63 198.659 644.685 197.456C644.739 196.199 644.712 195.242 644.603 194.586C644.548 193.93 644.302 193.274 643.865 192.618C643.318 190.869 642.853 189.994 642.471 189.994C642.307 189.994 642.17 189.666 642.061 189.01C641.951 188.354 642.006 187.643 642.225 186.878C642.17 186.659 642.553 186.413 643.373 186.14C644.247 185.867 644.931 185.757 645.423 185.812C645.805 185.812 646.215 185.976 646.653 186.304C647.145 186.577 647.473 186.823 647.637 187.042C647.855 186.823 648.183 187.179 648.621 188.108C649.113 189.037 649.632 190.295 650.179 191.88C650.507 192.645 650.753 193.301 650.917 193.848C651.081 194.34 651.19 194.914 651.245 195.57C651.299 196.171 651.299 197.046 651.245 198.194C651.19 199.287 651.108 200.818 650.999 202.786C650.999 204.699 650.862 206.804 650.589 209.1C650.37 211.341 650.097 213.555 649.769 215.742C649.441 217.874 649.085 219.815 648.703 221.564C648.32 222.985 647.801 224.707 647.145 226.73C646.489 228.698 645.751 230.693 644.931 232.716C644.165 234.739 643.427 236.543 642.717 238.128C642.061 239.713 641.514 240.834 641.077 241.49C641.186 241.49 641.022 241.818 640.585 242.474C640.202 243.13 639.655 243.977 638.945 245.016C638.289 246 637.605 247.011 636.895 248.05C636.184 249.143 635.583 250.073 635.091 250.838C634.271 251.986 633.232 253.079 631.975 254.118C630.717 255.157 629.487 255.949 628.285 256.496C627.137 257.097 626.18 257.289 625.415 257.07ZM371.9 344.736C370.752 345.119 369.796 345.31 369.03 345.31C368.265 345.255 367.418 344.9 366.488 344.244C365.395 343.151 365.012 342.057 365.34 340.964C365.723 339.816 366.707 338.695 368.292 337.602C369.386 336.946 370.178 336.618 370.67 336.618C371.217 336.563 372.01 336.755 373.048 337.192C374.907 338.34 375.727 339.625 375.508 341.046C375.29 342.413 374.087 343.643 371.9 344.736ZM388.156 344.736C387.008 345.119 386.051 345.31 385.286 345.31C384.521 345.255 383.673 344.9 382.744 344.244C381.651 343.151 381.268 342.057 381.596 340.964C381.979 339.816 382.963 338.695 384.548 337.602C385.641 336.946 386.434 336.618 386.926 336.618C387.473 336.563 388.265 336.755 389.304 337.192C391.163 338.34 391.983 339.625 391.764 341.046C391.545 342.413 390.343 343.643 388.156 344.736ZM404.412 344.736C403.264 345.119 402.307 345.31 401.542 345.31C400.777 345.255 399.929 344.9 399 344.244C397.907 343.151 397.524 342.057 397.852 340.964C398.235 339.816 399.219 338.695 400.804 337.602C401.897 336.946 402.69 336.618 403.182 336.618C403.729 336.563 404.521 336.755 405.56 337.192C407.419 338.34 408.239 339.625 408.02 341.046C407.801 342.413 406.599 343.643 404.412 344.736Z" fill="black"/>
</svg>
