<svg width="255" height="192" viewBox="0 0 255 192" fill="none" xmlns="http://www.w3.org/2000/svg">
<path d="M63 20.5001C110.2 4.50006 135.667 2.50006 142.5 3.50006C196.9 1.10011 228.5 22.8334 237.5 34C261.9 64.4 250 96.6667 241 109C235.4 122.2 191.667 135.167 170.5 140L190.5 184.5L137 148.5L70.5 156.5C19.7 156.1 4.33333 113.667 3 92.5C-0.2 56.5 41.6667 29.5 63 20.5001Z" fill="white" stroke="black" stroke-width="5"/>
<path d="M18.5127 107.703C18.6206 107.698 18.7249 107.756 18.8255 107.877C18.9262 107.998 18.9935 108.149 19.0275 108.329C19.0588 108.494 19.0557 108.642 19.0183 108.774C19.1266 109.018 19.0791 109.26 18.8757 109.501C18.6695 109.726 18.4162 109.868 18.1159 109.924C17.8756 109.97 17.6437 109.936 17.4201 109.823C17.2086 109.691 17.0581 109.471 16.9685 109.161C16.82 109.034 16.7315 108.895 16.7031 108.745C16.6549 108.49 16.716 108.237 16.8866 107.987C17.0692 107.719 17.3108 107.557 17.6111 107.5C17.8814 107.449 18.1819 107.517 18.5127 107.703Z" fill="black"/>
<path d="M23.4401 106.772C23.5481 106.767 23.6524 106.825 23.753 106.946C23.8536 107.067 23.921 107.218 23.955 107.398C23.9862 107.563 23.9832 107.711 23.9458 107.843C24.0541 108.087 24.0066 108.329 23.8032 108.57C23.597 108.795 23.3437 108.936 23.0433 108.993C22.8031 109.039 22.5711 109.005 22.3475 108.891C22.1361 108.76 21.9856 108.54 21.896 108.23C21.7475 108.103 21.659 107.964 21.6306 107.814C21.5824 107.558 21.6435 107.306 21.814 107.056C21.9967 106.788 22.2382 106.626 22.5386 106.569C22.8089 106.518 23.1094 106.586 23.4401 106.772Z" fill="black"/>
<path d="M28.3676 105.841C28.4756 105.836 28.5799 105.894 28.6805 106.015C28.7811 106.136 28.8485 106.286 28.8825 106.467C28.9137 106.632 28.9106 106.78 28.8733 106.912C28.9816 107.156 28.9341 107.398 28.7307 107.639C28.5244 107.864 28.2712 108.005 27.9708 108.062C27.7306 108.107 27.4986 108.074 27.275 107.96C27.0636 107.829 26.9131 107.609 26.8234 107.299C26.6749 107.172 26.5865 107.033 26.5581 106.883C26.5099 106.627 26.571 106.375 26.7415 106.125C26.9242 105.857 27.1657 105.695 27.4661 105.638C27.7364 105.587 28.0369 105.654 28.3676 105.841Z" fill="black"/>
<path d="M30.2952 98.6642C30.1382 98.4916 30.0426 98.3153 30.0086 98.1351C29.9575 97.8648 30.005 97.6225 30.1512 97.4082C30.1537 97.1744 30.2191 96.9443 30.3474 96.7179C30.4728 96.4765 30.6232 96.2847 30.7986 96.1427C30.9861 95.9828 31.1428 95.9066 31.2686 95.9139C31.3425 95.7289 31.5244 95.539 31.8142 95.3442C32.1012 95.1345 32.3798 95.004 32.6501 94.953C32.7102 94.9416 32.8031 94.9396 32.9289 94.9469C33.0601 94.7355 33.2608 94.6043 33.5311 94.5532C33.7414 94.5135 33.9029 94.5451 34.0157 94.6483C34.1854 94.4762 34.4279 94.3604 34.7432 94.3008C35.1187 94.2299 35.4661 94.2575 35.7854 94.3838C36.1198 94.5073 36.3379 94.7149 36.4397 95.0067C36.7271 95.0458 36.9568 95.1501 37.1288 95.3198C37.313 95.4716 37.4514 95.7099 37.5438 96.0346C37.776 96.1929 37.9626 96.3987 38.1038 96.652C38.2421 96.8903 38.3368 97.1446 38.3879 97.4149C38.4532 97.7603 38.4456 98.0494 38.3652 98.2824C38.4987 98.4127 38.6314 98.6209 38.7632 98.9071C38.8951 99.1932 38.9879 99.479 39.0418 99.7643C39.0645 99.8844 39.0779 100.037 39.0819 100.223C39.2296 100.429 39.3105 100.569 39.3247 100.644C39.3332 100.689 39.3306 100.798 39.3168 100.972C39.3431 101.029 39.3723 101.102 39.4044 101.189C39.4336 101.261 39.4595 101.357 39.4822 101.477C39.5248 101.703 39.4805 101.921 39.3494 102.132C39.4407 102.286 39.509 102.483 39.5544 102.724C39.614 103.039 39.5872 103.308 39.4739 103.532C39.5153 103.586 39.5487 103.681 39.5743 103.816C39.6338 104.132 39.5559 104.419 39.3403 104.677C39.32 104.899 39.2385 105.085 39.0961 105.237C38.9507 105.373 38.7805 105.46 38.5852 105.496C38.39 105.533 38.221 105.503 38.0781 105.406C37.7189 105.645 37.4192 105.787 37.1789 105.832C37.0588 105.855 36.9672 105.864 36.9043 105.861C36.5366 106.055 36.2176 106.177 35.9473 106.228C35.752 106.265 35.4746 106.279 35.115 106.269C34.9275 106.429 34.7361 106.527 34.5409 106.564C34.3607 106.598 34.1856 106.577 34.0156 106.5C33.9433 106.529 33.8321 106.558 33.6819 106.586C33.0963 106.697 32.5961 106.519 32.1814 106.053C31.5483 105.831 31.1694 105.389 31.0445 104.728C31.0133 104.563 30.9967 104.434 30.9947 104.341C30.8425 104.277 30.7394 104.102 30.6855 103.816C30.6486 103.621 30.6535 103.441 30.7002 103.277C30.5891 103.018 30.5264 102.851 30.5122 102.776C30.4299 102.34 30.5664 101.91 30.9216 101.485C31.0215 101.109 31.1653 100.841 31.3528 100.681C31.5554 100.518 31.8161 100.375 32.1352 100.253C32.177 99.9805 32.3546 99.7681 32.668 99.6156C32.9813 99.463 33.2985 99.372 33.6196 99.3424C33.6983 99.2653 33.816 99.1887 33.9727 99.1124C34.1265 99.0211 34.2861 98.9599 34.4512 98.9287C34.6314 98.8946 34.7948 98.8948 34.9413 98.9294C34.9657 98.8937 35.0379 98.8645 35.1581 98.8417C35.2482 98.8247 35.3397 98.8152 35.4326 98.8132C35.5256 98.8112 35.5899 98.8224 35.6256 98.8467C35.7848 98.5367 36.007 98.3547 36.2923 98.3008C36.3824 98.2838 36.4768 98.2893 36.5754 98.3173L36.5626 98.2497C36.5144 97.9944 36.5329 97.8043 36.6181 97.6793C36.4595 97.6626 36.2702 97.5662 36.0502 97.39C35.8425 97.196 35.7066 97.0117 35.6425 96.8372C35.3823 96.7774 35.1845 96.636 35.049 96.4127C34.8943 96.5819 34.6969 96.6892 34.4566 96.7346C34.2914 96.7658 34.1252 96.7506 33.958 96.6889C33.7169 96.8122 33.5574 96.8734 33.4795 96.8726C33.2976 97.0625 33.079 97.1816 32.8237 97.2298C32.6552 97.5727 32.418 97.7575 32.112 97.7843C32.0222 98.0501 31.8742 98.2958 31.668 98.5214C31.4768 98.7442 31.2611 98.8782 31.0208 98.9236C30.7505 98.9747 30.5086 98.8882 30.2952 98.6642ZM32.4833 103.453C32.6976 103.599 32.8203 103.755 32.8515 103.92C32.8742 104.04 32.8726 104.196 32.8465 104.388C32.9066 104.376 32.9963 104.398 33.1156 104.454C33.2471 104.491 33.3274 104.546 33.3567 104.618C33.4683 104.55 33.6142 104.499 33.7944 104.465C34.1248 104.403 34.3567 104.437 34.4902 104.567C34.644 104.476 34.8111 104.413 34.9913 104.379C35.2766 104.325 35.5175 104.365 35.7139 104.499C35.8113 104.356 35.9881 104.222 36.2442 104.096C36.5153 103.967 36.7635 103.881 36.9888 103.838C37.0729 103.543 37.2833 103.339 37.6202 103.229C37.6304 103.118 37.6874 102.968 37.7914 102.777C37.7143 102.698 37.639 102.588 37.5656 102.446C37.4922 102.305 37.4413 102.159 37.4129 102.008C37.3533 101.693 37.3844 101.446 37.5062 101.268C37.3013 101.089 37.1719 100.856 37.1179 100.571C37.081 100.376 37.0799 100.205 37.1144 100.059C37.0084 100.156 36.8804 100.219 36.7302 100.248C36.5951 100.273 36.4725 100.242 36.3625 100.154C36.2529 100.315 36.078 100.418 35.8377 100.463C35.6875 100.491 35.5303 100.482 35.3659 100.436C35.2319 100.632 35.0448 100.753 34.8045 100.798C34.7295 100.812 34.6111 100.804 34.4496 100.772C34.2669 101.04 34.077 101.146 33.8797 101.09C33.8294 101.317 33.7362 101.482 33.6002 101.586C33.4792 101.686 33.2911 101.761 33.0358 101.809C33.007 101.986 32.9274 102.141 32.7971 102.274C32.6818 102.405 32.5462 102.469 32.3904 102.468C32.4853 102.559 32.5456 102.672 32.5711 102.807C32.6137 103.032 32.5844 103.248 32.4833 103.453Z" fill="black"/>
<path d="M46.5748 104.733C46.2449 104.469 46.0459 104.157 45.9778 103.796C45.9069 103.421 45.9824 103.08 46.2045 102.773C46.4237 102.452 46.6985 102.26 47.0289 102.198C47.119 102.181 47.188 102.175 47.2359 102.182C47.2846 102.111 47.323 102.026 47.351 101.927C47.3912 101.81 47.4267 101.71 47.4576 101.627C47.5035 101.54 47.5761 101.472 47.6756 101.422C47.6662 101.455 47.7359 101.248 47.8845 100.8C47.842 100.574 47.9195 100.326 48.1172 100.056C48.0909 99.9985 48.0678 99.9173 48.0479 99.8122C47.9968 99.5419 48.0237 99.2724 48.1284 99.0038C48.2454 98.7173 48.399 98.5016 48.5894 98.3567C48.5188 98.2301 48.458 98.0316 48.4069 97.7613C48.3274 97.3408 48.3346 97.0906 48.4284 97.0107C48.1963 96.8524 48.0518 96.623 47.9951 96.3227C47.9667 96.1725 47.9637 96.0331 47.986 95.9044C48.0206 95.7579 48.0772 95.6461 48.1559 95.569C47.9482 95.375 47.7932 95.0077 47.6911 94.4671C47.6116 94.0466 47.6103 93.7513 47.687 93.5813C47.6343 93.4668 47.6037 93.3871 47.5951 93.342C47.5441 93.0717 47.5977 92.8205 47.756 92.5884C47.9265 92.3384 48.1469 92.1879 48.4172 92.1368C48.5674 92.1084 48.7261 92.1251 48.8933 92.1868C49.0938 91.9312 49.3368 91.7764 49.6221 91.7225C49.8023 91.6885 49.9671 91.6962 50.1164 91.7457C50.2589 91.5944 50.5254 91.4818 50.9158 91.4081C51.1711 91.3598 51.3706 91.3454 51.5143 91.365C51.6567 91.2136 51.8706 91.111 52.156 91.0571C52.4263 91.006 52.6253 91.0306 52.7532 91.1308C52.9229 90.9588 53.1203 90.8515 53.3456 90.8089C53.5408 90.772 53.7042 90.7723 53.8356 90.8096C54.0289 90.6798 54.4258 90.5581 55.0265 90.4446C55.2968 90.3936 55.5584 90.4608 55.8112 90.6463C56.0611 90.8168 56.2102 91.0297 56.2585 91.285C56.3237 91.6304 56.1753 91.9151 55.8133 92.139C55.8847 92.1878 55.9275 92.2497 55.9417 92.3247C55.953 92.3848 55.9386 92.4731 55.8984 92.5895C55.9455 92.674 56.0132 92.7856 56.1017 92.9244C56.2051 93.0604 56.2668 93.1809 56.2866 93.2861C56.315 93.4362 56.2941 93.5724 56.2239 93.6945C56.2766 93.809 56.3086 93.8963 56.32 93.9563C56.3625 94.1816 56.3197 94.4074 56.1914 94.6339C56.2498 94.7784 56.2847 94.8807 56.296 94.9407C56.3272 95.1059 56.3026 95.305 56.2222 95.5379C56.4186 95.6719 56.5424 95.874 56.5935 96.1443C56.6587 96.4897 56.5897 96.7827 56.3863 97.0234C56.5855 97.1724 56.7277 97.4721 56.8128 97.9226C56.8923 98.3431 56.875 98.7041 56.7609 99.0056C56.8136 99.1201 56.8456 99.2073 56.857 99.2674C56.9024 99.5077 56.8666 99.7711 56.7497 100.058C56.7947 100.049 56.8558 100.084 56.9329 100.163C57.0072 100.227 57.0711 100.277 57.1246 100.313C57.2963 100.234 57.4573 100.181 57.6074 100.152C57.9979 100.078 58.3327 100.163 58.6119 100.406C58.9032 100.631 59.0985 101.006 59.1979 101.531C59.266 101.892 59.2923 102.237 59.2768 102.566C59.4046 102.667 59.4926 102.844 59.5409 103.1C59.6005 103.415 59.5286 103.693 59.3252 103.934C59.4176 104.258 59.3886 104.598 59.2379 104.953C59.1023 105.306 58.8768 105.511 58.5614 105.571C58.3812 105.605 58.1882 105.572 57.9825 105.47C57.7232 105.333 57.568 105.129 57.5169 104.859L57.4543 104.404C57.3894 104.307 57.3399 104.169 57.3059 103.989C57.2406 103.643 57.3186 103.356 57.5398 103.128C57.4298 103.04 57.3499 102.946 57.3 102.847C57.2651 102.744 57.2293 102.595 57.1924 102.4C57.017 102.542 56.7566 102.646 56.4112 102.711C56.186 102.754 55.964 102.772 55.7452 102.767C55.6571 102.877 55.5155 102.95 55.3202 102.987C55.0349 103.041 54.7279 103.021 54.3992 102.928C54.2388 103.067 54.0836 103.151 53.9334 103.179C53.7983 103.205 53.6156 103.185 53.3855 103.12C53.3011 103.167 53.2364 103.194 53.1913 103.203C52.9961 103.24 52.797 103.215 52.5941 103.129C52.5003 103.209 52.3934 103.26 52.2733 103.283C52.1531 103.306 52.0348 103.297 51.9183 103.257C51.8051 103.48 51.5532 103.629 51.1628 103.703C50.9675 103.74 50.7756 103.753 50.5869 103.742C50.3953 103.716 50.246 103.666 50.1388 103.593C49.9927 103.807 49.7995 103.937 49.5592 103.983C49.409 104.011 49.2428 103.996 49.0606 103.937C48.9855 103.951 48.8847 103.993 48.758 104.064C48.6436 104.117 48.5319 104.185 48.4231 104.267C48.4657 104.493 48.4712 104.686 48.4395 104.847C48.7109 104.967 48.8793 105.2 48.9446 105.545C48.9588 105.62 48.965 105.736 48.9634 105.892C49.034 106.018 49.0792 106.134 49.0991 106.239C49.1615 106.57 49.0924 106.863 48.8919 107.118C48.7092 107.386 48.4484 107.529 48.1095 107.546C47.8242 107.6 47.5594 107.557 47.3151 107.416C47.0736 107.291 46.926 107.085 46.872 106.8C46.8238 106.545 46.846 106.292 46.9386 106.041C46.7957 105.944 46.6874 105.7 46.6136 105.309C46.5682 105.069 46.5553 104.877 46.5748 104.733ZM52.5263 93.0168C52.4374 93.2047 52.2578 93.3242 51.9875 93.3752C51.8223 93.4065 51.6603 93.4137 51.5016 93.397C51.3401 93.3654 51.2387 93.3223 51.1973 93.2679C51.1713 93.4595 51.0231 93.5808 50.7528 93.6319C50.6176 93.6574 50.4782 93.6604 50.3346 93.6409C50.147 93.8008 50.0007 93.8906 49.8956 93.9105C49.8355 93.9219 49.7637 93.9121 49.6801 93.8812L49.6155 94.0334C49.7689 94.2688 49.8782 94.5593 49.9435 94.9047C50.0087 95.25 50.0186 95.5904 49.9731 95.9256C50.2137 96.129 50.3681 96.4109 50.4362 96.7713C50.5128 97.1767 50.4833 97.5556 50.3476 97.9078C50.4129 98.2532 50.3942 98.6067 50.2914 98.9683C50.2037 99.3271 50.0646 99.5789 49.8742 99.7237C49.972 99.8297 50.0351 99.9577 50.0635 100.108C50.089 100.243 50.0695 100.387 50.0049 100.539C49.9554 100.688 49.8701 100.813 49.7492 100.914C49.7776 101.064 49.7609 101.223 49.6992 101.39C49.6374 101.557 49.5522 101.682 49.4434 101.765C49.5879 101.706 49.7127 101.667 49.8178 101.647C50.013 101.611 50.2064 101.605 50.398 101.631C50.6017 101.639 50.7496 101.681 50.8417 101.757C50.94 101.536 51.1168 101.402 51.3721 101.354C51.5523 101.32 51.7424 101.338 51.9425 101.409C52.0363 101.329 52.1357 101.279 52.2408 101.26C52.361 101.237 52.4793 101.246 52.5957 101.286C52.7382 101.134 52.9071 101.04 53.1023 101.003C53.2975 100.967 53.5041 100.99 53.722 101.073C53.8336 101.005 53.957 100.959 54.0922 100.933C54.3625 100.882 54.5762 100.943 54.7332 101.115C54.7969 101.041 54.9114 100.988 55.0766 100.957C54.9252 100.815 54.8226 100.601 54.7687 100.315C54.7034 99.9699 54.7438 99.6901 54.89 99.4758C54.8089 99.2112 54.757 99.0188 54.7343 98.8986C54.6605 98.5082 54.6967 98.2059 54.8428 97.9916C54.6144 97.7704 54.4718 97.5096 54.415 97.2092C54.3583 96.9089 54.403 96.6516 54.5491 96.4373C54.47 96.2656 54.4163 96.1047 54.3879 95.9545C54.3425 95.7143 54.3704 95.4913 54.4715 95.2855C54.3915 95.1917 54.3345 95.0548 54.3005 94.8745C54.2636 94.6793 54.2652 94.5235 54.3054 94.407C54.2198 94.2832 54.16 94.1312 54.126 93.951C54.0806 93.7107 54.1066 93.5192 54.204 93.3763C54.1569 93.2919 54.1277 93.2197 54.1164 93.1596C54.1022 93.0845 54.0969 93.0155 54.1006 92.9526C54.1014 92.8747 54.0948 92.7982 54.0806 92.7231L53.8553 92.7656C53.7083 93.0578 53.4997 93.2295 53.2294 93.2805C53.0942 93.3061 52.9609 93.3002 52.8294 93.2628C52.7101 93.2076 52.6091 93.1256 52.5263 93.0168Z" fill="black"/>
<path d="M59.1562 93.2104C58.9991 93.0379 58.9036 92.8615 58.8695 92.6813C58.8185 92.411 58.866 92.1688 59.0122 91.9545C59.0146 91.7207 59.08 91.4906 59.2083 91.2642C59.3338 91.0227 59.4842 90.831 59.6596 90.689C59.8471 90.5291 60.0038 90.4529 60.1296 90.4602C60.2035 90.2751 60.3853 90.0852 60.6752 89.8905C60.9621 89.6807 61.2408 89.5503 61.5111 89.4992C61.5712 89.4879 61.6641 89.4859 61.7899 89.4932C61.9211 89.2818 62.1218 89.1505 62.3921 89.0995C62.6023 89.0597 62.7638 89.0914 62.8766 89.1945C63.0463 89.0225 63.2889 88.9067 63.6042 88.8471C63.9796 88.7761 64.327 88.8038 64.6464 88.9301C64.9808 89.0535 65.1989 89.2612 65.3007 89.553C65.5881 89.592 65.8177 89.6964 65.9898 89.8661C66.174 90.0179 66.3124 90.2562 66.4048 90.5809C66.6369 90.7392 66.8236 90.945 66.9648 91.1983C67.1031 91.4366 67.1978 91.6908 67.2489 91.9611C67.3142 92.3065 67.3066 92.5957 67.2262 92.8286C67.3597 92.959 67.4923 93.1672 67.6242 93.4533C67.756 93.7395 67.8489 94.0252 67.9028 94.3106C67.9255 94.4307 67.9389 94.5837 67.9429 94.7696C68.0906 94.975 68.1715 95.1152 68.1857 95.1903C68.1942 95.2353 68.1916 95.3447 68.1777 95.5184C68.2041 95.5757 68.2333 95.6479 68.2653 95.7352C68.2945 95.8074 68.3205 95.9036 68.3432 96.0237C68.3858 96.249 68.3415 96.4673 68.2103 96.6788C68.3016 96.8326 68.37 97.0297 68.4154 97.2699C68.475 97.5853 68.4481 97.8548 68.3348 98.0784C68.3762 98.1328 68.4097 98.2275 68.4352 98.3627C68.4948 98.678 68.4168 98.965 68.2013 99.2234C68.1809 99.445 68.0995 99.6315 67.957 99.7829C67.8117 99.9192 67.6414 100.006 67.4462 100.043C67.251 100.08 67.082 100.049 66.9391 99.9519C66.5799 100.191 66.2801 100.333 66.0399 100.378C65.9197 100.401 65.8282 100.411 65.7653 100.407C65.3976 100.601 65.0785 100.723 64.8082 100.774C64.613 100.811 64.3356 100.825 63.976 100.815C63.7885 100.975 63.5971 101.073 63.4019 101.11C63.2217 101.144 63.0466 101.123 62.8765 101.046C62.8043 101.075 62.6931 101.104 62.5429 101.133C61.9572 101.243 61.4571 101.066 61.0424 100.6C60.4093 100.377 60.0303 99.9354 59.9055 99.2746C59.8743 99.1094 59.8576 98.9804 59.8556 98.8874C59.7035 98.8229 59.6004 98.6479 59.5465 98.3626C59.5096 98.1674 59.5145 97.9876 59.5612 97.8232C59.4501 97.5643 59.3874 97.3972 59.3732 97.3222C59.2909 96.8867 59.4274 96.4565 59.7826 96.0316C59.8825 95.655 60.0262 95.3868 60.2138 95.2269C60.4163 95.0642 60.6771 94.9216 60.9961 94.7991C61.038 94.5268 61.2156 94.3144 61.529 94.1619C61.8423 94.0093 62.1595 93.9183 62.4805 93.8887C62.5593 93.8116 62.677 93.7349 62.8337 93.6587C62.9875 93.5674 63.147 93.5061 63.3122 93.4749C63.4924 93.4409 63.6558 93.4411 63.8023 93.4756C63.8266 93.4399 63.8989 93.4107 64.019 93.388C64.1091 93.371 64.2006 93.3615 64.2936 93.3595C64.3865 93.3575 64.4509 93.3686 64.4866 93.393C64.6457 93.083 64.868 92.901 65.1533 92.8471C65.2434 92.83 65.3378 92.8355 65.4364 92.8636L65.4236 92.796C65.3754 92.5407 65.3939 92.3506 65.4791 92.2256C65.3204 92.2089 65.1311 92.1125 64.9112 91.9363C64.7034 91.7422 64.5675 91.558 64.5034 91.3834C64.2433 91.3237 64.0455 91.1822 63.91 90.959C63.7553 91.1282 63.5578 91.2355 63.3176 91.2809C63.1524 91.3121 62.9862 91.2969 62.819 91.2351C62.5779 91.3585 62.4184 91.4197 62.3404 91.4189C62.1586 91.6088 61.94 91.7279 61.6847 91.7761C61.5162 92.119 61.279 92.3038 60.9729 92.3305C60.8832 92.5963 60.7352 92.8421 60.529 93.0677C60.3378 93.2904 60.122 93.4245 59.8818 93.4699C59.6115 93.521 59.3696 93.4345 59.1562 93.2104ZM61.3443 97.9995C61.5585 98.1457 61.6813 98.3014 61.7125 98.4665C61.7352 98.5867 61.7335 98.7425 61.7075 98.9341C61.7676 98.9227 61.8573 98.9447 61.9766 98.9999C62.1081 99.0373 62.1884 99.0921 62.2176 99.1643C62.3292 99.0966 62.4752 99.0457 62.6554 99.0116C62.9857 98.9492 63.2177 98.9831 63.3512 99.1134C63.505 99.0221 63.672 98.9595 63.8522 98.9254C64.1376 98.8715 64.3784 98.9115 64.5748 99.0455C64.6723 98.9027 64.849 98.7682 65.1052 98.642C65.3763 98.513 65.6245 98.4272 65.8498 98.3846C65.9338 98.0888 66.1443 97.8857 66.4812 97.7754C66.4914 97.6646 66.5484 97.5138 66.6523 97.3231C66.5753 97.2444 66.5 97.1342 66.4266 96.9925C66.3531 96.8508 66.3022 96.7049 66.2739 96.5548C66.2143 96.2394 66.2454 95.9924 66.3672 95.8139C66.1622 95.6349 66.0328 95.4027 65.9789 95.1174C65.942 94.9222 65.9408 94.7513 65.9754 94.6048C65.8694 94.7026 65.7414 94.7657 65.5912 94.794C65.456 94.8196 65.3335 94.7883 65.2235 94.7002C65.1139 94.8609 64.9389 94.9639 64.6987 95.0093C64.5485 95.0377 64.3912 95.0286 64.2269 94.9818C64.0929 95.1783 63.9058 95.2992 63.6655 95.3446C63.5904 95.3587 63.4721 95.35 63.3106 95.3183C63.1279 95.5861 62.9379 95.692 62.7407 95.636C62.6903 95.8632 62.5972 96.0286 62.4612 96.1321C62.3402 96.2327 62.1521 96.3071 61.8968 96.3554C61.8679 96.5319 61.7884 96.6869 61.6581 96.8204C61.5428 96.9511 61.4072 97.0156 61.2514 97.0139C61.3463 97.1048 61.4065 97.2179 61.4321 97.353C61.4746 97.5783 61.4454 97.7938 61.3443 97.9995Z" fill="black"/>
<path d="M78.3571 87.5524C78.5685 87.6835 78.7111 87.9443 78.7849 88.3348C78.8502 88.6802 78.8351 88.9708 78.7397 89.2065C78.8431 89.3425 78.9062 89.4706 78.9289 89.5907C78.9743 89.831 78.93 90.0493 78.7961 90.2457C79.0075 90.3769 79.1345 90.5551 79.177 90.7803C79.2168 90.9906 79.1684 91.3108 79.0319 91.7409C79.2097 91.9407 79.3198 92.1531 79.3624 92.3784C79.3936 92.5436 79.3901 92.7309 79.3519 92.9403C79.4675 93.0584 79.541 93.2001 79.5722 93.3653C79.6119 93.5755 79.5676 93.7938 79.4393 94.0203C79.6394 94.0914 79.765 94.262 79.816 94.5323C79.8558 94.7426 79.8387 94.9402 79.7648 95.1253C79.8768 95.3063 79.9455 95.4644 79.971 95.5996C80.0136 95.8248 79.9679 96.0356 79.8339 96.2321C79.9516 96.4431 80.026 96.6312 80.0572 96.7964C80.1168 97.1118 80.0792 97.4066 79.9444 97.681C79.8218 97.9374 79.6596 98.1081 79.4579 98.1928C79.4157 98.2164 79.342 98.2381 79.2369 98.2579C78.9666 98.309 78.7365 98.2436 78.5466 98.0618C78.3717 97.8771 78.2587 97.6496 78.2076 97.3792C78.1963 97.3192 78.1505 97.1179 78.0702 96.7753C78.0049 96.4299 78.0036 96.1347 78.0661 95.8895C77.927 95.7292 77.8432 95.5739 77.8148 95.4238C77.7807 95.2436 77.8021 95.0684 77.8788 94.8984C77.7961 94.7896 77.732 94.6151 77.6866 94.3748C77.6298 94.0745 77.6398 93.8393 77.7166 93.6693C77.6752 93.6149 77.646 93.5426 77.6289 93.4525C77.6148 93.3774 77.6142 93.292 77.6272 93.1962C77.6373 93.0854 77.6278 92.9939 77.5986 92.9217L77.3783 92.4967C77.3463 92.4094 77.3161 92.2907 77.2877 92.1405C77.2366 91.8702 77.2334 91.6064 77.2781 91.3491C77.1118 91.2095 77.003 91.0045 76.952 90.7342C76.898 90.4489 76.916 90.1733 77.0057 89.9075C76.9051 89.7865 76.8363 89.6284 76.7994 89.4332C76.7398 89.1178 76.7835 88.8141 76.9305 88.5219C76.6906 88.8161 76.2778 89.0185 75.6921 89.1292C75.4369 89.1774 75.2073 89.1975 75.0036 89.1893C74.8498 89.2806 74.6752 89.3447 74.48 89.3816C74.3298 89.4099 74.1604 89.4186 73.9717 89.4076C73.845 89.4782 73.7156 89.5338 73.5832 89.5743C73.4659 89.6121 73.3172 89.6479 73.137 89.682C73.1954 89.8265 73.2289 89.9213 73.2374 89.9663C73.2658 90.1165 73.228 90.2869 73.124 90.4777C73.1926 90.5114 73.2608 90.584 73.3285 90.6957C73.3963 90.8073 73.4429 90.9307 73.4685 91.0658C73.5139 91.3061 73.4982 91.5112 73.4215 91.6813C73.5249 91.8173 73.5923 91.9679 73.6235 92.133C73.6433 92.2382 73.6524 92.3686 73.6508 92.5245C73.9129 92.6771 74.071 92.8961 74.1249 93.1815C74.1618 93.3767 74.1386 93.5833 74.0554 93.8012C74.1888 93.9315 74.2783 94.1168 74.3237 94.357C74.3578 94.5373 74.3528 94.717 74.309 94.8964C74.2651 95.0758 74.1752 95.2172 74.0392 95.3207C74.1422 95.7834 74.1366 96.1655 74.0225 96.467C73.9084 96.7685 73.676 97.0613 73.3253 97.3453C73.3155 97.7049 73.1315 98.0896 72.7735 98.4994C72.4154 98.9093 72.0539 99.2186 71.689 99.4276C71.4857 99.6682 71.2263 99.8183 70.9109 99.8779C70.6707 99.9233 70.4491 99.903 70.2462 99.8169C70.0554 99.713 69.9374 99.5408 69.892 99.3006C69.8721 99.1955 69.8719 99.0711 69.8914 98.9274C69.8911 98.6786 69.9944 98.4024 70.2015 98.0989C70.4057 97.7804 70.6513 97.5162 70.9383 97.3064C71.2374 97.0788 71.4889 96.9691 71.6926 96.9773C71.728 96.7528 71.7995 96.5138 71.9071 96.2602C72.0268 95.9887 72.1533 95.7937 72.2865 95.6752C72.1758 95.0896 72.2536 94.6782 72.5199 94.4413C72.4399 94.3475 72.3673 94.1279 72.3021 93.7825C72.2567 93.5423 72.2466 93.3653 72.2718 93.2517C71.9512 92.9545 71.7484 92.5807 71.6632 92.1302C71.6178 91.8899 71.6185 91.6876 71.6652 91.5232C71.5138 91.3807 71.4084 91.1518 71.3488 90.8365C71.3119 90.6412 71.3139 90.4464 71.355 90.252C71.275 90.1583 71.2181 90.0213 71.184 89.8411C71.1414 89.6158 71.1543 89.3956 71.2225 89.1806C71.2879 88.9505 71.4125 88.7869 71.5964 88.69C71.6439 88.4477 71.784 88.2424 72.0166 88.074C72.2642 87.9028 72.5335 87.8052 72.8245 87.7813C72.9548 87.6478 73.1176 87.5626 73.3128 87.5258C73.5531 87.4803 73.7761 87.5082 73.9818 87.6093C74.2022 87.4588 74.425 87.3622 74.6503 87.3197C74.9206 87.2686 75.1586 87.2936 75.3644 87.3947C75.4468 87.2547 75.5785 87.1287 75.7596 87.0167C75.9528 86.8869 76.1395 86.805 76.3197 86.7709C76.3534 86.7023 76.4185 86.6356 76.5152 86.5707C76.6089 86.4907 76.7159 86.4394 76.836 86.4167C76.9261 86.3997 76.9951 86.3944 77.043 86.4009C77.179 86.2975 77.307 86.2344 77.4272 86.2117C77.6674 86.1663 77.8886 86.2256 78.0907 86.3896C78.305 86.5357 78.4334 86.7214 78.4759 86.9467C78.5157 87.1569 78.4761 87.3588 78.3571 87.5524Z" fill="black"/>
<path d="M81.4439 87.669C81.2265 87.2591 81.095 86.9339 81.0496 86.6937C80.9815 86.3333 81.0431 86.0417 81.2343 85.8189C81.3561 85.6403 81.5296 85.5298 81.7549 85.4872C81.9201 85.456 82.0787 85.4727 82.2309 85.5372C82.3803 85.5868 82.5067 85.6796 82.6101 85.8155C82.6929 85.9243 82.7627 86.1289 82.8194 86.4292C82.8904 86.8047 82.9203 87.0867 82.9093 87.2754C83.195 87.4703 83.3861 87.823 83.4826 88.3336C83.5365 88.6189 83.5354 88.8602 83.4794 89.0575C83.5828 89.1934 83.6534 89.3201 83.6911 89.4374C83.7334 89.4138 83.792 89.395 83.8671 89.3808C83.9422 89.3666 84.0426 89.3632 84.1684 89.3705C84.2931 89.207 84.5056 89.0968 84.8059 89.0401C84.9561 89.0117 85.157 89.0049 85.4086 89.0195C85.5754 88.8325 85.8165 88.7091 86.1319 88.6495C86.5524 88.5701 86.8693 88.6424 87.0828 88.8665C87.2751 88.8146 87.461 88.8105 87.6404 88.8544C87.832 88.8804 87.9856 88.9525 88.1012 89.0706C88.3415 89.0252 88.5551 89.0859 88.7422 89.2528C88.9414 89.4018 89.0952 89.5983 89.2035 89.8422C89.324 90.0683 89.3848 90.2668 89.386 90.4376C89.5711 90.5115 89.6891 90.6836 89.7402 90.9539C89.7658 91.0891 89.7767 91.1881 89.773 91.251C90.0051 91.4094 90.1425 91.6011 90.1851 91.8264C90.2248 92.0366 90.1748 92.2249 90.0352 92.3913C90.1106 92.6259 90.1142 92.8508 90.046 93.0658C89.9778 93.2809 89.8156 93.4516 89.5595 93.5777C89.5541 93.7965 89.468 93.9994 89.3012 94.1864C89.3373 94.4596 89.309 94.7216 89.2164 94.9723C89.136 95.2053 88.9992 95.3867 88.806 95.5165C88.6683 95.7758 88.4711 96.0075 88.2141 96.2116C87.9572 96.4157 87.6724 96.555 87.3599 96.6296C87.3441 96.7104 87.2817 96.7922 87.173 96.8749C87.0763 96.9399 86.9891 96.9719 86.9112 96.9711C86.6477 97.223 86.4033 97.3703 86.1781 97.4129C85.9378 97.4583 85.7242 97.3976 85.5371 97.2307C85.4068 97.3642 85.2515 97.448 85.0713 97.482C84.816 97.5303 84.5723 97.4752 84.3402 97.3169C83.9404 97.4236 83.6085 97.3541 83.3443 97.1085C83.0801 96.8629 82.9083 96.5299 82.8289 96.1094C82.7494 95.6889 82.77 95.304 82.8906 94.9545C82.6857 94.7755 82.5634 94.5809 82.5237 94.3706C82.4783 94.1304 82.5329 93.9256 82.6876 93.7564C82.4554 93.5981 82.3167 93.3988 82.2713 93.1585C82.2202 92.8882 82.2856 92.6581 82.4675 92.4682C82.3011 92.3286 82.198 92.1536 82.1583 91.9434C82.1157 91.7181 82.1586 91.4923 82.2869 91.2658C82.1177 91.1112 81.9976 90.8461 81.9267 90.4707C81.8813 90.2304 81.8862 90.0506 81.9414 89.9313C81.87 89.8826 81.799 89.7949 81.7284 89.6683C81.6578 89.5417 81.6097 89.4108 81.5842 89.2756C81.5587 89.1404 81.5585 89.0161 81.5837 88.9024C81.606 88.7738 81.6533 88.6948 81.7256 88.6656C81.6513 88.6019 81.5803 88.5142 81.5126 88.4026C81.4598 88.2881 81.4235 88.1783 81.4037 88.0732C81.3696 87.893 81.383 87.7583 81.4439 87.669ZM85.2998 90.7898C85.1809 90.9834 84.9712 91.1085 84.6709 91.1653C84.4607 91.205 84.2569 91.1969 84.0597 91.1408C84.0909 91.306 84.0728 91.4572 84.0054 91.5943C84.1089 91.7303 84.1819 91.9109 84.2245 92.1362C84.2699 92.3765 84.272 92.5938 84.231 92.7882C84.3467 92.9063 84.4243 93.0705 84.4641 93.2808C84.5038 93.491 84.5013 93.7248 84.4566 93.9821C84.6437 94.1489 84.7656 94.3825 84.8223 94.6828C84.8848 95.0132 84.8321 95.3109 84.6645 95.5759C84.6945 95.5702 84.7274 95.5795 84.7631 95.6039C84.8719 95.5211 85.0013 95.4656 85.1515 95.4372C85.2416 95.4202 85.3571 95.4139 85.4979 95.4184C85.6387 95.4229 85.7406 95.427 85.8035 95.4306C86.1486 95.1166 86.5792 94.9263 87.0955 94.8599C87.0756 94.7548 87.0979 94.6261 87.1625 94.4739C87.2421 94.3189 87.3452 94.2061 87.4718 94.1355C87.4735 93.9797 87.5005 93.8346 87.5529 93.7003C87.6053 93.5659 87.6826 93.4813 87.7849 93.4464C87.7594 93.3113 87.7746 93.1451 87.8307 92.9479C87.9017 92.7478 87.9945 92.6214 88.109 92.5687L88.0834 92.4335C88.0522 92.2683 88.0553 92.12 88.0926 91.9885L88.0361 91.8125C88.0162 91.7074 88.0203 91.6056 88.0483 91.5069C87.6855 91.2333 87.48 90.9689 87.4318 90.7136C87.2845 90.757 87.1164 90.7732 86.9277 90.7622C86.739 90.7512 86.5657 90.6984 86.4079 90.6038C86.3047 90.7166 86.1781 90.7872 86.0279 90.8155C85.9228 90.8354 85.7909 90.837 85.6322 90.8203C85.4886 90.8008 85.3778 90.7906 85.2998 90.7898Z" fill="black"/>
<path d="M105.591 87.6787C105.696 87.7367 105.801 87.8802 105.906 88.1091C106.009 88.323 106.085 88.5651 106.137 88.8354C106.216 89.2559 106.219 89.5587 106.145 89.7437C106.293 89.9491 106.402 90.2395 106.473 90.615C106.552 91.0355 106.561 91.3683 106.498 91.6134C106.614 91.7315 106.687 91.8732 106.718 92.0383C106.755 92.2336 106.729 92.4251 106.64 92.613C106.564 92.783 106.433 92.9165 106.25 93.0135C106.113 93.1949 105.827 93.3267 105.391 93.409C105.196 93.4459 105.034 93.4532 104.905 93.4308C104.742 93.555 104.585 93.6313 104.435 93.6596C104.285 93.688 104.137 93.6849 103.99 93.6504C103.856 93.598 103.756 93.5235 103.691 93.4269C103.6 93.5998 103.313 93.7316 102.833 93.8224C102.533 93.8792 102.265 93.9063 102.032 93.9038C101.869 94.028 101.614 94.1227 101.269 94.188C100.863 94.2646 100.559 94.2599 100.356 94.1738C100.23 94.2444 100.061 94.2995 99.851 94.3393C99.6858 94.3705 99.5642 94.3857 99.4863 94.3848C99.3515 94.6592 99.0964 94.8318 98.721 94.9027C98.5408 94.9368 98.3624 94.9394 98.1859 94.9105C98.0093 94.8817 97.875 94.8293 97.7829 94.7534C97.5673 95.0119 97.2868 95.1737 96.9415 95.239C96.6711 95.2901 96.4289 95.2425 96.2146 95.0964C96.0973 95.1341 95.9847 95.1554 95.8767 95.1602C95.7306 95.3745 95.5449 95.5029 95.3196 95.5455C95.0944 95.588 94.8399 95.5584 94.5562 95.4564C94.2847 95.3366 94.0465 95.1872 93.8416 95.0082C93.7288 94.9051 93.6215 94.7076 93.5197 94.4158C93.4179 94.124 93.3372 93.8204 93.2776 93.505C93.2208 93.2047 93.2065 93.0052 93.2345 92.9066C93.0596 92.7219 92.941 92.4644 92.8785 92.134C92.7991 91.7135 92.8436 91.3318 93.0121 90.9889C92.7386 90.7762 92.5707 90.5046 92.5082 90.1742C92.4515 89.8739 92.4877 89.5716 92.6168 89.2672C92.3575 89.1296 92.1924 88.873 92.1214 88.4976C92.0505 88.1222 92.1063 87.8005 92.289 87.5327C92.0598 87.3894 91.9096 87.13 91.8387 86.7546C91.8273 86.6945 91.8187 86.5251 91.8126 86.2463C91.7258 85.9516 91.6739 85.7592 91.6569 85.6691C91.6058 85.3988 91.5966 85.1439 91.6291 84.9045C91.58 84.7271 91.5656 84.5276 91.586 84.3061C91.6185 84.0666 91.7074 83.8787 91.8527 83.7424C91.9615 83.6596 92.091 83.604 92.2412 83.5757C92.4965 83.5274 92.7266 83.5928 92.9315 83.7718C93.1364 83.9509 93.2697 84.2445 93.3313 84.6528C93.3945 84.9053 93.4555 85.2281 93.5143 85.6214C93.5881 86.0119 93.6181 86.2939 93.6042 86.4676C93.7113 86.5407 93.8016 86.6481 93.8751 86.7897C93.9635 86.9286 94.0233 87.0806 94.0545 87.2458C94.1226 87.6062 94.0611 87.8978 93.8699 88.1205C94.1462 88.3483 94.3184 88.6423 94.3865 89.0028C94.4376 89.2731 94.4169 89.5336 94.3243 89.7844C94.5799 89.985 94.7404 90.2579 94.8057 90.6033C94.8766 90.9787 94.7889 91.3375 94.5424 91.6796C94.7567 91.8257 94.895 92.064 94.9575 92.3944C95.0114 92.6797 94.9831 92.9417 94.8727 93.1803C94.9526 93.2741 94.9903 93.3914 94.9858 93.5322C95.1125 93.4616 95.2359 93.4149 95.356 93.3922C95.5062 93.3639 95.6573 93.382 95.8095 93.4465C95.9033 93.3666 96.0102 93.3153 96.1304 93.2926C96.3256 93.2557 96.5214 93.3042 96.7178 93.4382C96.864 93.2239 97.0872 93.0884 97.3876 93.0317C97.6879 92.9749 97.9827 93.0125 98.2721 93.1445C98.3366 92.9923 98.4383 92.872 98.5772 92.7836C98.7131 92.6801 98.8666 92.6278 99.0374 92.6266C98.979 92.4821 98.9427 92.3723 98.9285 92.2972C98.8831 92.0569 98.9114 91.795 99.0133 91.5113C98.7406 91.2207 98.5618 90.8501 98.4766 90.3996C98.3858 89.919 98.4421 89.5584 98.6455 89.3178C98.5026 89.2204 98.3781 89.0962 98.2718 88.9452C98.1777 88.7763 98.1136 88.6018 98.0795 88.4216C98.0199 88.1062 98.0811 87.8536 98.2629 87.6637C97.9509 87.4116 97.7551 87.0753 97.6757 86.6548C97.6076 86.2944 97.6588 85.9892 97.8293 85.7392C97.5756 85.6316 97.4275 85.4652 97.385 85.24C97.3481 85.0447 97.4121 84.8071 97.5769 84.5271C97.43 84.2438 97.341 84.0195 97.3098 83.8544C97.253 83.554 97.3531 83.3018 97.6101 83.0977C97.7489 83.0093 97.8634 82.9565 97.9535 82.9395C98.1637 82.8998 98.3656 82.9394 98.5592 83.0584C98.7677 83.1745 98.9008 83.3437 98.9584 83.5662C99.1869 83.7874 99.3309 84.0557 99.3905 84.3711C99.4274 84.5663 99.4074 84.7489 99.3307 84.9189C99.4398 85.085 99.5199 85.3031 99.571 85.5734C99.6335 85.9038 99.5958 86.1986 99.4582 86.458C99.5954 86.5254 99.7199 86.6496 99.8319 86.8306C99.9561 86.9938 100.038 87.1805 100.078 87.3907C100.14 87.7211 100.092 88.0024 99.9339 88.2345C100.167 88.3149 100.33 88.6029 100.424 89.0984C100.52 89.609 100.486 90.0433 100.32 90.4012C100.501 90.538 100.623 90.7716 100.686 91.102C100.714 91.2521 100.728 91.3662 100.727 91.4441L100.792 91.6651C100.832 91.8753 100.81 92.1284 100.726 92.4242C100.862 92.3208 101.117 92.2336 101.493 92.1626C101.838 92.0974 102.09 92.0731 102.249 92.0897C102.419 91.9177 102.699 91.7948 103.089 91.721C103.525 91.6387 103.903 91.6682 104.226 91.8095C104.337 91.7418 104.446 91.698 104.551 91.6781C104.626 91.6639 104.687 91.6601 104.735 91.6666C104.712 91.6244 104.691 91.5582 104.674 91.4681C104.632 91.2428 104.664 91.0034 104.772 90.7498C104.573 90.6008 104.438 90.3386 104.367 89.9631C104.33 89.7679 104.318 89.5834 104.332 89.4097C104.358 89.2182 104.4 89.0703 104.458 88.966C104.342 88.9258 104.229 88.8227 104.12 88.6566C104.008 88.4756 103.933 88.2875 103.896 88.0923C103.862 87.9121 103.864 87.7562 103.901 87.6247C103.78 87.4766 103.695 87.2748 103.647 87.0195C103.613 86.8393 103.604 86.6699 103.621 86.5112C103.635 86.3375 103.674 86.2135 103.737 86.1393C103.586 85.9968 103.492 85.8279 103.455 85.6327C103.427 85.4825 103.431 85.3417 103.468 85.2102C103.365 85.0742 103.301 84.9387 103.275 84.8035C103.249 84.6684 103.26 84.5186 103.307 84.3542C103.162 84.1639 103.058 83.9035 102.996 83.5731C102.914 83.1376 102.944 82.8052 103.087 82.576C103.093 82.3572 103.153 82.1825 103.268 82.0518C103.384 81.9212 103.524 81.8402 103.689 81.809C103.929 81.7636 104.163 81.8051 104.389 81.9334C104.631 82.0588 104.773 82.2342 104.815 82.4595C104.855 82.6697 104.808 82.873 104.674 83.0694C104.871 83.1255 104.999 83.3112 105.059 83.6265C105.107 83.8818 105.099 84.1245 105.033 84.3546C105.185 84.4971 105.279 84.666 105.316 84.8612C105.344 85.0114 105.338 85.1447 105.298 85.2611C105.416 85.3943 105.5 85.5885 105.548 85.8438C105.588 86.054 105.595 86.2549 105.568 86.4465C105.542 86.638 105.484 86.7813 105.393 86.8762C105.509 86.9944 105.581 87.1285 105.609 87.2787C105.629 87.3838 105.623 87.5171 105.591 87.6787Z" fill="black"/>
<path d="M116.791 82.2495C116.97 82.2934 117.154 82.4452 117.343 82.705C117.547 82.962 117.678 83.2406 117.734 83.541C117.831 84.0515 117.671 84.4395 117.255 84.7048C117.174 84.9378 117.04 85.1342 116.853 85.294C116.68 85.4511 116.474 85.5523 116.233 85.5977C116.038 85.6346 115.827 85.6278 115.6 85.5775C115.494 85.6753 115.341 85.774 115.142 85.8738C114.944 85.9736 114.739 86.0434 114.529 86.0831C114.168 86.1512 113.906 86.123 113.743 85.9983C113.615 86.1469 113.386 86.2523 113.056 86.3148C112.816 86.3602 112.59 86.3563 112.377 86.303C112.187 86.4479 111.957 86.5458 111.686 86.5969C111.431 86.6452 111.214 86.6474 111.034 86.6035C110.91 86.767 110.615 86.8928 110.149 86.9807C109.894 87.029 109.717 87.0391 109.618 87.0111C109.745 87.438 109.746 87.7723 109.621 88.0137C109.96 88.2451 110.131 88.5317 110.133 88.8734C110.151 88.8856 110.245 88.9301 110.415 89.0068C110.585 89.0835 110.723 89.2364 110.828 89.4653C110.994 89.4341 111.157 89.4733 111.317 89.5829C111.493 89.6897 111.609 89.8078 111.664 89.9373C111.713 89.8659 111.827 89.8131 112.008 89.7791C112.143 89.7535 112.267 89.7534 112.381 89.7785C112.494 89.8037 112.564 89.8449 112.591 89.9022C112.685 89.8222 112.799 89.7695 112.934 89.744C113.129 89.7071 113.322 89.7406 113.513 89.8445C113.658 89.7861 113.767 89.7498 113.842 89.7356C113.993 89.7073 114.125 89.7057 114.238 89.7308C114.261 89.6022 114.359 89.4669 114.535 89.3249C114.707 89.1678 114.9 89.077 115.113 89.0523C115.205 88.8794 115.347 88.728 115.541 88.5982C115.734 88.4684 115.936 88.3836 116.146 88.3439C116.551 88.2672 116.875 88.3771 117.118 88.6734C117.201 88.7822 117.258 88.9192 117.289 89.0844C117.357 89.4448 117.246 89.7613 116.955 90.034C116.888 90.0932 116.776 90.2 116.619 90.3541C116.459 90.4933 116.309 90.6071 116.17 90.6956C116.031 90.784 115.902 90.8396 115.782 90.8623C115.608 91.1752 115.325 91.3685 114.935 91.4423C114.755 91.4763 114.617 91.4868 114.521 91.4738C114.369 91.6581 114.12 91.7828 113.775 91.8481C113.46 91.9077 113.231 91.8887 113.088 91.7913C112.991 91.8562 112.89 91.8986 112.785 91.9185C112.575 91.9582 112.365 91.92 112.157 91.8039C111.4 91.9937 110.836 91.8513 110.466 91.3768C110.256 91.4165 109.992 91.3343 109.673 91.13C109.367 90.908 109.18 90.7022 109.113 90.5126C108.742 90.4427 108.478 90.2361 108.32 89.8927C108.282 89.7754 108.261 89.6628 108.256 89.5548C108.193 89.5512 108.129 89.501 108.064 89.4044C108.011 89.29 107.974 89.1727 107.951 89.0525C107.934 88.9624 107.93 88.9009 107.939 88.8681C107.751 88.5304 107.629 88.2113 107.572 87.911C107.515 87.6107 107.524 87.329 107.599 87.066C107.477 86.9179 107.398 86.7462 107.361 86.5509C107.316 86.3107 107.323 86.0605 107.383 85.8003C107.443 85.5402 107.51 85.3641 107.586 85.272C107.542 85.2025 107.541 85.0706 107.582 84.8762C107.62 84.6668 107.685 84.4757 107.777 84.3028C107.88 84.1121 107.997 83.9889 108.127 83.9334L108.057 83.6898C107.947 83.1042 108.192 82.6767 108.795 82.4073C108.747 82.152 108.85 81.8759 109.105 81.5788C109.36 81.2818 109.603 81.127 109.834 81.1145C109.833 80.9436 109.951 80.789 110.189 80.6507C110.44 80.4945 110.637 80.4261 110.78 80.4457C110.864 80.2277 111.078 80.0472 111.425 79.904C111.531 79.7283 111.712 79.6163 111.968 79.5681C112.043 79.5539 112.143 79.5504 112.269 79.5578L112.468 79.4969C112.648 79.4629 112.805 79.4721 112.939 79.5244C113.086 79.559 113.16 79.6227 113.162 79.7156C113.498 79.6832 113.79 79.7058 114.038 79.7834C114.286 79.861 114.462 80.0532 114.567 80.36C114.754 80.2781 115.012 80.2838 115.34 80.3772C115.666 80.4556 115.963 80.6251 116.23 80.8858C116.509 81.1285 116.685 81.4451 116.759 81.8356C116.776 81.9257 116.787 82.0637 116.791 82.2495ZM113.756 84.3394C113.866 84.1008 114.214 83.9262 114.8 83.8155C115.13 83.7531 115.391 83.7349 115.583 83.7609C115.452 83.7235 115.315 83.6171 115.173 83.4418C115.043 83.2486 114.961 83.0619 114.927 82.8817C114.904 82.7615 114.91 82.6672 114.943 82.5986C114.736 82.6533 114.546 82.6348 114.373 82.5431C114.212 82.4334 114.056 82.3074 113.905 82.1649C113.769 82.0196 113.663 81.9151 113.589 81.8513C113.523 81.9106 113.358 81.9028 113.095 81.8281C112.844 81.7355 112.698 81.623 112.658 81.4907C112.612 81.5772 112.497 81.6689 112.313 81.7658C112.126 81.8478 111.979 81.8912 111.871 81.896C111.84 81.9796 111.749 82.0745 111.598 82.1808C111.447 82.2871 111.279 82.3423 111.093 82.3463C110.997 82.66 110.883 82.9226 110.752 83.134C110.621 83.3454 110.436 83.5203 110.198 83.6587C110.207 83.8746 110.154 84.1258 110.037 84.4123C109.935 84.696 109.814 84.921 109.675 85.0873L109.769 85.0928C109.951 84.9029 110.222 84.7739 110.582 84.7058C110.793 84.6661 110.992 84.6517 111.181 84.6627C111.384 84.6709 111.53 84.6979 111.616 84.7438C111.934 84.4504 112.311 84.2626 112.746 84.1803C113.106 84.1122 113.443 84.1652 113.756 84.3394Z" fill="black"/>
<path d="M125.289 83.7698C125.277 83.7877 125.238 83.8262 125.171 83.8855C125.119 83.9419 125.003 83.9871 124.823 84.0212C124.553 84.0722 124.318 84.0233 124.119 83.8743C123.935 83.7225 123.82 83.5264 123.775 83.2861C123.729 83.0459 123.758 82.8304 123.862 82.6396C123.978 82.4311 124.157 82.3041 124.397 82.2587C124.522 82.0951 124.697 81.9921 124.922 81.9495C125.132 81.9098 125.337 81.9255 125.537 81.9965C125.749 81.8009 126.08 81.6606 126.531 81.5755C126.846 81.5159 127.146 81.4981 127.431 81.5221C127.557 81.4515 127.748 81.3921 128.004 81.3438C128.499 81.2502 128.859 81.26 129.082 81.3733C129.176 81.2934 129.283 81.242 129.403 81.2193C129.493 81.2023 129.622 81.2247 129.789 81.2864C129.859 81.1642 130 81.0833 130.21 81.0436C130.39 81.0095 130.517 81.0244 130.591 81.0881C130.847 81.0399 131.058 81.0856 131.224 81.2252C131.39 81.3649 131.495 81.5473 131.537 81.7726C131.58 81.9978 131.549 82.2058 131.445 82.3965C131.341 82.5873 131.183 82.695 130.97 82.7197C130.755 82.9003 130.505 83.0175 130.22 83.0714C130.039 83.1055 129.867 83.0991 129.703 83.0524C129.609 83.1324 129.495 83.1851 129.359 83.2106C129.164 83.2475 128.995 83.2173 128.852 83.1198C128.726 83.1904 128.557 83.2456 128.347 83.2853C128.077 83.3364 127.846 83.3489 127.654 83.3229C127.528 83.3935 127.389 83.443 127.239 83.4713C127.014 83.5139 126.78 83.5114 126.538 83.4639C126.293 83.6501 126.088 83.7588 125.923 83.7901C125.743 83.8241 125.531 83.8174 125.289 83.7698Z" fill="black"/>
<path d="M141.315 84.8009C141.163 84.9851 140.946 85.1506 140.662 85.2975C140.394 85.4415 140.11 85.5419 139.809 85.5987C139.434 85.6696 139.167 85.6578 139.01 85.5632C138.794 85.5729 138.602 85.5079 138.436 85.3682C138.282 85.2107 138.185 85.0269 138.145 84.8166C138.1 84.5764 138.146 84.3655 138.282 84.1841C138.428 83.9699 138.629 83.8386 138.884 83.7904C139.125 83.745 139.441 83.7708 139.832 83.8679C139.92 83.5092 140.172 83.1971 140.589 82.9318C140.564 82.7187 140.592 82.4957 140.672 82.2628C140.753 82.0298 140.882 81.8498 141.06 81.7229C140.927 81.5926 140.844 81.4448 140.813 81.2796C140.765 81.0243 140.826 80.8107 140.995 80.6386C140.969 80.5814 140.943 80.4852 140.917 80.35C140.838 79.9296 140.879 79.5718 141.041 79.2768C140.88 79.1672 140.78 79.0072 140.741 78.797C140.704 78.6018 140.725 78.4656 140.803 78.3885C140.661 78.2132 140.558 77.9528 140.492 77.6074C140.387 77.0518 140.404 76.6443 140.541 76.385C140.39 76.2425 140.294 76.0661 140.255 75.8559C140.206 75.6006 140.243 75.3837 140.365 75.2051C140.273 75.1292 140.19 75.0204 140.117 74.8788C140.04 74.7221 139.987 74.5612 139.956 74.396C139.907 74.1407 139.915 73.937 139.98 73.7848C139.912 73.6732 139.868 73.5648 139.849 73.4597C139.82 73.3095 139.826 73.1762 139.866 73.0597C139.763 72.9237 139.697 72.7807 139.669 72.6305C139.64 72.4803 139.662 72.3052 139.733 72.1051C139.665 71.9935 139.622 71.8926 139.605 71.8025C139.56 71.5623 139.604 71.3439 139.738 71.1475C139.884 70.9333 140.078 70.8034 140.318 70.758C140.453 70.7325 140.579 70.7398 140.695 70.78C140.842 70.5658 141.072 70.4288 141.388 70.3693C141.628 70.3238 141.828 70.356 141.989 70.4656C142.132 70.3142 142.293 70.2215 142.473 70.1875C142.728 70.1392 142.948 70.191 143.132 70.3428C143.408 70.073 143.794 69.8913 144.289 69.7976C144.65 69.7295 144.967 69.7239 145.243 69.7808C145.469 69.5824 145.733 69.4548 146.033 69.398C146.334 69.3413 146.572 69.3663 146.747 69.4731C146.927 69.1902 147.258 69.0034 147.738 68.9126C148.204 68.8246 148.65 68.8414 149.077 68.9628C149.382 69.0919 149.562 69.3067 149.619 69.607C149.664 69.8473 149.622 70.0731 149.49 70.2846C149.372 70.4781 149.184 70.599 148.929 70.6473C149.11 70.862 149.225 71.1045 149.277 71.3748C149.33 71.6602 149.292 71.994 149.162 72.3762C149.305 72.4737 149.43 72.5979 149.536 72.7489C149.642 72.8999 149.714 73.073 149.751 73.2682C149.791 73.4785 149.77 73.7001 149.69 73.933C149.829 74.0933 149.926 74.3162 149.98 74.6015C150.025 74.8418 150.014 75.0305 149.947 75.1677C150.08 75.298 150.174 75.5058 150.228 75.7911C150.27 76.0164 150.262 76.2201 150.203 76.4023C150.313 76.4904 150.384 76.617 150.415 76.7822C150.463 77.0375 150.405 77.2662 150.241 77.4683C150.398 77.6408 150.502 77.8622 150.554 78.1325C150.576 78.2527 150.577 78.4235 150.557 78.6451C150.628 78.6938 150.704 78.804 150.783 78.9757C150.859 79.1324 150.914 79.3008 150.948 79.481C151.028 79.9015 151.008 80.1696 150.89 80.2852C151.044 80.5207 151.152 80.8036 151.214 81.1339C151.271 81.4343 151.281 81.6967 151.246 81.9211C151.46 82.0672 151.593 82.2755 151.644 82.5458C151.689 82.786 151.667 83.0391 151.578 83.3049C151.714 83.4502 151.799 83.613 151.833 83.7932C151.876 84.0185 151.821 84.2232 151.669 84.4074C151.517 84.5916 151.321 84.7065 151.081 84.7519C150.871 84.7916 150.679 84.7656 150.506 84.6738C150.346 84.5642 150.22 84.3935 150.13 84.1617C149.981 84.0343 149.88 83.8279 149.826 83.5426C149.792 83.3624 149.803 83.2126 149.858 83.0933C149.771 83.0474 149.694 82.9687 149.627 82.857C149.556 82.7304 149.508 82.5995 149.482 82.4643C149.451 82.2992 149.463 82.1569 149.518 82.0376C149.438 81.9438 149.374 81.7693 149.326 81.514C149.275 81.2437 149.259 81.0367 149.279 80.893C149.185 80.7242 149.116 80.5271 149.074 80.3019C149.011 79.9715 149.03 79.7424 149.13 79.6146C148.997 79.4843 148.9 79.2614 148.841 78.9461C148.807 78.7659 148.8 78.6039 148.819 78.4603C148.644 78.2756 148.524 78.0105 148.459 77.6651C148.411 77.4098 148.425 77.1972 148.502 77.0271C148.449 76.9127 148.415 76.8179 148.401 76.7428C148.364 76.5476 148.384 76.365 148.461 76.1949C148.344 76.1547 148.243 76.0727 148.158 75.9489C148.072 75.8251 148.015 75.6881 147.987 75.538C147.936 75.2677 147.971 75.0432 148.093 74.8647C148.001 74.7888 147.908 74.6664 147.814 74.4975C147.732 74.3108 147.672 74.1199 147.635 73.9246C147.573 73.5943 147.588 73.3426 147.679 73.1698C147.485 72.8799 147.356 72.5698 147.294 72.2395C147.217 71.834 147.249 71.4702 147.391 71.148C147.264 71.2185 147.133 71.2666 146.998 71.2922C146.743 71.3404 146.515 71.29 146.316 71.141C146.143 71.376 145.801 71.5417 145.29 71.6382C144.915 71.7091 144.665 71.702 144.54 71.6167C144.29 71.9438 143.97 72.1442 143.58 72.218C143.28 72.2747 143.009 72.2404 142.767 72.1149C142.644 72.2005 142.499 72.2589 142.334 72.2901C142.094 72.3355 141.877 72.2988 141.683 72.1798L141.637 72.3052C141.702 72.4018 141.747 72.5177 141.772 72.6529C141.818 72.8931 141.781 73.11 141.662 73.3036C141.686 73.3458 141.707 73.4195 141.727 73.5246C141.77 73.7499 141.75 73.9325 141.667 74.0725C141.715 74.1569 141.787 74.2911 141.883 74.4749C141.995 74.656 142.067 74.8291 142.098 74.9943C142.127 75.1444 142.126 75.3078 142.098 75.4843C142.267 75.639 142.385 75.8965 142.454 76.257C142.496 76.4822 142.5 76.7071 142.464 76.9315C142.444 77.1531 142.384 77.3278 142.283 77.4556C142.489 77.5567 142.612 77.7124 142.652 77.9226C142.683 78.0878 142.658 78.2869 142.578 78.5198C142.72 78.6952 142.812 78.8955 142.855 79.1207C142.909 79.4061 142.858 79.6723 142.702 79.9194C142.755 80.0339 142.789 80.1286 142.803 80.2037C142.845 80.429 142.808 80.7238 142.69 81.0883C142.77 81.182 142.827 81.319 142.861 81.4992C142.909 81.7545 142.89 82.0226 142.803 82.3034C142.728 82.5664 142.611 82.7674 142.45 82.9066C142.515 83.0032 142.559 83.1116 142.582 83.2317C142.627 83.472 142.575 83.6918 142.426 83.891C142.277 84.0902 142.072 84.199 141.811 84.2172C141.7 84.5337 141.535 84.7283 141.315 84.8009Z" fill="black"/>
<path d="M164.264 79.2512C164.424 79.4387 164.525 79.6451 164.568 79.8704C164.604 80.0656 164.604 80.2679 164.566 80.4773C164.676 80.5654 164.748 80.6996 164.782 80.8798C164.833 81.1501 164.756 81.4056 164.553 81.6462C164.512 82.0894 164.289 82.3493 163.884 82.4259C163.644 82.4713 163.403 82.4313 163.161 82.3058C162.932 82.1625 162.795 81.9707 162.749 81.7304C162.707 81.5052 162.759 81.2854 162.905 81.0712C162.846 80.9267 162.803 80.7793 162.774 80.6292C162.732 80.4039 162.72 80.2194 162.74 80.0758C162.591 79.9483 162.5 79.7945 162.466 79.6143C162.446 79.5091 162.449 79.3998 162.474 79.2861C162.323 79.1436 162.229 78.9748 162.192 78.7796C162.177 78.7045 162.174 78.604 162.181 78.4782C162.104 78.3995 162.025 78.2667 161.943 78.08C161.858 77.8783 161.796 77.6723 161.756 77.4621C161.671 77.0116 161.677 76.7149 161.775 76.5721C161.627 76.3667 161.509 76.0312 161.421 75.5657C161.364 75.2653 161.341 75.0208 161.352 74.8321C161.219 74.7018 161.128 74.509 161.08 74.2537C161.049 74.0885 161.041 73.9266 161.058 73.7679C161.087 73.5913 161.141 73.4645 161.219 73.3874C161.069 73.167 160.974 72.9517 160.934 72.7415L160.914 72.5119C160.79 72.3488 160.676 72.1992 160.573 72.0632C160.484 71.9244 160.427 71.7874 160.402 71.6522C160.368 71.472 160.373 71.2533 160.418 70.996C160.397 70.9688 160.376 70.9416 160.355 70.9144C160.335 70.8872 160.307 70.8614 160.271 70.8371C160.231 70.9535 160.107 71.1635 159.9 71.4671C159.705 71.7527 159.555 71.9445 159.449 72.0423C159.521 72.2618 159.496 72.5388 159.372 72.8732C159.261 73.1898 159.108 73.4054 158.912 73.5203C158.897 73.7719 158.777 74.0823 158.551 74.4516C158.34 74.818 158.126 75.0451 157.91 75.1327C157.994 75.3344 157.966 75.5964 157.825 75.9186C157.696 76.223 157.548 76.4687 157.381 76.6557C157.433 76.8481 157.429 77.0354 157.371 77.2176C157.327 77.397 157.229 77.5398 157.078 77.6461C157.108 77.9672 157.003 78.2358 156.764 78.4521C156.777 78.6051 156.75 78.7891 156.682 79.0042C156.626 79.2015 156.547 79.364 156.447 79.4918C156.52 79.7114 156.498 79.9644 156.381 80.2509C156.261 80.5224 156.107 80.7381 155.92 80.898C155.918 81.0538 155.891 81.2379 155.837 81.4501C155.799 81.6595 155.736 81.8192 155.648 81.9292C155.674 81.9864 155.699 82.0751 155.721 82.1952C155.821 82.7208 155.566 83.1812 154.956 83.5764C154.868 83.9351 154.637 84.15 154.261 84.2209C153.931 84.2834 153.593 84.2228 153.247 84.0393C152.913 83.8379 152.718 83.5871 152.662 83.2867C152.633 83.1365 152.65 82.9779 152.712 82.8107C152.644 82.699 152.597 82.5756 152.572 82.4405C152.512 82.1251 152.533 81.8256 152.635 81.542C152.547 81.4031 152.493 81.2812 152.473 81.176C152.461 81.116 152.459 81.023 152.467 80.8972C152.303 80.7726 152.192 80.5526 152.132 80.2372C152.081 79.9669 152.083 79.7332 152.139 79.5359C152.024 79.4178 151.95 79.2761 151.919 79.111C151.891 78.9608 151.9 78.8035 151.947 78.6392C151.846 78.5182 151.779 78.3676 151.745 78.1874C151.702 77.9622 151.736 77.7692 151.845 77.6085C151.801 77.5391 151.763 77.4218 151.732 77.2566C151.709 77.1364 151.702 76.9356 151.711 76.6539C151.616 76.563 151.523 76.4406 151.432 76.2867C151.356 76.1301 151.302 75.9691 151.271 75.8039C151.228 75.5787 151.239 75.39 151.304 75.2378C151.224 75.144 151.17 75.0221 151.141 74.8719C151.102 74.6616 151.123 74.4865 151.205 74.3465C151.046 74.0811 150.95 73.8582 150.916 73.678C150.873 73.4528 150.894 73.2312 150.977 73.0133C150.799 72.8135 150.685 72.5785 150.634 72.3082C150.588 72.0679 150.61 71.8928 150.698 71.7829C150.589 71.6168 150.514 71.4287 150.474 71.2185C150.426 70.9632 150.44 70.7505 150.517 70.5805C150.476 70.5261 150.439 70.4163 150.408 70.2511C150.383 70.116 150.372 70.0169 150.375 69.954C150.194 69.8172 150.083 69.6437 150.044 69.4334C149.998 69.1932 150.058 68.972 150.222 68.7699C150.398 68.55 150.606 68.4173 150.846 68.3719C151.192 68.3066 151.472 68.4325 151.688 68.7495C151.837 68.7991 151.963 68.8918 152.067 69.0278C152.167 69.1488 152.232 69.2844 152.26 69.4345C152.286 69.5697 152.275 69.7194 152.229 69.8838C152.311 69.9926 152.368 70.1296 152.4 70.2948C152.448 70.5501 152.405 70.7759 152.271 70.9723C152.51 71.0827 152.652 71.2581 152.697 71.4984C152.731 71.6786 152.679 71.8983 152.542 72.1577C152.665 72.3988 152.738 72.5794 152.761 72.6995C152.798 72.8947 152.779 73.1238 152.704 73.3868C152.906 73.5508 153.031 73.7605 153.079 74.0158C153.108 74.1659 153.105 74.3143 153.07 74.4608C153.186 74.5789 153.261 74.7281 153.295 74.9083C153.34 75.1485 153.296 75.3669 153.162 75.5633C153.368 75.6644 153.497 75.8576 153.551 76.1429C153.591 76.3532 153.573 76.5433 153.496 76.7133C153.566 76.84 153.614 76.9709 153.64 77.106C153.688 77.3613 153.669 77.6294 153.582 77.9102C153.665 78.019 153.722 78.156 153.753 78.3212C153.773 78.4263 153.781 78.5103 153.777 78.5732C153.956 78.695 154.068 78.876 154.113 79.1163C154.161 79.3716 154.119 79.5974 153.985 79.7938C154.107 79.8641 154.194 79.9564 154.247 80.0709C154.351 79.8802 154.468 79.757 154.597 79.7014C154.526 79.5748 154.483 79.4664 154.466 79.3763C154.426 79.1661 154.461 78.9806 154.57 78.8199C154.677 78.6442 154.816 78.5168 154.988 78.4377C154.931 78.2153 154.936 77.9965 155.004 77.7814C155.087 77.5635 155.201 77.4254 155.346 77.3669C155.329 77.1989 155.376 77.0346 155.486 76.8739C155.462 76.8317 155.441 76.758 155.421 76.6529C155.372 76.3976 155.408 76.1731 155.527 75.9796C155.643 75.771 155.808 75.6154 156.022 75.5128C156.047 75.3991 156.078 75.3155 156.114 75.262C156.091 75.2198 156.072 75.1611 156.058 75.086C156.004 74.8007 156.074 74.5152 156.269 74.2295C156.461 73.9288 156.69 73.7379 156.954 73.6568C156.962 73.531 157.023 73.4028 157.138 73.2721C157.066 73.0525 157.078 72.8323 157.177 72.6116C157.287 72.373 157.46 72.2159 157.694 72.1405C157.612 71.9538 157.613 71.7125 157.697 71.4167C157.794 71.103 157.927 70.8211 158.098 70.5712C158.283 70.3184 158.457 70.1688 158.619 70.1226C158.562 69.9002 158.593 69.6922 158.711 69.4986C158.843 69.2872 159.018 69.1452 159.238 69.0726C159.189 68.8173 159.204 68.5657 159.282 68.3177C159.374 68.0669 159.522 67.8602 159.724 67.6975C159.739 67.4459 159.818 67.2444 159.96 67.093C160.1 66.9267 160.267 66.825 160.462 66.7881C160.703 66.7427 160.928 66.7856 161.14 66.9167C161.363 67.03 161.497 67.1993 161.539 67.4245C161.565 67.5597 161.548 67.7184 161.489 67.9006L161.506 67.9907C161.529 68.1108 161.511 68.262 161.452 68.4442C161.744 68.5912 161.924 68.8449 161.992 69.2053C162.049 69.5056 162.009 69.7855 161.871 70.0448C162.017 70.1572 162.119 70.3711 162.179 70.6865C162.216 70.8817 162.221 71.0751 162.195 71.2667C162.364 71.4213 162.515 71.6417 162.647 71.9279C162.779 72.214 162.876 72.5223 162.938 72.8527C163.026 73.3182 163.015 73.6703 162.904 73.9089C163.078 74.1715 163.198 74.4755 163.263 74.8209C163.306 75.0462 163.325 75.2682 163.319 75.4869C163.446 75.6651 163.532 75.8744 163.578 76.1146C163.632 76.4 163.596 76.6634 163.471 76.9048C163.55 76.9986 163.6 77.098 163.62 77.2031C163.64 77.3083 163.636 77.4101 163.608 77.5088C163.804 77.6427 163.922 77.8148 163.962 78.0251C163.971 78.0701 163.971 78.1556 163.964 78.2814C164.127 78.406 164.232 78.5884 164.277 78.8287C164.306 78.9789 164.301 79.1197 164.264 79.2512Z" fill="black"/>
<path d="M175.725 74.1459C175.754 73.9694 175.848 73.8115 176.009 73.6723C176.166 73.5181 176.343 73.4226 176.538 73.3857C176.598 73.3744 176.691 73.3723 176.817 73.3797C177.275 73.4175 177.541 73.6317 177.615 74.0221C177.68 74.3675 177.596 74.7488 177.364 75.1659C177.417 75.2804 177.452 75.3827 177.469 75.4728C177.506 75.668 177.497 75.8718 177.444 76.084C177.406 76.2934 177.327 76.4949 177.209 76.6885C177.209 76.9372 177.181 77.1603 177.125 77.3575C177.081 77.5369 176.998 77.7548 176.875 78.0113C176.74 78.2856 176.593 78.4923 176.433 78.6315C176.284 78.7528 176.069 78.8869 175.785 79.0338C175.75 79.2582 175.667 79.4761 175.536 79.6875C175.402 79.8839 175.214 80.0048 174.974 80.0503C174.854 80.073 174.722 80.0745 174.579 80.055C174.496 80.195 174.364 80.321 174.183 80.433C174.014 80.5271 173.832 80.5926 173.637 80.6295C173.382 80.6778 173.169 80.6635 172.999 80.5868C172.833 80.6959 172.608 80.7774 172.322 80.8313C171.947 80.9023 171.575 80.9103 171.207 80.8555C170.839 80.8006 170.533 80.664 170.29 80.4456C169.935 80.5437 169.619 80.5179 169.342 80.368C169.109 80.2876 168.948 80.178 168.86 80.0392C168.253 79.8739 167.889 79.4294 167.768 78.7057C167.463 78.5766 167.222 78.4122 167.045 78.2125C166.864 77.9977 166.702 77.7173 166.559 77.371C166.416 77.2736 166.326 77.1273 166.289 76.932C166.272 76.8419 166.266 76.7654 166.269 76.7025C166.109 76.5929 166.007 76.4255 165.965 76.2002C165.945 76.0951 165.947 75.9857 165.973 75.8721C165.72 75.6866 165.554 75.3836 165.474 74.9631C165.403 74.5877 165.43 74.2792 165.556 74.0378C165.422 73.9075 165.339 73.7522 165.305 73.572C165.279 73.4368 165.29 73.2871 165.336 73.1227C165.244 73.0468 165.173 72.8737 165.122 72.6034C165.065 72.3031 165.053 71.9942 165.086 71.6768C165.117 71.3444 165.19 71.1129 165.305 70.9823C165.243 70.9007 165.196 70.7773 165.165 70.6121C165.12 70.3718 165.115 70.1395 165.15 69.915C165.201 69.6878 165.299 69.5525 165.447 69.5091C165.387 69.1937 165.468 68.9218 165.689 68.6934C165.634 68.4859 165.666 68.239 165.782 67.9525C165.914 67.6631 166.085 67.4521 166.293 67.3195C166.275 66.9806 166.358 66.6772 166.541 66.4094C166.723 66.1416 166.947 65.9671 167.212 65.886C167.261 65.7367 167.375 65.5985 167.553 65.4715C167.744 65.3267 167.937 65.2358 168.132 65.1989C168.282 65.1705 168.415 65.1764 168.532 65.2166C168.717 64.9638 168.953 64.8105 169.238 64.7566C169.478 64.7112 169.647 64.7414 169.745 64.8474C169.86 64.7946 169.962 64.7598 170.052 64.7427C170.322 64.6917 170.543 64.751 170.715 64.9206C170.767 64.8642 170.853 64.8247 170.973 64.802C171.183 64.7623 171.427 64.7783 171.705 64.8502C171.995 64.9043 172.173 64.9796 172.238 65.0762C172.565 65.0767 172.88 65.1804 173.183 65.3875C173.484 65.5795 173.636 65.8074 173.639 66.0712C173.869 66.1366 174.048 66.2584 174.175 66.4366C174.299 66.5998 174.362 66.7668 174.363 66.9377C174.518 67.0173 174.633 67.1354 174.71 67.2921C174.783 67.4337 174.83 67.5182 174.851 67.5454C175.199 67.7439 175.411 68.0384 175.484 68.4288C175.499 68.5039 175.502 68.6044 175.495 68.7302C175.521 68.7874 175.543 68.8611 175.56 68.9512C175.608 69.2065 175.552 69.4427 175.39 69.6598C175.241 69.859 175.047 69.9813 174.807 70.0267C174.566 70.0721 174.339 70.0217 174.125 69.8756C173.619 69.5045 173.301 69.098 173.171 68.656C172.979 68.63 172.816 68.5443 172.679 68.399C172.54 68.2387 172.458 68.0519 172.433 67.8389C172.281 67.7743 172.155 67.6815 172.054 67.5606C171.966 67.4218 171.915 67.2758 171.901 67.1228C171.631 67.1739 171.405 67.131 171.224 66.9942C171.182 67.0178 171.101 67.0409 170.98 67.0636C170.815 67.0948 170.631 67.1063 170.427 67.0982C170.22 67.075 170.058 67.0358 169.938 66.9806C169.881 67.0069 169.792 67.0315 169.672 67.0542C169.507 67.0854 169.391 67.0917 169.326 67.073C169.153 67.23 168.977 67.3255 168.797 67.3596C168.737 67.3709 168.629 67.3758 168.473 67.3741C168.333 67.5405 168.19 67.6454 168.042 67.6888C168.058 67.9347 168.031 68.1652 167.963 68.3803C167.91 68.5926 167.811 68.7279 167.666 68.7863C167.731 68.9608 167.735 69.1467 167.679 69.344C167.62 69.5262 167.518 69.6854 167.372 69.8218C167.38 69.9448 167.365 70.072 167.328 70.2035C167.287 70.3199 167.228 70.4167 167.149 70.4938C167.178 70.5661 167.21 70.6533 167.245 70.7556C167.277 70.8429 167.306 70.9541 167.332 71.0892C167.391 71.4046 167.303 71.6779 167.067 71.9092C167.104 72.1044 167.096 72.2692 167.044 72.4035C167.147 72.5395 167.213 72.6826 167.241 72.8328C167.27 72.9829 167.265 73.1238 167.228 73.2552C167.346 73.3884 167.418 73.5225 167.444 73.6577C167.469 73.7928 167.462 73.9576 167.421 74.152C167.382 74.3614 167.371 74.5501 167.388 74.7182C167.537 74.7677 167.662 74.853 167.763 74.9739C167.863 75.0949 167.928 75.2305 167.956 75.3806C167.987 75.5458 167.971 75.7045 167.906 75.8567C168.037 75.8941 168.147 75.9822 168.236 76.121C168.324 76.2598 168.384 76.4118 168.415 76.577C168.447 76.7422 168.442 76.883 168.402 76.9995C168.766 77.1172 169.027 77.2624 169.184 77.4349C169.353 77.5896 169.506 77.864 169.643 78.2581C169.757 78.2833 169.891 78.3357 170.046 78.4152C170.216 78.492 170.331 78.5636 170.39 78.6302C170.642 78.5669 170.916 78.5774 171.212 78.6614C171.52 78.7276 171.747 78.8559 171.892 79.0463C171.968 78.9542 172.099 78.8672 172.286 78.7852C172.484 78.6854 172.681 78.6171 172.877 78.5802C173.087 78.5405 173.235 78.5436 173.322 78.5894C173.484 78.2944 173.715 78.1185 174.015 78.0618C174.105 78.0448 174.174 78.0395 174.222 78.046C174.426 77.8054 174.588 77.6347 174.709 77.5341C174.827 77.4185 174.972 77.3211 175.143 77.242C175.116 77.0139 175.165 76.7791 175.29 76.5377C175.283 76.4147 175.301 76.2635 175.345 76.0842C175.386 75.8898 175.435 75.7404 175.493 75.6361C175.47 75.5939 175.448 75.5202 175.428 75.4151C175.391 75.2199 175.404 74.9997 175.467 74.7546C175.526 74.4945 175.612 74.2916 175.725 74.1459Z" fill="black"/>
<path d="M186.145 61.9816C186.33 61.8067 186.558 61.6937 186.828 61.6426C187.038 61.6029 187.219 61.6153 187.372 61.6799C187.661 61.5631 187.923 61.5913 188.158 61.7647C188.405 61.9202 188.554 62.1331 188.605 62.4034C188.647 62.6286 188.6 62.8319 188.463 63.0133C188.342 63.1919 188.131 63.3095 187.83 63.3663C187.635 63.4032 187.482 63.4165 187.371 63.4064C187.232 63.5727 187.012 63.6843 186.711 63.7411C186.381 63.8035 186.068 63.7927 185.772 63.7086C185.693 63.7857 185.538 63.8695 185.306 63.9599C185.074 64.0504 184.846 64.1169 184.621 64.1594C184.47 64.1878 184.332 64.1983 184.207 64.191C184.364 64.3635 184.471 64.6 184.527 64.9003C184.587 65.2157 184.56 65.4462 184.448 65.5918C184.724 65.8196 184.904 66.1512 184.986 66.5867C185.04 66.872 185.029 67.1462 184.955 67.4092C185.182 67.7862 185.332 68.17 185.406 68.5604C185.454 68.8157 185.466 69.0467 185.443 69.2532C185.535 69.3292 185.622 69.4605 185.704 69.6472C185.801 69.8311 185.868 70.0206 185.905 70.2158C185.948 70.4411 185.939 70.6448 185.881 70.827C186.146 70.9947 186.321 71.3038 186.406 71.7543C186.462 72.0546 186.47 72.302 186.429 72.4964C186.604 72.6811 186.723 72.9386 186.785 73.269C186.822 73.4642 186.817 73.644 186.771 73.8084C186.871 73.9294 186.944 74.11 186.99 74.3503C187.032 74.5755 187.035 74.7539 186.997 74.8854C187.176 75.0072 187.296 75.2332 187.359 75.5636C187.384 75.6988 187.386 75.8307 187.364 75.9593C187.601 76.1477 187.727 76.3573 187.739 76.5883C187.848 76.7543 187.914 76.8974 187.937 77.0175C187.985 77.2728 187.927 77.5015 187.763 77.7036C187.599 77.9056 187.39 78.0308 187.134 78.079C186.939 78.1159 186.756 78.096 186.586 78.0193C186.429 77.9247 186.304 77.7615 186.214 77.5297C186.089 77.4445 185.978 77.3099 185.881 77.126C185.784 76.9422 185.719 76.7601 185.685 76.5799C185.665 76.4748 185.658 76.3593 185.666 76.2335C185.469 76.0995 185.331 75.8223 185.252 75.4018C185.215 75.2066 185.205 75.0686 185.22 74.9879C185.045 74.8032 184.944 74.6357 184.915 74.4856C184.876 74.2753 184.923 74.072 185.057 73.8756C184.818 73.7652 184.669 73.5523 184.61 73.2369C184.561 72.9816 184.584 72.775 184.679 72.6172C184.446 72.5368 184.281 72.2413 184.185 71.7307C184.131 71.4454 184.118 71.2144 184.147 71.0379C184.055 70.962 183.962 70.8396 183.868 70.6707C183.786 70.484 183.727 70.2931 183.69 70.0978C183.65 69.8876 183.65 69.7243 183.69 69.6078C183.504 69.363 183.376 69.0529 183.305 68.6775C183.262 68.4522 183.231 68.1237 183.212 67.6919C183.053 67.4264 182.942 67.1285 182.88 66.7981C182.823 66.4978 182.821 66.2415 182.874 66.0292C182.66 65.8831 182.507 65.5697 182.417 65.0892C182.374 64.8639 182.358 64.6569 182.369 64.4682C182.221 64.5895 182.064 64.6658 181.899 64.697C181.734 64.7282 181.569 64.7205 181.405 64.6738C181.311 64.7537 181.174 64.8107 180.994 64.8447C180.694 64.9015 180.471 64.8736 180.325 64.7612C180.264 64.8505 180.163 64.9318 180.021 65.0053C179.879 65.0787 179.726 65.131 179.561 65.1622C179.185 65.2332 178.913 65.1913 178.744 65.0366C178.657 65.0687 178.538 65.0989 178.388 65.1273C178.012 65.1982 177.722 65.1831 177.516 65.082C177.31 64.9809 177.186 64.8177 177.144 64.5925C177.095 64.3372 177.17 64.0742 177.368 63.8036C177.563 63.5179 177.825 63.3438 178.156 63.2814C178.306 63.253 178.486 63.2579 178.695 63.2961C178.79 63.1383 179.01 63.0267 179.355 62.9614C179.64 62.9075 179.868 62.9189 180.038 62.9957C180.138 62.8679 180.339 62.7756 180.639 62.7188C180.834 62.6819 181.026 62.669 181.215 62.68C181.419 62.6881 181.573 62.7213 181.677 62.7793C181.754 62.6093 182.017 62.4817 182.468 62.3966C182.873 62.3199 183.141 62.3393 183.272 62.4546C183.369 62.3117 183.568 62.2119 183.869 62.1552C184.154 62.1013 184.347 62.1348 184.448 62.2558C184.602 62.0865 184.852 61.9693 185.198 61.904C185.588 61.8303 185.904 61.8561 186.145 61.9816Z" fill="black"/>
<path d="M204.756 72.2296C204.756 72.2296 204.893 72.258 205.168 72.3149C205.459 72.3689 205.63 72.702 205.684 73.314C205.767 73.4228 205.822 73.5523 205.85 73.7024C205.896 73.9427 205.835 74.1564 205.668 74.3434C205.501 74.5305 205.29 74.6482 205.035 74.6964C204.81 74.739 204.602 74.7083 204.411 74.6043C204.233 74.4825 204.118 74.2865 204.067 74.0162C203.896 74.0174 203.699 73.9224 203.476 73.7312C203.266 73.5221 203.138 73.2974 203.092 73.0572C203.081 72.9971 203.079 72.9041 203.086 72.7783C202.922 72.7316 202.758 72.607 202.596 72.4044C202.445 72.184 202.323 71.9504 202.23 71.7037C202.137 71.4569 202.088 71.2795 202.083 71.1716C201.87 71.1183 201.672 70.9304 201.486 70.6077C201.313 70.2672 201.217 69.9664 201.199 69.7054C201.102 69.7703 200.979 69.817 200.829 69.8454C200.529 69.9021 200.234 69.8645 199.944 69.7326C199.786 69.9647 199.512 70.1176 199.121 70.1914C198.761 70.2595 198.489 70.2176 198.304 70.0658C198.14 70.2679 197.946 70.3902 197.72 70.4328C197.54 70.4668 197.39 70.4562 197.271 70.401C197.18 70.496 197.03 70.5633 196.819 70.603C196.639 70.6371 196.453 70.6411 196.262 70.6151C196.07 70.5891 195.912 70.5334 195.787 70.4482C195.772 70.451 195.737 70.4731 195.683 70.5145C195.827 70.7828 195.92 71.0296 195.963 71.2549C196.028 71.6002 195.912 71.9332 195.615 72.2538C195.698 72.3626 195.755 72.4996 195.786 72.6647C195.848 72.9951 195.795 73.3318 195.627 73.6747C195.458 74.0176 195.272 74.2239 195.067 74.2937C195.153 74.4175 195.213 74.5695 195.247 74.7497C195.323 75.1551 195.259 75.5561 195.054 75.9526C194.846 76.334 194.547 76.5617 194.156 76.6354C194.051 76.6553 193.967 76.6634 193.904 76.6597C193.709 76.6966 193.548 76.6649 193.42 76.5647C193.292 76.4644 193.21 76.3166 193.173 76.1214C193.147 75.9863 193.155 75.8215 193.196 75.6271C193.17 75.5699 193.145 75.4812 193.122 75.361C193.066 75.0607 193.166 74.7695 193.424 74.4875C193.4 74.4453 193.38 74.3791 193.363 74.289C193.321 74.0638 193.331 73.8286 193.393 73.5835C193.468 73.3205 193.588 73.1344 193.754 73.0253C193.734 72.9981 193.713 72.932 193.693 72.8268C193.645 72.5715 193.65 72.2674 193.708 71.9143C193.762 71.5462 193.861 71.3254 194.002 71.252C193.848 70.5969 193.939 69.8875 194.277 69.1238C194.212 68.7784 194.203 68.4456 194.251 68.1254C194.297 67.7902 194.442 67.5294 194.687 67.3432C194.648 67.055 194.662 66.7569 194.728 66.4489C194.794 66.1409 194.884 65.8751 194.997 65.6515C194.921 65.4948 194.87 65.3489 194.844 65.2137C194.805 65.0035 194.811 64.8312 194.863 64.6969C194.928 64.5447 195.01 64.4437 195.109 64.3938C195.083 64.3365 195.059 64.2478 195.036 64.1277C194.973 63.7973 195.044 63.5118 195.247 63.2712L195.199 63.1403C195.157 62.9151 195.208 62.6953 195.355 62.481C195.328 62.4238 195.305 62.3426 195.285 62.2375C195.234 61.9672 195.251 61.6841 195.335 61.3883C195.419 61.0924 195.535 60.8839 195.683 60.7625C195.882 60.336 196.132 60.0944 196.433 60.0376C196.568 60.0121 196.749 60.0245 196.976 60.0749C197.415 60.0076 197.794 60.2859 198.114 60.9098C198.28 61.0494 198.415 61.2262 198.517 61.4401C198.617 61.639 198.677 61.83 198.696 62.013C198.848 62.0776 198.968 62.1793 199.057 62.3181C199.16 62.4541 199.22 62.6061 199.236 62.7741C199.412 62.8809 199.579 63.067 199.738 63.3324C199.912 63.5951 200.023 63.854 200.072 64.1093C200.094 64.2295 200.102 64.3135 200.096 64.3614C200.221 64.4466 200.339 64.5798 200.451 64.7608C200.578 64.939 200.657 65.1107 200.689 65.2759C200.706 65.366 200.711 65.435 200.704 65.4829C200.925 65.5811 201.123 65.7616 201.297 66.0242C201.486 66.284 201.63 66.5523 201.729 66.8291C201.84 67.088 201.89 67.2729 201.88 67.3837C201.919 67.4231 202.023 67.5201 202.192 67.6748C202.358 67.8144 202.496 67.9672 202.605 68.1333C202.711 68.2843 202.779 68.4349 202.807 68.585C202.833 68.7202 202.836 68.8206 202.817 68.8864C202.892 68.9501 202.976 69.0274 203.071 69.1184C203.163 69.1943 203.239 69.2655 203.298 69.3321C203.357 69.3987 203.397 69.4845 203.417 69.5896C203.437 69.6948 203.443 69.7713 203.437 69.8191C203.58 69.9166 203.715 70.0544 203.842 70.2326C203.969 70.4108 204.049 70.59 204.083 70.7702C204.112 70.9204 204.103 71.0387 204.057 71.1251C204.245 71.214 204.405 71.3626 204.538 71.5708C204.67 71.7791 204.743 71.9986 204.756 72.2296ZM199.687 68.1247C199.7 68.0289 199.758 67.9636 199.86 67.9287C199.96 67.8788 200.051 67.8693 200.135 67.9002C200.088 67.8158 200.06 67.751 200.051 67.706C200.029 67.5858 200.042 67.49 200.09 67.4186C199.935 67.339 199.797 67.2252 199.676 67.077C199.57 66.926 199.508 66.7665 199.492 66.5985C199.381 66.5883 199.27 66.5317 199.157 66.4286C199.056 66.3076 198.992 66.172 198.963 66.0219C198.955 65.9768 198.954 65.8914 198.961 65.7656C198.609 65.6299 198.396 65.3669 198.322 64.9764C198.294 64.8263 198.284 64.6493 198.292 64.4456C198.274 64.4334 198.231 64.4105 198.162 64.3768C198.091 64.328 198.051 64.2422 198.044 64.1192C197.726 64.0859 197.538 63.8726 197.48 63.4793C197.348 63.4419 197.229 63.3477 197.123 63.1967C197.218 63.5365 197.134 63.8323 196.871 64.0843C196.917 64.2466 196.922 64.44 196.887 64.6644C196.852 64.8889 196.791 65.0636 196.706 65.1886C196.732 65.2458 196.758 65.342 196.784 65.4771C196.849 65.8225 196.793 66.3075 196.616 66.9321C196.572 67.1115 196.54 67.273 196.521 67.4166C196.489 67.5782 196.45 67.7411 196.403 67.9055C196.371 68.067 196.31 68.1952 196.219 68.2902C196.247 68.4403 196.243 68.5812 196.206 68.7127L196.381 68.6561C196.532 68.6277 196.651 68.644 196.741 68.7049C196.771 68.6213 196.855 68.5667 196.99 68.5411C197.08 68.5241 197.152 68.5339 197.205 68.5704C197.36 68.4012 197.572 68.2911 197.843 68.24C198.038 68.2031 198.224 68.1991 198.4 68.2279C198.577 68.2568 198.728 68.3138 198.853 68.3991C198.971 68.2055 199.114 68.0931 199.279 68.0619C199.384 68.0421 199.52 68.063 199.687 68.1247Z" fill="black"/>
<path d="M218.796 68.9465C218.956 69.134 219.057 69.3404 219.1 69.5657C219.137 69.7609 219.136 69.9632 219.098 70.1726C219.208 70.2607 219.28 70.3949 219.314 70.5751C219.365 70.8454 219.289 71.1009 219.085 71.3415C219.045 71.7847 218.822 72.0446 218.416 72.1212C218.176 72.1666 217.935 72.1266 217.694 72.0011C217.464 71.8578 217.327 71.666 217.282 71.4257C217.239 71.2005 217.291 70.9807 217.437 70.7664C217.379 70.622 217.335 70.4746 217.307 70.3244C217.264 70.0992 217.253 69.9147 217.272 69.7711C217.124 69.6436 217.032 69.4898 216.998 69.3096C216.978 69.2044 216.981 69.0951 217.006 68.9814C216.855 68.8389 216.761 68.6701 216.724 68.4749C216.71 68.3998 216.706 68.2993 216.714 68.1735C216.637 68.0948 216.557 67.962 216.475 67.7753C216.39 67.5736 216.328 67.3676 216.288 67.1574C216.203 66.7069 216.209 66.4102 216.307 66.2673C216.159 66.062 216.041 65.7265 215.953 65.261C215.897 64.9606 215.874 64.7161 215.885 64.5274C215.751 64.3971 215.66 64.2043 215.612 63.949C215.581 63.7838 215.574 63.6219 215.59 63.4632C215.619 63.2866 215.673 63.1598 215.752 63.0827C215.601 62.8623 215.506 62.647 215.466 62.4367L215.446 62.2072C215.322 62.0441 215.208 61.8945 215.105 61.7585C215.016 61.6197 214.959 61.4827 214.934 61.3475C214.9 61.1673 214.905 60.9486 214.95 60.6913C214.929 60.6641 214.908 60.6369 214.888 60.6097C214.867 60.5825 214.839 60.5567 214.803 60.5324C214.763 60.6488 214.639 60.8588 214.432 61.1624C214.237 61.448 214.087 61.6398 213.981 61.7376C214.054 61.9571 214.028 62.2341 213.905 62.5685C213.793 62.8851 213.64 63.1007 213.444 63.2155C213.429 63.4672 213.309 63.7776 213.083 64.1469C212.872 64.5133 212.659 64.7404 212.442 64.828C212.527 65.0297 212.499 65.2917 212.357 65.6139C212.228 65.9182 212.08 66.164 211.913 66.351C211.965 66.5434 211.962 66.7307 211.903 66.9129C211.859 67.0923 211.761 67.2351 211.61 67.3414C211.64 67.6625 211.535 67.9311 211.296 68.1474C211.31 68.3004 211.282 68.4844 211.214 68.6995C211.158 68.8968 211.08 69.0593 210.979 69.1871C211.052 69.4067 211.03 69.6597 210.913 69.9462C210.793 70.2177 210.639 70.4334 210.452 70.5933C210.45 70.7491 210.423 70.9332 210.37 71.1454C210.331 71.3548 210.268 71.5145 210.18 71.6245C210.207 71.6817 210.231 71.7704 210.254 71.8905C210.353 72.4161 210.098 72.8765 209.488 73.2717C209.4 73.6304 209.169 73.8453 208.793 73.9162C208.463 73.9786 208.125 73.9181 207.779 73.7346C207.446 73.5332 207.251 73.2823 207.194 72.982C207.165 72.8318 207.182 72.6731 207.244 72.506C207.176 72.3943 207.129 72.2709 207.104 72.1358C207.044 71.8204 207.065 71.5209 207.167 71.2372C207.079 71.0984 207.025 70.9765 207.005 70.8713C206.994 70.8113 206.992 70.7183 206.999 70.5925C206.835 70.4679 206.724 70.2479 206.664 69.9325C206.613 69.6622 206.616 69.4285 206.672 69.2312C206.556 69.1131 206.483 68.9714 206.451 68.8062C206.423 68.6561 206.432 68.4988 206.479 68.3345C206.378 68.2135 206.311 68.0629 206.277 67.8827C206.234 67.6574 206.268 67.4645 206.377 67.3038C206.333 67.2344 206.296 67.1171 206.264 66.9519C206.242 66.8317 206.235 66.6308 206.244 66.3492C206.149 66.2583 206.056 66.1359 205.964 65.982C205.888 65.8254 205.834 65.6644 205.803 65.4992C205.761 65.274 205.772 65.0853 205.836 64.9331C205.756 64.8393 205.702 64.7173 205.674 64.5672C205.634 64.3569 205.655 64.1818 205.738 64.0418C205.579 63.7764 205.482 63.5535 205.448 63.3733C205.406 63.1481 205.426 62.9265 205.509 62.7085C205.331 62.5088 205.217 62.2738 205.166 62.0035C205.121 61.7632 205.142 61.5881 205.23 61.4781C205.121 61.3121 205.046 61.124 205.007 60.9138C204.958 60.6585 204.973 60.4458 205.049 60.2758C205.008 60.2214 204.972 60.1116 204.941 59.9464C204.915 59.8112 204.904 59.7122 204.908 59.6493C204.726 59.5125 204.616 59.339 204.576 59.1287C204.531 58.8885 204.59 58.6673 204.754 58.4652C204.93 58.2453 205.138 58.1126 205.379 58.0672C205.724 58.0019 206.004 58.1278 206.22 58.4448C206.369 58.4944 206.496 58.5871 206.599 58.7231C206.7 58.8441 206.764 58.9797 206.793 59.1298C206.818 59.265 206.808 59.4147 206.761 59.5791C206.844 59.6879 206.901 59.8249 206.932 59.9901C206.98 60.2453 206.937 60.4712 206.803 60.6676C207.042 60.778 207.184 60.9534 207.229 61.1937C207.263 61.3739 207.211 61.5936 207.074 61.8529C207.197 62.094 207.27 62.2747 207.293 62.3948C207.33 62.59 207.311 62.8191 207.236 63.0821C207.438 63.2461 207.563 63.4558 207.612 63.711C207.64 63.8612 207.637 64.0096 207.602 64.1561C207.718 64.2742 207.793 64.4233 207.827 64.6036C207.872 64.8438 207.828 65.0622 207.694 65.2586C207.9 65.3597 208.03 65.5529 208.084 65.8382C208.123 66.0485 208.105 66.2386 208.028 66.4086C208.099 66.5353 208.147 66.6662 208.172 66.8013C208.22 67.0566 208.201 67.3247 208.114 67.6055C208.197 67.7143 208.254 67.8513 208.285 68.0165C208.305 68.1216 208.313 68.2056 208.309 68.2685C208.488 68.3903 208.6 68.5713 208.645 68.8116C208.694 69.0669 208.651 69.2927 208.517 69.4891C208.639 69.5594 208.726 69.6517 208.779 69.7662C208.883 69.5755 209 69.4523 209.129 69.3967C209.059 69.2701 209.015 69.1617 208.998 69.0716C208.958 68.8614 208.993 68.6759 209.103 68.5152C209.209 68.3395 209.349 68.2121 209.52 68.133C209.463 67.9106 209.468 67.6918 209.536 67.4767C209.62 67.2588 209.733 67.1206 209.878 67.0622C209.862 66.8942 209.908 66.7299 210.018 66.5692C209.995 66.5269 209.973 66.4533 209.953 66.3482C209.905 66.0929 209.94 65.8684 210.059 65.6749C210.175 65.4663 210.34 65.3107 210.554 65.2081C210.579 65.0944 210.61 65.0108 210.647 64.9573C210.623 64.915 210.604 64.8564 210.59 64.7813C210.536 64.496 210.607 64.2105 210.802 63.9248C210.994 63.6241 211.222 63.4332 211.487 63.3521C211.494 63.2263 211.555 63.098 211.67 62.9674C211.598 62.7478 211.611 62.5276 211.709 62.3069C211.819 62.0683 211.992 61.9112 212.227 61.8358C212.145 61.6491 212.146 61.4078 212.23 61.112C212.326 60.7983 212.459 60.5164 212.63 60.2665C212.815 60.0137 212.989 59.8641 213.152 59.8179C213.094 59.5955 213.125 59.3875 213.244 59.1939C213.375 58.9825 213.55 58.8405 213.77 58.7679C213.722 58.5126 213.736 58.261 213.814 58.013C213.906 57.7622 214.054 57.5555 214.257 57.3928C214.271 57.1412 214.35 56.9397 214.492 56.7883C214.632 56.6219 214.799 56.5203 214.995 56.4834C215.235 56.438 215.461 56.4809 215.672 56.612C215.896 56.7253 216.029 56.8946 216.071 57.1198C216.097 57.255 216.08 57.4137 216.021 57.5959L216.038 57.686C216.061 57.8061 216.043 57.9573 215.984 58.1395C216.276 58.2865 216.456 58.5402 216.525 58.9006C216.581 59.2009 216.541 59.4808 216.403 59.7401C216.549 59.8525 216.651 60.0664 216.711 60.3818C216.748 60.577 216.753 60.7704 216.727 60.962C216.897 61.1166 217.047 61.337 217.179 61.6232C217.311 61.9093 217.408 62.2176 217.47 62.548C217.558 63.0135 217.547 63.3656 217.437 63.6042C217.611 63.8668 217.73 64.1708 217.796 64.5162C217.838 64.7415 217.857 64.9635 217.852 65.1822C217.979 65.3604 218.065 65.5697 218.11 65.8099C218.164 66.0953 218.128 66.3587 218.003 66.6001C218.083 66.6939 218.133 66.7933 218.152 66.8984C218.172 67.0036 218.168 67.1054 218.14 67.204C218.337 67.338 218.455 67.5101 218.494 67.7204C218.503 67.7654 218.504 67.8508 218.496 67.9767C218.66 68.1013 218.764 68.2837 218.81 68.524C218.838 68.6742 218.833 68.815 218.796 68.9465ZM208.299 56.6056C208.071 56.5552 207.842 56.4508 207.61 56.2925C207.392 56.1313 207.266 55.9142 207.23 55.641C207.126 55.505 207.066 55.392 207.049 55.3019C207.015 55.1217 207.062 54.9573 207.189 54.8088C207.317 54.6603 207.478 54.5676 207.673 54.5307C207.853 54.4967 208.014 54.5208 208.154 54.6033C208.294 54.6857 208.383 54.832 208.423 55.0422C208.638 55.1105 208.799 55.1811 208.906 55.2542C209.029 55.3244 209.125 55.4229 209.196 55.5495C209.28 55.5025 209.36 55.4718 209.435 55.4576C209.555 55.4349 209.687 55.4334 209.831 55.4529C209.974 55.4724 210.082 55.5065 210.153 55.5552C210.381 55.2789 210.719 55.0906 211.166 54.9905C211.108 54.846 211.096 54.7005 211.13 54.554C211.18 54.4046 211.274 54.2857 211.413 54.1973C211.394 54.0143 211.435 53.8588 211.535 53.731C211.647 53.5853 211.794 53.4955 211.974 53.4614C212.169 53.4245 212.347 53.4609 212.508 53.5705C212.636 53.6708 212.719 53.826 212.759 54.0363C212.827 54.3967 212.773 54.6869 212.597 54.9068C212.65 55.0212 212.619 55.1903 212.506 55.4139C212.405 55.6196 212.249 55.8203 212.037 56.0159C211.825 56.2114 211.6 56.3394 211.363 56.3998C211.302 56.4891 211.181 56.5897 211 56.7017C210.816 56.7987 210.634 56.8642 210.454 56.8982C210.258 56.9351 210.116 56.9231 210.027 56.8622C209.948 56.9393 209.819 56.9949 209.638 57.0289C209.413 57.0715 209.232 57.0591 209.095 56.9917C208.95 57.0501 208.802 57.047 208.65 56.9825C208.51 56.9 208.393 56.7744 208.299 56.6056Z" fill="black"/>
<path d="M221.251 65.1932C221.147 65.0572 221.074 64.8766 221.032 64.6513C220.992 64.4411 221 64.2763 221.055 64.157C221.011 64.0876 220.971 63.9628 220.937 63.7826C220.898 63.5723 220.888 63.3564 220.908 63.1348C220.929 62.9132 220.971 62.7653 221.034 62.691C220.877 62.5964 220.759 62.3464 220.683 61.941C220.649 61.7607 220.634 61.6002 220.638 61.4594C220.64 61.3036 220.668 61.2049 220.722 61.1636C220.619 61.0276 220.536 60.7944 220.474 60.464C220.428 60.2237 220.41 60.0017 220.418 59.798C220.423 59.5793 220.453 59.4102 220.509 59.2909C220.294 59.1448 220.157 58.914 220.098 58.5986C220.061 58.4034 220.057 58.2175 220.086 58.041C220.127 57.8466 220.191 57.6944 220.279 57.5845C220.107 57.4148 219.994 57.1873 219.941 56.902C219.906 56.7217 219.903 56.4969 219.93 56.2274C219.743 56.0606 219.632 55.8871 219.598 55.7068C219.553 55.4666 219.619 55.244 219.798 55.0391C219.975 54.8191 220.19 54.685 220.446 54.6368C220.626 54.6028 220.795 54.633 220.953 54.7276C221.123 54.8044 221.259 54.9497 221.362 55.1636C221.564 55.3276 221.686 55.5222 221.729 55.7475C221.757 55.8977 221.751 56.031 221.711 56.1475C221.765 56.184 221.857 56.5477 221.987 57.2384C222.04 57.3529 222.073 57.4477 222.088 57.5228C222.144 57.8231 222.138 58.1587 222.068 58.5297C222.181 58.6328 222.264 58.827 222.318 59.1123C222.355 59.3075 222.362 59.5084 222.338 59.715C222.327 59.9037 222.3 60.0488 222.257 60.1503C222.281 60.1925 222.319 60.2708 222.372 60.3853C222.425 60.4997 222.461 60.6095 222.481 60.7147C222.512 60.8798 222.501 61.0296 222.449 61.1639C222.582 61.2942 222.692 61.5846 222.777 62.0352C222.808 62.2003 222.82 62.3458 222.813 62.4717C222.887 62.5354 222.947 62.6874 222.992 62.9277C223.029 63.1229 223.036 63.3238 223.013 63.5304C223.002 63.7191 222.951 63.8609 222.86 63.9559C222.988 64.0561 223.072 64.2114 223.111 64.4216C223.148 64.6169 223.14 64.7816 223.088 64.916C223.169 64.9318 223.226 65.0298 223.26 65.21C223.28 65.3151 223.286 65.4306 223.279 65.5564C223.269 65.6672 223.243 65.7344 223.2 65.7579C223.253 65.8724 223.287 65.9671 223.301 66.0422C223.346 66.2825 223.297 66.5173 223.154 66.7466C223.023 66.958 222.83 67.0878 222.574 67.136C222.304 67.1871 222.06 67.1321 221.843 66.9709C221.623 66.7947 221.51 66.5672 221.504 66.2884C221.395 66.1224 221.312 65.8892 221.255 65.5889C221.224 65.4237 221.223 65.2918 221.251 65.1932ZM222.424 70.6639C222.475 70.9342 222.599 71.1363 222.796 71.2703C223.004 71.3864 223.229 71.4218 223.469 71.3764C223.679 71.3366 223.855 71.2411 223.998 71.0897C224.138 70.9234 224.207 70.7158 224.207 70.467C224.308 70.2613 224.336 70.0383 224.29 69.798L224.187 69.3743C224.08 68.9745 223.849 68.7382 223.493 68.6655C223.38 68.6403 223.263 68.6391 223.143 68.6618C222.902 68.7072 222.709 68.837 222.563 69.0513C222.414 69.2505 222.364 69.4778 222.412 69.7331C222.426 69.8081 222.459 69.9029 222.512 70.0174C222.414 70.2381 222.385 70.4536 222.424 70.6639Z" fill="black"/>
<path d="M231.868 60.5272C231.968 60.7261 232.112 60.87 232.299 60.959C232.484 61.0329 232.69 61.0485 232.915 61.006C233.185 60.9549 233.41 60.8269 233.589 60.622C233.783 60.4142 233.853 60.1677 233.799 59.8824C233.742 59.582 233.539 59.2861 233.188 58.9946C232.837 58.7032 232.504 58.5872 232.189 58.6468C231.919 58.6979 231.707 58.8545 231.555 59.1166C231.402 59.3788 231.351 59.645 231.402 59.9153C231.453 60.1856 231.609 60.3896 231.868 60.5272ZM233.644 68.9403C233.372 68.8984 233.154 68.8152 232.991 68.6906C232.839 68.5481 232.745 68.3792 232.708 68.184C232.663 67.9437 232.712 67.709 232.855 67.4797C233.011 67.2326 233.223 67.0835 233.494 67.0324C233.764 66.9813 234.082 67.0611 234.449 67.2718C234.688 67.3043 234.901 67.443 235.087 67.6878C235.286 67.9147 235.412 68.1708 235.466 68.4561C235.506 68.6664 235.499 68.8386 235.447 68.973C235.318 69.2773 235.08 69.4621 234.735 69.5274C234.51 69.57 234.294 69.5407 234.089 69.4396C233.883 69.3385 233.735 69.1721 233.644 68.9403Z" fill="black"/>
<path d="M234.781 53.3978C234.622 53.3811 234.452 53.3043 234.271 53.1675C234.155 53.0494 234.082 52.9077 234.05 52.7426C234.005 52.5023 234.055 52.275 234.201 52.0608C234.345 51.8315 234.529 51.6956 234.754 51.653C234.935 51.619 235.086 51.637 235.208 51.7073C235.445 51.6469 235.662 51.6836 235.859 51.8176C236.07 51.9487 236.191 52.1359 236.221 52.379C236.359 52.4464 236.471 52.5495 236.56 52.6883C236.663 52.8243 236.722 52.9688 236.735 53.1218C236.951 53.1121 237.142 53.1771 237.308 53.3167C237.472 53.4414 237.574 53.6088 237.613 53.819C237.739 53.8264 237.875 53.8863 238.021 53.9987C238.163 54.0962 238.269 54.2007 238.336 54.3123C238.498 54.344 238.697 54.5319 238.933 54.8762C239.296 55.0719 239.526 55.3006 239.622 55.5624C239.75 55.6627 239.833 55.8104 239.87 56.0056C239.912 56.2309 239.886 56.4225 239.792 56.5803C239.872 56.5962 239.939 56.6613 239.992 56.7758C240.044 56.8902 240.066 57.0029 240.056 57.1137C240.205 57.1632 240.331 57.256 240.435 57.3919C240.535 57.5129 240.601 57.656 240.633 57.8212C240.655 57.9413 240.657 58.0732 240.637 58.2169C240.774 58.3622 240.855 58.5024 240.88 58.6376C240.903 58.7577 240.897 58.8911 240.862 59.0376C240.942 59.1313 240.995 59.2458 241.021 59.3809C241.038 59.471 241.044 59.5476 241.041 59.6105C241.237 59.7444 241.381 60.0517 241.471 60.5322C241.503 60.6974 241.52 60.873 241.524 61.0588C241.706 61.1957 241.826 61.4217 241.886 61.7371C241.951 62.0825 241.92 62.3684 241.791 62.5948C241.815 62.6371 241.835 62.7032 241.852 62.7933C241.895 63.0186 241.874 63.2402 241.791 63.4581C241.781 63.8177 241.712 64.1107 241.584 64.3371C241.717 64.4674 241.8 64.6152 241.831 64.7804C241.871 64.9906 241.836 65.1761 241.726 65.3368C241.797 65.4634 241.846 65.6018 241.875 65.752C241.914 65.9622 241.894 66.1838 241.814 66.4167C241.827 66.5698 241.797 66.6998 241.724 66.8069C241.666 66.9112 241.558 67.0405 241.401 67.1947C241.37 67.5271 241.243 67.8854 241.021 68.2697C240.916 68.7871 240.737 69.3187 240.482 69.8646C240.447 70.089 240.369 70.3369 240.249 70.6084C240.132 70.8949 240 71.0989 239.852 71.2202C239.697 71.6382 239.455 71.8784 239.125 71.9408C238.914 71.9805 238.72 71.9395 238.541 71.8177C238.378 71.6931 238.273 71.5106 238.228 71.2703C238.157 70.8949 238.266 70.5244 238.555 70.1588C238.62 69.602 238.896 68.92 239.381 68.1129C239.399 67.7983 239.481 67.4485 239.626 67.0634C239.771 66.6783 239.945 66.4044 240.147 66.2417C240.136 66.1816 240.1 66.0328 240.04 65.7954C239.991 65.5401 239.997 65.3214 240.056 65.1391C239.952 65.0032 239.888 64.8676 239.862 64.7324C239.831 64.5673 239.83 64.3964 239.859 64.2199C239.903 64.0405 239.954 63.8597 240.013 63.6775C240.069 63.4802 240.109 63.3248 240.135 63.2112C240.019 63.093 239.947 62.9589 239.919 62.8087C239.868 62.5384 239.938 62.2919 240.129 62.0691C239.99 61.9088 239.903 61.7385 239.869 61.5583L239.853 61.3513C239.774 61.1796 239.729 61.0637 239.718 61.0037C239.695 60.8835 239.7 60.7892 239.734 60.7206C239.642 60.6447 239.54 60.4772 239.429 60.2183C239.318 59.9593 239.244 59.7322 239.207 59.537C239.184 59.4169 239.176 59.3329 239.183 59.285C239.016 59.1453 238.912 58.9629 238.869 58.7376C238.844 58.6025 238.84 58.502 238.859 58.4363C238.571 58.1485 238.376 57.8122 238.272 57.4274C238.041 57.1911 237.887 56.8703 237.81 56.4648C237.782 56.3147 237.769 56.2081 237.773 56.1452C237.624 56.0957 237.449 55.9964 237.25 55.8474C237.048 55.6834 236.904 55.5395 236.819 55.4157C236.633 55.4197 236.467 55.3655 236.321 55.253C236.175 55.1406 236.071 54.9971 236.007 54.8226C235.824 54.7637 235.643 54.6269 235.462 54.4121C235.279 54.1824 235.176 53.9685 235.154 53.7704C234.999 53.6908 234.875 53.5666 234.781 53.3978Z" fill="black"/>
</svg>
