<svg width="811" height="608" viewBox="0 0 811 608" fill="none" xmlns="http://www.w3.org/2000/svg">
<path d="M22 367C-44 222.2 103.833 107.333 186 67.9996C334 2.3996 467.333 1.33294 515.5 8.9996C646.7 29.3996 737.5 84.8329 766.5 110C829.3 171.6 803.333 289 782.5 340C768.5 386 619.667 433.5 547 451.5L613.5 593.5L440 480.5L234 505.5C124.8 514.3 47.1667 416.833 22 367Z" fill="white" stroke="black" stroke-width="10"/>
<path d="M183.175 185.314C182.956 185.97 182.737 186.626 182.519 187.282C182.355 187.938 182.191 188.594 182.027 189.25C181.863 189.851 181.671 190.48 181.453 191.136C181.289 191.792 181.097 192.448 180.879 193.104C180.715 193.76 180.523 194.416 180.305 195.072C180.141 195.345 179.977 195.646 179.813 195.974C179.649 196.247 179.485 196.521 179.321 196.794C179.102 197.723 178.883 198.68 178.665 199.664C178.501 200.648 178.309 201.632 178.091 202.616C177.872 203.545 177.653 204.502 177.435 205.486C177.107 206.798 176.779 208.192 176.451 209.668C176.123 211.144 175.822 212.565 175.549 213.932C175.275 215.299 175.029 216.447 174.811 217.376C174.647 218.305 174.565 218.879 174.565 219.098C174.565 219.645 174.537 220.055 174.483 220.328C174.428 220.601 174.401 220.957 174.401 221.394C174.127 222.05 173.936 222.542 173.827 222.87C173.717 223.198 173.69 223.444 173.745 223.608C173.745 225.029 173.444 225.959 172.843 226.396C172.296 226.833 171.148 227.052 169.399 227.052C168.36 226.451 167.54 225.877 166.939 225.33C166.392 224.783 165.982 224.073 165.709 223.198C165.818 221.941 166.009 220.683 166.283 219.426C166.556 218.114 166.693 217.212 166.693 216.72C166.802 215.955 166.911 215.189 167.021 214.424C167.13 213.659 167.239 212.893 167.349 212.128C167.458 211.363 167.567 210.597 167.677 209.832C167.95 209.559 168.223 209.285 168.497 209.012C168.77 208.684 168.934 208.329 168.989 207.946L169.891 203.354C169.891 203.354 169.973 203.026 170.137 202.37C170.355 201.659 170.574 200.867 170.793 199.992C171.011 199.063 171.203 198.27 171.367 197.614C171.531 196.903 171.613 196.548 171.613 196.548C171.503 196.657 171.367 196.794 171.203 196.958C171.093 197.122 170.984 197.259 170.875 197.368C170.765 197.587 170.629 197.833 170.465 198.106C170.301 198.325 170.137 198.543 169.973 198.762C169.098 200.129 168.169 201.359 167.185 202.452C166.201 203.545 165.435 204.557 164.889 205.486C164.615 205.869 163.959 206.607 162.921 207.7C161.882 208.739 160.625 209.969 159.149 211.39C157.727 212.757 156.279 214.151 154.803 215.572C153.327 216.993 151.987 218.278 150.785 219.426C149.582 220.519 148.707 221.312 148.161 221.804C147.177 222.843 146.329 223.444 145.619 223.608C144.908 223.827 143.842 223.991 142.421 224.1C141.382 223.225 140.644 222.46 140.207 221.804C139.824 221.148 139.605 220.629 139.551 220.246C139.496 219.863 139.469 219.672 139.469 219.672C139.687 218.961 139.824 218.497 139.879 218.278C139.933 218.005 140.043 217.813 140.207 217.704C140.371 217.54 140.699 217.267 141.191 216.884C141.628 216.611 142.339 216.091 143.323 215.326C144.307 214.506 145.345 213.604 146.439 212.62C147.587 211.581 148.625 210.652 149.555 209.832C150.484 209.012 151.058 208.493 151.277 208.274L155.541 204.01C156.033 203.463 156.525 202.944 157.017 202.452C157.509 201.905 157.973 201.359 158.411 200.812C158.903 200.265 159.395 199.746 159.887 199.254C158.739 198.817 157.673 198.325 156.689 197.778C155.705 197.231 154.994 196.685 154.557 196.138C152.807 194.17 151.741 192.011 151.359 189.66C150.976 187.309 150.949 185.068 151.277 182.936C151.659 180.804 152.124 179.082 152.671 177.77C153.272 176.13 153.901 174.873 154.557 173.998C155.213 173.123 155.869 172.413 156.525 171.866C157.181 171.265 157.837 170.581 158.493 169.816C159.641 168.613 160.761 167.629 161.855 166.864C163.003 166.099 164.424 165.388 166.119 164.732C167.813 164.076 170.027 163.283 172.761 162.354C172.815 162.354 173.089 162.327 173.581 162.272C174.127 162.217 174.811 162.163 175.631 162.108C176.505 161.999 177.407 161.917 178.337 161.862C179.266 161.753 180.168 161.698 181.043 161.698C181.644 161.917 182.136 162.108 182.519 162.272C182.956 162.436 183.284 162.573 183.503 162.682L185.553 161.944C187.575 162.163 188.778 162.764 189.161 163.748C189.543 164.732 189.817 165.935 189.981 167.356C189.161 169.379 188.45 171.101 187.849 172.522C187.302 173.889 186.783 175.173 186.291 176.376C185.853 177.579 185.389 178.891 184.897 180.312C184.405 181.679 183.831 183.346 183.175 185.314ZM174.237 188.758C174.51 187.993 174.756 187.255 174.975 186.544C175.248 185.779 175.521 185.013 175.795 184.248C176.068 183.483 176.341 182.717 176.615 181.952C176.888 181.187 177.134 180.449 177.353 179.738C177.626 178.973 177.899 178.207 178.173 177.442C178.501 176.349 178.774 175.474 178.993 174.818C179.266 174.107 179.567 173.342 179.895 172.522C180.223 171.647 180.605 170.472 181.043 168.996C180.66 168.887 180.059 168.859 179.239 168.914C178.419 168.969 177.407 169.133 176.205 169.406C173.854 169.843 171.531 170.663 169.235 171.866C166.993 173.014 164.998 174.408 163.249 176.048C161.554 177.633 160.324 179.301 159.559 181.05C159.121 182.143 158.766 183.182 158.493 184.166C158.219 185.15 158.11 186.189 158.165 187.282C158.165 188.539 158.329 189.469 158.657 190.07C158.985 190.617 159.285 191.437 159.559 192.53C159.613 192.585 159.969 192.639 160.625 192.694C161.335 192.749 161.855 192.749 162.183 192.694C163.495 192.257 164.752 191.847 165.955 191.464C167.212 191.081 168.415 190.535 169.563 189.824C170.437 189.387 171.23 189.141 171.941 189.086C172.706 189.031 173.389 189.141 173.991 189.414C174.045 189.305 174.073 189.195 174.073 189.086C174.127 188.977 174.182 188.867 174.237 188.758ZM204.737 239.106C204.519 239.106 204.191 239.106 203.753 239.106C203.371 239.161 203.043 238.942 202.769 238.45C202.551 238.177 202.223 237.63 201.785 236.81C201.348 236.045 201.266 234.951 201.539 233.53C201.813 232.601 202.031 231.671 202.195 230.742C202.359 229.867 202.441 229.211 202.441 228.774C202.441 228.555 202.496 228.118 202.605 227.462C202.769 226.861 202.851 226.423 202.851 226.15C203.125 225.713 203.343 225.111 203.507 224.346C203.671 223.581 203.753 222.897 203.753 222.296C203.753 221.64 204.081 221.039 204.737 220.492C204.737 220.055 204.819 219.508 204.983 218.852C205.202 218.196 205.311 217.759 205.311 217.54C205.475 216.775 205.831 215.435 206.377 213.522C206.979 211.554 207.689 209.34 208.509 206.88C209.384 204.42 210.231 202.015 211.051 199.664C211.871 197.313 212.609 195.318 213.265 193.678C213.921 192.147 214.468 190.726 214.905 189.414C215.343 188.102 215.561 187.173 215.561 186.626C215.561 186.407 215.616 186.243 215.725 186.134C215.835 185.97 216.081 185.669 216.463 185.232C217.01 184.685 217.721 184.494 218.595 184.658C219.525 184.767 220.29 185.041 220.891 185.478C221.329 186.189 221.629 186.845 221.793 187.446C222.012 187.993 222.012 188.867 221.793 190.07C221.793 190.89 221.602 191.655 221.219 192.366C220.837 193.022 220.481 193.569 220.153 194.006C219.88 194.389 219.798 194.553 219.907 194.498C222.313 193.022 224.472 192.229 226.385 192.12C228.353 191.956 229.993 192.284 231.305 193.104C232.672 193.869 233.711 194.935 234.421 196.302C235.132 197.669 235.487 199.145 235.487 200.73C235.487 201.386 235.269 202.261 234.831 203.354C234.394 204.447 233.902 205.486 233.355 206.47C232.809 207.399 232.371 208.028 232.043 208.356C231.825 208.356 231.606 208.547 231.387 208.93C231.169 209.258 230.95 209.641 230.731 210.078C230.294 210.625 229.556 211.253 228.517 211.964C227.533 212.62 226.522 213.167 225.483 213.604C224.445 213.987 223.707 214.096 223.269 213.932C223.269 213.932 223.187 213.987 223.023 214.096C222.914 214.205 222.859 214.397 222.859 214.67C222.859 214.779 222.477 214.998 221.711 215.326C220.946 215.654 220.044 215.955 219.005 216.228C217.967 216.501 217.01 216.638 216.135 216.638C214.987 216.638 214.167 216.419 213.675 215.982C213.566 216.091 213.429 216.255 213.265 216.474C213.156 216.693 213.101 216.884 213.101 217.048C213.101 217.376 212.965 217.895 212.691 218.606C212.473 219.317 212.199 219.945 211.871 220.492C211.543 221.093 211.243 221.394 210.969 221.394C210.969 221.394 210.915 221.476 210.805 221.64C210.696 221.804 210.751 222.023 210.969 222.296C210.969 222.296 210.942 222.597 210.887 223.198C210.887 223.854 210.751 224.401 210.477 224.838C210.477 225.275 210.395 225.931 210.231 226.806C210.067 227.681 209.876 228.337 209.657 228.774C209.657 229.43 209.548 230.059 209.329 230.66C209.165 231.316 208.974 231.644 208.755 231.644C208.537 231.699 208.4 232.027 208.345 232.628C208.291 233.284 208.263 233.749 208.263 234.022C208.209 235.389 207.771 236.564 206.951 237.548C206.131 238.587 205.393 239.106 204.737 239.106ZM215.233 210.406C215.671 210.406 216.463 210.215 217.611 209.832C218.759 209.449 219.962 208.985 221.219 208.438C222.477 207.837 223.461 207.235 224.171 206.634C225.593 205.377 226.686 204.147 227.451 202.944C228.271 201.741 228.217 200.402 227.287 198.926C226.85 198.161 226.139 197.86 225.155 198.024C224.226 198.133 223.187 198.571 222.039 199.336C220.891 200.101 219.716 201.058 218.513 202.206C217.857 202.917 217.256 203.737 216.709 204.666C216.163 205.595 215.698 206.497 215.315 207.372C214.987 208.247 214.796 208.985 214.741 209.586C214.687 210.133 214.851 210.406 215.233 210.406ZM240.894 218.278C240.675 217.841 240.183 217.403 239.418 216.966C238.707 216.529 238.352 216.201 238.352 215.982C238.352 215.763 238.215 215.435 237.942 214.998C237.723 214.506 237.504 214.151 237.286 213.932C237.012 213.604 237.094 212.811 237.532 211.554C237.969 210.242 238.625 208.657 239.5 206.798C240.374 204.939 241.331 203.053 242.37 201.14C242.807 200.703 243.244 200.129 243.682 199.418C244.119 198.707 244.447 198.243 244.666 198.024C244.666 197.805 244.748 197.614 244.912 197.45C245.076 197.231 245.267 197.122 245.486 197.122L246.142 195.81C246.251 195.591 246.579 195.154 247.126 194.498C247.727 193.842 248.438 193.131 249.258 192.366C250.078 191.546 250.898 190.781 251.718 190.07C252.592 189.359 253.303 188.84 253.85 188.512C254.998 187.747 256.173 187.391 257.376 187.446C258.633 187.501 259.699 187.883 260.574 188.594C260.738 188.758 261.093 189.086 261.64 189.578C262.241 190.07 262.897 190.617 263.608 191.218C264.373 191.819 265.029 192.366 265.576 192.858L268.61 195.564L267.216 199.664C266.505 201.851 266.314 203.764 266.642 205.404C266.97 207.044 267.489 208.465 268.2 209.668C268.473 210.269 268.828 210.734 269.266 211.062C269.758 211.39 270.386 211.609 271.152 211.718C271.589 211.773 271.999 211.937 272.382 212.21C272.764 212.483 272.956 212.921 272.956 213.522C272.956 214.834 272.71 215.791 272.218 216.392C271.78 216.939 271.288 217.267 270.742 217.376C268.938 217.595 267.216 217.403 265.576 216.802C263.936 216.201 262.46 214.643 261.148 212.128C260.929 211.8 260.628 211.199 260.246 210.324C259.918 209.395 259.726 208.793 259.672 208.52C259.453 208.793 259.152 209.149 258.77 209.586C258.442 209.969 258.114 210.324 257.786 210.652C253.904 214.588 250.57 217.157 247.782 218.36C245.048 219.508 242.752 219.481 240.894 218.278ZM245.404 211.472C245.786 211.527 246.388 211.335 247.208 210.898C248.028 210.406 249.121 209.613 250.488 208.52C252.346 206.935 253.877 205.623 255.08 204.584C256.282 203.545 257.458 202.206 258.606 200.566L260.41 197.614C259.863 196.357 259.371 195.537 258.934 195.154C258.496 194.771 258.059 194.58 257.622 194.58C256.911 194.58 256.064 195.045 255.08 195.974C254.096 196.849 252.975 198.161 251.718 199.91C250.515 201.605 249.148 203.737 247.618 206.306C246.907 207.509 246.36 208.684 245.978 209.832C245.595 210.925 245.404 211.472 245.404 211.472ZM284.623 219.344C283.421 219.344 282.519 219.289 281.917 219.18C281.371 219.071 280.961 218.907 280.687 218.688C280.414 218.469 280.059 218.169 279.621 217.786C279.403 217.349 279.02 216.802 278.473 216.146C277.927 215.435 277.544 214.971 277.325 214.752C277.107 213.932 277.025 212.811 277.079 211.39C277.189 209.969 277.435 208.438 277.817 206.798C278.2 205.158 278.665 203.682 279.211 202.37C279.43 201.933 279.621 201.495 279.785 201.058C279.949 200.621 280.031 200.402 280.031 200.402C280.031 200.129 280.359 199.473 281.015 198.434C281.726 197.395 282.491 196.302 283.311 195.154C284.186 194.006 284.897 193.186 285.443 192.694C285.826 192.257 286.4 191.792 287.165 191.3C287.985 190.808 288.696 190.453 289.297 190.234C289.899 190.015 290.719 189.742 291.757 189.414C292.796 189.031 293.725 188.84 294.545 188.84C295.311 188.84 296.131 189.004 297.005 189.332C297.88 189.66 298.618 190.234 299.219 191.054C300.203 192.038 300.832 193.213 301.105 194.58C301.379 195.947 301.406 197.122 301.187 198.106C300.914 199.199 300.367 200.101 299.547 200.812C298.727 201.468 297.853 201.823 296.923 201.878C295.994 201.878 295.174 201.495 294.463 200.73C294.245 200.293 294.135 199.937 294.135 199.664C294.135 199.336 294.245 198.871 294.463 198.27C294.682 197.505 294.791 196.821 294.791 196.22C294.791 195.619 294.545 195.318 294.053 195.318C293.343 195.318 292.769 195.537 292.331 195.974C291.894 196.357 291.238 197.013 290.363 197.942C289.981 198.379 289.489 199.008 288.887 199.828C288.286 200.648 287.685 201.55 287.083 202.534C286.537 203.463 286.045 204.42 285.607 205.404C285.006 207.208 284.623 208.383 284.459 208.93C284.35 209.422 284.295 209.668 284.295 209.668C284.295 209.887 284.268 210.105 284.213 210.324C284.159 210.488 284.131 210.679 284.131 210.898C284.131 211.554 284.514 212.073 285.279 212.456C285.881 212.839 286.373 213.03 286.755 213.03C287.193 212.975 288.013 212.675 289.215 212.128C290.09 211.691 290.91 211.117 291.675 210.406C292.495 209.695 293.343 209.067 294.217 208.52C294.819 208.137 295.283 207.809 295.611 207.536C295.994 207.263 296.185 207.235 296.185 207.454C296.185 207.673 296.267 207.782 296.431 207.782C296.595 207.782 296.787 207.673 297.005 207.454C297.333 207.017 297.743 206.853 298.235 206.962C298.727 207.017 299.165 207.153 299.547 207.372C299.985 207.591 300.203 207.782 300.203 207.946C300.094 208.438 300.203 208.848 300.531 209.176C300.531 209.395 300.449 209.695 300.285 210.078C300.176 210.406 300.012 210.679 299.793 210.898C299.52 211.281 299.11 211.827 298.563 212.538C298.071 213.249 297.607 213.877 297.169 214.424C296.732 214.971 296.513 215.244 296.513 215.244C296.295 215.189 296.076 215.244 295.857 215.408C295.693 215.572 295.502 215.763 295.283 215.982C294.846 216.365 294.436 216.665 294.053 216.884C293.671 217.048 293.37 217.13 293.151 217.13C292.769 217.349 292.468 217.485 292.249 217.54C292.085 217.595 292.003 217.731 292.003 217.95C291.457 218.497 290.473 218.879 289.051 219.098C287.63 219.262 286.154 219.344 284.623 219.344ZM320.684 219.262C319.973 219.59 319.153 219.727 318.224 219.672C317.295 219.617 316.037 219.317 314.452 218.77C314.343 218.77 313.96 218.524 313.304 218.032C312.648 217.54 311.992 216.966 311.336 216.31C310.68 215.654 310.243 215.107 310.024 214.67C309.149 213.413 308.876 211.554 309.204 209.094C309.587 206.634 310.461 203.682 311.828 200.238C312.211 199.418 312.785 198.379 313.55 197.122C314.37 195.865 315.163 194.717 315.928 193.678C316.748 192.585 317.322 191.956 317.65 191.792C317.65 191.792 317.951 191.683 318.552 191.464C319.153 191.245 319.919 190.89 320.848 190.398C321.121 190.289 321.586 190.152 322.242 189.988C322.953 189.824 323.663 189.687 324.374 189.578C325.139 189.414 325.659 189.359 325.932 189.414C327.025 189.469 328.146 189.879 329.294 190.644C330.497 191.355 331.481 192.202 332.246 193.186C333.011 194.115 333.257 194.935 332.984 195.646C332.984 195.755 332.82 196.111 332.492 196.712C332.219 197.259 331.918 197.833 331.59 198.434C331.262 198.981 330.989 199.391 330.77 199.664C330.497 199.992 330.005 200.129 329.294 200.074C328.638 200.019 328.037 199.801 327.49 199.418C326.943 199.035 326.643 198.516 326.588 197.86C326.479 197.423 326.069 197.013 325.358 196.63C324.702 196.247 324.374 196.056 324.374 196.056C323.937 196.056 323.363 196.493 322.652 197.368C321.941 198.243 321.203 199.227 320.438 200.32C319.454 201.304 318.743 202.37 318.306 203.518C317.923 204.611 317.65 205.65 317.486 206.634C317.377 207.563 317.24 208.274 317.076 208.766C316.857 209.313 316.857 209.996 317.076 210.816C317.295 211.636 317.568 212.101 317.896 212.21C318.388 212.265 319.044 212.237 319.864 212.128C320.739 211.964 321.641 211.773 322.57 211.554C323.554 211.281 324.538 211.007 325.522 210.734C326.506 210.406 327.381 210.078 328.146 209.75C329.185 209.094 330.087 208.848 330.852 209.012C331.617 209.121 332.191 209.231 332.574 209.34C333.175 209.559 333.476 210.023 333.476 210.734C333.476 211.445 333.23 212.21 332.738 213.03C332.246 213.795 331.535 214.424 330.606 214.916C329.731 215.353 328.939 215.845 328.228 216.392C327.572 216.884 327.244 217.267 327.244 217.54C327.025 217.54 326.779 217.622 326.506 217.786C326.287 217.895 326.096 217.923 325.932 217.868C325.823 217.868 325.385 217.95 324.62 218.114C323.855 218.278 323.062 218.469 322.242 218.688C321.477 218.907 320.957 219.098 320.684 219.262ZM360.476 219.754C359.547 219.426 358.7 218.934 357.934 218.278C357.169 217.622 356.458 216.939 355.802 216.228C355.584 215.955 355.256 215.381 354.818 214.506C354.436 213.577 353.971 212.538 353.424 211.39C352.932 210.187 352.413 208.985 351.866 207.782C351.374 206.579 350.91 205.513 350.472 204.584C350.199 205.295 349.953 206.005 349.734 206.716C349.57 207.372 349.488 208.028 349.488 208.684C348.996 209.559 348.559 210.652 348.176 211.964C347.848 213.221 347.602 214.069 347.438 214.506C347.274 215.217 346.946 215.9 346.454 216.556C346.017 217.157 345.498 217.677 344.896 218.114C343.748 218.169 342.901 218.087 342.354 217.868C341.862 217.595 341.234 216.993 340.468 216.064C340.031 215.135 339.812 214.287 339.812 213.522C339.867 212.702 340.004 211.964 340.222 211.308C340.332 210.816 340.632 209.859 341.124 208.438C341.671 206.962 342.272 205.377 342.928 203.682C343.584 201.933 344.131 200.402 344.568 199.09C345.06 197.723 345.334 196.931 345.388 196.712C345.771 195.455 346.372 194.225 347.192 193.022C348.012 191.765 348.559 190.453 348.832 189.086C349.051 188.102 349.516 187.391 350.226 186.954C350.937 186.462 351.702 186.271 352.522 186.38C353.342 186.435 353.998 186.845 354.49 187.61C354.709 187.665 354.9 187.747 355.064 187.856C355.283 187.911 355.474 188.075 355.638 188.348C356.185 188.949 356.513 189.687 356.622 190.562C356.786 191.437 356.622 192.284 356.13 193.104C355.529 194.197 355.01 195.099 354.572 195.81C354.19 196.521 353.807 197.204 353.424 197.86C353.096 198.516 352.741 199.309 352.358 200.238C352.905 200.129 353.397 200.047 353.834 199.992C354.272 199.883 354.654 199.746 354.982 199.582C355.365 199.363 355.748 199.035 356.13 198.598C356.458 198.27 357.032 197.723 357.852 196.958C358.672 196.138 359.547 195.291 360.476 194.416C361.46 193.487 362.28 192.694 362.936 192.038C363.647 191.327 364.03 190.945 364.084 190.89C364.467 190.398 364.877 189.879 365.314 189.332C365.806 188.731 366.435 188.321 367.2 188.102C368.184 188.157 368.977 188.293 369.578 188.512C370.234 188.731 370.672 189.113 370.89 189.66C371.546 190.316 371.71 191.245 371.382 192.448C371.109 193.651 370.617 194.553 369.906 195.154C368.977 195.865 367.802 196.794 366.38 197.942C365.014 199.035 363.565 200.211 362.034 201.468C360.504 202.671 358.973 203.819 357.442 204.912C358.044 205.951 358.59 206.962 359.082 207.946C359.574 208.875 360.012 209.668 360.394 210.324C360.996 211.199 361.433 211.882 361.706 212.374C361.98 212.811 362.8 213.03 364.166 213.03C365.15 213.467 365.779 213.905 366.052 214.342C366.326 214.779 366.462 215.217 366.462 215.654C366.462 216.037 366.49 216.447 366.544 216.884C366.435 217.431 366.134 218.032 365.642 218.688C365.205 219.289 364.549 219.727 363.674 220C362.8 220.328 361.734 220.246 360.476 219.754ZM381.672 218.852C381.235 218.961 380.661 219.016 379.95 219.016C379.24 218.961 378.611 218.879 378.064 218.77C377.572 218.606 377.326 218.442 377.326 218.278C377.326 218.005 377.19 217.868 376.916 217.868C376.916 217.868 376.616 217.649 376.014 217.212C375.413 216.72 374.866 216.365 374.374 216.146C373.882 215.381 373.554 214.506 373.39 213.522C373.281 212.483 373.609 210.679 374.374 208.11C374.429 206.361 374.921 204.529 375.85 202.616C376.78 200.648 377.955 198.735 379.376 196.876C380.798 195.017 382.274 193.377 383.804 191.956C385.335 190.48 386.702 189.387 387.904 188.676C388.67 187.911 389.681 187.501 390.938 187.446C392.25 187.391 393.398 187.637 394.382 188.184C394.929 188.457 395.53 189.004 396.186 189.824C396.842 190.644 397.471 191.519 398.072 192.448C398.674 193.323 399.138 194.115 399.466 194.826C399.63 195.427 399.767 195.974 399.876 196.466C400.04 196.903 400.15 197.45 400.204 198.106C400.259 198.762 400.204 199.746 400.04 201.058C399.767 202.042 399.521 203.053 399.302 204.092C399.138 205.076 399.056 206.087 399.056 207.126C398.947 208.165 399.056 208.903 399.384 209.34C399.767 209.777 400.314 209.805 401.024 209.422C401.68 209.094 402.364 209.067 403.074 209.34C403.785 209.559 404.277 209.996 404.55 210.652C404.878 211.253 404.796 212.046 404.304 213.03C403.976 213.741 403.457 214.424 402.746 215.08C402.036 215.736 401.243 216.283 400.368 216.72C399.494 217.103 398.646 217.294 397.826 217.294C397.225 217.294 396.624 217.075 396.022 216.638C395.421 216.146 394.874 215.49 394.382 214.67C393.89 213.85 393.48 212.948 393.152 211.964L392.66 210.078L389.708 212.784C388.998 213.549 388.287 214.26 387.576 214.916C386.92 215.517 386.51 215.955 386.346 216.228C386.073 216.72 385.526 217.157 384.706 217.54C383.941 217.923 382.93 218.36 381.672 218.852ZM383.886 210.98C384.816 210.433 385.608 209.777 386.264 209.012C386.975 208.247 387.658 207.399 388.314 206.47C388.97 205.486 389.681 204.447 390.446 203.354C391.376 202.097 392.032 201.085 392.414 200.32C392.852 199.555 393.18 198.735 393.398 197.86C393.18 197.259 392.879 196.63 392.496 195.974C392.114 195.263 391.731 194.881 391.348 194.826C390.583 194.826 389.654 195.291 388.56 196.22C387.522 197.149 386.374 198.489 385.116 200.238C384.898 200.511 384.624 200.949 384.296 201.55C383.968 202.151 383.64 202.725 383.312 203.272C383.039 203.764 382.848 204.092 382.738 204.256C382.574 204.475 382.328 204.994 382 205.814C381.727 206.579 381.481 207.372 381.262 208.192C381.044 208.957 380.934 209.504 380.934 209.832C380.934 210.16 380.962 210.515 381.016 210.898C381.126 211.281 381.399 211.527 381.836 211.636C382.274 211.745 382.957 211.527 383.886 210.98ZM409.587 221.558C409.314 221.449 409.013 221.339 408.685 221.23C408.412 221.175 408.139 221.121 407.865 221.066C407.592 220.629 407.127 220.219 406.471 219.836C405.815 219.399 405.351 218.907 405.077 218.36C404.531 217.431 404.421 216.72 404.749 216.228C405.077 215.681 405.542 215.162 406.143 214.67C406.745 214.178 407.155 213.577 407.373 212.866C407.811 212.702 408.494 212.292 409.423 211.636C410.353 210.98 411.364 210.187 412.457 209.258C413.551 208.329 414.644 207.399 415.737 206.47C416.831 205.486 417.815 204.584 418.689 203.764C419.619 202.889 420.275 202.233 420.657 201.796C420.603 201.687 420.548 201.605 420.493 201.55C420.493 201.441 420.466 201.359 420.411 201.304C419.974 200.375 419.455 199.5 418.853 198.68C418.252 197.805 417.623 196.958 416.967 196.138C416.366 195.318 415.792 194.498 415.245 193.678C414.863 193.077 414.535 192.421 414.261 191.71C414.043 190.999 413.797 190.371 413.523 189.824C413.797 189.387 413.988 188.977 414.097 188.594C414.261 188.211 414.371 187.829 414.425 187.446C415.683 187.391 416.749 187.528 417.623 187.856C418.498 188.184 419.236 188.621 419.837 189.168C420.548 189.769 421.149 190.48 421.641 191.3C422.188 192.065 422.68 192.885 423.117 193.76C423.609 194.58 424.129 195.427 424.675 196.302C425.222 197.122 425.878 197.915 426.643 198.68C427.081 197.368 427.436 196.083 427.709 194.826C428.037 193.569 428.311 192.339 428.529 191.136C428.748 189.933 428.885 188.785 428.939 187.692C429.213 187.364 429.486 187.036 429.759 186.708C430.087 186.38 430.388 186.052 430.661 185.724C431.919 186.052 432.793 186.435 433.285 186.872C433.832 187.309 434.625 187.747 435.663 188.184C435.663 190.371 435.417 192.448 434.925 194.416C434.433 196.329 433.969 198.325 433.531 200.402C433.641 200.457 433.723 200.511 433.777 200.566C433.832 200.621 433.887 200.675 433.941 200.73C434.652 200.238 435.335 199.746 435.991 199.254C436.647 198.707 437.303 198.188 437.959 197.696C438.615 197.149 439.271 196.63 439.927 196.138C441.349 194.99 442.743 193.815 444.109 192.612C445.531 191.409 446.733 190.07 447.717 188.594C448.1 188.594 448.483 188.621 448.865 188.676C449.248 188.676 449.631 188.676 450.013 188.676C450.615 189.059 451.161 189.523 451.653 190.07C452.145 190.617 452.583 191.163 452.965 191.71C452.911 192.311 452.801 192.858 452.637 193.35C452.528 193.842 452.255 194.307 451.817 194.744C450.396 196.275 448.838 197.669 447.143 198.926C445.449 200.183 443.809 201.468 442.223 202.78C441.567 203.327 440.829 203.791 440.009 204.174C439.244 204.557 438.561 205.158 437.959 205.978C438.889 206.634 439.9 207.454 440.993 208.438C442.141 209.422 443.235 210.461 444.273 211.554C445.367 212.593 446.241 213.577 446.897 214.506C447.553 215.49 447.772 216.392 447.553 217.212C447.389 217.977 446.952 218.606 446.241 219.098C445.585 219.59 444.82 219.863 443.945 219.918C443.071 219.973 442.278 219.727 441.567 219.18C440.857 218.579 440.201 217.95 439.599 217.294C439.053 216.638 438.479 215.955 437.877 215.244C436.839 214.096 435.773 212.975 434.679 211.882C433.641 210.734 432.547 209.641 431.399 208.602C431.345 208.602 431.29 208.629 431.235 208.684C431.181 208.684 431.099 208.684 430.989 208.684C430.552 209.887 430.169 211.089 429.841 212.292C429.568 213.44 429.322 214.561 429.103 215.654C428.939 216.693 428.557 217.54 427.955 218.196C427.409 218.852 426.589 219.399 425.495 219.836C424.949 219.453 424.375 219.098 423.773 218.77C423.172 218.387 422.625 217.95 422.133 217.458C421.805 217.13 421.669 216.529 421.723 215.654C421.778 214.779 421.942 213.823 422.215 212.784C422.489 211.745 422.762 210.789 423.035 209.914C423.363 208.985 423.637 208.301 423.855 207.864C422.598 209.067 421.505 210.078 420.575 210.898C419.646 211.718 418.799 212.429 418.033 213.03C417.323 213.631 416.667 214.205 416.065 214.752C415.519 215.299 414.945 215.873 414.343 216.474C413.633 217.294 412.922 218.141 412.211 219.016C411.501 219.836 410.626 220.683 409.587 221.558ZM459.168 239.516C458.949 239.571 458.621 239.489 458.184 239.27C457.801 239.051 457.473 238.669 457.2 238.122C456.927 237.575 456.845 236.865 456.954 235.99C456.735 235.225 456.763 234.268 457.036 233.12C457.364 232.027 458.047 230.387 459.086 228.2C459.633 227.325 460.125 226.287 460.562 225.084C461.054 223.881 461.601 222.679 462.202 221.476C462.475 220.984 462.94 220.137 463.596 218.934C464.307 217.731 465.072 216.31 465.892 214.67C466.767 212.975 467.559 211.226 468.27 209.422C466.849 210.898 465.619 212.292 464.58 213.604C463.596 214.861 462.694 215.873 461.874 216.638C461.109 217.349 460.289 217.677 459.414 217.622C458.703 217.458 457.856 216.993 456.872 216.228C455.888 215.463 455.259 214.615 454.986 213.686C454.767 212.483 454.685 210.953 454.74 209.094C454.849 207.235 455.205 204.42 455.806 200.648C456.243 198.789 456.435 197.368 456.38 196.384C456.38 195.345 456.243 194.58 455.97 194.088C455.697 193.596 455.341 193.159 454.904 192.776C454.193 192.12 454.139 191.409 454.74 190.644C455.341 189.879 456.025 189.305 456.79 188.922C457.938 188.649 458.84 188.594 459.496 188.758C460.207 188.867 460.917 189.332 461.628 190.152C462.065 190.863 462.503 191.628 462.94 192.448C463.377 193.268 463.596 194.443 463.596 195.974C463.596 196.63 463.569 197.368 463.514 198.188C463.459 198.953 463.405 199.664 463.35 200.32C463.295 200.976 463.241 201.495 463.186 201.878C462.639 203.901 462.147 205.65 461.71 207.126C461.273 208.602 461.191 209.34 461.464 209.34C462.557 208.465 463.487 207.618 464.252 206.798C465.072 205.978 465.947 204.994 466.876 203.846C467.805 202.698 468.953 201.195 470.32 199.336C470.812 198.407 471.304 197.505 471.796 196.63C472.288 195.755 472.698 194.853 473.026 193.924C473.354 193.213 473.791 192.475 474.338 191.71C474.885 190.89 475.267 190.453 475.486 190.398C475.759 190.289 476.142 190.316 476.634 190.48C477.126 190.644 477.591 190.835 478.028 191.054C478.52 191.218 478.766 191.355 478.766 191.464C478.821 191.519 479.094 191.573 479.586 191.628C480.078 191.683 480.57 191.737 481.062 191.792C481.554 191.792 481.8 191.874 481.8 192.038C481.8 192.147 481.636 192.557 481.308 193.268C481.035 193.979 480.707 194.771 480.324 195.646C479.941 196.521 479.586 197.313 479.258 198.024C478.985 198.68 478.875 199.063 478.93 199.172C479.039 199.281 478.957 199.691 478.684 200.402C478.411 201.058 478.083 201.796 477.7 202.616C477.372 203.436 477.071 204.174 476.798 204.83C476.251 206.634 475.623 208.438 474.912 210.242C474.201 211.991 473.354 213.741 472.37 215.49C472.042 216.146 471.55 217.157 470.894 218.524C470.293 219.891 469.691 221.23 469.09 222.542C468.543 223.909 468.106 224.947 467.778 225.658C467.559 226.095 467.231 226.779 466.794 227.708C466.411 228.692 465.974 229.758 465.482 230.906C465.045 232.054 464.607 233.12 464.17 234.104C463.733 235.143 463.405 235.935 463.186 236.482C463.077 237.521 462.831 238.286 462.448 238.778C461.956 239.27 461.273 239.516 460.398 239.516C459.578 239.516 459.168 239.516 459.168 239.516ZM507.713 217.294C506.674 216.857 505.827 216.201 505.171 215.326C504.569 214.397 504.269 213.276 504.269 211.964C504.269 211.417 504.378 210.488 504.597 209.176C504.815 207.864 505.116 206.388 505.499 204.748C505.881 203.108 506.264 201.577 506.647 200.156C507.193 199.172 507.549 198.188 507.713 197.204C507.931 196.22 508.041 195.619 508.041 195.4C508.15 194.744 508.341 193.869 508.615 192.776C508.888 191.683 509.161 190.699 509.435 189.824C509.763 188.895 509.981 188.375 510.091 188.266C510.364 187.993 510.829 187.829 511.485 187.774C512.141 187.719 512.797 187.801 513.453 188.02C514.109 188.184 514.546 188.539 514.765 189.086C515.366 189.742 515.694 190.726 515.749 192.038C515.858 193.35 515.612 194.881 515.011 196.63C514.519 197.723 514.027 199.008 513.535 200.484C513.043 201.96 512.605 203.327 512.223 204.584C511.895 205.787 511.703 206.607 511.649 207.044L508.697 206.962C509.626 206.087 510.501 205.185 511.321 204.256C512.141 203.272 512.742 202.507 513.125 201.96C514.054 200.703 514.847 199.664 515.503 198.844C516.213 197.969 517.115 196.931 518.209 195.728C519.302 194.471 520.477 193.596 521.735 193.104C522.992 192.557 523.921 192.284 524.523 192.284C525.725 192.503 526.791 193.131 527.721 194.17C528.705 195.154 529.306 196.63 529.525 198.598C529.525 199.363 529.443 200.265 529.279 201.304C529.169 202.343 529.115 202.862 529.115 202.862C529.115 202.862 529.552 202.315 530.427 201.222C531.356 200.129 532.586 198.899 534.117 197.532C535.155 196.767 536.167 196.329 537.151 196.22C538.135 196.056 539.009 196.384 539.775 197.204C541.196 197.969 542.235 199.309 542.891 201.222C543.547 203.135 543.765 205.295 543.547 207.7C543.383 209.121 543.383 210.269 543.547 211.144C543.765 211.964 543.984 212.702 544.203 213.358C544.913 214.342 545.023 215.217 544.531 215.982C544.039 216.693 543.601 217.048 543.219 217.048C542.672 217.048 541.852 216.939 540.759 216.72C539.665 216.501 538.654 216.119 537.725 215.572C536.85 215.025 536.413 214.287 536.413 213.358V208.274C536.413 207.071 536.358 206.197 536.249 205.65C536.194 205.049 536.057 204.666 535.839 204.502C535.237 204.174 534.499 204.42 533.625 205.24C532.75 206.06 531.793 207.235 530.755 208.766C529.771 210.242 528.705 211.909 527.557 213.768C526.518 215.463 525.671 216.501 525.015 216.884C524.359 217.212 523.73 217.185 523.129 216.802C521.926 216.419 521.161 215.9 520.833 215.244C520.559 214.533 520.532 213.741 520.751 212.866C521.024 211.937 521.352 210.734 521.735 209.258C522.172 207.782 522.582 206.361 522.965 204.994C523.347 203.573 523.593 202.534 523.703 201.878C523.484 201.441 523.101 201.304 522.555 201.468C522.063 201.577 521.543 201.823 520.997 202.206C520.341 202.643 519.63 203.108 518.865 203.6C518.154 204.092 517.307 205.131 516.323 206.716C515.667 207.755 514.929 208.903 514.109 210.16C513.289 211.363 512.523 212.456 511.813 213.44C511.157 214.424 510.61 215.107 510.173 215.49C509.79 216.474 509.435 217.103 509.107 217.376C508.779 217.595 508.314 217.567 507.713 217.294ZM568.097 218.36C566.457 219.289 564.708 219.836 562.849 220C561.045 220.109 559.351 219.863 557.765 219.262C556.18 218.606 554.895 217.649 553.911 216.392C553.365 215.681 552.845 214.561 552.353 213.03C551.861 211.445 551.779 209.313 552.107 206.634C552.435 204.119 553.201 201.577 554.403 199.008C555.661 196.439 557.191 194.17 558.995 192.202C560.799 190.234 562.767 188.895 564.899 188.184C565.665 187.911 566.43 187.719 567.195 187.61C568.015 187.446 569.081 187.419 570.393 187.528C571.651 187.692 572.771 188.02 573.755 188.512C574.739 188.949 575.45 189.441 575.887 189.988C576.762 190.863 577.336 191.71 577.609 192.53C577.883 193.35 577.992 194.143 577.937 194.908C577.664 196.657 576.871 198.543 575.559 200.566C574.302 202.589 572.525 204.092 570.229 205.076C569.3 205.459 568.207 205.705 566.949 205.814C565.692 205.923 563.97 205.759 561.783 205.322C560.471 205.049 559.597 205.185 559.159 205.732C558.777 206.279 558.613 207.345 558.667 208.93C558.777 209.914 558.995 210.789 559.323 211.554C559.706 212.265 560.389 212.757 561.373 213.03C562.631 213.249 563.533 213.276 564.079 213.112C564.626 212.893 565.309 212.593 566.129 212.21C566.567 211.937 566.977 211.636 567.359 211.308C567.797 210.98 568.207 210.652 568.589 210.324C569.027 209.996 569.382 209.75 569.655 209.586C569.929 209.367 570.202 209.231 570.475 209.176C570.749 209.121 571.022 209.094 571.295 209.094C571.897 209.149 572.471 209.477 573.017 210.078C573.564 210.679 573.919 211.253 574.083 211.8C574.083 212.237 573.81 212.866 573.263 213.686C572.717 214.451 571.979 215.271 571.049 216.146C570.175 216.966 569.191 217.704 568.097 218.36ZM567.031 200.074C567.414 199.91 567.961 199.527 568.671 198.926C569.437 198.325 570.12 197.696 570.721 197.04C571.323 196.329 571.623 195.783 571.623 195.4C571.623 194.799 571.213 194.279 570.393 193.842C569.628 193.405 568.617 193.323 567.359 193.596C566.922 193.705 566.403 194.006 565.801 194.498C565.2 194.99 564.599 195.564 563.997 196.22C563.396 196.821 562.877 197.423 562.439 198.024C562.002 198.571 561.701 199.008 561.537 199.336C561.756 199.609 562.193 199.828 562.849 199.992C563.505 200.156 564.216 200.238 564.981 200.238C565.801 200.238 566.485 200.183 567.031 200.074ZM587.284 220.738C586.956 220.519 586.409 220.273 585.644 220C584.933 219.727 584.223 219.453 583.512 219.18C582.801 218.852 582.255 218.524 581.872 218.196C580.615 216.993 579.74 215.736 579.248 214.424C578.811 213.057 578.592 211.773 578.592 210.57C578.647 209.367 578.756 208.356 578.92 207.536C579.084 206.661 579.166 206.142 579.166 205.978C579.111 205.322 579.221 204.721 579.494 204.174C579.767 203.627 579.986 203.163 580.15 202.78C581.189 200.812 582.145 199.09 583.02 197.614C583.895 196.138 585.179 194.471 586.874 192.612C587.366 192.175 587.885 191.792 588.432 191.464C588.979 191.136 589.58 191.027 590.236 191.136L592.122 192.53C592.614 193.077 592.887 193.623 592.942 194.17C593.051 194.717 592.997 195.318 592.778 195.974C592.669 196.357 592.532 196.767 592.368 197.204C592.204 197.641 591.985 198.024 591.712 198.352C590.783 199.227 590.017 200.238 589.416 201.386C588.869 202.479 588.35 203.491 587.858 204.42C587.639 204.967 587.393 205.431 587.12 205.814C586.847 206.142 586.573 206.525 586.3 206.962C586.136 207.235 585.945 207.536 585.726 207.864C585.562 208.192 585.425 208.575 585.316 209.012C585.152 210.051 585.07 210.734 585.07 211.062C585.07 211.39 585.125 211.855 585.234 212.456C585.671 212.675 586.327 212.757 587.202 212.702C588.077 212.647 588.623 212.511 588.842 212.292C589.881 211.417 590.591 210.707 590.974 210.16C591.411 209.559 591.767 208.93 592.04 208.274C592.313 207.563 592.723 206.661 593.27 205.568C593.707 204.803 594.09 203.791 594.418 202.534C594.801 201.277 595.101 200.047 595.32 198.844C595.539 197.641 595.566 196.849 595.402 196.466C595.347 196.029 595.32 195.482 595.32 194.826C595.32 194.17 595.32 193.541 595.32 192.94C595.32 192.667 595.293 192.393 595.238 192.12C595.183 191.847 595.129 191.546 595.074 191.218C595.019 190.835 594.937 190.48 594.828 190.152C594.609 187.856 594.445 185.943 594.336 184.412C594.281 182.881 594.281 181.515 594.336 180.312C594.445 179.109 594.609 177.825 594.828 176.458C595.047 175.638 595.484 174.791 596.14 173.916C596.851 172.987 597.479 172.303 598.026 171.866C599.01 170.991 600.377 170.281 602.126 169.734C603.875 169.187 605.433 168.969 606.8 169.078C607.183 169.023 607.675 168.996 608.276 168.996C608.877 168.996 609.506 168.996 610.162 168.996C610.873 168.941 611.529 168.914 612.13 168.914C612.622 168.805 613.032 168.723 613.36 168.668C613.743 168.559 614.371 168.231 615.246 167.684C616.339 167.083 617.296 167.001 618.116 167.438L620.248 170.472C620.193 171.784 619.674 172.85 618.69 173.67C617.761 174.435 616.175 174.955 613.934 175.228C613.551 175.228 613.196 175.201 612.868 175.146C612.54 175.091 612.239 175.119 611.966 175.228C611.583 175.392 611.146 175.419 610.654 175.31C610.162 175.201 609.861 175.146 609.752 175.146C609.205 175.146 608.577 175.228 607.866 175.392C607.155 175.501 606.39 175.474 605.57 175.31C603.602 175.911 602.29 176.895 601.634 178.262C601.033 179.629 600.732 180.941 600.732 182.198C600.841 183.565 601.06 185.068 601.388 186.708C601.771 188.348 602.044 190.316 602.208 192.612C602.208 192.995 602.208 193.377 602.208 193.76C602.263 194.088 602.29 194.443 602.29 194.826C602.673 196.466 602.809 197.942 602.7 199.254C602.591 200.511 602.399 201.386 602.126 201.878C602.071 202.151 602.017 202.835 601.962 203.928C601.962 204.967 601.661 206.087 601.06 207.29C599.748 209.914 598.381 212.292 596.96 214.424C595.593 216.501 593.871 218.251 591.794 219.672C591.138 220.109 590.482 220.41 589.826 220.574C589.17 220.738 588.323 220.793 587.284 220.738ZM618.719 221.476C615.712 221.476 613.389 220.601 611.749 218.852C610.164 217.103 609.371 214.424 609.371 210.816C609.371 208.848 609.726 206.689 610.437 204.338C611.202 201.987 612.186 199.691 613.389 197.45C614.646 195.209 616.013 193.268 617.489 191.628C618.965 189.933 620.441 188.758 621.917 188.102C622.464 187.829 623.038 187.637 623.639 187.528C624.295 187.364 624.924 187.282 625.525 187.282C626.181 187.282 626.892 187.337 627.657 187.446C628.477 187.501 629.242 187.665 629.953 187.938C631.21 188.321 632.304 189.059 633.233 190.152C634.217 191.245 634.709 192.831 634.709 194.908C634.709 195.455 634.654 196.056 634.545 196.712C634.436 197.313 634.244 197.915 633.971 198.516C633.26 200.32 632.167 202.042 630.691 203.682C629.27 205.322 627.766 206.47 626.181 207.126C625.744 207.345 625.306 207.509 624.869 207.618C624.486 207.673 624.076 207.7 623.639 207.7C622.491 207.7 621.452 207.536 620.523 207.208C619.648 206.88 618.828 206.443 618.063 205.896L617.407 205.322L616.997 206.142C616.614 207.181 616.341 208.055 616.177 208.766C616.068 209.477 616.013 209.996 616.013 210.324C616.013 210.98 616.04 211.663 616.095 212.374C616.15 213.03 616.314 213.577 616.587 214.014C616.806 214.287 617.079 214.506 617.407 214.67C617.79 214.834 618.254 214.916 618.801 214.916C619.129 214.916 619.43 214.916 619.703 214.916C620.031 214.861 620.304 214.807 620.523 214.752C621.507 214.533 622.3 214.178 622.901 213.686C623.557 213.139 624.24 212.675 624.951 212.292L625.279 212.128L625.197 211.882C626.126 211.39 626.755 211.089 627.083 210.98C627.411 210.816 627.657 210.679 627.821 210.57C628.04 210.351 628.286 210.242 628.559 210.242C629.324 210.133 630.062 210.351 630.773 210.898C631.538 211.39 631.921 212.019 631.921 212.784C631.921 213.112 631.675 213.631 631.183 214.342C630.746 215.053 630.172 215.763 629.461 216.474C628.805 217.13 628.122 217.649 627.411 218.032C627.247 218.087 627.083 218.169 626.919 218.278C626.755 218.333 626.591 218.415 626.427 218.524H626.509C626.017 219.18 625.525 219.508 625.033 219.508H624.377C624.158 219.891 623.448 220.301 622.245 220.738C621.042 221.23 619.867 221.476 618.719 221.476ZM622.983 201.714C623.475 201.714 623.912 201.632 624.295 201.468C624.732 201.304 625.142 201.113 625.525 200.894C626.837 199.965 627.684 198.762 628.067 197.286C628.45 195.81 628.313 194.689 627.657 193.924C627.548 193.76 627.411 193.651 627.247 193.596C627.083 193.487 626.892 193.432 626.673 193.432C626.072 193.432 625.388 193.623 624.623 194.006C623.912 194.389 623.202 194.935 622.491 195.646C621.78 196.357 621.124 197.204 620.523 198.188L619.457 199.91C619.566 199.855 619.648 199.828 619.703 199.828C619.812 199.773 619.894 199.746 619.949 199.746C620.441 199.746 620.769 199.91 620.933 200.238C621.097 200.566 621.288 200.894 621.507 201.222C621.78 201.55 622.272 201.714 622.983 201.714ZM634.986 227.052C634.384 227.052 633.865 226.915 633.428 226.642C633.045 226.369 632.744 226.041 632.526 225.658C632.526 225.275 632.635 224.947 632.854 224.674C633.072 224.401 633.373 224.073 633.756 223.69C634.357 223.143 634.931 222.46 635.478 221.64C636.024 220.875 636.516 220.082 636.954 219.262C637.446 218.442 637.828 217.786 638.102 217.294C638.32 216.693 638.539 215.982 638.758 215.162C638.976 214.342 639.195 213.44 639.414 212.456C639.414 212.019 639.414 211.636 639.414 211.308C639.468 210.925 639.605 210.625 639.824 210.406C640.261 210.023 640.78 209.695 641.382 209.422C642.038 209.094 642.666 209.203 643.268 209.75C643.924 210.242 644.416 211.527 644.744 213.604C644.962 214.807 644.962 215.9 644.744 216.884C644.525 217.868 644.06 219.071 643.35 220.492C643.24 220.875 642.83 221.503 642.12 222.378C641.464 223.253 640.78 224.045 640.07 224.756C639.414 225.521 639.004 225.904 638.84 225.904C638.621 225.904 638.43 225.959 638.266 226.068C638.102 226.232 637.883 226.423 637.61 226.642C637.391 226.861 637.063 226.97 636.626 226.97C636.188 227.025 635.642 227.052 634.986 227.052ZM172.103 323C171.338 322.672 170.682 322.317 170.135 321.934C169.643 321.497 169.26 321.005 168.987 320.458C168.44 319.693 168.14 318.763 168.085 317.67C168.085 316.522 168.112 315.292 168.167 313.98C168.167 313.816 168.194 313.625 168.249 313.406C168.358 313.133 168.468 312.805 168.577 312.422C168.686 312.039 168.796 311.657 168.905 311.274C169.069 310.837 169.233 310.372 169.397 309.88C169.178 310.099 168.932 310.317 168.659 310.536C168.386 310.7 168.085 310.891 167.757 311.11C167.265 311.383 166.746 311.657 166.199 311.93C165.652 312.203 165.106 312.422 164.559 312.586C163.739 312.969 162.728 312.887 161.525 312.34C160.377 311.793 159.502 311.001 158.901 309.962C158.682 309.525 158.518 309.115 158.409 308.732C158.3 308.295 158.218 307.803 158.163 307.256C157.89 305.179 158.218 303.183 159.147 301.27C159.858 299.849 160.568 298.455 161.279 297.088C161.99 295.667 162.646 294.273 163.247 292.906C163.52 292.469 163.794 292.031 164.067 291.594C164.34 291.157 164.504 290.829 164.559 290.61C164.723 290.009 165.051 289.489 165.543 289.052C166.09 288.615 166.609 288.396 167.101 288.396C168.03 288.451 168.823 288.669 169.479 289.052C170.135 289.38 170.682 289.872 171.119 290.528C171.556 291.075 171.775 291.758 171.775 292.578C171.775 293.343 171.474 294.109 170.873 294.874C169.998 296.077 169.151 297.389 168.331 298.81C167.566 300.231 166.718 301.926 165.789 303.894C165.625 304.167 165.57 304.495 165.625 304.878C165.734 305.261 165.844 305.643 165.953 306.026C167.538 305.753 168.878 305.233 169.971 304.468C171.119 303.703 172.158 302.828 173.087 301.844C174.071 300.86 175.082 299.958 176.121 299.138C177.378 298.154 178.39 297.006 179.155 295.694C179.538 295.038 180.057 294.327 180.713 293.562C181.369 292.742 182.08 292.305 182.845 292.25C183.282 292.25 183.72 292.305 184.157 292.414C184.594 292.469 185.086 292.715 185.633 293.152C185.688 293.316 185.852 293.644 186.125 294.136C186.453 294.628 186.617 295.257 186.617 296.022C186.617 296.787 186.125 297.689 185.141 298.728C184.813 298.892 184.348 299.329 183.747 300.04C183.2 300.751 182.626 301.571 182.025 302.5C181.424 303.429 180.904 304.277 180.467 305.042C180.248 305.479 180.002 305.862 179.729 306.19C179.51 306.463 179.319 306.737 179.155 307.01L175.219 314.636C175.219 314.691 175.192 314.827 175.137 315.046C175.137 315.21 175.137 315.401 175.137 315.62C175.41 315.62 175.738 315.675 176.121 315.784C176.504 315.893 176.804 316.194 177.023 316.686C177.46 318.107 177.624 319.119 177.515 319.72C177.46 320.267 176.996 321.032 176.121 322.016C174.973 323.219 173.634 323.547 172.103 323ZM191.509 319.966C191.345 319.747 190.989 319.474 190.443 319.146C189.896 318.818 189.623 318.545 189.623 318.326C189.623 318.217 189.595 318.08 189.541 317.916C189.541 317.752 189.431 317.67 189.213 317.67C189.049 317.506 189.131 316.905 189.459 315.866C189.841 314.827 190.333 313.597 190.935 312.176C191.591 310.755 192.274 309.388 192.985 308.076C193.695 306.709 194.297 305.616 194.789 304.796C195.062 304.632 195.226 304.413 195.281 304.14C195.39 303.812 195.39 303.648 195.281 303.648C195.281 303.648 195.417 303.402 195.691 302.91C196.019 302.363 196.265 302.008 196.429 301.844C196.866 301.079 197.194 300.313 197.413 299.548C197.631 298.728 197.686 298.045 197.577 297.498C197.358 297.225 197.112 297.143 196.839 297.252C196.565 297.361 196.429 297.416 196.429 297.416C196.21 297.471 195.882 297.58 195.445 297.744C195.062 297.853 194.707 298.017 194.379 298.236C193.121 299.111 192.192 299.548 191.591 299.548C191.044 299.548 190.497 298.892 189.951 297.58C189.732 296.979 189.65 296.405 189.705 295.858C189.759 295.311 189.978 294.874 190.361 294.546C190.798 294.163 191.345 293.781 192.001 293.398C192.657 292.961 193.094 292.66 193.313 292.496C193.914 292.113 194.761 291.703 195.855 291.266C196.948 290.829 197.604 290.583 197.823 290.528C199.244 290.091 200.447 290.091 201.431 290.528C202.415 290.911 203.153 291.676 203.645 292.824C204.41 293.753 204.793 294.737 204.793 295.776C204.793 296.815 204.41 298.099 203.645 299.63L202.825 300.86C202.551 301.407 202.497 301.68 202.661 301.68C202.879 301.68 203.125 301.489 203.399 301.106C203.563 300.887 203.891 300.559 204.383 300.122C204.875 299.685 205.203 299.466 205.367 299.466C205.367 299.466 205.421 299.439 205.531 299.384C205.695 299.329 205.777 299.111 205.777 298.728C205.941 298.564 206.105 298.4 206.269 298.236C206.487 298.072 206.597 297.99 206.597 297.99C206.815 297.99 207.089 297.881 207.417 297.662C207.799 297.389 208.428 296.897 209.303 296.186C209.904 295.749 210.451 295.53 210.943 295.53C212.2 295.147 213.211 295.557 213.977 296.76C214.797 297.963 215.207 299.521 215.207 301.434L213.485 305.862L216.437 302.254C216.765 301.817 217.093 301.434 217.421 301.106C217.803 300.778 218.131 300.505 218.405 300.286C218.514 299.903 218.678 299.685 218.897 299.63C219.115 299.575 219.225 299.548 219.225 299.548C219.225 299.548 219.279 299.548 219.389 299.548C219.498 299.493 219.553 299.384 219.553 299.22C219.826 299.001 220.127 298.81 220.455 298.646C220.783 298.427 221.001 298.209 221.111 297.99C222.04 297.607 223.161 297.553 224.473 297.826C225.785 298.045 226.714 298.728 227.261 299.876C227.643 300.532 227.999 301.106 228.327 301.598C228.655 302.09 228.819 302.828 228.819 303.812C228.709 304.632 228.6 305.206 228.491 305.534C228.436 305.862 228.381 306.217 228.327 306.6C228.272 306.928 228.19 307.529 228.081 308.404C227.862 308.841 227.725 309.306 227.671 309.798C227.671 310.29 227.671 310.755 227.671 311.192C227.671 311.903 227.698 312.395 227.753 312.668C227.807 312.887 228.026 312.996 228.409 312.996C229.174 312.832 229.803 312.586 230.295 312.258C230.841 311.875 231.443 311.383 232.099 310.782C232.919 310.017 233.629 309.907 234.231 310.454C234.887 310.946 235.297 311.52 235.461 312.176C235.57 312.395 235.461 312.887 235.133 313.652C234.805 314.417 234.422 315.155 233.985 315.866C233.547 316.577 233.192 316.932 232.919 316.932C232.755 316.932 232.427 317.151 231.935 317.588C231.443 318.025 231.06 318.326 230.787 318.49C230.404 318.873 230.021 319.228 229.639 319.556C229.311 319.884 228.928 320.048 228.491 320.048C228.272 320.048 227.999 320.13 227.671 320.294C227.397 320.403 227.069 320.458 226.687 320.458C226.14 320.622 225.293 320.54 224.145 320.212C223.051 319.884 222.341 319.119 222.013 317.916C221.794 317.315 221.466 316.549 221.029 315.62C220.646 314.691 220.564 313.543 220.783 312.176C221.001 311.192 221.138 310.29 221.193 309.47C221.247 308.65 221.357 308.076 221.521 307.748C221.521 307.584 221.521 307.201 221.521 306.6C221.521 305.944 221.439 305.616 221.275 305.616C221.056 305.616 220.646 305.889 220.045 306.436C219.443 306.983 218.733 307.721 217.913 308.65C217.093 309.525 216.245 310.481 215.371 311.52C214.551 312.559 213.813 313.597 213.157 314.636C212.665 315.237 212.227 315.975 211.845 316.85C211.462 317.725 211.189 318.217 211.025 318.326C210.642 318.763 209.986 318.818 209.057 318.49C208.182 318.162 207.526 317.643 207.089 316.932C206.925 316.604 206.733 316.413 206.515 316.358C206.296 316.249 206.105 316.085 205.941 315.866C205.831 315.593 205.831 315.073 205.941 314.308C206.105 313.543 206.46 312.313 207.007 310.618C207.608 308.759 208.127 307.092 208.565 305.616C209.057 304.085 209.303 303.32 209.303 303.32C209.303 303.101 208.893 303.32 208.073 303.976C207.253 304.577 206.296 305.343 205.203 306.272C204.711 306.873 204.055 307.639 203.235 308.568C202.469 309.497 201.567 310.591 200.529 311.848C199.545 313.105 198.424 314.581 197.167 316.276C195.581 318.517 194.379 319.884 193.559 320.376C192.793 320.868 192.11 320.731 191.509 319.966ZM245.663 322.426C244.952 322.426 244.378 322.289 243.941 322.016C243.558 321.743 243.066 321.36 242.465 320.868C241.426 319.775 240.579 318.599 239.923 317.342C239.321 316.085 239.103 314.991 239.267 314.062C239.431 313.625 239.485 313.215 239.431 312.832C239.431 312.395 239.431 312.176 239.431 312.176C239.157 311.903 239.075 311.739 239.185 311.684C239.294 311.575 239.403 311.411 239.513 311.192C239.841 311.192 239.95 310.891 239.841 310.29C239.731 309.853 239.895 308.923 240.333 307.502C240.825 306.026 241.481 304.632 242.301 303.32C242.629 302.773 243.121 302.063 243.777 301.188C244.433 300.259 245.143 299.357 245.909 298.482C246.729 297.553 247.467 296.815 248.123 296.268C249.489 295.12 250.747 294.191 251.895 293.48C253.097 292.769 254.3 292.277 255.503 292.004C256.705 291.731 257.935 291.594 259.193 291.594C260.505 291.594 261.571 292.031 262.391 292.906C263.648 293.453 264.523 294.191 265.015 295.12C265.561 296.049 265.917 297.252 266.081 298.728C266.245 300.368 266.081 302.391 265.589 304.796C265.097 307.147 263.757 309.88 261.571 312.996C260.204 314.964 258.865 316.495 257.553 317.588C256.241 318.681 254.792 319.693 253.207 320.622C252.059 321.387 250.829 321.852 249.517 322.016C248.205 322.18 246.92 322.317 245.663 322.426ZM254.027 312.422C255.229 311.383 256.077 310.235 256.569 308.978C257.115 307.721 257.689 306.245 258.291 304.55C258.509 304.222 258.646 303.675 258.701 302.91C258.81 302.145 258.837 301.407 258.783 300.696C258.728 299.931 258.537 299.493 258.209 299.384C257.717 299.001 257.225 298.919 256.733 299.138C256.241 299.302 255.612 299.657 254.847 300.204C253.207 301.571 251.676 303.156 250.255 304.96C248.888 306.709 247.931 308.869 247.385 311.438C247.221 312.805 247.357 313.843 247.795 314.554C248.287 315.21 249.052 315.401 250.091 315.128C251.184 314.8 252.496 313.898 254.027 312.422ZM266.106 330.052C265.504 330.052 264.985 329.915 264.548 329.642C264.165 329.369 263.864 329.041 263.646 328.658C263.646 328.275 263.755 327.947 263.974 327.674C264.192 327.401 264.493 327.073 264.876 326.69C265.477 326.143 266.051 325.46 266.598 324.64C267.144 323.875 267.636 323.082 268.074 322.262C268.566 321.442 268.948 320.786 269.222 320.294C269.44 319.693 269.659 318.982 269.878 318.162C270.096 317.342 270.315 316.44 270.534 315.456C270.534 315.019 270.534 314.636 270.534 314.308C270.588 313.925 270.725 313.625 270.944 313.406C271.381 313.023 271.9 312.695 272.502 312.422C273.158 312.094 273.786 312.203 274.388 312.75C275.044 313.242 275.536 314.527 275.864 316.604C276.082 317.807 276.082 318.9 275.864 319.884C275.645 320.868 275.18 322.071 274.47 323.492C274.36 323.875 273.95 324.503 273.24 325.378C272.584 326.253 271.9 327.045 271.19 327.756C270.534 328.521 270.124 328.904 269.96 328.904C269.741 328.904 269.55 328.959 269.386 329.068C269.222 329.232 269.003 329.423 268.73 329.642C268.511 329.861 268.183 329.97 267.746 329.97C267.308 330.025 266.762 330.052 266.106 330.052ZM326.083 322.754C325.154 322.426 324.306 321.934 323.541 321.278C322.776 320.622 322.065 319.939 321.409 319.228C321.19 318.955 320.862 318.381 320.425 317.506C320.042 316.577 319.578 315.538 319.031 314.39C318.539 313.187 318.02 311.985 317.473 310.782C316.981 309.579 316.516 308.513 316.079 307.584C315.806 308.295 315.56 309.005 315.341 309.716C315.177 310.372 315.095 311.028 315.095 311.684C314.603 312.559 314.166 313.652 313.783 314.964C313.455 316.221 313.209 317.069 313.045 317.506C312.881 318.217 312.553 318.9 312.061 319.556C311.624 320.157 311.104 320.677 310.503 321.114C309.355 321.169 308.508 321.087 307.961 320.868C307.469 320.595 306.84 319.993 306.075 319.064C305.638 318.135 305.419 317.287 305.419 316.522C305.474 315.702 305.61 314.964 305.829 314.308C305.938 313.816 306.239 312.859 306.731 311.438C307.278 309.962 307.879 308.377 308.535 306.682C309.191 304.933 309.738 303.402 310.175 302.09C310.667 300.723 310.94 299.931 310.995 299.712C311.378 298.455 311.979 297.225 312.799 296.022C313.619 294.765 314.166 293.453 314.439 292.086C314.658 291.102 315.122 290.391 315.833 289.954C316.544 289.462 317.309 289.271 318.129 289.38C318.949 289.435 319.605 289.845 320.097 290.61C320.316 290.665 320.507 290.747 320.671 290.856C320.89 290.911 321.081 291.075 321.245 291.348C321.792 291.949 322.12 292.687 322.229 293.562C322.393 294.437 322.229 295.284 321.737 296.104C321.136 297.197 320.616 298.099 320.179 298.81C319.796 299.521 319.414 300.204 319.031 300.86C318.703 301.516 318.348 302.309 317.965 303.238C318.512 303.129 319.004 303.047 319.441 302.992C319.878 302.883 320.261 302.746 320.589 302.582C320.972 302.363 321.354 302.035 321.737 301.598C322.065 301.27 322.639 300.723 323.459 299.958C324.279 299.138 325.154 298.291 326.083 297.416C327.067 296.487 327.887 295.694 328.543 295.038C329.254 294.327 329.636 293.945 329.691 293.89C330.074 293.398 330.484 292.879 330.921 292.332C331.413 291.731 332.042 291.321 332.807 291.102C333.791 291.157 334.584 291.293 335.185 291.512C335.841 291.731 336.278 292.113 336.497 292.66C337.153 293.316 337.317 294.245 336.989 295.448C336.716 296.651 336.224 297.553 335.513 298.154C334.584 298.865 333.408 299.794 331.987 300.942C330.62 302.035 329.172 303.211 327.641 304.468C326.11 305.671 324.58 306.819 323.049 307.912C323.65 308.951 324.197 309.962 324.689 310.946C325.181 311.875 325.618 312.668 326.001 313.324C326.602 314.199 327.04 314.882 327.313 315.374C327.586 315.811 328.406 316.03 329.773 316.03C330.757 316.467 331.386 316.905 331.659 317.342C331.932 317.779 332.069 318.217 332.069 318.654C332.069 319.037 332.096 319.447 332.151 319.884C332.042 320.431 331.741 321.032 331.249 321.688C330.812 322.289 330.156 322.727 329.281 323C328.406 323.328 327.34 323.246 326.083 322.754ZM337.275 340.056C335.307 340.439 333.421 340.493 331.617 340.22C329.813 340.001 328.309 339.537 327.107 338.826C325.849 338.115 325.084 337.323 324.811 336.448C324.483 335.191 324.647 334.261 325.303 333.66C325.959 333.059 326.751 332.703 327.681 332.594C328.555 332.485 329.129 332.594 329.403 332.922C329.84 333.195 330.523 333.605 331.453 334.152C332.437 334.699 333.639 334.835 335.061 334.562C336.318 334.289 337.439 333.687 338.423 332.758C339.407 331.829 340.281 330.845 341.047 329.806C341.484 329.15 342.222 327.975 343.261 326.28C344.299 324.585 345.365 322.727 346.459 320.704C347.607 318.627 348.563 316.713 349.329 314.964C349.493 314.527 349.684 314.007 349.903 313.406C350.121 312.805 350.395 312.313 350.723 311.93C351.051 311.274 351.324 310.673 351.543 310.126C351.816 309.525 351.98 309.115 352.035 308.896C352.089 308.623 352.335 308.076 352.773 307.256C353.21 306.436 353.62 305.616 354.003 304.796C354.276 303.976 354.686 302.773 355.233 301.188C355.779 299.603 356.326 298.318 356.873 297.334C357.529 296.077 358.048 295.065 358.431 294.3C358.868 293.48 359.333 292.988 359.825 292.824C360.317 292.441 360.781 292.25 361.219 292.25C361.656 292.25 362.175 292.414 362.777 292.742C363.433 293.398 363.952 294.054 364.335 294.71C364.772 295.311 364.936 296.077 364.827 297.006C364.772 297.881 364.335 299.083 363.515 300.614C363.077 301.926 362.585 303.129 362.039 304.222C361.547 305.261 361.164 305.944 360.891 306.272C360.617 306.928 360.289 307.666 359.907 308.486C359.579 309.251 359.278 309.962 359.005 310.618C358.021 312.805 357.173 314.581 356.463 315.948C355.752 317.315 355.123 318.572 354.577 319.72C354.03 320.868 353.456 322.207 352.855 323.738C351.597 325.761 350.367 327.674 349.165 329.478C348.017 331.337 346.787 333.059 345.475 334.644C344.928 335.136 344.135 335.765 343.097 336.53C342.113 337.35 341.074 338.088 339.981 338.744C338.942 339.455 338.04 339.892 337.275 340.056ZM347.525 321.524C346.705 321.415 345.803 320.868 344.819 319.884C343.889 318.9 343.097 317.861 342.441 316.768C341.839 315.675 341.593 314.909 341.703 314.472C341.703 314.199 341.703 313.98 341.703 313.816C341.703 313.652 341.703 313.57 341.703 313.57C341.375 313.57 341.101 313.105 340.883 312.176C340.719 311.192 340.582 309.962 340.473 308.486C340.418 307.01 340.391 305.479 340.391 303.894C340.445 302.309 340.527 300.86 340.637 299.548C340.855 298.619 340.965 297.607 340.965 296.514C340.965 295.366 340.992 294.464 341.047 293.808C340.992 292.933 341.156 292.223 341.539 291.676C341.976 291.129 342.304 290.774 342.523 290.61C344.545 289.735 346.021 290.2 346.951 292.004C347.88 293.808 348.208 296.678 347.935 300.614C347.825 302.801 347.771 304.905 347.771 306.928C347.771 308.896 347.962 310.591 348.345 312.012C348.727 313.433 349.383 314.445 350.313 315.046C350.695 315.265 350.832 315.729 350.723 316.44C350.613 317.151 350.367 317.916 349.985 318.736C349.602 319.501 349.165 320.185 348.673 320.786C348.235 321.333 347.853 321.579 347.525 321.524ZM367.19 317.26C366.971 316.823 366.917 316.331 367.026 315.784C367.135 315.183 366.889 314.663 366.288 314.226C366.561 312.586 366.78 311.11 366.944 309.798C367.163 308.486 367.436 307.256 367.764 306.108C368.037 305.288 368.338 304.495 368.666 303.73C369.049 302.965 369.513 302.172 370.06 301.352C370.661 300.532 371.345 299.685 372.11 298.81C372.329 298.537 372.547 298.291 372.766 298.072C373.039 297.853 373.285 297.635 373.504 297.416C373.613 297.252 373.723 297.088 373.832 296.924C373.941 296.76 374.051 296.623 374.16 296.514C374.816 295.694 375.581 294.983 376.456 294.382C377.385 293.726 378.342 293.179 379.326 292.742C380.365 292.305 381.349 291.949 382.278 291.676C382.825 291.512 383.317 291.375 383.754 291.266C384.191 291.157 384.629 291.102 385.066 291.102C385.503 291.102 385.995 291.157 386.542 291.266C386.542 290.993 386.46 290.665 386.296 290.282C386.187 289.845 386.132 289.435 386.132 289.052C386.241 288.779 386.269 288.451 386.214 288.068C386.214 287.631 386.159 287.275 386.05 287.002C385.613 286.455 385.394 285.799 385.394 285.034C385.449 284.269 385.175 283.558 384.574 282.902C384.683 281.918 384.41 281.071 383.754 280.36C383.153 279.595 382.333 279.021 381.294 278.638C380.31 278.201 379.271 277.982 378.178 277.982C377.467 277.982 376.784 278.064 376.128 278.228C375.527 278.337 374.98 278.583 374.488 278.966C373.996 279.021 373.313 279.075 372.438 279.13C371.618 279.13 370.989 278.939 370.552 278.556C369.513 277.408 368.885 276.506 368.666 275.85C368.447 275.139 368.502 274.538 368.83 274.046C369.267 273.499 369.869 273.035 370.634 272.652C371.454 272.215 372.301 271.695 373.176 271.094C373.723 271.313 374.16 271.285 374.488 271.012C374.871 270.739 375.363 270.711 375.964 270.93C376.729 270.766 377.44 270.739 378.096 270.848C378.752 270.903 379.408 271.012 380.064 271.176C380.283 271.231 380.474 271.285 380.638 271.34C380.857 271.34 381.075 271.367 381.294 271.422C383.371 271.75 385.23 272.652 386.87 274.128C388.565 275.549 389.849 277.162 390.724 278.966C390.997 279.513 391.298 280.114 391.626 280.77C391.954 281.371 392.227 281.973 392.446 282.574C392.665 283.066 392.856 283.831 393.02 284.87C393.239 285.909 393.403 287.029 393.512 288.232C393.676 289.38 393.785 290.446 393.84 291.43C393.84 291.813 393.84 292.168 393.84 292.496C393.84 292.824 393.813 293.125 393.758 293.398C393.102 297.279 392.009 301.297 390.478 305.452C389.002 309.607 387.253 313.379 385.23 316.768C384.629 317.807 383.863 318.763 382.934 319.638C382.059 320.513 381.075 321.251 379.982 321.852C378.998 322.399 377.932 322.809 376.784 323.082C375.691 323.41 374.57 323.601 373.422 323.656C372.602 323 371.782 322.399 370.962 321.852C370.142 321.251 369.404 320.595 368.748 319.884C368.092 319.173 367.573 318.299 367.19 317.26ZM374.488 316.932C374.761 316.823 375.007 316.713 375.226 316.604C375.499 316.495 375.691 316.331 375.8 316.112C376.62 315.511 377.467 314.609 378.342 313.406C379.271 312.203 380.119 310.946 380.884 309.634C381.704 308.322 382.278 307.229 382.606 306.354C382.77 305.862 382.989 305.233 383.262 304.468C383.535 303.703 383.809 303.156 384.082 302.828C384.465 302.117 384.793 301.325 385.066 300.45C385.339 299.575 385.449 298.755 385.394 297.99C383.207 298.865 381.294 300.067 379.654 301.598C378.069 303.074 376.702 304.851 375.554 306.928C375.39 308.076 375.062 309.169 374.57 310.208C374.133 311.247 373.859 312.367 373.75 313.57C373.531 314.062 373.395 314.499 373.34 314.882C373.34 315.265 373.395 315.729 373.504 316.276C373.613 316.44 373.75 316.577 373.914 316.686C374.078 316.795 374.269 316.877 374.488 316.932ZM404.695 321.852C404.257 321.961 403.683 322.016 402.973 322.016C402.262 321.961 401.633 321.879 401.087 321.77C400.595 321.606 400.349 321.442 400.349 321.278C400.349 321.005 400.212 320.868 399.939 320.868C399.939 320.868 399.638 320.649 399.037 320.212C398.435 319.72 397.889 319.365 397.397 319.146C396.905 318.381 396.577 317.506 396.413 316.522C396.303 315.483 396.631 313.679 397.397 311.11C397.451 309.361 397.943 307.529 398.873 305.616C399.802 303.648 400.977 301.735 402.399 299.876C403.82 298.017 405.296 296.377 406.827 294.956C408.357 293.48 409.724 292.387 410.927 291.676C411.692 290.911 412.703 290.501 413.961 290.446C415.273 290.391 416.421 290.637 417.405 291.184C417.951 291.457 418.553 292.004 419.209 292.824C419.865 293.644 420.493 294.519 421.095 295.448C421.696 296.323 422.161 297.115 422.489 297.826C422.653 298.427 422.789 298.974 422.899 299.466C423.063 299.903 423.172 300.45 423.227 301.106C423.281 301.762 423.227 302.746 423.063 304.058C422.789 305.042 422.543 306.053 422.325 307.092C422.161 308.076 422.079 309.087 422.079 310.126C421.969 311.165 422.079 311.903 422.407 312.34C422.789 312.777 423.336 312.805 424.047 312.422C424.703 312.094 425.386 312.067 426.097 312.34C426.807 312.559 427.299 312.996 427.573 313.652C427.901 314.253 427.819 315.046 427.327 316.03C426.999 316.741 426.479 317.424 425.769 318.08C425.058 318.736 424.265 319.283 423.391 319.72C422.516 320.103 421.669 320.294 420.849 320.294C420.247 320.294 419.646 320.075 419.045 319.638C418.443 319.146 417.897 318.49 417.405 317.67C416.913 316.85 416.503 315.948 416.175 314.964L415.683 313.078L412.731 315.784C412.02 316.549 411.309 317.26 410.599 317.916C409.943 318.517 409.533 318.955 409.369 319.228C409.095 319.72 408.549 320.157 407.729 320.54C406.963 320.923 405.952 321.36 404.695 321.852ZM406.909 313.98C407.838 313.433 408.631 312.777 409.287 312.012C409.997 311.247 410.681 310.399 411.337 309.47C411.993 308.486 412.703 307.447 413.469 306.354C414.398 305.097 415.054 304.085 415.437 303.32C415.874 302.555 416.202 301.735 416.421 300.86C416.202 300.259 415.901 299.63 415.519 298.974C415.136 298.263 414.753 297.881 414.371 297.826C413.605 297.826 412.676 298.291 411.583 299.22C410.544 300.149 409.396 301.489 408.139 303.238C407.92 303.511 407.647 303.949 407.319 304.55C406.991 305.151 406.663 305.725 406.335 306.272C406.061 306.764 405.87 307.092 405.761 307.256C405.597 307.475 405.351 307.994 405.023 308.814C404.749 309.579 404.503 310.372 404.285 311.192C404.066 311.957 403.957 312.504 403.957 312.832C403.957 313.16 403.984 313.515 404.039 313.898C404.148 314.281 404.421 314.527 404.859 314.636C405.296 314.745 405.979 314.527 406.909 313.98ZM428.264 330.052C427.663 330.052 427.143 329.915 426.706 329.642C426.323 329.369 426.023 329.041 425.804 328.658C425.804 328.275 425.913 327.947 426.132 327.674C426.351 327.401 426.651 327.073 427.034 326.69C427.635 326.143 428.209 325.46 428.756 324.64C429.303 323.875 429.795 323.082 430.232 322.262C430.724 321.442 431.107 320.786 431.38 320.294C431.599 319.693 431.817 318.982 432.036 318.162C432.255 317.342 432.473 316.44 432.692 315.456C432.692 315.019 432.692 314.636 432.692 314.308C432.747 313.925 432.883 313.625 433.102 313.406C433.539 313.023 434.059 312.695 434.66 312.422C435.316 312.094 435.945 312.203 436.546 312.75C437.202 313.242 437.694 314.527 438.022 316.604C438.241 317.807 438.241 318.9 438.022 319.884C437.803 320.868 437.339 322.071 436.628 323.492C436.519 323.875 436.109 324.503 435.398 325.378C434.742 326.253 434.059 327.045 433.348 327.756C432.692 328.521 432.282 328.904 432.118 328.904C431.899 328.904 431.708 328.959 431.544 329.068C431.38 329.232 431.161 329.423 430.888 329.642C430.669 329.861 430.341 329.97 429.904 329.97C429.467 330.025 428.92 330.052 428.264 330.052ZM487.421 322.836C486.874 322.289 486.437 321.551 486.109 320.622C485.781 319.638 485.453 318.517 485.125 317.26C485.016 316.823 484.961 316.331 484.961 315.784C485.016 315.237 485.016 314.8 484.961 314.472C484.797 314.855 484.524 315.347 484.141 315.948C483.813 316.549 483.485 316.987 483.157 317.26C482.938 317.479 482.446 317.916 481.681 318.572C480.916 319.173 480.15 319.665 479.385 320.048C477.581 321.196 475.968 321.743 474.547 321.688C473.18 321.579 471.978 320.868 470.939 319.556C470.064 318.845 469.354 317.943 468.807 316.85C468.26 315.757 468.151 314.445 468.479 312.914C468.588 311.001 468.862 309.142 469.299 307.338C469.736 305.479 470.638 303.019 472.005 299.958C473.153 297.717 474.028 295.967 474.629 294.71C475.23 293.453 475.613 292.715 475.777 292.496C476.597 292.223 477.608 292.25 478.811 292.578C480.014 292.851 480.67 293.371 480.779 294.136C481.107 294.683 481.107 295.721 480.779 297.252C480.451 298.728 479.795 300.423 478.811 302.336C478.046 304.195 477.308 305.999 476.597 307.748C475.941 309.497 475.531 310.973 475.367 312.176C475.258 313.379 475.586 314.117 476.351 314.39C476.843 314.663 477.554 314.636 478.483 314.308C479.467 313.98 480.615 312.996 481.927 311.356C483.239 309.716 484.633 307.119 486.109 303.566C486.546 302.473 486.874 301.516 487.093 300.696C487.312 299.821 487.448 298.865 487.503 297.826C487.394 297.17 487.558 296.487 487.995 295.776C488.487 295.065 489.061 294.519 489.717 294.136C489.936 293.863 490.236 293.617 490.619 293.398C491.002 293.125 491.248 293.125 491.357 293.398L492.669 293.316C492.888 293.261 493.134 293.48 493.407 293.972C493.68 294.464 493.954 294.819 494.227 295.038C494.828 295.53 495.102 296.596 495.047 298.236C494.992 299.876 494.336 302.172 493.079 305.124C492.04 307.365 491.33 309.06 490.947 310.208C490.619 311.356 490.428 312.477 490.373 313.57C490.373 314.554 490.455 315.401 490.619 316.112C490.783 316.768 491.275 317.451 492.095 318.162C492.696 318.545 493.024 319.201 493.079 320.13C493.188 321.005 493.216 321.77 493.161 322.426C493.052 322.918 492.614 323.246 491.849 323.41C491.138 323.629 490.346 323.683 489.471 323.574C488.651 323.465 487.968 323.219 487.421 322.836ZM538.45 322.754C537.521 322.426 536.673 321.934 535.908 321.278C535.143 320.622 534.432 319.939 533.776 319.228C533.557 318.955 533.229 318.381 532.792 317.506C532.409 316.577 531.945 315.538 531.398 314.39C530.906 313.187 530.387 311.985 529.84 310.782C529.348 309.579 528.883 308.513 528.446 307.584C528.173 308.295 527.927 309.005 527.708 309.716C527.544 310.372 527.462 311.028 527.462 311.684C526.97 312.559 526.533 313.652 526.15 314.964C525.822 316.221 525.576 317.069 525.412 317.506C525.248 318.217 524.92 318.9 524.428 319.556C523.991 320.157 523.471 320.677 522.87 321.114C521.722 321.169 520.875 321.087 520.328 320.868C519.836 320.595 519.207 319.993 518.442 319.064C518.005 318.135 517.786 317.287 517.786 316.522C517.841 315.702 517.977 314.964 518.196 314.308C518.305 313.816 518.606 312.859 519.098 311.438C519.645 309.962 520.246 308.377 520.902 306.682C521.558 304.933 522.105 303.402 522.542 302.09C523.034 300.723 523.307 299.931 523.362 299.712C523.745 298.455 524.346 297.225 525.166 296.022C525.986 294.765 526.533 293.453 526.806 292.086C527.025 291.102 527.489 290.391 528.2 289.954C528.911 289.462 529.676 289.271 530.496 289.38C531.316 289.435 531.972 289.845 532.464 290.61C532.683 290.665 532.874 290.747 533.038 290.856C533.257 290.911 533.448 291.075 533.612 291.348C534.159 291.949 534.487 292.687 534.596 293.562C534.76 294.437 534.596 295.284 534.104 296.104C533.503 297.197 532.983 298.099 532.546 298.81C532.163 299.521 531.781 300.204 531.398 300.86C531.07 301.516 530.715 302.309 530.332 303.238C530.879 303.129 531.371 303.047 531.808 302.992C532.245 302.883 532.628 302.746 532.956 302.582C533.339 302.363 533.721 302.035 534.104 301.598C534.432 301.27 535.006 300.723 535.826 299.958C536.646 299.138 537.521 298.291 538.45 297.416C539.434 296.487 540.254 295.694 540.91 295.038C541.621 294.327 542.003 293.945 542.058 293.89C542.441 293.398 542.851 292.879 543.288 292.332C543.78 291.731 544.409 291.321 545.174 291.102C546.158 291.157 546.951 291.293 547.552 291.512C548.208 291.731 548.645 292.113 548.864 292.66C549.52 293.316 549.684 294.245 549.356 295.448C549.083 296.651 548.591 297.553 547.88 298.154C546.951 298.865 545.775 299.794 544.354 300.942C542.987 302.035 541.539 303.211 540.008 304.468C538.477 305.671 536.947 306.819 535.416 307.912C536.017 308.951 536.564 309.962 537.056 310.946C537.548 311.875 537.985 312.668 538.368 313.324C538.969 314.199 539.407 314.882 539.68 315.374C539.953 315.811 540.773 316.03 542.14 316.03C543.124 316.467 543.753 316.905 544.026 317.342C544.299 317.779 544.436 318.217 544.436 318.654C544.436 319.037 544.463 319.447 544.518 319.884C544.409 320.431 544.108 321.032 543.616 321.688C543.179 322.289 542.523 322.727 541.648 323C540.773 323.328 539.707 323.246 538.45 322.754ZM559.646 321.852C559.209 321.961 558.635 322.016 557.924 322.016C557.213 321.961 556.585 321.879 556.038 321.77C555.546 321.606 555.3 321.442 555.3 321.278C555.3 321.005 555.163 320.868 554.89 320.868C554.89 320.868 554.589 320.649 553.988 320.212C553.387 319.72 552.84 319.365 552.348 319.146C551.856 318.381 551.528 317.506 551.364 316.522C551.255 315.483 551.583 313.679 552.348 311.11C552.403 309.361 552.895 307.529 553.824 305.616C554.753 303.648 555.929 301.735 557.35 299.876C558.771 298.017 560.247 296.377 561.778 294.956C563.309 293.48 564.675 292.387 565.878 291.676C566.643 290.911 567.655 290.501 568.912 290.446C570.224 290.391 571.372 290.637 572.356 291.184C572.903 291.457 573.504 292.004 574.16 292.824C574.816 293.644 575.445 294.519 576.046 295.448C576.647 296.323 577.112 297.115 577.44 297.826C577.604 298.427 577.741 298.974 577.85 299.466C578.014 299.903 578.123 300.45 578.178 301.106C578.233 301.762 578.178 302.746 578.014 304.058C577.741 305.042 577.495 306.053 577.276 307.092C577.112 308.076 577.03 309.087 577.03 310.126C576.921 311.165 577.03 311.903 577.358 312.34C577.741 312.777 578.287 312.805 578.998 312.422C579.654 312.094 580.337 312.067 581.048 312.34C581.759 312.559 582.251 312.996 582.524 313.652C582.852 314.253 582.77 315.046 582.278 316.03C581.95 316.741 581.431 317.424 580.72 318.08C580.009 318.736 579.217 319.283 578.342 319.72C577.467 320.103 576.62 320.294 575.8 320.294C575.199 320.294 574.597 320.075 573.996 319.638C573.395 319.146 572.848 318.49 572.356 317.67C571.864 316.85 571.454 315.948 571.126 314.964L570.634 313.078L567.682 315.784C566.971 316.549 566.261 317.26 565.55 317.916C564.894 318.517 564.484 318.955 564.32 319.228C564.047 319.72 563.5 320.157 562.68 320.54C561.915 320.923 560.903 321.36 559.646 321.852ZM561.86 313.98C562.789 313.433 563.582 312.777 564.238 312.012C564.949 311.247 565.632 310.399 566.288 309.47C566.944 308.486 567.655 307.447 568.42 306.354C569.349 305.097 570.005 304.085 570.388 303.32C570.825 302.555 571.153 301.735 571.372 300.86C571.153 300.259 570.853 299.63 570.47 298.974C570.087 298.263 569.705 297.881 569.322 297.826C568.557 297.826 567.627 298.291 566.534 299.22C565.495 300.149 564.347 301.489 563.09 303.238C562.871 303.511 562.598 303.949 562.27 304.55C561.942 305.151 561.614 305.725 561.286 306.272C561.013 306.764 560.821 307.092 560.712 307.256C560.548 307.475 560.302 307.994 559.974 308.814C559.701 309.579 559.455 310.372 559.236 311.192C559.017 311.957 558.908 312.504 558.908 312.832C558.908 313.16 558.935 313.515 558.99 313.898C559.099 314.281 559.373 314.527 559.81 314.636C560.247 314.745 560.931 314.527 561.86 313.98ZM589.775 323.246C589.338 323.137 588.764 322.727 588.053 322.016C587.342 321.251 586.686 320.403 586.085 319.474C585.538 318.545 585.265 317.779 585.265 317.178C585.538 316.577 585.894 315.538 586.331 314.062C586.768 312.531 587.315 310.782 587.971 308.814C588.408 308.213 588.736 307.502 588.955 306.682C589.228 305.862 589.474 305.124 589.693 304.468C590.13 303.593 590.622 302.473 591.169 301.106C591.77 299.685 592.372 298.263 592.973 296.842C593.574 295.366 594.094 294.136 594.531 293.152C594.804 292.66 595.078 292.168 595.351 291.676C595.624 291.184 595.87 290.692 596.089 290.2C596.089 289.927 596.226 289.681 596.499 289.462C596.772 289.189 597.128 288.997 597.565 288.888C597.838 288.779 598.139 288.697 598.467 288.642C598.85 288.587 599.232 288.56 599.615 288.56C600.38 288.56 601.064 289.052 601.665 290.036C602.321 290.965 602.649 291.813 602.649 292.578C602.649 293.726 602.458 294.683 602.075 295.448C601.747 296.159 601.364 296.787 600.927 297.334C600.49 297.826 600.08 298.345 599.697 298.892C599.369 299.439 599.205 300.149 599.205 301.024C599.205 301.243 599.396 301.27 599.779 301.106C600.162 300.887 600.599 300.641 601.091 300.368C601.528 300.149 602.157 299.712 602.977 299.056C603.852 298.4 604.754 297.744 605.683 297.088C606.612 296.377 607.378 295.94 607.979 295.776C609.182 294.956 610.138 294.355 610.849 293.972C611.56 293.535 612.079 293.316 612.407 293.316C613.008 293.316 613.637 293.699 614.293 294.464C614.949 295.175 615.277 295.858 615.277 296.514C615.277 297.061 615.058 297.607 614.621 298.154C614.238 298.646 613.692 299.193 612.981 299.794C611.833 300.723 610.494 301.653 608.963 302.582C607.432 303.457 606.038 304.222 604.781 304.878C603.578 305.479 602.868 305.917 602.649 306.19C602.649 306.245 602.84 306.573 603.223 307.174C603.66 307.721 604.125 308.349 604.617 309.06C604.945 309.661 605.246 310.263 605.519 310.864C605.847 311.411 606.12 311.93 606.339 312.422C607.05 313.898 607.651 315.046 608.143 315.866C608.69 316.631 609.318 317.096 610.029 317.26C610.74 317.369 611.778 317.233 613.145 316.85C614.184 316.522 614.976 316.713 615.523 317.424C616.124 318.135 616.425 318.791 616.425 319.392C616.425 319.665 616.261 319.966 615.933 320.294C615.66 320.622 615.304 320.977 614.867 321.36C613.992 322.071 612.954 322.699 611.751 323.246C610.603 323.847 609.728 324.148 609.127 324.148C608.526 324.148 607.87 323.984 607.159 323.656C606.448 323.328 605.546 322.617 604.453 321.524C603.36 320.431 601.911 318.709 600.107 316.358C600.107 316.139 599.97 315.784 599.697 315.292C599.424 314.745 599.15 314.199 598.877 313.652C598.658 313.215 598.44 312.859 598.221 312.586C598.057 312.258 597.948 312.067 597.893 312.012C597.893 312.285 597.838 312.231 597.729 311.848C597.674 311.465 597.538 311.055 597.319 310.618C597.1 310.126 596.772 309.88 596.335 309.88C596.116 309.88 595.816 310.235 595.433 310.946C595.05 311.602 594.64 312.422 594.203 313.406C593.93 314.062 593.656 314.773 593.383 315.538C593.11 316.303 592.891 317.069 592.727 317.834C592.618 318.545 592.563 319.228 592.563 319.884C592.563 320.704 592.317 321.469 591.825 322.18C591.388 322.891 590.704 323.246 589.775 323.246ZM624.901 318.736C623.753 319.119 622.797 319.31 622.031 319.31C621.266 319.255 620.419 318.9 619.489 318.244C618.396 317.151 618.013 316.057 618.341 314.964C618.724 313.816 619.708 312.695 621.293 311.602C622.387 310.946 623.179 310.618 623.671 310.618C624.218 310.563 625.011 310.755 626.049 311.192C627.908 312.34 628.728 313.625 628.509 315.046C628.291 316.413 627.088 317.643 624.901 318.736Z" fill="black"/>
</svg>
